<svg width="40" height="40" viewBox="0 0 40 40" fill="none" xmlns="http://www.w3.org/2000/svg">
<circle cx="20" cy="20" r="20" fill="black"/>
<path d="M33.0827 13.7421C33.2773 13.4369 33.3885 13.0623 33.3885 12.6877C33.3885 12.5906 33.3746 12.4796 33.3746 12.3963C33.2356 11.4252 32.4016 10.6899 31.4147 10.6899H31.4008C30.6085 10.6899 29.9136 11.1616 29.5939 11.8414C25.8549 11.3974 23.2556 9.67709 21.824 8.42845C21.9352 8.17872 22.0047 7.90124 22.0047 7.62377C22.0047 6.79134 21.4765 6.02829 20.6842 5.75081C20.2533 5.5982 19.7529 5.5982 19.336 5.75081C18.5437 6.02829 18.0155 6.79134 18.0155 7.62377C18.0155 7.90124 18.0711 8.17872 18.1962 8.42845C16.7506 9.67709 14.1514 11.4113 10.3985 11.8414C10.0788 11.1616 9.39773 10.7037 8.60545 10.6899C8.60545 10.6899 8.60545 10.6899 8.59155 10.6899C7.66028 10.6899 6.8402 11.3419 6.64561 12.2576C6.61781 12.3825 6.60391 12.5212 6.60391 12.6599C6.60391 13.0484 6.71511 13.423 6.9236 13.7421C6.27032 14.7965 5.54754 16.2949 5.24175 18.0568C4.58847 21.8444 5.74213 27.3384 15.0271 32.0832C15.9444 32.5549 16.9452 33.0128 18.0016 33.4567V33.4706C18.0016 34.5666 18.8912 35.4545 19.9892 35.4545C21.0873 35.4545 21.9769 34.5666 21.9769 33.4706V33.4567C22.9776 33.0405 23.9506 32.5965 24.8402 32.1387C30.3166 29.364 33.5969 26.0343 34.5838 22.2328C35.5429 18.6534 34.1807 15.5179 33.0827 13.7421ZM21.2124 26.6724C20.9066 26.3672 20.4757 26.1869 20.0031 26.1869C19.5305 26.1869 19.1136 26.3672 18.7939 26.6724C18.3074 26.4366 17.7514 26.1314 17.1954 25.7152C15.2912 24.2862 14.3321 22.3993 14.3321 20.0824C14.3321 19.5136 14.4155 18.9725 14.5684 18.4592C14.8325 18.4592 15.0827 18.3898 15.3051 18.2788V18.4592V18.2788C15.8888 18.0013 16.278 17.4048 16.278 16.725C16.278 16.4475 16.2085 16.1978 16.0973 15.9619C17.112 15.0046 18.4742 14.4219 19.9892 14.4219C21.4904 14.4219 22.8665 15.0185 23.8811 15.9758C23.7699 16.2116 23.7004 16.4614 23.7004 16.7388C23.7004 17.6822 24.4649 18.4592 25.4101 18.473C25.563 18.9864 25.6464 19.5275 25.6464 20.0963C25.6464 22.4132 24.6873 24.3 22.7831 25.729C22.2549 26.1314 21.685 26.4505 21.2124 26.6724ZM20.0031 9.59384C20.017 9.59384 20.0309 9.59384 20.0448 9.59384C20.3506 10.8425 20.851 12.0495 21.5182 13.1455C21.0317 13.0345 20.5174 12.979 20.0031 12.979C19.4888 12.979 18.9746 13.0345 18.4881 13.1455C19.1553 12.0495 19.6556 10.8425 19.9614 9.59384C19.9753 9.59384 19.9892 9.59384 20.0031 9.59384ZM15.3051 14.741C15.2912 14.7549 15.2773 14.7688 15.2773 14.7688C15.2634 14.7826 15.2356 14.7965 15.2217 14.8104C15.1244 14.8936 15.041 14.963 14.9576 15.0324C14.8325 15.0046 14.7074 14.9907 14.5684 14.9907C14.3877 14.9907 14.207 15.0185 14.0402 15.074C13.2479 14.3248 12.3722 13.6727 11.4271 13.1317C14.4433 12.6183 16.7367 11.3419 18.2657 10.1904C17.668 11.9385 16.6533 13.5062 15.3051 14.741ZM25.9939 15.0879C25.8271 15.0324 25.6325 15.0046 25.4518 15.0046C25.3128 15.0046 25.1877 15.0185 25.0626 15.0462C24.9792 14.9769 24.8958 14.9075 24.8263 14.8381L24.6317 14.6716C23.3251 13.4369 22.3244 11.8969 21.7545 10.2182C23.2973 11.3836 25.6186 12.6599 28.6765 13.1733C27.7035 13.6866 26.8 14.3387 25.9939 15.0879ZM15.6943 30.8068C8.96684 27.3661 5.85333 23.0514 6.67341 18.3204C6.9375 16.8221 7.53518 15.5318 8.09117 14.6161C8.24406 14.6578 8.41086 14.6716 8.56375 14.6716H8.57765C9.13364 14.6716 9.64792 14.4497 10.0093 14.0612C11.0935 14.5745 12.0665 15.2543 12.956 16.0868C12.8726 16.2949 12.8309 16.503 12.8309 16.7388C12.8309 17.1689 12.9838 17.5574 13.2479 17.8626C13.0116 18.5702 12.8865 19.3194 12.8865 20.0963C12.8865 22.871 14.0958 25.2296 16.3753 26.9222C17.0425 27.4216 17.7097 27.7823 18.2796 28.0459C18.3213 28.6841 18.7244 29.2391 19.2804 29.4888V31.6393C19.0024 31.7502 18.7522 31.9167 18.5576 32.1248C17.5429 31.6947 16.5838 31.2508 15.6943 30.8068ZM33.1939 21.886C32.3182 25.2573 29.2881 28.2818 24.2008 30.8623C23.339 31.2924 22.4217 31.7225 21.4487 32.1248C21.2541 31.9167 21.0039 31.7502 20.7259 31.6393V29.4888C21.2819 29.2252 21.685 28.6841 21.7267 28.0459C22.2966 27.7823 22.9637 27.4078 23.6309 26.9222C25.9105 25.2296 27.1197 22.871 27.1197 20.0963C27.1197 19.3194 26.9946 18.5702 26.7583 17.8626C27.0224 17.5574 27.1753 17.1689 27.1753 16.7388C27.1753 16.5168 27.1336 16.2949 27.0502 16.1006C27.9398 15.2821 28.9267 14.6161 30.0109 14.1167C30.3722 14.4635 30.8587 14.6716 31.3869 14.6716H31.4008C31.5676 14.6716 31.7344 14.6439 31.9012 14.6023C32.8603 16.1839 33.9861 18.8615 33.1939 21.886Z" fill="url(#paint0_linear)"/>
<defs>
<linearGradient id="paint0_linear" x1="5.08885" y1="20.5424" x2="34.9193" y2="20.5424" gradientUnits="userSpaceOnUse">
<stop stop-color="#0779E4"/>
<stop offset="0.9341" stop-color="#EA2C62"/>
</linearGradient>
</defs>
</svg>
