<svg width="25" height="25" viewBox="0 0 25 25" fill="none" xmlns="http://www.w3.org/2000/svg">
<circle cx="12.5" cy="12.5" r="12.5" fill="black"/>
<path d="M20.6734 11.1712C20.486 11.1712 20.3061 11.2125 20.145 11.2837L13.7142 4.8554C13.7854 4.69422 13.8266 4.5143 13.8266 4.32689C13.8266 3.59598 13.2308 3 12.5 3C11.7692 3 11.1734 3.59598 11.1734 4.32689C11.1734 4.5143 11.2146 4.69422 11.2858 4.8554L4.85503 11.2837C4.69389 11.2125 4.514 11.1712 4.32663 11.1712C3.59586 11.1712 3 11.7672 3 12.4981C3 13.229 3.59586 13.825 4.32663 13.825C4.514 13.825 4.69389 13.7838 4.85503 13.7126L11.2858 20.1446C11.2146 20.3058 11.1734 20.4857 11.1734 20.6731C11.1734 21.404 11.7692 22 12.5 22C13.2308 22 13.8266 21.404 13.8266 20.6731C13.8266 20.4857 13.7854 20.3058 13.7142 20.1446L20.145 13.7126C20.3061 13.7838 20.486 13.825 20.6734 13.825C21.4041 13.825 22 13.229 22 12.4981C22 11.7672 21.4079 11.1712 20.6734 11.1712ZM19.4367 12.0258L16.9446 12.6331C16.7347 12.3407 16.3937 12.1495 16.0077 12.1495C15.7266 12.1495 15.4718 12.2507 15.2694 12.4157L13.6505 11.6548C13.6505 11.6435 13.6505 11.6323 13.6505 11.6173C13.6505 11.1525 13.3769 10.7552 12.9797 10.5715V5.55632C12.9947 5.54883 13.0097 5.54508 13.0247 5.53758L19.4554 11.9696C19.4517 11.9884 19.4442 12.0071 19.4367 12.0258ZM12.5 19.35C12.47 19.35 12.44 19.3537 12.4063 19.3537L9.88047 14.0387C10.0454 13.84 10.1428 13.5851 10.1428 13.3078C10.1428 13.304 10.1428 13.304 10.1428 13.3003L11.7842 12.5281C11.9791 12.6818 12.2302 12.7755 12.4963 12.7755C12.7661 12.7755 13.0172 12.6818 13.212 12.5244L14.8535 13.2965C14.8535 13.3003 14.8535 13.304 14.8535 13.3078C14.8535 13.5851 14.9509 13.84 15.1158 14.0387L12.5899 19.3537C12.56 19.35 12.53 19.35 12.5 19.35ZM12.0166 5.55632V10.5753C11.6231 10.7589 11.3458 11.1562 11.3458 11.621C11.3458 11.636 11.3458 11.6473 11.3495 11.6623L9.73057 12.4232C9.5282 12.2545 9.27337 12.1533 8.98856 12.1533C8.60256 12.1533 8.26154 12.3444 8.05168 12.6368L5.56331 12.0258C5.55582 12.0071 5.54832 11.9884 5.54083 11.9659L11.9716 5.53383C11.9866 5.54508 12.0016 5.55257 12.0166 5.55632ZM5.54458 13.0229L7.87179 13.5926C7.99921 14.0911 8.44892 14.4622 8.98856 14.4622C8.99606 14.4622 8.9998 14.4622 9.0073 14.4622L10.8548 18.3492L5.54083 13.0304C5.54083 13.0266 5.54458 13.0229 5.54458 13.0229ZM15.989 14.4622C15.9964 14.4622 16.0039 14.4622 16.0114 14.4622C16.5511 14.4622 17.0045 14.0911 17.1282 13.5889L19.4554 13.0191C19.4554 13.0229 19.4592 13.0266 19.4592 13.0304L14.1414 18.3492L15.989 14.4622Z" fill="url(#paint0_linear)"/>
<defs>
<linearGradient id="paint0_linear" x1="2.99852" y1="12.4998" x2="22.0015" y2="12.4998" gradientUnits="userSpaceOnUse">
<stop stop-color="#0779E4"/>
<stop offset="0.9341" stop-color="#1DD3BD"/>
</linearGradient>
</defs>
</svg>
