<svg width="40" height="40" viewBox="0 0 40 40" fill="none" xmlns="http://www.w3.org/2000/svg">
<circle cx="20" cy="20" r="20" fill="black"/>
<path d="M33.0827 13.7421C33.2773 13.4369 33.3885 13.0623 33.3885 12.6877C33.3885 12.5906 33.3746 12.4796 33.3746 12.3963C33.2356 11.4252 32.4016 10.6899 31.4147 10.6899H31.4008C30.6085 10.6899 29.9136 11.1616 29.5939 11.8414C25.8549 11.3974 23.2556 9.67709 21.824 8.42845C21.9352 8.17872 22.0047 7.90124 22.0047 7.62377C22.0047 6.79134 21.4765 6.02829 20.6842 5.75081C20.2533 5.5982 19.7529 5.5982 19.336 5.75081C18.5437 6.02829 18.0155 6.79134 18.0155 7.62377C18.0155 7.90124 18.0711 8.17872 18.1962 8.42845C16.7506 9.67709 14.1514 11.4113 10.3985 11.8414C10.0788 11.1616 9.39773 10.7037 8.60545 10.6899C8.60545 10.6899 8.60545 10.6899 8.59155 10.6899C7.66028 10.6899 6.8402 11.3419 6.64561 12.2576C6.61781 12.3825 6.60391 12.5212 6.60391 12.6599C6.60391 13.0484 6.71511 13.423 6.9236 13.7421C6.27032 14.7965 5.54754 16.2949 5.24175 18.0568C4.58847 21.8444 5.74213 27.3384 15.0271 32.0832C15.9444 32.5549 16.9452 33.0128 18.0016 33.4567V33.4706C18.0016 34.5666 18.8912 35.4545 19.9892 35.4545C21.0873 35.4545 21.9769 34.5666 21.9769 33.4706V33.4567C22.9776 33.0405 23.9506 32.5965 24.8402 32.1387C30.3166 29.364 33.5969 26.0343 34.5838 22.2328C35.5429 18.6534 34.1807 15.5179 33.0827 13.7421ZM21.2124 26.6724C20.9066 26.3672 20.4757 26.1869 20.0031 26.1869C19.5305 26.1869 19.1136 26.3672 18.7939 26.6724C18.3074 26.4366 17.7514 26.1314 17.1954 25.7152C15.2912 24.2862 14.3321 22.3993 14.3321 20.0824C14.3321 19.5136 14.4155 18.9725 14.5684 18.4592C14.8325 18.4592 15.0827 18.3898 15.3051 18.2788V18.4592V18.2788C15.8888 18.0013 16.278 17.4048 16.278 16.725C16.278 16.4475 16.2085 16.1978 16.0973 15.9619C17.112 15.0046 18.4742 14.4219 19.9892 14.4219C21.4904 14.4219 22.8665 15.0185 23.8811 15.9758C23.7699 16.2116 23.7004 16.4614 23.7004 16.7388C23.7004 17.6822 24.4649 18.4592 25.4101 18.473C25.563 18.9864 25.6464 19.5275 25.6464 20.0963C25.6464 22.4132 24.6873 24.3 22.7831 25.729C22.2549 26.1314 21.685 26.4505 21.2124 26.6724ZM20.0031 9.59384C20.017 9.59384 20.0309 9.59384 20.0448 9.59384C20.3506 10.8425 20.851 12.0495 21.5182 13.1455C21.0317 13.0345 20.5174 12.979 20.0031 12.979C19.4888 12.979 18.9746 13.0345 18.4881 13.1455C19.1553 12.0495 19.6556 10.8425 19.9614 9.59384C19.9753 9.59384 19.9892 9.59384 20.0031 9.59384ZM15.3051 14.741C15.2912 14.7549 15.2773 14.7688 15.2773 14.7688C15.2634 14.7826 15.2356 14.7965 15.2217 14.8104C15.1244 14.8936 15.041 14.963 14.9576 15.0324C14.8325 15.0046 14.7074 14.9907 14.5684 14.9907C14.3877 14.9907 14.207 15.0185 14.0402 15.074C13.2479 14.3248 12.3722 13.6727 11.4271 13.1317C14.4433 12.6183 16.7367 11.3419 18.2657 10.1904C17.668 11.9385 16.6533 13.5062 15.3051 14.741ZM25.9939 15.0879C25.8271 15.0324 25.6325 15.0046 25.4518 15.0046C25.3128 15.0046 25.1877 15.0185 25.0626 15.0462C24.9792 14.9769 24.8958 14.9075 24.8263 14.8381L24.6317 14.6716C23.3251 13.4369 22.3244 11.8969 21.7545 10.2182C23.2973 11.3836 25.6186 12.6599 28.6765 13.1733C27.7035 13.6866 26.8 14.3387 25.9939 15.0879ZM15.6943 30.8068C8.96684 27.3661 5.85333 23.0514 6.67341 18.3204C6.9375 16.8221 7.53518 15.5318 8.09117 14.6161C8.24406 14.6578 8.41086 14.6716 8.56375 14.6716H8.57765C9.13364 14.6716 9.64792 14.4497 10.0093 14.0612C11.0935 14.5745 12.0665 15.2543 12.956 16.0868C12.8726 16.2949 12.8309 16.503 12.8309 16.7388C12.8309 17.1689 12.9838 17.5574 13.2479 17.8626C13.0116 18.5702 12.8865 19.3194 12.8865 20.0963C12.8865 22.871 14.0958 25.2296 16.3753 26.9222C17.0425 27.4216 17.7097 27.7823 18.2796 28.0459C18.3213 28.6841 18.7244 29.2391 19.2804 29.4888V31.6393C19.0024 31.7502 18.7522 31.9167 18.5576 32.1248C17.5429 31.6947 16.5838 31.2508 15.6943 30.8068ZM33.1939 21.886C32.3182 25.2573 29.2881 28.2818 24.2008 30.8623C23.339 31.2924 22.4217 31.7225 21.4487 32.1248C21.2541 31.9167 21.0039 31.7502 20.7259 31.6393V29.4888C21.2819 29.2252 21.685 28.6841 21.7267 28.0459C22.2966 27.7823 22.9637 27.4078 23.6309 26.9222C25.9105 25.2296 27.1197 22.871 27.1197 20.0963C27.1197 19.3194 26.9946 18.5702 26.7583 17.8626C27.0224 17.5574 27.1753 17.1689 27.1753 16.7388C27.1753 16.5168 27.1336 16.2949 27.0502 16.1006C27.9398 15.2821 28.9267 14.6161 30.0109 14.1167C30.3722 14.4635 30.8587 14.6716 31.3869 14.6716H31.4008C31.5676 14.6716 31.7344 14.6439 31.9012 14.6023C32.8603 16.1839 33.9861 18.8615 33.1939 21.886Z" fill="url(#paint0_linear)"/>
<mask id="path-3-inside-1" fill="white">
<path d="M30.9125 10.9108C31.3772 10.9108 31.8456 10.7346 32.1979 10.3785L34.4688 8.10675C35.1771 7.39824 35.1771 6.24364 34.4688 5.53138C33.7605 4.82287 32.6063 4.82287 31.8943 5.53138L29.6234 7.8031C29.0425 8.38415 28.9451 9.26135 29.3161 9.95111L28.0195 11.2482C27.33 10.877 26.4531 10.9708 25.8722 11.5556L23.6013 13.8273C23.0204 14.4083 22.923 15.2855 23.294 15.9753L21.9936 17.2761C21.3641 16.95 20.5584 17.0137 20.0037 17.456C19.4266 16.9912 18.6397 16.9312 18.0064 17.2723L16.7098 15.9753C17.0808 15.2855 16.9833 14.4083 16.4025 13.8273L14.1315 11.5556C13.5507 10.9745 12.6738 10.877 11.9843 11.2482L10.6877 9.95111C11.0586 9.26135 10.965 8.38415 10.3804 7.8031L8.10942 5.53138C7.39741 4.82287 6.24696 4.82287 5.53494 5.53138C4.82668 6.23989 4.82668 7.39449 5.53494 8.10675L7.80588 10.3785C8.16189 10.7346 8.62657 10.9108 9.09125 10.9108C9.3873 10.9108 9.68334 10.8283 9.95316 10.6859L11.2498 11.9829C10.8788 12.6727 10.9762 13.5499 11.5571 14.1309L13.828 16.3989C14.169 16.74 14.6262 16.9312 15.1134 16.9312C15.4206 16.9312 15.7129 16.8487 15.9753 16.7063L17.2681 17.9996C16.9271 18.6331 16.9871 19.4204 17.448 19.9977C17.1894 20.32 17.0395 20.7099 17.0395 21.1335C17.0395 21.4447 17.122 21.7371 17.2644 21.9957L15.9715 23.289C15.282 22.9179 14.4051 23.0154 13.8242 23.5964L11.5533 25.8681C10.9725 26.4492 10.875 27.3264 11.246 28.0162L9.94941 29.3132C9.25988 28.9421 8.38299 29.0395 7.80214 29.6206L5.5312 31.8923C4.82293 32.6008 4.82293 33.7554 5.5312 34.4677C5.8872 34.8238 6.35188 35 6.81656 35C7.28124 35 7.74967 34.8238 8.10193 34.4677L10.3729 32.196C10.9537 31.6149 11.0512 30.7377 10.6802 30.048L11.9768 28.7509C12.2466 28.8971 12.5389 28.9758 12.8387 28.9758C13.3034 28.9758 13.7718 28.7996 14.124 28.4435L16.395 26.1718C16.9758 25.5907 17.0733 24.7135 16.7023 24.0238L17.9951 22.7305C18.2574 22.8729 18.5497 22.9554 18.857 22.9554C19.2767 22.9554 19.6702 22.8054 19.9925 22.5468C20.3223 22.8129 20.7233 22.9516 21.128 22.9516C21.424 22.9516 21.7201 22.8692 21.9899 22.7267L23.2827 24.02C22.9117 24.7098 23.0092 25.587 23.59 26.168L25.861 28.4398C26.217 28.7959 26.6817 28.9721 27.1463 28.9721C27.4461 28.9721 27.7384 28.8896 28.0082 28.7472L29.3049 30.0442C28.9339 30.734 29.0313 31.6112 29.6121 32.1922L31.8831 34.4639C32.2503 34.8163 32.715 34.9925 33.1834 34.9925C33.6481 34.9925 34.1165 34.8163 34.4688 34.4602C35.1771 33.7517 35.1771 32.5971 34.4688 31.8848L32.1979 29.6131C31.617 29.0321 30.7401 28.9346 30.0506 29.3057L28.754 28.0087C29.125 27.3189 29.0275 26.4417 28.4467 25.8606L26.1758 23.5889C25.5949 23.0079 24.718 22.9104 24.0285 23.2815L22.7319 21.9845C23.0729 21.3509 23.0129 20.5637 22.5482 19.9864C22.8106 19.6603 22.9605 19.2704 22.9605 18.8543C22.9605 18.5469 22.8743 18.2508 22.7319 17.9883L24.0247 16.695C24.2871 16.8375 24.5793 16.92 24.8866 16.92C25.3738 16.92 25.831 16.7325 26.172 16.3876L28.4429 14.1197C29.0238 13.5386 29.1212 12.6614 28.7502 11.9717L30.0468 10.6746C30.3204 10.8321 30.6164 10.9108 30.9125 10.9108ZM30.3579 8.53785L32.6288 6.26613C32.7825 6.11243 32.9848 6.03746 33.1834 6.03746C33.3858 6.03746 33.5844 6.11243 33.7381 6.26613C34.0453 6.57352 34.0453 7.0721 33.7381 7.37575L31.4671 9.64746C31.3022 9.81241 31.0849 9.87989 30.8675 9.86864L31.4596 9.27634C31.662 9.07391 31.662 8.74777 31.4596 8.54534C31.2573 8.34291 30.9312 8.34291 30.7289 8.54534L30.1368 9.13764C30.1255 8.92022 30.193 8.70279 30.3579 8.53785ZM9.29361 8.54534C9.09125 8.34291 8.76522 8.34291 8.56286 8.54534C8.3605 8.74777 8.3605 9.07391 8.56286 9.27634L9.15496 9.86864C8.93761 9.87989 8.72025 9.81241 8.55537 9.64746L6.28443 7.37575C5.97714 7.06835 5.97714 6.56977 6.28443 6.26613C6.43807 6.11243 6.64043 6.03746 6.83905 6.03746C7.04141 6.03746 7.24002 6.11243 7.39367 6.26613L9.6646 8.53785C9.82949 8.70279 9.89694 8.92022 9.8857 9.13764L9.29361 8.54534ZM15.312 14.5658C15.1096 14.3633 14.7836 14.3633 14.5812 14.5658C14.3789 14.7682 14.3789 15.0943 14.5812 15.2968L15.1658 15.8816C14.9485 15.8928 14.7311 15.8253 14.5737 15.6679L12.3028 13.3999C12.1379 13.235 12.0705 13.0176 12.0817 12.8001L12.6738 13.3924C12.775 13.4936 12.9061 13.5424 13.041 13.5424C13.1722 13.5424 13.3071 13.4936 13.4083 13.3924C13.6106 13.19 13.6106 12.8639 13.4083 12.6614L12.8162 12.0691C13.0335 12.0579 13.2509 12.1254 13.4158 12.2903L15.6867 14.562C15.8516 14.727 15.9191 14.9444 15.9078 15.1618L15.312 14.5658ZM9.6646 31.4575L7.39367 33.7292C7.08638 34.0366 6.58797 34.0328 6.28443 33.7292C5.97714 33.4218 5.97714 32.9232 6.28443 32.6196L8.55537 30.3479C8.70527 30.1942 8.90763 30.1192 9.10999 30.1192C9.12498 30.1192 9.13997 30.1267 9.15496 30.1267L8.56286 30.719C8.3605 30.9214 8.3605 31.2475 8.56286 31.45C8.66404 31.5512 8.7952 31.5999 8.93011 31.5999C9.06127 31.5999 9.19618 31.5512 9.29736 31.45L9.88945 30.8577C9.89695 31.0751 9.82949 31.2925 9.6646 31.4575ZM15.683 25.437L13.412 27.7088C13.2471 27.8737 13.0298 27.9412 12.8124 27.9299L13.4045 27.3376C13.6069 27.1352 13.6069 26.8091 13.4045 26.6066C13.2022 26.4042 12.8761 26.4042 12.6738 26.6066L12.0817 27.1989C12.0705 26.9815 12.1379 26.7641 12.3028 26.5991L14.5737 24.3274C14.7274 24.1737 14.9297 24.0987 15.1283 24.0987C15.1433 24.0987 15.1583 24.1062 15.1733 24.1062L14.5812 24.6985C14.3789 24.901 14.3789 25.2271 14.5812 25.4295C14.6824 25.5308 14.8136 25.5795 14.9485 25.5795C15.0796 25.5795 15.2145 25.5308 15.3157 25.4295L15.9078 24.8372C15.9153 25.0547 15.8479 25.2721 15.683 25.437ZM21.1879 18.0896L20.9331 18.3445L20.7757 18.187C20.9031 18.1196 21.0418 18.0821 21.1879 18.0896ZM18.1001 21.1785C18.1001 21.1635 18.0926 21.1485 18.0926 21.1335C18.0926 20.9986 18.1375 20.8749 18.2012 20.7624L18.3624 20.9236L18.1001 21.1785ZM18.8345 21.9058L19.0894 21.6508L19.2468 21.8083C19.1194 21.8758 18.9807 21.9132 18.8345 21.9058ZM21.3303 20.5862C21.128 20.3838 20.8019 20.3838 20.5996 20.5862C20.3972 20.7886 20.3972 21.1148 20.5996 21.3172L21.1917 21.9095C20.9743 21.9207 20.757 21.8533 20.5921 21.6883L20.3822 21.4784C20.3822 21.4784 20.3822 21.4746 20.3785 21.4746C20.3785 21.4746 20.3747 21.4746 20.3747 21.4709L18.5385 19.634C18.5385 19.634 18.5385 19.634 18.5385 19.6303C18.5385 19.6303 18.5385 19.6303 18.5348 19.6303L18.3212 19.4166C18.1563 19.2517 18.0888 19.0305 18.1001 18.8168L18.6921 19.4091C18.7933 19.5103 18.9245 19.5591 19.0594 19.5591C19.1906 19.5591 19.3255 19.5103 19.4266 19.4091C19.629 19.2067 19.629 18.8805 19.4266 18.6781L18.8345 18.0858C19.0519 18.0746 19.2693 18.142 19.4341 18.307L19.644 18.5169C19.644 18.5169 19.644 18.5207 19.6477 18.5207C19.6477 18.5207 19.6515 18.5207 19.6515 18.5244L21.4877 20.3613C21.4877 20.3613 21.4877 20.3613 21.4877 20.365C21.4877 20.365 21.4877 20.365 21.4915 20.365L21.7051 20.5787C21.87 20.7437 21.9374 20.9611 21.9262 21.1785L21.3303 20.5862ZM21.825 19.2367L21.6639 19.0755L21.9262 18.8131C21.9262 18.8318 21.9374 18.8468 21.9374 18.8655C21.9337 18.9968 21.8887 19.1205 21.825 19.2367ZM30.7289 31.45C30.8301 31.5512 30.9612 31.5999 31.0961 31.5999C31.2273 31.5999 31.3622 31.5512 31.4634 31.45C31.6657 31.2475 31.6657 30.9214 31.4634 30.719L30.8713 30.1267C30.8863 30.1267 30.9013 30.1192 30.9162 30.1192C31.1186 30.1192 31.3172 30.1942 31.4709 30.3479L33.7418 32.6196C34.0491 32.927 34.0491 33.4255 33.7418 33.7292C33.4383 34.0366 32.9361 34.0366 32.6326 33.7292L30.3616 31.4575C30.1967 31.2925 30.1293 31.0714 30.1405 30.8577L30.7289 31.45ZM24.7105 25.4295C24.8117 25.5308 24.9429 25.5795 25.0778 25.5795C25.2089 25.5795 25.3438 25.5308 25.445 25.4295C25.6474 25.2271 25.6474 24.901 25.445 24.6985L24.8529 24.1062C24.8679 24.1062 24.8829 24.0987 24.8979 24.0987C25.1002 24.0987 25.2989 24.1737 25.4525 24.3274L27.7234 26.5991C27.8883 26.7641 27.9558 26.9853 27.9445 27.1989L27.3524 26.6066C27.1501 26.4042 26.8241 26.4042 26.6217 26.6066C26.4193 26.8091 26.4193 27.1352 26.6217 27.3376L27.2138 27.9299C26.9964 27.9412 26.7791 27.8737 26.6142 27.7088L24.3433 25.437C24.1784 25.2721 24.1109 25.0509 24.1222 24.8372L24.7105 25.4295ZM27.7197 13.3962L25.4488 15.6641C25.2914 15.8216 25.074 15.8891 24.8567 15.8778L25.4413 15.293C25.6436 15.0906 25.6436 14.7645 25.4413 14.562C25.2389 14.3596 24.9129 14.3596 24.7105 14.562L24.1184 15.1543C24.1072 14.9369 24.1746 14.7195 24.3395 14.5545L26.6105 12.2828C26.7641 12.1291 26.9665 12.0541 27.1651 12.0541C27.1801 12.0541 27.1951 12.0616 27.21 12.0616L26.6179 12.6539C26.4156 12.8564 26.4156 13.1825 26.6179 13.3849C26.7191 13.4861 26.8503 13.5349 26.9852 13.5349C27.1164 13.5349 27.2513 13.4861 27.3524 13.3849L27.9445 12.7926C27.952 13.0138 27.8846 13.235 27.7197 13.3962Z"/>
</mask>
<g filter="url(#filter0_i)">
<path d="M30.9125 10.9108C31.3772 10.9108 31.8456 10.7346 32.1979 10.3785L34.4688 8.10675C35.1771 7.39824 35.1771 6.24364 34.4688 5.53138C33.7605 4.82287 32.6063 4.82287 31.8943 5.53138L29.6234 7.8031C29.0425 8.38415 28.9451 9.26135 29.3161 9.95111L28.0195 11.2482C27.33 10.877 26.4531 10.9708 25.8722 11.5556L23.6013 13.8273C23.0204 14.4083 22.923 15.2855 23.294 15.9753L21.9936 17.2761C21.3641 16.95 20.5584 17.0137 20.0037 17.456C19.4266 16.9912 18.6397 16.9312 18.0064 17.2723L16.7098 15.9753C17.0808 15.2855 16.9833 14.4083 16.4025 13.8273L14.1315 11.5556C13.5507 10.9745 12.6738 10.877 11.9843 11.2482L10.6877 9.95111C11.0586 9.26135 10.965 8.38415 10.3804 7.8031L8.10942 5.53138C7.39741 4.82287 6.24696 4.82287 5.53494 5.53138C4.82668 6.23989 4.82668 7.39449 5.53494 8.10675L7.80588 10.3785C8.16189 10.7346 8.62657 10.9108 9.09125 10.9108C9.3873 10.9108 9.68334 10.8283 9.95316 10.6859L11.2498 11.9829C10.8788 12.6727 10.9762 13.5499 11.5571 14.1309L13.828 16.3989C14.169 16.74 14.6262 16.9312 15.1134 16.9312C15.4206 16.9312 15.7129 16.8487 15.9753 16.7063L17.2681 17.9996C16.9271 18.6331 16.9871 19.4204 17.448 19.9977C17.1894 20.32 17.0395 20.7099 17.0395 21.1335C17.0395 21.4447 17.122 21.7371 17.2644 21.9957L15.9715 23.289C15.282 22.9179 14.4051 23.0154 13.8242 23.5964L11.5533 25.8681C10.9725 26.4492 10.875 27.3264 11.246 28.0162L9.94941 29.3132C9.25988 28.9421 8.38299 29.0395 7.80214 29.6206L5.5312 31.8923C4.82293 32.6008 4.82293 33.7554 5.5312 34.4677C5.8872 34.8238 6.35188 35 6.81656 35C7.28124 35 7.74967 34.8238 8.10193 34.4677L10.3729 32.196C10.9537 31.6149 11.0512 30.7377 10.6802 30.048L11.9768 28.7509C12.2466 28.8971 12.5389 28.9758 12.8387 28.9758C13.3034 28.9758 13.7718 28.7996 14.124 28.4435L16.395 26.1718C16.9758 25.5907 17.0733 24.7135 16.7023 24.0238L17.9951 22.7305C18.2574 22.8729 18.5497 22.9554 18.857 22.9554C19.2767 22.9554 19.6702 22.8054 19.9925 22.5468C20.3223 22.8129 20.7233 22.9516 21.128 22.9516C21.424 22.9516 21.7201 22.8692 21.9899 22.7267L23.2827 24.02C22.9117 24.7098 23.0092 25.587 23.59 26.168L25.861 28.4398C26.217 28.7959 26.6817 28.9721 27.1463 28.9721C27.4461 28.9721 27.7384 28.8896 28.0082 28.7472L29.3049 30.0442C28.9339 30.734 29.0313 31.6112 29.6121 32.1922L31.8831 34.4639C32.2503 34.8163 32.715 34.9925 33.1834 34.9925C33.6481 34.9925 34.1165 34.8163 34.4688 34.4602C35.1771 33.7517 35.1771 32.5971 34.4688 31.8848L32.1979 29.6131C31.617 29.0321 30.7401 28.9346 30.0506 29.3057L28.754 28.0087C29.125 27.3189 29.0275 26.4417 28.4467 25.8606L26.1758 23.5889C25.5949 23.0079 24.718 22.9104 24.0285 23.2815L22.7319 21.9845C23.0729 21.3509 23.0129 20.5637 22.5482 19.9864C22.8106 19.6603 22.9605 19.2704 22.9605 18.8543C22.9605 18.5469 22.8743 18.2508 22.7319 17.9883L24.0247 16.695C24.2871 16.8375 24.5793 16.92 24.8866 16.92C25.3738 16.92 25.831 16.7325 26.172 16.3876L28.4429 14.1197C29.0238 13.5386 29.1212 12.6614 28.7502 11.9717L30.0468 10.6746C30.3204 10.8321 30.6164 10.9108 30.9125 10.9108ZM30.3579 8.53785L32.6288 6.26613C32.7825 6.11243 32.9848 6.03746 33.1834 6.03746C33.3858 6.03746 33.5844 6.11243 33.7381 6.26613C34.0453 6.57352 34.0453 7.0721 33.7381 7.37575L31.4671 9.64746C31.3022 9.81241 31.0849 9.87989 30.8675 9.86864L31.4596 9.27634C31.662 9.07391 31.662 8.74777 31.4596 8.54534C31.2573 8.34291 30.9312 8.34291 30.7289 8.54534L30.1368 9.13764C30.1255 8.92022 30.193 8.70279 30.3579 8.53785ZM9.29361 8.54534C9.09125 8.34291 8.76522 8.34291 8.56286 8.54534C8.3605 8.74777 8.3605 9.07391 8.56286 9.27634L9.15496 9.86864C8.93761 9.87989 8.72025 9.81241 8.55537 9.64746L6.28443 7.37575C5.97714 7.06835 5.97714 6.56977 6.28443 6.26613C6.43807 6.11243 6.64043 6.03746 6.83905 6.03746C7.04141 6.03746 7.24002 6.11243 7.39367 6.26613L9.6646 8.53785C9.82949 8.70279 9.89694 8.92022 9.8857 9.13764L9.29361 8.54534ZM15.312 14.5658C15.1096 14.3633 14.7836 14.3633 14.5812 14.5658C14.3789 14.7682 14.3789 15.0943 14.5812 15.2968L15.1658 15.8816C14.9485 15.8928 14.7311 15.8253 14.5737 15.6679L12.3028 13.3999C12.1379 13.235 12.0705 13.0176 12.0817 12.8001L12.6738 13.3924C12.775 13.4936 12.9061 13.5424 13.041 13.5424C13.1722 13.5424 13.3071 13.4936 13.4083 13.3924C13.6106 13.19 13.6106 12.8639 13.4083 12.6614L12.8162 12.0691C13.0335 12.0579 13.2509 12.1254 13.4158 12.2903L15.6867 14.562C15.8516 14.727 15.9191 14.9444 15.9078 15.1618L15.312 14.5658ZM9.6646 31.4575L7.39367 33.7292C7.08638 34.0366 6.58797 34.0328 6.28443 33.7292C5.97714 33.4218 5.97714 32.9232 6.28443 32.6196L8.55537 30.3479C8.70527 30.1942 8.90763 30.1192 9.10999 30.1192C9.12498 30.1192 9.13997 30.1267 9.15496 30.1267L8.56286 30.719C8.3605 30.9214 8.3605 31.2475 8.56286 31.45C8.66404 31.5512 8.7952 31.5999 8.93011 31.5999C9.06127 31.5999 9.19618 31.5512 9.29736 31.45L9.88945 30.8577C9.89695 31.0751 9.82949 31.2925 9.6646 31.4575ZM15.683 25.437L13.412 27.7088C13.2471 27.8737 13.0298 27.9412 12.8124 27.9299L13.4045 27.3376C13.6069 27.1352 13.6069 26.8091 13.4045 26.6066C13.2022 26.4042 12.8761 26.4042 12.6738 26.6066L12.0817 27.1989C12.0705 26.9815 12.1379 26.7641 12.3028 26.5991L14.5737 24.3274C14.7274 24.1737 14.9297 24.0987 15.1283 24.0987C15.1433 24.0987 15.1583 24.1062 15.1733 24.1062L14.5812 24.6985C14.3789 24.901 14.3789 25.2271 14.5812 25.4295C14.6824 25.5308 14.8136 25.5795 14.9485 25.5795C15.0796 25.5795 15.2145 25.5308 15.3157 25.4295L15.9078 24.8372C15.9153 25.0547 15.8479 25.2721 15.683 25.437ZM21.1879 18.0896L20.9331 18.3445L20.7757 18.187C20.9031 18.1196 21.0418 18.0821 21.1879 18.0896ZM18.1001 21.1785C18.1001 21.1635 18.0926 21.1485 18.0926 21.1335C18.0926 20.9986 18.1375 20.8749 18.2012 20.7624L18.3624 20.9236L18.1001 21.1785ZM18.8345 21.9058L19.0894 21.6508L19.2468 21.8083C19.1194 21.8758 18.9807 21.9132 18.8345 21.9058ZM21.3303 20.5862C21.128 20.3838 20.8019 20.3838 20.5996 20.5862C20.3972 20.7886 20.3972 21.1148 20.5996 21.3172L21.1917 21.9095C20.9743 21.9207 20.757 21.8533 20.5921 21.6883L20.3822 21.4784C20.3822 21.4784 20.3822 21.4746 20.3785 21.4746C20.3785 21.4746 20.3747 21.4746 20.3747 21.4709L18.5385 19.634C18.5385 19.634 18.5385 19.634 18.5385 19.6303C18.5385 19.6303 18.5385 19.6303 18.5348 19.6303L18.3212 19.4166C18.1563 19.2517 18.0888 19.0305 18.1001 18.8168L18.6921 19.4091C18.7933 19.5103 18.9245 19.5591 19.0594 19.5591C19.1906 19.5591 19.3255 19.5103 19.4266 19.4091C19.629 19.2067 19.629 18.8805 19.4266 18.6781L18.8345 18.0858C19.0519 18.0746 19.2693 18.142 19.4341 18.307L19.644 18.5169C19.644 18.5169 19.644 18.5207 19.6477 18.5207C19.6477 18.5207 19.6515 18.5207 19.6515 18.5244L21.4877 20.3613C21.4877 20.3613 21.4877 20.3613 21.4877 20.365C21.4877 20.365 21.4877 20.365 21.4915 20.365L21.7051 20.5787C21.87 20.7437 21.9374 20.9611 21.9262 21.1785L21.3303 20.5862ZM21.825 19.2367L21.6639 19.0755L21.9262 18.8131C21.9262 18.8318 21.9374 18.8468 21.9374 18.8655C21.9337 18.9968 21.8887 19.1205 21.825 19.2367ZM30.7289 31.45C30.8301 31.5512 30.9612 31.5999 31.0961 31.5999C31.2273 31.5999 31.3622 31.5512 31.4634 31.45C31.6657 31.2475 31.6657 30.9214 31.4634 30.719L30.8713 30.1267C30.8863 30.1267 30.9013 30.1192 30.9162 30.1192C31.1186 30.1192 31.3172 30.1942 31.4709 30.3479L33.7418 32.6196C34.0491 32.927 34.0491 33.4255 33.7418 33.7292C33.4383 34.0366 32.9361 34.0366 32.6326 33.7292L30.3616 31.4575C30.1967 31.2925 30.1293 31.0714 30.1405 30.8577L30.7289 31.45ZM24.7105 25.4295C24.8117 25.5308 24.9429 25.5795 25.0778 25.5795C25.2089 25.5795 25.3438 25.5308 25.445 25.4295C25.6474 25.2271 25.6474 24.901 25.445 24.6985L24.8529 24.1062C24.8679 24.1062 24.8829 24.0987 24.8979 24.0987C25.1002 24.0987 25.2989 24.1737 25.4525 24.3274L27.7234 26.5991C27.8883 26.7641 27.9558 26.9853 27.9445 27.1989L27.3524 26.6066C27.1501 26.4042 26.8241 26.4042 26.6217 26.6066C26.4193 26.8091 26.4193 27.1352 26.6217 27.3376L27.2138 27.9299C26.9964 27.9412 26.7791 27.8737 26.6142 27.7088L24.3433 25.437C24.1784 25.2721 24.1109 25.0509 24.1222 24.8372L24.7105 25.4295ZM27.7197 13.3962L25.4488 15.6641C25.2914 15.8216 25.074 15.8891 24.8567 15.8778L25.4413 15.293C25.6436 15.0906 25.6436 14.7645 25.4413 14.562C25.2389 14.3596 24.9129 14.3596 24.7105 14.562L24.1184 15.1543C24.1072 14.9369 24.1746 14.7195 24.3395 14.5545L26.6105 12.2828C26.7641 12.1291 26.9665 12.0541 27.1651 12.0541C27.1801 12.0541 27.1951 12.0616 27.21 12.0616L26.6179 12.6539C26.4156 12.8564 26.4156 13.1825 26.6179 13.3849C26.7191 13.4861 26.8503 13.5349 26.9852 13.5349C27.1164 13.5349 27.2513 13.4861 27.3524 13.3849L27.9445 12.7926C27.952 13.0138 27.8846 13.235 27.7197 13.3962Z" fill="#595959"/>
<path d="M30.9125 10.9108C31.3772 10.9108 31.8456 10.7346 32.1979 10.3785L34.4688 8.10675C35.1771 7.39824 35.1771 6.24364 34.4688 5.53138C33.7605 4.82287 32.6063 4.82287 31.8943 5.53138L29.6234 7.8031C29.0425 8.38415 28.9451 9.26135 29.3161 9.95111L28.0195 11.2482C27.33 10.877 26.4531 10.9708 25.8722 11.5556L23.6013 13.8273C23.0204 14.4083 22.923 15.2855 23.294 15.9753L21.9936 17.2761C21.3641 16.95 20.5584 17.0137 20.0037 17.456C19.4266 16.9912 18.6397 16.9312 18.0064 17.2723L16.7098 15.9753C17.0808 15.2855 16.9833 14.4083 16.4025 13.8273L14.1315 11.5556C13.5507 10.9745 12.6738 10.877 11.9843 11.2482L10.6877 9.95111C11.0586 9.26135 10.965 8.38415 10.3804 7.8031L8.10942 5.53138C7.39741 4.82287 6.24696 4.82287 5.53494 5.53138C4.82668 6.23989 4.82668 7.39449 5.53494 8.10675L7.80588 10.3785C8.16189 10.7346 8.62657 10.9108 9.09125 10.9108C9.3873 10.9108 9.68334 10.8283 9.95316 10.6859L11.2498 11.9829C10.8788 12.6727 10.9762 13.5499 11.5571 14.1309L13.828 16.3989C14.169 16.74 14.6262 16.9312 15.1134 16.9312C15.4206 16.9312 15.7129 16.8487 15.9753 16.7063L17.2681 17.9996C16.9271 18.6331 16.9871 19.4204 17.448 19.9977C17.1894 20.32 17.0395 20.7099 17.0395 21.1335C17.0395 21.4447 17.122 21.7371 17.2644 21.9957L15.9715 23.289C15.282 22.9179 14.4051 23.0154 13.8242 23.5964L11.5533 25.8681C10.9725 26.4492 10.875 27.3264 11.246 28.0162L9.94941 29.3132C9.25988 28.9421 8.38299 29.0395 7.80214 29.6206L5.5312 31.8923C4.82293 32.6008 4.82293 33.7554 5.5312 34.4677C5.8872 34.8238 6.35188 35 6.81656 35C7.28124 35 7.74967 34.8238 8.10193 34.4677L10.3729 32.196C10.9537 31.6149 11.0512 30.7377 10.6802 30.048L11.9768 28.7509C12.2466 28.8971 12.5389 28.9758 12.8387 28.9758C13.3034 28.9758 13.7718 28.7996 14.124 28.4435L16.395 26.1718C16.9758 25.5907 17.0733 24.7135 16.7023 24.0238L17.9951 22.7305C18.2574 22.8729 18.5497 22.9554 18.857 22.9554C19.2767 22.9554 19.6702 22.8054 19.9925 22.5468C20.3223 22.8129 20.7233 22.9516 21.128 22.9516C21.424 22.9516 21.7201 22.8692 21.9899 22.7267L23.2827 24.02C22.9117 24.7098 23.0092 25.587 23.59 26.168L25.861 28.4398C26.217 28.7959 26.6817 28.9721 27.1463 28.9721C27.4461 28.9721 27.7384 28.8896 28.0082 28.7472L29.3049 30.0442C28.9339 30.734 29.0313 31.6112 29.6121 32.1922L31.8831 34.4639C32.2503 34.8163 32.715 34.9925 33.1834 34.9925C33.6481 34.9925 34.1165 34.8163 34.4688 34.4602C35.1771 33.7517 35.1771 32.5971 34.4688 31.8848L32.1979 29.6131C31.617 29.0321 30.7401 28.9346 30.0506 29.3057L28.754 28.0087C29.125 27.3189 29.0275 26.4417 28.4467 25.8606L26.1758 23.5889C25.5949 23.0079 24.718 22.9104 24.0285 23.2815L22.7319 21.9845C23.0729 21.3509 23.0129 20.5637 22.5482 19.9864C22.8106 19.6603 22.9605 19.2704 22.9605 18.8543C22.9605 18.5469 22.8743 18.2508 22.7319 17.9883L24.0247 16.695C24.2871 16.8375 24.5793 16.92 24.8866 16.92C25.3738 16.92 25.831 16.7325 26.172 16.3876L28.4429 14.1197C29.0238 13.5386 29.1212 12.6614 28.7502 11.9717L30.0468 10.6746C30.3204 10.8321 30.6164 10.9108 30.9125 10.9108ZM30.3579 8.53785L32.6288 6.26613C32.7825 6.11243 32.9848 6.03746 33.1834 6.03746C33.3858 6.03746 33.5844 6.11243 33.7381 6.26613C34.0453 6.57352 34.0453 7.0721 33.7381 7.37575L31.4671 9.64746C31.3022 9.81241 31.0849 9.87989 30.8675 9.86864L31.4596 9.27634C31.662 9.07391 31.662 8.74777 31.4596 8.54534C31.2573 8.34291 30.9312 8.34291 30.7289 8.54534L30.1368 9.13764C30.1255 8.92022 30.193 8.70279 30.3579 8.53785ZM9.29361 8.54534C9.09125 8.34291 8.76522 8.34291 8.56286 8.54534C8.3605 8.74777 8.3605 9.07391 8.56286 9.27634L9.15496 9.86864C8.93761 9.87989 8.72025 9.81241 8.55537 9.64746L6.28443 7.37575C5.97714 7.06835 5.97714 6.56977 6.28443 6.26613C6.43807 6.11243 6.64043 6.03746 6.83905 6.03746C7.04141 6.03746 7.24002 6.11243 7.39367 6.26613L9.6646 8.53785C9.82949 8.70279 9.89694 8.92022 9.8857 9.13764L9.29361 8.54534ZM15.312 14.5658C15.1096 14.3633 14.7836 14.3633 14.5812 14.5658C14.3789 14.7682 14.3789 15.0943 14.5812 15.2968L15.1658 15.8816C14.9485 15.8928 14.7311 15.8253 14.5737 15.6679L12.3028 13.3999C12.1379 13.235 12.0705 13.0176 12.0817 12.8001L12.6738 13.3924C12.775 13.4936 12.9061 13.5424 13.041 13.5424C13.1722 13.5424 13.3071 13.4936 13.4083 13.3924C13.6106 13.19 13.6106 12.8639 13.4083 12.6614L12.8162 12.0691C13.0335 12.0579 13.2509 12.1254 13.4158 12.2903L15.6867 14.562C15.8516 14.727 15.9191 14.9444 15.9078 15.1618L15.312 14.5658ZM9.6646 31.4575L7.39367 33.7292C7.08638 34.0366 6.58797 34.0328 6.28443 33.7292C5.97714 33.4218 5.97714 32.9232 6.28443 32.6196L8.55537 30.3479C8.70527 30.1942 8.90763 30.1192 9.10999 30.1192C9.12498 30.1192 9.13997 30.1267 9.15496 30.1267L8.56286 30.719C8.3605 30.9214 8.3605 31.2475 8.56286 31.45C8.66404 31.5512 8.7952 31.5999 8.93011 31.5999C9.06127 31.5999 9.19618 31.5512 9.29736 31.45L9.88945 30.8577C9.89695 31.0751 9.82949 31.2925 9.6646 31.4575ZM15.683 25.437L13.412 27.7088C13.2471 27.8737 13.0298 27.9412 12.8124 27.9299L13.4045 27.3376C13.6069 27.1352 13.6069 26.8091 13.4045 26.6066C13.2022 26.4042 12.8761 26.4042 12.6738 26.6066L12.0817 27.1989C12.0705 26.9815 12.1379 26.7641 12.3028 26.5991L14.5737 24.3274C14.7274 24.1737 14.9297 24.0987 15.1283 24.0987C15.1433 24.0987 15.1583 24.1062 15.1733 24.1062L14.5812 24.6985C14.3789 24.901 14.3789 25.2271 14.5812 25.4295C14.6824 25.5308 14.8136 25.5795 14.9485 25.5795C15.0796 25.5795 15.2145 25.5308 15.3157 25.4295L15.9078 24.8372C15.9153 25.0547 15.8479 25.2721 15.683 25.437ZM21.1879 18.0896L20.9331 18.3445L20.7757 18.187C20.9031 18.1196 21.0418 18.0821 21.1879 18.0896ZM18.1001 21.1785C18.1001 21.1635 18.0926 21.1485 18.0926 21.1335C18.0926 20.9986 18.1375 20.8749 18.2012 20.7624L18.3624 20.9236L18.1001 21.1785ZM18.8345 21.9058L19.0894 21.6508L19.2468 21.8083C19.1194 21.8758 18.9807 21.9132 18.8345 21.9058ZM21.3303 20.5862C21.128 20.3838 20.8019 20.3838 20.5996 20.5862C20.3972 20.7886 20.3972 21.1148 20.5996 21.3172L21.1917 21.9095C20.9743 21.9207 20.757 21.8533 20.5921 21.6883L20.3822 21.4784C20.3822 21.4784 20.3822 21.4746 20.3785 21.4746C20.3785 21.4746 20.3747 21.4746 20.3747 21.4709L18.5385 19.634C18.5385 19.634 18.5385 19.634 18.5385 19.6303C18.5385 19.6303 18.5385 19.6303 18.5348 19.6303L18.3212 19.4166C18.1563 19.2517 18.0888 19.0305 18.1001 18.8168L18.6921 19.4091C18.7933 19.5103 18.9245 19.5591 19.0594 19.5591C19.1906 19.5591 19.3255 19.5103 19.4266 19.4091C19.629 19.2067 19.629 18.8805 19.4266 18.6781L18.8345 18.0858C19.0519 18.0746 19.2693 18.142 19.4341 18.307L19.644 18.5169C19.644 18.5169 19.644 18.5207 19.6477 18.5207C19.6477 18.5207 19.6515 18.5207 19.6515 18.5244L21.4877 20.3613C21.4877 20.3613 21.4877 20.3613 21.4877 20.365C21.4877 20.365 21.4877 20.365 21.4915 20.365L21.7051 20.5787C21.87 20.7437 21.9374 20.9611 21.9262 21.1785L21.3303 20.5862ZM21.825 19.2367L21.6639 19.0755L21.9262 18.8131C21.9262 18.8318 21.9374 18.8468 21.9374 18.8655C21.9337 18.9968 21.8887 19.1205 21.825 19.2367ZM30.7289 31.45C30.8301 31.5512 30.9612 31.5999 31.0961 31.5999C31.2273 31.5999 31.3622 31.5512 31.4634 31.45C31.6657 31.2475 31.6657 30.9214 31.4634 30.719L30.8713 30.1267C30.8863 30.1267 30.9013 30.1192 30.9162 30.1192C31.1186 30.1192 31.3172 30.1942 31.4709 30.3479L33.7418 32.6196C34.0491 32.927 34.0491 33.4255 33.7418 33.7292C33.4383 34.0366 32.9361 34.0366 32.6326 33.7292L30.3616 31.4575C30.1967 31.2925 30.1293 31.0714 30.1405 30.8577L30.7289 31.45ZM24.7105 25.4295C24.8117 25.5308 24.9429 25.5795 25.0778 25.5795C25.2089 25.5795 25.3438 25.5308 25.445 25.4295C25.6474 25.2271 25.6474 24.901 25.445 24.6985L24.8529 24.1062C24.8679 24.1062 24.8829 24.0987 24.8979 24.0987C25.1002 24.0987 25.2989 24.1737 25.4525 24.3274L27.7234 26.5991C27.8883 26.7641 27.9558 26.9853 27.9445 27.1989L27.3524 26.6066C27.1501 26.4042 26.8241 26.4042 26.6217 26.6066C26.4193 26.8091 26.4193 27.1352 26.6217 27.3376L27.2138 27.9299C26.9964 27.9412 26.7791 27.8737 26.6142 27.7088L24.3433 25.437C24.1784 25.2721 24.1109 25.0509 24.1222 24.8372L24.7105 25.4295ZM27.7197 13.3962L25.4488 15.6641C25.2914 15.8216 25.074 15.8891 24.8567 15.8778L25.4413 15.293C25.6436 15.0906 25.6436 14.7645 25.4413 14.562C25.2389 14.3596 24.9129 14.3596 24.7105 14.562L24.1184 15.1543C24.1072 14.9369 24.1746 14.7195 24.3395 14.5545L26.6105 12.2828C26.7641 12.1291 26.9665 12.0541 27.1651 12.0541C27.1801 12.0541 27.1951 12.0616 27.21 12.0616L26.6179 12.6539C26.4156 12.8564 26.4156 13.1825 26.6179 13.3849C26.7191 13.4861 26.8503 13.5349 26.9852 13.5349C27.1164 13.5349 27.2513 13.4861 27.3524 13.3849L27.9445 12.7926C27.952 13.0138 27.8846 13.235 27.7197 13.3962Z" fill="url(#paint1_linear)"/>
</g>
<path d="M30.9125 10.9108C31.3772 10.9108 31.8456 10.7346 32.1979 10.3785L34.4688 8.10675C35.1771 7.39824 35.1771 6.24364 34.4688 5.53138C33.7605 4.82287 32.6063 4.82287 31.8943 5.53138L29.6234 7.8031C29.0425 8.38415 28.9451 9.26135 29.3161 9.95111L28.0195 11.2482C27.33 10.877 26.4531 10.9708 25.8722 11.5556L23.6013 13.8273C23.0204 14.4083 22.923 15.2855 23.294 15.9753L21.9936 17.2761C21.3641 16.95 20.5584 17.0137 20.0037 17.456C19.4266 16.9912 18.6397 16.9312 18.0064 17.2723L16.7098 15.9753C17.0808 15.2855 16.9833 14.4083 16.4025 13.8273L14.1315 11.5556C13.5507 10.9745 12.6738 10.877 11.9843 11.2482L10.6877 9.95111C11.0586 9.26135 10.965 8.38415 10.3804 7.8031L8.10942 5.53138C7.39741 4.82287 6.24696 4.82287 5.53494 5.53138C4.82668 6.23989 4.82668 7.39449 5.53494 8.10675L7.80588 10.3785C8.16189 10.7346 8.62657 10.9108 9.09125 10.9108C9.3873 10.9108 9.68334 10.8283 9.95316 10.6859L11.2498 11.9829C10.8788 12.6727 10.9762 13.5499 11.5571 14.1309L13.828 16.3989C14.169 16.74 14.6262 16.9312 15.1134 16.9312C15.4206 16.9312 15.7129 16.8487 15.9753 16.7063L17.2681 17.9996C16.9271 18.6331 16.9871 19.4204 17.448 19.9977C17.1894 20.32 17.0395 20.7099 17.0395 21.1335C17.0395 21.4447 17.122 21.7371 17.2644 21.9957L15.9715 23.289C15.282 22.9179 14.4051 23.0154 13.8242 23.5964L11.5533 25.8681C10.9725 26.4492 10.875 27.3264 11.246 28.0162L9.94941 29.3132C9.25988 28.9421 8.38299 29.0395 7.80214 29.6206L5.5312 31.8923C4.82293 32.6008 4.82293 33.7554 5.5312 34.4677C5.8872 34.8238 6.35188 35 6.81656 35C7.28124 35 7.74967 34.8238 8.10193 34.4677L10.3729 32.196C10.9537 31.6149 11.0512 30.7377 10.6802 30.048L11.9768 28.7509C12.2466 28.8971 12.5389 28.9758 12.8387 28.9758C13.3034 28.9758 13.7718 28.7996 14.124 28.4435L16.395 26.1718C16.9758 25.5907 17.0733 24.7135 16.7023 24.0238L17.9951 22.7305C18.2574 22.8729 18.5497 22.9554 18.857 22.9554C19.2767 22.9554 19.6702 22.8054 19.9925 22.5468C20.3223 22.8129 20.7233 22.9516 21.128 22.9516C21.424 22.9516 21.7201 22.8692 21.9899 22.7267L23.2827 24.02C22.9117 24.7098 23.0092 25.587 23.59 26.168L25.861 28.4398C26.217 28.7959 26.6817 28.9721 27.1463 28.9721C27.4461 28.9721 27.7384 28.8896 28.0082 28.7472L29.3049 30.0442C28.9339 30.734 29.0313 31.6112 29.6121 32.1922L31.8831 34.4639C32.2503 34.8163 32.715 34.9925 33.1834 34.9925C33.6481 34.9925 34.1165 34.8163 34.4688 34.4602C35.1771 33.7517 35.1771 32.5971 34.4688 31.8848L32.1979 29.6131C31.617 29.0321 30.7401 28.9346 30.0506 29.3057L28.754 28.0087C29.125 27.3189 29.0275 26.4417 28.4467 25.8606L26.1758 23.5889C25.5949 23.0079 24.718 22.9104 24.0285 23.2815L22.7319 21.9845C23.0729 21.3509 23.0129 20.5637 22.5482 19.9864C22.8106 19.6603 22.9605 19.2704 22.9605 18.8543C22.9605 18.5469 22.8743 18.2508 22.7319 17.9883L24.0247 16.695C24.2871 16.8375 24.5793 16.92 24.8866 16.92C25.3738 16.92 25.831 16.7325 26.172 16.3876L28.4429 14.1197C29.0238 13.5386 29.1212 12.6614 28.7502 11.9717L30.0468 10.6746C30.3204 10.8321 30.6164 10.9108 30.9125 10.9108ZM30.3579 8.53785L32.6288 6.26613C32.7825 6.11243 32.9848 6.03746 33.1834 6.03746C33.3858 6.03746 33.5844 6.11243 33.7381 6.26613C34.0453 6.57352 34.0453 7.0721 33.7381 7.37575L31.4671 9.64746C31.3022 9.81241 31.0849 9.87989 30.8675 9.86864L31.4596 9.27634C31.662 9.07391 31.662 8.74777 31.4596 8.54534C31.2573 8.34291 30.9312 8.34291 30.7289 8.54534L30.1368 9.13764C30.1255 8.92022 30.193 8.70279 30.3579 8.53785ZM9.29361 8.54534C9.09125 8.34291 8.76522 8.34291 8.56286 8.54534C8.3605 8.74777 8.3605 9.07391 8.56286 9.27634L9.15496 9.86864C8.93761 9.87989 8.72025 9.81241 8.55537 9.64746L6.28443 7.37575C5.97714 7.06835 5.97714 6.56977 6.28443 6.26613C6.43807 6.11243 6.64043 6.03746 6.83905 6.03746C7.04141 6.03746 7.24002 6.11243 7.39367 6.26613L9.6646 8.53785C9.82949 8.70279 9.89694 8.92022 9.8857 9.13764L9.29361 8.54534ZM15.312 14.5658C15.1096 14.3633 14.7836 14.3633 14.5812 14.5658C14.3789 14.7682 14.3789 15.0943 14.5812 15.2968L15.1658 15.8816C14.9485 15.8928 14.7311 15.8253 14.5737 15.6679L12.3028 13.3999C12.1379 13.235 12.0705 13.0176 12.0817 12.8001L12.6738 13.3924C12.775 13.4936 12.9061 13.5424 13.041 13.5424C13.1722 13.5424 13.3071 13.4936 13.4083 13.3924C13.6106 13.19 13.6106 12.8639 13.4083 12.6614L12.8162 12.0691C13.0335 12.0579 13.2509 12.1254 13.4158 12.2903L15.6867 14.562C15.8516 14.727 15.9191 14.9444 15.9078 15.1618L15.312 14.5658ZM9.6646 31.4575L7.39367 33.7292C7.08638 34.0366 6.58797 34.0328 6.28443 33.7292C5.97714 33.4218 5.97714 32.9232 6.28443 32.6196L8.55537 30.3479C8.70527 30.1942 8.90763 30.1192 9.10999 30.1192C9.12498 30.1192 9.13997 30.1267 9.15496 30.1267L8.56286 30.719C8.3605 30.9214 8.3605 31.2475 8.56286 31.45C8.66404 31.5512 8.7952 31.5999 8.93011 31.5999C9.06127 31.5999 9.19618 31.5512 9.29736 31.45L9.88945 30.8577C9.89695 31.0751 9.82949 31.2925 9.6646 31.4575ZM15.683 25.437L13.412 27.7088C13.2471 27.8737 13.0298 27.9412 12.8124 27.9299L13.4045 27.3376C13.6069 27.1352 13.6069 26.8091 13.4045 26.6066C13.2022 26.4042 12.8761 26.4042 12.6738 26.6066L12.0817 27.1989C12.0705 26.9815 12.1379 26.7641 12.3028 26.5991L14.5737 24.3274C14.7274 24.1737 14.9297 24.0987 15.1283 24.0987C15.1433 24.0987 15.1583 24.1062 15.1733 24.1062L14.5812 24.6985C14.3789 24.901 14.3789 25.2271 14.5812 25.4295C14.6824 25.5308 14.8136 25.5795 14.9485 25.5795C15.0796 25.5795 15.2145 25.5308 15.3157 25.4295L15.9078 24.8372C15.9153 25.0547 15.8479 25.2721 15.683 25.437ZM21.1879 18.0896L20.9331 18.3445L20.7757 18.187C20.9031 18.1196 21.0418 18.0821 21.1879 18.0896ZM18.1001 21.1785C18.1001 21.1635 18.0926 21.1485 18.0926 21.1335C18.0926 20.9986 18.1375 20.8749 18.2012 20.7624L18.3624 20.9236L18.1001 21.1785ZM18.8345 21.9058L19.0894 21.6508L19.2468 21.8083C19.1194 21.8758 18.9807 21.9132 18.8345 21.9058ZM21.3303 20.5862C21.128 20.3838 20.8019 20.3838 20.5996 20.5862C20.3972 20.7886 20.3972 21.1148 20.5996 21.3172L21.1917 21.9095C20.9743 21.9207 20.757 21.8533 20.5921 21.6883L20.3822 21.4784C20.3822 21.4784 20.3822 21.4746 20.3785 21.4746C20.3785 21.4746 20.3747 21.4746 20.3747 21.4709L18.5385 19.634C18.5385 19.634 18.5385 19.634 18.5385 19.6303C18.5385 19.6303 18.5385 19.6303 18.5348 19.6303L18.3212 19.4166C18.1563 19.2517 18.0888 19.0305 18.1001 18.8168L18.6921 19.4091C18.7933 19.5103 18.9245 19.5591 19.0594 19.5591C19.1906 19.5591 19.3255 19.5103 19.4266 19.4091C19.629 19.2067 19.629 18.8805 19.4266 18.6781L18.8345 18.0858C19.0519 18.0746 19.2693 18.142 19.4341 18.307L19.644 18.5169C19.644 18.5169 19.644 18.5207 19.6477 18.5207C19.6477 18.5207 19.6515 18.5207 19.6515 18.5244L21.4877 20.3613C21.4877 20.3613 21.4877 20.3613 21.4877 20.365C21.4877 20.365 21.4877 20.365 21.4915 20.365L21.7051 20.5787C21.87 20.7437 21.9374 20.9611 21.9262 21.1785L21.3303 20.5862ZM21.825 19.2367L21.6639 19.0755L21.9262 18.8131C21.9262 18.8318 21.9374 18.8468 21.9374 18.8655C21.9337 18.9968 21.8887 19.1205 21.825 19.2367ZM30.7289 31.45C30.8301 31.5512 30.9612 31.5999 31.0961 31.5999C31.2273 31.5999 31.3622 31.5512 31.4634 31.45C31.6657 31.2475 31.6657 30.9214 31.4634 30.719L30.8713 30.1267C30.8863 30.1267 30.9013 30.1192 30.9162 30.1192C31.1186 30.1192 31.3172 30.1942 31.4709 30.3479L33.7418 32.6196C34.0491 32.927 34.0491 33.4255 33.7418 33.7292C33.4383 34.0366 32.9361 34.0366 32.6326 33.7292L30.3616 31.4575C30.1967 31.2925 30.1293 31.0714 30.1405 30.8577L30.7289 31.45ZM24.7105 25.4295C24.8117 25.5308 24.9429 25.5795 25.0778 25.5795C25.2089 25.5795 25.3438 25.5308 25.445 25.4295C25.6474 25.2271 25.6474 24.901 25.445 24.6985L24.8529 24.1062C24.8679 24.1062 24.8829 24.0987 24.8979 24.0987C25.1002 24.0987 25.2989 24.1737 25.4525 24.3274L27.7234 26.5991C27.8883 26.7641 27.9558 26.9853 27.9445 27.1989L27.3524 26.6066C27.1501 26.4042 26.8241 26.4042 26.6217 26.6066C26.4193 26.8091 26.4193 27.1352 26.6217 27.3376L27.2138 27.9299C26.9964 27.9412 26.7791 27.8737 26.6142 27.7088L24.3433 25.437C24.1784 25.2721 24.1109 25.0509 24.1222 24.8372L24.7105 25.4295ZM27.7197 13.3962L25.4488 15.6641C25.2914 15.8216 25.074 15.8891 24.8567 15.8778L25.4413 15.293C25.6436 15.0906 25.6436 14.7645 25.4413 14.562C25.2389 14.3596 24.9129 14.3596 24.7105 14.562L24.1184 15.1543C24.1072 14.9369 24.1746 14.7195 24.3395 14.5545L26.6105 12.2828C26.7641 12.1291 26.9665 12.0541 27.1651 12.0541C27.1801 12.0541 27.1951 12.0616 27.21 12.0616L26.6179 12.6539C26.4156 12.8564 26.4156 13.1825 26.6179 13.3849C26.7191 13.4861 26.8503 13.5349 26.9852 13.5349C27.1164 13.5349 27.2513 13.4861 27.3524 13.3849L27.9445 12.7926C27.952 13.0138 27.8846 13.235 27.7197 13.3962Z" stroke="url(#paint2_linear)" stroke-width="0.5" mask="url(#path-3-inside-1)"/>
<defs>
<filter id="filter0_i" x="5" y="5" width="31" height="30" filterUnits="userSpaceOnUse" color-interpolation-filters="sRGB">
<feFlood flood-opacity="0" result="BackgroundImageFix"/>
<feBlend mode="normal" in="SourceGraphic" in2="BackgroundImageFix" result="shape"/>
<feColorMatrix in="SourceAlpha" type="matrix" values="0 0 0 0 0 0 0 0 0 0 0 0 0 0 0 0 0 0 127 0" result="hardAlpha"/>
<feOffset dx="2"/>
<feGaussianBlur stdDeviation="0.5"/>
<feComposite in2="hardAlpha" operator="arithmetic" k2="-1" k3="1"/>
<feColorMatrix type="matrix" values="0 0 0 0 0.854167 0 0 0 0 0.854167 0 0 0 0 0.854167 0 0 0 1 0"/>
<feBlend mode="normal" in2="shape" result="effect1_innerShadow"/>
</filter>
<linearGradient id="paint0_linear" x1="5.08885" y1="20.5424" x2="34.9193" y2="20.5424" gradientUnits="userSpaceOnUse">
<stop stop-color="#0779E4"/>
<stop offset="0.9341" stop-color="#EA2C62"/>
</linearGradient>
<linearGradient id="paint1_linear" x1="6.55172" y1="5.51724" x2="34.2241" y2="33.9655" gradientUnits="userSpaceOnUse">
<stop stop-color="#A2A2A2"/>
<stop offset="1" stop-color="#BBBBBB"/>
</linearGradient>
<linearGradient id="paint2_linear" x1="6.55172" y1="5.51724" x2="34.2241" y2="33.9655" gradientUnits="userSpaceOnUse">
<stop stop-color="#A2A2A2"/>
<stop offset="1" stop-color="#BBBBBB"/>
</linearGradient>
</defs>
</svg>
