<svg width="40" height="40" viewBox="0 0 40 40" fill="none" xmlns="http://www.w3.org/2000/svg">
<circle cx="20" cy="20" r="20" fill="black"/>
<path d="M33.7657 17.7621C33.4501 17.7621 33.1471 17.8315 32.8757 17.9515L22.045 7.12488C22.1649 6.85342 22.2343 6.55041 22.2343 6.23476C22.2343 5.00375 21.2308 4 20 4C18.7692 4 17.7657 5.00375 17.7657 6.23476C17.7657 6.55041 17.8351 6.85342 17.955 7.12488L7.12426 17.9515C6.85286 17.8315 6.5499 17.7621 6.23432 17.7621C5.00355 17.7621 4 18.7658 4 19.9968C4 21.2279 5.00355 22.2316 6.23432 22.2316C6.5499 22.2316 6.85286 22.1622 7.12426 22.0422L17.955 32.8751C17.8351 33.1466 17.7657 33.4496 17.7657 33.7652C17.7657 34.9963 18.7692 36 20 36C21.2308 36 22.2343 34.9963 22.2343 33.7652C22.2343 33.4496 22.1649 33.1466 22.045 32.8751L32.8757 22.0422C33.1471 22.1622 33.4501 22.2316 33.7657 22.2316C34.9964 22.2316 36 21.2279 36 19.9968C36 18.7658 35.0028 17.7621 33.7657 17.7621ZM31.6828 19.2014L27.4856 20.2241C27.1321 19.7317 26.5578 19.4097 25.9077 19.4097C25.4343 19.4097 25.0051 19.5802 24.6643 19.858L21.9377 18.5764C21.9377 18.5575 21.9377 18.5386 21.9377 18.5133C21.9377 17.7305 21.4769 17.0614 20.8079 16.752V8.30539C20.8331 8.29276 20.8584 8.28645 20.8836 8.27382L31.7144 19.1067C31.7081 19.1383 31.6955 19.1699 31.6828 19.2014ZM20 31.5368C19.9495 31.5368 19.899 31.5431 19.8422 31.5431L15.5882 22.5914C15.8659 22.2569 16.03 21.8276 16.03 21.3604C16.03 21.3541 16.03 21.3541 16.03 21.3478L18.7945 20.0473C19.1227 20.3062 19.5456 20.464 19.9937 20.464C20.4481 20.464 20.871 20.3062 21.1992 20.041L23.9637 21.3415C23.9637 21.3478 23.9637 21.3541 23.9637 21.3604C23.9637 21.8276 24.1278 22.2569 24.4055 22.5914L20.1515 31.5431C20.101 31.5368 20.0505 31.5368 20 31.5368ZM19.1858 8.30539V16.7583C18.5231 17.0677 18.056 17.7368 18.056 18.5196C18.056 18.5449 18.056 18.5638 18.0623 18.5891L15.3357 19.8706C14.9949 19.5865 14.5657 19.4161 14.086 19.4161C13.4359 19.4161 12.8615 19.738 12.5081 20.2304L8.31716 19.2014C8.30454 19.1699 8.29191 19.1383 8.27929 19.1004L19.1101 8.26751C19.1353 8.28645 19.1606 8.29907 19.1858 8.30539ZM8.2856 20.8806L12.2051 21.8402C12.4197 22.6798 13.1771 23.3048 14.086 23.3048C14.0986 23.3048 14.1049 23.3048 14.1176 23.3048L17.2292 29.8513L8.27929 20.8933C8.27929 20.887 8.2856 20.8806 8.2856 20.8806ZM25.8761 23.3048C25.8888 23.3048 25.9014 23.3048 25.914 23.3048C26.8229 23.3048 27.5866 22.6798 27.7949 21.8339L31.7144 20.8743C31.7144 20.8806 31.7207 20.887 31.7207 20.8933L22.7645 29.8513L25.8761 23.3048Z" fill="url(#paint0_linear)"/>
<mask id="path-3-inside-1" fill="white">
<path d="M30.9125 10.9108C31.3772 10.9108 31.8456 10.7346 32.1979 10.3785L34.4688 8.10675C35.1771 7.39824 35.1771 6.24364 34.4688 5.53138C33.7605 4.82287 32.6063 4.82287 31.8943 5.53138L29.6234 7.8031C29.0425 8.38415 28.9451 9.26135 29.3161 9.95111L28.0195 11.2482C27.33 10.877 26.4531 10.9708 25.8722 11.5556L23.6013 13.8273C23.0204 14.4083 22.923 15.2855 23.294 15.9753L21.9936 17.2761C21.3641 16.95 20.5584 17.0137 20.0037 17.456C19.4266 16.9912 18.6397 16.9312 18.0064 17.2723L16.7098 15.9753C17.0808 15.2855 16.9833 14.4083 16.4025 13.8273L14.1315 11.5556C13.5507 10.9745 12.6738 10.877 11.9843 11.2482L10.6877 9.95111C11.0586 9.26135 10.965 8.38415 10.3804 7.8031L8.10942 5.53138C7.39741 4.82287 6.24696 4.82287 5.53494 5.53138C4.82668 6.23989 4.82668 7.39449 5.53494 8.10675L7.80588 10.3785C8.16189 10.7346 8.62657 10.9108 9.09125 10.9108C9.3873 10.9108 9.68334 10.8283 9.95316 10.6859L11.2498 11.9829C10.8788 12.6727 10.9762 13.5499 11.5571 14.1309L13.828 16.3989C14.169 16.74 14.6262 16.9312 15.1134 16.9312C15.4206 16.9312 15.7129 16.8487 15.9753 16.7063L17.2681 17.9996C16.9271 18.6331 16.9871 19.4204 17.448 19.9977C17.1894 20.32 17.0395 20.7099 17.0395 21.1335C17.0395 21.4447 17.122 21.7371 17.2644 21.9957L15.9715 23.289C15.282 22.9179 14.4051 23.0154 13.8242 23.5964L11.5533 25.8681C10.9725 26.4492 10.875 27.3264 11.246 28.0162L9.94941 29.3132C9.25988 28.9421 8.38299 29.0395 7.80214 29.6206L5.5312 31.8923C4.82293 32.6008 4.82293 33.7554 5.5312 34.4677C5.8872 34.8238 6.35188 35 6.81656 35C7.28124 35 7.74967 34.8238 8.10193 34.4677L10.3729 32.196C10.9537 31.6149 11.0512 30.7377 10.6802 30.048L11.9768 28.7509C12.2466 28.8971 12.5389 28.9758 12.8387 28.9758C13.3034 28.9758 13.7718 28.7996 14.124 28.4435L16.395 26.1718C16.9758 25.5907 17.0733 24.7135 16.7023 24.0238L17.9951 22.7305C18.2574 22.8729 18.5497 22.9554 18.857 22.9554C19.2767 22.9554 19.6702 22.8054 19.9925 22.5468C20.3223 22.8129 20.7233 22.9516 21.128 22.9516C21.424 22.9516 21.7201 22.8692 21.9899 22.7267L23.2827 24.02C22.9117 24.7098 23.0092 25.587 23.59 26.168L25.861 28.4398C26.217 28.7959 26.6817 28.9721 27.1463 28.9721C27.4461 28.9721 27.7384 28.8896 28.0082 28.7472L29.3049 30.0442C28.9339 30.734 29.0313 31.6112 29.6121 32.1922L31.8831 34.4639C32.2503 34.8163 32.715 34.9925 33.1834 34.9925C33.6481 34.9925 34.1165 34.8163 34.4688 34.4602C35.1771 33.7517 35.1771 32.5971 34.4688 31.8848L32.1979 29.6131C31.617 29.0321 30.7401 28.9346 30.0506 29.3057L28.754 28.0087C29.125 27.3189 29.0275 26.4417 28.4467 25.8606L26.1758 23.5889C25.5949 23.0079 24.718 22.9104 24.0285 23.2815L22.7319 21.9845C23.0729 21.3509 23.0129 20.5637 22.5482 19.9864C22.8106 19.6603 22.9605 19.2704 22.9605 18.8543C22.9605 18.5469 22.8743 18.2508 22.7319 17.9883L24.0247 16.695C24.2871 16.8375 24.5793 16.92 24.8866 16.92C25.3738 16.92 25.831 16.7325 26.172 16.3876L28.4429 14.1197C29.0238 13.5386 29.1212 12.6614 28.7502 11.9717L30.0468 10.6746C30.3204 10.8321 30.6164 10.9108 30.9125 10.9108ZM30.3579 8.53785L32.6288 6.26613C32.7825 6.11243 32.9848 6.03746 33.1834 6.03746C33.3858 6.03746 33.5844 6.11243 33.7381 6.26613C34.0453 6.57352 34.0453 7.0721 33.7381 7.37575L31.4671 9.64746C31.3022 9.81241 31.0849 9.87989 30.8675 9.86864L31.4596 9.27634C31.662 9.07391 31.662 8.74777 31.4596 8.54534C31.2573 8.34291 30.9312 8.34291 30.7289 8.54534L30.1368 9.13764C30.1255 8.92022 30.193 8.70279 30.3579 8.53785ZM9.29361 8.54534C9.09125 8.34291 8.76522 8.34291 8.56286 8.54534C8.3605 8.74777 8.3605 9.07391 8.56286 9.27634L9.15496 9.86864C8.93761 9.87989 8.72025 9.81241 8.55537 9.64746L6.28443 7.37575C5.97714 7.06835 5.97714 6.56977 6.28443 6.26613C6.43807 6.11243 6.64043 6.03746 6.83905 6.03746C7.04141 6.03746 7.24002 6.11243 7.39367 6.26613L9.6646 8.53785C9.82949 8.70279 9.89694 8.92022 9.8857 9.13764L9.29361 8.54534ZM15.312 14.5658C15.1096 14.3633 14.7836 14.3633 14.5812 14.5658C14.3789 14.7682 14.3789 15.0943 14.5812 15.2968L15.1658 15.8816C14.9485 15.8928 14.7311 15.8253 14.5737 15.6679L12.3028 13.3999C12.1379 13.235 12.0705 13.0176 12.0817 12.8001L12.6738 13.3924C12.775 13.4936 12.9061 13.5424 13.041 13.5424C13.1722 13.5424 13.3071 13.4936 13.4083 13.3924C13.6106 13.19 13.6106 12.8639 13.4083 12.6614L12.8162 12.0691C13.0335 12.0579 13.2509 12.1254 13.4158 12.2903L15.6867 14.562C15.8516 14.727 15.9191 14.9444 15.9078 15.1618L15.312 14.5658ZM9.6646 31.4575L7.39367 33.7292C7.08638 34.0366 6.58797 34.0328 6.28443 33.7292C5.97714 33.4218 5.97714 32.9232 6.28443 32.6196L8.55537 30.3479C8.70527 30.1942 8.90763 30.1192 9.10999 30.1192C9.12498 30.1192 9.13997 30.1267 9.15496 30.1267L8.56286 30.719C8.3605 30.9214 8.3605 31.2475 8.56286 31.45C8.66404 31.5512 8.7952 31.5999 8.93011 31.5999C9.06127 31.5999 9.19618 31.5512 9.29736 31.45L9.88945 30.8577C9.89695 31.0751 9.82949 31.2925 9.6646 31.4575ZM15.683 25.437L13.412 27.7088C13.2471 27.8737 13.0298 27.9412 12.8124 27.9299L13.4045 27.3376C13.6069 27.1352 13.6069 26.8091 13.4045 26.6066C13.2022 26.4042 12.8761 26.4042 12.6738 26.6066L12.0817 27.1989C12.0705 26.9815 12.1379 26.7641 12.3028 26.5991L14.5737 24.3274C14.7274 24.1737 14.9297 24.0987 15.1283 24.0987C15.1433 24.0987 15.1583 24.1062 15.1733 24.1062L14.5812 24.6985C14.3789 24.901 14.3789 25.2271 14.5812 25.4295C14.6824 25.5308 14.8136 25.5795 14.9485 25.5795C15.0796 25.5795 15.2145 25.5308 15.3157 25.4295L15.9078 24.8372C15.9153 25.0547 15.8479 25.2721 15.683 25.437ZM21.1879 18.0896L20.9331 18.3445L20.7757 18.187C20.9031 18.1196 21.0418 18.0821 21.1879 18.0896ZM18.1001 21.1785C18.1001 21.1635 18.0926 21.1485 18.0926 21.1335C18.0926 20.9986 18.1375 20.8749 18.2012 20.7624L18.3624 20.9236L18.1001 21.1785ZM18.8345 21.9058L19.0894 21.6508L19.2468 21.8083C19.1194 21.8758 18.9807 21.9132 18.8345 21.9058ZM21.3303 20.5862C21.128 20.3838 20.8019 20.3838 20.5996 20.5862C20.3972 20.7886 20.3972 21.1148 20.5996 21.3172L21.1917 21.9095C20.9743 21.9207 20.757 21.8533 20.5921 21.6883L20.3822 21.4784C20.3822 21.4784 20.3822 21.4746 20.3785 21.4746C20.3785 21.4746 20.3747 21.4746 20.3747 21.4709L18.5385 19.634C18.5385 19.634 18.5385 19.634 18.5385 19.6303C18.5385 19.6303 18.5385 19.6303 18.5348 19.6303L18.3212 19.4166C18.1563 19.2517 18.0888 19.0305 18.1001 18.8168L18.6921 19.4091C18.7933 19.5103 18.9245 19.5591 19.0594 19.5591C19.1906 19.5591 19.3255 19.5103 19.4266 19.4091C19.629 19.2067 19.629 18.8805 19.4266 18.6781L18.8345 18.0858C19.0519 18.0746 19.2693 18.142 19.4341 18.307L19.644 18.5169C19.644 18.5169 19.644 18.5207 19.6477 18.5207C19.6477 18.5207 19.6515 18.5207 19.6515 18.5244L21.4877 20.3613C21.4877 20.3613 21.4877 20.3613 21.4877 20.365C21.4877 20.365 21.4877 20.365 21.4915 20.365L21.7051 20.5787C21.87 20.7437 21.9374 20.9611 21.9262 21.1785L21.3303 20.5862ZM21.825 19.2367L21.6639 19.0755L21.9262 18.8131C21.9262 18.8318 21.9374 18.8468 21.9374 18.8655C21.9337 18.9968 21.8887 19.1205 21.825 19.2367ZM30.7289 31.45C30.8301 31.5512 30.9612 31.5999 31.0961 31.5999C31.2273 31.5999 31.3622 31.5512 31.4634 31.45C31.6657 31.2475 31.6657 30.9214 31.4634 30.719L30.8713 30.1267C30.8863 30.1267 30.9013 30.1192 30.9162 30.1192C31.1186 30.1192 31.3172 30.1942 31.4709 30.3479L33.7418 32.6196C34.0491 32.927 34.0491 33.4255 33.7418 33.7292C33.4383 34.0366 32.9361 34.0366 32.6326 33.7292L30.3616 31.4575C30.1967 31.2925 30.1293 31.0714 30.1405 30.8577L30.7289 31.45ZM24.7105 25.4295C24.8117 25.5308 24.9429 25.5795 25.0778 25.5795C25.2089 25.5795 25.3438 25.5308 25.445 25.4295C25.6474 25.2271 25.6474 24.901 25.445 24.6985L24.8529 24.1062C24.8679 24.1062 24.8829 24.0987 24.8979 24.0987C25.1002 24.0987 25.2989 24.1737 25.4525 24.3274L27.7234 26.5991C27.8883 26.7641 27.9558 26.9853 27.9445 27.1989L27.3524 26.6066C27.1501 26.4042 26.8241 26.4042 26.6217 26.6066C26.4193 26.8091 26.4193 27.1352 26.6217 27.3376L27.2138 27.9299C26.9964 27.9412 26.7791 27.8737 26.6142 27.7088L24.3433 25.437C24.1784 25.2721 24.1109 25.0509 24.1222 24.8372L24.7105 25.4295ZM27.7197 13.3962L25.4488 15.6641C25.2914 15.8216 25.074 15.8891 24.8567 15.8778L25.4413 15.293C25.6436 15.0906 25.6436 14.7645 25.4413 14.562C25.2389 14.3596 24.9129 14.3596 24.7105 14.562L24.1184 15.1543C24.1072 14.9369 24.1746 14.7195 24.3395 14.5545L26.6105 12.2828C26.7641 12.1291 26.9665 12.0541 27.1651 12.0541C27.1801 12.0541 27.1951 12.0616 27.21 12.0616L26.6179 12.6539C26.4156 12.8564 26.4156 13.1825 26.6179 13.3849C26.7191 13.4861 26.8503 13.5349 26.9852 13.5349C27.1164 13.5349 27.2513 13.4861 27.3524 13.3849L27.9445 12.7926C27.952 13.0138 27.8846 13.235 27.7197 13.3962Z"/>
</mask>
<g filter="url(#filter0_i)">
<path d="M30.9125 10.9108C31.3772 10.9108 31.8456 10.7346 32.1979 10.3785L34.4688 8.10675C35.1771 7.39824 35.1771 6.24364 34.4688 5.53138C33.7605 4.82287 32.6063 4.82287 31.8943 5.53138L29.6234 7.8031C29.0425 8.38415 28.9451 9.26135 29.3161 9.95111L28.0195 11.2482C27.33 10.877 26.4531 10.9708 25.8722 11.5556L23.6013 13.8273C23.0204 14.4083 22.923 15.2855 23.294 15.9753L21.9936 17.2761C21.3641 16.95 20.5584 17.0137 20.0037 17.456C19.4266 16.9912 18.6397 16.9312 18.0064 17.2723L16.7098 15.9753C17.0808 15.2855 16.9833 14.4083 16.4025 13.8273L14.1315 11.5556C13.5507 10.9745 12.6738 10.877 11.9843 11.2482L10.6877 9.95111C11.0586 9.26135 10.965 8.38415 10.3804 7.8031L8.10942 5.53138C7.39741 4.82287 6.24696 4.82287 5.53494 5.53138C4.82668 6.23989 4.82668 7.39449 5.53494 8.10675L7.80588 10.3785C8.16189 10.7346 8.62657 10.9108 9.09125 10.9108C9.3873 10.9108 9.68334 10.8283 9.95316 10.6859L11.2498 11.9829C10.8788 12.6727 10.9762 13.5499 11.5571 14.1309L13.828 16.3989C14.169 16.74 14.6262 16.9312 15.1134 16.9312C15.4206 16.9312 15.7129 16.8487 15.9753 16.7063L17.2681 17.9996C16.9271 18.6331 16.9871 19.4204 17.448 19.9977C17.1894 20.32 17.0395 20.7099 17.0395 21.1335C17.0395 21.4447 17.122 21.7371 17.2644 21.9957L15.9715 23.289C15.282 22.9179 14.4051 23.0154 13.8242 23.5964L11.5533 25.8681C10.9725 26.4492 10.875 27.3264 11.246 28.0162L9.94941 29.3132C9.25988 28.9421 8.38299 29.0395 7.80214 29.6206L5.5312 31.8923C4.82293 32.6008 4.82293 33.7554 5.5312 34.4677C5.8872 34.8238 6.35188 35 6.81656 35C7.28124 35 7.74967 34.8238 8.10193 34.4677L10.3729 32.196C10.9537 31.6149 11.0512 30.7377 10.6802 30.048L11.9768 28.7509C12.2466 28.8971 12.5389 28.9758 12.8387 28.9758C13.3034 28.9758 13.7718 28.7996 14.124 28.4435L16.395 26.1718C16.9758 25.5907 17.0733 24.7135 16.7023 24.0238L17.9951 22.7305C18.2574 22.8729 18.5497 22.9554 18.857 22.9554C19.2767 22.9554 19.6702 22.8054 19.9925 22.5468C20.3223 22.8129 20.7233 22.9516 21.128 22.9516C21.424 22.9516 21.7201 22.8692 21.9899 22.7267L23.2827 24.02C22.9117 24.7098 23.0092 25.587 23.59 26.168L25.861 28.4398C26.217 28.7959 26.6817 28.9721 27.1463 28.9721C27.4461 28.9721 27.7384 28.8896 28.0082 28.7472L29.3049 30.0442C28.9339 30.734 29.0313 31.6112 29.6121 32.1922L31.8831 34.4639C32.2503 34.8163 32.715 34.9925 33.1834 34.9925C33.6481 34.9925 34.1165 34.8163 34.4688 34.4602C35.1771 33.7517 35.1771 32.5971 34.4688 31.8848L32.1979 29.6131C31.617 29.0321 30.7401 28.9346 30.0506 29.3057L28.754 28.0087C29.125 27.3189 29.0275 26.4417 28.4467 25.8606L26.1758 23.5889C25.5949 23.0079 24.718 22.9104 24.0285 23.2815L22.7319 21.9845C23.0729 21.3509 23.0129 20.5637 22.5482 19.9864C22.8106 19.6603 22.9605 19.2704 22.9605 18.8543C22.9605 18.5469 22.8743 18.2508 22.7319 17.9883L24.0247 16.695C24.2871 16.8375 24.5793 16.92 24.8866 16.92C25.3738 16.92 25.831 16.7325 26.172 16.3876L28.4429 14.1197C29.0238 13.5386 29.1212 12.6614 28.7502 11.9717L30.0468 10.6746C30.3204 10.8321 30.6164 10.9108 30.9125 10.9108ZM30.3579 8.53785L32.6288 6.26613C32.7825 6.11243 32.9848 6.03746 33.1834 6.03746C33.3858 6.03746 33.5844 6.11243 33.7381 6.26613C34.0453 6.57352 34.0453 7.0721 33.7381 7.37575L31.4671 9.64746C31.3022 9.81241 31.0849 9.87989 30.8675 9.86864L31.4596 9.27634C31.662 9.07391 31.662 8.74777 31.4596 8.54534C31.2573 8.34291 30.9312 8.34291 30.7289 8.54534L30.1368 9.13764C30.1255 8.92022 30.193 8.70279 30.3579 8.53785ZM9.29361 8.54534C9.09125 8.34291 8.76522 8.34291 8.56286 8.54534C8.3605 8.74777 8.3605 9.07391 8.56286 9.27634L9.15496 9.86864C8.93761 9.87989 8.72025 9.81241 8.55537 9.64746L6.28443 7.37575C5.97714 7.06835 5.97714 6.56977 6.28443 6.26613C6.43807 6.11243 6.64043 6.03746 6.83905 6.03746C7.04141 6.03746 7.24002 6.11243 7.39367 6.26613L9.6646 8.53785C9.82949 8.70279 9.89694 8.92022 9.8857 9.13764L9.29361 8.54534ZM15.312 14.5658C15.1096 14.3633 14.7836 14.3633 14.5812 14.5658C14.3789 14.7682 14.3789 15.0943 14.5812 15.2968L15.1658 15.8816C14.9485 15.8928 14.7311 15.8253 14.5737 15.6679L12.3028 13.3999C12.1379 13.235 12.0705 13.0176 12.0817 12.8001L12.6738 13.3924C12.775 13.4936 12.9061 13.5424 13.041 13.5424C13.1722 13.5424 13.3071 13.4936 13.4083 13.3924C13.6106 13.19 13.6106 12.8639 13.4083 12.6614L12.8162 12.0691C13.0335 12.0579 13.2509 12.1254 13.4158 12.2903L15.6867 14.562C15.8516 14.727 15.9191 14.9444 15.9078 15.1618L15.312 14.5658ZM9.6646 31.4575L7.39367 33.7292C7.08638 34.0366 6.58797 34.0328 6.28443 33.7292C5.97714 33.4218 5.97714 32.9232 6.28443 32.6196L8.55537 30.3479C8.70527 30.1942 8.90763 30.1192 9.10999 30.1192C9.12498 30.1192 9.13997 30.1267 9.15496 30.1267L8.56286 30.719C8.3605 30.9214 8.3605 31.2475 8.56286 31.45C8.66404 31.5512 8.7952 31.5999 8.93011 31.5999C9.06127 31.5999 9.19618 31.5512 9.29736 31.45L9.88945 30.8577C9.89695 31.0751 9.82949 31.2925 9.6646 31.4575ZM15.683 25.437L13.412 27.7088C13.2471 27.8737 13.0298 27.9412 12.8124 27.9299L13.4045 27.3376C13.6069 27.1352 13.6069 26.8091 13.4045 26.6066C13.2022 26.4042 12.8761 26.4042 12.6738 26.6066L12.0817 27.1989C12.0705 26.9815 12.1379 26.7641 12.3028 26.5991L14.5737 24.3274C14.7274 24.1737 14.9297 24.0987 15.1283 24.0987C15.1433 24.0987 15.1583 24.1062 15.1733 24.1062L14.5812 24.6985C14.3789 24.901 14.3789 25.2271 14.5812 25.4295C14.6824 25.5308 14.8136 25.5795 14.9485 25.5795C15.0796 25.5795 15.2145 25.5308 15.3157 25.4295L15.9078 24.8372C15.9153 25.0547 15.8479 25.2721 15.683 25.437ZM21.1879 18.0896L20.9331 18.3445L20.7757 18.187C20.9031 18.1196 21.0418 18.0821 21.1879 18.0896ZM18.1001 21.1785C18.1001 21.1635 18.0926 21.1485 18.0926 21.1335C18.0926 20.9986 18.1375 20.8749 18.2012 20.7624L18.3624 20.9236L18.1001 21.1785ZM18.8345 21.9058L19.0894 21.6508L19.2468 21.8083C19.1194 21.8758 18.9807 21.9132 18.8345 21.9058ZM21.3303 20.5862C21.128 20.3838 20.8019 20.3838 20.5996 20.5862C20.3972 20.7886 20.3972 21.1148 20.5996 21.3172L21.1917 21.9095C20.9743 21.9207 20.757 21.8533 20.5921 21.6883L20.3822 21.4784C20.3822 21.4784 20.3822 21.4746 20.3785 21.4746C20.3785 21.4746 20.3747 21.4746 20.3747 21.4709L18.5385 19.634C18.5385 19.634 18.5385 19.634 18.5385 19.6303C18.5385 19.6303 18.5385 19.6303 18.5348 19.6303L18.3212 19.4166C18.1563 19.2517 18.0888 19.0305 18.1001 18.8168L18.6921 19.4091C18.7933 19.5103 18.9245 19.5591 19.0594 19.5591C19.1906 19.5591 19.3255 19.5103 19.4266 19.4091C19.629 19.2067 19.629 18.8805 19.4266 18.6781L18.8345 18.0858C19.0519 18.0746 19.2693 18.142 19.4341 18.307L19.644 18.5169C19.644 18.5169 19.644 18.5207 19.6477 18.5207C19.6477 18.5207 19.6515 18.5207 19.6515 18.5244L21.4877 20.3613C21.4877 20.3613 21.4877 20.3613 21.4877 20.365C21.4877 20.365 21.4877 20.365 21.4915 20.365L21.7051 20.5787C21.87 20.7437 21.9374 20.9611 21.9262 21.1785L21.3303 20.5862ZM21.825 19.2367L21.6639 19.0755L21.9262 18.8131C21.9262 18.8318 21.9374 18.8468 21.9374 18.8655C21.9337 18.9968 21.8887 19.1205 21.825 19.2367ZM30.7289 31.45C30.8301 31.5512 30.9612 31.5999 31.0961 31.5999C31.2273 31.5999 31.3622 31.5512 31.4634 31.45C31.6657 31.2475 31.6657 30.9214 31.4634 30.719L30.8713 30.1267C30.8863 30.1267 30.9013 30.1192 30.9162 30.1192C31.1186 30.1192 31.3172 30.1942 31.4709 30.3479L33.7418 32.6196C34.0491 32.927 34.0491 33.4255 33.7418 33.7292C33.4383 34.0366 32.9361 34.0366 32.6326 33.7292L30.3616 31.4575C30.1967 31.2925 30.1293 31.0714 30.1405 30.8577L30.7289 31.45ZM24.7105 25.4295C24.8117 25.5308 24.9429 25.5795 25.0778 25.5795C25.2089 25.5795 25.3438 25.5308 25.445 25.4295C25.6474 25.2271 25.6474 24.901 25.445 24.6985L24.8529 24.1062C24.8679 24.1062 24.8829 24.0987 24.8979 24.0987C25.1002 24.0987 25.2989 24.1737 25.4525 24.3274L27.7234 26.5991C27.8883 26.7641 27.9558 26.9853 27.9445 27.1989L27.3524 26.6066C27.1501 26.4042 26.8241 26.4042 26.6217 26.6066C26.4193 26.8091 26.4193 27.1352 26.6217 27.3376L27.2138 27.9299C26.9964 27.9412 26.7791 27.8737 26.6142 27.7088L24.3433 25.437C24.1784 25.2721 24.1109 25.0509 24.1222 24.8372L24.7105 25.4295ZM27.7197 13.3962L25.4488 15.6641C25.2914 15.8216 25.074 15.8891 24.8567 15.8778L25.4413 15.293C25.6436 15.0906 25.6436 14.7645 25.4413 14.562C25.2389 14.3596 24.9129 14.3596 24.7105 14.562L24.1184 15.1543C24.1072 14.9369 24.1746 14.7195 24.3395 14.5545L26.6105 12.2828C26.7641 12.1291 26.9665 12.0541 27.1651 12.0541C27.1801 12.0541 27.1951 12.0616 27.21 12.0616L26.6179 12.6539C26.4156 12.8564 26.4156 13.1825 26.6179 13.3849C26.7191 13.4861 26.8503 13.5349 26.9852 13.5349C27.1164 13.5349 27.2513 13.4861 27.3524 13.3849L27.9445 12.7926C27.952 13.0138 27.8846 13.235 27.7197 13.3962Z" fill="#595959"/>
<path d="M30.9125 10.9108C31.3772 10.9108 31.8456 10.7346 32.1979 10.3785L34.4688 8.10675C35.1771 7.39824 35.1771 6.24364 34.4688 5.53138C33.7605 4.82287 32.6063 4.82287 31.8943 5.53138L29.6234 7.8031C29.0425 8.38415 28.9451 9.26135 29.3161 9.95111L28.0195 11.2482C27.33 10.877 26.4531 10.9708 25.8722 11.5556L23.6013 13.8273C23.0204 14.4083 22.923 15.2855 23.294 15.9753L21.9936 17.2761C21.3641 16.95 20.5584 17.0137 20.0037 17.456C19.4266 16.9912 18.6397 16.9312 18.0064 17.2723L16.7098 15.9753C17.0808 15.2855 16.9833 14.4083 16.4025 13.8273L14.1315 11.5556C13.5507 10.9745 12.6738 10.877 11.9843 11.2482L10.6877 9.95111C11.0586 9.26135 10.965 8.38415 10.3804 7.8031L8.10942 5.53138C7.39741 4.82287 6.24696 4.82287 5.53494 5.53138C4.82668 6.23989 4.82668 7.39449 5.53494 8.10675L7.80588 10.3785C8.16189 10.7346 8.62657 10.9108 9.09125 10.9108C9.3873 10.9108 9.68334 10.8283 9.95316 10.6859L11.2498 11.9829C10.8788 12.6727 10.9762 13.5499 11.5571 14.1309L13.828 16.3989C14.169 16.74 14.6262 16.9312 15.1134 16.9312C15.4206 16.9312 15.7129 16.8487 15.9753 16.7063L17.2681 17.9996C16.9271 18.6331 16.9871 19.4204 17.448 19.9977C17.1894 20.32 17.0395 20.7099 17.0395 21.1335C17.0395 21.4447 17.122 21.7371 17.2644 21.9957L15.9715 23.289C15.282 22.9179 14.4051 23.0154 13.8242 23.5964L11.5533 25.8681C10.9725 26.4492 10.875 27.3264 11.246 28.0162L9.94941 29.3132C9.25988 28.9421 8.38299 29.0395 7.80214 29.6206L5.5312 31.8923C4.82293 32.6008 4.82293 33.7554 5.5312 34.4677C5.8872 34.8238 6.35188 35 6.81656 35C7.28124 35 7.74967 34.8238 8.10193 34.4677L10.3729 32.196C10.9537 31.6149 11.0512 30.7377 10.6802 30.048L11.9768 28.7509C12.2466 28.8971 12.5389 28.9758 12.8387 28.9758C13.3034 28.9758 13.7718 28.7996 14.124 28.4435L16.395 26.1718C16.9758 25.5907 17.0733 24.7135 16.7023 24.0238L17.9951 22.7305C18.2574 22.8729 18.5497 22.9554 18.857 22.9554C19.2767 22.9554 19.6702 22.8054 19.9925 22.5468C20.3223 22.8129 20.7233 22.9516 21.128 22.9516C21.424 22.9516 21.7201 22.8692 21.9899 22.7267L23.2827 24.02C22.9117 24.7098 23.0092 25.587 23.59 26.168L25.861 28.4398C26.217 28.7959 26.6817 28.9721 27.1463 28.9721C27.4461 28.9721 27.7384 28.8896 28.0082 28.7472L29.3049 30.0442C28.9339 30.734 29.0313 31.6112 29.6121 32.1922L31.8831 34.4639C32.2503 34.8163 32.715 34.9925 33.1834 34.9925C33.6481 34.9925 34.1165 34.8163 34.4688 34.4602C35.1771 33.7517 35.1771 32.5971 34.4688 31.8848L32.1979 29.6131C31.617 29.0321 30.7401 28.9346 30.0506 29.3057L28.754 28.0087C29.125 27.3189 29.0275 26.4417 28.4467 25.8606L26.1758 23.5889C25.5949 23.0079 24.718 22.9104 24.0285 23.2815L22.7319 21.9845C23.0729 21.3509 23.0129 20.5637 22.5482 19.9864C22.8106 19.6603 22.9605 19.2704 22.9605 18.8543C22.9605 18.5469 22.8743 18.2508 22.7319 17.9883L24.0247 16.695C24.2871 16.8375 24.5793 16.92 24.8866 16.92C25.3738 16.92 25.831 16.7325 26.172 16.3876L28.4429 14.1197C29.0238 13.5386 29.1212 12.6614 28.7502 11.9717L30.0468 10.6746C30.3204 10.8321 30.6164 10.9108 30.9125 10.9108ZM30.3579 8.53785L32.6288 6.26613C32.7825 6.11243 32.9848 6.03746 33.1834 6.03746C33.3858 6.03746 33.5844 6.11243 33.7381 6.26613C34.0453 6.57352 34.0453 7.0721 33.7381 7.37575L31.4671 9.64746C31.3022 9.81241 31.0849 9.87989 30.8675 9.86864L31.4596 9.27634C31.662 9.07391 31.662 8.74777 31.4596 8.54534C31.2573 8.34291 30.9312 8.34291 30.7289 8.54534L30.1368 9.13764C30.1255 8.92022 30.193 8.70279 30.3579 8.53785ZM9.29361 8.54534C9.09125 8.34291 8.76522 8.34291 8.56286 8.54534C8.3605 8.74777 8.3605 9.07391 8.56286 9.27634L9.15496 9.86864C8.93761 9.87989 8.72025 9.81241 8.55537 9.64746L6.28443 7.37575C5.97714 7.06835 5.97714 6.56977 6.28443 6.26613C6.43807 6.11243 6.64043 6.03746 6.83905 6.03746C7.04141 6.03746 7.24002 6.11243 7.39367 6.26613L9.6646 8.53785C9.82949 8.70279 9.89694 8.92022 9.8857 9.13764L9.29361 8.54534ZM15.312 14.5658C15.1096 14.3633 14.7836 14.3633 14.5812 14.5658C14.3789 14.7682 14.3789 15.0943 14.5812 15.2968L15.1658 15.8816C14.9485 15.8928 14.7311 15.8253 14.5737 15.6679L12.3028 13.3999C12.1379 13.235 12.0705 13.0176 12.0817 12.8001L12.6738 13.3924C12.775 13.4936 12.9061 13.5424 13.041 13.5424C13.1722 13.5424 13.3071 13.4936 13.4083 13.3924C13.6106 13.19 13.6106 12.8639 13.4083 12.6614L12.8162 12.0691C13.0335 12.0579 13.2509 12.1254 13.4158 12.2903L15.6867 14.562C15.8516 14.727 15.9191 14.9444 15.9078 15.1618L15.312 14.5658ZM9.6646 31.4575L7.39367 33.7292C7.08638 34.0366 6.58797 34.0328 6.28443 33.7292C5.97714 33.4218 5.97714 32.9232 6.28443 32.6196L8.55537 30.3479C8.70527 30.1942 8.90763 30.1192 9.10999 30.1192C9.12498 30.1192 9.13997 30.1267 9.15496 30.1267L8.56286 30.719C8.3605 30.9214 8.3605 31.2475 8.56286 31.45C8.66404 31.5512 8.7952 31.5999 8.93011 31.5999C9.06127 31.5999 9.19618 31.5512 9.29736 31.45L9.88945 30.8577C9.89695 31.0751 9.82949 31.2925 9.6646 31.4575ZM15.683 25.437L13.412 27.7088C13.2471 27.8737 13.0298 27.9412 12.8124 27.9299L13.4045 27.3376C13.6069 27.1352 13.6069 26.8091 13.4045 26.6066C13.2022 26.4042 12.8761 26.4042 12.6738 26.6066L12.0817 27.1989C12.0705 26.9815 12.1379 26.7641 12.3028 26.5991L14.5737 24.3274C14.7274 24.1737 14.9297 24.0987 15.1283 24.0987C15.1433 24.0987 15.1583 24.1062 15.1733 24.1062L14.5812 24.6985C14.3789 24.901 14.3789 25.2271 14.5812 25.4295C14.6824 25.5308 14.8136 25.5795 14.9485 25.5795C15.0796 25.5795 15.2145 25.5308 15.3157 25.4295L15.9078 24.8372C15.9153 25.0547 15.8479 25.2721 15.683 25.437ZM21.1879 18.0896L20.9331 18.3445L20.7757 18.187C20.9031 18.1196 21.0418 18.0821 21.1879 18.0896ZM18.1001 21.1785C18.1001 21.1635 18.0926 21.1485 18.0926 21.1335C18.0926 20.9986 18.1375 20.8749 18.2012 20.7624L18.3624 20.9236L18.1001 21.1785ZM18.8345 21.9058L19.0894 21.6508L19.2468 21.8083C19.1194 21.8758 18.9807 21.9132 18.8345 21.9058ZM21.3303 20.5862C21.128 20.3838 20.8019 20.3838 20.5996 20.5862C20.3972 20.7886 20.3972 21.1148 20.5996 21.3172L21.1917 21.9095C20.9743 21.9207 20.757 21.8533 20.5921 21.6883L20.3822 21.4784C20.3822 21.4784 20.3822 21.4746 20.3785 21.4746C20.3785 21.4746 20.3747 21.4746 20.3747 21.4709L18.5385 19.634C18.5385 19.634 18.5385 19.634 18.5385 19.6303C18.5385 19.6303 18.5385 19.6303 18.5348 19.6303L18.3212 19.4166C18.1563 19.2517 18.0888 19.0305 18.1001 18.8168L18.6921 19.4091C18.7933 19.5103 18.9245 19.5591 19.0594 19.5591C19.1906 19.5591 19.3255 19.5103 19.4266 19.4091C19.629 19.2067 19.629 18.8805 19.4266 18.6781L18.8345 18.0858C19.0519 18.0746 19.2693 18.142 19.4341 18.307L19.644 18.5169C19.644 18.5169 19.644 18.5207 19.6477 18.5207C19.6477 18.5207 19.6515 18.5207 19.6515 18.5244L21.4877 20.3613C21.4877 20.3613 21.4877 20.3613 21.4877 20.365C21.4877 20.365 21.4877 20.365 21.4915 20.365L21.7051 20.5787C21.87 20.7437 21.9374 20.9611 21.9262 21.1785L21.3303 20.5862ZM21.825 19.2367L21.6639 19.0755L21.9262 18.8131C21.9262 18.8318 21.9374 18.8468 21.9374 18.8655C21.9337 18.9968 21.8887 19.1205 21.825 19.2367ZM30.7289 31.45C30.8301 31.5512 30.9612 31.5999 31.0961 31.5999C31.2273 31.5999 31.3622 31.5512 31.4634 31.45C31.6657 31.2475 31.6657 30.9214 31.4634 30.719L30.8713 30.1267C30.8863 30.1267 30.9013 30.1192 30.9162 30.1192C31.1186 30.1192 31.3172 30.1942 31.4709 30.3479L33.7418 32.6196C34.0491 32.927 34.0491 33.4255 33.7418 33.7292C33.4383 34.0366 32.9361 34.0366 32.6326 33.7292L30.3616 31.4575C30.1967 31.2925 30.1293 31.0714 30.1405 30.8577L30.7289 31.45ZM24.7105 25.4295C24.8117 25.5308 24.9429 25.5795 25.0778 25.5795C25.2089 25.5795 25.3438 25.5308 25.445 25.4295C25.6474 25.2271 25.6474 24.901 25.445 24.6985L24.8529 24.1062C24.8679 24.1062 24.8829 24.0987 24.8979 24.0987C25.1002 24.0987 25.2989 24.1737 25.4525 24.3274L27.7234 26.5991C27.8883 26.7641 27.9558 26.9853 27.9445 27.1989L27.3524 26.6066C27.1501 26.4042 26.8241 26.4042 26.6217 26.6066C26.4193 26.8091 26.4193 27.1352 26.6217 27.3376L27.2138 27.9299C26.9964 27.9412 26.7791 27.8737 26.6142 27.7088L24.3433 25.437C24.1784 25.2721 24.1109 25.0509 24.1222 24.8372L24.7105 25.4295ZM27.7197 13.3962L25.4488 15.6641C25.2914 15.8216 25.074 15.8891 24.8567 15.8778L25.4413 15.293C25.6436 15.0906 25.6436 14.7645 25.4413 14.562C25.2389 14.3596 24.9129 14.3596 24.7105 14.562L24.1184 15.1543C24.1072 14.9369 24.1746 14.7195 24.3395 14.5545L26.6105 12.2828C26.7641 12.1291 26.9665 12.0541 27.1651 12.0541C27.1801 12.0541 27.1951 12.0616 27.21 12.0616L26.6179 12.6539C26.4156 12.8564 26.4156 13.1825 26.6179 13.3849C26.7191 13.4861 26.8503 13.5349 26.9852 13.5349C27.1164 13.5349 27.2513 13.4861 27.3524 13.3849L27.9445 12.7926C27.952 13.0138 27.8846 13.235 27.7197 13.3962Z" fill="url(#paint1_linear)"/>
</g>
<path d="M30.9125 10.9108C31.3772 10.9108 31.8456 10.7346 32.1979 10.3785L34.4688 8.10675C35.1771 7.39824 35.1771 6.24364 34.4688 5.53138C33.7605 4.82287 32.6063 4.82287 31.8943 5.53138L29.6234 7.8031C29.0425 8.38415 28.9451 9.26135 29.3161 9.95111L28.0195 11.2482C27.33 10.877 26.4531 10.9708 25.8722 11.5556L23.6013 13.8273C23.0204 14.4083 22.923 15.2855 23.294 15.9753L21.9936 17.2761C21.3641 16.95 20.5584 17.0137 20.0037 17.456C19.4266 16.9912 18.6397 16.9312 18.0064 17.2723L16.7098 15.9753C17.0808 15.2855 16.9833 14.4083 16.4025 13.8273L14.1315 11.5556C13.5507 10.9745 12.6738 10.877 11.9843 11.2482L10.6877 9.95111C11.0586 9.26135 10.965 8.38415 10.3804 7.8031L8.10942 5.53138C7.39741 4.82287 6.24696 4.82287 5.53494 5.53138C4.82668 6.23989 4.82668 7.39449 5.53494 8.10675L7.80588 10.3785C8.16189 10.7346 8.62657 10.9108 9.09125 10.9108C9.3873 10.9108 9.68334 10.8283 9.95316 10.6859L11.2498 11.9829C10.8788 12.6727 10.9762 13.5499 11.5571 14.1309L13.828 16.3989C14.169 16.74 14.6262 16.9312 15.1134 16.9312C15.4206 16.9312 15.7129 16.8487 15.9753 16.7063L17.2681 17.9996C16.9271 18.6331 16.9871 19.4204 17.448 19.9977C17.1894 20.32 17.0395 20.7099 17.0395 21.1335C17.0395 21.4447 17.122 21.7371 17.2644 21.9957L15.9715 23.289C15.282 22.9179 14.4051 23.0154 13.8242 23.5964L11.5533 25.8681C10.9725 26.4492 10.875 27.3264 11.246 28.0162L9.94941 29.3132C9.25988 28.9421 8.38299 29.0395 7.80214 29.6206L5.5312 31.8923C4.82293 32.6008 4.82293 33.7554 5.5312 34.4677C5.8872 34.8238 6.35188 35 6.81656 35C7.28124 35 7.74967 34.8238 8.10193 34.4677L10.3729 32.196C10.9537 31.6149 11.0512 30.7377 10.6802 30.048L11.9768 28.7509C12.2466 28.8971 12.5389 28.9758 12.8387 28.9758C13.3034 28.9758 13.7718 28.7996 14.124 28.4435L16.395 26.1718C16.9758 25.5907 17.0733 24.7135 16.7023 24.0238L17.9951 22.7305C18.2574 22.8729 18.5497 22.9554 18.857 22.9554C19.2767 22.9554 19.6702 22.8054 19.9925 22.5468C20.3223 22.8129 20.7233 22.9516 21.128 22.9516C21.424 22.9516 21.7201 22.8692 21.9899 22.7267L23.2827 24.02C22.9117 24.7098 23.0092 25.587 23.59 26.168L25.861 28.4398C26.217 28.7959 26.6817 28.9721 27.1463 28.9721C27.4461 28.9721 27.7384 28.8896 28.0082 28.7472L29.3049 30.0442C28.9339 30.734 29.0313 31.6112 29.6121 32.1922L31.8831 34.4639C32.2503 34.8163 32.715 34.9925 33.1834 34.9925C33.6481 34.9925 34.1165 34.8163 34.4688 34.4602C35.1771 33.7517 35.1771 32.5971 34.4688 31.8848L32.1979 29.6131C31.617 29.0321 30.7401 28.9346 30.0506 29.3057L28.754 28.0087C29.125 27.3189 29.0275 26.4417 28.4467 25.8606L26.1758 23.5889C25.5949 23.0079 24.718 22.9104 24.0285 23.2815L22.7319 21.9845C23.0729 21.3509 23.0129 20.5637 22.5482 19.9864C22.8106 19.6603 22.9605 19.2704 22.9605 18.8543C22.9605 18.5469 22.8743 18.2508 22.7319 17.9883L24.0247 16.695C24.2871 16.8375 24.5793 16.92 24.8866 16.92C25.3738 16.92 25.831 16.7325 26.172 16.3876L28.4429 14.1197C29.0238 13.5386 29.1212 12.6614 28.7502 11.9717L30.0468 10.6746C30.3204 10.8321 30.6164 10.9108 30.9125 10.9108ZM30.3579 8.53785L32.6288 6.26613C32.7825 6.11243 32.9848 6.03746 33.1834 6.03746C33.3858 6.03746 33.5844 6.11243 33.7381 6.26613C34.0453 6.57352 34.0453 7.0721 33.7381 7.37575L31.4671 9.64746C31.3022 9.81241 31.0849 9.87989 30.8675 9.86864L31.4596 9.27634C31.662 9.07391 31.662 8.74777 31.4596 8.54534C31.2573 8.34291 30.9312 8.34291 30.7289 8.54534L30.1368 9.13764C30.1255 8.92022 30.193 8.70279 30.3579 8.53785ZM9.29361 8.54534C9.09125 8.34291 8.76522 8.34291 8.56286 8.54534C8.3605 8.74777 8.3605 9.07391 8.56286 9.27634L9.15496 9.86864C8.93761 9.87989 8.72025 9.81241 8.55537 9.64746L6.28443 7.37575C5.97714 7.06835 5.97714 6.56977 6.28443 6.26613C6.43807 6.11243 6.64043 6.03746 6.83905 6.03746C7.04141 6.03746 7.24002 6.11243 7.39367 6.26613L9.6646 8.53785C9.82949 8.70279 9.89694 8.92022 9.8857 9.13764L9.29361 8.54534ZM15.312 14.5658C15.1096 14.3633 14.7836 14.3633 14.5812 14.5658C14.3789 14.7682 14.3789 15.0943 14.5812 15.2968L15.1658 15.8816C14.9485 15.8928 14.7311 15.8253 14.5737 15.6679L12.3028 13.3999C12.1379 13.235 12.0705 13.0176 12.0817 12.8001L12.6738 13.3924C12.775 13.4936 12.9061 13.5424 13.041 13.5424C13.1722 13.5424 13.3071 13.4936 13.4083 13.3924C13.6106 13.19 13.6106 12.8639 13.4083 12.6614L12.8162 12.0691C13.0335 12.0579 13.2509 12.1254 13.4158 12.2903L15.6867 14.562C15.8516 14.727 15.9191 14.9444 15.9078 15.1618L15.312 14.5658ZM9.6646 31.4575L7.39367 33.7292C7.08638 34.0366 6.58797 34.0328 6.28443 33.7292C5.97714 33.4218 5.97714 32.9232 6.28443 32.6196L8.55537 30.3479C8.70527 30.1942 8.90763 30.1192 9.10999 30.1192C9.12498 30.1192 9.13997 30.1267 9.15496 30.1267L8.56286 30.719C8.3605 30.9214 8.3605 31.2475 8.56286 31.45C8.66404 31.5512 8.7952 31.5999 8.93011 31.5999C9.06127 31.5999 9.19618 31.5512 9.29736 31.45L9.88945 30.8577C9.89695 31.0751 9.82949 31.2925 9.6646 31.4575ZM15.683 25.437L13.412 27.7088C13.2471 27.8737 13.0298 27.9412 12.8124 27.9299L13.4045 27.3376C13.6069 27.1352 13.6069 26.8091 13.4045 26.6066C13.2022 26.4042 12.8761 26.4042 12.6738 26.6066L12.0817 27.1989C12.0705 26.9815 12.1379 26.7641 12.3028 26.5991L14.5737 24.3274C14.7274 24.1737 14.9297 24.0987 15.1283 24.0987C15.1433 24.0987 15.1583 24.1062 15.1733 24.1062L14.5812 24.6985C14.3789 24.901 14.3789 25.2271 14.5812 25.4295C14.6824 25.5308 14.8136 25.5795 14.9485 25.5795C15.0796 25.5795 15.2145 25.5308 15.3157 25.4295L15.9078 24.8372C15.9153 25.0547 15.8479 25.2721 15.683 25.437ZM21.1879 18.0896L20.9331 18.3445L20.7757 18.187C20.9031 18.1196 21.0418 18.0821 21.1879 18.0896ZM18.1001 21.1785C18.1001 21.1635 18.0926 21.1485 18.0926 21.1335C18.0926 20.9986 18.1375 20.8749 18.2012 20.7624L18.3624 20.9236L18.1001 21.1785ZM18.8345 21.9058L19.0894 21.6508L19.2468 21.8083C19.1194 21.8758 18.9807 21.9132 18.8345 21.9058ZM21.3303 20.5862C21.128 20.3838 20.8019 20.3838 20.5996 20.5862C20.3972 20.7886 20.3972 21.1148 20.5996 21.3172L21.1917 21.9095C20.9743 21.9207 20.757 21.8533 20.5921 21.6883L20.3822 21.4784C20.3822 21.4784 20.3822 21.4746 20.3785 21.4746C20.3785 21.4746 20.3747 21.4746 20.3747 21.4709L18.5385 19.634C18.5385 19.634 18.5385 19.634 18.5385 19.6303C18.5385 19.6303 18.5385 19.6303 18.5348 19.6303L18.3212 19.4166C18.1563 19.2517 18.0888 19.0305 18.1001 18.8168L18.6921 19.4091C18.7933 19.5103 18.9245 19.5591 19.0594 19.5591C19.1906 19.5591 19.3255 19.5103 19.4266 19.4091C19.629 19.2067 19.629 18.8805 19.4266 18.6781L18.8345 18.0858C19.0519 18.0746 19.2693 18.142 19.4341 18.307L19.644 18.5169C19.644 18.5169 19.644 18.5207 19.6477 18.5207C19.6477 18.5207 19.6515 18.5207 19.6515 18.5244L21.4877 20.3613C21.4877 20.3613 21.4877 20.3613 21.4877 20.365C21.4877 20.365 21.4877 20.365 21.4915 20.365L21.7051 20.5787C21.87 20.7437 21.9374 20.9611 21.9262 21.1785L21.3303 20.5862ZM21.825 19.2367L21.6639 19.0755L21.9262 18.8131C21.9262 18.8318 21.9374 18.8468 21.9374 18.8655C21.9337 18.9968 21.8887 19.1205 21.825 19.2367ZM30.7289 31.45C30.8301 31.5512 30.9612 31.5999 31.0961 31.5999C31.2273 31.5999 31.3622 31.5512 31.4634 31.45C31.6657 31.2475 31.6657 30.9214 31.4634 30.719L30.8713 30.1267C30.8863 30.1267 30.9013 30.1192 30.9162 30.1192C31.1186 30.1192 31.3172 30.1942 31.4709 30.3479L33.7418 32.6196C34.0491 32.927 34.0491 33.4255 33.7418 33.7292C33.4383 34.0366 32.9361 34.0366 32.6326 33.7292L30.3616 31.4575C30.1967 31.2925 30.1293 31.0714 30.1405 30.8577L30.7289 31.45ZM24.7105 25.4295C24.8117 25.5308 24.9429 25.5795 25.0778 25.5795C25.2089 25.5795 25.3438 25.5308 25.445 25.4295C25.6474 25.2271 25.6474 24.901 25.445 24.6985L24.8529 24.1062C24.8679 24.1062 24.8829 24.0987 24.8979 24.0987C25.1002 24.0987 25.2989 24.1737 25.4525 24.3274L27.7234 26.5991C27.8883 26.7641 27.9558 26.9853 27.9445 27.1989L27.3524 26.6066C27.1501 26.4042 26.8241 26.4042 26.6217 26.6066C26.4193 26.8091 26.4193 27.1352 26.6217 27.3376L27.2138 27.9299C26.9964 27.9412 26.7791 27.8737 26.6142 27.7088L24.3433 25.437C24.1784 25.2721 24.1109 25.0509 24.1222 24.8372L24.7105 25.4295ZM27.7197 13.3962L25.4488 15.6641C25.2914 15.8216 25.074 15.8891 24.8567 15.8778L25.4413 15.293C25.6436 15.0906 25.6436 14.7645 25.4413 14.562C25.2389 14.3596 24.9129 14.3596 24.7105 14.562L24.1184 15.1543C24.1072 14.9369 24.1746 14.7195 24.3395 14.5545L26.6105 12.2828C26.7641 12.1291 26.9665 12.0541 27.1651 12.0541C27.1801 12.0541 27.1951 12.0616 27.21 12.0616L26.6179 12.6539C26.4156 12.8564 26.4156 13.1825 26.6179 13.3849C26.7191 13.4861 26.8503 13.5349 26.9852 13.5349C27.1164 13.5349 27.2513 13.4861 27.3524 13.3849L27.9445 12.7926C27.952 13.0138 27.8846 13.235 27.7197 13.3962Z" stroke="url(#paint2_linear)" stroke-width="0.5" mask="url(#path-3-inside-1)"/>
<defs>
<filter id="filter0_i" x="5" y="5" width="31" height="30" filterUnits="userSpaceOnUse" color-interpolation-filters="sRGB">
<feFlood flood-opacity="0" result="BackgroundImageFix"/>
<feBlend mode="normal" in="SourceGraphic" in2="BackgroundImageFix" result="shape"/>
<feColorMatrix in="SourceAlpha" type="matrix" values="0 0 0 0 0 0 0 0 0 0 0 0 0 0 0 0 0 0 127 0" result="hardAlpha"/>
<feOffset dx="2"/>
<feGaussianBlur stdDeviation="0.5"/>
<feComposite in2="hardAlpha" operator="arithmetic" k2="-1" k3="1"/>
<feColorMatrix type="matrix" values="0 0 0 0 0.854167 0 0 0 0 0.854167 0 0 0 0 0.854167 0 0 0 1 0"/>
<feBlend mode="normal" in2="shape" result="effect1_innerShadow"/>
</filter>
<linearGradient id="paint0_linear" x1="3.9975" y1="19.9996" x2="36.0025" y2="19.9996" gradientUnits="userSpaceOnUse">
<stop stop-color="#0779E4"/>
<stop offset="0.9341" stop-color="#1DD3BD"/>
</linearGradient>
<linearGradient id="paint1_linear" x1="6.55172" y1="5.51724" x2="34.2241" y2="33.9655" gradientUnits="userSpaceOnUse">
<stop stop-color="#A2A2A2"/>
<stop offset="1" stop-color="#BBBBBB"/>
</linearGradient>
<linearGradient id="paint2_linear" x1="6.55172" y1="5.51724" x2="34.2241" y2="33.9655" gradientUnits="userSpaceOnUse">
<stop stop-color="#A2A2A2"/>
<stop offset="1" stop-color="#BBBBBB"/>
</linearGradient>
</defs>
</svg>
