<svg width={105} height={45} viewBox="0 0 105 45" fill="none" xmlns="http://www.w3.org/2000/svg">
  <path d="M0 15C0 6.71573 6.71573 0 15 0H104C104.552 0 105 0.447715 105 1V30C105 38.2843 98.2843 45 90 45H1C0.447715 45 0 44.5523 0 44V15Z" fill="url(#paint0_linear)" />
  <path d="M28.2137 32.3C31.4137 32.3 34.9637 31.15 34.9637 26.9C34.9637 23.225 32.1137 22.575 28.7637 22C26.4887 21.6 23.9637 21.025 23.9637 19.025C23.9637 17.05 25.8637 16.075 27.7137 16.075C30.3387 16.075 31.9637 17.55 32.0387 20.1L34.4137 19.65C33.9887 15.6 31.1137 14.2 27.6887 14.2C24.8887 14.2 21.6387 15.575 21.6387 19.125C21.6387 22.425 24.5137 23.425 27.1387 24.05C29.6637 24.675 32.6137 24.65 32.6137 27.075C32.6137 29.55 30.5137 30.4 28.1387 30.4C25.5137 30.4 23.5887 28.9 23.5137 26.175L21.1137 26.425C21.2137 30.425 24.4637 32.3 28.2137 32.3ZM42.3125 32L44.4125 23.175C44.7875 21.575 45.0875 20.125 45.2875 18.975H45.3375C45.5375 20.075 45.8875 21.675 46.2375 23.15L48.3875 32H50.9875L54.2625 14.5H51.8875L50.3125 25.025C50.0625 26.725 49.8375 28.175 49.7125 29.25H49.6625C49.4375 28.15 49.1625 26.925 48.7125 25.025L46.5875 16.25H44.1125L41.9875 25.025C41.6625 26.425 41.2625 28.175 41.0625 29.25H41.0125C40.8625 28.125 40.7875 27.475 40.3625 25.025L38.7625 14.5H36.3875L39.6625 32H42.3125ZM69.8893 32L63.6643 14.5H61.1893L54.9393 32H57.3143L59.0643 26.775H65.7643L67.5393 32H69.8893ZM61.4893 19.5C61.8643 18.4 62.0893 17.6 62.3893 16.675H62.4143C62.6393 17.425 63.0143 18.575 63.3143 19.5L65.0893 24.775H59.7393L61.4893 19.5ZM74.859 32V24.9H78.184C81.259 24.9 84.909 24.4 84.909 19.8C84.909 15.05 81.259 14.5 78.209 14.5H72.609V32H74.859ZM74.859 16.45H78.209C80.259 16.45 82.709 16.5 82.709 19.8C82.709 22.825 80.259 22.975 78.184 22.975H74.859V16.45Z" fill="black" />
  <defs>
    <linearGradient id="paint0_linear" x1={105} y1={25} x2="50.4379" y2="77.9619" gradientUnits="userSpaceOnUse">
      <stop stopColor="#A2FBB0" />
      <stop offset={1} stopColor="#5EC4D6" />
    </linearGradient>
  </defs>
</svg>
