<svg width="26" height="25" viewBox="0 0 26 25" fill="none" xmlns="http://www.w3.org/2000/svg">
<circle cx="13" cy="12.5" r="12.5" fill="black"/>
<path d="M22.4588 15.6676C16.1568 15.6676 9.85475 15.6676 3.55274 15.6676C3.55274 15.6514 3.55004 15.6379 3.55004 15.6217C3.55274 13.1798 3.55274 10.7378 3.55274 8.29592C3.55274 8.27971 3.55544 8.26621 3.55544 8.25C9.85745 8.25 16.1595 8.25 22.4615 8.25C22.4615 8.26621 22.4642 8.28241 22.4642 8.29862C22.4642 10.7378 22.4642 13.1771 22.4642 15.619C22.4615 15.6352 22.4615 15.6514 22.4588 15.6676ZM13.0071 8.80376C10.0654 8.80376 7.12379 8.80376 4.17943 8.80376C4.1173 8.80376 4.1173 8.80376 4.1173 8.86588C4.1173 10.9269 4.1173 12.988 4.1173 15.049C4.1173 15.1112 4.1173 15.1112 4.17943 15.1112C10.0627 15.1112 15.9488 15.1112 21.8321 15.1112C21.8942 15.1112 21.8942 15.1112 21.8942 15.049C21.8942 12.988 21.8942 10.9269 21.8942 8.86588C21.8942 8.80376 21.8942 8.80376 21.8294 8.80376C18.8904 8.80376 15.9488 8.80376 13.0071 8.80376Z" fill="white"/>
<path d="M5.30308 11.9346C5.30308 11.2836 5.30308 10.6326 5.30308 9.98434C5.30308 9.93031 5.30308 9.92761 5.3571 9.92761C5.50837 9.92761 5.65964 9.92761 5.81091 9.92761C5.86764 9.92761 5.87034 9.92761 5.87034 9.98434C5.87034 10.4165 5.87034 10.8514 5.87034 11.2836C5.87034 11.2998 5.86224 11.3215 5.87844 11.3296C5.89195 11.335 5.90275 11.3161 5.91356 11.3052C6.13776 11.1189 6.39708 11.0108 6.68882 10.9892C7.41005 10.9298 8.08806 11.4079 8.26094 12.1318C8.45813 12.9611 7.93409 13.7796 7.094 13.9444C6.66721 14.0281 6.27823 13.9417 5.93517 13.6715C5.92436 13.6634 5.91356 13.6526 5.90275 13.6445C5.89465 13.6391 5.88655 13.6256 5.87574 13.6283C5.86494 13.6337 5.87034 13.6472 5.87034 13.658C5.87034 13.731 5.87034 13.8039 5.87034 13.8741C5.87034 13.8849 5.87034 13.893 5.87034 13.9038C5.87034 13.9255 5.86224 13.9363 5.83792 13.9363C5.67045 13.9363 5.50297 13.9363 5.33549 13.9363C5.31118 13.9363 5.30308 13.9282 5.30308 13.9038C5.30308 13.8336 5.30308 13.7607 5.30308 13.6904C5.30308 13.107 5.30308 12.5208 5.30308 11.9346ZM7.7288 12.483C7.7288 11.9671 7.31551 11.5403 6.80767 11.5403C6.28093 11.5403 5.87574 11.9589 5.86494 12.4614C5.85413 12.9665 6.24581 13.4203 6.79957 13.4203C7.35332 13.4203 7.7315 12.9611 7.7288 12.483Z" fill="white"/>
<path d="M11.0784 11.3374C11.0865 11.3293 11.0811 11.3158 11.0811 11.3077C11.0811 11.224 11.0811 11.1402 11.0811 11.0592C11.0811 11.0349 11.0892 11.0241 11.1135 11.0241C11.281 11.0241 11.4458 11.0241 11.6133 11.0241C11.6376 11.0241 11.6484 11.0349 11.6484 11.0592C11.6484 11.07 11.6484 11.0808 11.6484 11.0916C11.6484 12.0181 11.6484 12.9447 11.6484 13.8712C11.6484 13.9549 11.6484 13.9387 11.5809 13.9387C11.4296 13.9387 11.2756 13.9387 11.1244 13.9387C11.0919 13.9387 11.0811 13.9306 11.0811 13.8955C11.0838 13.8037 11.0811 13.7145 11.0811 13.6254C11.0676 13.6227 11.0622 13.6308 11.0568 13.6362C10.8407 13.8226 10.5922 13.9333 10.3086 13.963C9.54413 14.0495 8.8418 13.547 8.67973 12.7934C8.53926 12.1397 8.8445 11.4752 9.44148 11.1564C9.68189 11.0295 9.93851 10.9701 10.2086 10.9809C10.522 10.9944 10.8029 11.1051 11.0433 11.3104C11.0514 11.3185 11.0622 11.3266 11.0703 11.332C11.073 11.3374 11.0757 11.3374 11.0784 11.3374ZM11.0838 12.4828C11.0892 11.9857 10.6895 11.5427 10.1519 11.54C9.63867 11.5373 9.22268 11.9614 9.21998 12.4801C9.21727 12.9609 9.59275 13.4174 10.1465 13.4201C10.7057 13.4201 11.0892 12.9663 11.0838 12.4828Z" fill="white"/>
<path d="M12.4047 11.9319C12.4047 11.2836 12.4047 10.6326 12.4047 9.98434C12.4047 9.93031 12.4047 9.92761 12.4614 9.92761C12.6154 9.92761 12.7694 9.92761 12.926 9.92761C12.9747 9.92761 12.9747 9.93031 12.9747 9.97623C12.9747 10.6245 12.9747 11.2701 12.9747 11.9184C12.9747 11.9752 12.9747 11.9752 13.0287 11.9752C13.1719 11.9752 13.315 11.9752 13.4609 11.9752C13.9012 11.9752 14.2551 11.6834 14.3388 11.2512C14.3523 11.1891 14.3604 11.1243 14.3604 11.0621C14.3604 11.0351 14.3712 11.0216 14.4009 11.0216C14.563 11.0216 14.7278 11.0216 14.8899 11.0216C14.9196 11.0216 14.9277 11.0324 14.9277 11.0621C14.9196 11.2944 14.8547 11.5105 14.744 11.7131C14.6224 11.9319 14.4658 12.1156 14.2443 12.2399C14.2118 12.2588 14.2389 12.2642 14.2497 12.2696C14.4306 12.3695 14.5792 12.5019 14.6954 12.6721C14.825 12.8612 14.9007 13.0692 14.9196 13.2961C14.9358 13.4987 14.9223 13.704 14.9277 13.9092C14.9277 13.9309 14.9196 13.939 14.898 13.939C14.7305 13.939 14.563 13.939 14.3955 13.939C14.3631 13.939 14.3604 13.9201 14.3604 13.8984C14.3604 13.7526 14.3604 13.604 14.3604 13.4581C14.3604 13.3501 14.3496 13.2447 14.3172 13.1421C14.2145 12.8098 13.9849 12.6181 13.6473 12.5532C13.5716 12.537 13.4933 12.5343 13.415 12.5343C13.2853 12.5343 13.1557 12.5343 13.026 12.5343C12.9747 12.5343 12.9747 12.5343 12.9747 12.5856C12.9747 13.0178 12.9747 13.4473 12.9747 13.8795C12.9747 13.9417 12.9747 13.9417 12.9125 13.9417C12.7613 13.9417 12.6073 13.9417 12.456 13.9417C12.4074 13.9417 12.4074 13.9417 12.4074 13.893C12.4047 13.2366 12.4047 12.5856 12.4047 11.9319Z" fill="white"/>
<path d="M15.6137 11.9346C15.6137 11.2836 15.6137 10.6326 15.6137 9.98434C15.6137 9.92761 15.6137 9.92761 15.6677 9.92761C15.819 9.92761 15.9729 9.92761 16.1242 9.92761C16.1782 9.92761 16.1782 9.92761 16.1782 9.98434C16.1782 10.6272 16.1782 11.2701 16.1782 11.913C16.1782 11.9752 16.1782 11.9752 16.2404 11.9752C16.3808 11.9752 16.5186 11.9752 16.659 11.9752C17.1075 11.9752 17.4613 11.6807 17.5451 11.2404C17.5559 11.181 17.564 11.1216 17.564 11.0594C17.564 11.0324 17.5748 11.0216 17.6018 11.0216C17.7666 11.0216 17.9313 11.0216 18.0934 11.0216C18.1258 11.0216 18.1312 11.0351 18.1312 11.0621C18.1231 11.2566 18.0772 11.443 17.9935 11.6186C17.8908 11.8374 17.7476 12.0265 17.5532 12.1723C17.5207 12.1967 17.4883 12.2183 17.4532 12.2372C17.4289 12.2507 17.4316 12.2561 17.4532 12.2696C17.5964 12.3479 17.7206 12.4479 17.826 12.5721C17.9935 12.7693 18.088 12.9989 18.1204 13.2555C18.1393 13.4041 18.1285 13.5527 18.1312 13.7013C18.1312 13.7688 18.1312 13.8363 18.1312 13.9011C18.1312 13.9255 18.1231 13.9363 18.0988 13.9363C17.9313 13.9363 17.7666 13.9363 17.5991 13.9363C17.5694 13.9363 17.564 13.9228 17.564 13.8957C17.564 13.7283 17.5694 13.5635 17.5613 13.396C17.5451 13.0665 17.4154 12.799 17.1129 12.637C16.9967 12.5748 16.8697 12.5424 16.7374 12.5343C16.5618 12.5235 16.3889 12.5316 16.2133 12.5289C16.1755 12.5289 16.1782 12.5505 16.1782 12.5748C16.1782 12.8828 16.1782 13.188 16.1782 13.496C16.1782 13.6283 16.1782 13.7607 16.1782 13.8903C16.1782 13.9336 16.1755 13.9363 16.1323 13.9363C15.9729 13.9363 15.8136 13.9363 15.6569 13.9363C15.6137 13.9363 15.611 13.9363 15.611 13.8903C15.6137 13.242 15.6137 12.5883 15.6137 11.9346Z" fill="white"/>
<path d="M19.7278 11.0188C19.7413 11.0269 19.7548 11.0242 19.7683 11.0242C20.0655 11.0242 20.3653 11.0242 20.6624 11.0242C20.7111 11.0242 20.7111 11.0242 20.7111 11.0728C20.7111 11.2268 20.7111 11.3808 20.7111 11.5321C20.7111 11.5807 20.7111 11.5807 20.6624 11.5807C20.4004 11.5807 20.1411 11.5807 19.8791 11.5807C19.8305 11.5807 19.8305 11.5807 19.8305 11.6293C19.8305 12.0264 19.8305 12.4235 19.8305 12.8206C19.8305 12.907 19.8386 12.9961 19.871 13.0772C19.9331 13.2474 20.0601 13.3392 20.2356 13.3689C20.3599 13.3905 20.4869 13.3797 20.6111 13.3824C20.676 13.3851 20.6733 13.3743 20.6733 13.4445C20.6733 13.5958 20.6733 13.7471 20.6733 13.8984C20.6733 13.9308 20.6624 13.9416 20.63 13.9416C20.5166 13.9389 20.4031 13.9443 20.2897 13.9389C20.0439 13.9308 19.8143 13.8713 19.6198 13.712C19.4388 13.5634 19.3388 13.3689 19.2929 13.142C19.274 13.0475 19.2659 12.9529 19.2659 12.8557C19.2659 12.4451 19.2659 12.0372 19.2659 11.6266C19.2659 11.578 19.2659 11.578 19.2173 11.578C19.0255 11.578 18.8337 11.578 18.6419 11.578C18.5933 11.578 18.5933 11.578 18.5933 11.5294C18.5933 11.3781 18.5933 11.2241 18.5933 11.0728C18.5933 11.0242 18.5933 11.0215 18.6446 11.0242C18.7446 11.0269 18.8445 11.0242 18.9391 10.9945C19.1903 10.9189 19.3361 10.746 19.3821 10.4894C19.401 10.3813 19.3929 10.2706 19.3956 10.1598C19.3956 10.1139 19.3956 10.1112 19.4415 10.1112C19.5982 10.1112 19.7548 10.1112 19.9115 10.1112C19.9574 10.1112 19.9574 10.1112 19.9574 10.1571C19.9574 10.2436 19.9601 10.3327 19.9574 10.4191C19.952 10.6434 19.8872 10.8432 19.7332 11.0107C19.7332 11.0107 19.7332 11.0134 19.7278 11.0188Z" fill="white"/>
<path d="M7.93447 13.5874C7.93939 13.5874 7.94247 13.5896 7.9437 13.5941L7.98246 13.5874H8.06C8.16953 13.5874 8.26921 13.6019 8.35906 13.631C8.36152 13.6635 8.3289 13.6847 8.26121 13.6948C8.21445 13.7284 8.18983 13.7502 8.18737 13.7602L8.18922 13.767C8.29506 13.7737 8.34859 13.7809 8.34982 13.7888L8.36459 13.7821L8.39598 13.7888L8.43659 13.7821C8.45259 13.7933 8.50551 13.805 8.59535 13.8173L8.64334 13.8106C8.64458 13.8274 8.73319 13.8442 8.90917 13.8609L8.92764 13.8811L8.92948 13.8962C8.93071 13.9163 8.89564 13.9353 8.82426 13.9532L8.82241 13.9465C8.69196 14.0137 8.60519 14.0472 8.56212 14.0472C8.51412 14.0372 8.4852 14.0321 8.47536 14.0321C8.45813 14.0657 8.44643 14.0825 8.44028 14.0825H8.4089L8.35352 14.0758V14.0825L8.3369 14.0758H8.32952L8.33875 14.0892C8.32521 14.0892 8.31906 14.1015 8.32029 14.1261C8.34121 14.1261 8.35167 14.1283 8.35167 14.1328L8.41997 14.1194L8.43843 14.1261C8.44582 14.1216 8.45566 14.1194 8.46797 14.1194L8.48459 14.1261C8.48336 14.1216 8.48582 14.1194 8.49197 14.1194C8.4932 14.1239 8.49628 14.1261 8.5012 14.1261L8.49935 14.1194L8.57135 14.1328L8.6655 14.1194L8.66734 14.1261L8.68027 14.1194C8.69257 14.1239 8.70119 14.1261 8.70611 14.1261L8.70426 14.1194C8.78918 14.1194 8.83349 14.1384 8.83718 14.1765L8.76888 14.2117V14.205C8.75288 14.2095 8.74488 14.2139 8.74488 14.2184C8.73995 14.2184 8.73749 14.2162 8.73749 14.2117C8.72888 14.2117 8.70057 14.219 8.65258 14.2335V14.2268C8.60335 14.238 8.56704 14.2475 8.54366 14.2553C8.54366 14.2509 8.5412 14.2486 8.53627 14.2486C8.49443 14.2799 8.44336 14.3012 8.38305 14.3124C8.34859 14.3448 8.24029 14.3952 8.05815 14.4634L8.06 14.4702C8.06246 14.4802 8.068 14.4853 8.07661 14.4853H8.13199C8.15784 14.4853 8.17076 14.4802 8.17076 14.4702C8.19537 14.4791 8.20953 14.4886 8.21322 14.4987L8.21506 14.5138C8.21876 14.5518 8.19476 14.5759 8.14307 14.586L8.14122 14.5776L8.08769 14.5927V14.586C8.07907 14.586 8.01015 14.6167 7.88093 14.6783H7.84955C7.81878 14.6783 7.79171 14.671 7.76832 14.6564H7.75355C7.72894 14.7381 7.68833 14.7789 7.63171 14.7789C7.50741 14.8237 7.40404 14.8741 7.32158 14.93C7.30435 14.93 7.27543 14.9585 7.23482 15.0156C7.22866 15.0156 7.20343 15.0251 7.15913 15.0441V15.0374C7.12098 15.0598 7.05452 15.1079 6.95976 15.1817H6.92837C6.9173 15.1817 6.91114 15.1767 6.90991 15.1666L6.90807 15.1599C6.95976 15.0883 7.01452 15.0212 7.07236 14.9585L7.14251 14.8578C6.91484 14.9876 6.74562 15.0928 6.63485 15.1733C6.58439 15.2617 6.50625 15.3266 6.40041 15.368L6.40225 15.3747C6.40225 15.3803 6.40471 15.3831 6.40964 15.3831C6.41456 15.4346 6.35487 15.4726 6.23057 15.4972C6.12227 15.5655 6.03981 15.6326 5.9832 15.6986C5.91797 15.7467 5.87798 15.7993 5.86321 15.8564C5.83244 15.8788 5.81213 15.9123 5.80229 15.9571C5.79367 15.9571 5.78629 15.9644 5.78014 15.9789C5.7826 15.9879 5.78814 15.9923 5.79675 15.9923H5.81337C5.85767 15.9923 5.98997 15.9515 6.21026 15.8698C6.29272 15.8463 6.40102 15.82 6.53517 15.7909L6.53701 15.7993C6.60716 15.7881 6.66131 15.7758 6.69946 15.7624V15.7708C6.8373 15.7372 7.04652 15.6942 7.32712 15.6416C7.32589 15.636 7.32835 15.6332 7.3345 15.6332L7.33635 15.6416C7.4225 15.617 7.52034 15.5974 7.62987 15.5828L7.62802 15.5761C7.61202 15.5761 7.59049 15.5716 7.56341 15.5627C7.55849 15.5627 7.55664 15.5649 7.55787 15.5694C7.52711 15.5649 7.50557 15.5627 7.49326 15.5627C7.45019 15.5627 7.40588 15.5672 7.36035 15.5761V15.5694C7.17205 15.5884 7.02129 15.6097 6.90807 15.6332V15.6265C6.82438 15.6556 6.75977 15.6701 6.71423 15.6701L6.70316 15.655V15.6483C6.70193 15.6337 6.88161 15.5834 7.2422 15.4972V15.504L7.52834 15.4335V15.4402C7.68463 15.4021 7.80094 15.3781 7.87724 15.368V15.3613L7.89201 15.368C7.90185 15.368 7.91785 15.363 7.94 15.3529V15.3613C7.96093 15.3524 7.99477 15.3451 8.04154 15.3395V15.3462L8.51781 15.2824V15.2891L8.53258 15.2824H8.67473L8.72088 15.274C8.73072 15.2785 8.76826 15.2835 8.83349 15.2891C8.85441 15.2847 8.87287 15.2824 8.88887 15.2824C8.89379 15.2824 8.89625 15.2847 8.89625 15.2891L8.93502 15.2824H8.98302L9.02178 15.2891V15.2824L9.10301 15.3042V15.2959C9.20516 15.316 9.27469 15.3328 9.31161 15.3462V15.3395C9.42976 15.3686 9.53252 15.4212 9.6199 15.4972C9.6839 15.5979 9.72697 15.66 9.74912 15.6835C9.76635 15.7171 9.78974 15.7462 9.81927 15.7708C9.84019 15.8144 9.85373 15.8693 9.85989 15.9353V15.942C9.86112 15.9532 9.85927 15.9627 9.85435 15.9705C9.86173 15.9806 9.86542 15.9879 9.86542 15.9923C9.85927 15.9923 9.85619 15.9946 9.85619 15.999H9.86542C9.83343 16.1769 9.80204 16.2659 9.77128 16.2659C9.77251 16.2782 9.74482 16.3162 9.6882 16.38C9.68451 16.4024 9.64021 16.4622 9.55529 16.5596L9.53498 16.5881C9.53744 16.6161 9.50483 16.6592 9.43714 16.7173C9.35346 16.7845 9.31223 16.8275 9.31346 16.8466C9.24823 16.9137 9.21562 16.9501 9.21562 16.9556C9.12947 17.0653 9.04578 17.1559 8.96456 17.2275C8.96579 17.2354 8.95348 17.2471 8.92764 17.2628C8.88456 17.303 8.82549 17.3439 8.75042 17.3853C8.66427 17.4558 8.59535 17.5039 8.54366 17.5296C8.54366 17.524 8.5412 17.5212 8.53627 17.5212C8.46736 17.576 8.40521 17.6169 8.34982 17.6437C8.34982 17.6493 8.33198 17.6588 8.29629 17.6723C8.28644 17.6678 8.27598 17.6655 8.26491 17.6655L8.26306 17.6504C8.39474 17.5676 8.49812 17.496 8.5732 17.4356C8.76026 17.2566 8.86364 17.1537 8.88333 17.1268C8.97686 17.0552 9.04332 16.9814 9.0827 16.9053H9.07532C8.92764 17.0071 8.85379 17.0619 8.85379 17.0698C8.81318 17.119 8.75903 17.1548 8.69134 17.1772C8.59781 17.2533 8.48397 17.3249 8.34982 17.392C8.29814 17.4435 8.23845 17.4821 8.17076 17.5078C8.17199 17.519 8.13261 17.5548 8.05261 17.6152C7.98615 17.6465 7.90062 17.7064 7.79601 17.7948L7.64648 17.8888C7.6231 17.919 7.58433 17.9497 7.53018 17.9811V17.9895L7.74986 17.8955C7.77201 17.8888 7.84709 17.853 7.97508 17.7881C7.996 17.7881 8.00646 17.7858 8.00646 17.7813C8.02369 17.7858 8.03538 17.7953 8.04154 17.8099C7.97016 17.8602 7.83539 17.9413 7.63725 18.0532C7.63725 18.0487 7.63479 18.0465 7.62987 18.0465C7.62002 18.0689 7.54187 18.1097 7.39542 18.169C7.3142 18.2171 7.15667 18.296 6.92284 18.4057C6.9216 18.4001 6.91853 18.3973 6.91361 18.3973C6.77208 18.4924 6.64901 18.5573 6.5444 18.5919L6.52594 18.5701C6.52963 18.5601 6.59424 18.5147 6.71977 18.4342L6.77884 18.3838H6.77146C6.76038 18.3838 6.72469 18.3984 6.66439 18.4275L6.58316 18.4057H6.54255C6.46009 18.4124 6.4041 18.4336 6.37456 18.4694C6.34379 18.5153 6.26995 18.5657 6.15304 18.6205C6.12227 18.6507 6.02197 18.7033 5.85213 18.7782L5.62876 18.9293L5.61399 18.9226C5.57092 18.9349 5.50015 18.9684 5.4017 19.0233C5.3094 19.068 5.19248 19.1133 5.05095 19.1592C4.98942 19.1827 4.8282 19.2302 4.56729 19.3018C4.56852 19.3074 4.56667 19.3102 4.56175 19.3102C4.56052 19.3046 4.55683 19.3018 4.55067 19.3018C4.5519 19.3153 4.50698 19.3371 4.41591 19.3673L4.3993 19.3606L4.38453 19.3673C4.37099 19.3651 4.3593 19.3533 4.34946 19.3321L4.6799 19.1592C4.73774 19.1144 4.83496 19.0568 4.97157 18.9863C4.97649 18.9863 4.98142 18.9791 4.98634 18.9645L5.02511 18.9729C5.03003 18.9729 5.03249 18.9701 5.03249 18.9645C5.04357 18.9701 5.06818 18.9751 5.10633 18.9796C5.15925 18.9796 5.18263 18.9533 5.17648 18.9007C5.22817 18.8907 5.25278 18.8717 5.25032 18.8437L5.24109 18.8286L5.23925 18.8219C5.23925 18.8174 5.24171 18.8152 5.24663 18.8152L5.2374 18.8V18.7933C5.36785 18.7419 5.50569 18.6697 5.65091 18.5768C5.6706 18.5768 5.69091 18.5651 5.71183 18.5416L5.70999 18.5349L5.54384 18.5987L5.542 18.5919C5.51246 18.5919 5.41585 18.63 5.25217 18.7061C5.23863 18.7195 5.1931 18.734 5.11556 18.7497C5.08849 18.7698 5.00172 18.7984 4.85527 18.8353C4.84542 18.842 4.8405 18.8493 4.8405 18.8571L4.82389 18.8504C4.79681 18.8504 4.68174 18.884 4.47868 18.9511L4.46206 18.9578V18.9511C4.3673 18.9802 4.25038 19.021 4.11132 19.0736H4.07809L4.07624 19.0518C4.07993 19.0417 4.18762 18.9841 4.3993 18.8789C4.42268 18.8722 4.45776 18.8532 4.50452 18.8219C4.50575 18.8263 4.50945 18.8286 4.5156 18.8286L4.73159 18.6994V18.6926C4.56052 18.7687 4.307 18.8498 3.97102 18.936C3.8861 18.9651 3.69596 19.0154 3.40059 19.087C3.28367 19.1307 3.15691 19.1715 3.02031 19.2095L3 19.1877V19.181C3 19.1754 3.08307 19.1346 3.24922 19.0585C3.46459 18.9533 3.6215 18.889 3.71996 18.8655C3.71873 18.8532 3.76672 18.8291 3.86395 18.7933V18.8C3.93656 18.7945 3.98517 18.7827 4.00978 18.7648C4.00855 18.7503 4.00117 18.7307 3.98763 18.7061L4.07993 18.6641C4.08978 18.6686 4.09778 18.6708 4.10393 18.6708C4.20116 18.6395 4.24792 18.6037 4.24423 18.5634L4.24239 18.5483C4.23008 18.5483 4.14639 18.5774 3.99132 18.6356L3.89718 18.6557C3.89594 18.6512 3.89287 18.649 3.88795 18.649C3.87318 18.6669 3.82826 18.691 3.75318 18.7212C3.73226 18.7145 3.72119 18.7072 3.71996 18.6994L3.71811 18.6859C3.92733 18.5752 4.15378 18.4622 4.39745 18.3469C4.39745 18.3525 4.39991 18.3553 4.40484 18.3553C4.40976 18.3441 4.50329 18.2982 4.68543 18.2177C4.71989 18.1942 4.84481 18.1226 5.06018 18.0029H5.08233C5.09341 18.004 5.09895 18.009 5.09895 18.018L5.10079 18.0247C5.08479 18.0247 4.99926 18.0963 4.84419 18.2395V18.2479H4.85158C4.85404 18.2412 4.94511 18.1981 5.12479 18.1187C5.27986 18.0482 5.42816 17.9715 5.56969 17.8888C5.7186 17.816 5.83613 17.7534 5.92228 17.7008H5.92967L5.92782 17.6807C5.71491 17.7567 5.60292 17.7948 5.59184 17.7948C5.59184 17.7992 5.58446 17.8043 5.56969 17.8099C5.56846 17.8043 5.56538 17.8015 5.56046 17.8015C5.56169 17.8127 5.49339 17.8418 5.35555 17.8888H5.34816C5.33832 17.8888 5.33278 17.8837 5.33155 17.8737V17.8669C5.33401 17.8513 5.3857 17.8227 5.48662 17.7813C5.51492 17.7579 5.56784 17.7288 5.64538 17.6941C5.81644 17.5911 5.9469 17.5218 6.03674 17.486C6.09827 17.4502 6.15488 17.4144 6.20657 17.3786C6.25703 17.3786 6.46379 17.2589 6.82684 17.0194C6.82684 17.0138 6.86192 16.9898 6.93207 16.9473C6.95299 16.9551 6.96406 16.9624 6.96529 16.9691C6.96653 16.9791 6.91545 17.0273 6.81207 17.1134L6.5444 17.3567H6.56101C6.5684 17.3567 6.65085 17.3114 6.80838 17.2208C6.91176 17.1582 6.96899 17.1268 6.98006 17.1268C7.01575 17.1414 7.04837 17.1486 7.0779 17.1486C7.15051 17.1486 7.18436 17.1201 7.17944 17.0631C7.22128 17.0519 7.2422 17.0446 7.2422 17.0412C7.29266 17.0558 7.3222 17.0631 7.33081 17.0631H7.41019L7.40465 17.0194C7.41327 17.0071 7.41757 16.9998 7.41757 16.9976H7.41019L7.42127 16.9473H7.41388C7.41019 16.9159 7.43111 16.8852 7.47665 16.855C7.62556 16.7554 7.76032 16.6787 7.88093 16.625C8.06677 16.5042 8.16399 16.4203 8.1726 16.3733C8.17507 16.3576 8.17568 16.3408 8.17445 16.3229C8.14861 16.3185 8.13507 16.3134 8.13384 16.3078C7.84462 16.3828 7.61018 16.4667 7.4305 16.5596C7.34312 16.611 7.22251 16.6636 7.06867 16.7173C6.97268 16.7688 6.80223 16.8337 6.55732 16.912L6.55547 16.9053L6.54071 16.912C6.53086 16.912 6.52532 16.9047 6.52409 16.8902C6.52286 16.8779 6.56224 16.8516 6.64224 16.8113C6.785 16.7285 6.90561 16.6424 7.00406 16.5529H6.98745C6.77454 16.6524 6.56717 16.7364 6.36533 16.8046C6.36656 16.8124 6.27241 16.8505 6.08289 16.9187C5.75552 17.0094 5.53338 17.0547 5.41647 17.0547C5.18263 17.0547 5.00418 16.9758 4.88111 16.818H4.89035C4.86942 16.7934 4.84419 16.7554 4.81466 16.7039H4.80727L4.80912 16.7257C4.81404 16.7257 4.8165 16.728 4.8165 16.7324H4.80912C4.8325 16.8085 4.86881 16.8801 4.91804 16.9473C4.92911 16.9473 4.93588 16.9596 4.93834 16.9842V16.9976L4.89958 17.0043C4.7642 16.9115 4.66021 16.7632 4.58759 16.5596L4.58206 16.4958L4.57283 16.4807H4.58021C4.5679 16.4594 4.5599 16.4287 4.55621 16.3884C4.54144 16.2362 4.54637 16.126 4.57098 16.0578C4.57098 16.0522 4.56852 16.0494 4.5636 16.0494L4.59129 15.9353H4.5839L4.77035 15.4905C4.87127 15.3305 4.95496 15.2153 5.02141 15.1448C5.02018 15.1336 5.05526 15.0883 5.12664 15.0089C5.15864 14.982 5.20294 14.9294 5.25955 14.8511C5.27063 14.8511 5.34078 14.7862 5.47 14.6564L5.52354 14.6279C5.53461 14.6335 5.54261 14.6363 5.54754 14.6363L5.54938 14.6564L5.40908 14.8226C5.34139 14.9222 5.29094 15.0061 5.25771 15.0743C5.27001 15.0743 5.30694 15.0408 5.36847 14.9736C5.55307 14.8024 5.75552 14.6346 5.97582 14.4702C6.11981 14.3549 6.28595 14.2548 6.47425 14.1697C6.59855 14.0903 6.68408 14.0495 6.73085 14.0472C6.73085 14.0372 6.72531 14.0321 6.71423 14.0321C6.51363 14.0802 6.29457 14.1591 6.05704 14.2688C5.94874 14.365 5.88044 14.4131 5.85213 14.4131C5.84475 14.4041 5.84044 14.3969 5.83921 14.3913C5.84413 14.3723 5.89767 14.3269 5.99982 14.2553C6.46748 13.9835 6.74192 13.847 6.82315 13.8458C7.06067 13.7362 7.22066 13.6814 7.30312 13.6814C7.37081 13.6545 7.50803 13.6282 7.71479 13.6025C7.71971 13.6025 7.72279 13.6047 7.72402 13.6092C7.76955 13.5991 7.83232 13.5941 7.91231 13.5941H7.92893C7.93385 13.5941 7.9357 13.5919 7.93447 13.5874ZM9.15101 13.824C9.22608 13.8374 9.26485 13.8593 9.26731 13.8895L9.271 13.918L9.23408 13.9532C9.12701 13.9353 9.07286 13.9163 9.07163 13.8962L9.06793 13.8744C9.09132 13.8408 9.11901 13.824 9.15101 13.824Z" fill="url(#paint0_linear)"/>
<path d="M13.3489 13.0252H13.659C13.7563 13.0252 13.8258 13.0319 13.8676 13.0453V13.0386C14.0055 13.0476 14.155 13.0677 14.3162 13.099L14.331 13.0923C14.3593 13.0923 14.3888 13.0968 14.4196 13.1057V13.099C14.571 13.1303 14.6768 13.155 14.7371 13.1729C14.8479 13.2143 14.9605 13.2859 15.0749 13.3877C15.198 13.4895 15.2614 13.5566 15.2651 13.5891C15.286 13.6003 15.3076 13.6495 15.3297 13.7368H15.3223C15.3334 13.7614 15.3463 13.8151 15.3611 13.8979H15.3537C15.3537 13.9023 15.3562 13.9046 15.3611 13.9046C15.3734 14.0299 15.3506 14.1753 15.2928 14.3409C15.2854 14.3409 15.2516 14.3969 15.1912 14.5088C15.1408 14.5871 15.0965 14.6385 15.0583 14.6632C15.0362 14.6911 14.9593 14.7404 14.8276 14.8108C14.8288 14.8231 14.7919 14.85 14.7168 14.8914C14.6417 14.9518 14.427 15.095 14.0725 15.321C13.8153 15.4553 13.5864 15.5851 13.3858 15.7104C13.296 15.7652 13.1951 15.8167 13.0831 15.8648C13.0843 15.8749 13.0566 15.8905 13 15.9118C12.9299 15.9554 12.8326 15.9957 12.7083 16.0326C12.5459 16.1042 12.3988 16.1646 12.2671 16.2139C12.1613 16.2564 12.0505 16.3056 11.9348 16.3615C11.9004 16.3649 11.8838 16.3716 11.885 16.3817C11.8788 16.3772 11.8616 16.375 11.8333 16.375C11.8382 16.3683 11.9373 16.3235 12.1305 16.2407L12.1213 16.2273C12.3403 16.1064 12.5071 16.0237 12.6216 15.9789C12.6216 15.9711 12.6431 15.9621 12.6862 15.952L12.6917 15.9386H12.6843L12.0936 16.1602L11.6155 16.3481C11.597 16.3481 11.4684 16.3929 11.2296 16.4824V16.4757C11.1989 16.4891 11.1201 16.5159 10.9934 16.5562L10.9952 16.5629H11.0026C11.0432 16.5585 11.077 16.5562 11.1041 16.5562H11.1189L11.1337 16.5495V16.5562L11.1484 16.5495H11.1706C11.1755 16.5495 11.178 16.5517 11.178 16.5562L11.1927 16.5495C11.2604 16.5495 11.3336 16.5406 11.4124 16.5227V16.5294C11.4321 16.526 11.4413 16.5215 11.4401 16.5159C11.445 16.5159 11.4481 16.5182 11.4493 16.5227L11.4992 16.5159H11.5139C11.5213 16.5159 11.5299 16.5249 11.5398 16.5428C11.4081 16.592 11.2641 16.6345 11.1078 16.6703L11.0229 16.7039V16.6972C10.7189 16.8046 10.3417 16.9254 9.89127 17.0597C9.88142 17.0731 9.86481 17.0798 9.84142 17.0798L9.83773 17.053C9.76758 17.053 9.71897 17.0843 9.6919 17.147C9.68205 17.147 9.67159 17.1671 9.66051 17.2074C9.62359 17.2533 9.59898 17.3002 9.58667 17.3484C9.56083 17.3786 9.52883 17.4323 9.49068 17.5095C9.37992 17.6426 9.28823 17.7881 9.21562 17.9458C9.17624 17.9615 9.10916 18.0846 9.0144 18.315C8.99963 18.3184 8.98855 18.3341 8.98117 18.362C8.98609 18.362 8.98917 18.3643 8.9904 18.3687L8.93317 18.4694H8.92579L9.01255 18.1472C9.05317 18.0521 9.08024 17.976 9.09378 17.919C9.09378 17.9134 9.10609 17.8865 9.1307 17.8384L9.12885 17.8116C9.00578 17.9201 8.94794 18.0118 8.95533 18.0868L8.90179 18.2143C8.89564 18.2457 8.88702 18.2613 8.87595 18.2613L8.88518 18.2748C8.86795 18.324 8.85072 18.3486 8.83349 18.3486L8.84087 18.362C8.78549 18.4426 8.73811 18.5366 8.69873 18.644C8.66057 18.7905 8.62919 18.8711 8.60458 18.8856H8.59719C8.58735 18.8856 8.58181 18.8812 8.58058 18.8722C8.57935 18.8588 8.61442 18.7133 8.6858 18.4359C8.68088 18.428 8.6778 18.4191 8.67657 18.409C8.6815 18.3777 8.68703 18.362 8.69319 18.362L8.6858 18.3486C8.68334 18.3251 8.69996 18.2938 8.73565 18.2546C8.72949 18.2457 8.72642 18.239 8.72642 18.2345C8.69811 18.2345 8.67657 18.268 8.66181 18.3352C8.66673 18.3352 8.66919 18.3374 8.66919 18.3419C8.66057 18.3419 8.6495 18.3553 8.63596 18.3822L8.47905 18.4359C8.51966 18.4952 8.54058 18.5332 8.54181 18.55L8.54366 18.5634C8.53012 18.6339 8.46736 18.748 8.35536 18.9058C8.35536 18.9147 8.32952 18.955 8.27783 19.0266C8.1966 19.1698 8.1363 19.2862 8.09692 19.3757C8.06 19.4518 8.00523 19.548 7.93262 19.6643C7.83293 19.8803 7.77263 19.9922 7.75171 20C7.7394 20 7.73079 19.991 7.72586 19.9731C7.75294 19.8881 7.8157 19.7181 7.91416 19.463H7.90677C7.94616 19.3623 7.97262 19.2817 7.98615 19.2213C8.02061 19.1799 8.04646 19.1172 8.06369 19.0333C8.08953 18.9897 8.12953 18.8666 8.18368 18.6641V18.6574H8.1763C8.068 18.8062 7.98062 18.9494 7.91416 19.087C7.90924 19.1318 7.89939 19.1542 7.88462 19.1542H7.86985C7.86001 19.1542 7.85447 19.1474 7.85324 19.134C7.88155 19.0289 7.92339 18.9259 7.97877 18.8252C8.11784 18.4806 8.18676 18.3061 8.18553 18.3016V18.2949H8.17814C8.1806 18.3173 8.15168 18.3508 8.09138 18.3956C8.036 18.4526 7.99231 18.5354 7.96031 18.644C7.9357 18.6798 7.92031 18.6977 7.91416 18.6977C7.90677 18.6977 7.89878 18.691 7.89016 18.6775L7.88831 18.6574C7.91908 18.5657 7.97446 18.4247 8.05446 18.2345C8.068 18.1707 8.1043 18.0879 8.16337 17.9861C8.17691 17.9861 8.18737 17.9436 8.19476 17.8585C8.19353 17.8496 8.22983 17.7668 8.30367 17.6102C8.30121 17.5878 8.33013 17.5318 8.39044 17.4423C8.4089 17.3741 8.43597 17.2935 8.47166 17.2007L8.46243 17.1872L8.45874 17.1537C8.46859 17.1537 8.47351 17.1514 8.47351 17.147C8.50428 17.1548 8.52089 17.1705 8.52335 17.194H8.53812C8.56273 17.194 8.5855 17.1268 8.60642 16.9926V16.9859C8.5252 16.9747 8.46674 16.9568 8.43105 16.9322C8.38675 16.9344 8.36521 16.9389 8.36644 16.9456C8.30614 16.9355 8.27475 16.9198 8.27229 16.8986L8.27783 16.8852H8.27044C8.27044 16.8751 8.30306 16.855 8.36829 16.8247L8.37567 16.8113L8.35906 16.8046H8.34429C8.33936 16.8046 8.33752 16.8068 8.33875 16.8113C8.25629 16.7968 8.21076 16.7878 8.20214 16.7845L8.18922 16.7912H8.18184C8.17076 16.7912 8.1603 16.7889 8.15045 16.7845C8.14307 16.7889 8.13384 16.7912 8.12276 16.7912H8.10799C8.10307 16.7912 8.09999 16.7889 8.09876 16.7845L8.08584 16.7912H7.98246L7.96769 16.7979V16.7912L7.90862 16.8046C7.9037 16.8046 7.90124 16.8024 7.90124 16.7979C7.76094 16.8035 7.68279 16.8124 7.66679 16.8247C7.65941 16.8203 7.64464 16.818 7.62248 16.818C7.62002 16.7878 7.64525 16.7699 7.69817 16.7643C7.82124 16.733 8.01754 16.6972 8.28706 16.6569L8.34244 16.6301L8.35721 16.6368H8.36459C8.37444 16.6368 8.37936 16.6323 8.37936 16.6234C8.30798 16.6189 8.24522 16.6099 8.19107 16.5965H8.1763C8.16276 16.5965 8.13199 16.6099 8.08399 16.6368C7.99662 16.6144 7.93693 16.6032 7.90493 16.6032C7.89878 16.6211 7.84893 16.6435 7.7554 16.6703C7.70617 16.6659 7.68156 16.6614 7.68156 16.6569L7.66679 16.6636H7.39358C7.38865 16.6636 7.38619 16.6614 7.38619 16.6569L7.37142 16.6636H7.2902C7.27912 16.6636 7.26928 16.6659 7.26066 16.6703C7.25574 16.6703 7.25328 16.6681 7.25328 16.6636C7.20282 16.6692 7.1739 16.6737 7.16651 16.6771L7.16467 16.6703L7.15174 16.6771H6.96714L6.96529 16.6569C6.96283 16.639 7.03729 16.6256 7.18867 16.6166C7.29327 16.5898 7.39727 16.5674 7.50065 16.5495V16.5562C7.71479 16.5159 7.86678 16.4846 7.95662 16.4622C8.09569 16.422 8.25014 16.3862 8.41997 16.3548C8.41997 16.3593 8.42244 16.3615 8.42736 16.3615L8.4329 16.3481H8.38121L8.32952 16.3414V16.3481L8.31475 16.3414H8.30737C8.30244 16.3414 8.29998 16.3436 8.29998 16.3481L8.28521 16.3414H8.12276C8.11784 16.3414 8.11538 16.3392 8.11538 16.3347C8.11045 16.3347 8.10799 16.3369 8.10799 16.3414L8.07107 16.3347C8.06615 16.3347 8.06369 16.3369 8.06369 16.3414L8.04892 16.3347H7.99723L7.99538 16.3146C7.99415 16.3022 8.05877 16.2821 8.18922 16.2541C8.33321 16.2195 8.41936 16.1948 8.44766 16.1803V16.187C8.59043 16.1602 8.67473 16.1423 8.70057 16.1333L8.70242 16.14L8.7818 16.1199V16.1266L8.8741 16.0997L8.87595 16.1064L9.06978 16.0527L9.18054 15.8312C9.19408 15.8211 9.24269 15.7339 9.32638 15.5694C9.33253 15.5638 9.35038 15.5191 9.37992 15.4351C9.4033 15.4061 9.4396 15.3255 9.48883 15.1935C9.51591 15.1935 9.54237 15.1599 9.56821 15.0928C9.69743 15.0491 9.75835 14.991 9.75097 14.9182L9.7362 14.9115L9.58483 14.9585V14.9518L9.57006 14.9585L9.55529 14.9518V14.9585C9.50114 14.9585 9.47283 14.9429 9.47037 14.9115L9.46852 14.8981C9.46729 14.8847 9.51898 14.8623 9.62359 14.831C9.63467 14.8231 9.68451 14.8008 9.77312 14.7638V14.7706C9.88388 14.7169 9.94911 14.6766 9.9688 14.6497H9.93927L9.89496 14.6564L9.88019 14.6497L9.83035 14.6632C9.81927 14.6587 9.81127 14.6564 9.80635 14.6564C9.79774 14.6609 9.79097 14.6632 9.78604 14.6632C9.78481 14.6587 9.78174 14.6564 9.77681 14.6564C9.77804 14.6609 9.7762 14.6632 9.77128 14.6632L9.76943 14.6564L9.75651 14.6632L9.70297 14.6564C9.7042 14.6609 9.70236 14.6632 9.69743 14.6632L9.69559 14.6564C9.65251 14.6609 9.63098 14.6654 9.63098 14.6699C9.62605 14.6699 9.62359 14.6676 9.62359 14.6632C9.35899 14.7079 9.22546 14.7303 9.223 14.7303L9.21377 14.7169L9.21193 14.69L9.41868 14.6094V14.6162L9.6199 14.5557V14.549C9.62482 14.549 9.62728 14.5513 9.62728 14.5557L9.64205 14.549L9.65682 14.5557C9.65682 14.5468 9.66113 14.5423 9.66974 14.5423C9.67097 14.5468 9.67405 14.549 9.67897 14.549L9.68451 14.5356L9.69928 14.5423C9.7522 14.53 9.77866 14.5188 9.77866 14.5088C9.77743 14.5009 9.75405 14.4942 9.70851 14.4886L9.71036 14.4953C9.69928 14.4908 9.67159 14.4864 9.62728 14.4819V14.4886L9.59036 14.4752V14.4819C9.58544 14.4819 9.58298 14.4797 9.58298 14.4752C9.5436 14.4752 9.47591 14.4908 9.37992 14.5222C9.36638 14.5222 9.35161 14.5177 9.33561 14.5088L9.29131 14.5155L9.23962 14.5088C9.199 14.5446 9.16577 14.5625 9.13993 14.5625C9.12147 14.5625 9.08824 14.549 9.04024 14.5222H9.01809C8.94425 14.5938 8.86918 14.6318 8.79287 14.6363C8.77195 14.6363 8.74795 14.6408 8.72088 14.6497C8.72088 14.6452 8.71842 14.643 8.71349 14.643C8.71349 14.6475 8.71103 14.6497 8.70611 14.6497V14.643C8.64334 14.6609 8.52458 14.6855 8.34982 14.7169V14.7101C8.25137 14.737 8.12584 14.7638 7.97323 14.7907C7.95723 14.8041 7.93323 14.8108 7.90124 14.8108H7.88647C7.88647 14.8064 7.88339 14.7996 7.87724 14.7907C7.87478 14.7594 8.04277 14.6878 8.38121 14.5759C8.65073 14.4729 8.87287 14.4036 9.04763 14.3678C9.06117 14.3678 9.1307 14.3454 9.25623 14.3006C9.45929 14.2682 9.5596 14.2369 9.55714 14.2067C9.56206 14.2067 9.5639 14.2044 9.56267 14.2C9.56267 14.191 9.55775 14.1865 9.5479 14.1865H9.48145L9.46668 14.1932V14.1865C9.223 14.2089 9.07163 14.2246 9.01255 14.2335H9.00517V14.2268C8.98179 14.2358 8.96517 14.2402 8.95533 14.2402C8.94425 14.2358 8.93625 14.2335 8.93133 14.2335C8.93256 14.238 8.93071 14.2402 8.92579 14.2402L8.90733 14.2134C8.91594 14.2 8.97379 14.1843 9.08086 14.1664C9.16085 14.1362 9.23962 14.1138 9.31715 14.0993C9.33192 14.0869 9.39161 14.069 9.49622 14.0456C9.55775 14.0142 9.60329 13.9963 9.63282 13.9918L9.66974 14.0053V13.9986L9.68451 14.0053H9.6919C9.75466 13.9516 9.81866 13.9247 9.88388 13.9247C9.88388 13.9202 9.88635 13.918 9.89127 13.918C9.89619 13.918 9.89865 13.9202 9.89865 13.9247C9.99095 13.9068 10.0359 13.8889 10.0334 13.871C10.0039 13.8665 9.98911 13.8621 9.98911 13.8576L9.97434 13.8643C9.96942 13.8643 9.96696 13.8621 9.96696 13.8576L9.93004 13.871C9.92511 13.871 9.92265 13.8688 9.92265 13.8643C9.83035 13.8867 9.74543 13.9001 9.6679 13.9046C9.63713 13.8956 9.62175 13.8867 9.62175 13.8777L9.6199 13.871C9.62605 13.852 9.71405 13.8184 9.88388 13.7703C9.88388 13.7658 9.88635 13.7636 9.89127 13.7636V13.7703C9.91219 13.7647 9.93557 13.7535 9.96142 13.7368L9.96326 13.7435C10.0199 13.7177 10.1183 13.6954 10.2586 13.6763C10.3202 13.6405 10.4186 13.6159 10.554 13.6025C10.6931 13.5577 10.954 13.5018 11.3367 13.4347C11.3663 13.4347 11.5066 13.4123 11.7576 13.3675C11.7662 13.372 11.7785 13.3743 11.7945 13.3743L11.7982 13.4078C11.7145 13.4235 11.6093 13.457 11.4826 13.5085C11.469 13.5242 11.4149 13.5443 11.3201 13.5689C11.2709 13.5801 11.2469 13.5891 11.2481 13.5958H11.2555C11.3835 13.5734 11.5342 13.5309 11.7078 13.4682L11.7096 13.4749C11.7207 13.4749 11.8641 13.4347 12.1397 13.3541L12.1416 13.3608C12.2844 13.3071 12.5773 13.2557 13.0203 13.2064C13.0191 13.1975 13.0135 13.193 13.0037 13.193L12.9889 13.1997C12.9889 13.1952 12.9865 13.193 12.9815 13.193C12.9815 13.1975 12.9791 13.1997 12.9742 13.1997C12.9742 13.1952 12.9717 13.193 12.9668 13.193V13.1997C12.936 13.1908 12.9163 13.1863 12.9077 13.1863V13.193L12.8929 13.1863H12.8634L12.8265 13.193C12.8265 13.1885 12.824 13.1863 12.8191 13.1863C12.8191 13.1964 12.7656 13.2053 12.6585 13.2131V13.2064C12.5416 13.2199 12.3551 13.2512 12.0991 13.3004C12.0881 13.2959 12.0801 13.2937 12.0751 13.2937L12.0733 13.2668C12.2505 13.1997 12.4394 13.146 12.64 13.1057C12.9748 13.052 13.2111 13.0252 13.3489 13.0252ZM13.4283 14.0791H13.3914C13.0049 14.1015 12.8123 14.1194 12.8135 14.1328C12.8049 14.1283 12.7951 14.1261 12.784 14.1261C12.784 14.1328 12.7379 14.144 12.6456 14.1597C12.6406 14.1597 12.6382 14.1574 12.6382 14.153L12.3853 14.2134V14.2067C12.3607 14.2156 12.3004 14.2313 12.2044 14.2537C12.1662 14.266 12.1477 14.2749 12.149 14.2805H12.1564C12.2339 14.2716 12.2917 14.2626 12.3299 14.2537L12.3317 14.2604C12.3773 14.2481 12.4597 14.2391 12.5791 14.2335C12.6 14.2402 12.6105 14.2469 12.6105 14.2537L12.6123 14.2671C12.5865 14.276 12.5213 14.2872 12.4167 14.3006C12.3305 14.323 12.2204 14.3566 12.0862 14.4013C12.0862 14.3969 12.0837 14.3946 12.0788 14.3946C12.0677 14.4058 12.0247 14.4237 11.9496 14.4483C11.6936 14.5289 11.5059 14.596 11.3866 14.6497C11.3164 14.671 11.2789 14.6934 11.274 14.7169C11.2013 14.7806 11.146 14.8433 11.1078 14.9048C11.0844 14.916 11.074 14.9339 11.0764 14.9585V14.9652C11.1072 14.9473 11.1533 14.9115 11.2149 14.8578C11.3281 14.8041 11.3896 14.7773 11.3995 14.7773L11.4161 14.7974V14.8041C11.4198 14.841 11.389 14.8768 11.3238 14.9115C11.3238 14.9194 11.2912 14.944 11.226 14.9854C11.2272 14.991 11.1829 15.038 11.093 15.1263C11.093 15.1342 11.0709 15.161 11.0266 15.2069C10.9995 15.2517 10.97 15.2785 10.938 15.2875C10.9281 15.283 10.9207 15.2807 10.9158 15.2807C10.9158 15.2852 10.9134 15.2875 10.9084 15.2875V15.2807L10.8937 15.2875H10.8567L10.8531 15.321L10.8549 15.3479L10.8715 15.368L10.8734 15.3882C10.8537 15.3882 10.8044 15.4374 10.7257 15.5358C10.6961 15.5638 10.6321 15.6645 10.5337 15.8379H10.5411C10.6826 15.7753 10.8389 15.7149 11.01 15.6567C11.3903 15.4956 11.6776 15.3814 11.8721 15.3143L11.8702 15.3076H11.8628C11.7361 15.3244 11.6469 15.3423 11.5952 15.3613C11.5767 15.3703 11.5453 15.377 11.501 15.3814C11.4912 15.377 11.4838 15.3747 11.4789 15.3747C11.4801 15.3859 11.4223 15.4038 11.3053 15.4284H11.2906L11.2813 15.4016C11.3318 15.3758 11.4413 15.3356 11.6099 15.2807V15.2875C11.6296 15.2852 11.6389 15.2785 11.6376 15.2673C11.6425 15.2673 11.645 15.2696 11.645 15.274C11.6955 15.2517 11.7933 15.2181 11.9385 15.1733L12.2505 15.0391C12.4757 14.9082 12.6117 14.8343 12.6585 14.8175C12.9674 14.6654 13.1815 14.5647 13.3009 14.5155L13.3914 14.4685C13.3926 14.4729 13.3957 14.4752 13.4006 14.4752L13.5464 14.3879C13.6683 14.3107 13.7335 14.2458 13.7421 14.1932C13.7372 14.1451 13.6867 14.1093 13.5907 14.0858C13.571 14.0858 13.5612 14.0814 13.5612 14.0724L13.5243 14.0791H13.5095L13.4652 14.0724C13.4554 14.0769 13.448 14.0791 13.443 14.0791V14.0724L13.4283 14.0791ZM8.96456 14.9518L8.98117 14.9719C8.98609 14.9719 8.99286 14.9697 9.00148 14.9652C9.02978 14.9697 9.05255 14.9719 9.06978 14.9719C9.06978 14.9809 9.08578 14.9943 9.11778 15.0122L9.10301 15.0189H9.06609C9.06855 15.0402 9.01686 15.0648 8.91102 15.0928C8.91102 15.0883 8.90856 15.0861 8.90364 15.0861V15.0928C8.83841 15.076 8.80518 15.0626 8.80395 15.0525C8.81503 14.9899 8.84641 14.9585 8.8981 14.9585C8.92517 14.954 8.94733 14.9518 8.96456 14.9518Z" fill="url(#paint1_linear)"/>
<path d="M18.4643 13C18.4889 13.0067 18.5024 13.0224 18.5049 13.047L18.5104 13.094C18.5104 13.1007 18.4735 13.1768 18.3997 13.3222C18.3787 13.5057 18.3578 13.5997 18.3369 13.6042C18.3381 13.6131 18.3197 13.6467 18.2815 13.7049C18.2729 13.7228 18.2692 13.7384 18.2704 13.7519C18.2901 13.7988 18.3006 13.8279 18.3018 13.8391L18.3037 13.8727C18.3061 13.894 18.2618 13.9163 18.1708 13.9398C18.1634 13.9622 18.1597 13.9779 18.1597 13.9868C18.1609 13.9935 18.1911 14.0204 18.2501 14.0674C18.308 14.1155 18.3381 14.149 18.3406 14.1681C18.3406 14.1759 18.3117 14.2095 18.2538 14.2688C18.2575 14.3012 18.2384 14.3862 18.1966 14.5239C18.2003 14.5585 18.1603 14.6525 18.0766 14.8058C18.0729 14.8136 18.0711 14.8226 18.0711 14.8327C18.0723 14.8416 18.0957 14.8796 18.1412 14.9468L18.1431 14.9535C18.0815 15.0061 18.0403 15.0665 18.0194 15.1347L17.988 15.1884C17.9929 15.1884 17.9954 15.1907 17.9954 15.1952C17.9794 15.1963 17.9554 15.25 17.9234 15.3563L17.8016 15.6315H17.8089L17.8532 15.6248H17.8902L17.9049 15.6315V15.6248L17.9197 15.6315H17.9566C17.9738 15.6315 17.996 15.6337 18.0231 15.6382C18.0637 15.6248 18.0926 15.6181 18.1098 15.6181C18.1369 15.627 18.1529 15.6382 18.1578 15.6516C18.1234 15.6975 18.0625 15.7311 17.9751 15.7523C17.9677 15.7714 17.9646 15.787 17.9658 15.7993C18.0458 15.8128 18.0871 15.8351 18.0895 15.8665C18.0932 15.8989 18.0563 15.9235 17.9788 15.9403C17.9812 15.9616 17.9714 15.9839 17.9492 16.0074C17.9591 16.0074 17.964 16.0097 17.964 16.0141L17.9788 16.0074H18.0378C18.0428 16.0074 18.0452 16.0097 18.0452 16.0141L18.06 16.0074H18.0969C18.1018 16.0074 18.1043 16.0097 18.1043 16.0141L18.1191 16.0074C18.124 16.0074 18.1265 16.0097 18.1265 16.0141L18.1412 16.0074H18.1634C18.2138 16.0074 18.3154 16.0164 18.468 16.0343L18.4698 16.0477C18.471 16.0678 18.4089 16.088 18.2834 16.1081C18.2784 16.1081 18.276 16.1059 18.276 16.1014C18.0458 16.1372 17.8865 16.1708 17.7979 16.2021V16.2155C17.8939 16.2312 17.9418 16.2424 17.9418 16.2491L17.9511 16.2625C17.9314 16.3073 17.8914 16.3297 17.8311 16.3297L17.8459 16.3901C17.836 16.4125 17.78 16.4236 17.6779 16.4236C17.5856 16.4382 17.54 16.4471 17.5413 16.4505L17.5099 16.4371C17.5013 16.4415 17.4914 16.4438 17.4803 16.4438L17.4656 16.4371C17.3843 16.4606 17.345 16.4874 17.3474 16.5176L17.2902 16.6116C17.2742 16.6463 17.2637 16.6664 17.2588 16.672C17.2637 16.672 17.2668 16.6743 17.268 16.6787C17.2447 16.6787 17.2102 16.7347 17.1647 16.8466C17.1351 16.9059 17.089 16.9842 17.0262 17.0815L16.9967 17.1621C17.0016 17.2113 16.9918 17.2359 16.9671 17.2359L16.8305 17.3635H16.8379L16.8102 17.444C16.8102 17.4485 16.8127 17.4507 16.8176 17.4507C16.8188 17.5279 16.7321 17.7248 16.5573 18.0415L16.4539 18.1959C16.4232 18.2507 16.3906 18.3201 16.3561 18.404L16.3284 18.4241H16.3136C16.3038 18.4241 16.2983 18.4196 16.297 18.4107L16.2952 18.3973C16.3124 18.3827 16.3284 18.3402 16.3432 18.2697C16.385 18.1936 16.4176 18.1019 16.441 17.9945C16.4619 17.9632 16.4736 17.9296 16.4761 17.8938H16.4613C16.465 17.9285 16.4269 17.9911 16.3469 18.0818C16.3481 18.0963 16.3081 18.1679 16.2269 18.2966C16.1592 18.4006 16.1081 18.5125 16.0737 18.6322L16.0534 18.6456C16.046 18.6456 16.038 18.6389 16.0294 18.6255L16.0792 18.3771C16.0669 18.385 16.0287 18.4454 15.9647 18.5584C15.9537 18.5662 15.937 18.5998 15.9149 18.6591H15.9075L15.8706 18.6524C15.862 18.6669 15.8583 18.6803 15.8595 18.6926L15.8632 18.7329C15.8657 18.7553 15.8712 18.7665 15.8798 18.7665C15.8712 18.8023 15.8534 18.8202 15.8263 18.8202C15.8263 18.8157 15.8238 18.8135 15.8189 18.8135L15.7783 18.847L15.7875 18.8806C15.79 18.8996 15.7598 18.9421 15.6971 19.0082C15.6983 19.0227 15.6854 19.0406 15.6583 19.0619C15.6091 19.1502 15.5192 19.2912 15.3888 19.4848H15.3814L15.3906 19.4982C15.3525 19.5228 15.3063 19.6078 15.2522 19.7533H15.2448C15.2239 19.7466 15.2134 19.7399 15.2134 19.7332L15.2116 19.713C15.2522 19.6202 15.2934 19.5127 15.3352 19.3908L15.5309 18.9679L15.71 18.5987C15.7088 18.5897 15.7204 18.5606 15.7451 18.5114H15.7377C15.6589 18.5931 15.5955 18.6781 15.5475 18.7665C15.5377 18.7665 15.5322 18.7844 15.5309 18.8202L15.4534 18.9276H15.446C15.4362 18.9276 15.4306 18.9231 15.4294 18.9142C15.4762 18.734 15.5211 18.6087 15.5641 18.5382C15.6072 18.4689 15.6565 18.3436 15.7118 18.1623H15.6971C15.6072 18.2988 15.5629 18.3727 15.5641 18.3838H15.5715C15.542 18.4487 15.518 18.4868 15.4995 18.498H15.4848C15.4749 18.498 15.47 18.4935 15.47 18.4845L15.5881 18.1019C15.6214 18.0303 15.6398 17.9945 15.6435 17.9945C15.6263 17.971 15.6171 17.9486 15.6158 17.9274L15.614 17.9206C15.614 17.9106 15.6349 17.8681 15.6768 17.7931C15.7026 17.7573 15.7155 17.7372 15.7155 17.7327L15.7063 17.7193C15.7198 17.6767 15.7383 17.6409 15.7617 17.6118C15.7617 17.6074 15.7592 17.6051 15.7543 17.6051C15.7223 17.6051 15.7044 17.5984 15.7008 17.585L15.6971 17.5581C15.6934 17.5156 15.7223 17.4776 15.7838 17.444C15.7789 17.3948 15.8017 17.3299 15.8521 17.2493C15.9001 17.18 15.9414 17.0703 15.9758 16.9204C15.9155 16.9417 15.7875 16.9663 15.5918 16.9942C15.5192 17.0121 15.4522 17.0323 15.3906 17.0547C15.3857 17.0547 15.3832 17.0524 15.3832 17.048C15.366 17.048 15.2676 17.0748 15.0879 17.1285H15.0731L15.0639 17.1151V17.1017C15.2325 17.039 15.3242 16.9965 15.3389 16.9741H15.3315C15.1753 17.0077 15.0793 17.0323 15.0436 17.048L15.0288 17.0412C15.0202 17.0491 14.9913 17.0558 14.942 17.0614C14.8891 17.0804 14.8024 17.1766 14.6817 17.35C14.6657 17.3601 14.6221 17.4183 14.5507 17.5246C14.403 17.6969 14.3021 17.8244 14.2479 17.9072C14.1999 17.9833 14.1255 18.084 14.0246 18.2093C13.8301 18.4577 13.7027 18.6143 13.6424 18.6792C13.603 18.7508 13.5797 18.7866 13.5723 18.7866C13.5649 18.7866 13.5563 18.7777 13.5464 18.7598C13.6067 18.6177 13.6517 18.4946 13.6812 18.3906H13.6664L13.6073 18.4711C13.5298 18.5595 13.4664 18.6423 13.4172 18.7195C13.4061 18.7251 13.3963 18.7497 13.3877 18.7933C13.3778 18.8112 13.3594 18.8247 13.3323 18.8336C13.3052 18.8627 13.2923 18.8851 13.2935 18.9007L13.2954 18.9142L13.3064 18.9544C13.3028 18.9634 13.3009 18.9701 13.3009 18.9746H13.3083L13.2935 19.0417H13.2492C13.1655 19.0484 13.1261 19.073 13.1311 19.1156H13.1237C13.0794 19.1133 13.056 19.1021 13.0535 19.082C13.0203 19.082 12.9975 19.1044 12.9852 19.1491C13.0086 19.1805 13.0209 19.2028 13.0222 19.2163L13.0166 19.2297C13.0215 19.2297 13.024 19.2319 13.024 19.2364C12.944 19.3002 12.8634 19.383 12.7822 19.4848C12.7059 19.5653 12.6628 19.6056 12.6529 19.6056C12.5877 19.6783 12.5366 19.732 12.4997 19.7667C12.4554 19.8148 12.4093 19.8752 12.3613 19.948C12.344 19.9614 12.3274 19.9681 12.3114 19.9681C12.3053 19.9547 12.2997 19.948 12.2948 19.948C12.3502 19.8629 12.3773 19.8115 12.376 19.7936C12.4117 19.7477 12.4646 19.6604 12.5348 19.5318C12.6714 19.327 12.784 19.1413 12.8726 18.9746C12.9194 18.9052 12.9538 18.8291 12.976 18.7463L12.9612 18.7396C12.9354 18.7933 12.8911 18.8426 12.8283 18.8873C12.768 18.9544 12.7342 18.988 12.7268 18.988C12.6726 19.0596 12.632 19.0954 12.6049 19.0954L12.5957 19.082C12.5933 19.0563 12.6302 19.0026 12.7065 18.9209L12.904 18.5987C12.9028 18.5897 12.9286 18.5561 12.9815 18.498L12.9797 18.4778C12.9219 18.5271 12.8849 18.5517 12.8689 18.5517C12.8591 18.5472 12.8517 18.545 12.8468 18.545C12.8825 18.4375 12.9188 18.357 12.9557 18.3033C12.9582 18.2585 12.9785 18.2362 13.0166 18.2362L13.0222 18.2227L13.0055 18.2026L13.0018 18.1623C13.0105 18.1511 13.0148 18.1444 13.0148 18.1422V18.1355H13.0074C12.9668 18.1601 12.8892 18.2272 12.7748 18.3368C12.7625 18.338 12.7268 18.3782 12.6677 18.4577C12.6529 18.4666 12.6388 18.4711 12.6253 18.4711H12.6105L12.6086 18.451C12.6739 18.3514 12.8056 18.188 13.0037 17.9609L13.5058 17.3299L13.5243 17.2963C13.2191 17.3333 12.9889 17.3713 12.8339 17.4105C12.8326 17.406 12.8295 17.4037 12.8246 17.4037C12.8259 17.4127 12.7348 17.4328 12.5514 17.4642H12.5366C12.5268 17.4642 12.5213 17.4597 12.52 17.4507L12.5182 17.4373C12.5206 17.4228 12.592 17.3937 12.7323 17.35C12.8271 17.3053 12.9342 17.2672 13.0535 17.2359C13.0757 17.2158 13.1508 17.1822 13.2788 17.1352L13.2861 17.1218C13.2849 17.1106 13.264 17.1017 13.2234 17.0949L13.2215 17.0748C13.2868 16.9965 13.3661 16.9517 13.4597 16.9405C13.4744 16.9305 13.4812 16.9238 13.48 16.9204H13.4652C13.4603 16.9204 13.4584 16.9226 13.4597 16.9271C13.4486 16.9226 13.4406 16.9204 13.4357 16.9204C13.3495 16.9249 13.2818 16.9338 13.2326 16.9473C13.2277 16.9473 13.2246 16.945 13.2234 16.9405C13.2135 16.9405 13.1969 16.945 13.1735 16.954V16.9473C13.1514 16.9562 13.1268 16.9607 13.0997 16.9607V16.954C13.0591 16.9596 13.0142 16.9797 12.9649 17.0144C12.9108 17.0088 12.8831 17.0021 12.8819 16.9942C12.872 16.9987 12.8646 17.001 12.8597 17.001C12.8277 16.992 12.8056 16.9875 12.7932 16.9875C12.7797 17.0278 12.7551 17.0547 12.7194 17.0681L12.6751 17.0614C12.6702 17.0614 12.6628 17.0636 12.6529 17.0681L12.6086 17.0614C12.5545 17.0636 12.5274 17.0681 12.5274 17.0748L12.5126 17.0681C12.4905 17.0681 12.3453 17.0927 12.077 17.1419L12.0751 17.1352C12.0247 17.1531 11.9791 17.1621 11.9385 17.1621C11.9287 17.1621 11.9231 17.1576 11.9219 17.1486L11.9201 17.1285C12.2647 17.039 12.5108 16.9629 12.6585 16.9003C12.6708 16.9003 12.7403 16.8779 12.8671 16.8331C13.0037 16.8018 13.1428 16.766 13.2843 16.7257V16.719H13.2621L13.2474 16.7257C13.2474 16.7212 13.2449 16.719 13.24 16.719V16.7257L13.2252 16.719C13.0172 16.7336 12.8997 16.7447 12.8726 16.7526C12.8677 16.7526 12.8652 16.7503 12.8652 16.7459C12.7065 16.766 12.6049 16.7839 12.5606 16.7996V16.7929L12.5459 16.7996H12.4794C12.4696 16.7996 12.464 16.7951 12.4628 16.7861V16.7727C12.464 16.7638 12.4751 16.7548 12.496 16.7459V16.7526C12.5896 16.7291 12.6517 16.7089 12.6825 16.6922L12.6843 16.6989C12.7003 16.6899 12.7336 16.681 12.784 16.672L12.7859 16.6787C12.8449 16.6698 12.9163 16.6496 13 16.6183C13.0172 16.6273 13.0326 16.6317 13.0462 16.6317C13.0695 16.6138 13.0806 16.6027 13.0794 16.5982L13.096 16.6049H13.1255C13.1501 16.6049 13.1729 16.5848 13.1938 16.5445L13.2788 16.5176C13.2898 16.5221 13.2978 16.5243 13.3028 16.5243C13.3187 16.5154 13.3907 16.4997 13.5187 16.4773L13.5095 16.4639L13.4966 16.4706C13.4917 16.4706 13.4886 16.4684 13.4874 16.4639L13.4744 16.4706H13.4375C13.4326 16.4706 13.4295 16.4684 13.4283 16.4639L13.4154 16.4706H13.3637C13.3587 16.4706 13.3557 16.4684 13.3544 16.4639L13.3415 16.4706H13.3341C13.3292 16.4706 13.3261 16.4684 13.3249 16.4639C13.2904 16.4729 13.2492 16.4773 13.2012 16.4773C13.2012 16.4729 13.1988 16.4706 13.1938 16.4706C13.1938 16.4796 13.1723 16.4863 13.1292 16.4908L13.1274 16.4841C13.0363 16.502 12.9908 16.5131 12.9908 16.5176C12.9415 16.5087 12.9163 16.4997 12.9151 16.4908L12.9132 16.4773L13.2234 16.4035L13.2252 16.4102C13.4972 16.3476 13.6566 16.3162 13.7033 16.3162C13.9507 16.2625 14.1009 16.2357 14.1538 16.2357C14.1882 16.2357 14.2042 16.229 14.2018 16.2155L14.2184 16.2222C14.2172 16.2178 14.219 16.2155 14.2239 16.2155L14.2258 16.2222C14.2627 16.2021 14.3267 16.1797 14.4178 16.1551L14.4196 16.1618L14.4473 16.1484C14.4473 16.1529 14.4498 16.1551 14.4547 16.1551V16.1484L14.4694 16.1551H14.4842C14.4941 16.1551 14.499 16.1506 14.499 16.1417C14.4941 16.1417 14.491 16.1395 14.4898 16.135C14.5045 16.135 14.5494 16.0858 14.6245 15.9873C14.6467 15.9369 14.6928 15.881 14.763 15.8195L14.942 15.6047C14.9531 15.5789 14.995 15.5319 15.0676 15.4637L15.0805 15.4301H15.0731C15.0731 15.3999 15.1291 15.3462 15.2411 15.269C15.2571 15.2545 15.286 15.2187 15.3279 15.1616C15.3377 15.1616 15.342 15.1571 15.3408 15.1482C15.326 15.1482 15.2688 15.1929 15.1691 15.2824C15.1469 15.2914 15.0762 15.3518 14.9568 15.4637C14.947 15.4637 14.9383 15.4726 14.931 15.4905C14.9248 15.4905 14.8842 15.5286 14.8091 15.6047C14.7845 15.6237 14.7242 15.6908 14.6282 15.806C14.6184 15.8105 14.611 15.8128 14.6061 15.8128C14.5962 15.8016 14.5907 15.7949 14.5894 15.7926V15.7859C14.6633 15.6874 14.734 15.6024 14.8017 15.5308C14.8005 15.5185 14.907 15.3954 15.1211 15.1616C15.3771 14.8796 15.5088 14.7387 15.5162 14.7387C15.5149 14.7331 15.5955 14.6525 15.758 14.497C15.7568 14.4903 15.7881 14.459 15.8521 14.403C15.8521 14.3985 15.9155 14.3404 16.0423 14.2285C16.0423 14.2184 16.0737 14.1893 16.1364 14.1412C16.1377 14.1356 16.1758 14.0976 16.2509 14.0271L16.2823 14.0405C16.2847 14.0584 16.2589 14.0942 16.2047 14.1479C16.1161 14.2408 16.0527 14.3258 16.0146 14.403V14.4097C16.038 14.384 16.0995 14.3325 16.1992 14.2553C16.2078 14.2318 16.2927 14.1423 16.4539 13.9868C16.4724 13.9544 16.5198 13.9051 16.5961 13.8391C16.7388 13.6914 16.8324 13.6176 16.8767 13.6176V13.6243L16.8915 13.6176H16.9136C16.9235 13.6187 16.929 13.6232 16.9302 13.631C16.9721 13.6221 17.0182 13.5907 17.0687 13.537C17.0982 13.537 17.1831 13.4744 17.3234 13.3491C17.4477 13.273 17.5277 13.235 17.5634 13.235C17.5782 13.2383 17.5893 13.2473 17.5966 13.2618C17.5929 13.2864 17.5923 13.3066 17.5948 13.3222C17.6453 13.2976 17.6957 13.2618 17.7462 13.2148C17.8225 13.1835 17.8908 13.1499 17.9511 13.1141C17.9806 13.1141 17.9966 13.1298 17.9991 13.1611C17.9905 13.2193 17.9862 13.2506 17.9862 13.2551L17.988 13.2618C18.0188 13.2786 18.0342 13.2898 18.0342 13.2954L18.0286 13.3088L18.0526 13.3222C18.0698 13.3222 18.1098 13.2775 18.1726 13.188C18.2612 13.0862 18.3178 13.0347 18.3424 13.0336C18.3757 13.0201 18.4163 13.009 18.4643 13ZM15.6657 16.0746H15.6805C15.694 16.0746 15.7081 16.0701 15.7229 16.0611L15.7248 16.0678C15.7875 16.0455 15.8989 16.0276 16.0589 16.0141C16.0589 16.0097 16.0657 16.0052 16.0792 16.0007L16.081 16.0074L16.2804 15.947C16.2804 15.9392 16.2521 15.9258 16.1955 15.9067V15.8933C16.1943 15.8844 16.2152 15.8732 16.2583 15.8597V15.8665C16.3038 15.853 16.3303 15.8463 16.3376 15.8463L16.3395 15.853C16.3678 15.8441 16.4059 15.8351 16.4539 15.8262C16.4552 15.8307 16.4582 15.8329 16.4632 15.8329C16.4656 15.8239 16.4958 15.8105 16.5536 15.7926C16.5918 15.7333 16.6465 15.6617 16.7179 15.5778C16.7376 15.5442 16.777 15.4883 16.8361 15.41C16.8348 15.4021 16.8705 15.3417 16.9431 15.2287C16.9911 15.1224 17.0582 15.024 17.1444 14.9333C17.1481 14.9188 17.161 14.9009 17.1831 14.8796L17.1721 14.8461L17.1702 14.8259C17.2047 14.7711 17.2213 14.7376 17.22 14.7252L17.2182 14.7118L17.1813 14.7185V14.7118C17.073 14.7286 17.0065 14.751 16.9819 14.7789C16.8995 14.8427 16.8355 14.8987 16.7899 14.9468C16.7062 15.0419 16.5782 15.1649 16.4059 15.316C16.2201 15.5129 16.1044 15.6449 16.0589 15.7121C16.0023 15.7658 15.9697 15.8083 15.961 15.8396L15.8927 15.8933C15.8657 15.9459 15.7992 15.9996 15.6934 16.0544C15.6749 16.0611 15.6657 16.0678 15.6657 16.0746ZM17.1111 17.2829C17.1111 17.2851 17.1167 17.2919 17.1277 17.303L17.1296 17.3232C17.1357 17.3814 17.0791 17.4597 16.9598 17.5581H16.945C16.9351 17.5581 16.9302 17.5537 16.9302 17.5447C16.9401 17.4843 16.9856 17.3993 17.0668 17.2896L17.1111 17.2829ZM12.5108 18.7463H12.533L12.5496 18.7531C12.5508 18.771 12.5274 18.8135 12.4794 18.8806C12.4646 18.9242 12.4456 18.9511 12.4222 18.9612C12.4111 18.9567 12.4031 18.9544 12.3982 18.9544L12.3963 18.9209C12.3951 18.9164 12.397 18.9142 12.4019 18.9142C12.4019 18.9075 12.3908 18.8918 12.3687 18.8672L12.3668 18.847C12.4234 18.7933 12.4548 18.7665 12.461 18.7665C12.4954 18.7665 12.512 18.7598 12.5108 18.7463Z" fill="url(#paint2_linear)"/>
<path d="M21.3644 13.5119C21.4653 13.532 21.5176 13.5583 21.5213 13.5907C21.5275 13.5907 21.5306 13.5935 21.5306 13.5991C21.5318 13.6081 21.5096 13.6271 21.4641 13.6562H21.4087C21.3718 13.6562 21.3176 13.6204 21.2463 13.5488C21.2672 13.5287 21.2875 13.5186 21.3072 13.5186H21.3164C21.3213 13.5186 21.3238 13.5214 21.3238 13.527L21.3644 13.5119ZM21.0044 13.678H21.0598C21.0881 13.678 21.1078 13.6875 21.1189 13.7065L21.1207 13.7368L21.1152 13.7502L21.141 13.7653H21.1558C21.2149 13.7653 21.2647 13.7602 21.3053 13.7502V13.7586L21.3219 13.7502H21.3459C21.3583 13.7535 21.3859 13.7921 21.429 13.866C21.509 13.9197 21.5564 13.9465 21.5712 13.9465C21.5699 13.9365 21.5718 13.9314 21.5767 13.9314C21.5656 13.9124 21.5527 13.8861 21.5379 13.8526L21.5546 13.8442H21.5619C21.6358 13.8923 21.7121 13.9723 21.7908 14.0842C21.8118 14.1244 21.8235 14.158 21.8259 14.1848L21.8278 14.2134C21.8278 14.2179 21.8253 14.2201 21.8204 14.2201L21.8536 14.3074L21.8462 14.3225C21.8462 14.3269 21.8499 14.3342 21.8573 14.3443C21.8536 14.3756 21.8481 14.3997 21.8407 14.4164C21.8456 14.4164 21.8481 14.4187 21.8481 14.4232C21.8395 14.4232 21.8296 14.4282 21.8185 14.4383L21.7595 14.3946H21.7502C21.7502 14.4025 21.725 14.4455 21.6745 14.5239C21.6758 14.5373 21.6616 14.5518 21.6321 14.5675C21.5484 14.6838 21.5035 14.742 21.4973 14.742H21.4899C21.4789 14.742 21.4727 14.737 21.4715 14.7269L21.4696 14.7051C21.5213 14.6425 21.5484 14.5943 21.5509 14.5608H21.5435C21.5078 14.5798 21.4696 14.5966 21.429 14.6111C21.4192 14.6257 21.3939 14.6402 21.3533 14.6548C21.3546 14.6626 21.3343 14.6749 21.2924 14.6917C21.2924 14.6861 21.29 14.6833 21.285 14.6833C21.285 14.6889 21.2604 14.7107 21.2112 14.7487C21.2112 14.7443 21.2087 14.742 21.2038 14.742C21.2038 14.7476 21.1817 14.7694 21.1373 14.8075C21.1078 14.8455 21.0801 14.8645 21.0543 14.8645C21.053 14.8545 21.05 14.8494 21.045 14.8494L21.13 14.7336H21.1226C21.0721 14.7627 21.0475 14.7845 21.0487 14.7991L21.0321 14.7924C21.0026 14.8293 20.9632 14.8606 20.914 14.8864L20.9158 14.9015L20.8992 14.8931C20.898 14.9009 20.8678 14.925 20.8088 14.9652C20.7989 14.9608 20.7915 14.9585 20.7866 14.9585C20.7878 14.9697 20.7675 14.982 20.7257 14.9954C20.7269 15.0033 20.7078 15.0201 20.6685 15.0458L20.4765 15.2119H20.4838C20.5442 15.1717 20.6094 15.1353 20.6795 15.1029L20.698 15.1112C20.698 15.1012 20.7023 15.0961 20.7109 15.0961V15.1029L20.7275 15.0961C20.7374 15.0973 20.7429 15.1023 20.7441 15.1112C20.7454 15.128 20.7232 15.1426 20.6777 15.1549L20.4322 15.3428C20.3829 15.41 20.3466 15.4435 20.3232 15.4435C20.3245 15.4514 20.3054 15.4732 20.266 15.509C20.2623 15.5191 20.2531 15.5336 20.2383 15.5526L20.2199 15.5442H20.2125C20.2137 15.5565 20.1971 15.5733 20.1626 15.5946C20.1663 15.6293 20.1534 15.6634 20.1239 15.697C20.1177 15.697 20.0697 15.7451 19.9799 15.8413C19.9614 15.8413 19.9233 15.8631 19.8654 15.9067L19.8747 15.9202L19.8765 15.9286L19.7824 16.0292C19.7737 16.0292 19.7325 16.0701 19.6587 16.1518C19.6525 16.1518 19.6187 16.1831 19.5571 16.2457H19.5405L19.5424 16.2608C19.6654 16.1926 19.746 16.1518 19.7842 16.1383C19.7854 16.1428 19.7885 16.145 19.7934 16.145L19.8008 16.1299C19.8107 16.1355 19.8187 16.1383 19.8248 16.1383L19.8267 16.145C19.7824 16.1943 19.7153 16.2452 19.6254 16.2978C19.6156 16.3123 19.5836 16.3386 19.5294 16.3766C19.4593 16.4337 19.4131 16.4773 19.391 16.5076C19.3602 16.5355 19.343 16.5495 19.3393 16.5495C19.3393 16.545 19.3368 16.5428 19.3319 16.5428C19.3319 16.554 19.2999 16.5808 19.2359 16.6234C19.183 16.6882 19.1572 16.7268 19.1584 16.7392C19.0932 16.8164 19.0304 16.8835 18.9701 16.9405C18.8963 17.0558 18.8606 17.1212 18.863 17.1369L18.8723 17.1503C18.8575 17.2331 18.8193 17.2745 18.7578 17.2745C18.7123 17.2745 18.6864 17.284 18.6803 17.303L18.6821 17.3249C18.6833 17.3293 18.6864 17.3316 18.6913 17.3316C18.684 17.383 18.6489 17.4339 18.5861 17.4843L18.5953 17.4977L18.5972 17.5044C18.4397 17.7002 18.3615 17.8043 18.3627 17.8166C18.3443 17.8378 18.3357 17.8546 18.3369 17.8669C18.4464 17.7998 18.5061 17.7662 18.516 17.7662C18.5221 17.7662 18.5258 17.7685 18.527 17.773V17.7797C18.6181 17.7461 18.708 17.6857 18.7966 17.5984L18.8187 17.585H18.8427V17.5917C18.8439 17.6007 18.815 17.6297 18.756 17.679C18.6858 17.7193 18.652 17.7506 18.6544 17.773C18.6593 17.773 18.6618 17.7752 18.6618 17.7797C18.6064 17.8188 18.5578 17.8625 18.516 17.9106V17.9173C18.543 17.9128 18.6009 17.8764 18.6895 17.8082C18.7104 17.8082 18.7652 17.7702 18.8538 17.6941C18.9252 17.6482 19.0421 17.5442 19.2045 17.3819C19.3079 17.3316 19.431 17.2326 19.5737 17.0849C19.7239 16.9607 19.8267 16.8717 19.882 16.818H19.8913C19.9011 16.8191 19.9067 16.8242 19.9079 16.8331C19.6433 17.086 19.5104 17.2208 19.5091 17.2376C19.5104 17.2555 19.4987 17.27 19.4741 17.2812C19.4691 17.3002 19.4211 17.3579 19.3301 17.4541H19.3393C19.4033 17.4172 19.4704 17.3691 19.5405 17.3098C19.6291 17.2527 19.7965 17.1224 20.0426 16.9187L20.2697 16.7744C20.2771 16.7744 20.3337 16.7308 20.4395 16.6435C20.4765 16.6155 20.4986 16.6015 20.506 16.6015L20.5042 16.5864H20.4968C20.3995 16.6357 20.314 16.6838 20.2402 16.7308C20.2402 16.7263 20.2371 16.724 20.2309 16.724C20.2272 16.7386 20.2119 16.7459 20.1848 16.7459H20.17L20.1682 16.7308C20.2026 16.6961 20.2192 16.672 20.218 16.6586C20.2832 16.6385 20.3632 16.5926 20.458 16.521C20.6931 16.3666 20.8684 16.2558 20.9841 16.1887C21.0629 16.1697 21.2026 16.0802 21.4032 15.9202C21.4832 15.8776 21.5361 15.8463 21.5619 15.8262H21.5693C21.5804 15.8284 21.5865 15.8335 21.5878 15.8413C21.429 15.9934 21.3035 16.0947 21.2112 16.145V16.1518H21.2186C21.3379 16.107 21.4413 16.0494 21.5287 15.9789L21.6856 15.8782C21.8259 15.7865 21.9268 15.7283 21.9884 15.7037C21.9884 15.6936 21.9927 15.6886 22.0013 15.6886H22.0419C22.0518 15.6908 22.0573 15.6958 22.0585 15.7037C22.0548 15.7126 22.053 15.7199 22.053 15.7255H22.0604C22.1071 15.7143 22.1293 15.6925 22.1268 15.66L22.1231 15.6248C22.1354 15.6248 22.1459 15.627 22.1545 15.6315L22.1859 15.6164C22.197 15.622 22.2056 15.6248 22.2117 15.6248C22.2105 15.6102 22.2456 15.5935 22.317 15.5744C22.3207 15.5386 22.4413 15.4659 22.6788 15.3563H22.7176C22.72 15.3842 22.6812 15.4206 22.6013 15.4654C22.5889 15.4665 22.517 15.5481 22.3853 15.7104C22.3779 15.7149 22.3065 15.7949 22.1711 15.9504C22.1268 15.9504 22.0751 15.9985 22.0161 16.0947C21.9533 16.1316 21.8942 16.1775 21.8388 16.2323C21.8401 16.2435 21.8019 16.2843 21.7244 16.3548C21.7256 16.3739 21.6912 16.3979 21.621 16.427C21.6025 16.4415 21.5755 16.4706 21.5398 16.5143C21.5213 16.5143 21.4715 16.5478 21.3903 16.615C21.3915 16.6261 21.3792 16.6357 21.3533 16.6435L21.3183 16.6871H21.333L21.5453 16.5797C21.6376 16.5249 21.7201 16.4695 21.7927 16.4136L21.7908 16.4052L21.8093 16.4136C21.8548 16.3733 21.9139 16.3274 21.9865 16.276C21.9865 16.2804 21.9896 16.2827 21.9958 16.2827C21.9945 16.276 22.0241 16.2519 22.0844 16.2105H22.0917C22.1016 16.2116 22.1071 16.2161 22.1084 16.2239L22.1102 16.239C22.0979 16.239 22.0807 16.2513 22.0585 16.276C22.0573 16.2704 22.0542 16.2676 22.0493 16.2676C22.0505 16.281 22.0161 16.3078 21.9459 16.3481C21.7945 16.4678 21.693 16.5422 21.6413 16.5713C21.6425 16.5803 21.5958 16.6189 21.501 16.6871C21.5022 16.6983 21.4462 16.7515 21.333 16.8466C21.3195 16.8466 21.2973 16.8633 21.2666 16.8969C21.2493 16.8969 21.2346 16.9115 21.2223 16.9405C21.2063 16.9405 21.1989 16.9478 21.2001 16.9624C21.1952 16.9624 21.1927 16.9601 21.1927 16.9556C21.1706 16.9601 21.1213 17.001 21.045 17.0782C21.0241 17.0782 20.9632 17.1335 20.8623 17.2443C20.7897 17.2924 20.7331 17.3383 20.6924 17.3819C20.6851 17.3819 20.634 17.4328 20.5392 17.5346C20.5282 17.5346 20.5011 17.5537 20.458 17.5917H20.4266V17.585C20.4598 17.5481 20.4758 17.524 20.4746 17.5128L20.4894 17.5195C20.4894 17.5117 20.5312 17.4681 20.6149 17.3886C20.6789 17.3126 20.7146 17.2745 20.722 17.2745L20.7201 17.2527C20.6635 17.2919 20.554 17.3953 20.3915 17.5632C20.3497 17.5833 20.2986 17.6292 20.2383 17.7008L20.0962 17.8015C20.0986 17.8116 20.1048 17.8166 20.1146 17.8166C20.1134 17.802 20.1485 17.7853 20.2199 17.7662H20.2272C20.2383 17.7674 20.2445 17.7718 20.2457 17.7797L20.2476 17.7948C20.2254 17.7948 20.1836 17.8283 20.122 17.8955C19.9399 18.051 19.85 18.1377 19.8525 18.1556V18.164C19.9239 18.117 20.0051 18.0543 20.0962 17.976C20.1577 17.938 20.2365 17.8753 20.3325 17.7881C20.4555 17.712 20.5325 17.6516 20.5632 17.6068C20.5792 17.5967 20.5946 17.5917 20.6094 17.5917C20.6106 17.5973 20.6137 17.6046 20.6186 17.6135C20.5952 17.6236 20.5712 17.6476 20.5466 17.6857C20.4592 17.7819 20.3885 17.8474 20.3343 17.882C20.3355 17.8854 20.3048 17.919 20.242 17.9827C20.1952 18.0197 20.1196 18.0918 20.015 18.1992C20.0063 18.1992 19.9405 18.2597 19.8174 18.3805C19.8064 18.3805 19.7116 18.465 19.5331 18.6339C19.4175 18.6988 19.3227 18.7374 19.2488 18.7497L19.0956 18.8152V18.8219H19.1436L19.223 18.8152L19.2322 18.8286C19.2236 18.842 19.1461 18.8661 18.9996 18.9007L18.7301 18.9813C18.7289 18.9757 18.7258 18.9735 18.7209 18.9746C18.7221 18.9802 18.684 18.997 18.6064 19.0249C18.5744 19.016 18.5197 18.9942 18.4421 18.9595C18.4421 18.964 18.4397 18.9662 18.4347 18.9662L18.3517 18.9226C18.3504 18.9181 18.3418 18.9136 18.3258 18.9091C18.3258 18.9136 18.3227 18.9158 18.3166 18.9158C18.3154 18.9058 18.2871 18.8817 18.2317 18.8437V18.8504L18.3129 19.0249L18.2963 19.0316C18.2766 19.0294 18.2514 19.0126 18.2206 18.9813C18.1234 18.9544 18.0723 18.9181 18.0674 18.8722H18.0748C18.0686 18.8633 18.0655 18.856 18.0655 18.8504L18.0489 18.8588C18.0477 18.8442 18.0305 18.8269 17.9972 18.8068C17.9935 18.7754 17.9222 18.7296 17.7831 18.6691C17.7339 18.6378 17.7086 18.6188 17.7074 18.6121C17.636 18.5505 17.5659 18.5069 17.497 18.4812C17.3074 18.3626 17.1887 18.2641 17.1407 18.1858C17.105 18.1489 17.0841 18.0935 17.0779 18.0197L17.0853 18.0046L17.0631 17.9609C17.0705 17.915 17.0797 17.8692 17.0908 17.8233C17.0847 17.8233 17.0816 17.8211 17.0816 17.8166C17.0914 17.8166 17.1117 17.7511 17.1425 17.6202L17.2016 17.4843H17.1942C17.1942 17.4944 17.1813 17.5011 17.1554 17.5044C17.1333 17.4977 17.1222 17.491 17.1222 17.4843C17.1247 17.4496 17.1807 17.3456 17.2902 17.1721C17.4108 17.0323 17.4828 16.9288 17.5062 16.8617L17.5966 16.724L17.6169 16.7593C17.5763 16.8018 17.54 16.865 17.508 16.9489L17.5246 16.9556C17.5813 16.8527 17.6397 16.7682 17.7 16.7022C17.6988 16.6866 17.7572 16.6094 17.8754 16.4706L18.0914 16.2239L18.1468 16.1518H18.1394C18.132 16.1518 18.1105 16.1736 18.0748 16.2172C17.9492 16.3246 17.8772 16.4018 17.8588 16.4488C17.8366 16.4566 17.8262 16.4639 17.8274 16.4706C17.8335 16.4706 17.8366 16.4729 17.8366 16.4773C17.8206 16.4852 17.7997 16.5143 17.7739 16.5646L17.7425 16.5713C17.7351 16.5624 17.7314 16.5551 17.7314 16.5495C17.8212 16.413 17.9375 16.2636 18.0803 16.1014C18.1197 16.041 18.1788 15.9711 18.2575 15.8916C18.4089 15.7205 18.6064 15.5107 18.8501 15.2623L18.8483 15.2556C18.7769 15.2981 18.6926 15.3607 18.5953 15.4435C18.4661 15.5409 18.2803 15.7288 18.0378 16.0074C17.9702 16.0846 17.9314 16.1232 17.9215 16.1232H17.9142C18.0274 15.9778 18.084 15.9028 18.084 15.8983C18.1591 15.8077 18.2335 15.7283 18.3074 15.66C18.4514 15.5012 18.5892 15.3663 18.7209 15.2556C18.8107 15.1784 18.8858 15.1062 18.9461 15.0391C18.9547 15.0391 19.0089 14.9954 19.1085 14.9082L19.4058 14.6699L19.4039 14.6615C19.3116 14.6838 19.2052 14.7348 19.0845 14.8142C19.0267 14.8332 18.9941 14.85 18.9867 14.8645H18.9627L18.9609 14.8494C19.0815 14.7868 19.2261 14.6883 19.3947 14.5541C19.4439 14.4903 19.5227 14.4299 19.631 14.3728C20.0937 14.0539 20.354 13.8945 20.4119 13.8945C20.4242 13.8967 20.4303 13.9018 20.4303 13.9096C20.4315 13.9186 20.3934 13.9381 20.3159 13.9684C20.3171 13.9807 20.2876 14.0047 20.2272 14.0405C20.2285 14.0517 20.2014 14.0707 20.146 14.0976V14.1043C20.1509 14.1043 20.1596 14.1071 20.1719 14.1127C20.3552 13.9918 20.4654 13.9314 20.5023 13.9314C20.5725 13.8844 20.6685 13.8291 20.7903 13.7653C20.8309 13.7328 20.8709 13.711 20.9103 13.6998L20.9121 13.7065C20.9466 13.6875 20.9774 13.678 21.0044 13.678ZM20.0906 14.0909V14.1043C20.1005 14.0998 20.1085 14.0976 20.1146 14.0976L20.1128 14.0842C20.1029 14.0886 20.0956 14.0909 20.0906 14.0909ZM20.0796 14.163L20.0814 14.1697C20.1306 14.1373 20.1553 14.1183 20.1553 14.1127H20.1479C20.1023 14.1384 20.0796 14.1552 20.0796 14.163ZM20.0297 14.1261L20.0223 14.1412H20.0463C20.0463 14.1311 20.0408 14.1261 20.0297 14.1261ZM19.9836 14.1563C19.9836 14.1608 19.9817 14.1681 19.978 14.1781H19.9854C19.9965 14.1781 20.0014 14.1731 20.0002 14.163V14.1563H19.9836ZM19.8008 14.3006H19.8082C19.807 14.2906 19.8144 14.2855 19.8303 14.2855L19.8285 14.2721C19.8199 14.2721 19.8107 14.2816 19.8008 14.3006ZM19.4335 14.6329L19.4187 14.6548V14.6615C19.4347 14.6469 19.4476 14.6397 19.4574 14.6397V14.6329H19.4335ZM22.952 14.9803C22.9828 15.0128 22.9988 15.0368 23 15.0525C22.9594 15.0961 22.9108 15.118 22.8542 15.118C22.8382 15.1146 22.8265 15.1051 22.8191 15.0894C22.8154 15.048 22.8597 15.0117 22.952 14.9803ZM22.424 15.2774C22.456 15.2774 22.4726 15.2869 22.4739 15.3059C22.4776 15.3384 22.4339 15.3747 22.3428 15.415H22.3336C22.3163 15.415 22.288 15.3954 22.2487 15.3563C22.245 15.3261 22.2745 15.3042 22.3373 15.2908L22.3391 15.2992L22.424 15.2774ZM21.2518 16.0662H21.2592C21.333 16.0304 21.4044 15.9772 21.4733 15.9067H21.4659C21.3256 15.9985 21.2543 16.0516 21.2518 16.0662ZM21.1373 16.1383C21.1398 16.1473 21.1453 16.1518 21.154 16.1518C21.1847 16.135 21.1995 16.1232 21.1983 16.1165H21.1909C21.1687 16.1311 21.1509 16.1383 21.1373 16.1383ZM21.1724 16.1602V16.1736C21.1933 16.1669 21.2032 16.1596 21.202 16.1518H21.1946C21.186 16.1574 21.1786 16.1602 21.1724 16.1602ZM17.9954 16.2239C17.9954 16.2306 17.9886 16.2452 17.9751 16.2676C17.9886 16.2653 18.0003 16.2536 18.0102 16.2323L17.9954 16.2239ZM17.9382 16.3045H17.9474C17.9572 16.3045 17.9615 16.2994 17.9603 16.2894V16.2827C17.9529 16.2827 17.9455 16.2899 17.9382 16.3045ZM20.6168 16.5143L20.6038 16.5361H20.6112L20.6241 16.5143H20.6168ZM20.5189 16.5797H20.5263C20.5522 16.5652 20.5706 16.5579 20.5817 16.5579L20.5725 16.5428C20.5405 16.5551 20.5226 16.5674 20.5189 16.5797ZM21.2666 16.724H21.274C21.285 16.724 21.29 16.719 21.2887 16.7089H21.2795C21.2696 16.7112 21.2653 16.7162 21.2666 16.724ZM19.4611 17.2376H19.4704C19.4802 17.2376 19.4845 17.2326 19.4833 17.2225H19.4759C19.4648 17.2247 19.4599 17.2298 19.4611 17.2376ZM19.7473 18.2211C19.7473 18.2233 19.7454 18.2328 19.7417 18.2496L19.7584 18.258C19.762 18.2412 19.7633 18.2317 19.762 18.2294L19.7473 18.2211ZM19.6901 18.3016H19.6993C19.7054 18.3016 19.7171 18.2893 19.7344 18.2647V18.258C19.727 18.258 19.7122 18.2725 19.6901 18.3016ZM19.6457 18.3368H19.655C19.6624 18.3368 19.6722 18.3273 19.6845 18.3083H19.6771C19.6685 18.3083 19.6581 18.3178 19.6457 18.3368ZM18.6452 19.1038C18.6846 19.1273 18.7055 19.1469 18.708 19.1626C18.7006 19.2151 18.684 19.2414 18.6581 19.2414C18.604 19.2224 18.5744 19.1911 18.5695 19.1474C18.5929 19.1184 18.6181 19.1038 18.6452 19.1038Z" fill="url(#paint3_linear)"/>
<defs>
<linearGradient id="paint0_linear" x1="2.99844" y1="16.4999" x2="23.0016" y2="16.4999" gradientUnits="userSpaceOnUse">
<stop stop-color="#0779E4"/>
<stop offset="0.9341" stop-color="#1DD3BD"/>
</linearGradient>
<linearGradient id="paint1_linear" x1="2.99844" y1="16.4999" x2="23.0016" y2="16.4999" gradientUnits="userSpaceOnUse">
<stop stop-color="#0779E4"/>
<stop offset="0.9341" stop-color="#1DD3BD"/>
</linearGradient>
<linearGradient id="paint2_linear" x1="2.99844" y1="16.4999" x2="23.0016" y2="16.4999" gradientUnits="userSpaceOnUse">
<stop stop-color="#0779E4"/>
<stop offset="0.9341" stop-color="#1DD3BD"/>
</linearGradient>
<linearGradient id="paint3_linear" x1="2.99844" y1="16.4999" x2="23.0016" y2="16.4999" gradientUnits="userSpaceOnUse">
<stop stop-color="#0779E4"/>
<stop offset="0.9341" stop-color="#1DD3BD"/>
</linearGradient>
</defs>
</svg>
