<svg width="25" height="25" viewBox="0 0 25 25" fill="none" xmlns="http://www.w3.org/2000/svg">
<circle cx="12.5" cy="12.5" r="12.5" fill="black"/>
<path d="M10.371 5.55491C11.9457 4.86358 13.7595 4.81635 15.3637 5.42369C16.3536 5.79034 17.2562 6.40668 18 7.19098C17.2815 7.96778 16.5567 8.73708 15.8319 9.50638C15.2576 8.93353 14.5496 8.50089 13.77 8.35468C12.5721 8.09825 11.2743 8.49114 10.3766 9.37292C9.71998 10.0013 9.26654 10.8703 9.12875 11.8015C8.91645 13.0687 9.29959 14.4304 10.127 15.3661C10.74 16.0799 11.5893 16.5546 12.4891 16.6813C13.7011 16.88 14.9574 16.3963 15.8319 15.4951C16.5553 16.2651 17.2836 17.0307 17.9979 17.8105C16.8225 19.0627 15.2231 19.8597 13.5633 19.9767C12.0828 20.1034 10.5678 19.7112 9.31013 18.8662C7.65877 17.7782 6.46295 15.9292 6.11778 13.8897C5.87524 12.4629 6.00389 10.9565 6.53536 9.6166C7.24259 7.79233 8.65352 6.29346 10.371 5.55491Z" fill="white"/>
<path d="M21.7199 7L21.7493 7.01488H22.1466L22.2349 7C22.2545 7.00992 22.2692 7.01488 22.279 7.01488C22.2839 7.0744 22.2618 7.10417 22.2128 7.10417L22.2165 7.11905H22.3195C22.3293 7.11905 22.3329 7.11409 22.3305 7.10417L22.3636 7.11905H22.4225C22.4862 7.11905 22.55 7.12401 22.6137 7.13393C22.6481 7.12401 22.6971 7.11905 22.7609 7.11905C22.7609 7.12897 22.7658 7.13393 22.7756 7.13393C22.7756 7.12401 22.7805 7.11905 22.7903 7.11905V7.13393L22.8197 7.11905C22.8737 7.12897 22.9129 7.13393 22.9374 7.13393V7.11905C22.9767 7.13393 22.9975 7.14881 23 7.16369C23.0024 7.19593 22.8872 7.23065 22.6542 7.26786C22.588 7.26786 22.4421 7.34226 22.2165 7.49107C22.1968 7.51339 22.1404 7.53323 22.0473 7.55059L22.0436 7.53571C21.9774 7.55307 21.9443 7.56796 21.9443 7.58036L21.9148 7.56548H21.8707C21.8609 7.56548 21.856 7.57044 21.856 7.58036L21.8266 7.56548C21.7383 7.64236 21.6083 7.72173 21.4366 7.80357C21.3189 7.90278 21.2196 7.95238 21.1387 7.95238C21.0823 7.98214 21.0553 8.00695 21.0578 8.02679C21.048 8.02679 21.0431 8.02183 21.0431 8.01191C20.7758 8.06895 20.6041 8.12847 20.5281 8.19048V8.20536H20.5428C20.6679 8.17064 20.7292 8.14583 20.7267 8.13095L20.7598 8.14583L21.1608 8.04167L21.1644 8.05655C21.3263 7.99703 21.4796 7.96726 21.6242 7.96726L21.661 8.01191V8.02679L21.433 8.10119C21.4232 8.10119 21.417 8.09623 21.4146 8.08631L20.8555 8.25C20.8555 8.24008 20.8506 8.23512 20.8407 8.23512C20.8407 8.24504 20.8358 8.25 20.826 8.25C20.826 8.24008 20.8211 8.23512 20.8113 8.23512L20.7966 8.26488L20.7672 8.25C20.7353 8.25 20.6826 8.26488 20.609 8.29464V8.27976C20.5158 8.30953 20.4606 8.34921 20.4435 8.39881C20.4533 8.39881 20.4582 8.40377 20.4582 8.41369C20.3969 8.45833 20.2841 8.5129 20.1198 8.57738C20.1198 8.5873 20.1149 8.59226 20.1051 8.59226C20.1051 8.58234 20.1002 8.57738 20.0904 8.57738C20.083 8.60466 20.0168 8.63939 19.8917 8.68155L19.8954 8.69643L19.8623 8.68155C19.7127 8.73115 19.4479 8.84028 19.0678 9.00893C18.4351 9.24702 17.9078 9.4504 17.4861 9.61905C17.4664 9.61905 17.4566 9.60913 17.4566 9.58929L17.4529 9.57441C17.4505 9.54216 17.5817 9.47272 17.8465 9.36607C18.0893 9.28919 18.3309 9.18006 18.5712 9.03869L18.5675 9.02381H18.5234C18.2217 9.1131 18.0133 9.19742 17.898 9.27679L17.67 9.35119V9.36607H17.6553V9.33631L17.4824 9.39583V9.38095C17.0459 9.60665 16.7504 9.76538 16.5959 9.85714C16.4929 9.89931 16.4083 9.94891 16.3421 10.006H16.4009L16.4304 9.99107V10.006C16.5113 9.95139 16.6927 9.8869 16.9748 9.8125C16.9919 9.82242 17.0115 9.82738 17.0336 9.82738C17.0876 9.8001 17.1501 9.78026 17.2212 9.76786C17.2923 9.79266 17.3291 9.82738 17.3316 9.87202H17.3168C16.8362 10.0109 16.4598 10.1349 16.1876 10.244L16.1582 10.2292L15.6616 10.4673C15.5218 10.5094 15.3685 10.6582 15.2018 10.9137C15.2042 10.9583 15.138 11.1071 15.0031 11.3601C14.91 11.4668 14.8401 11.6255 14.7935 11.8363H14.8082C14.921 11.7545 14.9762 11.7049 14.9737 11.6875C15.0473 11.6379 15.1208 11.5784 15.1944 11.5089H15.2238C15.2435 11.5114 15.2533 11.5213 15.2533 11.5387L15.2569 11.5536C15.0828 11.7892 14.9676 11.933 14.9112 11.9851L14.8119 12.1935H14.8413C15.0816 12.0347 15.5304 11.8313 16.1876 11.5833C16.217 11.5908 16.2378 11.6106 16.2501 11.6429L15.805 11.9256C15.5108 12.1141 15.3514 12.2083 15.3268 12.2083L15.3305 12.2232H15.3599C15.4286 12.2133 15.4715 12.2034 15.4887 12.1935V12.2083L15.5623 12.1786V12.1935L15.6616 12.1488V12.1637C15.9583 12.0744 16.1998 11.9752 16.3862 11.8661C16.6241 11.8065 16.7859 11.7421 16.8718 11.6726V11.6875L17.3389 11.494L17.7362 11.3155L17.7399 11.3304C18.0072 11.2212 18.1739 11.1667 18.2401 11.1667L18.2548 11.1964L18.2585 11.2262C18.001 11.3552 17.8649 11.4196 17.8502 11.4196V11.4345H17.8944L18.0672 11.375C18.0672 11.3849 18.0721 11.3899 18.082 11.3899C18.0795 11.3651 18.2181 11.3204 18.4976 11.256L19.9101 10.9137L19.9432 10.9583C19.904 10.9931 19.79 11.0377 19.6011 11.0923V11.0774L19.2296 11.2262L19.2333 11.256C19.2921 11.2485 19.3203 11.2386 19.3179 11.2262C19.3277 11.2262 19.3326 11.2311 19.3326 11.2411C19.3988 11.2311 19.443 11.2212 19.465 11.2113L19.4945 11.2262L19.5791 11.1964L19.5827 11.2113C19.8451 11.1121 19.9972 11.0625 20.0389 11.0625L20.0425 11.0774C20.3049 11.0278 20.4594 11.003 20.506 11.003C20.5256 11.0129 20.5403 11.0179 20.5502 11.0179L20.5538 11.0625C20.4312 11.1295 20.3368 11.1741 20.2706 11.1964C20.1602 11.256 19.9812 11.3849 19.7335 11.5833C19.6771 11.6329 19.644 11.6577 19.6342 11.6577C19.6342 11.6478 19.6293 11.6429 19.6195 11.6429C19.622 11.6776 19.4626 11.7619 19.1413 11.8958C19.0261 11.9901 18.8777 12.0843 18.6962 12.1786V12.2083L18.7551 12.1786V12.1935L19.2848 12.0149L19.3179 12.0595V12.0744C19.3056 12.1141 19.1364 12.1935 18.8103 12.3125C18.7343 12.3547 18.6975 12.3844 18.6999 12.4018C18.5528 12.5035 18.3897 12.6027 18.2107 12.6994L18.207 12.6845C18.0206 12.7614 17.8649 12.8805 17.7399 13.0417C17.5608 13.1086 17.2506 13.2723 16.8092 13.5327C16.6744 13.5774 16.5297 13.6567 16.3752 13.7708C16.0049 13.999 15.8038 14.1131 15.7719 14.1131H15.7425V14.0982C15.9338 13.9271 16.1814 13.7336 16.4855 13.5179H16.4561C16.4046 13.5625 16.32 13.6071 16.2023 13.6518L16.206 13.6815L16.1729 13.6667H16.1434C15.8099 13.8849 15.6137 13.994 15.5549 13.994C15.3072 14.1553 14.9332 14.314 14.433 14.4702L14.4367 14.4851H14.4514C14.6157 14.4554 14.764 14.4206 14.8965 14.381C14.8989 14.4008 14.9149 14.4107 14.9443 14.4107L14.948 14.4405C14.9161 14.4752 14.7456 14.5496 14.4367 14.6637C14.1988 14.8026 14.0112 14.8968 13.8739 14.9464C13.8739 14.9613 13.8408 14.9812 13.7746 15.006V14.9911C13.5931 15.058 13.5048 15.1225 13.5097 15.1845C13.4656 15.1845 13.3969 15.2986 13.3037 15.5268L13.3074 15.5417H13.2927L13.2596 15.5268C13.262 15.5367 13.2584 15.5516 13.2485 15.5714H13.2633C12.9641 16.1791 12.8035 16.5858 12.7814 16.7917C12.7569 16.9008 12.7323 16.9554 12.7078 16.9554H12.6784C12.6588 16.9554 12.6477 16.9454 12.6453 16.9256C12.6575 16.8289 12.7213 16.6057 12.8366 16.256C12.8341 16.2188 12.8832 16.0402 12.9837 15.7202H12.9543C12.9543 15.7401 12.9261 15.8145 12.8697 15.9435C12.8427 16.0923 12.8059 16.1815 12.7593 16.2113L12.763 16.2262C12.763 16.2361 12.7679 16.2411 12.7777 16.2411L12.4614 16.8512L12.3437 17.1637H12.3584C12.2995 17.2951 12.264 17.3943 12.2517 17.4613C12.2615 17.4613 12.2664 17.4663 12.2664 17.4762C12.2174 17.5308 12.161 17.62 12.0972 17.744C12.0997 17.7614 12.0923 17.7862 12.0751 17.8185C12.0849 17.8185 12.0898 17.8234 12.0898 17.8333C12.0384 17.8879 11.9856 18.0069 11.9317 18.1905C11.9194 18.1905 11.8875 18.2202 11.836 18.2798L11.8324 18.2351C11.8324 18.2153 11.8409 18.2054 11.8581 18.2054L11.825 18.1458C11.8888 18.0541 11.9403 17.9102 11.9795 17.7143C11.9991 17.7118 12.0114 17.682 12.0163 17.625H12.0016C11.982 17.6275 11.9721 17.6374 11.9721 17.6548C11.982 17.6548 11.9881 17.6597 11.9905 17.6696C11.9513 17.6696 11.9182 17.744 11.8912 17.8929C11.6803 18.2004 11.5565 18.4187 11.5197 18.5476C11.4854 18.5551 11.4437 18.6344 11.3946 18.7857H11.4093C11.4167 18.8651 11.3677 18.9742 11.2622 19.1131C11.2622 19.128 11.2291 19.2073 11.1629 19.3512C11.0697 19.5099 10.9925 19.6885 10.9312 19.8869L10.7951 20.1994C10.8 20.249 10.7828 20.2738 10.7436 20.2738L10.7215 20.1994C10.7411 20.1994 10.7693 20.0655 10.8061 19.7976C10.8282 19.7852 10.8931 19.5719 11.001 19.1577C10.9569 19.2123 10.8907 19.3661 10.8024 19.619C10.6749 19.8596 10.5204 20.2267 10.3389 20.7202C10.2899 20.807 10.2396 21.0104 10.1881 21.3304C10.1636 21.3725 10.1268 21.4023 10.0778 21.4196C10.0091 21.6032 9.96129 21.7917 9.93431 21.9851C9.9245 21.9851 9.90979 21.9901 9.89017 22C9.89017 21.9901 9.88527 21.9851 9.87546 21.9851C9.87301 21.9529 9.90366 21.7991 9.96742 21.5238C10.0189 21.318 10.0483 21.1493 10.0557 21.0179C10.1415 20.8492 10.1967 20.6855 10.2212 20.5268C10.3095 20.2019 10.3512 20.0035 10.3463 19.9315H10.3169C10.2041 20.1523 10.0937 20.4152 9.98581 20.7202C9.95883 20.7748 9.93309 20.8641 9.90856 20.9881L9.87914 21.003H9.835C9.83254 20.9608 9.84358 20.9112 9.8681 20.8542H9.85339C9.86565 20.7723 9.88281 20.6979 9.90488 20.631H9.89017C9.94412 20.4524 10.0017 20.1002 10.0631 19.5744C10.1023 19.5124 10.1403 19.3289 10.1771 19.0238L10.4383 18.1161C10.4235 18.1161 10.4064 18.1359 10.3868 18.1756C10.3966 18.1756 10.4015 18.1806 10.4015 18.1905C10.3254 18.2822 10.247 18.5055 10.1661 18.8601L10.1109 18.9196C10.0814 18.9097 10.0655 18.8998 10.0631 18.8899C10.0606 18.8601 10.1084 18.6766 10.2065 18.3393C10.1992 18.2475 10.2605 18.0491 10.3904 17.744C10.4346 17.4762 10.5229 17.1835 10.6553 16.8661L10.7803 16.4643H10.7656C10.7436 16.4841 10.7301 16.494 10.7252 16.494V16.4792L10.6957 16.494H10.6663C10.6516 16.494 10.6357 16.4742 10.6185 16.4345L10.6516 16.3304C10.6418 16.3304 10.6369 16.3254 10.6369 16.3155C10.6737 16.3155 10.7068 16.251 10.7362 16.122V16.1071C10.7264 16.1071 10.7215 16.1121 10.7215 16.122C10.6258 16.0923 10.5707 16.0774 10.556 16.0774C10.502 16.0774 10.3365 16.1518 10.0594 16.3006H9.98581C9.96129 16.2808 9.94657 16.2708 9.94167 16.2708C9.95883 16.1915 10.0373 16.0823 10.1771 15.9435C10.2899 15.7996 10.4579 15.6409 10.681 15.4673C10.6982 15.4573 10.7117 15.4524 10.7215 15.4524V15.4375H10.7068L10.0116 15.75C9.86933 15.8294 9.78472 15.869 9.75775 15.869L9.74304 15.8393L9.73936 15.8095L10.0116 15.5417C9.59467 15.6706 9.29672 15.8046 9.11771 15.9435C9.08338 15.9732 9.05027 15.9881 9.01839 15.9881L9 15.9583V15.9435C9.1643 15.7698 9.3286 15.631 9.4929 15.5268C9.51497 15.4871 9.57996 15.4375 9.68786 15.378C9.68541 15.3631 9.72587 15.3284 9.80925 15.2738C10.3806 14.7604 10.7423 14.4628 10.8944 14.381C10.9115 14.381 10.9974 14.2966 11.1519 14.128C11.2181 14.0933 11.2512 14.0685 11.2512 14.0536H11.2365C11.1555 14.1081 11.0415 14.1577 10.8944 14.2024H10.8797L10.8613 14.1429C11.261 13.8403 11.608 13.5972 11.9023 13.4137C11.9734 13.3542 12.0163 13.2847 12.031 13.2054C12.1021 12.9945 12.1977 12.8061 12.3179 12.6399C12.3792 12.439 12.4491 12.2803 12.5276 12.1637C12.557 12.124 12.5815 12.0645 12.6011 11.9851H12.5864L12.5129 12L12.4099 11.9851C12.324 12.005 12.2811 12.0248 12.2811 12.0446C12.286 12.0818 12.1463 12.1116 11.8618 12.1339C11.8348 12.1463 11.8213 12.1563 11.8213 12.1637C11.7821 12.1488 11.7612 12.1339 11.7588 12.119V12.1042C11.8741 11.9975 11.9403 11.9182 11.9574 11.8661V11.8512C11.8495 11.871 11.7588 11.8958 11.6852 11.9256L11.6815 11.9107L11.5969 11.9554V11.9405C11.1752 12.0893 10.8588 12.2381 10.6479 12.3869C10.6332 12.3869 10.6173 12.3671 10.6001 12.3274C10.8944 12.1265 11.131 11.9727 11.31 11.8661L11.3064 11.8363C11.2892 11.8537 11.2132 11.8686 11.0783 11.881L11.0746 11.8661L11.0489 11.881H11.0342C10.9851 11.881 10.9385 11.8561 10.8944 11.8065L10.8907 11.7619C10.9422 11.6974 10.9765 11.6429 10.9937 11.5982C10.9814 11.5784 10.9753 11.5635 10.9753 11.5536L10.9017 11.5685V11.5536L10.8723 11.5685C10.8625 11.5685 10.8576 11.5635 10.8576 11.5536C10.7889 11.5635 10.7558 11.5734 10.7583 11.5833L10.7252 11.5685H10.6663L10.67 11.5982H10.6258C10.4836 11.6379 10.3966 11.6577 10.3647 11.6577C10.3328 11.6478 10.312 11.628 10.3022 11.5982C10.3218 11.5337 10.3892 11.4692 10.5045 11.4048L10.5302 11.3601H10.5155C10.5008 11.3601 10.4481 11.375 10.3573 11.4048V11.3899L9.94167 11.5089L9.93799 11.494C9.80312 11.5536 9.67069 11.6032 9.54072 11.6429V11.628L9.5113 11.6429H9.46716C9.45735 11.6429 9.44141 11.623 9.41934 11.5833C9.41443 11.5486 9.55421 11.4643 9.83867 11.3304C9.8632 11.256 10.0876 11.1319 10.5118 10.9583C10.6001 10.8715 10.7203 10.7922 10.8723 10.7202V10.6905C10.8919 10.7004 10.9066 10.7054 10.9164 10.7054C10.9361 10.6954 10.9508 10.6905 10.9606 10.6905L10.9569 10.6607H10.9422L10.9128 10.6756V10.6607C10.7141 10.7202 10.4432 10.8194 10.0998 10.9583H10.041C10.0385 10.9484 10.0324 10.9335 10.0226 10.9137C10.3635 10.7649 10.6602 10.621 10.9128 10.4821C10.9912 10.4821 11.0844 10.4276 11.1923 10.3185C11.2389 10.2887 11.3431 10.244 11.505 10.1845C11.5393 10.1101 11.6178 10.0556 11.7404 10.0208C11.9636 9.92659 12.1646 9.81746 12.3437 9.69345C12.4834 9.61409 12.5582 9.57441 12.568 9.57441L12.5864 9.60417L12.5901 9.63393C12.5901 9.64137 12.5202 9.68601 12.3804 9.76786C12.2407 9.86706 12.172 9.92659 12.1745 9.94643H12.1892C12.3608 9.89683 12.5251 9.81746 12.6821 9.70833L12.9212 9.57441L12.9248 9.58929C13.045 9.51984 13.1725 9.46528 13.3074 9.4256C13.3049 9.41568 13.3086 9.41071 13.3184 9.41071L13.3221 9.4256C13.7365 9.23958 14.0394 9.11558 14.2307 9.05357C14.3508 8.97917 14.5164 8.90972 14.7273 8.84524C15.0706 8.70635 15.2508 8.63691 15.268 8.63691C15.268 8.62699 15.2729 8.62203 15.2827 8.62203C15.2827 8.63195 15.2876 8.63691 15.2974 8.63691C15.3734 8.56994 15.5733 8.5005 15.897 8.42857L15.9816 8.38393C15.984 8.39385 15.9902 8.39881 16 8.39881L15.9963 8.35417C15.8712 8.37153 15.7989 8.39137 15.7793 8.41369H15.7646L15.7351 8.39881V8.42857L15.7057 8.41369H15.6763C15.4752 8.46578 15.3759 8.51042 15.3783 8.54762H15.3195L15.3158 8.51786H15.3011C14.9087 8.63443 14.6721 8.72371 14.5912 8.78572C14.5617 8.79564 14.5225 8.8006 14.4734 8.8006L14.4551 8.77083C14.482 8.77083 14.5384 8.73611 14.6243 8.66667C14.6218 8.64683 14.8352 8.55754 15.2643 8.39881C15.7449 8.25 16.1165 8.12599 16.3789 8.02679C16.3789 8.03671 16.3838 8.04167 16.3936 8.04167C16.4328 7.99207 16.705 7.89782 17.2102 7.75893C17.7399 7.6002 18.3627 7.44147 19.0788 7.28274L19.0825 7.29762L19.1082 7.28274H19.2848C19.3338 7.28274 19.4454 7.2629 19.6195 7.22321C19.6293 7.22321 19.6342 7.22817 19.6342 7.2381C19.6637 7.2381 19.866 7.19345 20.2412 7.10417L20.2596 7.13393L20.2632 7.16369C20.197 7.20089 19.9371 7.26042 19.4834 7.34226H19.4393C19.4393 7.3621 19.4148 7.37202 19.3657 7.37202L19.3694 7.40179L19.3988 7.3869H19.6342L19.66 7.37202L19.6637 7.3869C19.6857 7.37698 19.7335 7.36706 19.8071 7.35714V7.37202C20.1014 7.33234 20.2706 7.30258 20.3147 7.28274L20.3184 7.29762C20.5636 7.22817 20.8518 7.15873 21.1828 7.08929C21.1804 7.07937 21.1841 7.0744 21.1939 7.0744L21.1975 7.08929L21.4845 7.02976C21.4943 7.02976 21.5004 7.03472 21.5029 7.04464C21.6426 7.02976 21.715 7.01488 21.7199 7ZM17.6479 7.22321H17.6626V7.2381C17.6381 7.2381 17.6148 7.24802 17.5927 7.26786V7.25298C17.5805 7.25298 17.5486 7.28274 17.4971 7.34226C17.399 7.3621 17.2126 7.41667 16.938 7.50595C16.9355 7.49603 16.9294 7.49107 16.9196 7.49107L16.9269 7.55059C16.7259 7.61012 16.4978 7.69941 16.2428 7.81845H16.1986L16.1949 7.77381C16.1949 7.76389 16.1998 7.75893 16.2096 7.75893L16.1913 7.72917L16.1876 7.6994C16.5628 7.46131 16.9429 7.31746 17.3279 7.26786L17.3573 7.28274C17.4456 7.2629 17.4885 7.24802 17.4861 7.2381C17.4959 7.2381 17.502 7.24306 17.5044 7.25298C17.5854 7.23313 17.6332 7.22321 17.6479 7.22321ZM20.4545 8.20536V8.22024H20.5134V8.19048C20.4962 8.2004 20.4766 8.20536 20.4545 8.20536ZM13.9364 8.88988C13.956 8.8998 13.9769 8.90476 13.9989 8.90476L13.9953 8.88988C14.0173 8.8998 14.0333 8.90476 14.0431 8.90476L14.0468 8.94941C13.8113 9.04861 13.663 9.09822 13.6017 9.09822C13.5919 9.08581 13.5845 9.06101 13.5796 9.02381C13.7169 8.94445 13.8359 8.8998 13.9364 8.88988ZM12.042 11.8363L12.0457 11.8661C12.0653 11.8561 12.08 11.8512 12.0898 11.8512L12.0862 11.8363H12.042ZM16.5002 13.5179V13.5327C16.5199 13.5327 16.5297 13.5228 16.5297 13.503L16.526 13.4881C16.5064 13.4906 16.4978 13.5005 16.5002 13.5179ZM9.20967 15.8095H9.22438C9.2391 15.8095 9.25258 15.7946 9.26484 15.7649C9.22561 15.7798 9.20722 15.7946 9.20967 15.8095ZM9.57751 16.3304C9.59958 16.3304 9.63759 16.37 9.69154 16.4494L9.69522 16.4792C9.69767 16.5312 9.59713 16.561 9.39359 16.5685L9.33106 16.5238C9.3286 16.494 9.37765 16.4395 9.47819 16.3601L9.55176 16.375C9.55912 16.3452 9.5677 16.3304 9.57751 16.3304ZM12.5754 17.3125H12.5901C12.6097 17.315 12.6208 17.3249 12.6232 17.3423V17.3571L12.5129 17.5804C12.5129 17.5853 12.5043 17.6002 12.4871 17.625C12.4258 17.6052 12.3927 17.5655 12.3878 17.506C12.4099 17.506 12.4454 17.4613 12.4945 17.372C12.5018 17.372 12.5153 17.3571 12.5349 17.3274H12.5791L12.5754 17.3125ZM9.99317 20.4673C9.98826 20.5293 9.97355 20.5789 9.94903 20.6161L9.9527 20.6607H9.96742C9.96496 20.6334 9.98458 20.5789 10.0263 20.497C10.0238 20.4772 10.0128 20.4673 9.99317 20.4673Z" fill="url(#paint0_linear)"/>
<path d="M21.7199 7L21.7493 7.01488H22.1466L22.2349 7C22.2545 7.00992 22.2692 7.01488 22.279 7.01488C22.2839 7.0744 22.2618 7.10417 22.2128 7.10417L22.2165 7.11905H22.3195C22.3293 7.11905 22.3329 7.11409 22.3305 7.10417L22.3636 7.11905H22.4225C22.4862 7.11905 22.55 7.12401 22.6137 7.13393C22.6481 7.12401 22.6971 7.11905 22.7609 7.11905C22.7609 7.12897 22.7658 7.13393 22.7756 7.13393C22.7756 7.12401 22.7805 7.11905 22.7903 7.11905V7.13393L22.8197 7.11905C22.8737 7.12897 22.9129 7.13393 22.9374 7.13393V7.11905C22.9767 7.13393 22.9975 7.14881 23 7.16369C23.0024 7.19593 22.8872 7.23065 22.6542 7.26786C22.588 7.26786 22.4421 7.34226 22.2165 7.49107C22.1968 7.51339 22.1404 7.53323 22.0473 7.55059L22.0436 7.53571C21.9774 7.55307 21.9443 7.56796 21.9443 7.58036L21.9148 7.56548H21.8707C21.8609 7.56548 21.856 7.57044 21.856 7.58036L21.8266 7.56548C21.7383 7.64236 21.6083 7.72173 21.4366 7.80357C21.3189 7.90278 21.2196 7.95238 21.1387 7.95238C21.0823 7.98214 21.0553 8.00695 21.0578 8.02679C21.048 8.02679 21.0431 8.02183 21.0431 8.01191C20.7758 8.06895 20.6041 8.12847 20.5281 8.19048V8.20536H20.5428C20.6679 8.17064 20.7292 8.14583 20.7267 8.13095L20.7598 8.14583L21.1608 8.04167L21.1644 8.05655C21.3263 7.99703 21.4796 7.96726 21.6242 7.96726L21.661 8.01191V8.02679L21.433 8.10119C21.4232 8.10119 21.417 8.09623 21.4146 8.08631L20.8555 8.25C20.8555 8.24008 20.8506 8.23512 20.8407 8.23512C20.8407 8.24504 20.8358 8.25 20.826 8.25C20.826 8.24008 20.8211 8.23512 20.8113 8.23512L20.7966 8.26488L20.7672 8.25C20.7353 8.25 20.6826 8.26488 20.609 8.29464V8.27976C20.5158 8.30953 20.4606 8.34921 20.4435 8.39881C20.4533 8.39881 20.4582 8.40377 20.4582 8.41369C20.3969 8.45833 20.2841 8.5129 20.1198 8.57738C20.1198 8.5873 20.1149 8.59226 20.1051 8.59226C20.1051 8.58234 20.1002 8.57738 20.0904 8.57738C20.083 8.60466 20.0168 8.63939 19.8917 8.68155L19.8954 8.69643L19.8623 8.68155C19.7127 8.73115 19.4479 8.84028 19.0678 9.00893C18.4351 9.24702 17.9078 9.4504 17.4861 9.61905C17.4664 9.61905 17.4566 9.60913 17.4566 9.58929L17.4529 9.57441C17.4505 9.54216 17.5817 9.47272 17.8465 9.36607C18.0893 9.28919 18.3309 9.18006 18.5712 9.03869L18.5675 9.02381H18.5234C18.2217 9.1131 18.0133 9.19742 17.898 9.27679L17.67 9.35119V9.36607H17.6553V9.33631L17.4824 9.39583V9.38095C17.0459 9.60665 16.7504 9.76538 16.5959 9.85714C16.4929 9.89931 16.4083 9.94891 16.3421 10.006H16.4009L16.4304 9.99107V10.006C16.5113 9.95139 16.6927 9.8869 16.9748 9.8125C16.9919 9.82242 17.0115 9.82738 17.0336 9.82738C17.0876 9.8001 17.1501 9.78026 17.2212 9.76786C17.2923 9.79266 17.3291 9.82738 17.3316 9.87202H17.3168C16.8362 10.0109 16.4598 10.1349 16.1876 10.244L16.1582 10.2292L15.6616 10.4673C15.5218 10.5094 15.3685 10.6582 15.2018 10.9137C15.2042 10.9583 15.138 11.1071 15.0031 11.3601C14.91 11.4668 14.8401 11.6255 14.7935 11.8363H14.8082C14.921 11.7545 14.9762 11.7049 14.9737 11.6875C15.0473 11.6379 15.1208 11.5784 15.1944 11.5089H15.2238C15.2435 11.5114 15.2533 11.5213 15.2533 11.5387L15.2569 11.5536C15.0828 11.7892 14.9676 11.933 14.9112 11.9851L14.8119 12.1935H14.8413C15.0816 12.0347 15.5304 11.8313 16.1876 11.5833C16.217 11.5908 16.2378 11.6106 16.2501 11.6429L15.805 11.9256C15.5108 12.1141 15.3514 12.2083 15.3268 12.2083L15.3305 12.2232H15.3599C15.4286 12.2133 15.4715 12.2034 15.4887 12.1935V12.2083L15.5623 12.1786V12.1935L15.6616 12.1488V12.1637C15.9583 12.0744 16.1998 11.9752 16.3862 11.8661C16.6241 11.8065 16.7859 11.7421 16.8718 11.6726V11.6875L17.3389 11.494L17.7362 11.3155L17.7399 11.3304C18.0072 11.2212 18.1739 11.1667 18.2401 11.1667L18.2548 11.1964L18.2585 11.2262C18.001 11.3552 17.8649 11.4196 17.8502 11.4196V11.4345H17.8944L18.0672 11.375C18.0672 11.3849 18.0721 11.3899 18.082 11.3899C18.0795 11.3651 18.2181 11.3204 18.4976 11.256L19.9101 10.9137L19.9432 10.9583C19.904 10.9931 19.79 11.0377 19.6011 11.0923V11.0774L19.2296 11.2262L19.2333 11.256C19.2921 11.2485 19.3203 11.2386 19.3179 11.2262C19.3277 11.2262 19.3326 11.2311 19.3326 11.2411C19.3988 11.2311 19.443 11.2212 19.465 11.2113L19.4945 11.2262L19.5791 11.1964L19.5827 11.2113C19.8451 11.1121 19.9972 11.0625 20.0389 11.0625L20.0425 11.0774C20.3049 11.0278 20.4594 11.003 20.506 11.003C20.5256 11.0129 20.5403 11.0179 20.5502 11.0179L20.5538 11.0625C20.4312 11.1295 20.3368 11.1741 20.2706 11.1964C20.1602 11.256 19.9812 11.3849 19.7335 11.5833C19.6771 11.6329 19.644 11.6577 19.6342 11.6577C19.6342 11.6478 19.6293 11.6429 19.6195 11.6429C19.622 11.6776 19.4626 11.7619 19.1413 11.8958C19.0261 11.9901 18.8777 12.0843 18.6962 12.1786V12.2083L18.7551 12.1786V12.1935L19.2848 12.0149L19.3179 12.0595V12.0744C19.3056 12.1141 19.1364 12.1935 18.8103 12.3125C18.7343 12.3547 18.6975 12.3844 18.6999 12.4018C18.5528 12.5035 18.3897 12.6027 18.2107 12.6994L18.207 12.6845C18.0206 12.7614 17.8649 12.8805 17.7399 13.0417C17.5608 13.1086 17.2506 13.2723 16.8092 13.5327C16.6744 13.5774 16.5297 13.6567 16.3752 13.7708C16.0049 13.999 15.8038 14.1131 15.7719 14.1131H15.7425V14.0982C15.9338 13.9271 16.1814 13.7336 16.4855 13.5179H16.4561C16.4046 13.5625 16.32 13.6071 16.2023 13.6518L16.206 13.6815L16.1729 13.6667H16.1434C15.8099 13.8849 15.6137 13.994 15.5549 13.994C15.3072 14.1553 14.9332 14.314 14.433 14.4702L14.4367 14.4851H14.4514C14.6157 14.4554 14.764 14.4206 14.8965 14.381C14.8989 14.4008 14.9149 14.4107 14.9443 14.4107L14.948 14.4405C14.9161 14.4752 14.7456 14.5496 14.4367 14.6637C14.1988 14.8026 14.0112 14.8968 13.8739 14.9464C13.8739 14.9613 13.8408 14.9812 13.7746 15.006V14.9911C13.5931 15.058 13.5048 15.1225 13.5097 15.1845C13.4656 15.1845 13.3969 15.2986 13.3037 15.5268L13.3074 15.5417H13.2927L13.2596 15.5268C13.262 15.5367 13.2584 15.5516 13.2485 15.5714H13.2633C12.9641 16.1791 12.8035 16.5858 12.7814 16.7917C12.7569 16.9008 12.7323 16.9554 12.7078 16.9554H12.6784C12.6588 16.9554 12.6477 16.9454 12.6453 16.9256C12.6575 16.8289 12.7213 16.6057 12.8366 16.256C12.8341 16.2188 12.8832 16.0402 12.9837 15.7202H12.9543C12.9543 15.7401 12.9261 15.8145 12.8697 15.9435C12.8427 16.0923 12.8059 16.1815 12.7593 16.2113L12.763 16.2262C12.763 16.2361 12.7679 16.2411 12.7777 16.2411L12.4614 16.8512L12.3437 17.1637H12.3584C12.2995 17.2951 12.264 17.3943 12.2517 17.4613C12.2615 17.4613 12.2664 17.4663 12.2664 17.4762C12.2174 17.5308 12.161 17.62 12.0972 17.744C12.0997 17.7614 12.0923 17.7862 12.0751 17.8185C12.0849 17.8185 12.0898 17.8234 12.0898 17.8333C12.0384 17.8879 11.9856 18.0069 11.9317 18.1905C11.9194 18.1905 11.8875 18.2202 11.836 18.2798L11.8324 18.2351C11.8324 18.2153 11.8409 18.2054 11.8581 18.2054L11.825 18.1458C11.8888 18.0541 11.9403 17.9102 11.9795 17.7143C11.9991 17.7118 12.0114 17.682 12.0163 17.625H12.0016C11.982 17.6275 11.9721 17.6374 11.9721 17.6548C11.982 17.6548 11.9881 17.6597 11.9905 17.6696C11.9513 17.6696 11.9182 17.744 11.8912 17.8929C11.6803 18.2004 11.5565 18.4187 11.5197 18.5476C11.4854 18.5551 11.4437 18.6344 11.3946 18.7857H11.4093C11.4167 18.8651 11.3677 18.9742 11.2622 19.1131C11.2622 19.128 11.2291 19.2073 11.1629 19.3512C11.0697 19.5099 10.9925 19.6885 10.9312 19.8869L10.7951 20.1994C10.8 20.249 10.7828 20.2738 10.7436 20.2738L10.7215 20.1994C10.7411 20.1994 10.7693 20.0655 10.8061 19.7976C10.8282 19.7852 10.8931 19.5719 11.001 19.1577C10.9569 19.2123 10.8907 19.3661 10.8024 19.619C10.6749 19.8596 10.5204 20.2267 10.3389 20.7202C10.2899 20.807 10.2396 21.0104 10.1881 21.3304C10.1636 21.3725 10.1268 21.4023 10.0778 21.4196C10.0091 21.6032 9.96129 21.7917 9.93431 21.9851C9.9245 21.9851 9.90979 21.9901 9.89017 22C9.89017 21.9901 9.88527 21.9851 9.87546 21.9851C9.87301 21.9529 9.90366 21.7991 9.96742 21.5238C10.0189 21.318 10.0483 21.1493 10.0557 21.0179C10.1415 20.8492 10.1967 20.6855 10.2212 20.5268C10.3095 20.2019 10.3512 20.0035 10.3463 19.9315H10.3169C10.2041 20.1523 10.0937 20.4152 9.98581 20.7202C9.95883 20.7748 9.93309 20.8641 9.90856 20.9881L9.87914 21.003H9.835C9.83254 20.9608 9.84358 20.9112 9.8681 20.8542H9.85339C9.86565 20.7723 9.88281 20.6979 9.90488 20.631H9.89017C9.94412 20.4524 10.0017 20.1002 10.0631 19.5744C10.1023 19.5124 10.1403 19.3289 10.1771 19.0238L10.4383 18.1161C10.4235 18.1161 10.4064 18.1359 10.3868 18.1756C10.3966 18.1756 10.4015 18.1806 10.4015 18.1905C10.3254 18.2822 10.247 18.5055 10.1661 18.8601L10.1109 18.9196C10.0814 18.9097 10.0655 18.8998 10.0631 18.8899C10.0606 18.8601 10.1084 18.6766 10.2065 18.3393C10.1992 18.2475 10.2605 18.0491 10.3904 17.744C10.4346 17.4762 10.5229 17.1835 10.6553 16.8661L10.7803 16.4643H10.7656C10.7436 16.4841 10.7301 16.494 10.7252 16.494V16.4792L10.6957 16.494H10.6663C10.6516 16.494 10.6357 16.4742 10.6185 16.4345L10.6516 16.3304C10.6418 16.3304 10.6369 16.3254 10.6369 16.3155C10.6737 16.3155 10.7068 16.251 10.7362 16.122V16.1071C10.7264 16.1071 10.7215 16.1121 10.7215 16.122C10.6258 16.0923 10.5707 16.0774 10.556 16.0774C10.502 16.0774 10.3365 16.1518 10.0594 16.3006H9.98581C9.96129 16.2808 9.94657 16.2708 9.94167 16.2708C9.95883 16.1915 10.0373 16.0823 10.1771 15.9435C10.2899 15.7996 10.4579 15.6409 10.681 15.4673C10.6982 15.4573 10.7117 15.4524 10.7215 15.4524V15.4375H10.7068L10.0116 15.75C9.86933 15.8294 9.78472 15.869 9.75775 15.869L9.74304 15.8393L9.73936 15.8095L10.0116 15.5417C9.59467 15.6706 9.29672 15.8046 9.11771 15.9435C9.08338 15.9732 9.05027 15.9881 9.01839 15.9881L9 15.9583V15.9435C9.1643 15.7698 9.3286 15.631 9.4929 15.5268C9.51497 15.4871 9.57996 15.4375 9.68786 15.378C9.68541 15.3631 9.72587 15.3284 9.80925 15.2738C10.3806 14.7604 10.7423 14.4628 10.8944 14.381C10.9115 14.381 10.9974 14.2966 11.1519 14.128C11.2181 14.0933 11.2512 14.0685 11.2512 14.0536H11.2365C11.1555 14.1081 11.0415 14.1577 10.8944 14.2024H10.8797L10.8613 14.1429C11.261 13.8403 11.608 13.5972 11.9023 13.4137C11.9734 13.3542 12.0163 13.2847 12.031 13.2054C12.1021 12.9945 12.1977 12.8061 12.3179 12.6399C12.3792 12.439 12.4491 12.2803 12.5276 12.1637C12.557 12.124 12.5815 12.0645 12.6011 11.9851H12.5864L12.5129 12L12.4099 11.9851C12.324 12.005 12.2811 12.0248 12.2811 12.0446C12.286 12.0818 12.1463 12.1116 11.8618 12.1339C11.8348 12.1463 11.8213 12.1563 11.8213 12.1637C11.7821 12.1488 11.7612 12.1339 11.7588 12.119V12.1042C11.8741 11.9975 11.9403 11.9182 11.9574 11.8661V11.8512C11.8495 11.871 11.7588 11.8958 11.6852 11.9256L11.6815 11.9107L11.5969 11.9554V11.9405C11.1752 12.0893 10.8588 12.2381 10.6479 12.3869C10.6332 12.3869 10.6173 12.3671 10.6001 12.3274C10.8944 12.1265 11.131 11.9727 11.31 11.8661L11.3064 11.8363C11.2892 11.8537 11.2132 11.8686 11.0783 11.881L11.0746 11.8661L11.0489 11.881H11.0342C10.9851 11.881 10.9385 11.8561 10.8944 11.8065L10.8907 11.7619C10.9422 11.6974 10.9765 11.6429 10.9937 11.5982C10.9814 11.5784 10.9753 11.5635 10.9753 11.5536L10.9017 11.5685V11.5536L10.8723 11.5685C10.8625 11.5685 10.8576 11.5635 10.8576 11.5536C10.7889 11.5635 10.7558 11.5734 10.7583 11.5833L10.7252 11.5685H10.6663L10.67 11.5982H10.6258C10.4836 11.6379 10.3966 11.6577 10.3647 11.6577C10.3328 11.6478 10.312 11.628 10.3022 11.5982C10.3218 11.5337 10.3892 11.4692 10.5045 11.4048L10.5302 11.3601H10.5155C10.5008 11.3601 10.4481 11.375 10.3573 11.4048V11.3899L9.94167 11.5089L9.93799 11.494C9.80312 11.5536 9.67069 11.6032 9.54072 11.6429V11.628L9.5113 11.6429H9.46716C9.45735 11.6429 9.44141 11.623 9.41934 11.5833C9.41443 11.5486 9.55421 11.4643 9.83867 11.3304C9.8632 11.256 10.0876 11.1319 10.5118 10.9583C10.6001 10.8715 10.7203 10.7922 10.8723 10.7202V10.6905C10.8919 10.7004 10.9066 10.7054 10.9164 10.7054C10.9361 10.6954 10.9508 10.6905 10.9606 10.6905L10.9569 10.6607H10.9422L10.9128 10.6756V10.6607C10.7141 10.7202 10.4432 10.8194 10.0998 10.9583H10.041C10.0385 10.9484 10.0324 10.9335 10.0226 10.9137C10.3635 10.7649 10.6602 10.621 10.9128 10.4821C10.9912 10.4821 11.0844 10.4276 11.1923 10.3185C11.2389 10.2887 11.3431 10.244 11.505 10.1845C11.5393 10.1101 11.6178 10.0556 11.7404 10.0208C11.9636 9.92659 12.1646 9.81746 12.3437 9.69345C12.4834 9.61409 12.5582 9.57441 12.568 9.57441L12.5864 9.60417L12.5901 9.63393C12.5901 9.64137 12.5202 9.68601 12.3804 9.76786C12.2407 9.86706 12.172 9.92659 12.1745 9.94643H12.1892C12.3608 9.89683 12.5251 9.81746 12.6821 9.70833L12.9212 9.57441L12.9248 9.58929C13.045 9.51984 13.1725 9.46528 13.3074 9.4256C13.3049 9.41568 13.3086 9.41071 13.3184 9.41071L13.3221 9.4256C13.7365 9.23958 14.0394 9.11558 14.2307 9.05357C14.3508 8.97917 14.5164 8.90972 14.7273 8.84524C15.0706 8.70635 15.2508 8.63691 15.268 8.63691C15.268 8.62699 15.2729 8.62203 15.2827 8.62203C15.2827 8.63195 15.2876 8.63691 15.2974 8.63691C15.3734 8.56994 15.5733 8.5005 15.897 8.42857L15.9816 8.38393C15.984 8.39385 15.9902 8.39881 16 8.39881L15.9963 8.35417C15.8712 8.37153 15.7989 8.39137 15.7793 8.41369H15.7646L15.7351 8.39881V8.42857L15.7057 8.41369H15.6763C15.4752 8.46578 15.3759 8.51042 15.3783 8.54762H15.3195L15.3158 8.51786H15.3011C14.9087 8.63443 14.6721 8.72371 14.5912 8.78572C14.5617 8.79564 14.5225 8.8006 14.4734 8.8006L14.4551 8.77083C14.482 8.77083 14.5384 8.73611 14.6243 8.66667C14.6218 8.64683 14.8352 8.55754 15.2643 8.39881C15.7449 8.25 16.1165 8.12599 16.3789 8.02679C16.3789 8.03671 16.3838 8.04167 16.3936 8.04167C16.4328 7.99207 16.705 7.89782 17.2102 7.75893C17.7399 7.6002 18.3627 7.44147 19.0788 7.28274L19.0825 7.29762L19.1082 7.28274H19.2848C19.3338 7.28274 19.4454 7.2629 19.6195 7.22321C19.6293 7.22321 19.6342 7.22817 19.6342 7.2381C19.6637 7.2381 19.866 7.19345 20.2412 7.10417L20.2596 7.13393L20.2632 7.16369C20.197 7.20089 19.9371 7.26042 19.4834 7.34226H19.4393C19.4393 7.3621 19.4148 7.37202 19.3657 7.37202L19.3694 7.40179L19.3988 7.3869H19.6342L19.66 7.37202L19.6637 7.3869C19.6857 7.37698 19.7335 7.36706 19.8071 7.35714V7.37202C20.1014 7.33234 20.2706 7.30258 20.3147 7.28274L20.3184 7.29762C20.5636 7.22817 20.8518 7.15873 21.1828 7.08929C21.1804 7.07937 21.1841 7.0744 21.1939 7.0744L21.1975 7.08929L21.4845 7.02976C21.4943 7.02976 21.5004 7.03472 21.5029 7.04464C21.6426 7.02976 21.715 7.01488 21.7199 7ZM17.6479 7.22321H17.6626V7.2381C17.6381 7.2381 17.6148 7.24802 17.5927 7.26786V7.25298C17.5805 7.25298 17.5486 7.28274 17.4971 7.34226C17.399 7.3621 17.2126 7.41667 16.938 7.50595C16.9355 7.49603 16.9294 7.49107 16.9196 7.49107L16.9269 7.55059C16.7259 7.61012 16.4978 7.69941 16.2428 7.81845H16.1986L16.1949 7.77381C16.1949 7.76389 16.1998 7.75893 16.2096 7.75893L16.1913 7.72917L16.1876 7.6994C16.5628 7.46131 16.9429 7.31746 17.3279 7.26786L17.3573 7.28274C17.4456 7.2629 17.4885 7.24802 17.4861 7.2381C17.4959 7.2381 17.502 7.24306 17.5044 7.25298C17.5854 7.23313 17.6332 7.22321 17.6479 7.22321ZM20.4545 8.20536V8.22024H20.5134V8.19048C20.4962 8.2004 20.4766 8.20536 20.4545 8.20536ZM13.9364 8.88988C13.956 8.8998 13.9769 8.90476 13.9989 8.90476L13.9953 8.88988C14.0173 8.8998 14.0333 8.90476 14.0431 8.90476L14.0468 8.94941C13.8113 9.04861 13.663 9.09822 13.6017 9.09822C13.5919 9.08581 13.5845 9.06101 13.5796 9.02381C13.7169 8.94445 13.8359 8.8998 13.9364 8.88988ZM12.042 11.8363L12.0457 11.8661C12.0653 11.8561 12.08 11.8512 12.0898 11.8512L12.0862 11.8363H12.042ZM16.5002 13.5179V13.5327C16.5199 13.5327 16.5297 13.5228 16.5297 13.503L16.526 13.4881C16.5064 13.4906 16.4978 13.5005 16.5002 13.5179ZM9.20967 15.8095H9.22438C9.2391 15.8095 9.25258 15.7946 9.26484 15.7649C9.22561 15.7798 9.20722 15.7946 9.20967 15.8095ZM9.57751 16.3304C9.59958 16.3304 9.63759 16.37 9.69154 16.4494L9.69522 16.4792C9.69767 16.5312 9.59713 16.561 9.39359 16.5685L9.33106 16.5238C9.3286 16.494 9.37765 16.4395 9.47819 16.3601L9.55176 16.375C9.55912 16.3452 9.5677 16.3304 9.57751 16.3304ZM12.5754 17.3125H12.5901C12.6097 17.315 12.6208 17.3249 12.6232 17.3423V17.3571L12.5129 17.5804C12.5129 17.5853 12.5043 17.6002 12.4871 17.625C12.4258 17.6052 12.3927 17.5655 12.3878 17.506C12.4099 17.506 12.4454 17.4613 12.4945 17.372C12.5018 17.372 12.5153 17.3571 12.5349 17.3274H12.5791L12.5754 17.3125ZM9.99317 20.4673C9.98826 20.5293 9.97355 20.5789 9.94903 20.6161L9.9527 20.6607H9.96742C9.96496 20.6334 9.98458 20.5789 10.0263 20.497C10.0238 20.4772 10.0128 20.4673 9.99317 20.4673Z" fill="url(#paint1_linear)"/>
<defs>
<linearGradient id="paint0_linear" x1="27.0091" y1="-7.35714" x2="10.6235" y2="22.4635" gradientUnits="userSpaceOnUse">
<stop offset="0.587669" stop-color="#F1FC68"/>
<stop offset="1" stop-color="#FF9001"/>
</linearGradient>
<linearGradient id="paint1_linear" x1="16.0099" y1="-0.367267" x2="1.09821" y2="13.6754" gradientUnits="userSpaceOnUse">
<stop stop-color="#C4EB89"/>
<stop offset="1" stop-color="#5EC4D6"/>
</linearGradient>
</defs>
</svg>
