<svg width="25" height="26" viewBox="0 0 25 26" fill="none" xmlns="http://www.w3.org/2000/svg">
<circle cx="12.3944" cy="12.8944" r="12.3944" fill="white"/>
<path d="M13.3526 5.31953C13.1566 5.74824 13.5975 5.9626 13.8523 6.2103C15.7975 8.10617 17.6938 10.0449 19.5949 11.9789C19.7811 12.1694 19.977 12.2456 20.2514 12.2028C20.8933 12.1075 21.4862 12.7363 21.3931 13.2841C21.3049 13.8128 20.7463 14.2558 20.2563 14.151C19.977 14.0939 19.8056 14.1701 19.6341 14.3416C17.6497 16.2756 15.6799 18.2238 13.6612 20.1245C13.4309 20.3388 13.2889 20.5389 13.3428 20.8533C13.4113 21.2629 13.1566 21.5535 12.8822 21.7822C12.5343 22.0727 11.6719 21.8346 11.4759 21.4154C11.3828 21.2105 11.231 21.0152 11.3632 20.739C11.4318 20.6008 11.275 20.3865 11.1281 20.2531C8.99665 18.2667 6.87505 16.2517 4.78775 14.232C4.60646 13.9938 4.42026 14.0129 4.18018 14.0748C3.80289 14.1701 3.43541 14.151 3.15122 13.8509C2.91113 13.5985 2.70534 13.3031 2.84744 12.9554C3.00423 12.5743 3.28842 12.2123 3.7441 12.2409C4.24877 12.2742 4.54766 12.0456 4.86614 11.736C5.8265 10.7928 6.80155 9.87343 7.77171 8.93978C8.86926 7.89658 9.93251 6.81526 11.0791 5.82922C11.2652 5.69108 11.3142 5.51483 11.3044 5.29571C11.231 3.83808 13.4554 3.6666 13.3526 5.31953ZM8.68797 11.7455C8.83986 11.9551 8.95745 12.2409 9.01135 12.5505C9.46703 12.7839 9.99621 13.0126 10.4911 13.1936C10.7998 13.2984 11.0693 13.4842 11.3975 13.5413C11.4857 13.5556 11.5739 13.6461 11.6523 13.5556C11.7699 13.4222 11.9414 13.3555 12.2991 13.3222C12.2991 13.3222 12.7793 13.3365 12.9606 13.5651C13.0145 13.6366 13.1223 13.6318 13.1909 13.589C13.3575 13.4889 13.5583 13.4746 13.72 13.3794C14.3325 13.0364 15.0381 12.903 15.6309 12.5219C15.6064 12.1647 15.9004 11.8931 15.92 11.5502C15.4546 10.4927 14.7392 9.52569 14.1953 8.49678C13.8033 7.86323 13.4016 7.22969 13.0684 6.56756C12.8626 6.1579 12.5931 6.02452 12.1472 6.03882C11.8287 6.04358 11.6964 6.25317 11.618 6.49611C10.7214 7.96803 9.91291 9.48282 9.02605 10.9595C8.89866 11.1929 8.67327 11.3835 8.68797 11.7455ZM12.1325 17.5045C12.1227 16.7853 12.1325 16.0469 12.1276 15.3229C12.1276 15.1466 12.1374 14.9751 11.9218 14.8846C11.6033 14.7512 11.4367 14.5083 11.4465 14.1653C11.4514 14.0034 11.3926 13.8795 11.2065 13.8414C10.9909 13.7985 10.8194 13.6556 10.6038 13.589C10.1579 13.446 9.73652 13.2222 9.29554 13.0554C9.07505 12.9745 8.85456 12.8554 8.59977 13.0411C8.17839 13.3508 7.80111 13.2793 7.42383 12.903C7.30133 12.7792 7.16414 12.5743 6.94365 12.6696C6.57616 12.8316 6.16948 12.7363 5.8118 12.8411C5.43942 12.9506 4.90044 12.8411 4.78775 13.4365C4.75345 13.6175 4.72895 13.7223 4.87104 13.8557C7.03674 15.9374 9.19264 18.0285 11.4024 20.0625C11.4857 20.134 11.5347 20.2293 11.667 20.1959C11.9169 20.134 12.1276 19.8958 12.1276 19.6386C12.1325 18.9288 12.1325 18.2191 12.1325 17.5045ZM12.5098 17.4617C12.5 18.181 12.5098 18.9145 12.5049 19.6433C12.5049 19.8387 12.4951 20.0292 12.7793 20.0387C12.9312 20.0578 12.9753 20.315 13.1566 20.1483C15.2194 18.1667 17.2528 16.1565 19.3156 14.1701C19.4822 14.0081 19.5704 13.8509 19.4822 13.6413C19.345 13.3127 19.247 12.9364 18.7374 12.9887C18.6492 12.9983 18.5463 12.9506 18.463 12.9125C18.1347 12.7649 17.7868 12.8125 17.4439 12.7887C17.3459 12.7839 17.2528 12.8316 17.1646 12.9268C16.8216 13.2936 16.4639 13.327 16.0082 13.065C15.871 12.9887 15.7338 12.9506 15.5721 12.9887C14.847 13.1888 14.2002 13.5556 13.4995 13.8081C13.2497 13.9176 13.1566 14.0272 13.1468 14.2654C13.137 14.5274 12.9949 14.737 12.7597 14.8322C12.5294 14.9275 12.5 15.0752 12.5049 15.2752C12.5147 16.0088 12.5098 16.7376 12.5098 17.4617ZM5.09643 12.6553C5.64031 12.6744 6.14008 12.4124 6.67416 12.4124C6.95835 12.4076 7.14944 12.3171 7.30133 12.0551C7.43363 11.8265 7.60512 11.5454 7.9579 11.593C8.25679 11.6312 8.40868 11.4359 8.49198 11.2453C9.29554 9.6686 10.202 8.14904 11.1085 6.61996C11.1673 6.52469 11.3191 6.40084 11.2016 6.31033C11.0595 6.20554 11.0154 6.458 10.8782 6.47229C10.1971 7.14871 9.48663 7.8156 8.79086 8.48249C7.49732 9.71147 6.15968 10.9023 4.88574 12.1551C4.75835 12.279 4.64075 12.3933 4.71915 12.56C4.78775 12.7172 4.95924 12.6363 5.09643 12.6553ZM13.4995 6.55327C14.1708 7.86323 14.9401 9.05887 15.6652 10.3212C15.871 10.707 16.0817 11.0881 16.3267 11.4501C16.3904 11.5406 16.4492 11.593 16.5521 11.5835C17.0029 11.5502 17.2087 11.8455 17.3704 12.179C17.4341 12.3123 17.5076 12.3886 17.6644 12.4171C18.1788 12.5029 18.6884 12.6029 19.198 12.7077C19.4332 12.7553 19.5606 12.6363 19.5067 12.4124C17.7085 10.4736 15.6946 8.6635 13.8719 6.72476C13.7984 6.63902 13.7249 6.47229 13.4995 6.55327ZM3.20512 13.1602C3.19532 14.0415 4.46436 14.0701 4.52316 13.2126C4.62115 12.379 3.16102 12.3219 3.20512 13.1602ZM20.9962 13.1888C21.0648 12.36 19.6782 12.3838 19.6929 13.1602C19.7811 13.9843 20.9276 14.1034 20.9962 13.1888ZM12.9704 20.939C12.8871 20.0244 11.7797 20.0673 11.6768 20.9295C11.7356 21.8107 12.9459 21.8679 12.9704 20.939ZM12.9606 5.12422C12.9606 4.84794 12.6568 4.48592 12.4118 4.47163C12.0639 4.45257 11.6866 4.79554 11.6866 5.12899C11.7895 5.96736 12.8969 5.99594 12.9606 5.12422ZM12.7842 14.151C12.7401 13.4175 11.8336 13.527 11.7601 14.1653C11.7601 14.3606 12.108 14.6703 12.3187 14.6607C12.5637 14.6607 12.7842 14.4178 12.7842 14.151ZM8.55567 12.3933C8.62917 11.736 7.55612 11.7884 7.60022 12.4028C7.60022 12.741 7.72271 12.8506 8.09019 12.8458C8.46258 12.8458 8.56057 12.7506 8.55567 12.3933ZM16.5227 12.8411C16.8755 12.8411 17.0029 12.7172 16.998 12.3885C16.9931 12.0789 16.851 11.9503 16.5031 11.9503C16.1797 11.9503 16.0719 12.0599 16.067 12.3838C16.0621 12.741 16.165 12.8411 16.5227 12.8411Z" fill="black"/>
<path d="M12.4544 22.1951C12.3515 22.1951 12.2388 22.1808 12.1261 22.157C11.793 22.0856 11.3814 21.8807 11.2246 21.533L11.1805 21.4425C11.0874 21.2567 10.9453 20.9804 11.1119 20.6279C11.0972 20.6518 11.0531 20.5565 10.9404 20.4565C8.7747 18.4367 6.6433 16.4123 4.59519 14.4306C4.4972 14.3068 4.4727 14.2877 4.25711 14.3449C3.71323 14.483 3.27225 14.3782 2.95377 14.0448C2.79207 13.8733 2.36579 13.4255 2.59608 12.8587C2.84107 12.2633 3.26245 11.9441 3.77203 11.9727C4.14441 12.0013 4.3698 11.8488 4.67359 11.5487C5.36936 10.8676 6.07002 10.1959 6.77069 9.52425L7.57915 8.75256C7.88784 8.45723 8.19652 8.15713 8.50521 7.86179C9.27447 7.11868 10.0682 6.347 10.8963 5.63248C10.9894 5.56102 11.0384 5.48957 11.0237 5.32285C10.9943 4.77981 11.2344 4.32252 11.6754 4.06529C12.1016 3.82235 12.6308 3.81758 13.0326 4.05576C13.2776 4.20343 13.6794 4.56545 13.6304 5.35143L13.6059 5.4467C13.5471 5.58008 13.5863 5.64677 13.8607 5.87065C13.9244 5.92305 13.993 5.98021 14.0469 6.03261C16.0166 7.9523 17.9373 9.91009 19.7943 11.806C19.9266 11.9393 20.0295 11.9774 20.2059 11.9489C20.593 11.8917 20.9947 12.0298 21.2936 12.3252C21.5876 12.6158 21.7297 12.9968 21.6709 13.3493C21.6121 13.7018 21.3867 14.04 21.0682 14.2496C20.7938 14.4306 20.4852 14.4973 20.1961 14.4402C20.0393 14.4068 19.9609 14.4306 19.8335 14.5545L18.5644 15.793C17.0308 17.2935 15.4433 18.8416 13.8558 20.3374C13.6451 20.5327 13.5912 20.647 13.6206 20.828C13.7137 21.3901 13.3511 21.7712 13.0669 22.0094C12.915 22.1284 12.6994 22.1951 12.4544 22.1951ZM11.9644 20.9376C11.9938 21.2186 12.2045 21.3282 12.3662 21.3425C12.5622 21.3377 12.6798 21.1948 12.6945 20.9519C12.6602 20.6565 12.4936 20.547 12.3466 20.547H12.3417C12.18 20.547 12.0085 20.6661 11.9644 20.9376ZM7.04508 12.9254C6.80989 13.0397 6.5502 13.054 6.32481 13.0635C6.16802 13.0683 6.02592 13.0778 5.89853 13.1112C5.79564 13.1397 5.68294 13.1588 5.56535 13.1731C5.23216 13.2207 5.11947 13.2493 5.07047 13.4922C5.06067 13.5542 5.04597 13.6209 5.05087 13.6399L6.09452 14.645C7.88784 16.3694 9.74485 18.1557 11.6068 19.8706C11.6215 19.8848 11.6411 19.8991 11.6607 19.923C11.7685 19.8753 11.8616 19.7562 11.8616 19.6467C11.8616 19.1322 11.8616 18.6225 11.8616 18.1081V17.5126C11.8567 17.103 11.8567 16.6885 11.8567 16.2741C11.8567 15.9597 11.8567 15.6453 11.8567 15.3309C11.8567 15.2547 11.8567 15.1738 11.8469 15.1547C11.3961 14.9689 11.1658 14.6212 11.1756 14.1687C11.1756 14.1258 11.1707 14.1115 11.1707 14.1115C10.9992 14.0924 10.8669 14.021 10.7493 13.9591C10.6807 13.921 10.6072 13.8828 10.5288 13.859C10.2544 13.7733 9.98984 13.6542 9.73505 13.5446C9.55866 13.4684 9.38717 13.3874 9.20588 13.3208L9.13728 13.2922C8.93149 13.2112 8.87759 13.2017 8.7796 13.2684C8.41701 13.5351 7.85354 13.7209 7.23127 13.1016L7.16267 13.0302C7.12837 12.9968 7.06958 12.9349 7.04508 12.9254ZM12.7974 19.7658L12.8268 19.7705C12.9248 19.7848 12.9983 19.8277 13.0522 19.8706C14.1252 18.8369 15.1934 17.7984 16.2567 16.76C17.2121 15.8311 18.1627 14.8975 19.123 13.9733C19.2651 13.8352 19.2455 13.7923 19.2259 13.7447L19.1867 13.6447C19.0495 13.3112 19.0005 13.235 18.7751 13.2636C18.6085 13.2826 18.4517 13.2112 18.3489 13.1636C18.1627 13.0778 17.9471 13.0778 17.7217 13.0778C17.6286 13.0778 17.5306 13.0778 17.4375 13.0683C17.4375 13.0683 17.4179 13.0778 17.3885 13.1159C16.9622 13.5732 16.4575 13.6399 15.8794 13.3112C15.7765 13.2541 15.7177 13.2493 15.6589 13.2636C15.2522 13.3779 14.8651 13.5446 14.4584 13.7256C14.1791 13.8495 13.8999 13.9734 13.6157 14.0781C13.4491 14.1496 13.4491 14.1829 13.4442 14.2877C13.4295 14.6545 13.2188 14.9594 12.8856 15.0975C12.8121 15.1261 12.7974 15.1309 12.8023 15.2881C12.8072 15.8168 12.8023 16.3503 12.8023 16.8791V17.4698C12.7974 17.8699 12.7974 18.27 12.7974 18.6749C12.7974 18.9988 12.7974 19.3228 12.7974 19.6467C12.7925 19.6895 12.7925 19.7324 12.7974 19.7658ZM12.3221 13.921C12.2045 13.921 12.0673 14.0162 12.0477 14.1972C12.0673 14.2258 12.2486 14.3782 12.327 14.3925C12.3956 14.3925 12.5034 14.2877 12.5132 14.1591C12.5034 14.0496 12.4642 13.9257 12.3319 13.921C12.3221 13.921 12.3221 13.921 12.3221 13.921ZM19.7992 13.8971C19.7992 13.9067 19.7943 13.9114 19.7943 13.921C19.8041 13.9162 19.809 13.9162 19.8188 13.9114C19.8139 13.9067 19.8041 13.9019 19.7992 13.8971ZM3.85043 12.8349C3.76713 12.8349 3.68383 12.8539 3.62014 12.8873C3.52214 12.9397 3.48294 13.0207 3.48784 13.1445V13.1636C3.48294 13.4541 3.67403 13.5589 3.85043 13.5685C4.03172 13.5637 4.22281 13.4827 4.24241 13.2017C4.25711 13.0635 4.21791 12.973 4.11991 12.9111C4.04642 12.8587 3.94842 12.8349 3.85043 12.8349ZM20.3676 12.8492C20.2843 12.8492 20.1961 12.8682 20.1275 12.9063C20.0246 12.9635 19.9756 13.0445 19.9805 13.1588C20.0099 13.416 20.1912 13.5589 20.397 13.5589C20.5832 13.5589 20.7007 13.416 20.7203 13.1731C20.7301 13.054 20.6958 12.9683 20.6077 12.9159C20.5391 12.8682 20.4558 12.8492 20.3676 12.8492ZM12.278 13.054C12.4054 13.054 12.8513 13.0826 13.1159 13.3255C13.209 13.2779 13.3021 13.2541 13.3854 13.2255C13.4589 13.2017 13.5324 13.1826 13.5765 13.154C13.8803 12.9825 14.1987 12.8635 14.5025 12.7491C14.8063 12.6348 15.0905 12.5252 15.3551 12.3776C15.3796 12.1918 15.4531 12.0346 15.5217 11.8917C15.5707 11.7869 15.6148 11.6916 15.6344 11.6011C15.3649 11.0057 15.0072 10.4245 14.6642 9.86246C14.4192 9.46232 14.1693 9.05266 13.944 8.63348L13.797 8.40006C13.4638 7.85226 13.111 7.28541 12.817 6.6995C12.6651 6.3994 12.5181 6.31842 12.1604 6.32318C12.0526 6.32795 11.9693 6.347 11.891 6.58994L11.8665 6.6471C11.3961 7.42355 10.9355 8.22858 10.4945 9.00503C10.0927 9.71002 9.69096 10.415 9.27447 11.1105C9.24018 11.1677 9.20098 11.2296 9.15688 11.2915C9.06378 11.4201 8.99029 11.5249 8.97559 11.6678C9.10788 11.8727 9.20588 12.1156 9.26468 12.3728C9.66156 12.5729 10.127 12.773 10.5925 12.9444C10.715 12.9873 10.8375 13.0445 10.96 13.1016C11.1266 13.1778 11.2834 13.2541 11.45 13.2826C11.4794 13.2874 11.5088 13.2969 11.5333 13.3017C11.7195 13.1445 11.9693 13.0873 12.278 13.054ZM7.90744 12.5586C7.90744 12.5586 7.94664 12.5729 8.09363 12.5776C8.21122 12.5776 8.26022 12.5634 8.27492 12.5586C8.27002 12.5538 8.27982 12.511 8.27982 12.4014V12.3681C8.28962 12.2633 8.25042 12.2394 8.23082 12.2299C8.16223 12.187 8.04463 12.1918 7.96624 12.2347C7.90744 12.268 7.88294 12.3157 7.88784 12.3871C7.88784 12.5205 7.90254 12.5538 7.90744 12.5586ZM16.3693 12.5634C16.3791 12.5634 16.4232 12.5729 16.5261 12.5729C16.6731 12.5824 16.6976 12.5491 16.7025 12.5491C16.7025 12.5491 16.7221 12.5157 16.7221 12.4014C16.7172 12.2585 16.7025 12.2251 16.5065 12.2347C16.4085 12.2347 16.3742 12.249 16.3644 12.249C16.3644 12.249 16.3497 12.2871 16.3497 12.3966C16.3497 12.511 16.3644 12.5538 16.3693 12.5634ZM17.2807 12.5252C17.2807 12.53 17.2807 12.5395 17.2807 12.5443C17.2856 12.5443 17.2905 12.5395 17.3003 12.5395C17.2905 12.5348 17.2856 12.53 17.2807 12.5252ZM19.8041 12.449C19.8041 12.4538 19.8041 12.4586 19.8041 12.4586C19.809 12.4586 19.8139 12.4538 19.8139 12.4538C19.809 12.449 19.809 12.449 19.8041 12.449ZM4.3796 12.4205C4.3894 12.4252 4.3992 12.43 4.409 12.4395C4.409 12.43 4.409 12.4205 4.409 12.4109C4.4041 12.4109 4.3894 12.4157 4.3796 12.4205ZM16.6241 11.3106C17.266 11.3106 17.5208 11.8345 17.6335 12.0632C17.6678 12.1394 17.6776 12.1394 17.7217 12.1442C18.1921 12.2251 18.6624 12.3157 19.1328 12.4109C18.2558 11.4725 17.3101 10.5484 16.3987 9.65286C15.7618 9.02885 15.1101 8.39054 14.478 7.7427C14.6985 8.12378 14.919 8.49533 15.1395 8.86689C15.3992 9.30513 15.6638 9.74337 15.9186 10.1911C16.1391 10.6008 16.335 10.9581 16.5702 11.301C16.5751 11.3058 16.5751 11.3106 16.5751 11.3106C16.5849 11.3106 16.6045 11.3106 16.6241 11.3106ZM5.11947 12.3823C5.35956 12.3919 5.59964 12.3299 5.85443 12.268C6.11412 12.2061 6.38361 12.1394 6.6776 12.1394C6.87849 12.1394 6.96178 12.087 7.05978 11.9203C7.18717 11.7012 7.44686 11.2486 8.00053 11.3201C8.05933 11.3248 8.14753 11.3391 8.23572 11.1343C8.88739 9.85769 9.60766 8.60966 10.3279 7.39497C10.0927 7.61885 9.85755 7.84274 9.62236 8.07138L8.99029 8.67635C8.47581 9.16699 7.95644 9.6481 7.43216 10.1292C6.658 10.8485 5.85443 11.5916 5.08517 12.3442C5.07537 12.3538 5.06557 12.3633 5.05577 12.3728C5.07537 12.3823 5.09497 12.3823 5.11947 12.3823ZM16.1881 11.7155C16.1881 11.7202 16.1832 11.7297 16.1832 11.7345C16.1881 11.7345 16.193 11.7297 16.2028 11.7297C16.193 11.7202 16.193 11.7202 16.1881 11.7155ZM12.8219 5.90876C12.9983 6.00403 13.1453 6.14693 13.2629 6.35176L13.405 6.29936C13.4344 6.28984 13.4638 6.28031 13.4932 6.27555C13.3364 6.14693 13.1159 5.96116 13.0424 5.70393C12.9787 5.78491 12.9052 5.85636 12.8219 5.90876ZM11.2687 6.04214C11.3128 6.06119 11.352 6.08024 11.3765 6.0993C11.4059 6.11835 11.4353 6.14693 11.4598 6.18028C11.5431 6.03261 11.6558 5.92305 11.793 5.85636C11.7048 5.78967 11.6264 5.70869 11.5627 5.60389C11.5186 5.78014 11.4206 5.92305 11.2687 6.04214ZM12.3907 4.74647C12.3025 4.74647 12.1996 4.7941 12.1163 4.87508C12.033 4.95606 11.9791 5.05133 11.9791 5.13231C12.0085 5.38001 12.1947 5.49433 12.3564 5.4991C12.4985 5.49433 12.6602 5.3943 12.6847 5.12278C12.6798 4.97511 12.4887 4.76552 12.4005 4.75123C12.3956 4.74647 12.3907 4.74647 12.3907 4.74647Z" fill="black"/>
</svg>
