<svg width="98" height="98" viewBox="0 0 98 98" fill="none" xmlns="http://www.w3.org/2000/svg">
<g filter="url(#filter0_dii)">
<circle cx="49" cy="45" r="45" fill="black"/>
</g>
<path d="M24.7402 50.0139C25.149 50.0139 25.4804 49.6825 25.4804 49.2737C25.4804 48.8649 25.149 48.5335 24.7402 48.5335C24.3314 48.5335 24 48.8649 24 49.2737C24 49.6825 24.3314 50.0139 24.7402 50.0139Z" fill="#6F7077"/>
<path d="M35.0306 49.1185C35.4394 49.1185 35.7708 48.7871 35.7708 48.3783C35.7708 47.9695 35.4394 47.6381 35.0306 47.6381C34.6218 47.6381 34.2904 47.9695 34.2904 48.3783C34.2904 48.7871 34.6218 49.1185 35.0306 49.1185Z" fill="#6F7077"/>
<path d="M38.0034 53.3571C38.4122 53.3571 38.7436 53.0257 38.7436 52.6169C38.7436 52.2081 38.4122 51.8767 38.0034 51.8767C37.5946 51.8767 37.2632 52.2081 37.2632 52.6169C37.2632 53.0257 37.5946 53.3571 38.0034 53.3571Z" fill="#6F7077"/>
<path d="M46.7783 50.2523C47.1871 50.2523 47.5185 49.9209 47.5185 49.5121C47.5185 49.1033 47.1871 48.7719 46.7783 48.7719C46.3695 48.7719 46.0381 49.1033 46.0381 49.5121C46.0381 49.9209 46.3695 50.2523 46.7783 50.2523Z" fill="white"/>
<path d="M25.2551 27.3109C25.6639 27.3109 25.9953 26.9795 25.9953 26.5707C25.9953 26.1619 25.6639 25.8305 25.2551 25.8305C24.8463 25.8305 24.5149 26.1619 24.5149 26.5707C24.5149 26.9795 24.8463 27.3109 25.2551 27.3109Z" fill="#6F7077"/>
<path d="M26.1131 36.7986C26.7461 36.7986 27.2592 36.2855 27.2592 35.6525C27.2592 35.0196 26.7461 34.5064 26.1131 34.5064C25.4802 34.5064 24.967 35.0196 24.967 35.6525C24.967 36.2855 25.4802 36.7986 26.1131 36.7986Z" fill="#6F7077"/>
<path d="M44.7368 47.5431C45.2643 47.5431 45.6919 47.1155 45.6919 46.588C45.6919 46.0606 45.2643 45.633 44.7368 45.633C44.2093 45.633 43.7817 46.0606 43.7817 46.588C43.7817 47.1155 44.2093 47.5431 44.7368 47.5431Z" fill="white"/>
<path d="M25.48 59.1822C26.0075 59.1822 26.4351 58.7546 26.4351 58.2272C26.4351 57.6997 26.0075 57.2721 25.48 57.2721C24.9526 57.2721 24.525 57.6997 24.525 58.2272C24.525 58.7546 24.9526 59.1822 25.48 59.1822Z" fill="#6F7077"/>
<path d="M32.835 54.1088C33.4152 54.1088 33.8856 53.6385 33.8856 53.0583C33.8856 52.478 33.4152 52.0077 32.835 52.0077C32.2548 52.0077 31.7844 52.478 31.7844 53.0583C31.7844 53.6385 32.2548 54.1088 32.835 54.1088Z" fill="white"/>
<path d="M43.9492 62.1434C44.5294 62.1434 44.9998 61.673 44.9998 61.0928C44.9998 60.5126 44.5294 60.0422 43.9492 60.0422C43.369 60.0422 42.8986 60.5126 42.8986 61.0928C42.8986 61.673 43.369 62.1434 43.9492 62.1434Z" fill="#6F7077"/>
<path d="M40.9642 57.6905C41.4257 57.6905 41.7999 57.3163 41.7999 56.8548C41.7999 56.3932 41.4257 56.0191 40.9642 56.0191C40.5026 56.0191 40.1285 56.3932 40.1285 56.8548C40.1285 57.3163 40.5026 57.6905 40.9642 57.6905Z" fill="#6F7077"/>
<path d="M28.4658 63.743C29.1581 63.743 29.7194 63.1818 29.7194 62.4895C29.7194 61.7971 29.1581 61.2359 28.4658 61.2359C27.7735 61.2359 27.2123 61.7971 27.2123 62.4895C27.2123 63.1818 27.7735 63.743 28.4658 63.743Z" fill="white"/>
<path d="M33.467 32.7146C34.5285 32.7146 35.389 31.8541 35.389 30.7925C35.389 29.731 34.5285 28.8704 33.467 28.8704C32.4054 28.8704 31.5449 29.731 31.5449 30.7925C31.5449 31.8541 32.4054 32.7146 33.467 32.7146Z" fill="white"/>
<path d="M30.4708 28.2023C31.6312 28.2023 32.572 27.2616 32.572 26.1012C32.572 24.9407 31.6312 24 30.4708 24C29.3104 24 28.3696 24.9407 28.3696 26.1012C28.3696 27.2616 29.3104 28.2023 30.4708 28.2023Z" fill="white"/>
<path d="M31.2468 37.4431C32.2424 37.4431 33.0495 36.636 33.0495 35.6404C33.0495 34.6448 32.2424 33.8377 31.2468 33.8377C30.2512 33.8377 29.4441 34.6448 29.4441 35.6404C29.4441 36.636 30.2512 37.4431 31.2468 37.4431Z" fill="white"/>
<path d="M36.4405 36.6425C37.4888 36.6425 38.3387 35.7926 38.3387 34.7442C38.3387 33.6959 37.4888 32.846 36.4405 32.846C35.3921 32.846 34.5422 33.6959 34.5422 34.7442C34.5422 35.7926 35.3921 36.6425 36.4405 36.6425Z" fill="white"/>
<path d="M29.0974 41.6804C30.0996 41.6804 30.9121 40.868 30.9121 39.8658C30.9121 38.8636 30.0996 38.0511 29.0974 38.0511C28.0952 38.0511 27.2828 38.8636 27.2828 39.8658C27.2828 40.868 28.0952 41.6804 29.0974 41.6804Z" fill="white"/>
<path d="M34.243 41.1674C35.199 41.1674 35.9741 40.3924 35.9741 39.4364C35.9741 38.4803 35.199 37.7053 34.243 37.7053C33.2869 37.7053 32.5119 38.4803 32.5119 39.4364C32.5119 40.3924 33.2869 41.1674 34.243 41.1674Z" fill="white"/>
<path d="M39.4244 40.4871C40.2552 40.4871 40.9287 39.8136 40.9287 38.9829C40.9287 38.1521 40.2552 37.4786 39.4244 37.4786C38.5936 37.4786 37.9202 38.1521 37.9202 38.9829C37.9202 39.8136 38.5936 40.4871 39.4244 40.4871Z" fill="white"/>
<path d="M37.2285 45.1908C38.0593 45.1908 38.7327 44.5173 38.7327 43.6865C38.7327 42.8558 38.0593 42.1823 37.2285 42.1823C36.3977 42.1823 35.7242 42.8558 35.7242 43.6865C35.7242 44.5173 36.3977 45.1908 37.2285 45.1908Z" fill="white"/>
<path d="M32.0474 45.6446C32.8782 45.6446 33.5516 44.9712 33.5516 44.1404C33.5516 43.3096 32.8782 42.6362 32.0474 42.6362C31.2166 42.6362 30.5432 43.3096 30.5432 44.1404C30.5432 44.9712 31.2166 45.6446 32.0474 45.6446Z" fill="white"/>
<path d="M29.8615 50.5274C30.811 50.5274 31.5807 49.7577 31.5807 48.8083C31.5807 47.8588 30.811 47.0891 29.8615 47.0891C28.9121 47.0891 28.1424 47.8588 28.1424 48.8083C28.1424 49.7577 28.9121 50.5274 29.8615 50.5274Z" fill="white"/>
<path d="M27.677 55.0281C28.521 55.0281 29.2052 54.3439 29.2052 53.5C29.2052 52.656 28.521 51.9718 27.677 51.9718C26.8331 51.9718 26.1489 52.656 26.1489 53.5C26.1489 54.3439 26.8331 55.0281 27.677 55.0281Z" fill="white"/>
<path d="M43.1609 53.8462C44.1037 53.8462 44.8681 53.0818 44.8681 52.139C44.8681 51.1961 44.1037 50.4318 43.1609 50.4318C42.218 50.4318 41.4537 51.1961 41.4537 52.139C41.4537 53.0818 42.218 53.8462 43.1609 53.8462Z" fill="white"/>
<path d="M40.1653 49.6437C41.1148 49.6437 41.8844 48.874 41.8844 47.9246C41.8844 46.9751 41.1148 46.2054 40.1653 46.2054C39.2159 46.2054 38.4462 46.9751 38.4462 47.9246C38.4462 48.874 39.2159 49.6437 40.1653 49.6437Z" fill="white"/>
<path d="M30.6371 59.4932C31.5866 59.4932 32.3562 58.7235 32.3562 57.774C32.3562 56.8246 31.5866 56.0549 30.6371 56.0549C29.6877 56.0549 28.918 56.8246 28.918 57.774C28.918 58.7235 29.6877 59.4932 30.6371 59.4932Z" fill="white"/>
<path d="M26.8533 45.8592C27.5588 45.8592 28.1308 45.2872 28.1308 44.5818C28.1308 43.8763 27.5588 43.3043 26.8533 43.3043C26.1478 43.3043 25.5759 43.8763 25.5759 44.5818C25.5759 45.2872 26.1478 45.8592 26.8533 45.8592Z" fill="white"/>
<path d="M42.3975 44.4987C43.103 44.4987 43.6749 43.9268 43.6749 43.2213C43.6749 42.5158 43.103 41.9439 42.3975 41.9439C41.692 41.9439 41.1201 42.5158 41.1201 43.2213C41.1201 43.9268 41.692 44.4987 42.3975 44.4987Z" fill="white"/>
<path d="M28.3102 32.8342C29.3586 32.8342 30.2084 31.9843 30.2084 30.936C30.2084 29.8876 29.3586 29.0378 28.3102 29.0378C27.2618 29.0378 26.412 29.8876 26.412 30.936C26.412 31.9843 27.2618 32.8342 28.3102 32.8342Z" fill="white"/>
<path d="M73.4603 50.0139C73.8691 50.0139 74.2005 49.6825 74.2005 49.2737C74.2005 48.8649 73.8691 48.5335 73.4603 48.5335C73.0515 48.5335 72.7201 48.8649 72.7201 49.2737C72.7201 49.6825 73.0515 50.0139 73.4603 50.0139Z" fill="#6F7077"/>
<path d="M63.1586 49.1185C63.5674 49.1185 63.8988 48.7871 63.8988 48.3783C63.8988 47.9695 63.5674 47.6381 63.1586 47.6381C62.7498 47.6381 62.4184 47.9695 62.4184 48.3783C62.4184 48.7871 62.7498 49.1185 63.1586 49.1185Z" fill="#6F7077"/>
<path d="M60.1982 53.3571C60.607 53.3571 60.9384 53.0257 60.9384 52.6169C60.9384 52.2081 60.607 51.8767 60.1982 51.8767C59.7894 51.8767 59.458 52.2081 59.458 52.6169C59.458 53.0257 59.7894 53.3571 60.1982 53.3571Z" fill="#6F7077"/>
<path d="M51.4221 50.2523C51.8309 50.2523 52.1623 49.9209 52.1623 49.5121C52.1623 49.1033 51.8309 48.7719 51.4221 48.7719C51.0133 48.7719 50.6819 49.1033 50.6819 49.5121C50.6819 49.9209 51.0133 50.2523 51.4221 50.2523Z" fill="white"/>
<path d="M73.1771 27.6338C73.5859 27.6338 73.9173 27.3024 73.9173 26.8936C73.9173 26.4848 73.5859 26.1534 73.1771 26.1534C72.7683 26.1534 72.4369 26.4848 72.4369 26.8936C72.4369 27.3024 72.7683 27.6338 73.1771 27.6338Z" fill="#6F7077"/>
<path d="M72.0876 36.7986C72.7206 36.7986 73.2337 36.2855 73.2337 35.6525C73.2337 35.0196 72.7206 34.5064 72.0876 34.5064C71.4546 34.5064 70.9415 35.0196 70.9415 35.6525C70.9415 36.2855 71.4546 36.7986 72.0876 36.7986Z" fill="#6F7077"/>
<path d="M53.4636 47.5431C53.9911 47.5431 54.4187 47.1155 54.4187 46.588C54.4187 46.0606 53.9911 45.633 53.4636 45.633C52.9361 45.633 52.5085 46.0606 52.5085 46.588C52.5085 47.1155 52.9361 47.5431 53.4636 47.5431Z" fill="white"/>
<path d="M72.7081 59.1822C73.2355 59.1822 73.6631 58.7546 73.6631 58.2272C73.6631 57.6997 73.2355 57.2721 72.7081 57.2721C72.1806 57.2721 71.753 57.6997 71.753 58.2272C71.753 58.7546 72.1806 59.1822 72.7081 59.1822Z" fill="#6F7077"/>
<path d="M65.355 54.1088C65.9352 54.1088 66.4056 53.6385 66.4056 53.0583C66.4056 52.478 65.9352 52.0077 65.355 52.0077C64.7747 52.0077 64.3044 52.478 64.3044 53.0583C64.3044 53.6385 64.7747 54.1088 65.355 54.1088Z" fill="white"/>
<path d="M54.2519 62.1434C54.8322 62.1434 55.3025 61.673 55.3025 61.0928C55.3025 60.5126 54.8322 60.0422 54.2519 60.0422C53.6717 60.0422 53.2014 60.5126 53.2014 61.0928C53.2014 61.673 53.6717 62.1434 54.2519 62.1434Z" fill="#6F7077"/>
<path d="M57.2247 57.6905C57.6862 57.6905 58.0604 57.3163 58.0604 56.8548C58.0604 56.3932 57.6862 56.0191 57.2247 56.0191C56.7631 56.0191 56.389 56.3932 56.389 56.8548C56.389 57.3163 56.7631 57.6905 57.2247 57.6905Z" fill="#6F7077"/>
<path d="M69.7238 63.743C70.4161 63.743 70.9773 63.1818 70.9773 62.4895C70.9773 61.7971 70.4161 61.2359 69.7238 61.2359C69.0314 61.2359 68.4702 61.7971 68.4702 62.4895C68.4702 63.1818 69.0314 63.743 69.7238 63.743Z" fill="white"/>
<path d="M64.7222 32.7146C65.7837 32.7146 66.6443 31.8541 66.6443 30.7925C66.6443 29.731 65.7837 28.8704 64.7222 28.8704C63.6607 28.8704 62.8001 29.731 62.8001 30.7925C62.8001 31.8541 63.6607 32.7146 64.7222 32.7146Z" fill="white"/>
<path d="M67.7184 28.2023C68.8789 28.2023 69.8196 27.2616 69.8196 26.1012C69.8196 24.9407 68.8789 24 67.7184 24C66.558 24 65.6172 24.9407 65.6172 26.1012C65.6172 27.2616 66.558 28.2023 67.7184 28.2023Z" fill="white"/>
<path d="M66.942 37.4431C67.9376 37.4431 68.7447 36.636 68.7447 35.6404C68.7447 34.6448 67.9376 33.8377 66.942 33.8377C65.9464 33.8377 65.1393 34.6448 65.1393 35.6404C65.1393 36.636 65.9464 37.4431 66.942 37.4431Z" fill="white"/>
<path d="M61.7614 36.6425C62.8097 36.6425 63.6596 35.7926 63.6596 34.7442C63.6596 33.6959 62.8097 32.846 61.7614 32.846C60.713 32.846 59.8632 33.6959 59.8632 34.7442C59.8632 35.7926 60.713 36.6425 61.7614 36.6425Z" fill="white"/>
<path d="M69.0917 41.6804C70.0939 41.6804 70.9064 40.868 70.9064 39.8658C70.9064 38.8636 70.0939 38.0511 69.0917 38.0511C68.0895 38.0511 67.2771 38.8636 67.2771 39.8658C67.2771 40.868 68.0895 41.6804 69.0917 41.6804Z" fill="white"/>
<path d="M63.9581 41.1674C64.9141 41.1674 65.6891 40.3924 65.6891 39.4364C65.6891 38.4803 64.9141 37.7053 63.9581 37.7053C63.002 37.7053 62.227 38.4803 62.227 39.4364C62.227 40.3924 63.002 41.1674 63.9581 41.1674Z" fill="white"/>
<path d="M58.7763 40.4871C59.607 40.4871 60.2805 39.8136 60.2805 38.9829C60.2805 38.1521 59.607 37.4786 58.7763 37.4786C57.9455 37.4786 57.272 38.1521 57.272 38.9829C57.272 39.8136 57.9455 40.4871 58.7763 40.4871Z" fill="white"/>
<path d="M60.9623 45.1908C61.793 45.1908 62.4665 44.5173 62.4665 43.6865C62.4665 42.8558 61.793 42.1823 60.9623 42.1823C60.1315 42.1823 59.458 42.8558 59.458 43.6865C59.458 44.5173 60.1315 45.1908 60.9623 45.1908Z" fill="white"/>
<path d="M66.1545 45.6446C66.9853 45.6446 67.6588 44.9712 67.6588 44.1404C67.6588 43.3096 66.9853 42.6362 66.1545 42.6362C65.3237 42.6362 64.6503 43.3096 64.6503 44.1404C64.6503 44.9712 65.3237 45.6446 66.1545 45.6446Z" fill="white"/>
<path d="M68.3281 50.5274C69.2775 50.5274 70.0472 49.7577 70.0472 48.8083C70.0472 47.8588 69.2775 47.0891 68.3281 47.0891C67.3786 47.0891 66.6089 47.8588 66.6089 48.8083C66.6089 49.7577 67.3786 50.5274 68.3281 50.5274Z" fill="white"/>
<path d="M70.5121 55.0281C71.356 55.0281 72.0402 54.3439 72.0402 53.5C72.0402 52.656 71.356 51.9718 70.5121 51.9718C69.6681 51.9718 68.9839 52.656 68.9839 53.5C68.9839 54.3439 69.6681 55.0281 70.5121 55.0281Z" fill="white"/>
<path d="M55.0283 53.8462C55.9712 53.8462 56.7355 53.0818 56.7355 52.139C56.7355 51.1961 55.9712 50.4318 55.0283 50.4318C54.0854 50.4318 53.3211 51.1961 53.3211 52.139C53.3211 53.0818 54.0854 53.8462 55.0283 53.8462Z" fill="white"/>
<path d="M58.0242 49.6437C58.9736 49.6437 59.7433 48.874 59.7433 47.9246C59.7433 46.9751 58.9736 46.2054 58.0242 46.2054C57.0747 46.2054 56.3051 46.9751 56.3051 47.9246C56.3051 48.874 57.0747 49.6437 58.0242 49.6437Z" fill="white"/>
<path d="M67.5625 59.4932C68.5119 59.4932 69.2816 58.7235 69.2816 57.774C69.2816 56.8246 68.5119 56.0549 67.5625 56.0549C66.613 56.0549 65.8433 56.8246 65.8433 57.774C65.8433 58.7235 66.613 59.4932 67.5625 59.4932Z" fill="white"/>
<path d="M71.3358 45.8592C72.0413 45.8592 72.6132 45.2872 72.6132 44.5818C72.6132 43.8763 72.0413 43.3043 71.3358 43.3043C70.6303 43.3043 70.0584 43.8763 70.0584 44.5818C70.0584 45.2872 70.6303 45.8592 71.3358 45.8592Z" fill="white"/>
<path d="M55.804 44.4987C56.5095 44.4987 57.0814 43.9268 57.0814 43.2213C57.0814 42.5158 56.5095 41.9439 55.804 41.9439C55.0985 41.9439 54.5266 42.5158 54.5266 43.2213C54.5266 43.9268 55.0985 44.4987 55.804 44.4987Z" fill="white"/>
<path d="M69.8917 32.8342C70.94 32.8342 71.7899 31.9843 71.7899 30.936C71.7899 29.8876 70.94 29.0378 69.8917 29.0378C68.8433 29.0378 67.9935 29.8876 67.9935 30.936C67.9935 31.9843 68.8433 32.8342 69.8917 32.8342Z" fill="white"/>
<path d="M49.0948 54.0614C49.9256 54.0614 50.5991 53.388 50.5991 52.5572C50.5991 51.7264 49.9256 51.0529 49.0948 51.0529C48.2641 51.0529 47.5906 51.7264 47.5906 52.5572C47.5906 53.388 48.2641 54.0614 49.0948 54.0614Z" fill="white"/>
<path d="M49.0948 62.2628C49.9256 62.2628 50.5991 61.5893 50.5991 60.7585C50.5991 59.9277 49.9256 59.2543 49.0948 59.2543C48.2641 59.2543 47.5906 59.9277 47.5906 60.7585C47.5906 61.5893 48.2641 62.2628 49.0948 62.2628Z" fill="white"/>
<path d="M46.122 57.9049C46.9528 57.9049 47.6263 57.2315 47.6263 56.4007C47.6263 55.5699 46.9528 54.8965 46.122 54.8965C45.2913 54.8965 44.6178 55.5699 44.6178 56.4007C44.6178 57.2315 45.2913 57.9049 46.122 57.9049Z" fill="white"/>
<path d="M52.0675 57.9049C52.8983 57.9049 53.5717 57.2315 53.5717 56.4007C53.5717 55.5699 52.8983 54.8965 52.0675 54.8965C51.2367 54.8965 50.5632 55.5699 50.5632 56.4007C50.5632 57.2315 51.2367 57.9049 52.0675 57.9049Z" fill="white"/>
<path d="M46.9101 66C47.2661 66 47.5547 65.7114 47.5547 65.3553C47.5547 64.9993 47.2661 64.7106 46.9101 64.7106C46.554 64.7106 46.2654 64.9993 46.2654 65.3553C46.2654 65.7114 46.554 66 46.9101 66Z" fill="#6F7077"/>
<path d="M51.2908 66C51.6468 66 51.9355 65.7114 51.9355 65.3553C51.9355 64.9993 51.6468 64.7106 51.2908 64.7106C50.9347 64.7106 50.6461 64.9993 50.6461 65.3553C50.6461 65.7114 50.9347 66 51.2908 66Z" fill="#6F7077"/>
<defs>
<filter id="filter0_dii" x="0" y="-2" width="98" height="100" filterUnits="userSpaceOnUse" color-interpolation-filters="sRGB">
<feFlood flood-opacity="0" result="BackgroundImageFix"/>
<feColorMatrix in="SourceAlpha" type="matrix" values="0 0 0 0 0 0 0 0 0 0 0 0 0 0 0 0 0 0 127 0"/>
<feOffset dy="4"/>
<feGaussianBlur stdDeviation="2"/>
<feColorMatrix type="matrix" values="0 0 0 0 0 0 0 0 0 0 0 0 0 0 0 0 0 0 0.15 0"/>
<feBlend mode="normal" in2="BackgroundImageFix" result="effect1_dropShadow"/>
<feBlend mode="normal" in="SourceGraphic" in2="effect1_dropShadow" result="shape"/>
<feColorMatrix in="SourceAlpha" type="matrix" values="0 0 0 0 0 0 0 0 0 0 0 0 0 0 0 0 0 0 127 0" result="hardAlpha"/>
<feOffset dy="-2"/>
<feGaussianBlur stdDeviation="2"/>
<feComposite in2="hardAlpha" operator="arithmetic" k2="-1" k3="1"/>
<feColorMatrix type="matrix" values="0 0 0 0 0 0 0 0 0 0 0 0 0 0 0 0 0 0 0.1 0"/>
<feBlend mode="normal" in2="shape" result="effect2_innerShadow"/>
<feColorMatrix in="SourceAlpha" type="matrix" values="0 0 0 0 0 0 0 0 0 0 0 0 0 0 0 0 0 0 127 0" result="hardAlpha"/>
<feOffset/>
<feGaussianBlur stdDeviation="1"/>
<feComposite in2="hardAlpha" operator="arithmetic" k2="-1" k3="1"/>
<feColorMatrix type="matrix" values="0 0 0 0 1 0 0 0 0 1 0 0 0 0 1 0 0 0 1 0"/>
<feBlend mode="normal" in2="effect2_innerShadow" result="effect3_innerShadow"/>
</filter>
</defs>
</svg>
