<svg width="593" height="693" viewBox="0 0 593 693" fill="none" xmlns="http://www.w3.org/2000/svg">
<g filter="url(#filter0_f)">
<path d="M36 75C36 52.9086 53.9086 35 76 35H517.9C539.991 35 557.9 52.9086 557.9 75V645C557.9 650.523 553.423 655 547.9 655H36V75Z" fill="#C4C4C4"/>
<path d="M36 75C36 52.9086 53.9086 35 76 35H517.9C539.991 35 557.9 52.9086 557.9 75V645C557.9 650.523 553.423 655 547.9 655H36V75Z" fill="url(#paint0_linear)"/>
<path d="M76 36.5H517.9C539.163 36.5 556.4 53.737 556.4 75V645C556.4 649.694 552.594 653.5 547.9 653.5H37.5V75C37.5 53.737 54.737 36.5 76 36.5Z" stroke="#272727" stroke-width="3"/>
</g>
<path d="M36.0996 75C36.0996 52.9086 54.0082 35 76.0996 35H518C540.091 35 558 52.9086 558 75V360C558 365.523 553.523 370 548 370H36.0996V75Z" fill="#C4C4C4"/>
<path d="M36.0996 75C36.0996 52.9086 54.0082 35 76.0996 35H518C540.091 35 558 52.9086 558 75V360C558 365.523 553.523 370 548 370H36.0996V75Z" fill="url(#paint1_linear)"/>
<path d="M36.0999 71C36.0999 48.9086 54.0085 31 76.0999 31H518.1C540.191 31 558.1 48.9086 558.1 71V356C558.1 361.523 553.623 366 548.1 366H36.0999V71Z" fill="#242424"/>
<path d="M36.0999 71C36.0999 48.9086 54.0085 31 76.0999 31H518.1C540.191 31 558.1 48.9086 558.1 71V356C558.1 361.523 553.623 366 548.1 366H36.0999V71Z" fill="url(#paint2_linear)"/>
<path d="M36.0996 83H240.1" stroke="#242424" stroke-width="3" stroke-miterlimit="10"/>
<path d="M36.0996 114H167.1" stroke="#242424" stroke-width="3" stroke-miterlimit="10"/>
<path d="M36.0996 145H129.1" stroke="#242424" stroke-width="3" stroke-miterlimit="10"/>
<path d="M40.6152 53.3047L556.293 53.3047" stroke="#242424" stroke-width="3" stroke-miterlimit="10"/>
<path d="M558.1 83L350.1 83" stroke="#242424" stroke-width="3" stroke-miterlimit="10"/>
<path d="M558.1 114L405.1 114" stroke="#242424" stroke-width="3" stroke-miterlimit="10"/>
<path d="M558.1 145L461.1 145" stroke="#242424" stroke-width="3" stroke-miterlimit="10"/>
<path d="M558.1 175L470.1 175" stroke="#242424" stroke-width="3" stroke-miterlimit="10"/>
<path d="M102.1 175H36.0996" stroke="#242424" stroke-width="3" stroke-miterlimit="10"/>
<path d="M525.1 693V335C525.1 209.079 423.021 107 297.1 107V107C171.179 107 69.0999 209.079 69.0999 335V693" stroke="#242424" stroke-width="66" stroke-linejoin="round"/>
<path d="M525.1 693V335C525.1 209.079 423.021 107 297.1 107V107C171.179 107 69.0999 209.079 69.0999 335V693" stroke="url(#paint3_linear)" stroke-width="66" stroke-linejoin="round"/>
<path d="M558.094 535.526H491.099" stroke="#242424" stroke-width="3" stroke-miterlimit="10"/>
<path d="M558.094 497.289H491.099" stroke="#242424" stroke-width="3" stroke-miterlimit="10"/>
<path d="M558.094 573.745H491.099" stroke="#242424" stroke-width="3" stroke-miterlimit="10"/>
<path d="M558.094 612.363H491.099" stroke="#242424" stroke-width="3" stroke-miterlimit="10"/>
<path d="M558.094 651.03H491.099" stroke="#242424" stroke-width="3" stroke-miterlimit="10"/>
<path d="M558.094 453.883H491.099" stroke="#242424" stroke-width="3" stroke-miterlimit="10"/>
<path d="M558.094 391.997H491.099" stroke="#242424" stroke-width="3" stroke-miterlimit="10"/>
<path d="M558.094 384.521H491.099" stroke="#242424" stroke-width="3" stroke-miterlimit="10"/>
<path d="M557.891 365.86L491.456 365.86" stroke="#242424" stroke-width="3" stroke-miterlimit="10"/>
<path d="M558.094 414.476H491.099" stroke="#242424" stroke-width="3" stroke-miterlimit="10"/>
<path d="M524.598 453.883V497.093" stroke="#242424" stroke-width="3" stroke-miterlimit="10"/>
<path d="M524.598 535.526V573.958" stroke="#242424" stroke-width="3" stroke-miterlimit="10"/>
<path d="M524.598 612.363V650.795" stroke="#242424" stroke-width="3" stroke-miterlimit="10"/>
<path d="M101 334.5C101 226.528 188.528 139 296.5 139V139C404.472 139 492 226.528 492 334.5V693H101V334.5Z" fill="#242424"/>
<path d="M101.099 535.526H36.0994" stroke="#242424" stroke-width="3" stroke-miterlimit="10"/>
<path d="M101.099 497.289H36.0994" stroke="#242424" stroke-width="3" stroke-miterlimit="10"/>
<path d="M101.099 573.745H36.0994" stroke="#242424" stroke-width="3" stroke-miterlimit="10"/>
<path d="M101.099 612.363H36.0994" stroke="#242424" stroke-width="3" stroke-miterlimit="10"/>
<path d="M101.099 651.03H36.0994" stroke="#242424" stroke-width="3" stroke-miterlimit="10"/>
<path d="M101.099 453.883H36.0994" stroke="#242424" stroke-width="3" stroke-miterlimit="10"/>
<path d="M101.099 391.997H36.0994" stroke="#242424" stroke-width="3" stroke-miterlimit="10"/>
<path d="M101.099 384.521H36.0994" stroke="#242424" stroke-width="3" stroke-miterlimit="10"/>
<path d="M100.902 365.86L36.4456 365.86" stroke="#242424" stroke-width="3" stroke-miterlimit="10"/>
<path d="M101.099 414.476H36.0994" stroke="#242424" stroke-width="3" stroke-miterlimit="10"/>
<path d="M68.6006 453.883V497.093" stroke="#242424" stroke-width="3" stroke-miterlimit="10"/>
<path d="M68.6006 535.526V573.958" stroke="#242424" stroke-width="3" stroke-miterlimit="10"/>
<path d="M68.6006 612.363V650.795" stroke="#242424" stroke-width="3" stroke-miterlimit="10"/>
<path d="M268.128 261C273.888 261 277.278 257.13 277.278 250.5C277.278 244.14 274.038 240 268.158 240H261.378V261H268.128ZM264.078 242.34H267.858C270.138 242.34 271.908 242.97 272.868 244.44C273.828 245.94 274.218 247.83 274.218 250.5C274.218 253.14 273.888 254.94 272.838 256.53C271.908 257.94 270.168 258.66 267.858 258.66H264.078V242.34ZM294.804 261V258.57H284.124V251.61H293.754V249.18H284.124V242.43H294.804V240H281.424V261H294.804ZM306.431 261.36C311.471 261.36 314.141 258.9 314.141 254.07V240H311.411V254.07C311.411 257.49 309.191 258.96 306.431 258.96C303.641 258.96 301.451 257.49 301.451 254.07V240H298.721V254.07C298.721 258.9 301.391 261.36 306.431 261.36ZM326.026 261.36C329.866 261.36 334.126 259.98 334.126 254.88C334.126 250.47 330.706 249.69 326.686 249C323.956 248.52 320.926 247.83 320.926 245.43C320.926 243.06 323.206 241.89 325.426 241.89C328.576 241.89 330.526 243.66 330.616 246.72L333.466 246.18C332.956 241.32 329.506 239.64 325.396 239.64C322.036 239.64 318.136 241.29 318.136 245.55C318.136 249.51 321.586 250.71 324.736 251.46C327.766 252.21 331.306 252.18 331.306 255.09C331.306 258.06 328.786 259.08 325.936 259.08C322.786 259.08 320.476 257.28 320.386 254.01L317.506 254.31C317.626 259.11 321.526 261.36 326.026 261.36ZM267.983 303L275.153 282H272.213L268.433 294.03C267.383 297.3 266.753 299.52 266.603 299.97H266.573C266.363 299.34 265.733 297.3 264.713 294.03L260.933 282H257.993L265.163 303H267.983ZM291.407 300.78C291.017 300.87 290.777 300.9 290.537 300.9C289.667 300.9 289.667 300.54 289.667 299.76V292.59C289.667 289.32 287.747 287.64 283.967 287.64C282.047 287.64 280.457 288.03 279.377 288.75C278.207 289.53 277.577 290.85 277.517 292.65L280.157 293.01C280.157 290.73 281.207 289.77 283.817 289.77C285.137 289.77 286.127 290.16 286.547 290.76C286.997 291.39 287.057 292.14 287.057 293.49L282.107 294.45C279.737 294.9 277.007 295.8 277.007 299.04C277.007 301.98 279.527 303.36 282.047 303.36C284.597 303.36 286.247 302.49 287.087 300.78C287.237 302.34 288.137 303.12 289.787 303.12C290.387 303.12 290.897 303.09 291.467 303L291.407 300.78ZM287.057 297.33C287.057 299.49 285.737 301.2 282.467 301.2C280.997 301.2 279.767 300.42 279.767 299.01C279.767 297.3 280.937 296.85 282.527 296.49L287.057 295.5V297.33ZM305.029 296.43C305.029 300.78 302.509 301.11 301.159 301.11C300.289 301.11 299.299 301.08 298.429 300.24C297.529 299.37 297.559 298.2 297.559 296.82V288H294.769V296.97C294.769 298.56 294.799 300.45 295.969 301.68C297.049 302.82 298.459 303.36 300.409 303.36C302.539 303.36 304.219 302.46 305.029 300.75V303H307.729V288H305.029V296.43ZM318.194 282H313.004V284.28H315.494V300.72H312.494V303H320.924V300.72H318.194V282ZM334.481 300.48C333.851 300.63 333.071 300.72 332.531 300.72C330.911 300.72 330.341 300.42 330.341 299.22V290.25H334.601V288H330.341V283.83H327.671V288H324.521V290.25H327.671V299.31C327.671 302.04 329.081 303.15 332.321 303.15C333.101 303.15 333.941 303.03 334.511 302.91L334.481 300.48Z" fill="white"/>
<g filter="url(#filter1_d)">
<path d="M243.131 425.84C243.811 422.6 247.291 420.48 250.491 418.52C253.731 416.52 257.331 414.04 257.331 409.32C257.331 404.32 254.131 401.12 249.171 401.12C242.051 401.12 240.131 406.16 240.171 409.6L243.731 410.16C243.731 408.08 244.251 404.12 249.011 404.12C252.131 404.12 253.771 405.96 253.771 409.28C253.771 413.28 249.531 415.24 246.931 416.92C243.211 419.28 239.571 422.32 239.091 429H257.371V425.84H243.131ZM276.378 414.24C278.458 413.12 279.698 411 279.698 408.8C279.698 403.48 275.858 401.12 271.458 401.12C266.378 401.12 262.858 404.56 262.738 409.44L266.338 410C266.298 408.4 266.858 404.08 271.458 404.08C274.458 404.08 276.178 405.88 276.178 408.76C276.178 411.56 273.898 413.08 271.258 413.08H269.498V416.28H271.738C274.818 416.28 277.258 417.56 277.258 421.12C277.258 424.56 275.178 426.48 271.498 426.48C267.618 426.48 265.818 423.6 265.858 420.08L262.378 420.6C262.338 425.72 265.618 429.48 271.498 429.48C276.578 429.48 280.818 426.68 280.818 421.08C280.818 418.2 279.458 415.12 276.378 414.24ZM295.221 429.48C301.901 429.48 305.141 423.68 305.141 415.28C305.141 407 301.901 401.12 295.221 401.12C288.541 401.12 285.341 406.96 285.341 415.28C285.341 424.64 288.781 429.48 295.221 429.48ZM295.221 426.48C290.421 426.48 289.181 422.64 289.181 415.28C289.181 411.64 289.501 408.84 290.421 406.92C291.301 405.12 292.821 404.2 295.221 404.2C300.141 404.2 301.301 408.16 301.301 415.28C301.301 419.88 300.781 423.16 299.141 424.96C298.221 425.96 296.981 426.48 295.221 426.48ZM314.081 415.6C317.521 415.6 319.561 412.64 319.561 408.36C319.561 404.04 317.481 401.12 314.081 401.12C310.601 401.12 308.601 404 308.601 408.36C308.601 412.88 310.521 415.6 314.081 415.6ZM315.641 429L330.961 401.6H327.641L312.281 429H315.641ZM314.081 413.04C312.281 413.04 311.521 411.68 311.521 408.36C311.521 406.72 311.721 405.56 312.121 404.8C312.521 404.04 313.201 403.68 314.081 403.68C315.921 403.68 316.601 405.08 316.601 408.36C316.601 410.08 316.401 411.28 315.961 412C315.561 412.72 314.961 413.04 314.081 413.04ZM329.361 429.4C332.801 429.4 334.801 426.44 334.801 422.16C334.801 417.84 332.761 414.92 329.361 414.92C325.881 414.92 323.881 417.8 323.881 422.16C323.881 426.68 325.801 429.4 329.361 429.4ZM329.361 426.84C327.521 426.84 326.801 425.48 326.801 422.16C326.801 420.52 326.961 419.36 327.401 418.6C327.801 417.84 328.441 417.48 329.361 417.48C331.201 417.48 331.841 418.88 331.841 422.16C331.841 423.88 331.681 425.08 331.241 425.8C330.801 426.52 330.201 426.84 329.361 426.84Z" fill="white"/>
<path d="M168.696 377V375.38H161.576V370.74H167.996V369.12H161.576V364.62H168.696V363H159.776V377H168.696ZM175.409 377.24C177.429 377.24 179.529 376.54 179.529 374.1C179.529 371.76 177.469 371.42 175.469 371C174.269 370.74 173.069 370.48 173.069 369.56C173.069 368.64 174.089 368.18 175.069 368.18C176.649 368.18 177.549 368.92 177.589 370.3L179.269 370.04C179.049 367.6 177.189 366.76 175.089 366.76C173.309 366.76 171.389 367.6 171.389 369.68C171.389 371.66 172.989 372.14 174.609 372.56C175.989 372.92 177.829 373.06 177.829 374.2C177.829 375.26 177.009 375.82 175.369 375.82C173.789 375.82 172.789 374.96 172.809 373.56L171.169 373.72C171.149 376.2 173.169 377.24 175.409 377.24ZM188.605 375.32C188.185 375.42 187.665 375.48 187.305 375.48C186.225 375.48 185.845 375.28 185.845 374.48V368.5H188.685V367H185.845V364.22H184.065V367H181.965V368.5H184.065V374.54C184.065 376.36 185.005 377.1 187.165 377.1C187.685 377.1 188.245 377.02 188.625 376.94L188.605 375.32ZM193.622 362.84V365.16H195.602V362.84H193.622ZM195.482 367H191.982V368.52H193.682V375.48H191.702V377H197.322V375.48H195.482V367ZM209.34 366.76C208.42 366.76 207.84 367.02 207.4 367.38C207.02 367.7 206.76 368.08 206.58 368.56C206.2 367.42 205.3 366.76 204 366.76C203.1 366.76 202.48 367.06 202.08 367.44C201.78 367.7 201.6 367.98 201.48 368.28V367H199.78V377H201.52V371.12C201.52 369.72 201.76 369.12 202.2 368.68C202.48 368.4 202.9 368.24 203.38 368.24C203.76 368.24 204.26 368.28 204.64 368.68C205.1 369.14 205.12 369.9 205.12 370.92V377H206.88V371.12C206.88 369.72 207.14 369.1 207.56 368.68C207.88 368.38 208.28 368.24 208.74 368.24C209.12 368.24 209.62 368.3 210 368.66C210.46 369.12 210.48 369.88 210.48 370.92V377H212.24V370.4C212.24 367.94 211.24 366.76 209.34 366.76ZM224.283 375.52C224.023 375.58 223.863 375.6 223.703 375.6C223.123 375.6 223.123 375.36 223.123 374.84V370.06C223.123 367.88 221.843 366.76 219.323 366.76C218.043 366.76 216.983 367.02 216.263 367.5C215.483 368.02 215.063 368.9 215.023 370.1L216.783 370.34C216.783 368.82 217.483 368.18 219.223 368.18C220.103 368.18 220.763 368.44 221.043 368.84C221.343 369.26 221.383 369.76 221.383 370.66L218.083 371.3C216.503 371.6 214.683 372.2 214.683 374.36C214.683 376.32 216.363 377.24 218.043 377.24C219.743 377.24 220.843 376.66 221.403 375.52C221.503 376.56 222.103 377.08 223.203 377.08C223.603 377.08 223.943 377.06 224.323 377L224.283 375.52ZM221.383 373.22C221.383 374.66 220.503 375.8 218.323 375.8C217.343 375.8 216.523 375.28 216.523 374.34C216.523 373.2 217.303 372.9 218.363 372.66L221.383 372V373.22ZM232.726 375.32C232.306 375.42 231.786 375.48 231.426 375.48C230.346 375.48 229.966 375.28 229.966 374.48V368.5H232.806V367H229.966V364.22H228.186V367H226.086V368.5H228.186V374.54C228.186 376.36 229.126 377.1 231.286 377.1C231.806 377.1 232.366 377.02 232.746 376.94L232.726 375.32ZM243.925 368.74C243.105 367.44 241.605 366.76 240.025 366.76C238.585 366.76 237.365 367.26 236.485 368.26C235.645 369.2 235.225 370.5 235.225 371.98C235.225 373.54 235.605 374.84 236.445 375.78C237.305 376.76 238.505 377.24 240.045 377.24C242.565 377.24 244.185 376.04 244.625 373.7L242.865 373.56C242.625 375.08 241.705 375.8 240.025 375.8C238.145 375.8 237.225 374.74 237.185 372.54H244.765C244.845 371.12 244.525 369.7 243.925 368.74ZM240.045 368.22C241.125 368.22 241.865 368.54 242.385 369.3C242.705 369.78 242.905 370.54 242.925 371.08H237.205C237.205 370.58 237.325 369.9 237.685 369.3C238.085 368.64 238.925 368.22 240.045 368.22ZM254.484 368.3C253.724 367.24 252.664 366.76 251.264 366.76C248.564 366.76 246.724 368.84 246.724 372C246.724 375.26 248.664 377.24 251.324 377.24C252.664 377.24 253.744 376.68 254.484 375.54V377H256.284V363H254.484V368.3ZM253.784 374.9C253.304 375.52 252.584 375.82 251.644 375.82C249.304 375.82 248.704 374.34 248.704 372C248.704 370.86 248.864 369.96 249.284 369.3C249.744 368.58 250.484 368.2 251.684 368.2C254.124 368.2 254.544 370.16 254.544 372.02C254.544 373.3 254.284 374.26 253.784 374.9ZM272.597 372.4C272.317 373.2 272.097 373.84 271.697 375.06C271.377 374.06 271.057 373.08 270.817 372.4L268.917 367H266.997L270.897 376.9C270.217 378.62 269.877 379.44 269.137 379.44C268.657 379.44 268.217 379.34 267.857 379.22L267.817 380.9C268.317 381.04 268.877 381.1 269.377 381.1C270.757 381.1 271.497 380.12 272.317 377.92L276.397 367H274.517L272.597 372.4ZM286.835 368.74C286.015 367.44 284.515 366.76 282.935 366.76C281.495 366.76 280.275 367.26 279.395 368.26C278.555 369.2 278.135 370.5 278.135 371.98C278.135 373.54 278.515 374.84 279.355 375.78C280.215 376.76 281.415 377.24 282.955 377.24C285.475 377.24 287.095 376.04 287.535 373.7L285.775 373.56C285.535 375.08 284.615 375.8 282.935 375.8C281.055 375.8 280.135 374.74 280.095 372.54H287.675C287.755 371.12 287.435 369.7 286.835 368.74ZM282.955 368.22C284.035 368.22 284.775 368.54 285.295 369.3C285.615 369.78 285.815 370.54 285.835 371.08H280.115C280.115 370.58 280.235 369.9 280.595 369.3C280.995 368.64 281.835 368.22 282.955 368.22ZM299.634 375.52C299.374 375.58 299.214 375.6 299.054 375.6C298.474 375.6 298.474 375.36 298.474 374.84V370.06C298.474 367.88 297.194 366.76 294.674 366.76C293.394 366.76 292.334 367.02 291.614 367.5C290.834 368.02 290.414 368.9 290.374 370.1L292.134 370.34C292.134 368.82 292.834 368.18 294.574 368.18C295.454 368.18 296.114 368.44 296.394 368.84C296.694 369.26 296.734 369.76 296.734 370.66L293.434 371.3C291.854 371.6 290.034 372.2 290.034 374.36C290.034 376.32 291.714 377.24 293.394 377.24C295.094 377.24 296.194 376.66 296.754 375.52C296.854 376.56 297.454 377.08 298.554 377.08C298.954 377.08 299.294 377.06 299.674 377L299.634 375.52ZM296.734 373.22C296.734 374.66 295.854 375.8 293.674 375.8C292.694 375.8 291.874 375.28 291.874 374.34C291.874 373.2 292.654 372.9 293.714 372.66L296.734 372V373.22ZM308.156 366.78C306.396 366.94 305.016 367.76 304.636 368.88V367H302.836V377H304.636V372.42C304.636 369.12 306.256 368.44 308.316 368.44C308.536 368.44 308.776 368.44 308.936 368.46L308.976 366.76C308.796 366.76 308.336 366.76 308.156 366.78ZM315.442 363H311.982V364.52H313.642V375.48H311.642V377H317.262V375.48H315.442V363ZM324.98 372.4C324.7 373.2 324.48 373.84 324.08 375.06C323.76 374.06 323.44 373.08 323.2 372.4L321.3 367H319.38L323.28 376.9C322.6 378.62 322.26 379.44 321.52 379.44C321.04 379.44 320.6 379.34 320.24 379.22L320.2 380.9C320.7 381.04 321.26 381.1 321.76 381.1C323.14 381.1 323.88 380.12 324.7 377.92L328.78 367H326.9L324.98 372.4ZM346.556 368.4C345.856 367.34 344.836 366.76 343.336 366.76C340.656 366.76 338.816 368.78 338.816 371.74C338.816 374.86 340.636 376.92 343.396 376.92C344.776 376.92 345.816 376.36 346.556 375.2V376.9C346.556 378.72 345.376 379.7 343.756 379.7C342.156 379.7 341.096 379.26 341.016 377.6L339.296 377.72C339.396 380.24 341.576 381.1 343.556 381.1C346.496 381.1 348.356 379.46 348.356 376.78V367H346.556V368.4ZM345.736 374.66C345.276 375.16 344.616 375.48 343.676 375.48C341.376 375.48 340.776 374.08 340.776 371.74C340.776 370.66 340.956 369.78 341.396 369.16C341.856 368.54 342.596 368.2 343.716 368.2C345.596 368.2 346.636 369.38 346.636 371.74C346.636 372.82 346.396 373.94 345.736 374.66ZM357.629 366.78C355.869 366.94 354.489 367.76 354.109 368.88V367H352.309V377H354.109V372.42C354.109 369.12 355.729 368.44 357.789 368.44C358.009 368.44 358.249 368.44 358.409 368.46L358.449 366.76C358.269 366.76 357.809 366.76 357.629 366.78ZM365.339 377.24C368.339 377.24 370.319 375.14 370.319 372C370.319 368.98 368.399 366.76 365.339 366.76C362.239 366.76 360.339 368.96 360.339 372C360.339 375.26 362.219 377.24 365.339 377.24ZM365.339 375.82C364.339 375.82 363.639 375.56 363.159 375.06C362.519 374.4 362.279 373.34 362.279 372C362.279 370.66 362.519 369.6 363.159 368.94C363.639 368.44 364.359 368.18 365.339 368.18C366.359 368.18 367.059 368.48 367.539 369C368.139 369.66 368.379 370.7 368.379 372C368.379 373.3 368.139 374.32 367.559 374.98C367.079 375.52 366.359 375.82 365.339 375.82ZM376.255 377L377.375 372.54C377.535 371.88 377.775 370.84 377.935 369.9H377.975C378.155 370.9 378.435 372.16 378.535 372.54L379.695 377H381.675L384.315 367H382.415L381.215 372.34C381.035 373.14 380.855 374.1 380.635 375.26H380.595C380.415 374.24 380.135 373 379.975 372.34L378.815 367.7H377.115L375.955 372.34C375.835 372.82 375.495 374.28 375.295 375.26H375.255L374.675 372.34L373.535 367H371.615L374.255 377H376.255ZM392.511 375.32C392.091 375.42 391.571 375.48 391.211 375.48C390.131 375.48 389.751 375.28 389.751 374.48V368.5H392.591V367H389.751V364.22H387.971V367H385.871V368.5H387.971V374.54C387.971 376.36 388.911 377.1 391.071 377.1C391.591 377.1 392.151 377.02 392.531 376.94L392.511 375.32ZM403.508 367.88C402.788 367.12 401.848 366.76 400.528 366.76C399.128 366.76 398.008 367.3 397.448 368.5V363H395.648V377H397.448V371.38C397.448 368.48 399.148 368.26 400.048 368.26C400.608 368.26 401.268 368.28 401.828 368.84C402.448 369.42 402.428 370.2 402.428 371.12V377H404.288V371.02C404.288 369.96 404.268 368.7 403.508 367.88ZM411.085 370.02V367.7H408.865V370.02H411.085ZM411.085 377V374.66H408.865V377H411.085Z" fill="white"/>
</g>
<g filter="url(#filter2_d)">
<rect x="155" y="494" width="283.908" height="35" rx="3" fill="#111111"/>
<rect x="155" y="494" width="283.908" height="35" rx="3" stroke="url(#paint4_linear)"/>
</g>
<path d="M247.032 515.894V507.2H245.772V517H252.1V515.894H247.032ZM252.47 513.5C252.47 515.782 253.786 517.168 255.97 517.168C258.056 517.168 259.456 515.698 259.456 513.5C259.456 511.372 258.084 509.832 255.97 509.832C253.828 509.832 252.47 511.358 252.47 513.5ZM258.098 513.5C258.098 515.236 257.482 516.174 255.97 516.174C254.416 516.174 253.828 515.25 253.828 513.5C253.828 511.75 254.444 510.826 255.97 510.826C257.482 510.826 258.098 511.764 258.098 513.5ZM260.468 513.5C260.468 515.81 261.798 517.168 263.94 517.168C265.578 517.168 266.782 516.272 267.034 514.858L265.844 514.732C265.578 515.74 265.018 516.16 263.94 516.16C262.288 516.16 261.854 515.166 261.854 513.5C261.854 511.862 262.288 510.84 263.94 510.84C265.074 510.84 265.564 511.484 265.83 512.45L267.006 512.226C266.726 510.868 265.662 509.832 263.94 509.832C261.84 509.832 260.468 511.33 260.468 513.5ZM272.875 517H274.345L271.461 512.576L274.219 510H272.511L269.585 512.898V507.2H268.325V517H269.585V514.326L270.565 513.402L272.875 517ZM281.951 510L280.607 513.78L279.977 515.642L279.543 514.354L279.361 513.78L278.031 510H276.687L279.417 516.944C278.857 518.33 278.745 518.638 278.199 518.708C277.905 518.708 277.625 518.652 277.331 518.554L277.303 519.73C277.625 519.828 277.989 519.87 278.367 519.87C279.333 519.87 279.809 519.24 280.411 517.644L283.267 510H281.951ZM283.532 513.5C283.532 515.782 284.848 517.168 287.032 517.168C289.118 517.168 290.518 515.698 290.518 513.5C290.518 511.372 289.146 509.832 287.032 509.832C284.89 509.832 283.532 511.358 283.532 513.5ZM289.16 513.5C289.16 515.236 288.544 516.174 287.032 516.174C285.478 516.174 284.89 515.25 284.89 513.5C284.89 511.75 285.506 510.826 287.032 510.826C288.544 510.826 289.16 511.764 289.16 513.5ZM296.668 510V513.934C296.668 515.39 296.066 516.118 294.862 516.118C294.316 516.118 293.938 516.062 293.588 515.712C293.182 515.278 293.182 514.928 293.182 514.116V510H291.88V514.186C291.88 515.096 291.908 515.824 292.44 516.384C292.944 516.93 293.616 517.168 294.512 517.168C295.52 517.168 296.29 516.734 296.668 515.95V517H297.928V510H296.668ZM303.677 509.832C303.439 509.832 303.285 509.832 303.215 509.846C302.095 509.93 301.227 510.546 301.031 511.232V510H299.771V517H301.031V513.682C301.031 511.498 301.899 511.008 303.327 511.008C303.481 511.008 303.593 511.008 303.649 511.022L303.677 509.832ZM307.518 515.432C307.518 516.566 308.092 517.07 309.394 517.07C309.604 517.07 309.856 517.042 310.164 517L310.136 515.866C309.87 515.908 309.66 515.936 309.492 515.936C308.946 515.936 308.764 515.838 308.764 515.39V511.05H310.192V510H308.764V508.054H307.518V510H306.51V511.05H307.518V515.432ZM310.808 513.5C310.808 515.782 312.124 517.168 314.308 517.168C316.394 517.168 317.794 515.698 317.794 513.5C317.794 511.372 316.422 509.832 314.308 509.832C312.166 509.832 310.808 511.358 310.808 513.5ZM316.436 513.5C316.436 515.236 315.82 516.174 314.308 516.174C312.754 516.174 312.166 515.25 312.166 513.5C312.166 511.75 312.782 510.826 314.308 510.826C315.82 510.826 316.436 511.764 316.436 513.5ZM323.776 517H325.246L322.362 512.576L325.12 510H323.412L320.486 512.898V507.2H319.226V517H320.486V514.326L321.466 513.402L323.776 517ZM331.814 513.584C331.814 512.688 331.59 511.82 331.212 511.218C330.652 510.322 329.602 509.832 328.482 509.832C327.474 509.832 326.62 510.196 326.004 510.882C325.43 511.54 325.122 512.436 325.122 513.486C325.122 514.62 325.402 515.516 325.976 516.146C326.564 516.832 327.404 517.168 328.496 517.168C330.288 517.168 331.38 516.314 331.702 514.69L330.484 514.592C330.316 515.656 329.672 516.16 328.482 516.16C327.18 516.16 326.536 515.432 326.494 513.878H331.8C331.814 513.808 331.814 513.71 331.814 513.584ZM326.844 511.61C327.124 511.148 327.726 510.854 328.496 510.854C329.266 510.854 329.784 511.092 330.134 511.61C330.358 511.932 330.498 512.464 330.512 512.856H326.508C326.522 512.45 326.62 512.002 326.844 511.61ZM339.274 512.842C339.274 511.89 339.246 511.218 338.728 510.616C338.224 510.07 337.552 509.832 336.642 509.832C335.564 509.832 334.85 510.252 334.486 511.078V510H333.226V517H334.486V513.136C334.486 512.254 334.668 511.666 335.046 511.358C335.424 511.036 335.844 510.882 336.306 510.882C336.824 510.882 337.202 510.938 337.552 511.288C337.958 511.736 337.972 512.072 337.972 512.912V517H339.274V512.842ZM340.598 514.704C340.598 516.398 341.928 517.168 343.566 517.168C344.392 517.168 345.078 517 345.624 516.664C346.17 516.314 346.45 515.754 346.45 514.97C346.45 513.976 345.904 513.458 345.19 513.22C344.84 513.094 344.378 512.968 343.776 512.842L343.608 512.8C342.558 512.562 341.998 512.408 341.928 511.792C341.928 511.176 342.628 510.826 343.328 510.826C344.448 510.826 345.078 511.358 345.092 512.31L346.268 512.128C346.142 510.518 344.966 509.832 343.342 509.832C342.026 509.832 340.752 510.476 340.752 511.876C340.822 513.22 341.62 513.514 343.006 513.892L343.566 514.018C344.63 514.27 345.204 514.396 345.26 515.04C345.26 515.782 344.7 516.174 343.538 516.174C342.432 516.174 341.746 515.572 341.746 514.592L340.598 514.704Z" fill="white"/>
<g filter="url(#filter3_f)">
<path d="M35 75C35 52.9086 52.9086 35 75 35H516.9C538.991 35 556.9 52.9086 556.9 75V645C556.9 650.523 552.423 655 546.9 655H35V75Z" fill="#C4C4C4"/>
<path d="M35 75C35 52.9086 52.9086 35 75 35H516.9C538.991 35 556.9 52.9086 556.9 75V645C556.9 650.523 552.423 655 546.9 655H35V75Z" fill="url(#paint5_linear)"/>
<path d="M75 36.5H516.9C538.163 36.5 555.4 53.737 555.4 75V645C555.4 649.694 551.594 653.5 546.9 653.5H36.5V75C36.5 53.737 53.737 36.5 75 36.5Z" stroke="#272727" stroke-width="3"/>
</g>
<path d="M35.0996 75C35.0996 52.9086 53.0082 35 75.0996 35H517C539.091 35 557 52.9086 557 75V360C557 365.523 552.523 370 547 370H35.0996V75Z" fill="#C4C4C4"/>
<path d="M35.0996 75C35.0996 52.9086 53.0082 35 75.0996 35H517C539.091 35 557 52.9086 557 75V360C557 365.523 552.523 370 547 370H35.0996V75Z" fill="url(#paint6_linear)"/>
<path d="M35.0999 71C35.0999 48.9086 53.0085 31 75.0999 31H517.1C539.191 31 557.1 48.9086 557.1 71V356C557.1 361.523 552.623 366 547.1 366H35.0999V71Z" fill="#242424"/>
<path d="M35.0999 71C35.0999 48.9086 53.0085 31 75.0999 31H517.1C539.191 31 557.1 48.9086 557.1 71V356C557.1 361.523 552.623 366 547.1 366H35.0999V71Z" fill="url(#paint7_linear)"/>
<path d="M35.0996 83H239.1" stroke="#242424" stroke-width="3" stroke-miterlimit="10"/>
<path d="M35.0996 114H166.1" stroke="#242424" stroke-width="3" stroke-miterlimit="10"/>
<path d="M35.0996 145H128.1" stroke="#242424" stroke-width="3" stroke-miterlimit="10"/>
<path d="M39.6152 53.3047L555.293 53.3047" stroke="#242424" stroke-width="3" stroke-miterlimit="10"/>
<path d="M557.1 83L349.1 83" stroke="#242424" stroke-width="3" stroke-miterlimit="10"/>
<path d="M557.1 114L404.1 114" stroke="#242424" stroke-width="3" stroke-miterlimit="10"/>
<path d="M557.1 145L460.1 145" stroke="#242424" stroke-width="3" stroke-miterlimit="10"/>
<path d="M557.1 175L469.1 175" stroke="#242424" stroke-width="3" stroke-miterlimit="10"/>
<path d="M101.1 175H35.0996" stroke="#242424" stroke-width="3" stroke-miterlimit="10"/>
<path d="M524.1 693V335C524.1 209.079 422.021 107 296.1 107V107C170.179 107 68.0999 209.079 68.0999 335V693" stroke="#242424" stroke-width="66" stroke-linejoin="round"/>
<path d="M524.1 693V335C524.1 209.079 422.021 107 296.1 107V107C170.179 107 68.0999 209.079 68.0999 335V693" stroke="url(#paint8_linear)" stroke-width="66" stroke-linejoin="round"/>
<path d="M557.094 535.526H490.099" stroke="#242424" stroke-width="3" stroke-miterlimit="10"/>
<path d="M557.094 497.289H490.099" stroke="#242424" stroke-width="3" stroke-miterlimit="10"/>
<path d="M557.094 573.745H490.099" stroke="#242424" stroke-width="3" stroke-miterlimit="10"/>
<path d="M557.094 612.363H490.099" stroke="#242424" stroke-width="3" stroke-miterlimit="10"/>
<path d="M557.094 651.03H490.099" stroke="#242424" stroke-width="3" stroke-miterlimit="10"/>
<path d="M557.094 453.883H490.099" stroke="#242424" stroke-width="3" stroke-miterlimit="10"/>
<path d="M557.094 391.997H490.099" stroke="#242424" stroke-width="3" stroke-miterlimit="10"/>
<path d="M557.094 384.521H490.099" stroke="#242424" stroke-width="3" stroke-miterlimit="10"/>
<path d="M556.891 365.86L490.456 365.86" stroke="#242424" stroke-width="3" stroke-miterlimit="10"/>
<path d="M557.094 414.476H490.099" stroke="#242424" stroke-width="3" stroke-miterlimit="10"/>
<path d="M523.598 453.883V497.093" stroke="#242424" stroke-width="3" stroke-miterlimit="10"/>
<path d="M523.598 535.526V573.958" stroke="#242424" stroke-width="3" stroke-miterlimit="10"/>
<path d="M523.598 612.363V650.795" stroke="#242424" stroke-width="3" stroke-miterlimit="10"/>
<path d="M100 334.5C100 226.528 187.528 139 295.5 139V139C403.472 139 491 226.528 491 334.5V693H100V334.5Z" fill="#242424"/>
<path d="M100.099 535.526H35.0994" stroke="#242424" stroke-width="3" stroke-miterlimit="10"/>
<path d="M100.099 497.289H35.0994" stroke="#242424" stroke-width="3" stroke-miterlimit="10"/>
<path d="M100.099 573.745H35.0994" stroke="#242424" stroke-width="3" stroke-miterlimit="10"/>
<path d="M100.099 612.363H35.0994" stroke="#242424" stroke-width="3" stroke-miterlimit="10"/>
<path d="M100.099 651.03H35.0994" stroke="#242424" stroke-width="3" stroke-miterlimit="10"/>
<path d="M100.099 453.883H35.0994" stroke="#242424" stroke-width="3" stroke-miterlimit="10"/>
<path d="M100.099 391.997H35.0994" stroke="#242424" stroke-width="3" stroke-miterlimit="10"/>
<path d="M100.099 384.521H35.0994" stroke="#242424" stroke-width="3" stroke-miterlimit="10"/>
<path d="M99.9022 365.86L35.4456 365.86" stroke="#242424" stroke-width="3" stroke-miterlimit="10"/>
<path d="M100.099 414.476H35.0994" stroke="#242424" stroke-width="3" stroke-miterlimit="10"/>
<path d="M67.6006 453.883V497.093" stroke="#242424" stroke-width="3" stroke-miterlimit="10"/>
<path d="M67.6006 535.526V573.958" stroke="#242424" stroke-width="3" stroke-miterlimit="10"/>
<path d="M67.6006 612.363V650.795" stroke="#242424" stroke-width="3" stroke-miterlimit="10"/>
<defs>
<filter id="filter0_f" x="1" y="0" width="591.9" height="690" filterUnits="userSpaceOnUse" color-interpolation-filters="sRGB">
<feFlood flood-opacity="0" result="BackgroundImageFix"/>
<feBlend mode="normal" in="SourceGraphic" in2="BackgroundImageFix" result="shape"/>
<feGaussianBlur stdDeviation="17.5" result="effect1_foregroundBlur"/>
</filter>
<filter id="filter1_d" x="149.776" y="352.84" width="271.309" height="86.6403" filterUnits="userSpaceOnUse" color-interpolation-filters="sRGB">
<feFlood flood-opacity="0" result="BackgroundImageFix"/>
<feColorMatrix in="SourceAlpha" type="matrix" values="0 0 0 0 0 0 0 0 0 0 0 0 0 0 0 0 0 0 127 0"/>
<feOffset/>
<feGaussianBlur stdDeviation="5"/>
<feColorMatrix type="matrix" values="0 0 0 0 1 0 0 0 0 1 0 0 0 0 1 0 0 0 1 0"/>
<feBlend mode="normal" in2="BackgroundImageFix" result="effect1_dropShadow"/>
<feBlend mode="normal" in="SourceGraphic" in2="effect1_dropShadow" result="shape"/>
</filter>
<filter id="filter2_d" x="150.5" y="491.5" width="292.908" height="44" filterUnits="userSpaceOnUse" color-interpolation-filters="sRGB">
<feFlood flood-opacity="0" result="BackgroundImageFix"/>
<feColorMatrix in="SourceAlpha" type="matrix" values="0 0 0 0 0 0 0 0 0 0 0 0 0 0 0 0 0 0 127 0"/>
<feOffset dy="2"/>
<feGaussianBlur stdDeviation="2"/>
<feColorMatrix type="matrix" values="0 0 0 0 0.392157 0 0 0 0 0.392157 0 0 0 0 0.392157 0 0 0 0.498039 0"/>
<feBlend mode="normal" in2="BackgroundImageFix" result="effect1_dropShadow"/>
<feBlend mode="normal" in="SourceGraphic" in2="effect1_dropShadow" result="shape"/>
</filter>
<filter id="filter3_f" x="0" y="0" width="591.9" height="690" filterUnits="userSpaceOnUse" color-interpolation-filters="sRGB">
<feFlood flood-opacity="0" result="BackgroundImageFix"/>
<feBlend mode="normal" in="SourceGraphic" in2="BackgroundImageFix" result="shape"/>
<feGaussianBlur stdDeviation="17.5" result="effect1_foregroundBlur"/>
</filter>
<linearGradient id="paint0_linear" x1="300.449" y1="35" x2="300.449" y2="697.5" gradientUnits="userSpaceOnUse">
<stop offset="0.00715083" stop-color="#F1FC68"/>
<stop offset="1" stop-color="#5EC4D6"/>
</linearGradient>
<linearGradient id="paint1_linear" x1="322.945" y1="35" x2="322.945" y2="394" gradientUnits="userSpaceOnUse">
<stop stop-color="#F1FC68"/>
<stop offset="1" stop-color="#5EC4D6"/>
</linearGradient>
<linearGradient id="paint2_linear" x1="323" y1="31" x2="323" y2="390" gradientUnits="userSpaceOnUse">
<stop stop-color="#F1FC68"/>
<stop offset="1" stop-color="#5EC4D6"/>
</linearGradient>
<linearGradient id="paint3_linear" x1="319.725" y1="107" x2="319.725" y2="693" gradientUnits="userSpaceOnUse">
<stop stop-color="#F1FC68"/>
<stop offset="1" stop-color="#5EC4D6"/>
</linearGradient>
<linearGradient id="paint4_linear" x1="297.155" y1="476.81" x2="288.762" y2="545.498" gradientUnits="userSpaceOnUse">
<stop stop-color="#5EC4D6"/>
<stop offset="1" stop-color="#F1FC68"/>
</linearGradient>
<linearGradient id="paint5_linear" x1="299.449" y1="35" x2="299.449" y2="697.5" gradientUnits="userSpaceOnUse">
<stop offset="0.00715083" stop-color="#F1FC68"/>
<stop offset="1" stop-color="#5EC4D6"/>
</linearGradient>
<linearGradient id="paint6_linear" x1="321.945" y1="35" x2="321.945" y2="394" gradientUnits="userSpaceOnUse">
<stop stop-color="#F1FC68"/>
<stop offset="1" stop-color="#5EC4D6"/>
</linearGradient>
<linearGradient id="paint7_linear" x1="322" y1="31" x2="322" y2="390" gradientUnits="userSpaceOnUse">
<stop stop-color="#F1FC68"/>
<stop offset="1" stop-color="#5EC4D6"/>
</linearGradient>
<linearGradient id="paint8_linear" x1="318.725" y1="107" x2="318.725" y2="693" gradientUnits="userSpaceOnUse">
<stop stop-color="#F1FC68"/>
<stop offset="1" stop-color="#5EC4D6"/>
</linearGradient>
</defs>
</svg>