<svg fill="#FFFFFF" xmlns="http://www.w3.org/2000/svg"  viewBox="0 0 50 50 " width="20px" height="20px"><path d="M 47.507813 12.441406 C 47.460938 12.375 47.410156 12.308594 47.351563 12.25 C 47.300781 12.195313 47.25 12.140625 47.191406 12.09375 C 47.054688 11.972656 46.910156 11.863281 46.742188 11.78125 L 34.777344 5.71875 L 34.066406 5.359375 C 34.066406 5.359375 34.0625 5.359375 34.0625 5.359375 C 33.839844 5.246094 33.601563 5.160156 33.359375 5.101563 C 33.09375 5.035156 32.820313 5 32.550781 5 C 31.351563 5 30.226563 5.628906 29.609375 6.636719 L 27.84375 9.546875 L 22.578125 18.210938 L 19.738281 12.65625 C 19.519531 12.296875 19.214844 12.015625 18.851563 11.832031 L 6.839844 5.753906 C 6.839844 5.75 6.835938 5.75 6.832031 5.746094 L 6.453125 5.558594 C 5.953125 5.304688 5.4375 5.175781 4.921875 5.175781 C 3.257813 5.175781 2 6.523438 2 8.3125 L 2 35.367188 C 2 36.84375 2.949219 38.394531 4.261719 39.058594 L 15.160156 44.574219 C 15.714844 44.855469 16.28125 45 16.847656 45 C 18.675781 45 20 43.5625 20 41.578125 L 20 32.847656 L 42 44 L 42 43.988281 L 42.769531 44.378906 C 43.441406 44.71875 44.113281 44.890625 44.769531 44.890625 C 46.640625 44.890625 48 43.496094 48 41.578125 L 48 13.835938 C 48 13.3125 47.8125 12.835938 47.507813 12.441406 Z M 18 41.578125 C 18 42.46875 17.523438 43 16.847656 43 C 16.609375 43 16.34375 42.933594 16.0625 42.792969 L 5.164063 37.273438 C 4.523438 36.949219 4 36.089844 4 35.367188 L 4 8.3125 C 4 7.597656 4.378906 7.175781 4.921875 7.175781 C 5.113281 7.175781 5.328125 7.226563 5.550781 7.339844 L 5.933594 7.535156 C 5.933594 7.535156 5.9375 7.535156 5.9375 7.535156 L 17.949219 13.617188 C 17.96875 13.628906 17.984375 13.648438 18 13.664063 Z M 30.585938 8.882813 L 31.320313 7.675781 C 31.582031 7.246094 32.0625 7 32.550781 7 C 32.664063 7 32.78125 7.015625 32.894531 7.046875 C 32.980469 7.066406 33.070313 7.097656 33.164063 7.144531 L 45.832031 13.558594 C 45.835938 13.558594 45.835938 13.5625 45.835938 13.5625 L 45.847656 13.566406 C 45.855469 13.570313 45.855469 13.582031 45.863281 13.585938 C 45.925781 13.636719 45.953125 13.722656 45.910156 13.792969 L 33.292969 34.558594 L 32.003906 36.675781 L 23.644531 20.304688 Z M 20 30.605469 L 20 17.5625 L 28.980469 35.15625 L 20.902344 31.066406 Z M 46 41.578125 C 46 42.414063 45.503906 42.890625 44.773438 42.890625 C 44.445313 42.890625 44.070313 42.796875 43.675781 42.597656 L 41.867188 41.679688 L 33.789063 37.589844 L 46 17.496094 Z"/></svg>
