<svg width="520" height="660" viewBox="2 0 520 662" fill="none" xmlns="http://www.w3.org/2000/svg">
<path d="M2.5 40C2.5 18.737 19.737 1.5 41 1.5H483C504.263 1.5 521.5 18.737 521.5 40V610C521.5 614.694 517.694 618.5 513 618.5H2.5V40Z" fill="#C4C4C4"/>
<path d="M2.5 40C2.5 18.737 19.737 1.5 41 1.5H483C504.263 1.5 521.5 18.737 521.5 40V610C521.5 614.694 517.694 618.5 513 618.5H2.5V40Z" fill="url(#paint0_linear)"/>
<path d="M2.5 40C2.5 18.737 19.737 1.5 41 1.5H483C504.263 1.5 521.5 18.737 521.5 40V610C521.5 614.694 517.694 618.5 513 618.5H2.5V40Z" stroke="#272727" stroke-width="3"/>
<path d="M1.09961 40C1.09961 17.9086 19.0082 0 41.0996 0H483.1C505.191 0 523.1 17.9086 523.1 40V325C523.1 330.523 518.622 335 513.1 335H1.09961V40Z" fill="#393737"/>
<path d="M68 302C68 194.857 154.857 108 262 108V108C369.143 108 456 194.857 456 302V662H68V302Z" fill="#242424"/>
<line x1="85.5" y1="662" x2="85.5" y2="122" stroke="#121212" stroke-width="3"/>
<line x1="143.5" y1="662" x2="143.5" y2="108" stroke="#121212" stroke-width="3"/>
<line x1="201.5" y1="662" x2="201.5" y2="108" stroke="#121212" stroke-width="3"/>
<line x1="114.5" y1="662" x2="114.5" y2="108" stroke="#121212" stroke-width="3"/>
<line x1="172.5" y1="662" x2="172.5" y2="108" stroke="#121212" stroke-width="3"/>
<line x1="230.5" y1="662" x2="230.5" y2="108" stroke="#121212" stroke-width="3"/>
<line x1="259.5" y1="662" x2="259.5" y2="108" stroke="#121212" stroke-width="3"/>
<line x1="288.5" y1="662" x2="288.5" y2="108" stroke="#121212" stroke-width="3"/>
<line x1="317.5" y1="662" x2="317.5" y2="108" stroke="#121212" stroke-width="3"/>
<line x1="346.5" y1="662" x2="346.5" y2="108" stroke="#121212" stroke-width="3"/>
<line x1="375.5" y1="662" x2="375.5" y2="108" stroke="#121212" stroke-width="3"/>
<line x1="404.5" y1="662" x2="404.5" y2="108" stroke="#121212" stroke-width="3"/>
<line x1="433.5" y1="662" x2="433.5" y2="122" stroke="#121212" stroke-width="3"/>
<path d="M1.09961 52H205.1" stroke="#242424" stroke-width="3" stroke-miterlimit="10"/>
<path d="M1.09961 83H132.1" stroke="#242424" stroke-width="3" stroke-miterlimit="10"/>
<path d="M1.09961 114H94.0996" stroke="#242424" stroke-width="3" stroke-miterlimit="10"/>
<path d="M5.61523 22.3047L521.293 22.3047" stroke="#242424" stroke-width="3" stroke-miterlimit="10"/>
<path d="M523.1 52L315.1 52" stroke="#242424" stroke-width="3" stroke-miterlimit="10"/>
<path d="M523.1 83L370.1 83" stroke="#242424" stroke-width="3" stroke-miterlimit="10"/>
<path d="M523.1 114L426.1 114" stroke="#242424" stroke-width="3" stroke-miterlimit="10"/>
<path d="M523.1 144L435.1 144" stroke="#242424" stroke-width="3" stroke-miterlimit="10"/>
<path d="M67.0996 144H1.09961" stroke="#242424" stroke-width="3" stroke-miterlimit="10"/>
<path d="M490.1 662V304C490.1 178.079 388.021 76 262.1 76V76C136.179 76 34.0996 178.079 34.0996 304V662" stroke="#414141" stroke-width="68" stroke-linejoin="round"/>
<path d="M523.094 504.526H456.1" stroke="#242424" stroke-width="3" stroke-miterlimit="10"/>
<path d="M523.094 466.289H456.1" stroke="#242424" stroke-width="3" stroke-miterlimit="10"/>
<path d="M523.094 542.745H456.1" stroke="#242424" stroke-width="3" stroke-miterlimit="10"/>
<path d="M523.094 581.363H456.1" stroke="#242424" stroke-width="3" stroke-miterlimit="10"/>
<path d="M523.094 620.03H456.1" stroke="#242424" stroke-width="3" stroke-miterlimit="10"/>
<path d="M523.094 422.883H456.1" stroke="#242424" stroke-width="3" stroke-miterlimit="10"/>
<path d="M523.094 360.997H456.1" stroke="#242424" stroke-width="3" stroke-miterlimit="10"/>
<path d="M523.094 353.521H456.1" stroke="#242424" stroke-width="3" stroke-miterlimit="10"/>
<path d="M522.891 334.86L456.456 334.86" stroke="#242424" stroke-width="3" stroke-miterlimit="10"/>
<path d="M523.094 383.476H456.1" stroke="#242424" stroke-width="3" stroke-miterlimit="10"/>
<path d="M489.598 422.883V466.093" stroke="#242424" stroke-width="3" stroke-miterlimit="10"/>
<path d="M489.598 504.526V542.958" stroke="#242424" stroke-width="3" stroke-miterlimit="10"/>
<path d="M489.598 581.363V619.795" stroke="#242424" stroke-width="3" stroke-miterlimit="10"/>
<path d="M66.0996 504.526H1.09961" stroke="#242424" stroke-width="3" stroke-miterlimit="10"/>
<path d="M66.0996 466.289H1.09961" stroke="#242424" stroke-width="3" stroke-miterlimit="10"/>
<path d="M66.0996 542.745H1.09961" stroke="#242424" stroke-width="3" stroke-miterlimit="10"/>
<path d="M66.0996 581.363H1.09961" stroke="#242424" stroke-width="3" stroke-miterlimit="10"/>
<path d="M66.0996 620.03H1.09961" stroke="#242424" stroke-width="3" stroke-miterlimit="10"/>
<path d="M66.0996 422.883H1.09961" stroke="#242424" stroke-width="3" stroke-miterlimit="10"/>
<path d="M66.0996 360.997H1.09961" stroke="#242424" stroke-width="3" stroke-miterlimit="10"/>
<path d="M66.0996 353.521H1.09961" stroke="#242424" stroke-width="3" stroke-miterlimit="10"/>
<path d="M65.902 334.86L1.44531 334.86" stroke="#242424" stroke-width="3" stroke-miterlimit="10"/>
<path d="M66.0996 383.476H1.09961" stroke="#242424" stroke-width="3" stroke-miterlimit="10"/>
<path d="M33.6006 422.883V466.093" stroke="#242424" stroke-width="3" stroke-miterlimit="10"/>
<path d="M33.6006 504.526V542.958" stroke="#242424" stroke-width="3" stroke-miterlimit="10"/>
<path d="M33.6006 581.363V619.795" stroke="#242424" stroke-width="3" stroke-miterlimit="10"/>
<defs>
<linearGradient id="paint0_linear" x1="265.5" y1="2.76347e-06" x2="265.5" y2="662.5" gradientUnits="userSpaceOnUse">
<stop offset="0.00715083" stop-color="#F1FC68"/>
<stop offset="1" stop-color="#5EC4D6"/>
</linearGradient>
</defs>
</svg>
