<svg width="606" height="705" viewBox="0 0 606 705" fill="none" xmlns="http://www.w3.org/2000/svg">
<g filter="url(#filter0_f)">
<path d="M35 75C35 52.9086 52.9086 35 75 35H531C553.091 35 571 52.9086 571 75V648C571 653.523 566.523 658 561 658H35V75Z" fill="#C4C4C4"/>
<path d="M35 75C35 52.9086 52.9086 35 75 35H531C553.091 35 571 52.9086 571 75V648C571 653.523 566.523 658 561 658H35V75Z" fill="url(#paint0_linear)"/>
<path d="M75 36.5H531C552.263 36.5 569.5 53.737 569.5 75V648C569.5 652.694 565.694 656.5 561 656.5H36.5V75C36.5 53.737 53.737 36.5 75 36.5Z" stroke="#272727" stroke-width="3"/>
</g>
<path d="M43.5 83C43.5 61.737 60.737 44.5 82 44.5H524C545.263 44.5 562.5 61.737 562.5 83V653C562.5 657.694 558.694 661.5 554 661.5H43.5V83Z" fill="#C4C4C4"/>
<path d="M43.5 83C43.5 61.737 60.737 44.5 82 44.5H524C545.263 44.5 562.5 61.737 562.5 83V653C562.5 657.694 558.694 661.5 554 661.5H43.5V83Z" fill="url(#paint1_linear)"/>
<path d="M43.5 83C43.5 61.737 60.737 44.5 82 44.5H524C545.263 44.5 562.5 61.737 562.5 83V653C562.5 657.694 558.694 661.5 554 661.5H43.5V83Z" stroke="#272727" stroke-width="3"/>
<path d="M42.0996 83C42.0996 60.9086 60.0082 43 82.0996 43H524.1C546.191 43 564.1 60.9086 564.1 83V368C564.1 373.523 559.622 378 554.1 378H42.0996V83Z" fill="#393737"/>
<path d="M107.1 346C107.1 238.304 194.404 151 302.1 151C409.795 151 497.1 238.304 497.1 346V705H107.1V346Z" fill="#242424"/>
<line x1="126.5" y1="705" x2="126.5" y2="165" stroke="#121212" stroke-width="3"/>
<line x1="184.5" y1="705" x2="184.5" y2="151" stroke="#121212" stroke-width="3"/>
<line x1="242.5" y1="705" x2="242.5" y2="151" stroke="#121212" stroke-width="3"/>
<line x1="155.5" y1="705" x2="155.5" y2="151" stroke="#121212" stroke-width="3"/>
<line x1="213.5" y1="705" x2="213.5" y2="151" stroke="#121212" stroke-width="3"/>
<line x1="271.5" y1="705" x2="271.5" y2="151" stroke="#121212" stroke-width="3"/>
<line x1="300.5" y1="705" x2="300.5" y2="151" stroke="#121212" stroke-width="3"/>
<line x1="329.5" y1="705" x2="329.5" y2="151" stroke="#121212" stroke-width="3"/>
<line x1="358.5" y1="705" x2="358.5" y2="151" stroke="#121212" stroke-width="3"/>
<line x1="387.5" y1="705" x2="387.5" y2="151" stroke="#121212" stroke-width="3"/>
<line x1="416.5" y1="705" x2="416.5" y2="151" stroke="#121212" stroke-width="3"/>
<line x1="445.5" y1="705" x2="445.5" y2="151" stroke="#121212" stroke-width="3"/>
<line x1="474.5" y1="705" x2="474.5" y2="165" stroke="#121212" stroke-width="3"/>
<path d="M42.0996 95H246.1" stroke="#242424" stroke-width="3" stroke-miterlimit="10"/>
<path d="M42.0996 126H173.1" stroke="#242424" stroke-width="3" stroke-miterlimit="10"/>
<path d="M42.0996 157H135.1" stroke="#242424" stroke-width="3" stroke-miterlimit="10"/>
<path d="M46.6152 65.3047L562.293 65.3047" stroke="#242424" stroke-width="3" stroke-miterlimit="10"/>
<path d="M564.1 95L356.1 95" stroke="#242424" stroke-width="3" stroke-miterlimit="10"/>
<path d="M564.1 126L411.1 126" stroke="#242424" stroke-width="3" stroke-miterlimit="10"/>
<path d="M564.1 157L467.1 157" stroke="#242424" stroke-width="3" stroke-miterlimit="10"/>
<path d="M564.1 187L476.1 187" stroke="#242424" stroke-width="3" stroke-miterlimit="10"/>
<path d="M108.1 187H42.0996" stroke="#242424" stroke-width="3" stroke-miterlimit="10"/>
<path d="M531.1 705V347C531.1 221.079 429.021 119 303.1 119V119C177.179 119 75.0996 221.079 75.0996 347V705" stroke="#414141" stroke-width="68" stroke-linejoin="round"/>
<path d="M564.094 547.526H497.1" stroke="#242424" stroke-width="3" stroke-miterlimit="10"/>
<path d="M564.094 509.289H497.1" stroke="#242424" stroke-width="3" stroke-miterlimit="10"/>
<path d="M564.094 585.745H497.1" stroke="#242424" stroke-width="3" stroke-miterlimit="10"/>
<path d="M564.094 624.363H497.1" stroke="#242424" stroke-width="3" stroke-miterlimit="10"/>
<path d="M564.094 663.03H497.1" stroke="#242424" stroke-width="3" stroke-miterlimit="10"/>
<path d="M564.094 465.883H497.1" stroke="#242424" stroke-width="3" stroke-miterlimit="10"/>
<path d="M564.094 403.997H497.1" stroke="#242424" stroke-width="3" stroke-miterlimit="10"/>
<path d="M564.094 396.521H497.1" stroke="#242424" stroke-width="3" stroke-miterlimit="10"/>
<path d="M563.891 377.86L497.457 377.86" stroke="#242424" stroke-width="3" stroke-miterlimit="10"/>
<path d="M564.094 426.476H497.1" stroke="#242424" stroke-width="3" stroke-miterlimit="10"/>
<path d="M530.598 465.883V509.093" stroke="#242424" stroke-width="3" stroke-miterlimit="10"/>
<path d="M530.598 547.526V585.958" stroke="#242424" stroke-width="3" stroke-miterlimit="10"/>
<path d="M530.598 624.363V662.795" stroke="#242424" stroke-width="3" stroke-miterlimit="10"/>
<path d="M107.1 547.526H42.0996" stroke="#242424" stroke-width="3" stroke-miterlimit="10"/>
<path d="M107.1 509.289H42.0996" stroke="#242424" stroke-width="3" stroke-miterlimit="10"/>
<path d="M107.1 585.745H42.0996" stroke="#242424" stroke-width="3" stroke-miterlimit="10"/>
<path d="M107.1 624.363H42.0996" stroke="#242424" stroke-width="3" stroke-miterlimit="10"/>
<path d="M107.1 663.03H42.0996" stroke="#242424" stroke-width="3" stroke-miterlimit="10"/>
<path d="M107.1 465.883H42.0996" stroke="#242424" stroke-width="3" stroke-miterlimit="10"/>
<path d="M107.1 403.997H42.0996" stroke="#242424" stroke-width="3" stroke-miterlimit="10"/>
<path d="M107.1 396.521H42.0996" stroke="#242424" stroke-width="3" stroke-miterlimit="10"/>
<path d="M106.902 377.86L42.4458 377.86" stroke="#242424" stroke-width="3" stroke-miterlimit="10"/>
<path d="M107.1 426.476H42.0996" stroke="#242424" stroke-width="3" stroke-miterlimit="10"/>
<path d="M74.6006 465.883V509.093" stroke="#242424" stroke-width="3" stroke-miterlimit="10"/>
<path d="M74.6006 547.526V585.958" stroke="#242424" stroke-width="3" stroke-miterlimit="10"/>
<path d="M74.6006 624.363V662.795" stroke="#242424" stroke-width="3" stroke-miterlimit="10"/>
<defs>
<filter id="filter0_f" x="0" y="0" width="606" height="693" filterUnits="userSpaceOnUse" color-interpolation-filters="sRGB">
<feFlood flood-opacity="0" result="BackgroundImageFix"/>
<feBlend mode="normal" in="SourceGraphic" in2="BackgroundImageFix" result="shape"/>
<feGaussianBlur stdDeviation="17.5" result="effect1_foregroundBlur"/>
</filter>
<linearGradient id="paint0_linear" x1="306.594" y1="35" x2="306.594" y2="700.706" gradientUnits="userSpaceOnUse">
<stop offset="0.00715083" stop-color="#F1FC68"/>
<stop offset="1" stop-color="#5EC4D6"/>
</linearGradient>
<linearGradient id="paint1_linear" x1="306.5" y1="43" x2="306.5" y2="705.5" gradientUnits="userSpaceOnUse">
<stop offset="0.00715083" stop-color="#F1FC68"/>
<stop offset="1" stop-color="#5EC4D6"/>
</linearGradient>
</defs>
</svg>
