<svg width="59" height="30" viewBox="0 0 59 30" fill="none" xmlns="http://www.w3.org/2000/svg">
<path d="M18.124 19.144C19.576 19.144 21.232 18.592 21.232 16.564C21.232 14.824 19.924 14.488 18.376 14.2C17.332 14.008 16.168 13.744 16.168 12.784C16.168 11.86 16.972 11.356 17.932 11.356C19.072 11.356 19.792 12.052 19.864 13.228L21.004 13.024C20.788 11.116 19.456 10.456 17.884 10.456C16.564 10.456 15.052 11.14 15.052 12.82C15.052 14.392 16.384 14.884 17.596 15.184C18.76 15.472 20.104 15.484 20.104 16.648C20.104 17.8 19.144 18.232 18.088 18.232C16.888 18.232 16.024 17.536 15.952 16.264L14.8 16.384C14.872 18.268 16.384 19.144 18.124 19.144ZM24.4735 19L25.0375 16.744C25.1335 16.348 25.3015 15.724 25.3855 15.16H25.4335C25.5295 15.76 25.7215 16.516 25.7815 16.744L26.3695 19H27.5815L28.7455 13H27.6175L27.1495 16.204C27.0775 16.684 27.0175 17.248 26.9335 17.944H26.8855C26.7895 17.332 26.6215 16.6 26.5255 16.204L25.9255 13.84H24.9055L24.3175 16.204C24.2455 16.492 24.0295 17.356 23.9215 17.944H23.8735L23.6695 16.204L23.2255 13H22.0975L23.2495 19H24.4735ZM35.9709 18.112C35.8149 18.148 35.7189 18.16 35.6229 18.16C35.2749 18.16 35.2749 18.016 35.2749 17.704V14.836C35.2749 13.528 34.5069 12.856 32.9949 12.856C32.2269 12.856 31.5909 13.012 31.1589 13.3C30.6909 13.612 30.4389 14.14 30.4149 14.86L31.4709 15.004C31.4709 14.092 31.8909 13.708 32.9349 13.708C33.4629 13.708 33.8589 13.864 34.0269 14.104C34.2069 14.356 34.2309 14.656 34.2309 15.196L32.2509 15.58C31.3029 15.76 30.2109 16.12 30.2109 17.416C30.2109 18.592 31.2189 19.144 32.2269 19.144C33.2469 19.144 33.9069 18.796 34.2429 18.112C34.3029 18.736 34.6629 19.048 35.3229 19.048C35.5629 19.048 35.7669 19.036 35.9949 19L35.9709 18.112ZM34.2309 16.732C34.2309 17.596 33.7029 18.28 32.3949 18.28C31.8069 18.28 31.3149 17.968 31.3149 17.404C31.3149 16.72 31.7829 16.54 32.4189 16.396L34.2309 16V16.732ZM40.7123 12.856C39.9083 12.856 39.2603 13.192 38.8163 13.876V13H37.7363V21.4H38.8163V18.22C39.2723 18.856 39.9083 19.144 40.7483 19.144C42.3683 19.144 43.4723 17.896 43.4723 16C43.4723 14.044 42.3083 12.856 40.7123 12.856ZM41.8883 17.68C41.6123 18.076 41.1683 18.28 40.4963 18.28C39.0323 18.28 38.7803 17.104 38.7803 15.988C38.7803 15.208 38.9363 14.632 39.2483 14.248C39.5363 13.888 39.9683 13.708 40.5203 13.708C41.9243 13.708 42.2843 14.596 42.2843 16C42.2843 16.72 42.1763 17.296 41.8883 17.68Z" fill="white"/>
<path d="M1 19C1 9.05887 9.05887 1 19 1H58V11C58 20.9411 49.9411 29 40 29H1V19Z" stroke="url(#paint0_linear)" stroke-width="2"/>
<defs>
<linearGradient id="paint0_linear" x1="29.5403" y1="-12.7522" x2="7.5908" y2="32.3323" gradientUnits="userSpaceOnUse">
<stop stop-color="#5EC4D6"/>
<stop offset="1" stop-color="#F1FC68"/>
</linearGradient>
</defs>
</svg>
