<svg width="1017" height="1223" viewBox="0 0 1017 1223" fill="none" xmlns="http://www.w3.org/2000/svg">
<path d="M984 1220.5V513.767C984 364.343 863.741 225.609 666.253 147.199C624.593 130.66 587.99 109.353 558.204 84.3376L509 43L459.796 84.3376C430.038 109.353 393.407 130.66 351.747 147.199C154.259 225.609 34 364.343 34 513.767V1220.5" fill="#242424"/>
<path d="M984 1220.5V513.767C984 364.343 863.741 225.609 666.253 147.199C624.593 130.66 587.99 109.353 558.204 84.3376L509 43L459.796 84.3376C430.038 109.353 393.407 130.66 351.747 147.199C154.259 225.609 34 364.343 34 513.767V1220.5" stroke="black" stroke-width="65" stroke-miterlimit="10"/>
<path d="M984 1220.5V513.767C984 364.343 863.741 225.609 666.253 147.199C624.593 130.66 587.99 109.353 558.204 84.3376L509 43L459.796 84.3376C430.038 109.353 393.407 130.66 351.747 147.199C154.259 225.609 34 364.343 34 513.767V1220.5" stroke="url(#paint0_linear)" stroke-width="65" stroke-miterlimit="10"/>
<path d="M983 1222.5V515.767C983 366.343 862.741 227.609 665.253 149.199C623.593 132.66 586.99 111.353 557.204 86.3376L508 45L458.796 86.3376C429.038 111.353 392.407 132.66 350.747 149.199C153.259 227.609 33 366.343 33 515.767V1222.5" fill="url(#paint1_linear)"/>
<path d="M983 1222.5V515.767C983 366.343 862.741 227.609 665.253 149.199C623.593 132.66 586.99 111.353 557.204 86.3376L508 45L458.796 86.3376C429.038 111.353 392.407 132.66 350.747 149.199C153.259 227.609 33 366.343 33 515.767V1222.5" stroke="black" stroke-width="65" stroke-miterlimit="10"/>
<path d="M983 1222.5V515.767C983 366.343 862.741 227.609 665.253 149.199C623.593 132.66 586.99 111.353 557.204 86.3376L508 45L458.796 86.3376C429.038 111.353 392.407 132.66 350.747 149.199C153.259 227.609 33 366.343 33 515.767V1222.5" stroke="url(#paint2_linear)" stroke-width="65" stroke-miterlimit="10"/>
<path d="M983 1222.5V515.767C983 366.343 862.741 227.609 665.253 149.199C623.593 132.66 586.99 111.353 557.204 86.3376L508 45L458.796 86.3376C429.038 111.353 392.407 132.66 350.747 149.199C153.259 227.609 33 366.343 33 515.767V1222.5" fill="url(#paint3_linear)"/>
<path d="M1.65048e-07 626.504L65 626.504" stroke="#242424" stroke-width="3" stroke-miterlimit="10"/>
<path d="M1.65048e-07 664.741L65 664.741" stroke="#242424" stroke-width="3" stroke-miterlimit="10"/>
<path d="M1.65048e-07 588.285L65 588.285" stroke="#242424" stroke-width="3" stroke-miterlimit="10"/>
<path d="M1.65048e-07 549.667L65 549.667" stroke="#242424" stroke-width="3" stroke-miterlimit="10"/>
<path d="M1.65048e-07 511L65 511" stroke="#242424" stroke-width="3" stroke-miterlimit="10"/>
<path d="M1.65048e-07 708.147L65 708.147" stroke="#242424" stroke-width="3" stroke-miterlimit="10"/>
<path d="M1.65048e-07 770.033L65 770.033" stroke="#242424" stroke-width="3" stroke-miterlimit="10"/>
<path d="M1.65048e-07 777.509L65 777.509" stroke="#242424" stroke-width="3" stroke-miterlimit="10"/>
<path d="M0.197128 796.17L64.6538 796.17" stroke="#242424" stroke-width="3" stroke-miterlimit="10"/>
<path d="M1.65048e-07 747.555L65 747.555" stroke="#242424" stroke-width="3" stroke-miterlimit="10"/>
<path d="M32.499 708.147L32.499 664.937" stroke="#242424" stroke-width="3" stroke-miterlimit="10"/>
<path d="M32.499 626.504L32.499 588.072" stroke="#242424" stroke-width="3" stroke-miterlimit="10"/>
<path d="M32.499 549.667L32.499 511.235" stroke="#242424" stroke-width="3" stroke-miterlimit="10"/>
<path d="M951 626.504L1016 626.504" stroke="#242424" stroke-width="3" stroke-miterlimit="10"/>
<path d="M951 664.741L1016 664.741" stroke="#242424" stroke-width="3" stroke-miterlimit="10"/>
<path d="M951 588.285L1016 588.285" stroke="#242424" stroke-width="3" stroke-miterlimit="10"/>
<path d="M951 549.667L1016 549.667" stroke="#242424" stroke-width="3" stroke-miterlimit="10"/>
<path d="M951 511L1016 511" stroke="#242424" stroke-width="3" stroke-miterlimit="10"/>
<path d="M951 708.147L1016 708.147" stroke="#242424" stroke-width="3" stroke-miterlimit="10"/>
<path d="M951 770.033L1016 770.033" stroke="#242424" stroke-width="3" stroke-miterlimit="10"/>
<path d="M951 777.509L1016 777.509" stroke="#242424" stroke-width="3" stroke-miterlimit="10"/>
<path d="M951.197 796.17L1015.65 796.17" stroke="#242424" stroke-width="3" stroke-miterlimit="10"/>
<path d="M951 747.555L1016 747.555" stroke="#242424" stroke-width="3" stroke-miterlimit="10"/>
<path d="M983.499 708.147L983.499 664.937" stroke="#242424" stroke-width="3" stroke-miterlimit="10"/>
<path d="M983.499 626.504L983.499 588.072" stroke="#242424" stroke-width="3" stroke-miterlimit="10"/>
<path d="M983.499 549.667L983.499 511.235" stroke="#242424" stroke-width="3" stroke-miterlimit="10"/>
<defs>
<linearGradient id="paint0_linear" x1="515.369" y1="-579.403" x2="-694.932" y2="325.182" gradientUnits="userSpaceOnUse">
<stop stop-color="#F1FC68"/>
<stop offset="1" stop-color="#5EC4D6"/>
</linearGradient>
<linearGradient id="paint1_linear" x1="-442" y1="633.75" x2="708.876" y2="1562.27" gradientUnits="userSpaceOnUse">
<stop stop-color="#5BCCBD" stop-opacity="0.14902"/>
<stop offset="0.333333" stop-color="#61C0BF" stop-opacity="0.14902"/>
<stop offset="0.744946" stop-color="#55BCC8" stop-opacity="0.14902"/>
<stop offset="1" stop-color="#69CFB8" stop-opacity="0.14902"/>
</linearGradient>
<linearGradient id="paint2_linear" x1="514.369" y1="-577.403" x2="-695.932" y2="327.182" gradientUnits="userSpaceOnUse">
<stop stop-color="#F1FC68"/>
<stop offset="1" stop-color="#5EC4D6"/>
</linearGradient>
<linearGradient id="paint3_linear" x1="-442" y1="633.75" x2="708.876" y2="1562.27" gradientUnits="userSpaceOnUse">
<stop stop-color="#5BCCBD" stop-opacity="0.14902"/>
<stop offset="0.333333" stop-color="#61C0BF" stop-opacity="0.14902"/>
<stop offset="0.744946" stop-color="#55BCC8" stop-opacity="0.14902"/>
<stop offset="1" stop-color="#69CFB8" stop-opacity="0.14902"/>
</linearGradient>
</defs>
</svg>
