<svg width="224" height="224" viewBox="0 0 224 224" fill="none" xmlns="http://www.w3.org/2000/svg">
<circle cx="112" cy="112" r="110" fill="black"/>
<path d="M183.955 77.5816C185.025 75.9029 185.637 73.8426 185.637 71.7824C185.637 71.2482 185.561 70.6378 185.561 70.18C184.796 64.8386 180.209 60.7943 174.781 60.7943H174.705C170.347 60.7943 166.525 63.3887 164.767 67.1277C144.202 64.6859 129.907 55.224 122.032 48.3565C122.644 46.983 123.026 45.4569 123.026 43.9308C123.026 39.3524 120.121 35.1556 115.764 33.6295C113.394 32.7902 110.642 32.7902 108.348 33.6295C103.991 35.1556 101.086 39.3524 101.086 43.9308C101.086 45.4569 101.391 46.983 102.079 48.3565C94.1289 55.224 79.8332 64.7622 59.1923 67.1277C57.434 63.3887 53.688 60.8707 49.3305 60.7943C49.3305 60.7943 49.3305 60.7943 49.254 60.7943C44.132 60.7943 39.6216 64.3807 38.5513 69.4169C38.3984 70.1036 38.322 70.8667 38.322 71.6298C38.322 73.7663 38.9336 75.8266 40.0803 77.5816C36.4872 83.3808 32.512 91.6218 30.8301 101.313C27.2371 122.144 33.5822 152.361 84.6494 178.458C89.6949 181.052 95.1992 183.57 101.009 186.012V186.088C101.009 192.116 105.902 197 111.941 197C117.981 197 122.873 192.116 122.873 186.088V186.012C128.378 183.723 133.729 181.281 138.622 178.763C168.742 163.502 186.784 145.188 192.212 124.281C197.486 104.594 189.995 87.3487 183.955 77.5816ZM118.669 148.699C116.987 147.02 114.617 146.028 112.018 146.028C109.418 146.028 107.125 147.02 105.367 148.699C102.691 147.401 99.6332 145.723 96.5752 143.433C86.1019 135.574 80.827 125.196 80.827 112.453C80.827 109.325 81.2857 106.349 82.1266 103.526C83.5791 103.526 84.9552 103.144 86.1783 102.534V103.526V102.534C89.3892 101.007 91.5297 97.7263 91.5297 93.9873C91.5297 92.4612 91.1474 91.0877 90.5359 89.7905C96.1166 84.5254 103.608 81.3206 111.941 81.3206C120.198 81.3206 127.766 84.6017 133.347 89.8668C132.735 91.164 132.353 92.5375 132.353 94.0636C132.353 99.2524 136.557 103.526 141.756 103.602C142.597 106.425 143.056 109.401 143.056 112.53C143.056 125.273 137.781 135.65 127.307 143.51C124.402 145.723 121.268 147.478 118.669 148.699ZM112.018 54.7662C112.094 54.7662 112.171 54.7662 112.247 54.7662C113.929 61.6337 116.681 68.2723 120.351 74.3005C117.675 73.69 114.846 73.3848 112.018 73.3848C109.189 73.3848 106.361 73.69 103.685 74.3005C107.354 68.2723 110.107 61.6337 111.788 54.7662C111.865 54.7662 111.941 54.7662 112.018 54.7662ZM86.1783 83.0756C86.1019 83.1519 86.0255 83.2282 86.0255 83.2282C85.949 83.3045 85.7961 83.3808 85.7197 83.4571C85.1845 83.915 84.7258 84.2965 84.2671 84.678C83.5791 84.5254 82.8911 84.4491 82.1266 84.4491C81.1328 84.4491 80.139 84.6017 79.2216 84.9069C74.8641 80.7864 70.0478 77.2001 64.8494 74.2242C81.4386 71.4008 94.0525 64.3807 102.462 58.0473C99.1745 67.6619 93.5938 76.2844 86.1783 83.0756ZM144.967 84.9833C144.049 84.678 142.979 84.5254 141.985 84.5254C141.221 84.5254 140.533 84.6017 139.845 84.7543C139.386 84.3728 138.927 83.9913 138.545 83.6097L137.475 82.6941C130.289 75.9029 124.785 67.4329 121.65 58.2C130.136 64.6096 142.903 71.6298 159.721 74.4531C154.37 77.2764 149.401 80.8627 144.967 84.9833ZM88.3189 171.438C51.3181 152.514 34.1938 128.783 38.7042 102.762C40.1567 94.5215 43.444 87.425 46.5019 82.3889C47.3428 82.6178 48.2602 82.6941 49.1011 82.6941H49.1776C52.2355 82.6941 55.0641 81.4732 57.0517 79.3366C63.0146 82.1599 68.366 85.8989 73.2587 90.4773C72.8 91.6218 72.5706 92.7664 72.5706 94.0636C72.5706 96.4291 73.4116 98.5657 74.8641 100.244C73.5644 104.136 72.8764 108.256 72.8764 112.53C72.8764 127.791 79.5274 140.763 92.0648 150.072C95.7343 152.819 99.4038 154.803 102.538 156.253C102.768 159.763 104.985 162.815 108.042 164.189V176.016C106.513 176.626 105.137 177.542 104.067 178.687C98.4865 176.321 93.2115 173.879 88.3189 171.438ZM184.567 122.373C179.751 140.915 163.085 157.55 135.105 171.743C130.365 174.108 125.32 176.474 119.968 178.687C118.898 177.542 117.522 176.626 115.993 176.016V164.189C119.051 162.739 121.268 159.763 121.497 156.253C124.632 154.803 128.301 152.743 131.971 150.072C144.508 140.763 151.159 127.791 151.159 112.53C151.159 108.256 150.471 104.136 149.171 100.244C150.624 98.5657 151.465 96.4291 151.465 94.0636C151.465 92.8427 151.235 91.6218 150.777 90.5536C155.669 86.0515 161.097 82.3889 167.06 79.6419C169.048 81.5495 171.723 82.6941 174.628 82.6941H174.705C175.622 82.6941 176.54 82.5415 177.457 82.3126C182.732 91.0114 188.924 105.738 184.567 122.373Z" fill="url(#paint0_linear)"/>
<defs>
<linearGradient id="paint0_linear" x1="29.9892" y1="114.983" x2="194.056" y2="114.983" gradientUnits="userSpaceOnUse">
<stop stop-color="#0779E4"/>
<stop offset="0.9341" stop-color="#EA2C62"/>
</linearGradient>
</defs>
</svg>
