<svg width="520" height="660" viewBox="0 0 570 660" fill="none" xmlns="http://www.w3.org/2000/svg">
<g filter="url(#filter0_f)">
<path d="M35 75C35 52.9086 52.9086 35 75 35H516.9C538.991 35 556.9 52.9086 556.9 75V645C556.9 650.523 552.423 655 546.9 655H35V75Z" fill="#C4C4C4"/>
<path d="M35 75C35 52.9086 52.9086 35 75 35H516.9C538.991 35 556.9 52.9086 556.9 75V645C556.9 650.523 552.423 655 546.9 655H35V75Z" fill="url(#paint0_linear)"/>
<path d="M36.5 75C36.5 53.737 53.737 36.5 75 36.5H516.9C538.163 36.5 555.4 53.737 555.4 75V645C555.4 649.694 551.594 653.5 546.9 653.5H36.5V75Z" stroke="#272727" stroke-width="3"/>
</g>
<path d="M35.0996 75C35.0996 52.9086 53.0082 35 75.0996 35H517C539.091 35 557 52.9086 557 75V360C557 365.523 552.523 370 547 370H35.0996V75Z" fill="#C4C4C4"/>
<path d="M35.0996 75C35.0996 52.9086 53.0082 35 75.0996 35H517C539.091 35 557 52.9086 557 75V360C557 365.523 552.523 370 547 370H35.0996V75Z" fill="url(#paint1_linear)"/>
<path d="M35.0996 71C35.0996 48.9086 53.0082 31 75.0996 31H517.1C539.191 31 557.1 48.9086 557.1 71V356C557.1 361.523 552.622 366 547.1 366H35.0996V71Z" fill="#242424"/>
<path d="M35.0996 71C35.0996 48.9086 53.0082 31 75.0996 31H517.1C539.191 31 557.1 48.9086 557.1 71V356C557.1 361.523 552.622 366 547.1 366H35.0996V71Z" fill="url(#paint2_linear)"/>
<path d="M35.0996 83H239.1" stroke="#242424" stroke-width="3" stroke-miterlimit="10"/>
<path d="M35.0996 114H166.1" stroke="#242424" stroke-width="3" stroke-miterlimit="10"/>
<path d="M35.0996 145H128.1" stroke="#242424" stroke-width="3" stroke-miterlimit="10"/>
<path d="M39.6152 53.3047L555.293 53.3047" stroke="#242424" stroke-width="3" stroke-miterlimit="10"/>
<path d="M557.1 83L349.1 83" stroke="#242424" stroke-width="3" stroke-miterlimit="10"/>
<path d="M557.1 114L404.1 114" stroke="#242424" stroke-width="3" stroke-miterlimit="10"/>
<path d="M557.1 145L460.1 145" stroke="#242424" stroke-width="3" stroke-miterlimit="10"/>
<path d="M557.1 175L469.1 175" stroke="#242424" stroke-width="3" stroke-miterlimit="10"/>
<path d="M101.1 175H35.0996" stroke="#242424" stroke-width="3" stroke-miterlimit="10"/>
<path d="M524.1 693V335C524.1 209.079 422.021 107 296.1 107V107C170.179 107 68.0996 209.079 68.0996 335V693" stroke="#242424" stroke-width="66" stroke-linejoin="round"/>
<path d="M524.1 693V335C524.1 209.079 422.021 107 296.1 107V107C170.179 107 68.0996 209.079 68.0996 335V693" stroke="url(#paint3_linear)" stroke-width="66" stroke-linejoin="round"/>
<path d="M557.094 535.526H490.1" stroke="#242424" stroke-width="3" stroke-miterlimit="10"/>
<path d="M557.094 497.289H490.1" stroke="#242424" stroke-width="3" stroke-miterlimit="10"/>
<path d="M557.094 573.745H490.1" stroke="#242424" stroke-width="3" stroke-miterlimit="10"/>
<path d="M557.094 612.363H490.1" stroke="#242424" stroke-width="3" stroke-miterlimit="10"/>
<path d="M557.094 651.03H490.1" stroke="#242424" stroke-width="3" stroke-miterlimit="10"/>
<path d="M557.094 453.883H490.1" stroke="#242424" stroke-width="3" stroke-miterlimit="10"/>
<path d="M557.094 391.997H490.1" stroke="#242424" stroke-width="3" stroke-miterlimit="10"/>
<path d="M557.094 384.521H490.1" stroke="#242424" stroke-width="3" stroke-miterlimit="10"/>
<path d="M556.891 365.86L490.456 365.86" stroke="#242424" stroke-width="3" stroke-miterlimit="10"/>
<path d="M557.094 414.476H490.1" stroke="#242424" stroke-width="3" stroke-miterlimit="10"/>
<path d="M523.598 453.883V497.093" stroke="#242424" stroke-width="3" stroke-miterlimit="10"/>
<path d="M523.598 535.526V573.958" stroke="#242424" stroke-width="3" stroke-miterlimit="10"/>
<path d="M523.598 612.363V650.795" stroke="#242424" stroke-width="3" stroke-miterlimit="10"/>
<path d="M100 334.5C100 226.528 187.528 139 295.5 139V139C403.472 139 491 226.528 491 334.5V693H100V334.5Z" fill="#242424"/>
<path d="M100.1 535.526H35.0996" stroke="#242424" stroke-width="3" stroke-miterlimit="10"/>
<path d="M100.1 497.289H35.0996" stroke="#242424" stroke-width="3" stroke-miterlimit="10"/>
<path d="M100.1 573.745H35.0996" stroke="#242424" stroke-width="3" stroke-miterlimit="10"/>
<path d="M100.1 612.363H35.0996" stroke="#242424" stroke-width="3" stroke-miterlimit="10"/>
<path d="M100.1 651.03H35.0996" stroke="#242424" stroke-width="3" stroke-miterlimit="10"/>
<path d="M100.1 453.883H35.0996" stroke="#242424" stroke-width="3" stroke-miterlimit="10"/>
<path d="M100.1 391.997H35.0996" stroke="#242424" stroke-width="3" stroke-miterlimit="10"/>
<path d="M100.1 384.521H35.0996" stroke="#242424" stroke-width="3" stroke-miterlimit="10"/>
<path d="M99.902 365.86L35.4453 365.86" stroke="#242424" stroke-width="3" stroke-miterlimit="10"/>
<path d="M100.1 414.476H35.0996" stroke="#242424" stroke-width="3" stroke-miterlimit="10"/>
<path d="M67.6006 453.883V497.093" stroke="#242424" stroke-width="3" stroke-miterlimit="10"/>
<path d="M67.6006 535.526V573.958" stroke="#242424" stroke-width="3" stroke-miterlimit="10"/>
<path d="M67.6006 612.363V650.795" stroke="#242424" stroke-width="3" stroke-miterlimit="10"/>
<defs>
<filter id="filter0_f" x="0" y="0" width="591.9" height="690" filterUnits="userSpaceOnUse" color-interpolation-filters="sRGB">
<feFlood flood-opacity="0" result="BackgroundImageFix"/>
<feBlend mode="normal" in="SourceGraphic" in2="BackgroundImageFix" result="shape"/>
<feGaussianBlur stdDeviation="17.5" result="effect1_foregroundBlur"/>
</filter>
<linearGradient id="paint0_linear" x1="299.449" y1="35" x2="299.449" y2="697.5" gradientUnits="userSpaceOnUse">
<stop offset="0.00715083" stop-color="#F1FC68"/>
<stop offset="1" stop-color="#5EC4D6"/>
</linearGradient>
<linearGradient id="paint1_linear" x1="321.945" y1="35" x2="321.945" y2="394" gradientUnits="userSpaceOnUse">
<stop stop-color="#F1FC68"/>
<stop offset="1" stop-color="#5EC4D6"/>
</linearGradient>
<linearGradient id="paint2_linear" x1="322" y1="31" x2="322" y2="390" gradientUnits="userSpaceOnUse">
<stop stop-color="#F1FC68"/>
<stop offset="1" stop-color="#5EC4D6"/>
</linearGradient>
<linearGradient id="paint3_linear" x1="318.725" y1="107" x2="318.725" y2="693" gradientUnits="userSpaceOnUse">
<stop stop-color="#F1FC68"/>
<stop offset="1" stop-color="#5EC4D6"/>
</linearGradient>
</defs>
</svg>
