<svg width="1016" height="1221" viewBox="0 0 1016 1221" fill="none" xmlns="http://www.w3.org/2000/svg">
<path d="M983 1220.5V513.767C983 364.343 862.741 225.609 665.253 147.199C623.593 130.66 586.99 109.353 557.204 84.3376L508 43L458.796 84.3376C429.038 109.353 392.407 130.66 350.747 147.199C153.259 225.609 33 364.343 33 513.767V1220.5" />
<path d="M983 1220.5V513.767C983 364.343 862.741 225.609 665.253 147.199C623.593 130.66 586.99 109.353 557.204 84.3376L508 43L458.796 84.3376C429.038 109.353 392.407 130.66 350.747 147.199C153.259 225.609 33 364.343 33 513.767V1220.5" stroke="black" stroke-width="65" stroke-miterlimit="10"/>
<path d="M983 1220.5V513.767C983 364.343 862.741 225.609 665.253 147.199C623.593 130.66 586.99 109.353 557.204 84.3376L508 43L458.796 84.3376C429.038 109.353 392.407 130.66 350.747 147.199C153.259 225.609 33 364.343 33 513.767V1220.5" stroke="url(#paint1_linear)" stroke-width="65" stroke-miterlimit="10"/>
<defs>
<linearGradient id="paint0_linear" x1="-442" y1="631.75" x2="708.876" y2="1560.27" gradientUnits="userSpaceOnUse">
<stop stop-color="#5BCCBD" stop-opacity="0.14902"/>
<stop offset="0.333333" stop-color="#61C0BF" stop-opacity="0.14902"/>
<stop offset="0.744946" stop-color="#55BCC8" stop-opacity="0.14902"/>
<stop offset="1" stop-color="#69CFB8" stop-opacity="0.14902"/>
</linearGradient>
<linearGradient id="paint1_linear" x1="514.369" y1="-579.403" x2="-695.932" y2="325.182" gradientUnits="userSpaceOnUse">
<stop stop-color="#F1FC68"/>
<stop offset="1" stop-color="#5EC4D6"/>
</linearGradient>
</defs>
</svg>
