<svg width="14" height="14" viewBox="0 0 14 14" fill="none" xmlns="http://www.w3.org/2000/svg">
<path d="M0 5.3C0 1.82061 1.82061 0 5.3 0H14V8.7C14 12.1794 12.1794 14 8.7 14H0V5.3Z" fill="white"/>
<path d="M7.10075 11C8.45522 11 10 10.4917 10 8.62431C10 7.0221 8.77985 6.71271 7.33582 6.44751C6.36194 6.27072 5.27612 6.02762 5.27612 5.14365C5.27612 4.29282 6.02612 3.82873 6.92164 3.82873C7.98507 3.82873 8.65672 4.46961 8.72388 5.55249L9.78731 5.36464C9.58582 3.60773 8.34328 3 6.87687 3C5.64552 3 4.23507 3.62983 4.23507 5.1768C4.23507 6.62431 5.47761 7.07735 6.60821 7.35359C7.69403 7.61878 8.94776 7.62983 8.94776 8.70166C8.94776 9.76243 8.05224 10.1602 7.06716 10.1602C5.94776 10.1602 5.14179 9.51934 5.07463 8.34807L4 8.45856C4.06716 10.1934 5.47761 11 7.10075 11Z" fill="black"/>
</svg>
