<svg width="13" height="16" viewBox="0 0 13 16" fill="#fff" xmlns="http://www.w3.org/2000/svg">
<path d="M6.98125 11.9305L10.2954 8.46602C10.9078 7.82311 12.0029 8.25172 12.0029 9.14464V9.15178C12.0029 9.40894 11.902 9.65896 11.7147 9.84469L6.70027 14.8093C6.31123 15.1951 5.68443 15.1951 5.30258 14.8093L0.288184 9.83754C0.100864 9.65182 0 9.4018 0 9.14464C0 8.25886 1.0951 7.82311 1.70749 8.47316L5.0144 11.9305L4.98558 1.08442C4.98558 0.541522 5.43227 0.0986328 5.97982 0.0986328H6.01584C6.56339 0.0986328 7.00287 0.541522 7.00287 1.08442L6.98125 11.9305Z" fill="#fff"/>
</svg>
