<svg width="51" height="51" viewBox="0 0 51 51" fill="none" xmlns="http://www.w3.org/2000/svg">
<path d="M25.4479 45.3401V39.7435" stroke="url(#paint0_linear)" stroke-linecap="square"/>
<path d="M22.9649 46.3133C22.9649 46.3133 -9.71535 35.7008 3.84959 14.3563" stroke="url(#paint1_linear)" stroke-linecap="square"/>
<path d="M27.9622 46.5567C27.9622 46.5567 60.6425 35.9443 47.0775 14.5997" stroke="url(#paint2_linear)" stroke-linecap="square"/>
<path d="M28.2181 36.7425C28.2181 36.7425 40.2735 31.0397 35.2695 19.5698" stroke="url(#paint3_linear)" stroke-linecap="square"/>
<path d="M22.4513 36.8389C22.4513 36.8389 10.3959 31.1361 15.3998 19.6663" stroke="url(#paint4_linear)" stroke-linecap="square"/>
<path d="M9.2985 13.4641C10.908 13.8615 14.0798 15.9725 14.0798 15.9725" stroke="#3D1967" stroke-linecap="square"/>
<path d="M41.903 13.3019C39.9247 13.6617 36.026 15.5729 36.026 15.5729" stroke="url(#paint5_linear)" stroke-linecap="square"/>
<path d="M18.2515 16.0443C18.2515 16.0443 21.6672 13.5299 25.6564 13.5299C29.6457 13.5299 32.4356 15.8821 32.4356 15.8821" stroke="url(#paint6_linear)" stroke-linecap="square"/>
<path d="M42.2392 11.6797C42.2392 11.6797 38.0887 11.2243 34.6766 9.76725C31.2645 8.31016 28.1943 6.00208 28.1943 6.00208" stroke="url(#paint7_linear)" stroke-linecap="square"/>
<path d="M8.76071 11.842C8.76071 11.842 12.9468 11.3866 16.3882 9.92948C19.8295 8.47239 22.926 6.16431 22.926 6.16431" stroke="url(#paint8_linear)" stroke-linecap="square"/>
<path d="M25.7683 7.70837C25.7683 7.70837 29.5324 14.7327 32.8527 15.9785" stroke="url(#paint9_linear)" stroke-linecap="square"/>
<path d="M25.382 7.43823C25.382 7.43823 21.6179 14.4626 18.2976 15.7083" stroke="url(#paint10_linear)" stroke-linecap="square"/>
<ellipse cx="15.8497" cy="16.8574" rx="2.5" ry="2.32998" fill="#D3D3D3" stroke="#3D1967"/>
<ellipse cx="34.6227" cy="16.8574" rx="2.5" ry="2.32998" fill="#D3D3D3" stroke="#581B66"/>
<ellipse cx="44.635" cy="12.4289" rx="2.5" ry="2.32998" fill="#D3D3D3" stroke="#5D1C67"/>
<ellipse cx="6.35889" cy="12.51" rx="2.5" ry="2.32998" fill="#D3D3D3" stroke="#341967"/>
<ellipse cx="25.4448" cy="37.9369" rx="2.5" ry="2.32998" fill="#D3D3D3" stroke="#7A1D66"/>
<ellipse cx="25.4448" cy="47.67" rx="2.5" ry="2.32998" fill="#D3D3D3" stroke="#8F1F65"/>
<ellipse cx="25.3405" cy="5.60933" rx="2.5" ry="2.32998" fill="#D3D3D3" stroke="#301867"/>
<defs>
<linearGradient id="paint0_linear" x1="25.2393" y1="42.5418" x2="26.069" y2="42.6036" gradientUnits="userSpaceOnUse">
<stop stop-color="#7A1D66"/>
<stop offset="1" stop-color="#8F1F65"/>
</linearGradient>
<linearGradient id="paint1_linear" x1="-10.6532" y1="30.3348" x2="19.3928" y2="51.4067" gradientUnits="userSpaceOnUse">
<stop stop-color="#341967"/>
<stop offset="1" stop-color="#8F1F65"/>
</linearGradient>
<linearGradient id="paint2_linear" x1="61.5803" y1="30.5782" x2="31.5343" y2="51.6502" gradientUnits="userSpaceOnUse">
<stop stop-color="#5D1C67"/>
<stop offset="1" stop-color="#8F1F65"/>
</linearGradient>
<linearGradient id="paint3_linear" x1="40.6195" y1="28.1562" x2="27.1957" y2="34.6189" gradientUnits="userSpaceOnUse">
<stop stop-color="#581B66"/>
<stop offset="1" stop-color="#7A1D66"/>
</linearGradient>
<linearGradient id="paint4_linear" x1="10.0499" y1="28.2526" x2="23.4737" y2="34.7153" gradientUnits="userSpaceOnUse">
<stop stop-color="#3D1967"/>
<stop offset="1" stop-color="#7A1D66"/>
</linearGradient>
<linearGradient id="paint5_linear" x1="44.8415" y1="14.4374" x2="43.3143" y2="18.3894" gradientUnits="userSpaceOnUse">
<stop stop-color="#5D1C67"/>
<stop offset="1" stop-color="#581B66"/>
</linearGradient>
<linearGradient id="paint6_linear" x1="18.2515" y1="17.3015" x2="32.4356" y2="17.3015" gradientUnits="userSpaceOnUse">
<stop stop-color="#3B1967"/>
<stop offset="1" stop-color="#491A66"/>
</linearGradient>
<linearGradient id="paint7_linear" x1="34.6911" y1="3.20488" x2="39.2039" y2="13.4933" gradientUnits="userSpaceOnUse">
<stop stop-color="#301867"/>
<stop offset="1" stop-color="#5D1C67"/>
</linearGradient>
<linearGradient id="paint8_linear" x1="1.67806" y1="9.00313" x2="5.59943" y2="18.7867" gradientUnits="userSpaceOnUse">
<stop stop-color="#341967"/>
<stop offset="1" stop-color="#301867"/>
</linearGradient>
<linearGradient id="paint9_linear" x1="29.623" y1="3.44892" x2="37.8692" y2="11.0032" gradientUnits="userSpaceOnUse">
<stop stop-color="#301867"/>
<stop offset="1" stop-color="#581B66"/>
</linearGradient>
<linearGradient id="paint10_linear" x1="21.5273" y1="3.17877" x2="13.281" y2="10.733" gradientUnits="userSpaceOnUse">
<stop stop-color="#301867"/>
<stop offset="1" stop-color="#3D1967"/>
</linearGradient>
</defs>
</svg>
