<svg width="132" height="33" viewBox="0 0 132 33" fill="none" xmlns="http://www.w3.org/2000/svg">
<path d="M93.5639 19.8202C93.8754 19.8202 94.1279 19.5677 94.1279 19.2562C94.1279 18.9447 93.8754 18.6923 93.5639 18.6923C93.2525 18.6923 93 18.9447 93 19.2562C93 19.5677 93.2525 19.8202 93.5639 19.8202Z" fill="white"/>
<path d="M101.405 19.1384C101.716 19.1384 101.969 18.8859 101.969 18.5744C101.969 18.263 101.716 18.0105 101.405 18.0105C101.093 18.0105 100.841 18.263 100.841 18.5744C100.841 18.8859 101.093 19.1384 101.405 19.1384Z" fill="white"/>
<path d="M103.671 22.3668C103.983 22.3668 104.235 22.1143 104.235 21.8028C104.235 21.4914 103.983 21.2389 103.671 21.2389C103.36 21.2389 103.107 21.4914 103.107 21.8028C103.107 22.1143 103.36 22.3668 103.671 22.3668Z" fill="white"/>
<path d="M110.355 20.0019C110.666 20.0019 110.919 19.7494 110.919 19.438C110.919 19.1265 110.666 18.874 110.355 18.874C110.044 18.874 109.791 19.1265 109.791 19.438C109.791 19.7494 110.044 20.0019 110.355 20.0019Z" fill="white"/>
<path d="M94.0181 2.61948C94.3295 2.61948 94.582 2.36699 94.582 2.05553C94.582 1.74407 94.3295 1.49158 94.0181 1.49158C93.7066 1.49158 93.4541 1.74407 93.4541 2.05553C93.4541 2.36699 93.7066 2.61948 94.0181 2.61948Z" fill="white"/>
<path d="M94.6086 9.75106C95.0908 9.75106 95.4818 9.36011 95.4818 8.87785C95.4818 8.39559 95.0908 8.00464 94.6086 8.00464C94.1263 8.00464 93.7354 8.39559 93.7354 8.87785C93.7354 9.36011 94.1263 9.75106 94.6086 9.75106Z" fill="white"/>
<path d="M108.8 17.9372C109.202 17.9372 109.528 17.6114 109.528 17.2095C109.528 16.8076 109.202 16.4818 108.8 16.4818C108.398 16.4818 108.072 16.8076 108.072 17.2095C108.072 17.6114 108.398 17.9372 108.8 17.9372Z" fill="white"/>
<path d="M94.1281 26.8061C94.53 26.8061 94.8557 26.4803 94.8557 26.0784C94.8557 25.6765 94.53 25.3507 94.1281 25.3507C93.7262 25.3507 93.4004 25.6765 93.4004 26.0784C93.4004 26.4803 93.7262 26.8061 94.1281 26.8061Z" fill="white"/>
<path d="M99.7301 22.94C100.172 22.94 100.531 22.5816 100.531 22.1396C100.531 21.6975 100.172 21.3391 99.7301 21.3391C99.2881 21.3391 98.9297 21.6975 98.9297 22.1396C98.9297 22.5816 99.2881 22.94 99.7301 22.94Z" fill="white"/>
<path d="M108.199 29.0621C108.641 29.0621 108.999 28.7037 108.999 28.2616C108.999 27.8196 108.641 27.4612 108.199 27.4612C107.757 27.4612 107.398 27.8196 107.398 28.2616C107.398 28.7037 107.757 29.0621 108.199 29.0621Z" fill="white"/>
<path d="M105.926 25.6685C106.277 25.6685 106.562 25.3834 106.562 25.0317C106.562 24.6801 106.277 24.395 105.926 24.395C105.574 24.395 105.289 24.6801 105.289 25.0317C105.289 25.3834 105.574 25.6685 105.926 25.6685Z" fill="white"/>
<path d="M96.4023 30.2803C96.9298 30.2803 97.3574 29.8527 97.3574 29.3252C97.3574 28.7977 96.9298 28.3701 96.4023 28.3701C95.8749 28.3701 95.4473 28.7977 95.4473 29.3252C95.4473 29.8527 95.8749 30.2803 96.4023 30.2803Z" fill="white"/>
<path d="M100.212 6.6402C101.02 6.6402 101.676 5.98454 101.676 5.17575C101.676 4.36696 101.02 3.7113 100.212 3.7113C99.4027 3.7113 98.7471 4.36696 98.7471 5.17575C98.7471 5.98454 99.4027 6.6402 100.212 6.6402Z" fill="white"/>
<path d="M97.929 3.20178C98.8132 3.20178 99.5299 2.48503 99.5299 1.60089C99.5299 0.716742 98.8132 0 97.929 0C97.0449 0 96.3281 0.716742 96.3281 1.60089C96.3281 2.48503 97.0449 3.20178 97.929 3.20178Z" fill="white"/>
<path d="M98.52 10.242C99.2785 10.242 99.8935 9.62704 99.8935 8.86848C99.8935 8.10993 99.2785 7.495 98.52 7.495C97.7614 7.495 97.1465 8.10993 97.1465 8.86848C97.1465 9.62704 97.7614 10.242 98.52 10.242Z" fill="white"/>
<path d="M102.478 9.63287C103.277 9.63287 103.925 8.98536 103.925 8.18661C103.925 7.38787 103.277 6.74036 102.478 6.74036C101.68 6.74036 101.032 7.38787 101.032 8.18661C101.032 8.98536 101.68 9.63287 102.478 9.63287Z" fill="white"/>
<path d="M96.8836 13.4706C97.6471 13.4706 98.2661 12.8516 98.2661 12.088C98.2661 11.3244 97.6471 10.7054 96.8836 10.7054C96.12 10.7054 95.501 11.3244 95.501 12.088C95.501 12.8516 96.12 13.4706 96.8836 13.4706Z" fill="white"/>
<path d="M100.803 13.08C101.532 13.08 102.122 12.4895 102.122 11.7611C102.122 11.0326 101.532 10.4421 100.803 10.4421C100.075 10.4421 99.4844 11.0326 99.4844 11.7611C99.4844 12.4895 100.075 13.08 100.803 13.08Z" fill="white"/>
<path d="M104.752 12.5615C105.385 12.5615 105.898 12.0483 105.898 11.4154C105.898 10.7824 105.385 10.2693 104.752 10.2693C104.119 10.2693 103.605 10.7824 103.605 11.4154C103.605 12.0483 104.119 12.5615 104.752 12.5615Z" fill="white"/>
<path d="M103.078 16.145C103.711 16.145 104.224 15.6318 104.224 14.9989C104.224 14.3659 103.711 13.8528 103.078 13.8528C102.445 13.8528 101.932 14.3659 101.932 14.9989C101.932 15.6318 102.445 16.145 103.078 16.145Z" fill="white"/>
<path d="M99.1305 16.4909C99.7634 16.4909 100.277 15.9778 100.277 15.3448C100.277 14.7119 99.7634 14.1987 99.1305 14.1987C98.4975 14.1987 97.9844 14.7119 97.9844 15.3448C97.9844 15.9778 98.4975 16.4909 99.1305 16.4909Z" fill="white"/>
<path d="M97.4651 20.2108C98.1885 20.2108 98.7749 19.6244 98.7749 18.901C98.7749 18.1776 98.1885 17.5912 97.4651 17.5912C96.7417 17.5912 96.1553 18.1776 96.1553 18.901C96.1553 19.6244 96.7417 20.2108 97.4651 20.2108Z" fill="white"/>
<path d="M95.803 23.6401C96.446 23.6401 96.9672 23.1188 96.9672 22.4758C96.9672 21.8328 96.446 21.3115 95.803 21.3115C95.1599 21.3115 94.6387 21.8328 94.6387 22.4758C94.6387 23.1188 95.1599 23.6401 95.803 23.6401Z" fill="white"/>
<path d="M107.598 22.7401C108.316 22.7401 108.898 22.1578 108.898 21.4394C108.898 20.721 108.316 20.1387 107.598 20.1387C106.879 20.1387 106.297 20.721 106.297 21.4394C106.297 22.1578 106.879 22.7401 107.598 22.7401Z" fill="white"/>
<path d="M105.317 19.5376C106.04 19.5376 106.626 18.9512 106.626 18.2278C106.626 17.5044 106.04 16.918 105.317 16.918C104.593 16.918 104.007 17.5044 104.007 18.2278C104.007 18.9512 104.593 19.5376 105.317 19.5376Z" fill="white"/>
<path d="M98.0569 27.0425C98.7803 27.0425 99.3667 26.4561 99.3667 25.7327C99.3667 25.0093 98.7803 24.4229 98.0569 24.4229C97.3335 24.4229 96.7471 25.0093 96.7471 25.7327C96.7471 26.4561 97.3335 27.0425 98.0569 27.0425Z" fill="white"/>
<path d="M95.1744 16.6553C95.712 16.6553 96.1477 16.2195 96.1477 15.682C96.1477 15.1445 95.712 14.7087 95.1744 14.7087C94.6369 14.7087 94.2012 15.1445 94.2012 15.682C94.2012 16.2195 94.6369 16.6553 95.1744 16.6553Z" fill="white"/>
<path d="M107.018 15.6178C107.556 15.6178 107.991 15.1821 107.991 14.6445C107.991 14.107 107.556 13.6713 107.018 13.6713C106.481 13.6713 106.045 14.107 106.045 14.6445C106.045 15.1821 106.481 15.6178 107.018 15.6178Z" fill="white"/>
<path d="M96.2841 6.73065C97.0829 6.73065 97.7304 6.08314 97.7304 5.28439C97.7304 4.48565 97.0829 3.83813 96.2841 3.83813C95.4854 3.83813 94.8379 4.48565 94.8379 5.28439C94.8379 6.08314 95.4854 6.73065 96.2841 6.73065Z" fill="white"/>
<path d="M111.966 22.74C112.508 22.74 112.948 22.3002 112.948 21.7576C112.948 21.2151 112.508 20.7753 111.966 20.7753C111.423 20.7753 110.983 21.2151 110.983 21.7576C110.983 22.3002 111.423 22.74 111.966 22.74Z" fill="white"/>
<path d="M130.683 19.8202C130.995 19.8202 131.247 19.5677 131.247 19.2562C131.247 18.9447 130.995 18.6923 130.683 18.6923C130.372 18.6923 130.119 18.9447 130.119 19.2562C130.119 19.5677 130.372 19.8202 130.683 19.8202Z" fill="white"/>
<path d="M122.834 19.1384C123.146 19.1384 123.398 18.8859 123.398 18.5744C123.398 18.263 123.146 18.0105 122.834 18.0105C122.523 18.0105 122.271 18.263 122.271 18.5744C122.271 18.8859 122.523 19.1384 122.834 19.1384Z" fill="white"/>
<path d="M120.579 22.3668C120.89 22.3668 121.143 22.1143 121.143 21.8028C121.143 21.4914 120.89 21.2389 120.579 21.2389C120.267 21.2389 120.015 21.4914 120.015 21.8028C120.015 22.1143 120.267 22.3668 120.579 22.3668Z" fill="white"/>
<path d="M113.892 20.0019C114.204 20.0019 114.456 19.7494 114.456 19.438C114.456 19.1265 114.204 18.874 113.892 18.874C113.581 18.874 113.328 19.1265 113.328 19.438C113.328 19.7494 113.581 20.0019 113.892 20.0019Z" fill="white"/>
<path d="M130.23 2.61948C130.541 2.61948 130.794 2.36699 130.794 2.05553C130.794 1.74407 130.541 1.49158 130.23 1.49158C129.919 1.49158 129.666 1.74407 129.666 2.05553C129.666 2.36699 129.919 2.61948 130.23 2.61948Z" fill="white"/>
<path d="M129.638 9.75106C130.12 9.75106 130.511 9.36011 130.511 8.87785C130.511 8.39559 130.12 8.00464 129.638 8.00464C129.156 8.00464 128.765 8.39559 128.765 8.87785C128.765 9.36011 129.156 9.75106 129.638 9.75106Z" fill="white"/>
<path d="M115.449 17.9372C115.851 17.9372 116.177 17.6114 116.177 17.2095C116.177 16.8076 115.851 16.4818 115.449 16.4818C115.047 16.4818 114.722 16.8076 114.722 17.2095C114.722 17.6114 115.047 17.9372 115.449 17.9372Z" fill="white"/>
<path d="M130.112 26.8061C130.514 26.8061 130.84 26.4803 130.84 26.0784C130.84 25.6765 130.514 25.3507 130.112 25.3507C129.711 25.3507 129.385 25.6765 129.385 26.0784C129.385 26.4803 129.711 26.8061 130.112 26.8061Z" fill="white"/>
<path d="M124.508 22.94C124.951 22.94 125.309 22.5816 125.309 22.1396C125.309 21.6975 124.951 21.3391 124.508 21.3391C124.066 21.3391 123.708 21.6975 123.708 22.1396C123.708 22.5816 124.066 22.94 124.508 22.94Z" fill="white"/>
<path d="M116.048 29.0621C116.491 29.0621 116.849 28.7037 116.849 28.2616C116.849 27.8196 116.491 27.4612 116.048 27.4612C115.606 27.4612 115.248 27.8196 115.248 28.2616C115.248 28.7037 115.606 29.0621 116.048 29.0621Z" fill="white"/>
<path d="M118.314 25.6685C118.666 25.6685 118.951 25.3834 118.951 25.0317C118.951 24.6801 118.666 24.395 118.314 24.395C117.963 24.395 117.678 24.6801 117.678 25.0317C117.678 25.3834 117.963 25.6685 118.314 25.6685Z" fill="white"/>
<path d="M127.838 30.2803C128.365 30.2803 128.793 29.8527 128.793 29.3252C128.793 28.7977 128.365 28.3701 127.838 28.3701C127.31 28.3701 126.883 28.7977 126.883 29.3252C126.883 29.8527 127.31 30.2803 127.838 30.2803Z" fill="white"/>
<path d="M124.026 6.6402C124.835 6.6402 125.49 5.98454 125.49 5.17575C125.49 4.36696 124.835 3.7113 124.026 3.7113C123.217 3.7113 122.562 4.36696 122.562 5.17575C122.562 5.98454 123.217 6.6402 124.026 6.6402Z" fill="white"/>
<path d="M126.31 3.20178C127.194 3.20178 127.911 2.48503 127.911 1.60089C127.911 0.716742 127.194 0 126.31 0C125.426 0 124.709 0.716742 124.709 1.60089C124.709 2.48503 125.426 3.20178 126.31 3.20178Z" fill="white"/>
<path d="M125.718 10.242C126.477 10.242 127.092 9.62704 127.092 8.86848C127.092 8.10993 126.477 7.495 125.718 7.495C124.96 7.495 124.345 8.10993 124.345 8.86848C124.345 9.62704 124.96 10.242 125.718 10.242Z" fill="white"/>
<path d="M121.77 9.63287C122.569 9.63287 123.217 8.98536 123.217 8.18661C123.217 7.38787 122.569 6.74036 121.77 6.74036C120.972 6.74036 120.324 7.38787 120.324 8.18661C120.324 8.98536 120.972 9.63287 121.77 9.63287Z" fill="white"/>
<path d="M127.355 13.4706C128.119 13.4706 128.738 12.8516 128.738 12.088C128.738 11.3244 128.119 10.7054 127.355 10.7054C126.592 10.7054 125.973 11.3244 125.973 12.088C125.973 12.8516 126.592 13.4706 127.355 13.4706Z" fill="white"/>
<path d="M123.445 13.08C124.173 13.08 124.764 12.4895 124.764 11.7611C124.764 11.0326 124.173 10.4421 123.445 10.4421C122.716 10.4421 122.126 11.0326 122.126 11.7611C122.126 12.4895 122.716 13.08 123.445 13.08Z" fill="white"/>
<path d="M119.497 12.5615C120.13 12.5615 120.643 12.0483 120.643 11.4154C120.643 10.7824 120.13 10.2693 119.497 10.2693C118.864 10.2693 118.351 10.7824 118.351 11.4154C118.351 12.0483 118.864 12.5615 119.497 12.5615Z" fill="white"/>
<path d="M121.161 16.145C121.794 16.145 122.307 15.6318 122.307 14.9989C122.307 14.3659 121.794 13.8528 121.161 13.8528C120.528 13.8528 120.015 14.3659 120.015 14.9989C120.015 15.6318 120.528 16.145 121.161 16.145Z" fill="white"/>
<path d="M125.118 16.4909C125.751 16.4909 126.264 15.9778 126.264 15.3448C126.264 14.7119 125.751 14.1987 125.118 14.1987C124.485 14.1987 123.972 14.7119 123.972 15.3448C123.972 15.9778 124.485 16.4909 125.118 16.4909Z" fill="white"/>
<path d="M126.773 20.2108C127.496 20.2108 128.083 19.6244 128.083 18.901C128.083 18.1776 127.496 17.5912 126.773 17.5912C126.049 17.5912 125.463 18.1776 125.463 18.901C125.463 19.6244 126.049 20.2108 126.773 20.2108Z" fill="white"/>
<path d="M128.438 23.6401C129.081 23.6401 129.602 23.1188 129.602 22.4758C129.602 21.8328 129.081 21.3115 128.438 21.3115C127.795 21.3115 127.273 21.8328 127.273 22.4758C127.273 23.1188 127.795 23.6401 128.438 23.6401Z" fill="white"/>
<path d="M116.64 22.7401C117.358 22.7401 117.94 22.1578 117.94 21.4394C117.94 20.721 117.358 20.1387 116.64 20.1387C115.921 20.1387 115.339 20.721 115.339 21.4394C115.339 22.1578 115.921 22.7401 116.64 22.7401Z" fill="white"/>
<path d="M118.922 19.5376C119.646 19.5376 120.232 18.9512 120.232 18.2278C120.232 17.5044 119.646 16.918 118.922 16.918C118.199 16.918 117.612 17.5044 117.612 18.2278C117.612 18.9512 118.199 19.5376 118.922 19.5376Z" fill="white"/>
<path d="M126.191 27.0425C126.914 27.0425 127.5 26.4561 127.5 25.7327C127.5 25.0093 126.914 24.4229 126.191 24.4229C125.467 24.4229 124.881 25.0093 124.881 25.7327C124.881 26.4561 125.467 27.0425 126.191 27.0425Z" fill="white"/>
<path d="M129.064 16.6553C129.602 16.6553 130.037 16.2195 130.037 15.682C130.037 15.1445 129.602 14.7087 129.064 14.7087C128.527 14.7087 128.091 15.1445 128.091 15.682C128.091 16.2195 128.527 16.6553 129.064 16.6553Z" fill="white"/>
<path d="M117.232 15.6178C117.77 15.6178 118.205 15.1821 118.205 14.6445C118.205 14.107 117.77 13.6713 117.232 13.6713C116.695 13.6713 116.259 14.107 116.259 14.6445C116.259 15.1821 116.695 15.6178 117.232 15.6178Z" fill="white"/>
<path d="M127.963 6.73065C128.762 6.73065 129.409 6.08314 129.409 5.28439C129.409 4.48565 128.762 3.83813 127.963 3.83813C127.164 3.83813 126.517 4.48565 126.517 5.28439C126.517 6.08314 127.164 6.73065 127.963 6.73065Z" fill="white"/>
<path d="M112.282 22.74C112.825 22.74 113.265 22.3002 113.265 21.7576C113.265 21.2151 112.825 20.7753 112.282 20.7753C111.74 20.7753 111.3 21.2151 111.3 21.7576C111.3 22.3002 111.74 22.74 112.282 22.74Z" fill="white"/>
<path d="M112.121 22.9035C112.754 22.9035 113.267 22.3904 113.267 21.7574C113.267 21.1244 112.754 20.6113 112.121 20.6113C111.488 20.6113 110.975 21.1244 110.975 21.7574C110.975 22.3904 111.488 22.9035 112.121 22.9035Z" fill="white"/>
<path d="M112.121 29.1524C112.754 29.1524 113.267 28.6393 113.267 28.0063C113.267 27.3734 112.754 26.8602 112.121 26.8602C111.488 26.8602 110.975 27.3734 110.975 28.0063C110.975 28.6393 111.488 29.1524 112.121 29.1524Z" fill="white"/>
<path d="M109.855 25.8319C110.488 25.8319 111.001 25.3187 111.001 24.6858C111.001 24.0528 110.488 23.5397 109.855 23.5397C109.222 23.5397 108.709 24.0528 108.709 24.6858C108.709 25.3187 109.222 25.8319 109.855 25.8319Z" fill="white"/>
<path d="M114.383 25.8319C115.016 25.8319 115.529 25.3187 115.529 24.6858C115.529 24.0528 115.016 23.5397 114.383 23.5397C113.75 23.5397 113.237 24.0528 113.237 24.6858C113.237 25.3187 113.75 25.8319 114.383 25.8319Z" fill="white"/>
<path d="M110.454 31.9999C110.725 31.9999 110.945 31.78 110.945 31.5088C110.945 31.2375 110.725 31.0176 110.454 31.0176C110.183 31.0176 109.963 31.2375 109.963 31.5088C109.963 31.78 110.183 31.9999 110.454 31.9999Z" fill="white"/>
<path d="M113.793 31.9999C114.064 31.9999 114.284 31.78 114.284 31.5088C114.284 31.2375 114.064 31.0176 113.793 31.0176C113.522 31.0176 113.302 31.2375 113.302 31.5088C113.302 31.78 113.522 31.9999 113.793 31.9999Z" fill="white"/>
<path d="M51.137 8.84542C51.3494 8.51235 51.4707 8.10357 51.4707 7.6948C51.4707 7.58882 51.4555 7.4677 51.4555 7.37686C51.3039 6.31708 50.3938 5.51467 49.3169 5.51467H49.3017C48.4371 5.51467 47.6787 6.02942 47.3298 6.77127C43.2497 6.2868 40.4132 4.40946 38.8509 3.04688C38.9723 2.77437 39.0481 2.47157 39.0481 2.16877C39.0481 1.26039 38.4717 0.427699 37.6072 0.124903C37.137 -0.0416344 36.5909 -0.0416344 36.1359 0.124903C35.2713 0.427699 34.6949 1.26039 34.6949 2.16877C34.6949 2.47157 34.7556 2.77437 34.8921 3.04688C33.3146 4.40946 30.4782 6.30194 26.3828 6.77127C26.034 6.02942 25.2908 5.52981 24.4262 5.51467C24.4262 5.51467 24.4262 5.51467 24.411 5.51467C23.3948 5.51467 22.4998 6.22624 22.2875 7.22546C22.2572 7.36172 22.242 7.51312 22.242 7.66452C22.242 8.08843 22.3633 8.49721 22.5908 8.84542C21.878 9.99605 21.0892 11.6311 20.7555 13.5539C20.0426 17.6871 21.3016 23.6824 31.4338 28.8602C32.4349 29.375 33.527 29.8746 34.6797 30.3591V30.3742C34.6797 31.5702 35.6505 32.5392 36.8488 32.5392C38.047 32.5392 39.0178 31.5702 39.0178 30.3742V30.3591C40.1099 29.9049 41.1716 29.4204 42.1424 28.9208C48.1186 25.8928 51.6982 22.2593 52.7752 18.111C53.8217 14.2049 52.3353 10.7833 51.137 8.84542ZM38.1835 22.9557C37.8498 22.6226 37.3796 22.4258 36.8639 22.4258C36.3482 22.4258 35.8932 22.6226 35.5443 22.9557C35.0134 22.6983 34.4067 22.3653 33.8 21.9111C31.722 20.3517 30.6754 18.2927 30.6754 15.7643C30.6754 15.1436 30.7664 14.5531 30.9332 13.9929C31.2214 13.9929 31.4945 13.9172 31.7371 13.7961V13.9929V13.7961C32.3742 13.4933 32.7989 12.8423 32.7989 12.1005C32.7989 11.7977 32.7231 11.5252 32.6017 11.2678C33.709 10.2231 35.1954 9.58727 36.8488 9.58727C38.4869 9.58727 39.9885 10.2383 41.0958 11.2829C40.9745 11.5403 40.8986 11.8128 40.8986 12.1156C40.8986 13.1451 41.7329 13.9929 42.7643 14.0081C42.9311 14.5683 43.0221 15.1587 43.0221 15.7794C43.0221 18.3078 41.9755 20.3668 39.8975 21.9262C39.3211 22.3652 38.6993 22.7135 38.1835 22.9557ZM36.8639 4.31862C36.8791 4.31862 36.8943 4.31862 36.9094 4.31862C37.2431 5.68121 37.7892 6.99837 38.5172 8.19441C37.9864 8.07329 37.4251 8.01273 36.8639 8.01273C36.3027 8.01273 35.7415 8.07329 35.2106 8.19441C35.9387 6.99837 36.4847 5.68121 36.8184 4.31862C36.8336 4.31862 36.8488 4.31862 36.8639 4.31862ZM31.7371 9.93549C31.722 9.95063 31.7068 9.96576 31.7068 9.96576C31.6916 9.9809 31.6613 9.99605 31.6461 10.0112C31.54 10.102 31.449 10.1777 31.3579 10.2534C31.2214 10.2231 31.0849 10.208 30.9332 10.208C30.7361 10.208 30.5389 10.2383 30.3569 10.2988C29.4923 9.48129 28.5367 8.76972 27.5053 8.17927C30.7967 7.6191 33.2995 6.22624 34.9679 4.96964C34.3157 6.87725 33.2084 8.58804 31.7371 9.93549ZM43.4013 10.314C43.2193 10.2534 43.007 10.2231 42.8098 10.2231C42.6581 10.2231 42.5216 10.2383 42.3851 10.2686C42.2941 10.1929 42.2031 10.1172 42.1272 10.0415L41.9149 9.85979C40.4891 8.51235 39.397 6.83183 38.7751 4.99992C40.4587 6.27166 42.9918 7.66452 46.3288 8.22469C45.267 8.78486 44.2811 9.49643 43.4013 10.314ZM32.1619 27.4674C24.8205 23.7127 21.4229 19.0042 22.3178 13.8416C22.606 12.2065 23.2582 10.7985 23.865 9.79923C24.0318 9.84465 24.2138 9.85979 24.3807 9.85979H24.3958C25.0026 9.85979 25.5638 9.61755 25.9581 9.19364C27.1412 9.75381 28.203 10.4957 29.1738 11.404C29.0827 11.6311 29.0372 11.8582 29.0372 12.1156C29.0372 12.5849 29.2041 13.0089 29.4923 13.3419C29.2344 14.1141 29.0979 14.9316 29.0979 15.7794C29.0979 18.8074 30.4175 21.3812 32.9051 23.2282C33.6331 23.7733 34.3612 24.1669 34.9831 24.4545C35.0286 25.151 35.4685 25.7566 36.0752 26.0291V28.3757C35.7718 28.4969 35.4988 28.6785 35.2865 28.9056C34.1792 28.4363 33.1326 27.9518 32.1619 27.4674ZM51.2584 17.7325C50.3028 21.4114 46.9961 24.7119 41.4447 27.5279C40.5042 27.9973 39.5032 28.4666 38.4414 28.9056C38.229 28.6785 37.956 28.4969 37.6527 28.3757V26.0291C38.2594 25.7414 38.6993 25.151 38.7448 24.4545C39.3666 24.1669 40.0947 23.7581 40.8228 23.2282C43.3103 21.3812 44.6299 18.8074 44.6299 15.7794C44.6299 14.9316 44.4934 14.1141 44.2356 13.3419C44.5238 13.0089 44.6906 12.5849 44.6906 12.1156C44.6906 11.8734 44.6451 11.6311 44.5541 11.4192C45.5249 10.5259 46.6018 9.79923 47.7849 9.2542C48.1793 9.63269 48.7101 9.85979 49.2865 9.85979H49.3017C49.4837 9.85979 49.6657 9.82951 49.8477 9.78409C50.8943 11.51 52.1229 14.432 51.2584 17.7325Z" fill="url(#paint0_linear)"/>
<path d="M30.2672 13.994C29.9463 13.994 29.6383 14.0646 29.3623 14.1865L18.349 3.17753C18.471 2.9015 18.5416 2.59338 18.5416 2.27242C18.5416 1.02066 17.5211 0 16.2696 0C15.0181 0 13.9976 1.02066 13.9976 2.27242C13.9976 2.59338 14.0682 2.9015 14.1902 3.17753L3.1769 14.1865C2.90093 14.0646 2.59287 13.994 2.27197 13.994C1.02046 13.994 0 15.0146 0 16.2664C0 17.5181 1.02046 18.5388 2.27197 18.5388C2.59287 18.5388 2.90093 18.4682 3.1769 18.3462L14.1902 29.3617C14.0682 29.6377 13.9976 29.9458 13.9976 30.2668C13.9976 31.5185 15.0181 32.5392 16.2696 32.5392C17.5211 32.5392 18.5416 31.5185 18.5416 30.2668C18.5416 29.9458 18.471 29.6377 18.349 29.3617L29.3623 18.3462C29.6383 18.4682 29.9463 18.5388 30.2672 18.5388C31.5187 18.5388 32.5392 17.5181 32.5392 16.2664C32.5392 15.0146 31.5251 13.994 30.2672 13.994ZM28.1493 15.4576L23.8813 16.4975C23.5219 15.9968 22.9379 15.6694 22.2768 15.6694C21.7955 15.6694 21.3591 15.8427 21.0125 16.1252L18.2399 14.8221C18.2399 14.8028 18.2399 14.7835 18.2399 14.7579C18.2399 13.9619 17.7714 13.2814 17.0911 12.9669V4.37793C17.1168 4.36509 17.1424 4.35867 17.1681 4.34583L28.1814 15.3613C28.175 15.3934 28.1621 15.4255 28.1493 15.4576ZM16.2696 28.0008C16.2183 28.0008 16.1669 28.0072 16.1091 28.0072L11.7834 18.9047C12.0658 18.5645 12.2327 18.128 12.2327 17.6529C12.2327 17.6465 12.2327 17.6465 12.2327 17.6401L15.0438 16.3177C15.3775 16.5809 15.8075 16.7414 16.2632 16.7414C16.7253 16.7414 17.1553 16.5809 17.489 16.3113L20.3001 17.6337C20.3001 17.6401 20.3001 17.6465 20.3001 17.6529C20.3001 18.128 20.467 18.5645 20.7493 18.9047L16.4236 28.0072C16.3723 28.0008 16.3209 28.0008 16.2696 28.0008ZM15.4417 4.37793V12.9733C14.7678 13.2879 14.2929 13.9683 14.2929 14.7643C14.2929 14.79 14.2929 14.8092 14.2993 14.8349L11.5267 16.138C11.1801 15.8491 10.7437 15.6758 10.2559 15.6758C9.59489 15.6758 9.01085 16.0032 8.65145 16.5039L4.3899 15.4576C4.37707 15.4255 4.36423 15.3934 4.35139 15.3549L15.3647 4.33942C15.3903 4.35867 15.416 4.37151 15.4417 4.37793ZM4.35781 17.1651L8.34338 18.1408C8.56159 18.9946 9.33175 19.6301 10.2559 19.6301C10.2688 19.6301 10.2752 19.6301 10.288 19.6301L13.4521 26.2868L4.35139 17.1779C4.35139 17.1715 4.35781 17.1651 4.35781 17.1651ZM22.2447 19.6301C22.2576 19.6301 22.2704 19.6301 22.2832 19.6301C23.2074 19.6301 23.984 18.9946 24.1958 18.1344L28.1814 17.1587C28.1814 17.1651 28.1878 17.1715 28.1878 17.1779L19.0807 26.2868L22.2447 19.6301Z" fill="url(#paint1_linear)"/>
<line x1="73.5" y1="1" x2="73.5" y2="31" stroke="white"/>
<defs>
<linearGradient id="paint0_linear" x1="20.5887" y1="16.2663" x2="53.1412" y2="16.2663" gradientUnits="userSpaceOnUse">
<stop stop-color="#0FA2F5"/>
<stop offset="0.9341" stop-color="#F34692"/>
</linearGradient>
<linearGradient id="paint1_linear" x1="-0.00254152" y1="16.2692" x2="32.5417" y2="16.2692" gradientUnits="userSpaceOnUse">
<stop stop-color="#0BADF4"/>
<stop offset="0.9341" stop-color="#30EFE4"/>
</linearGradient>
</defs>
</svg>
