<svg width="23" height="17" viewBox="0 0 23 17" fill="none" xmlns="http://www.w3.org/2000/svg">
<path d="M6.98125 12.9305L10.2954 9.46602C10.9078 8.82311 12.0029 9.25172 12.0029 10.1446V10.1518C12.0029 10.4089 11.902 10.659 11.7147 10.8447L6.70027 15.8093C6.31123 16.1951 5.68443 16.1951 5.30258 15.8093L0.288184 10.8375C0.100864 10.6518 0 10.4018 0 10.1446C0 9.25886 1.0951 8.82311 1.70749 9.47316L5.0144 12.9305L4.98558 2.08442C4.98558 1.54152 5.43227 1.09863 5.97982 1.09863H6.01584C6.56339 1.09863 7.00287 1.54152 7.00287 2.08442L6.98125 12.9305Z" fill="white"/>
<path d="M15.0217 3.16808L11.7076 6.63262C11.0952 7.27552 10.0001 6.84692 10.0001 5.95399L10.0001 5.94685C10.0001 5.68969 10.1009 5.43967 10.2883 5.25395L15.3027 0.289306C15.6917 -0.0964351 16.3185 -0.0964351 16.7003 0.289306L21.7147 5.26109C21.9021 5.44682 22.0029 5.69683 22.0029 5.954C22.0029 6.83977 20.9078 7.27552 20.2954 6.62547L16.9885 3.16808L17.0173 14.0142C17.0173 14.5571 16.5707 15 16.0231 15L15.9871 15C15.4395 15 15.0001 14.5571 15.0001 14.0142L15.0217 3.16808Z" fill="white"/>
</svg>
