<svg width="100" height="100" viewBox="0 0 100 100" fill="none" xmlns="http://www.w3.org/2000/svg">
<circle cx="50" cy="50" r="50" fill="#3F9149"/>
<path d="M55.3248 38.5494C55.3248 30.3733 51.3835 23.3292 48.3646 21.0231C48.3646 21.0231 48.155 20.8973 48.155 21.2327C47.9034 37.04 39.8949 41.3587 35.4505 47.103C25.2617 60.4364 34.7377 75.0277 44.3813 77.7111C49.7902 79.2206 43.1235 75.0277 42.2849 66.2226C41.2786 55.5307 55.3248 47.3965 55.3248 38.5494" fill="white"/>
<path d="M60.6045 43.9572C60.5626 43.9153 60.4787 43.9153 60.3949 43.9572C60.3949 43.9572 60.3949 43.9572 60.3529 43.9992C60.1852 45.9698 58.0049 50.2466 55.2795 54.146C46.0132 67.3955 51.2963 73.7688 54.2732 77.2069C55.9923 79.2195 54.2732 77.2069 58.5919 75.1524C58.9274 74.9847 66.9777 70.7079 67.8582 61.0223C68.7388 51.5883 62.7429 45.6763 60.6045 43.9572" fill="white"/>
</svg>
