<svg width="592" height="693" viewBox="0 0 592 693" fill="none" xmlns="http://www.w3.org/2000/svg">
<g filter="url(#filter0_f)">
<path d="M35 75C35 52.9086 52.9086 35 75 35H516.9C538.991 35 556.9 52.9086 556.9 75V645C556.9 650.523 552.423 655 546.9 655H35V75Z" fill="#C4C4C4"/>
<path d="M35 75C35 52.9086 52.9086 35 75 35H516.9C538.991 35 556.9 52.9086 556.9 75V645C556.9 650.523 552.423 655 546.9 655H35V75Z" fill="url(#paint0_linear)"/>
<path d="M36.5 75C36.5 53.737 53.737 36.5 75 36.5H516.9C538.163 36.5 555.4 53.737 555.4 75V645C555.4 649.694 551.594 653.5 546.9 653.5H36.5V75Z" stroke="#272727" stroke-width="3"/>
</g>
<path d="M35.0996 75C35.0996 52.9086 53.0082 35 75.0996 35H517C539.091 35 557 52.9086 557 75V360C557 365.523 552.523 370 547 370H35.0996V75Z" fill="#C4C4C4"/>
<path d="M35.0996 75C35.0996 52.9086 53.0082 35 75.0996 35H517C539.091 35 557 52.9086 557 75V360C557 365.523 552.523 370 547 370H35.0996V75Z" fill="url(#paint1_linear)"/>
<path d="M35.0996 71C35.0996 48.9086 53.0082 31 75.0996 31H517.1C539.191 31 557.1 48.9086 557.1 71V356C557.1 361.523 552.622 366 547.1 366H35.0996V71Z" fill="#242424"/>
<path d="M35.0996 71C35.0996 48.9086 53.0082 31 75.0996 31H517.1C539.191 31 557.1 48.9086 557.1 71V356C557.1 361.523 552.622 366 547.1 366H35.0996V71Z" fill="url(#paint2_linear)"/>
<path d="M35.0996 83H239.1" stroke="#242424" stroke-width="3" stroke-miterlimit="10"/>
<path d="M35.0996 114H166.1" stroke="#242424" stroke-width="3" stroke-miterlimit="10"/>
<path d="M35.0996 145H128.1" stroke="#242424" stroke-width="3" stroke-miterlimit="10"/>
<path d="M39.6152 53.3047L555.293 53.3047" stroke="#242424" stroke-width="3" stroke-miterlimit="10"/>
<path d="M557.1 83L349.1 83" stroke="#242424" stroke-width="3" stroke-miterlimit="10"/>
<path d="M557.1 114L404.1 114" stroke="#242424" stroke-width="3" stroke-miterlimit="10"/>
<path d="M557.1 145L460.1 145" stroke="#242424" stroke-width="3" stroke-miterlimit="10"/>
<path d="M557.1 175L469.1 175" stroke="#242424" stroke-width="3" stroke-miterlimit="10"/>
<path d="M101.1 175H35.0996" stroke="#242424" stroke-width="3" stroke-miterlimit="10"/>
<path d="M523 693V335C523 209.079 420.921 107 295 107V107C169.079 107 67 209.079 67 335V693" stroke="#242424" stroke-width="66" stroke-linejoin="round"/>
<path d="M523 693V335C523 209.079 420.921 107 295 107V107C169.079 107 67 209.079 67 335V693" stroke="url(#paint3_linear)" stroke-width="66" stroke-linejoin="round"/>
<path d="M557.094 535.526H490.1" stroke="#242424" stroke-width="3" stroke-miterlimit="10"/>
<path d="M557.094 497.289H490.1" stroke="#242424" stroke-width="3" stroke-miterlimit="10"/>
<path d="M557.094 573.745H490.1" stroke="#242424" stroke-width="3" stroke-miterlimit="10"/>
<path d="M557.094 612.363H490.1" stroke="#242424" stroke-width="3" stroke-miterlimit="10"/>
<path d="M557.094 651.03H490.1" stroke="#242424" stroke-width="3" stroke-miterlimit="10"/>
<path d="M557.094 453.883H490.1" stroke="#242424" stroke-width="3" stroke-miterlimit="10"/>
<path d="M557.094 391.997H490.1" stroke="#242424" stroke-width="3" stroke-miterlimit="10"/>
<path d="M557.094 384.521H490.1" stroke="#242424" stroke-width="3" stroke-miterlimit="10"/>
<path d="M556.891 365.86L490.457 365.86" stroke="#242424" stroke-width="3" stroke-miterlimit="10"/>
<path d="M557.094 414.476H490.1" stroke="#242424" stroke-width="3" stroke-miterlimit="10"/>
<path d="M523.598 453.883V497.093" stroke="#242424" stroke-width="3" stroke-miterlimit="10"/>
<path d="M523.598 535.526V573.958" stroke="#242424" stroke-width="3" stroke-miterlimit="10"/>
<path d="M523.598 612.363V650.795" stroke="#242424" stroke-width="3" stroke-miterlimit="10"/>
<path d="M100.1 334C100.1 226.304 187.404 139 295.1 139C402.795 139 490.1 226.304 490.1 334V693H100.1V334Z" fill="#242424"/>
<path d="M100.1 535.526H35.0996" stroke="#242424" stroke-width="3" stroke-miterlimit="10"/>
<path d="M100.1 497.289H35.0996" stroke="#242424" stroke-width="3" stroke-miterlimit="10"/>
<path d="M100.1 573.745H35.0996" stroke="#242424" stroke-width="3" stroke-miterlimit="10"/>
<path d="M100.1 612.363H35.0996" stroke="#242424" stroke-width="3" stroke-miterlimit="10"/>
<path d="M100.1 651.03H35.0996" stroke="#242424" stroke-width="3" stroke-miterlimit="10"/>
<path d="M100.1 453.883H35.0996" stroke="#242424" stroke-width="3" stroke-miterlimit="10"/>
<path d="M100.1 391.997H35.0996" stroke="#242424" stroke-width="3" stroke-miterlimit="10"/>
<path d="M100.1 384.521H35.0996" stroke="#242424" stroke-width="3" stroke-miterlimit="10"/>
<path d="M99.902 365.86L35.4453 365.86" stroke="#242424" stroke-width="3" stroke-miterlimit="10"/>
<path d="M100.1 414.476H35.0996" stroke="#242424" stroke-width="3" stroke-miterlimit="10"/>
<path d="M67.6006 453.883V497.093" stroke="#242424" stroke-width="3" stroke-miterlimit="10"/>
<path d="M67.6006 535.526V573.958" stroke="#242424" stroke-width="3" stroke-miterlimit="10"/>
<path d="M67.6006 612.363V650.795" stroke="#242424" stroke-width="3" stroke-miterlimit="10"/>
<path d="M199.438 660.684H196.076V659.497H204.162V660.684H200.807V670H199.438V660.684ZM210.036 668.857V670H205.824V668.857H207.311V663.643H206.037V662.5H208.659V668.857H210.036ZM207.194 659.38H208.673V661.123H207.194V659.38ZM219.052 662.317C220.502 662.317 221.227 663.228 221.227 665.049V670H219.909V665.437C219.909 664.968 219.887 664.609 219.843 664.36C219.804 664.106 219.706 663.901 219.55 663.745C219.33 663.535 219.015 663.43 218.605 663.43C218.249 663.43 217.953 663.54 217.719 663.76C217.548 663.931 217.418 664.155 217.331 664.434C217.248 664.712 217.206 665.098 217.206 665.591V670H215.888V665.437C215.888 664.978 215.866 664.624 215.822 664.375C215.783 664.121 215.685 663.916 215.529 663.76C215.402 663.628 215.258 663.54 215.097 663.496C214.94 663.452 214.77 663.43 214.584 663.43C214.403 663.43 214.237 663.459 214.086 663.518C213.935 663.572 213.805 663.652 213.698 663.76C213.522 663.936 213.393 664.16 213.31 664.434C213.227 664.707 213.185 665.093 213.185 665.591V670H211.881V662.5H213.156V663.474C213.258 663.215 213.415 662.991 213.625 662.8C213.996 662.478 214.469 662.317 215.045 662.317C215.529 662.317 215.934 662.437 216.261 662.676C216.588 662.915 216.825 663.259 216.972 663.708C217.094 663.362 217.296 663.064 217.58 662.815C217.76 662.649 217.968 662.524 218.202 662.441C218.441 662.358 218.725 662.317 219.052 662.317ZM229.438 663.804C229.638 664.126 229.794 664.509 229.906 664.954C230.019 665.398 230.075 665.859 230.075 666.338C230.075 666.479 230.072 666.584 230.067 666.653H224.376C224.391 667.478 224.574 668.093 224.926 668.499C225.277 668.899 225.805 669.099 226.508 669.099C227.143 669.099 227.636 668.962 227.987 668.689C228.339 668.411 228.561 667.988 228.654 667.422L229.958 667.524C229.792 668.398 229.416 669.06 228.83 669.509C228.249 669.958 227.479 670.183 226.522 670.183C225.37 670.183 224.472 669.817 223.827 669.084C223.217 668.401 222.912 667.451 222.912 666.235C222.912 665.674 222.99 665.156 223.146 664.683C223.307 664.204 223.544 663.792 223.856 663.445C224.184 663.074 224.572 662.793 225.021 662.603C225.47 662.412 225.966 662.317 226.508 662.317C227.113 662.317 227.677 662.446 228.2 662.705C228.722 662.959 229.135 663.325 229.438 663.804ZM226.522 663.416C226.112 663.416 225.753 663.489 225.446 663.635C225.138 663.777 224.909 663.975 224.757 664.229C224.63 664.434 224.538 664.653 224.479 664.888C224.425 665.122 224.396 665.347 224.391 665.562H228.683C228.678 665.347 228.639 665.115 228.566 664.866C228.493 664.612 228.397 664.399 228.28 664.229C228.09 663.945 227.851 663.74 227.562 663.613C227.279 663.481 226.933 663.416 226.522 663.416ZM236.242 668.857V670H232.03V668.857H233.532V660.64H232.287V659.497H234.879V668.857H236.242ZM241.654 670.183C240.883 670.183 240.214 670.027 239.647 669.714C239.086 669.397 238.654 668.943 238.351 668.352C238.053 667.761 237.904 667.061 237.904 666.25C237.904 665.493 238.056 664.817 238.358 664.221C238.666 663.625 239.103 663.159 239.669 662.822C240.236 662.485 240.897 662.317 241.654 662.317C242.406 662.317 243.063 662.485 243.625 662.822C244.191 663.159 244.625 663.628 244.928 664.229C245.236 664.824 245.39 665.498 245.39 666.25C245.39 667.031 245.236 667.72 244.928 668.315C244.621 668.906 244.184 669.365 243.617 669.692C243.051 670.02 242.396 670.183 241.654 670.183ZM241.654 669.114C242.47 669.114 243.053 668.87 243.405 668.381C243.761 667.893 243.939 667.183 243.939 666.25C243.939 665.317 243.761 664.607 243.405 664.119C243.053 663.63 242.47 663.386 241.654 663.386C240.829 663.386 240.241 663.63 239.889 664.119C239.538 664.602 239.362 665.312 239.362 666.25C239.362 667.188 239.535 667.9 239.882 668.389C240.233 668.872 240.824 669.114 241.654 669.114ZM250.729 670.183C249.967 670.183 249.306 670.027 248.744 669.714C248.188 669.402 247.758 668.95 247.455 668.359C247.157 667.769 247.008 667.065 247.008 666.25C247.008 665.483 247.16 664.802 247.462 664.207C247.765 663.611 248.197 663.147 248.759 662.815C249.32 662.483 249.977 662.317 250.729 662.317C251.339 662.317 251.874 662.429 252.333 662.654C252.792 662.878 253.161 663.184 253.439 663.569C253.717 663.955 253.908 664.395 254.01 664.888L252.75 665.122C252.614 664.6 252.394 664.182 252.091 663.87C251.793 663.557 251.339 663.401 250.729 663.401C250.143 663.401 249.687 663.521 249.359 663.76C249.032 663.994 248.805 664.319 248.678 664.734C248.556 665.144 248.495 665.649 248.495 666.25C248.495 666.86 248.559 667.373 248.686 667.788C248.812 668.198 249.04 668.521 249.367 668.755C249.694 668.984 250.148 669.099 250.729 669.099C251.305 669.099 251.752 668.979 252.069 668.74C252.392 668.501 252.624 668.11 252.765 667.568L254.04 667.708C253.952 668.206 253.756 668.643 253.454 669.019C253.151 669.39 252.765 669.678 252.296 669.883C251.828 670.083 251.305 670.183 250.729 670.183ZM258.61 666.147L257.555 667.129V670H256.208V659.497H257.555V665.598L260.69 662.5H262.521L259.562 665.261L262.653 670H261.078L258.61 666.147ZM277.001 662.5V670H275.653V668.879C275.453 669.299 275.153 669.622 274.752 669.846C274.352 670.071 273.883 670.183 273.346 670.183C272.858 670.183 272.433 670.115 272.072 669.978C271.71 669.841 271.396 669.629 271.127 669.341C270.946 669.15 270.812 668.928 270.724 668.674C270.636 668.416 270.58 668.157 270.556 667.898C270.536 667.639 270.526 667.334 270.526 666.982V662.5H271.918V666.909C271.918 667.222 271.923 667.466 271.933 667.642C271.947 667.812 271.986 667.986 272.05 668.162C272.113 668.333 272.216 668.486 272.357 668.623C272.548 668.809 272.75 668.928 272.965 668.982C273.18 669.031 273.432 669.055 273.72 669.055C275.009 669.055 275.653 668.274 275.653 666.711V662.5H277.001ZM285.358 663.159C285.534 663.35 285.663 663.577 285.746 663.84C285.834 664.099 285.888 664.36 285.907 664.624C285.932 664.883 285.944 665.19 285.944 665.547V670H284.545V665.62C284.545 665.303 284.538 665.056 284.523 664.88C284.513 664.7 284.474 664.521 284.406 664.346C284.342 664.17 284.24 664.014 284.098 663.877C283.908 663.691 283.708 663.574 283.498 663.525C283.288 663.472 283.043 663.445 282.765 663.445C282.272 663.445 281.823 663.613 281.417 663.95C281.012 664.282 280.81 664.919 280.81 665.862V670H279.462V662.5H280.81V663.65C281.205 662.761 281.977 662.317 283.124 662.317C283.617 662.317 284.044 662.385 284.406 662.522C284.767 662.659 285.084 662.871 285.358 663.159ZM291.789 670.073C290.973 670.073 290.382 669.924 290.016 669.626C289.65 669.324 289.467 668.833 289.467 668.154V663.628H287.892V662.5H289.467V660.413H290.8V662.5H292.931V663.628H290.8V668.11C290.8 668.311 290.834 668.464 290.902 668.572C290.976 668.679 291.088 668.755 291.239 668.799C291.396 668.838 291.615 668.857 291.898 668.857C292.172 668.857 292.497 668.813 292.873 668.726L292.902 669.956C292.77 669.99 292.602 670.017 292.396 670.037C292.196 670.061 291.994 670.073 291.789 670.073ZM299.406 668.857V670H295.194V668.857H296.681V663.643H295.407V662.5H298.029V668.857H299.406ZM296.564 659.38H298.043V661.123H296.564V659.38ZM305.675 668.857V670H301.464V668.857H302.965V660.64H301.72V659.497H304.313V668.857H305.675ZM317.46 659.548C318.275 659.548 318.961 659.773 319.518 660.222C320.075 660.667 320.49 661.287 320.763 662.083C321.042 662.878 321.181 663.804 321.181 664.858C321.181 665.928 321.042 666.863 320.763 667.664C320.49 668.459 320.075 669.08 319.518 669.524C318.961 669.963 318.275 670.183 317.46 670.183C316.254 670.183 315.336 669.734 314.706 668.835C314.076 667.932 313.761 666.606 313.761 664.858C313.761 663.799 313.898 662.871 314.171 662.075C314.445 661.279 314.857 660.659 315.409 660.215C315.961 659.771 316.645 659.548 317.46 659.548ZM317.46 660.698C316.869 660.698 316.408 660.854 316.076 661.167C315.749 661.479 315.519 661.936 315.387 662.537C315.26 663.137 315.197 663.911 315.197 664.858C315.197 665.464 315.221 665.996 315.27 666.455C315.319 666.909 315.399 667.302 315.512 667.634L318.683 661.028C318.371 660.808 317.963 660.698 317.46 660.698ZM317.46 669.055C318.051 669.055 318.512 668.896 318.844 668.579C319.176 668.257 319.408 667.793 319.54 667.188C319.677 666.582 319.745 665.806 319.745 664.858C319.745 664.233 319.718 663.689 319.665 663.225C319.611 662.756 319.523 662.356 319.401 662.024L316.2 668.682C316.522 668.931 316.942 669.055 317.46 669.055ZM328.183 664.463C328.554 664.57 328.864 664.756 329.113 665.02C329.362 665.283 329.545 665.591 329.662 665.942C329.784 666.289 329.845 666.65 329.845 667.026C329.845 667.705 329.689 668.281 329.376 668.755C329.069 669.229 328.649 669.585 328.117 669.824C327.589 670.063 327.001 670.183 326.352 670.183C325.634 670.183 325.016 670.042 324.499 669.758C323.981 669.47 323.59 669.075 323.327 668.572C323.063 668.069 322.936 667.495 322.946 666.851L324.25 666.653C324.245 667.107 324.318 667.517 324.469 667.883C324.621 668.245 324.855 668.53 325.172 668.74C325.49 668.95 325.883 669.055 326.352 669.055C327.04 669.055 327.572 668.882 327.948 668.535C328.324 668.188 328.512 667.693 328.512 667.048C328.512 666.414 328.324 665.952 327.948 665.664C327.572 665.376 327.069 665.232 326.439 665.232H325.604V664.031H326.264C326.601 664.031 326.908 663.967 327.187 663.84C327.47 663.713 327.694 663.528 327.86 663.284C328.026 663.04 328.109 662.749 328.109 662.412C328.109 661.865 327.953 661.436 327.641 661.123C327.328 660.811 326.894 660.654 326.337 660.654C325.814 660.654 325.409 660.786 325.121 661.05C324.838 661.313 324.647 661.616 324.55 661.958C324.457 662.295 324.418 662.6 324.433 662.874L323.078 662.668C323.087 662.063 323.231 661.523 323.51 661.05C323.793 660.576 324.179 660.208 324.667 659.944C325.16 659.68 325.717 659.548 326.337 659.548C326.908 659.548 327.426 659.653 327.89 659.863C328.358 660.068 328.732 660.388 329.01 660.823C329.289 661.252 329.428 661.787 329.428 662.427C329.428 662.847 329.315 663.24 329.091 663.606C328.871 663.972 328.568 664.258 328.183 664.463ZM333.009 668.242H334.679V670H333.009V668.242ZM341.352 659.548C342.167 659.548 342.853 659.773 343.41 660.222C343.966 660.667 344.381 661.287 344.655 662.083C344.933 662.878 345.072 663.804 345.072 664.858C345.072 665.928 344.933 666.863 344.655 667.664C344.381 668.459 343.966 669.08 343.41 669.524C342.853 669.963 342.167 670.183 341.352 670.183C340.146 670.183 339.228 669.734 338.598 668.835C337.968 667.932 337.653 666.606 337.653 664.858C337.653 663.799 337.79 662.871 338.063 662.075C338.336 661.279 338.749 660.659 339.301 660.215C339.853 659.771 340.536 659.548 341.352 659.548ZM341.352 660.698C340.761 660.698 340.299 660.854 339.967 661.167C339.64 661.479 339.411 661.936 339.279 662.537C339.152 663.137 339.088 663.911 339.088 664.858C339.088 665.464 339.113 665.996 339.162 666.455C339.21 666.909 339.291 667.302 339.403 667.634L342.575 661.028C342.262 660.808 341.854 660.698 341.352 660.698ZM341.352 669.055C341.942 669.055 342.404 668.896 342.736 668.579C343.068 668.257 343.3 667.793 343.432 667.188C343.568 666.582 343.637 665.806 343.637 664.858C343.637 664.233 343.61 663.689 343.556 663.225C343.502 662.756 343.415 662.356 343.292 662.024L340.092 668.682C340.414 668.931 340.834 669.055 341.352 669.055ZM350.719 663.298C351.364 663.298 351.925 663.445 352.404 663.738C352.882 664.031 353.249 664.434 353.502 664.946C353.761 665.459 353.891 666.038 353.891 666.682C353.891 667.249 353.776 667.798 353.546 668.33C353.317 668.862 352.943 669.304 352.426 669.656C351.908 670.007 351.247 670.183 350.441 670.183C349.083 670.183 348.153 669.697 347.65 668.726C347.147 667.754 346.896 666.57 346.896 665.173C346.896 663.372 347.182 661.985 347.753 661.013C348.324 660.037 349.298 659.548 350.675 659.548C351.574 659.548 352.265 659.797 352.748 660.295C353.231 660.793 353.527 661.433 353.634 662.214L352.389 662.427C352.335 661.89 352.169 661.462 351.891 661.145C351.613 660.828 351.193 660.669 350.631 660.669C349.689 660.669 349.037 661.05 348.676 661.812C348.319 662.568 348.141 663.545 348.141 664.741C348.415 664.258 348.778 663.896 349.232 663.657C349.691 663.418 350.187 663.298 350.719 663.298ZM350.419 669.055C351.161 669.055 351.713 668.862 352.074 668.477C352.436 668.091 352.616 667.488 352.616 666.667C352.616 665.94 352.438 665.388 352.082 665.012C351.725 664.636 351.198 664.448 350.5 664.448C350.05 664.448 349.662 664.541 349.335 664.727C349.008 664.912 348.756 665.178 348.581 665.525C348.41 665.872 348.324 666.279 348.324 666.748C348.324 667.188 348.4 667.581 348.551 667.927C348.703 668.274 348.935 668.55 349.247 668.755C349.564 668.955 349.955 669.055 350.419 669.055ZM357.003 668.242H358.673V670H357.003V668.242ZM368.649 668.813V670H361.793C361.847 669.214 362.013 668.538 362.292 667.971C362.57 667.405 362.907 666.934 363.302 666.558C363.703 666.182 364.179 665.82 364.73 665.474L365.17 665.203C365.609 664.929 365.971 664.685 366.254 664.47C366.537 664.25 366.781 663.984 366.986 663.672C367.191 663.354 367.294 662.998 367.294 662.603C367.294 661.978 367.143 661.499 366.84 661.167C366.537 660.835 366.095 660.669 365.514 660.669C364.733 660.669 364.206 660.901 363.932 661.365C363.664 661.829 363.529 662.351 363.529 662.932L362.196 662.727C362.191 662.234 362.292 661.746 362.497 661.262C362.707 660.779 363.063 660.374 363.566 660.046C364.074 659.714 364.743 659.548 365.573 659.548C366.188 659.548 366.725 659.675 367.184 659.929C367.648 660.178 368.004 660.535 368.253 660.999C368.507 661.458 368.634 661.997 368.634 662.617C368.634 663.169 368.512 663.657 368.268 664.082C368.029 664.502 367.731 664.858 367.375 665.151C367.018 665.444 366.581 665.75 366.063 666.067C365.526 666.394 365.087 666.68 364.745 666.924C364.403 667.168 364.098 667.451 363.83 667.773C363.561 668.091 363.385 668.438 363.302 668.813H368.649ZM374.12 659.548C374.936 659.548 375.622 659.773 376.178 660.222C376.735 660.667 377.15 661.287 377.423 662.083C377.702 662.878 377.841 663.804 377.841 664.858C377.841 665.928 377.702 666.863 377.423 667.664C377.15 668.459 376.735 669.08 376.178 669.524C375.622 669.963 374.936 670.183 374.12 670.183C372.914 670.183 371.996 669.734 371.366 668.835C370.736 667.932 370.421 666.606 370.421 664.858C370.421 663.799 370.558 662.871 370.832 662.075C371.105 661.279 371.518 660.659 372.069 660.215C372.621 659.771 373.305 659.548 374.12 659.548ZM374.12 660.698C373.529 660.698 373.068 660.854 372.736 661.167C372.409 661.479 372.179 661.936 372.047 662.537C371.92 663.137 371.857 663.911 371.857 664.858C371.857 665.464 371.881 665.996 371.93 666.455C371.979 666.909 372.06 667.302 372.172 667.634L375.343 661.028C375.031 660.808 374.623 660.698 374.12 660.698ZM374.12 669.055C374.711 669.055 375.172 668.896 375.504 668.579C375.836 668.257 376.068 667.793 376.2 667.188C376.337 666.582 376.405 665.806 376.405 664.858C376.405 664.233 376.378 663.689 376.325 663.225C376.271 662.756 376.183 662.356 376.061 662.024L372.86 668.682C373.183 668.931 373.603 669.055 374.12 669.055ZM386.344 668.813V670H379.489C379.542 669.214 379.708 668.538 379.987 667.971C380.265 667.405 380.602 666.934 380.998 666.558C381.398 666.182 381.874 665.82 382.426 665.474L382.865 665.203C383.305 664.929 383.666 664.685 383.949 664.47C384.232 664.25 384.477 663.984 384.682 663.672C384.887 663.354 384.989 662.998 384.989 662.603C384.989 661.978 384.838 661.499 384.535 661.167C384.232 660.835 383.791 660.669 383.209 660.669C382.428 660.669 381.901 660.901 381.627 661.365C381.359 661.829 381.225 662.351 381.225 662.932L379.892 662.727C379.887 662.234 379.987 661.746 380.192 661.262C380.402 660.779 380.758 660.374 381.261 660.046C381.769 659.714 382.438 659.548 383.268 659.548C383.883 659.548 384.42 659.675 384.879 659.929C385.343 660.178 385.7 660.535 385.949 660.999C386.203 661.458 386.33 661.997 386.33 662.617C386.33 663.169 386.208 663.657 385.963 664.082C385.724 664.502 385.426 664.858 385.07 665.151C384.713 665.444 384.276 665.75 383.759 666.067C383.222 666.394 382.782 666.68 382.44 666.924C382.099 667.168 381.793 667.451 381.525 667.773C381.256 668.091 381.081 668.438 380.998 668.813H386.344ZM391.815 659.548C392.631 659.548 393.317 659.773 393.874 660.222C394.43 660.667 394.845 661.287 395.119 662.083C395.397 662.878 395.536 663.804 395.536 664.858C395.536 665.928 395.397 666.863 395.119 667.664C394.845 668.459 394.43 669.08 393.874 669.524C393.317 669.963 392.631 670.183 391.815 670.183C390.609 670.183 389.691 669.734 389.062 668.835C388.432 667.932 388.117 666.606 388.117 664.858C388.117 663.799 388.253 662.871 388.527 662.075C388.8 661.279 389.213 660.659 389.765 660.215C390.316 659.771 391 659.548 391.815 659.548ZM391.815 660.698C391.225 660.698 390.763 660.854 390.431 661.167C390.104 661.479 389.875 661.936 389.743 662.537C389.616 663.137 389.552 663.911 389.552 664.858C389.552 665.464 389.577 665.996 389.625 666.455C389.674 666.909 389.755 667.302 389.867 667.634L393.039 661.028C392.726 660.808 392.318 660.698 391.815 660.698ZM391.815 669.055C392.406 669.055 392.868 668.896 393.2 668.579C393.532 668.257 393.764 667.793 393.896 667.188C394.032 666.582 394.101 665.806 394.101 664.858C394.101 664.233 394.074 663.689 394.02 663.225C393.966 662.756 393.878 662.356 393.756 662.024L390.556 668.682C390.878 668.931 391.298 669.055 391.815 669.055Z" fill="white"/>
<defs>
<filter id="filter0_f" x="0" y="0" width="591.9" height="690" filterUnits="userSpaceOnUse" color-interpolation-filters="sRGB">
<feFlood flood-opacity="0" result="BackgroundImageFix"/>
<feBlend mode="normal" in="SourceGraphic" in2="BackgroundImageFix" result="shape"/>
<feGaussianBlur stdDeviation="17.5" result="effect1_foregroundBlur"/>
</filter>
<linearGradient id="paint0_linear" x1="299.449" y1="35" x2="299.449" y2="697.5" gradientUnits="userSpaceOnUse">
<stop offset="0.00715083" stop-color="#F1FC68"/>
<stop offset="1" stop-color="#5EC4D6"/>
</linearGradient>
<linearGradient id="paint1_linear" x1="321.945" y1="35" x2="321.945" y2="394" gradientUnits="userSpaceOnUse">
<stop stop-color="#F1FC68"/>
<stop offset="1" stop-color="#5EC4D6"/>
</linearGradient>
<linearGradient id="paint2_linear" x1="322" y1="31" x2="322" y2="390" gradientUnits="userSpaceOnUse">
<stop stop-color="#F1FC68"/>
<stop offset="1" stop-color="#5EC4D6"/>
</linearGradient>
<linearGradient id="paint3_linear" x1="317.626" y1="107" x2="317.626" y2="693" gradientUnits="userSpaceOnUse">
<stop stop-color="#F1FC68"/>
<stop offset="1" stop-color="#5EC4D6"/>
</linearGradient>
</defs>
</svg>
