<svg width="510" height="630" viewBox="50 25 490 640" fill="none" xmlns="http://www.w3.org/2000/svg">
<g filter="url(#filter0_f)">
<path d="M35 75C35 52.9086 52.9086 35 75 35H516.9C538.991 35 556.9 52.9086 556.9 75V645C556.9 650.523 552.423 655 546.9 655H35V75Z" fill="#C4C4C4"/>
<path d="M35 75C35 52.9086 52.9086 35 75 35H516.9C538.991 35 556.9 52.9086 556.9 75V645C556.9 650.523 552.423 655 546.9 655H35V75Z" fill="url(#paint0_linear)"/>
<path d="M36.5 75C36.5 53.737 53.737 36.5 75 36.5H516.9C538.163 36.5 555.4 53.737 555.4 75V645C555.4 649.694 551.594 653.5 546.9 653.5H36.5V75Z" stroke="#272727" stroke-width="3"/>
</g>
<path d="M35.0996 75C35.0996 52.9086 53.0082 35 75.0996 35H517C539.091 35 557 52.9086 557 75V360C557 365.523 552.523 370 547 370H35.0996V75Z" fill="#C4C4C4"/>
<path d="M35.0996 75C35.0996 52.9086 53.0082 35 75.0996 35H517C539.091 35 557 52.9086 557 75V360C557 365.523 552.523 370 547 370H35.0996V75Z" fill="url(#paint1_linear)"/>
<path d="M35.0996 64C35.0996 41.9086 53.0082 24 75.0996 24H517.1C539.191 24 557.1 41.9086 557.1 64V349C557.1 354.523 552.622 359 547.1 359H35.0996V64Z" fill="#242424"/>
<path d="M35.0996 64C35.0996 41.9086 53.0082 24 75.0996 24H517.1C539.191 24 557.1 41.9086 557.1 64V349C557.1 354.523 552.622 359 547.1 359H35.0996V64Z" fill="url(#paint2_linear)"/>
<path d="M35.0996 76H239.1" stroke="#242424" stroke-width="3" stroke-miterlimit="10"/>
<path d="M35.0996 107H166.1" stroke="#242424" stroke-width="3" stroke-miterlimit="10"/>
<path d="M35.0996 138H128.1" stroke="#242424" stroke-width="3" stroke-miterlimit="10"/>
<path d="M39.6152 46.3047L555.293 46.3047" stroke="#242424" stroke-width="3" stroke-miterlimit="10"/>
<path d="M557.1 76L349.1 76" stroke="#242424" stroke-width="3" stroke-miterlimit="10"/>
<path d="M557.1 107L404.1 107" stroke="#242424" stroke-width="3" stroke-miterlimit="10"/>
<path d="M557.1 138L460.1 138" stroke="#242424" stroke-width="3" stroke-miterlimit="10"/>
<path d="M557.1 168L469.1 168" stroke="#242424" stroke-width="3" stroke-miterlimit="10"/>
<path d="M101.1 168H35.0996" stroke="#242424" stroke-width="3" stroke-miterlimit="10"/>
<path d="M524.1 686V328C524.1 202.079 422.021 100 296.1 100V100C170.179 100 68.0996 202.079 68.0996 328V686" stroke="#242424" stroke-width="66" stroke-linejoin="round"/>
<path d="M524.1 686V328C524.1 202.079 422.021 100 296.1 100V100C170.179 100 68.0996 202.079 68.0996 328V686" stroke="url(#paint3_linear)" stroke-width="66" stroke-linejoin="round"/>
<path d="M557.094 528.526H490.1" stroke="#242424" stroke-width="3" stroke-miterlimit="10"/>
<path d="M557.094 490.289H490.1" stroke="#242424" stroke-width="3" stroke-miterlimit="10"/>
<path d="M557.094 566.745H490.1" stroke="#242424" stroke-width="3" stroke-miterlimit="10"/>
<path d="M557.094 605.363H490.1" stroke="#242424" stroke-width="3" stroke-miterlimit="10"/>
<path d="M557.094 644.03H490.1" stroke="#242424" stroke-width="3" stroke-miterlimit="10"/>
<path d="M557.094 446.883H490.1" stroke="#242424" stroke-width="3" stroke-miterlimit="10"/>
<path d="M557.094 384.997H490.1" stroke="#242424" stroke-width="3" stroke-miterlimit="10"/>
<path d="M557.094 377.521H490.1" stroke="#242424" stroke-width="3" stroke-miterlimit="10"/>
<path d="M556.891 358.86L490.456 358.86" stroke="#242424" stroke-width="3" stroke-miterlimit="10"/>
<path d="M557.094 407.476H490.1" stroke="#242424" stroke-width="3" stroke-miterlimit="10"/>
<path d="M523.598 446.883V490.093" stroke="#242424" stroke-width="3" stroke-miterlimit="10"/>
<path d="M523.598 528.526V566.958" stroke="#242424" stroke-width="3" stroke-miterlimit="10"/>
<path d="M523.598 605.363V643.795" stroke="#242424" stroke-width="3" stroke-miterlimit="10"/>
<path d="M100.1 327C100.1 219.304 187.404 132 295.1 132C402.795 132 490.1 219.304 490.1 327V676C490.1 681.523 485.622 686 480.1 686H100.1V327Z" fill="#242424"/>
<path d="M100.1 327C100.1 219.304 187.404 132 295.1 132C402.795 132 490.1 219.304 490.1 327V676C490.1 681.523 485.622 686 480.1 686H100.1V327Z" fill="black"/>
<path d="M100.1 528.526H35.0996" stroke="#242424" stroke-width="3" stroke-miterlimit="10"/>
<path d="M100.1 490.289H35.0996" stroke="#242424" stroke-width="3" stroke-miterlimit="10"/>
<path d="M100.1 566.745H35.0996" stroke="#242424" stroke-width="3" stroke-miterlimit="10"/>
<path d="M100.1 605.363H35.0996" stroke="#242424" stroke-width="3" stroke-miterlimit="10"/>
<path d="M100.1 644.03H35.0996" stroke="#242424" stroke-width="3" stroke-miterlimit="10"/>
<path d="M100.1 446.883H35.0996" stroke="#242424" stroke-width="3" stroke-miterlimit="10"/>
<path d="M100.1 384.997H35.0996" stroke="#242424" stroke-width="3" stroke-miterlimit="10"/>
<path d="M100.1 377.521H35.0996" stroke="#242424" stroke-width="3" stroke-miterlimit="10"/>
<path d="M99.902 358.86L35.4453 358.86" stroke="#242424" stroke-width="3" stroke-miterlimit="10"/>
<path d="M100.1 407.476H35.0996" stroke="#242424" stroke-width="3" stroke-miterlimit="10"/>
<path d="M67.6006 446.883V490.093" stroke="#242424" stroke-width="3" stroke-miterlimit="10"/>
<path d="M67.6006 528.526V566.958" stroke="#242424" stroke-width="3" stroke-miterlimit="10"/>
<path d="M67.6006 605.363V643.795" stroke="#242424" stroke-width="3" stroke-miterlimit="10"/>
<defs>
<filter id="filter0_f" x="0" y="0" width="591.9" height="690" filterUnits="userSpaceOnUse" color-interpolation-filters="sRGB">
<feFlood flood-opacity="0" result="BackgroundImageFix"/>
<feBlend mode="normal" in="SourceGraphic" in2="BackgroundImageFix" result="shape"/>
<feGaussianBlur stdDeviation="17.5" result="effect1_foregroundBlur"/>
</filter>
<linearGradient id="paint0_linear" x1="299.449" y1="35" x2="299.449" y2="697.5" gradientUnits="userSpaceOnUse">
<stop offset="0.00715083" stop-color="#F1FC68"/>
<stop offset="1" stop-color="#5EC4D6"/>
</linearGradient>
<linearGradient id="paint1_linear" x1="321.945" y1="35" x2="321.945" y2="394" gradientUnits="userSpaceOnUse">
<stop stop-color="#F1FC68"/>
<stop offset="1" stop-color="#5EC4D6"/>
</linearGradient>
<linearGradient id="paint2_linear" x1="322" y1="24" x2="322" y2="383" gradientUnits="userSpaceOnUse">
<stop stop-color="#F1FC68"/>
<stop offset="1" stop-color="#5EC4D6"/>
</linearGradient>
<linearGradient id="paint3_linear" x1="318.725" y1="100" x2="318.725" y2="686" gradientUnits="userSpaceOnUse">
<stop stop-color="#F1FC68"/>
<stop offset="1" stop-color="#5EC4D6"/>
</linearGradient>
</defs>
</svg>
