<svg width="523" height="662" viewBox="0 0 522 662" fill="none" xmlns="http://www.w3.org/2000/svg">
<path d="M0.0996094 40C0.0996094 17.9086 18.0082 0 40.0996 0H482.1C504.191 0 522.1 17.9086 522.1 40V325C522.1 330.523 517.622 335 512.1 335H0.0996094V40Z" fill="#242424"/>
<path d="M0.0996094 40C0.0996094 17.9086 18.0082 0 40.0996 0H482.1C504.191 0 522.1 17.9086 522.1 40V325C522.1 330.523 517.622 335 512.1 335H0.0996094V40Z" fill="url(#paint0_linear)" fill-opacity="0.5"/>
<path d="M0.0996094 52H204.1" stroke="#242424" stroke-width="3" stroke-miterlimit="10"/>
<path d="M0.0996094 83H131.1" stroke="#242424" stroke-width="3" stroke-miterlimit="10"/>
<path d="M0.0996094 114H93.0996" stroke="#242424" stroke-width="3" stroke-miterlimit="10"/>
<path d="M4.61523 22.3047L520.293 22.3047" stroke="#242424" stroke-width="3" stroke-miterlimit="10"/>
<path d="M522.1 52L314.1 52" stroke="#242424" stroke-width="3" stroke-miterlimit="10"/>
<path d="M522.1 83L369.1 83" stroke="#242424" stroke-width="3" stroke-miterlimit="10"/>
<path d="M522.1 114L425.1 114" stroke="#242424" stroke-width="3" stroke-miterlimit="10"/>
<path d="M522.1 144L434.1 144" stroke="#242424" stroke-width="3" stroke-miterlimit="10"/>
<path d="M66.0996 144H0.0996094" stroke="#242424" stroke-width="3" stroke-miterlimit="10"/>
<path d="M489.1 662V304C489.1 178.079 387.021 76 261.1 76V76C135.179 76 33.0996 178.079 33.0996 304V662" stroke="#242424" stroke-width="66" stroke-linejoin="round"/>
<path d="M489.1 662V304C489.1 178.079 387.021 76 261.1 76V76C135.179 76 33.0996 178.079 33.0996 304V662" stroke="url(#paint1_linear)" stroke-opacity="0.5" stroke-width="66" stroke-linejoin="round"/>
<path d="M522.094 504.526H455.1" stroke="#242424" stroke-width="3" stroke-miterlimit="10"/>
<path d="M522.094 466.289H455.1" stroke="#242424" stroke-width="3" stroke-miterlimit="10"/>
<path d="M522.094 542.745H455.1" stroke="#242424" stroke-width="3" stroke-miterlimit="10"/>
<path d="M522.094 581.363H455.1" stroke="#242424" stroke-width="3" stroke-miterlimit="10"/>
<path d="M522.094 620.03H455.1" stroke="#242424" stroke-width="3" stroke-miterlimit="10"/>
<path d="M522.094 422.883H455.1" stroke="#242424" stroke-width="3" stroke-miterlimit="10"/>
<path d="M522.094 360.997H455.1" stroke="#242424" stroke-width="3" stroke-miterlimit="10"/>
<path d="M522.094 353.521H455.1" stroke="#242424" stroke-width="3" stroke-miterlimit="10"/>
<path d="M521.891 334.86L455.456 334.86" stroke="#242424" stroke-width="3" stroke-miterlimit="10"/>
<path d="M522.094 383.476H455.1" stroke="#242424" stroke-width="3" stroke-miterlimit="10"/>
<path d="M488.598 422.883V466.093" stroke="#242424" stroke-width="3" stroke-miterlimit="10"/>
<path d="M488.598 504.526V542.958" stroke="#242424" stroke-width="3" stroke-miterlimit="10"/>
<path d="M488.598 581.363V619.795" stroke="#242424" stroke-width="3" stroke-miterlimit="10"/>
<path d="M65.0996 303C65.0996 195.304 152.404 108 260.1 108C367.795 108 455.1 195.304 455.1 303V652C455.1 657.523 450.622 662 445.1 662H65.0996V303Z" fill="#242424"/>
<path d="M65.0996 303C65.0996 195.304 152.404 108 260.1 108C367.795 108 455.1 195.304 455.1 303V652C455.1 657.523 450.622 662 445.1 662H65.0996V303Z" fill="black"/>
<path d="M65.0996 504.526H0.0996094" stroke="#242424" stroke-width="3" stroke-miterlimit="10"/>
<path d="M65.0996 466.289H0.0996094" stroke="#242424" stroke-width="3" stroke-miterlimit="10"/>
<path d="M65.0996 542.745H0.0996094" stroke="#242424" stroke-width="3" stroke-miterlimit="10"/>
<path d="M65.0996 581.363H0.0996094" stroke="#242424" stroke-width="3" stroke-miterlimit="10"/>
<path d="M65.0996 620.03H0.0996094" stroke="#242424" stroke-width="3" stroke-miterlimit="10"/>
<path d="M65.0996 422.883H0.0996094" stroke="#242424" stroke-width="3" stroke-miterlimit="10"/>
<path d="M65.0996 360.997H0.0996094" stroke="#242424" stroke-width="3" stroke-miterlimit="10"/>
<path d="M65.0996 353.521H0.0996094" stroke="#242424" stroke-width="3" stroke-miterlimit="10"/>
<path d="M64.902 334.86L0.445312 334.86" stroke="#242424" stroke-width="3" stroke-miterlimit="10"/>
<path d="M65.0996 383.476H0.0996094" stroke="#242424" stroke-width="3" stroke-miterlimit="10"/>
<path d="M32.6006 422.883V466.093" stroke="#242424" stroke-width="3" stroke-miterlimit="10"/>
<path d="M32.6006 504.526V542.958" stroke="#242424" stroke-width="3" stroke-miterlimit="10"/>
<path d="M32.6006 581.363V619.795" stroke="#242424" stroke-width="3" stroke-miterlimit="10"/>
<defs>
<linearGradient id="paint0_linear" x1="287" y1="1.30624e-05" x2="287" y2="359" gradientUnits="userSpaceOnUse">
<stop stop-color="#F1FC68"/>
<stop offset="1" stop-color="#5EC4D6"/>
</linearGradient>
<linearGradient id="paint1_linear" x1="283.725" y1="76" x2="283.725" y2="662" gradientUnits="userSpaceOnUse">
<stop stop-color="#F1FC68"/>
<stop offset="1" stop-color="#5EC4D6"/>
</linearGradient>
</defs>
</svg>
