<svg width="558" height="899" viewBox="0 0 558 899" fill="none" xmlns="http://www.w3.org/2000/svg">
<g filter="url(#filter0_f)">
<path d="M523 865C526.314 865 529 862.314 529 859L529 617.703C529 565.417 465.706 516.872 361.765 489.435C339.838 483.648 320.573 476.192 304.897 467.439L281.926 454.609C280.107 453.593 277.892 453.593 276.074 454.609L253.103 467.439C237.441 476.192 218.162 483.648 196.235 489.435C92.2941 516.872 29 565.417 29 617.703L29 859" fill="#242424"/>
</g>
<path d="M35.0001 38.9999C31.6864 38.9999 29.0001 41.6862 29.0001 44.9999L29.0001 286.867C29.0001 339.273 92.2942 387.93 196.235 415.43C218.162 421.23 237.427 428.703 253.103 437.477L276.069 450.334C277.89 451.353 280.11 451.353 281.931 450.334L304.897 437.477C320.559 428.703 339.838 421.23 361.765 415.43C465.706 387.93 529 339.273 529 286.867L529 44.9999" fill="black"/>
<g filter="url(#filter1_f)">
<path d="M35.0001 39.9999C31.6864 39.9999 29.0001 42.6862 29.0001 45.9999L29.0001 287.867C29.0001 340.273 92.2942 388.93 196.235 416.43C218.162 422.23 237.427 429.703 253.103 438.477L276.069 451.334C277.89 452.353 280.11 452.353 281.931 451.334L304.897 438.477C320.559 429.703 339.838 422.23 361.765 416.43C465.706 388.93 529 340.273 529 287.867L529 46" stroke="black" stroke-width="10" stroke-miterlimit="10"/>
<path d="M35.0001 39.9999C31.6864 39.9999 29.0001 42.6862 29.0001 45.9999L29.0001 287.867C29.0001 340.273 92.2942 388.93 196.235 416.43C218.162 422.23 237.427 429.703 253.103 438.477L276.069 451.334C277.89 452.353 280.11 452.353 281.931 451.334L304.897 438.477C320.559 429.703 339.838 422.23 361.765 416.43C465.706 388.93 529 340.273 529 287.867L529 46" stroke="url(#paint0_linear)" stroke-width="10" stroke-miterlimit="10"/>
</g>
<g filter="url(#filter2_f)">
<path d="M523 865C526.314 865 529 862.314 529 859L529 617.703C529 565.417 465.706 516.872 361.765 489.435C339.838 483.648 320.573 476.192 304.897 467.439L281.926 454.609C280.107 453.593 277.892 453.593 276.074 454.609L253.103 467.439C237.441 476.192 218.162 483.648 196.235 489.435C92.2941 516.872 29 565.417 29 617.703L29 859" stroke="black" stroke-width="10" stroke-miterlimit="10"/>
<path d="M523 865C526.314 865 529 862.314 529 859L529 617.703C529 565.417 465.706 516.872 361.765 489.435C339.838 483.648 320.573 476.192 304.897 467.439L281.926 454.609C280.107 453.593 277.892 453.593 276.074 454.609L253.103 467.439C237.441 476.192 218.162 483.648 196.235 489.435C92.2941 516.872 29 565.417 29 617.703L29 859" stroke="url(#paint1_linear)" stroke-width="10" stroke-miterlimit="10"/>
</g>
<path d="M35.0001 38.9999C31.6864 38.9999 29.0001 41.6862 29.0001 44.9999L29.0001 286.867C29.0001 339.273 92.2942 387.93 196.235 415.43C218.162 421.23 237.427 428.703 253.103 437.477L276.069 450.334C277.89 451.353 280.11 451.353 281.931 450.334L304.897 437.477C320.559 428.703 339.838 421.23 361.765 415.43C465.706 387.93 529 339.273 529 286.867L529 44.9999" fill="url(#paint2_linear)"/>
<path d="M29.0001 286.867L29.0001 44.9999C29.0001 41.6862 31.6864 38.9999 35.0001 38.9999L523 39C526.314 39 529 41.6862 529 45L529 286.867C529 339.273 465.706 387.93 361.765 415.43C339.838 421.23 320.559 428.703 304.897 437.477L281.931 450.334C280.11 451.353 277.89 451.353 276.069 450.334L253.103 437.477C237.427 428.703 218.162 421.23 196.235 415.43C92.2942 387.93 29.0001 339.273 29.0001 286.867Z" stroke="black" stroke-width="10" stroke-miterlimit="10"/>
<path d="M29.0001 286.867L29.0001 44.9999C29.0001 41.6862 31.6864 38.9999 35.0001 38.9999L523 39C526.314 39 529 41.6862 529 45L529 286.867C529 339.273 465.706 387.93 361.765 415.43C339.838 421.23 320.559 428.703 304.897 437.477L281.931 450.334C280.11 451.353 277.89 451.353 276.069 450.334L253.103 437.477C237.427 428.703 218.162 421.23 196.235 415.43C92.2942 387.93 29.0001 339.273 29.0001 286.867Z" stroke="url(#paint3_linear)" stroke-width="10" stroke-miterlimit="10"/>
<path d="M523 864C526.314 864 529 861.314 529 858L529 616.703C529 564.417 465.706 515.872 361.765 488.435C339.838 482.648 320.573 475.192 304.897 466.439L281.926 453.609C280.107 452.593 277.892 452.593 276.074 453.609L253.103 466.439C237.441 475.192 218.162 482.648 196.235 488.435C92.2941 515.872 29 564.417 29 616.703L29 858" fill="url(#paint4_linear)"/>
<path d="M529 616.703L529 858C529 861.314 526.314 864 523 864H35C31.6863 864 29 861.314 29 858L29 616.703C29 564.417 92.2941 515.872 196.235 488.435C218.162 482.648 237.441 475.192 253.103 466.439L276.074 453.609C277.892 452.593 280.107 452.593 281.926 453.609L304.897 466.439C320.573 475.192 339.838 482.648 361.765 488.435C465.706 515.872 529 564.417 529 616.703Z" stroke="black" stroke-width="10" stroke-miterlimit="10"/>
<path d="M529 616.703L529 858C529 861.314 526.314 864 523 864H35C31.6863 864 29 861.314 29 858L29 616.703C29 564.417 92.2941 515.872 196.235 488.435C218.162 482.648 237.441 475.192 253.103 466.439L276.074 453.609C277.892 452.593 280.107 452.593 281.926 453.609L304.897 466.439C320.573 475.192 339.838 482.648 361.765 488.435C465.706 515.872 529 564.417 529 616.703Z" stroke="url(#paint5_linear)" stroke-width="10" stroke-miterlimit="10"/>
<path d="M518.074 859.073C521.358 859.033 524 856.358 524 853.073L524 650.131C524 606.028 546.442 540.172 360.837 541.789C360.37 541.793 359.873 541.739 359.415 541.647C338.268 537.433 322.077 561.326 306.88 554.012L284.104 543.048C282.459 542.257 280.543 542.257 278.899 543.048L256.122 554.012C241.038 561.278 220.114 537.742 199.001 541.569C198.267 541.702 197.508 541.738 196.77 541.629C104.829 528.131 22.5468 544.431 34.0003 650.131L34.0003 858.926" fill="#242424"/>
<defs>
<filter id="filter0_f" x="-6" y="418.847" width="570" height="481.153" filterUnits="userSpaceOnUse" color-interpolation-filters="sRGB">
<feFlood flood-opacity="0" result="BackgroundImageFix"/>
<feBlend mode="normal" in="SourceGraphic" in2="BackgroundImageFix" result="shape"/>
<feGaussianBlur stdDeviation="17.5" result="effect1_foregroundBlur"/>
</filter>
<filter id="filter1_f" x="-11" y="0" width="580" height="492.098" filterUnits="userSpaceOnUse" color-interpolation-filters="sRGB">
<feFlood flood-opacity="0" result="BackgroundImageFix"/>
<feBlend mode="normal" in="SourceGraphic" in2="BackgroundImageFix" result="shape"/>
<feGaussianBlur stdDeviation="17.5" result="effect1_foregroundBlur"/>
</filter>
<filter id="filter2_f" x="-11" y="413.847" width="580" height="491.153" filterUnits="userSpaceOnUse" color-interpolation-filters="sRGB">
<feFlood flood-opacity="0" result="BackgroundImageFix"/>
<feBlend mode="normal" in="SourceGraphic" in2="BackgroundImageFix" result="shape"/>
<feGaussianBlur stdDeviation="17.5" result="effect1_foregroundBlur"/>
</filter>
<linearGradient id="paint0_linear" x1="275.648" y1="671.265" x2="715.347" y2="178.097" gradientUnits="userSpaceOnUse">
<stop stop-color="#F1FC68"/>
<stop offset="1" stop-color="#5EC4D6"/>
</linearGradient>
<linearGradient id="paint1_linear" x1="282.352" y1="235.186" x2="-156.219" y2="728.223" gradientUnits="userSpaceOnUse">
<stop stop-color="#F1FC68"/>
<stop offset="1" stop-color="#5EC4D6"/>
</linearGradient>
<linearGradient id="paint2_linear" x1="779" y1="245.487" x2="373.462" y2="-245.508" gradientUnits="userSpaceOnUse">
<stop stop-color="#5BCCBD" stop-opacity="0.14902"/>
<stop offset="0.333333" stop-color="#61C0BF" stop-opacity="0.14902"/>
<stop offset="0.744946" stop-color="#55BCC8" stop-opacity="0.14902"/>
<stop offset="1" stop-color="#69CFB8" stop-opacity="0.14902"/>
</linearGradient>
<linearGradient id="paint3_linear" x1="275.648" y1="670.265" x2="715.347" y2="177.097" gradientUnits="userSpaceOnUse">
<stop stop-color="#F1FC68"/>
<stop offset="1" stop-color="#5EC4D6"/>
</linearGradient>
<linearGradient id="paint4_linear" x1="-221" y1="657.987" x2="183.428" y2="1148.77" gradientUnits="userSpaceOnUse">
<stop stop-color="#5BCCBD" stop-opacity="0.14902"/>
<stop offset="0.333333" stop-color="#61C0BF" stop-opacity="0.14902"/>
<stop offset="0.744946" stop-color="#55BCC8" stop-opacity="0.14902"/>
<stop offset="1" stop-color="#69CFB8" stop-opacity="0.14902"/>
</linearGradient>
<linearGradient id="paint5_linear" x1="282.352" y1="234.186" x2="-156.219" y2="727.223" gradientUnits="userSpaceOnUse">
<stop stop-color="#F1FC68"/>
<stop offset="1" stop-color="#5EC4D6"/>
</linearGradient>
</defs>
</svg>
