<svg width="190" height="97" viewBox="0 0 190 97" fill="none" xmlns="http://www.w3.org/2000/svg">
<path d="M189.087 74.1762C126.067 74.1762 63.0471 74.1762 0.0270125 74.1762C0.0270125 74.0141 0 73.8791 0 73.717C0.0270125 49.2977 0.0270125 24.8785 0.0270125 0.459212C0.0270125 0.297137 0.0540249 0.162075 0.0540249 0C63.0741 0 126.094 0 189.114 0C189.114 0.162075 189.141 0.32415 189.141 0.486224C189.141 24.8785 189.141 49.2707 189.141 73.69C189.114 73.8521 189.114 74.0141 189.087 74.1762ZM94.5706 5.53755C65.1541 5.53755 35.7375 5.53755 6.2939 5.53755C5.67262 5.53755 5.67262 5.53755 5.67262 6.15884C5.67262 26.7694 5.67262 47.3799 5.67262 67.9904C5.67262 68.6116 5.67262 68.6116 6.2939 68.6116C65.127 68.6116 123.987 68.6116 182.82 68.6116C183.442 68.6116 183.442 68.6116 183.442 67.9904C183.442 47.3799 183.442 26.7694 183.442 6.15884C183.442 5.53755 183.442 5.53755 182.793 5.53755C153.404 5.53755 123.987 5.53755 94.5706 5.53755Z" fill="white"/>
<path d="M17.5311 36.8449C17.5311 30.3349 17.5311 23.8249 17.5311 17.3419C17.5311 16.8017 17.5311 16.7747 18.0713 16.7747C19.584 16.7747 21.0967 16.7747 22.6094 16.7747C23.1767 16.7747 23.2037 16.7747 23.2037 17.3419C23.2037 21.6639 23.2037 26.0129 23.2037 30.3349C23.2037 30.497 23.1226 30.7131 23.2847 30.7941C23.4198 30.8482 23.5278 30.6591 23.6359 30.551C25.8779 28.6872 28.4711 27.6067 31.3885 27.3906C38.6008 26.7963 45.3809 31.5775 47.1097 38.8168C49.0816 47.1097 43.8412 55.2944 35.4403 56.9422C31.1724 57.7796 27.2826 56.9152 23.852 54.2139C23.7439 54.1329 23.6359 54.0248 23.5278 53.9438C23.4468 53.8898 23.3658 53.7547 23.2577 53.7817C23.1497 53.8358 23.2037 53.9708 23.2037 54.0789C23.2037 54.8082 23.2037 55.5375 23.2037 56.2399C23.2037 56.3479 23.2037 56.429 23.2037 56.537C23.2037 56.7531 23.1226 56.8611 22.8795 56.8611C21.2048 56.8611 19.53 56.8611 17.8552 56.8611C17.6121 56.8611 17.5311 56.7801 17.5311 56.537C17.5311 55.8347 17.5311 55.1053 17.5311 54.403C17.5311 48.5683 17.5311 42.7066 17.5311 36.8449ZM41.7883 42.3284C41.7883 37.1691 37.6554 32.9011 32.577 32.9011C27.3096 32.9011 23.2577 37.088 23.1497 42.1123C23.0416 47.1637 26.9584 51.7018 32.496 51.7018C38.0335 51.7018 41.8153 47.1097 41.7883 42.3284Z" fill="white"/>
<path d="M75.2838 30.8752C75.3649 30.7942 75.3108 30.6591 75.3108 30.5781C75.3108 29.7407 75.3108 28.9033 75.3108 28.093C75.3108 27.8498 75.3919 27.7418 75.635 27.7418C77.3098 27.7418 78.9575 27.7418 80.6323 27.7418C80.8754 27.7418 80.9835 27.8498 80.9835 28.093C80.9835 28.201 80.9835 28.3091 80.9835 28.4171C80.9835 37.6824 80.9835 46.9477 80.9835 56.2129C80.9835 57.0503 80.9835 56.8882 80.3081 56.8882C78.7954 56.8882 77.2557 56.8882 75.743 56.8882C75.4189 56.8882 75.3108 56.8072 75.3108 56.456C75.3379 55.5376 75.3108 54.6462 75.3108 53.7548C75.1758 53.7278 75.1217 53.8088 75.0677 53.8628C72.9067 55.7267 70.4216 56.8342 67.5853 57.1314C59.9407 57.9958 52.9175 52.9714 51.2968 45.435C49.8921 38.8979 52.9445 32.2529 58.9143 29.0654C61.3184 27.7958 63.8846 27.2015 66.5858 27.3096C69.7193 27.4447 72.5285 28.5522 74.9327 30.6051C75.0137 30.6862 75.1217 30.7672 75.2028 30.8212C75.2298 30.8752 75.2568 30.8752 75.2838 30.8752ZM75.3378 42.3285C75.3919 37.3582 71.394 32.9282 66.0185 32.9012C60.8862 32.8742 56.7263 37.1151 56.6992 42.3015C56.6722 47.1097 60.427 51.6748 65.9645 51.7018C71.5561 51.7018 75.3919 47.1638 75.3378 42.3285Z" fill="white"/>
<path d="M88.5469 36.8179C88.5469 30.3349 88.5469 23.8249 88.5469 17.3419C88.5469 16.8017 88.5469 16.7747 89.1142 16.7747C90.6539 16.7747 92.1936 16.7747 93.7603 16.7747C94.2465 16.7747 94.2465 16.8017 94.2465 17.2609C94.2465 23.7439 94.2465 30.1999 94.2465 36.6828C94.2465 37.2501 94.2465 37.2501 94.7868 37.2501C96.2184 37.2501 97.6501 37.2501 99.1088 37.2501C103.512 37.2501 107.05 34.3328 107.888 30.0108C108.023 29.3895 108.104 28.7412 108.104 28.1199C108.104 27.8498 108.212 27.7147 108.509 27.7147C110.13 27.7147 111.778 27.7147 113.398 27.7147C113.696 27.7147 113.777 27.8228 113.777 28.1199C113.696 30.443 113.047 32.604 111.94 34.6299C110.724 36.8179 109.157 38.6548 106.942 39.8973C106.618 40.0864 106.888 40.1404 106.996 40.1945C108.806 41.1939 110.292 42.5175 111.453 44.2193C112.75 46.1102 113.506 48.1902 113.695 50.4592C113.858 52.4851 113.723 54.5381 113.777 56.591C113.777 56.8071 113.695 56.8882 113.479 56.8882C111.805 56.8882 110.13 56.8882 108.455 56.8882C108.131 56.8882 108.104 56.6991 108.104 56.483C108.104 55.0243 108.104 53.5386 108.104 52.08C108.104 50.9995 107.996 49.946 107.672 48.9195C106.645 45.597 104.349 43.6791 100.973 43.0308C100.216 42.8687 99.4329 42.8417 98.6496 42.8417C97.353 42.8417 96.0564 42.8417 94.7598 42.8417C94.2465 42.8417 94.2465 42.8417 94.2465 43.3549C94.2465 47.6769 94.2465 51.9719 94.2465 56.2939C94.2465 56.9152 94.2465 56.9152 93.6252 56.9152C92.1125 56.9152 90.5728 56.9152 89.0601 56.9152C88.5739 56.9152 88.5739 56.9152 88.5739 56.429C88.5469 49.8649 88.5469 43.3549 88.5469 36.8179Z" fill="white"/>
<path d="M120.638 36.8449C120.638 30.3349 120.638 23.8249 120.638 17.3419C120.638 16.7747 120.638 16.7747 121.178 16.7747C122.691 16.7747 124.23 16.7747 125.743 16.7747C126.283 16.7747 126.283 16.7747 126.283 17.3419C126.283 23.7709 126.283 30.1999 126.283 36.6288C126.283 37.2501 126.283 37.2501 126.905 37.2501C128.309 37.2501 129.687 37.2501 131.091 37.2501C135.576 37.2501 139.114 34.3057 139.952 29.9027C140.06 29.3084 140.141 28.7142 140.141 28.0929C140.141 27.8228 140.249 27.7147 140.519 27.7147C142.167 27.7147 143.814 27.7147 145.435 27.7147C145.759 27.7147 145.813 27.8498 145.813 28.1199C145.732 30.0648 145.273 31.9286 144.436 33.6845C143.409 35.8725 141.977 37.7633 140.033 39.222C139.708 39.4651 139.384 39.6812 139.033 39.8703C138.79 40.0054 138.817 40.0594 139.033 40.1945C140.465 40.9778 141.707 41.9773 142.761 43.2199C144.436 45.1918 145.381 47.4878 145.705 50.054C145.894 51.5397 145.786 53.0254 145.813 54.5111C145.813 55.1864 145.813 55.8617 145.813 56.51C145.813 56.7531 145.732 56.8612 145.489 56.8612C143.814 56.8612 142.167 56.8612 140.492 56.8612C140.195 56.8612 140.141 56.7261 140.141 56.456C140.141 54.7812 140.195 53.1334 140.114 51.4587C139.952 48.1631 138.655 45.4889 135.63 43.8682C134.468 43.2469 133.198 42.9227 131.875 42.8417C130.119 42.7336 128.39 42.8147 126.634 42.7877C126.256 42.7877 126.283 43.0038 126.283 43.2469C126.283 46.3263 126.283 49.3787 126.283 52.4581C126.283 53.7817 126.283 55.1053 126.283 56.4019C126.283 56.8341 126.256 56.8612 125.824 56.8612C124.23 56.8612 122.637 56.8612 121.07 56.8612C120.638 56.8612 120.611 56.8612 120.611 56.4019C120.638 49.919 120.638 43.3819 120.638 36.8449Z" fill="white"/>
<path d="M161.778 27.6878C161.913 27.7688 162.048 27.7418 162.183 27.7418C165.154 27.7418 168.153 27.7418 171.124 27.7418C171.61 27.7418 171.61 27.7418 171.61 28.228C171.61 29.7677 171.61 31.3074 171.61 32.8201C171.61 33.3064 171.61 33.3064 171.124 33.3064C168.504 33.3064 165.911 33.3064 163.29 33.3064C162.804 33.3064 162.804 33.3064 162.804 33.7926C162.804 37.7634 162.804 41.7342 162.804 45.7051C162.804 46.5695 162.885 47.4609 163.209 48.2713C163.831 49.973 165.1 50.8915 166.856 51.1886C168.099 51.4047 169.368 51.2966 170.611 51.3237C171.259 51.3507 171.232 51.2426 171.232 51.945C171.232 53.4576 171.232 54.9703 171.232 56.483C171.232 56.8072 171.124 56.9152 170.8 56.9152C169.665 56.8882 168.531 56.9423 167.396 56.8882C164.938 56.8072 162.642 56.2129 160.697 54.6192C158.887 53.1335 157.888 51.1886 157.429 48.9196C157.24 47.9741 157.159 47.0287 157.159 46.0562C157.159 41.9503 157.159 37.8715 157.159 33.7656C157.159 33.2793 157.159 33.2793 156.672 33.2793C154.754 33.2793 152.837 33.2793 150.919 33.2793C150.432 33.2793 150.432 33.2793 150.432 32.7931C150.432 31.2804 150.432 29.7407 150.432 28.228C150.432 27.7418 150.432 27.7148 150.946 27.7418C151.945 27.7688 152.945 27.7418 153.89 27.4446C156.402 26.6883 157.861 24.9595 158.32 22.3933C158.509 21.3128 158.428 20.2053 158.455 19.0978C158.455 18.6386 158.455 18.6116 158.914 18.6116C160.481 18.6116 162.048 18.6116 163.614 18.6116C164.074 18.6116 164.074 18.6116 164.074 19.0708C164.074 19.9352 164.101 20.8266 164.074 21.691C164.02 23.933 163.371 25.9319 161.832 27.6067C161.832 27.6067 161.832 27.6337 161.778 27.6878Z" fill="white"/>
<path d="M58.2814 46.6152C58.3166 46.6152 58.3386 46.6328 58.3474 46.6679L58.6246 46.6152H59.179C59.9621 46.6152 60.6749 46.7295 61.3172 46.958C61.3348 47.213 61.1017 47.38 60.6177 47.4591C60.2833 47.7228 60.1073 47.8943 60.0897 47.9734L60.1029 48.0261C60.8597 48.0789 61.2424 48.136 61.2512 48.1976L61.3568 48.1448L61.5812 48.1976L61.8716 48.1448C61.986 48.2327 62.3644 48.325 63.0067 48.4217L63.3499 48.369C63.3587 48.5008 63.9923 48.6327 65.2506 48.7646L65.3826 48.9228L65.3958 49.0415C65.4046 49.1997 65.1538 49.3492 64.6434 49.4898L64.6302 49.4371C63.6975 49.9645 63.0771 50.2282 62.7692 50.2282C62.426 50.1491 62.2192 50.1096 62.1488 50.1096C62.0256 50.3733 61.942 50.5052 61.898 50.5052H61.6736L61.2776 50.4524V50.5052L61.1589 50.4524H61.1061L61.1721 50.5579C61.0753 50.5579 61.0313 50.6546 61.0401 50.848C61.1897 50.848 61.2644 50.8656 61.2644 50.9007L61.7528 50.7953L61.8848 50.848C61.9376 50.8128 62.008 50.7953 62.096 50.7953L62.2148 50.848C62.206 50.8128 62.2236 50.7953 62.2676 50.7953C62.2764 50.8304 62.2984 50.848 62.3336 50.848L62.3204 50.7953L62.8351 50.9007L63.5083 50.7953L63.5215 50.848L63.6139 50.7953C63.7019 50.8304 63.7635 50.848 63.7987 50.848L63.7855 50.7953C64.3927 50.7953 64.7094 50.9447 64.7358 51.2436L64.2475 51.5205V51.4678C64.1331 51.5029 64.0759 51.5381 64.0759 51.5732C64.0407 51.5732 64.0231 51.5557 64.0231 51.5205C63.9615 51.5205 63.7591 51.5776 63.4159 51.6919V51.6392C63.0639 51.7271 62.8044 51.8018 62.6372 51.8633C62.6372 51.8282 62.6196 51.8106 62.5844 51.8106C62.2852 52.0567 61.92 52.2238 61.4888 52.3117C61.2424 52.5666 60.4681 52.9622 59.1658 53.4984L59.179 53.5512C59.1966 53.6303 59.2362 53.6699 59.2978 53.6699H59.6937C59.8785 53.6699 59.9709 53.6303 59.9709 53.5512C60.1469 53.6215 60.2481 53.6962 60.2745 53.7754L60.2877 53.894C60.3141 54.1929 60.1425 54.3819 59.7729 54.461L59.7597 54.3951L59.377 54.5138V54.461C59.3154 54.461 58.8226 54.7028 57.8987 55.1863H57.6743C57.4543 55.1863 57.2607 55.1291 57.0935 55.0149H56.9879C56.8119 55.6566 56.5215 55.9775 56.1168 55.9775C55.228 56.3291 54.4889 56.7247 53.8993 57.1642C53.7761 57.1642 53.5693 57.3884 53.2789 57.8367C53.2349 57.8367 53.0546 57.9115 52.7378 58.0609V58.0082C52.465 58.184 51.9898 58.562 51.3123 59.1422H51.0879C51.0087 59.1422 50.9647 59.1026 50.9559 59.0235L50.9427 58.9708C51.3123 58.4081 51.7038 57.8807 52.1174 57.3884L52.619 56.5972C50.9911 57.617 49.7812 58.4433 48.9892 59.0762C48.6284 59.7707 48.0697 60.2806 47.3129 60.6059L47.3261 60.6586C47.3261 60.7025 47.3437 60.7245 47.3789 60.7245C47.4141 61.1289 46.9873 61.4278 46.0986 61.6212C45.3242 62.1574 44.7347 62.6849 44.3299 63.2035C43.8635 63.5816 43.5775 63.9947 43.4719 64.4431C43.252 64.6189 43.1068 64.8826 43.0364 65.2342C42.9748 65.2342 42.922 65.2914 42.878 65.4057C42.8956 65.476 42.9352 65.5111 42.9968 65.5111H43.1156C43.4323 65.5111 44.3783 65.1903 45.9534 64.5485C46.543 64.3639 47.3173 64.1574 48.2764 63.9288L48.2896 63.9947C48.7912 63.9068 49.1784 63.8101 49.4512 63.7046V63.7706C50.4367 63.5068 51.9326 63.1684 53.9389 62.7552C53.9301 62.7113 53.9477 62.6893 53.9917 62.6893L54.0049 62.7552C54.6209 62.5618 55.3204 62.408 56.1036 62.2937L56.0904 62.2409C55.976 62.2409 55.822 62.2058 55.6284 62.1355C55.5932 62.1355 55.58 62.153 55.5888 62.1882C55.3688 62.153 55.2148 62.1355 55.1268 62.1355C54.8188 62.1355 54.5021 62.1706 54.1765 62.2409V62.1882C52.8302 62.3377 51.7522 62.5047 50.9427 62.6893V62.6365C50.3443 62.8651 49.8823 62.9794 49.5568 62.9794L49.4776 62.8607V62.808C49.4688 62.6937 50.7535 62.2981 53.3317 61.6212V61.6739L55.3776 61.1201V61.1729C56.4951 60.874 57.3267 60.685 57.8723 60.6059V60.5531L57.9778 60.6059C58.0482 60.6059 58.1626 60.5663 58.321 60.4872V60.5531C58.4706 60.4828 58.7126 60.4256 59.047 60.3817V60.4344L62.4524 59.9333V59.9861L62.558 59.9333H63.5743L63.9043 59.8674C63.9747 59.9026 64.2431 59.9421 64.7094 59.9861C64.859 59.9509 64.991 59.9333 65.1054 59.9333C65.1406 59.9333 65.1582 59.9509 65.1582 59.9861L65.4354 59.9333H65.7786L66.0558 59.9861V59.9333L66.6365 60.1048V60.0388C67.3669 60.1971 67.864 60.3289 68.128 60.4344V60.3817C68.9728 60.6102 69.7075 61.0234 70.3323 61.6212C70.7899 62.4124 71.0978 62.9003 71.2562 63.0849C71.3794 63.3486 71.5466 63.5772 71.7578 63.7706C71.9074 64.1134 72.0042 64.5442 72.0482 65.0628V65.1156C72.057 65.2035 72.0438 65.2782 72.0086 65.3397C72.0614 65.4188 72.0878 65.476 72.0878 65.5111C72.0438 65.5111 72.0218 65.5287 72.0218 65.5639H72.0878C71.859 66.9616 71.6346 67.6605 71.4146 67.6605C71.4234 67.7572 71.2254 68.0561 70.8207 68.5572C70.7943 68.733 70.4775 69.2033 69.8703 69.9681L69.7251 70.1923C69.7427 70.4121 69.5095 70.7505 69.0256 71.2076C68.4272 71.7351 68.1324 72.0735 68.1412 72.223C67.6749 72.7504 67.4417 73.0361 67.4417 73.0801C66.8257 73.9416 66.2273 74.6536 65.6466 75.2163C65.6554 75.2778 65.5674 75.3701 65.3826 75.4932C65.0746 75.8096 64.6522 76.1305 64.1155 76.4558C63.4995 77.0096 63.0067 77.3876 62.6372 77.5898C62.6372 77.5458 62.6196 77.5239 62.5844 77.5239C62.0916 77.9546 61.6472 78.2755 61.2512 78.4865C61.2512 78.5304 61.1237 78.6051 60.8685 78.7106C60.7981 78.6755 60.7233 78.6579 60.6441 78.6579L60.6309 78.5392C61.5724 77.8887 62.3116 77.3261 62.8483 76.8514C64.1859 75.4448 64.925 74.6361 65.0658 74.4251C65.7346 73.8625 66.2097 73.2823 66.4913 72.6845H66.4385C65.3826 73.4845 64.8546 73.9152 64.8546 73.9767C64.5642 74.3635 64.1771 74.6449 63.6931 74.8207C63.0243 75.4184 62.2104 75.9811 61.2512 76.5085C60.8817 76.9129 60.4549 77.2162 59.9709 77.4184C59.9797 77.5063 59.6981 77.7876 59.1262 78.2623C58.651 78.5084 58.0394 78.9787 57.2915 79.6732L56.2224 80.4117C56.0552 80.649 55.778 80.8908 55.3908 81.1369V81.2028L56.9615 80.4644C57.1199 80.4117 57.6567 80.1303 58.5718 79.6205C58.7214 79.6205 58.7962 79.6029 58.7962 79.5677C58.9194 79.6029 59.003 79.6776 59.047 79.7919C58.5366 80.1875 57.5731 80.8248 56.1564 81.7039C56.1564 81.6687 56.1388 81.6512 56.1036 81.6512C56.0332 81.827 55.4744 82.1478 54.4273 82.6138C53.8465 82.9918 52.7202 83.6115 51.0483 84.473C51.0395 84.4291 51.0175 84.4071 50.9823 84.4071C49.9703 85.1543 49.0904 85.6642 48.3424 85.9367L48.2104 85.7653C48.2368 85.6862 48.6988 85.3301 49.5964 84.6972L50.0187 84.3016H49.9659C49.8867 84.3016 49.6316 84.4159 49.2004 84.6445L48.6196 84.473H48.3292C47.7397 84.5258 47.3393 84.6928 47.1281 84.9741C46.9081 85.3345 46.3802 85.7301 45.5442 86.1609C45.3242 86.3982 44.6071 86.8114 43.3927 87.4004L41.7956 88.5872L41.6901 88.5344C41.3821 88.6311 40.8761 88.8948 40.1721 89.3256C39.5122 89.6772 38.6762 90.0332 37.6643 90.3937C37.2243 90.5783 36.0716 90.9519 34.2061 91.5145C34.2149 91.5585 34.2017 91.5804 34.1665 91.5804C34.1577 91.5365 34.1313 91.5145 34.0873 91.5145C34.0961 91.62 33.7749 91.7914 33.1238 92.0288L33.005 91.976L32.8994 92.0288C32.8026 92.0112 32.719 91.9189 32.6486 91.7519L35.0113 90.3937C35.4248 90.042 36.12 89.5893 37.0967 89.0355C37.1319 89.0355 37.1671 88.9783 37.2023 88.8641L37.4795 88.93C37.5147 88.93 37.5323 88.908 37.5323 88.8641C37.6115 88.908 37.7875 88.9476 38.0603 88.9827C38.4387 88.9827 38.6058 88.7762 38.5618 88.363C38.9314 88.2839 39.1074 88.1344 39.0898 87.9146L39.0238 87.796L39.0106 87.7432C39.0106 87.7081 39.0282 87.6905 39.0634 87.6905L38.9974 87.5718V87.5191C39.9302 87.1147 40.9157 86.5477 41.954 85.818C42.0948 85.818 42.24 85.7257 42.3896 85.5411L42.3764 85.4884L41.1885 85.9895L41.1753 85.9367C40.9641 85.9367 40.2733 86.2356 39.103 86.8334C39.0062 86.9389 38.6806 87.0531 38.1263 87.1762C37.9327 87.3345 37.3123 87.5586 36.2652 87.8487C36.1948 87.9015 36.1596 87.9586 36.1596 88.0201L36.0408 87.9674C35.8472 87.9674 35.0245 88.2311 33.5725 88.7586L33.4538 88.8113V88.7586C32.7762 88.9871 31.9402 89.308 30.9459 89.7212H30.7083L30.6951 89.5498C30.7215 89.4706 31.4915 89.0179 33.005 88.1916C33.1722 88.1388 33.423 87.9894 33.7573 87.7432C33.7661 87.7784 33.7925 87.796 33.8365 87.796L35.3808 86.7806V86.7279C34.1577 87.3257 32.345 87.963 29.9428 88.6399C29.3356 88.8685 27.9761 89.264 25.8642 89.8267C25.0283 90.1695 24.1219 90.4904 23.1452 90.7893L23 90.6178V90.5651C23 90.5211 23.594 90.2003 24.7819 89.6025C26.3218 88.7762 27.4437 88.2707 28.1477 88.0861C28.1389 87.9894 28.4821 87.8004 29.1772 87.5191V87.5718C29.6964 87.5279 30.044 87.4355 30.22 87.2949C30.2112 87.1806 30.1584 87.0268 30.0616 86.8334L30.7215 86.5037C30.7919 86.5389 30.8491 86.5565 30.8931 86.5565C31.5883 86.3103 31.9227 86.029 31.8963 85.7125L31.8831 85.5939C31.7951 85.5939 31.1967 85.8224 30.088 86.2796L29.4148 86.4378C29.406 86.4026 29.384 86.385 29.3488 86.385C29.2432 86.5257 28.922 86.7147 28.3853 86.9521C28.2357 86.8993 28.1565 86.8422 28.1477 86.7806L28.1345 86.6751C29.6304 85.8048 31.2495 84.917 32.9918 84.0115C32.9918 84.0555 33.0094 84.0774 33.0446 84.0774C33.0798 83.9895 33.7485 83.6291 35.0509 82.9962C35.2972 82.8116 36.1904 82.2489 37.7303 81.3083H37.8887C37.9679 81.3171 38.0075 81.3567 38.0075 81.427L38.0207 81.4797C37.9063 81.4797 37.2947 82.0424 36.186 83.1676V83.2335H36.2388C36.2564 83.1808 36.9075 82.8423 38.1923 82.2182C39.301 81.6643 40.3613 81.0622 41.3733 80.4117C42.438 79.8402 43.2784 79.348 43.8943 78.9348H43.9471L43.9339 78.7766C42.4116 79.3743 41.6109 79.6732 41.5317 79.6732C41.5317 79.7084 41.4789 79.7479 41.3733 79.7919C41.3645 79.7479 41.3425 79.726 41.3073 79.726C41.3161 79.8139 40.8277 80.0424 39.8422 80.4117H39.7894C39.719 80.4117 39.6794 80.3721 39.6706 80.293V80.2402C39.6882 80.1172 40.0578 79.893 40.7793 79.5677C40.9817 79.3831 41.3601 79.1546 41.9144 78.882C43.1376 78.0733 44.0703 77.5283 44.7127 77.2469C45.1526 76.9656 45.5574 76.6843 45.927 76.403C46.2878 76.403 47.7661 75.4624 50.3619 73.5812C50.3619 73.5372 50.6127 73.3482 51.1143 73.0141C51.2639 73.0757 51.3431 73.1328 51.3519 73.1856C51.3607 73.2647 50.9955 73.6427 50.2563 74.3196L48.3424 76.2316H48.4612C48.514 76.2316 49.1036 75.8756 50.2299 75.1635C50.9691 74.6712 51.3783 74.4251 51.4574 74.4251C51.7126 74.5394 51.9458 74.5965 52.157 74.5965C52.6762 74.5965 52.9182 74.3723 52.883 73.924C53.1821 73.8361 53.3317 73.779 53.3317 73.7526C53.6925 73.8669 53.9037 73.924 53.9653 73.924H54.5329L54.4933 73.5812C54.5549 73.4845 54.5857 73.4273 54.5857 73.4097H54.5329L54.6121 73.0141H54.5593C54.5329 72.768 54.6825 72.5263 55.008 72.2889C56.0728 71.5065 57.0363 70.9043 57.8987 70.4824C59.2274 69.533 59.9225 68.8737 59.9841 68.5044C60.0017 68.3814 60.0061 68.2495 59.9973 68.1088C59.8125 68.0737 59.7157 68.0341 59.7069 67.9902C57.6391 68.5792 55.9628 69.2385 54.6781 69.9681C54.0533 70.3725 53.1909 70.7857 52.091 71.2076C51.4047 71.612 50.1859 72.1219 48.4348 72.7372L48.4216 72.6845L48.316 72.7372C48.2456 72.7372 48.206 72.6801 48.1973 72.5658C48.1884 72.4691 48.47 72.2625 49.042 71.9461C50.0627 71.2955 50.9251 70.6186 51.629 69.9154H51.5102C49.9879 70.6978 48.5052 71.3571 47.0621 71.8933C47.0709 71.9548 46.3978 72.2537 45.0426 72.79C42.702 73.502 41.1137 73.8581 40.2777 73.8581C38.6058 73.8581 37.3299 73.2383 36.45 71.9988H36.516C36.3664 71.8054 36.186 71.5065 35.9748 71.1021H35.922L35.9352 71.2736C35.9704 71.2736 35.988 71.2911 35.988 71.3263H35.9352C36.1024 71.9241 36.362 72.4867 36.714 73.0141C36.7932 73.0141 36.8415 73.1108 36.8591 73.3042V73.4097L36.582 73.4625C35.614 72.7328 34.8705 71.5681 34.3513 69.9681L34.3117 69.467L34.2457 69.3484H34.2985C34.2105 69.1813 34.1533 68.9396 34.1269 68.6231C34.0213 67.4276 34.0565 66.5617 34.2325 66.0254C34.2325 65.9815 34.2149 65.9595 34.1797 65.9595L34.3777 65.0628H34.3249L35.658 61.5684C36.3796 60.3114 36.9779 59.4059 37.4531 58.8521C37.4443 58.7642 37.6951 58.4081 38.2055 57.784C38.4342 57.573 38.751 57.1598 39.1558 56.5445C39.235 56.5445 39.7366 56.0346 40.6605 55.0149L41.0433 54.7907C41.1225 54.8347 41.1797 54.8566 41.2149 54.8566L41.2281 55.0149L40.2249 56.3203C39.741 57.1027 39.3802 57.762 39.1426 58.2983C39.2306 58.2983 39.4946 58.0345 39.9346 57.5071C41.2545 56.1621 42.702 54.8434 44.2771 53.5512C45.3066 52.6457 46.4946 51.8589 47.8409 51.1908C48.7296 50.5667 49.3412 50.2458 49.6756 50.2282C49.6756 50.1491 49.636 50.1096 49.5568 50.1096C48.1225 50.4876 46.5562 51.1073 44.8579 51.9688C44.0835 52.7248 43.5951 53.1029 43.3927 53.1029C43.3399 53.0325 43.3092 52.9754 43.3004 52.9314C43.3355 52.782 43.7183 52.426 44.4487 51.8633C47.7925 49.7272 49.7548 48.6547 50.3355 48.6459C52.0338 47.7844 53.1777 47.3536 53.7673 47.3536C54.2513 47.1427 55.2324 46.9361 56.7107 46.7339C56.7459 46.7339 56.7679 46.7515 56.7767 46.7866C57.1023 46.7075 57.5511 46.6679 58.123 46.6679H58.2418C58.277 46.6679 58.2902 46.6504 58.2814 46.6152ZM66.9797 48.4745C67.5165 48.58 67.7936 48.7514 67.8112 48.9887L67.8376 49.2129L67.5737 49.4898C66.8081 49.3492 66.4209 49.1997 66.4121 49.0415L66.3857 48.8701C66.5529 48.6063 66.7509 48.4745 66.9797 48.4745Z" fill="url(#paint0_linear)"/>
<path d="M96.9946 42.1978H99.2121C99.9073 42.1978 100.404 42.2505 100.704 42.356V42.3033C101.689 42.3736 102.758 42.5318 103.911 42.778L104.017 42.7252C104.219 42.7252 104.43 42.7604 104.65 42.8307V42.778C105.733 43.0241 106.489 43.2175 106.92 43.3582C107.712 43.6834 108.518 44.2461 109.336 45.046C110.216 45.846 110.669 46.3735 110.695 46.6284C110.845 46.7163 110.999 47.1031 111.157 47.7888H111.105C111.184 47.9822 111.276 48.4041 111.382 49.0547H111.329C111.329 49.0898 111.347 49.1074 111.382 49.1074C111.47 50.092 111.307 51.2348 110.893 52.5358C110.841 52.5358 110.599 52.9754 110.167 53.8545C109.807 54.4698 109.49 54.8742 109.217 55.0676C109.059 55.2874 108.509 55.6742 107.567 56.228C107.576 56.3247 107.312 56.5357 106.775 56.8609C106.238 57.3357 104.703 58.4609 102.169 60.2366C100.33 61.2915 98.6929 62.3113 97.2586 63.2959C96.6163 63.7266 95.8947 64.131 95.094 64.509C95.1028 64.5881 94.9048 64.7112 94.5 64.8782C93.9984 65.2211 93.3033 65.5375 92.4145 65.8276C91.253 66.3902 90.2015 66.8649 89.2599 67.2517C88.5032 67.5858 87.7112 67.9726 86.8841 68.4121C86.6377 68.4385 86.5189 68.4912 86.5277 68.5704C86.4837 68.5352 86.3605 68.5176 86.1581 68.5176C86.1933 68.4649 86.9017 68.1132 88.2832 67.4627L88.2172 67.3572C89.7835 66.4078 90.9758 65.7573 91.7942 65.4057C91.7942 65.3441 91.9482 65.2738 92.2561 65.1947L92.2957 65.0892H92.2429L88.0192 66.8298L84.6006 68.3066C84.4686 68.3066 83.5491 68.6583 81.842 69.3615V69.3088C81.622 69.4143 81.0588 69.6253 80.1525 69.9417L80.1657 69.9945H80.2185C80.5089 69.9593 80.7508 69.9417 80.9444 69.9417H81.05L81.1556 69.889V69.9417L81.2612 69.889H81.4196C81.4548 69.889 81.4724 69.9066 81.4724 69.9417L81.578 69.889C82.062 69.889 82.5855 69.8187 83.1487 69.678V69.7308C83.2895 69.7044 83.3555 69.6692 83.3467 69.6253C83.3819 69.6253 83.4039 69.6429 83.4127 69.678L83.7691 69.6253H83.8747C83.9275 69.6253 83.989 69.6956 84.0594 69.8363C83.1179 70.223 82.0884 70.5571 80.9708 70.8384L80.3637 71.1021V71.0494C78.1902 71.8933 75.4932 72.8427 72.2726 73.8976C72.2022 74.0031 72.0834 74.0559 71.9162 74.0559L71.8898 73.8449C71.3882 73.8449 71.0406 74.091 70.8471 74.5833C70.7767 74.5833 70.7019 74.7416 70.6227 75.058C70.3587 75.4184 70.1827 75.7877 70.0947 76.1657C69.9099 76.403 69.6811 76.825 69.4083 77.4316C68.6164 78.4777 67.9608 79.6205 67.4417 80.86C67.1601 80.9831 66.6805 81.9501 66.003 83.761C65.8974 83.7873 65.8182 83.9104 65.7654 84.1302C65.8006 84.1302 65.8226 84.1478 65.8314 84.1829L65.4222 84.9741H65.3694L65.9898 82.4423C66.2801 81.6951 66.4737 81.0973 66.5705 80.649C66.5705 80.6051 66.6585 80.3941 66.8345 80.0161L66.8213 79.8051C65.9414 80.6578 65.5278 81.3786 65.5806 81.9676L65.1978 82.9698C65.1538 83.2159 65.0922 83.339 65.013 83.339L65.079 83.4445C64.9558 83.8313 64.8326 84.0247 64.7094 84.0247L64.7622 84.1302C64.3663 84.7631 64.0275 85.5016 63.7459 86.3455C63.4731 87.4971 63.2487 88.13 63.0727 88.2443H63.0199C62.9495 88.2443 62.9099 88.2091 62.9011 88.1388C62.8923 88.0333 63.1431 86.8905 63.6535 84.7104C63.6183 84.6488 63.5963 84.5785 63.5875 84.4994C63.6227 84.2533 63.6623 84.1302 63.7063 84.1302L63.6535 84.0247C63.6359 83.8401 63.7547 83.5939 64.0099 83.2863C63.9659 83.2159 63.9439 83.1632 63.9439 83.128C63.7415 83.128 63.5875 83.3918 63.4819 83.9192C63.5171 83.9192 63.5347 83.9368 63.5347 83.972C63.4731 83.972 63.3939 84.0774 63.2971 84.2884L62.1752 84.7104C62.4656 85.1763 62.6152 85.4752 62.624 85.6071L62.6372 85.7125C62.5404 86.2664 62.0916 87.163 61.2908 88.4025C61.2908 88.4729 61.1061 88.7893 60.7365 89.352C60.1557 90.4772 59.7245 91.3914 59.443 92.0947C59.179 92.6925 58.7874 93.4485 58.2682 94.3627C57.5555 96.0594 57.1243 96.9385 56.9747 97C56.8867 97 56.8251 96.9297 56.7899 96.789C56.9835 96.1209 57.4323 94.7847 58.1362 92.7804H58.0834C58.365 91.9892 58.5542 91.3563 58.651 90.8816C58.8974 90.5563 59.0822 90.064 59.2054 89.4047C59.3902 89.0619 59.6761 88.0949 60.0633 86.5037V86.451H60.0105C59.2362 87.6202 58.6114 88.7454 58.1362 89.8267C58.101 90.1783 58.0306 90.3541 57.9251 90.3541H57.8195C57.7491 90.3541 57.7095 90.3014 57.7007 90.1959C57.9031 89.3695 58.2022 88.5608 58.5982 87.7696C59.5925 85.062 60.0853 83.6906 60.0765 83.6555V83.6027H60.0237C60.0413 83.7786 59.8345 84.0423 59.4034 84.3939C59.0074 84.8422 58.695 85.4928 58.4662 86.3455C58.2902 86.6268 58.1802 86.7674 58.1362 86.7674C58.0834 86.7674 58.0262 86.7147 57.9646 86.6092L57.9515 86.451C58.1714 85.7301 58.5674 84.6225 59.1394 83.128C59.2362 82.6269 59.4958 81.9764 59.9181 81.1765C60.0149 81.1765 60.0897 80.8424 60.1425 80.1743C60.1337 80.104 60.3933 79.4534 60.9213 78.2227C60.9037 78.0469 61.1105 77.6074 61.5416 76.9041C61.6736 76.3679 61.8672 75.7349 62.1224 75.0053L62.0564 74.8998L62.03 74.6361C62.1004 74.6361 62.1356 74.6185 62.1356 74.5833C62.3556 74.6449 62.4744 74.7679 62.492 74.9525H62.5976C62.7736 74.9525 62.9363 74.4251 63.0859 73.3702V73.3174C62.5052 73.2295 62.0872 73.0889 61.832 72.8955C61.5152 72.9131 61.3612 72.9482 61.37 73.001C60.9389 72.9218 60.7145 72.7988 60.6969 72.6317L60.7365 72.5263H60.6837C60.6837 72.4471 60.9169 72.2889 61.3832 72.0515L61.436 71.9461L61.3172 71.8933H61.2116C61.1765 71.8933 61.1632 71.9109 61.1721 71.9461C60.5825 71.8318 60.2569 71.7614 60.1953 71.7351L60.1029 71.7878H60.0501C59.9709 71.7878 59.8961 71.7702 59.8257 71.7351C59.7729 71.7702 59.7069 71.7878 59.6277 71.7878H59.5222C59.487 71.7878 59.465 71.7702 59.4562 71.7351L59.3638 71.7878H58.6246L58.519 71.8406V71.7878L58.0966 71.8933C58.0614 71.8933 58.0438 71.8757 58.0438 71.8406C57.0407 71.8845 56.4819 71.9548 56.3675 72.0515C56.3148 72.0164 56.2092 71.9988 56.0508 71.9988C56.0332 71.7614 56.2136 71.6208 56.5919 71.5768C57.4719 71.3307 58.8754 71.0494 60.8025 70.7329L61.1984 70.5219L61.304 70.5747H61.3568C61.4272 70.5747 61.4624 70.5395 61.4624 70.4692C60.9521 70.434 60.5033 70.3637 60.1161 70.2582H60.0105C59.9137 70.2582 59.6937 70.3637 59.3506 70.5747C58.7258 70.3989 58.299 70.311 58.0702 70.311C58.0262 70.4516 57.6699 70.6274 57.0011 70.8384C56.6491 70.8032 56.4731 70.7681 56.4731 70.7329L56.3675 70.7857H54.4141C54.3789 70.7857 54.3613 70.7681 54.3613 70.7329L54.2557 70.7857H53.6749C53.5957 70.7857 53.5253 70.8032 53.4637 70.8384C53.4285 70.8384 53.4109 70.8208 53.4109 70.7857C53.0502 70.8296 52.8434 70.8648 52.7906 70.8912L52.7774 70.8384L52.685 70.8912H51.3651L51.3519 70.7329C51.3343 70.5923 51.8666 70.4868 52.949 70.4164C53.6969 70.2055 54.4405 70.0296 55.1796 69.889V69.9417C56.7107 69.6253 57.7975 69.3791 58.4398 69.2033C59.4342 68.8868 60.5385 68.6055 61.7528 68.3594C61.7528 68.3946 61.7704 68.4121 61.8056 68.4121L61.8452 68.3066H61.4756L61.1061 68.2539V68.3066L61.0005 68.2539H60.9477C60.9125 68.2539 60.8949 68.2715 60.8949 68.3066L60.7893 68.2539H59.6277C59.5925 68.2539 59.575 68.2363 59.575 68.2012C59.5398 68.2012 59.5222 68.2187 59.5222 68.2539L59.2582 68.2012C59.223 68.2012 59.2054 68.2187 59.2054 68.2539L59.0998 68.2012H58.7302L58.717 68.0429C58.7082 67.9462 59.1702 67.788 60.1029 67.5682C61.1325 67.2957 61.7484 67.1023 61.9508 66.988V67.0408C62.9715 66.8298 63.5743 66.6891 63.7591 66.6188L63.7723 66.6715L64.3399 66.5133V66.5661L64.9998 66.3551L65.013 66.4078L66.3989 65.9859L67.1909 64.2453C67.2877 64.1661 67.6353 63.4805 68.2336 62.1882C68.2776 62.1443 68.4052 61.7926 68.6164 61.1333C68.7836 60.9047 69.0432 60.2718 69.3951 59.2345C69.5887 59.2345 69.7779 58.9708 69.9627 58.4433C70.8867 58.1005 71.3222 57.6433 71.2694 57.0719L71.1638 57.0192L70.0815 57.3884V57.3357L69.9759 57.3884L69.8703 57.3357V57.3884C69.4831 57.3884 69.2808 57.2653 69.2632 57.0192L69.25 56.9137C69.2412 56.8082 69.6107 56.6324 70.3587 56.3862C70.4379 56.3247 70.7943 56.1489 71.4278 55.8588V55.9115C72.2198 55.4896 72.6861 55.1731 72.8269 54.9621H72.6157L72.299 55.0149L72.1934 54.9621L71.837 55.0676C71.7578 55.0324 71.7006 55.0149 71.6654 55.0149C71.6038 55.05 71.5554 55.0676 71.5202 55.0676C71.5114 55.0324 71.4894 55.0149 71.4542 55.0149C71.463 55.05 71.4498 55.0676 71.4146 55.0676L71.4014 55.0149L71.309 55.0676L70.9263 55.0149C70.9351 55.05 70.9219 55.0676 70.8867 55.0676L70.8735 55.0149C70.5655 55.05 70.4115 55.0852 70.4115 55.1204C70.3763 55.1204 70.3587 55.1028 70.3587 55.0676C68.4668 55.4192 67.5121 55.5951 67.4945 55.5951L67.4285 55.4896L67.4153 55.2786L68.8936 54.6456V54.6984L70.3323 54.2237V54.1709C70.3675 54.1709 70.3851 54.1885 70.3851 54.2237L70.4907 54.1709L70.5963 54.2237C70.5963 54.1534 70.6271 54.1182 70.6887 54.1182C70.6975 54.1534 70.7195 54.1709 70.7547 54.1709L70.7943 54.0655L70.8999 54.1182C71.2782 54.0215 71.4674 53.9336 71.4674 53.8545C71.4586 53.7929 71.2914 53.7402 70.9658 53.6962L70.979 53.749C70.8999 53.7138 70.7019 53.6787 70.3851 53.6435V53.6962L70.1211 53.5907V53.6435C70.0859 53.6435 70.0683 53.6259 70.0683 53.5907C69.7867 53.5907 69.3027 53.7138 68.6164 53.96C68.5196 53.96 68.414 53.9248 68.2996 53.8545L67.9828 53.9072L67.6133 53.8545C67.3229 54.1358 67.0853 54.2764 66.9005 54.2764C66.7685 54.2764 66.5309 54.1709 66.1877 53.96H66.0294C65.5014 54.5226 64.9646 54.8215 64.4191 54.8566C64.2695 54.8566 64.0979 54.8918 63.9043 54.9621C63.9043 54.927 63.8867 54.9094 63.8515 54.9094C63.8515 54.9445 63.8339 54.9621 63.7987 54.9621V54.9094C63.3499 55.05 62.5008 55.2434 61.2512 55.4896V55.4368C60.5473 55.6478 59.6497 55.8588 58.5586 56.0698C58.4442 56.1753 58.2726 56.228 58.0438 56.228H57.9383C57.9383 56.1928 57.9163 56.1401 57.8723 56.0698C57.8547 55.8236 59.0558 55.261 61.4756 54.3819C63.4027 53.5732 64.991 53.0281 66.2405 52.7468C66.3373 52.7468 66.8345 52.571 67.732 52.2194C69.184 51.9644 69.9011 51.7183 69.8835 51.4809C69.9187 51.4809 69.9319 51.4634 69.9231 51.4282C69.9231 51.3579 69.8879 51.3227 69.8175 51.3227H69.3424L69.2368 51.3755V51.3227C67.4945 51.4985 66.4121 51.6216 65.9898 51.6919H65.937V51.6392C65.7698 51.7095 65.651 51.7447 65.5806 51.7447C65.5014 51.7095 65.4442 51.6919 65.409 51.6919C65.4178 51.7271 65.4046 51.7447 65.3694 51.7447L65.2374 51.5337C65.299 51.4282 65.7126 51.3051 66.4781 51.1645C67.0501 50.9271 67.6133 50.7513 68.1676 50.637C68.2732 50.5403 68.7 50.3997 69.4479 50.2151C69.8879 49.9689 70.2135 49.8283 70.4247 49.7931L70.6887 49.8986V49.8458L70.7943 49.8986H70.8471C71.2958 49.4766 71.7534 49.2656 72.2198 49.2656C72.2198 49.2305 72.2374 49.2129 72.2726 49.2129C72.3078 49.2129 72.3254 49.2305 72.3254 49.2656C72.9853 49.125 73.3065 48.9843 73.2889 48.8437C73.0777 48.8085 72.9721 48.7734 72.9721 48.7382L72.8665 48.7909C72.8313 48.7909 72.8137 48.7734 72.8137 48.7382L72.5498 48.8437C72.5146 48.8437 72.497 48.8261 72.497 48.7909C71.837 48.9668 71.2298 49.0722 70.6755 49.1074C70.4555 49.0371 70.3455 48.9668 70.3455 48.8964L70.3323 48.8437C70.3763 48.6942 71.0054 48.4305 72.2198 48.0525C72.2198 48.0173 72.2374 47.9998 72.2726 47.9998V48.0525C72.4222 48.0086 72.5893 47.9206 72.7741 47.7888L72.7873 47.8415C73.1921 47.6393 73.8961 47.4635 74.8992 47.3141C75.3392 47.0328 76.0431 46.8394 77.0111 46.7339C78.0054 46.3822 79.8709 45.9427 82.6075 45.4152C82.8187 45.4152 83.8219 45.2394 85.6169 44.8878C85.6785 44.923 85.7665 44.9405 85.8809 44.9405L85.9073 45.2043C85.309 45.3273 84.5566 45.5911 83.6503 45.9954C83.5535 46.1185 83.1663 46.2768 82.4887 46.4702C82.1368 46.5581 81.9652 46.6284 81.974 46.6811H82.0268C82.9419 46.5053 84.0198 46.1713 85.2606 45.679L85.2738 45.7317C85.353 45.7317 86.3781 45.4152 88.3492 44.7823L88.3624 44.8351C89.3831 44.4131 91.4774 44.0087 94.6452 43.6219C94.6364 43.5516 94.5968 43.5164 94.5264 43.5164L94.4208 43.5692C94.4208 43.534 94.4032 43.5164 94.368 43.5164C94.368 43.5516 94.3504 43.5692 94.3152 43.5692C94.3152 43.534 94.2976 43.5164 94.2624 43.5164V43.5692C94.0424 43.4988 93.9016 43.4637 93.84 43.4637V43.5164L93.7345 43.4637H93.5233L93.2593 43.5164C93.2593 43.4813 93.2417 43.4637 93.2065 43.4637C93.2065 43.5428 92.8237 43.6131 92.0582 43.6747V43.6219C91.2222 43.7274 89.8891 43.9735 88.0588 44.3603C87.9796 44.3252 87.9224 44.3076 87.8872 44.3076L87.874 44.0966C89.1411 43.5692 90.4918 43.1472 91.9262 42.8307C94.3196 42.4088 96.0091 42.1978 96.9946 42.1978ZM97.5622 50.4788H97.2982C94.5352 50.6546 93.1581 50.7953 93.1669 50.9007C93.1053 50.8656 93.0349 50.848 92.9557 50.848C92.9557 50.9007 92.6257 50.9887 91.9658 51.1117C91.9306 51.1117 91.913 51.0941 91.913 51.059L90.1047 51.5337V51.4809C89.9287 51.5513 89.4975 51.6743 88.8111 51.8502C88.5384 51.9469 88.4064 52.0172 88.4152 52.0611H88.468C89.0223 51.9908 89.4359 51.9205 89.7087 51.8502L89.7219 51.9029C90.0475 51.8062 90.637 51.7359 91.4906 51.6919C91.6402 51.7447 91.715 51.7974 91.715 51.8502L91.7282 51.9556C91.5434 52.026 91.077 52.1139 90.3291 52.2194C89.7131 52.3952 88.9255 52.6589 87.9664 53.0105C87.9664 52.9754 87.9488 52.9578 87.9136 52.9578C87.8344 53.0457 87.5264 53.1864 86.9897 53.3798C85.1594 54.0127 83.8175 54.5402 82.9639 54.9621C82.4623 55.1291 82.194 55.305 82.1588 55.4896C81.6396 55.9907 81.2436 56.4829 80.9708 56.9664C80.8036 57.0543 80.7288 57.195 80.7464 57.3884V57.4411C80.9664 57.3005 81.2964 57.0192 81.7364 56.5972C82.5459 56.1753 82.9859 55.9643 83.0563 55.9643L83.1751 56.1225V56.1753C83.2015 56.4654 82.9815 56.7467 82.5151 57.0192C82.5151 57.0807 82.282 57.2741 81.8156 57.5994C81.8244 57.6433 81.5076 58.0125 80.8652 58.707C80.8652 58.7686 80.7068 58.9795 80.3901 59.34C80.1965 59.6916 79.9853 59.9026 79.7565 59.9729C79.6861 59.9377 79.6333 59.9202 79.5981 59.9202C79.5981 59.9553 79.5805 59.9729 79.5453 59.9729V59.9202L79.4397 59.9729H79.1757L79.1493 60.2366L79.1625 60.4476L79.2813 60.6059L79.2945 60.7641C79.1537 60.7641 78.8018 61.1509 78.2386 61.9245C78.0274 62.1443 77.5698 62.9354 76.8659 64.298H76.9187C77.9306 63.8057 79.0482 63.331 80.2713 62.8739C82.9903 61.608 85.045 60.7113 86.4353 60.1839L86.4221 60.1311H86.3693C85.463 60.263 84.825 60.4037 84.4554 60.5531C84.3234 60.6234 84.099 60.6762 83.7823 60.7113C83.7119 60.6762 83.6591 60.6586 83.6239 60.6586C83.6327 60.7465 83.2191 60.8872 82.3831 61.0806H82.2776L82.2116 60.8696C82.5723 60.6674 83.3555 60.3509 84.561 59.9202V59.9729C84.7018 59.9553 84.7678 59.9026 84.759 59.8147C84.7942 59.8147 84.8118 59.8323 84.8118 59.8674C85.1726 59.6916 85.8721 59.4279 86.9105 59.0762L89.1411 58.0213C90.7514 56.9928 91.7238 56.4126 92.0582 56.2807C94.2668 55.0852 95.7979 54.294 96.6515 53.9072L97.2982 53.538C97.307 53.5732 97.329 53.5907 97.3642 53.5907L98.407 52.9051C99.2781 52.2985 99.7445 51.7886 99.8061 51.3755C99.7709 50.9974 99.4101 50.7161 98.7237 50.5315C98.5829 50.5315 98.5126 50.4964 98.5126 50.426L98.2486 50.4788H98.143L97.8262 50.426C97.7558 50.4612 97.703 50.4788 97.6678 50.4788V50.426L97.5622 50.4788ZM65.6466 57.3357L65.7654 57.4939C65.8006 57.4939 65.849 57.4763 65.9106 57.4411C66.1129 57.4763 66.2757 57.4939 66.3989 57.4939C66.3989 57.5642 66.5133 57.6697 66.7421 57.8104L66.6365 57.8631H66.3725C66.3901 58.0301 66.0206 58.2235 65.2638 58.4433C65.2638 58.4081 65.2462 58.3906 65.211 58.3906V58.4433C64.7446 58.3114 64.507 58.2059 64.4982 58.1268C64.5774 57.6345 64.8018 57.3884 65.1714 57.3884C65.365 57.3532 65.5234 57.3357 65.6466 57.3357Z" fill="url(#paint1_linear)"/>
<path d="M133.57 42C133.746 42.0527 133.842 42.1758 133.86 42.3692L133.9 42.7384C133.9 42.7912 133.636 43.389 133.108 44.5318C132.958 45.9735 132.808 46.7119 132.659 46.7471C132.668 46.8174 132.536 47.0811 132.263 47.5382C132.201 47.6789 132.175 47.802 132.184 47.9075C132.324 48.2767 132.399 48.5052 132.408 48.5931L132.421 48.8569C132.439 49.0239 132.122 49.1997 131.471 49.3843C131.418 49.5601 131.392 49.6832 131.392 49.7535C131.401 49.8063 131.616 50.0173 132.038 50.3865C132.452 50.7645 132.668 51.0282 132.685 51.1777C132.685 51.2392 132.478 51.5029 132.065 51.9688C132.091 52.2238 131.955 52.8919 131.656 53.9731C131.682 54.2457 131.396 54.9841 130.798 56.1884C130.771 56.25 130.758 56.3203 130.758 56.3994C130.767 56.4698 130.934 56.7686 131.26 57.2961L131.273 57.3488C130.833 57.762 130.538 58.2367 130.389 58.773L130.164 59.1949C130.199 59.1949 130.217 59.2125 130.217 59.2477C130.103 59.2565 129.931 59.6784 129.702 60.5135L128.831 62.6761H128.884L129.201 62.6234H129.465L129.57 62.6761V62.6234L129.676 62.6761H129.94C130.063 62.6761 130.221 62.6937 130.415 62.7288C130.705 62.6234 130.912 62.5706 131.035 62.5706C131.229 62.6409 131.343 62.7288 131.379 62.8343C131.132 63.1948 130.697 63.4585 130.072 63.6255C130.019 63.775 129.997 63.898 130.006 63.9947C130.578 64.1002 130.873 64.276 130.89 64.5222C130.917 64.7771 130.653 64.9705 130.098 65.1024C130.116 65.2694 130.045 65.4452 129.887 65.6298C129.957 65.6298 129.993 65.6474 129.993 65.6826L130.098 65.6298H130.521C130.556 65.6298 130.573 65.6474 130.573 65.6826L130.679 65.6298H130.943C130.978 65.6298 130.996 65.6474 130.996 65.6826L131.101 65.6298C131.137 65.6298 131.154 65.6474 131.154 65.6826L131.26 65.6298H131.418C131.779 65.6298 132.505 65.7002 133.596 65.8408L133.609 65.9463C133.618 66.1045 133.174 66.2628 132.276 66.421C132.241 66.421 132.223 66.4034 132.223 66.3683C130.578 66.6496 129.438 66.9133 128.805 67.1594V67.2649C129.491 67.388 129.834 67.4759 129.834 67.5287L129.9 67.6341C129.759 67.9858 129.473 68.1616 129.042 68.1616L129.148 68.6363C129.077 68.8121 128.677 68.9 127.947 68.9C127.287 69.0143 126.961 69.0846 126.97 69.111L126.746 69.0055C126.684 69.0407 126.614 69.0583 126.534 69.0583L126.429 69.0055C125.848 69.1901 125.566 69.4011 125.584 69.6385L125.175 70.3769C125.061 70.6494 124.986 70.8076 124.951 70.8516C124.986 70.8516 125.008 70.8692 125.017 70.9043C124.849 70.9043 124.603 71.3439 124.277 72.223C124.066 72.6889 123.736 73.3042 123.287 74.069L123.076 74.702C123.111 75.0888 123.041 75.2822 122.865 75.2822L121.888 76.2843H121.941L121.743 76.9173C121.743 76.9524 121.761 76.97 121.796 76.97C121.805 77.5766 121.184 79.1238 119.935 81.6116L119.196 82.8247C118.976 83.2555 118.743 83.8005 118.496 84.4598L118.298 84.6181H118.193C118.122 84.6181 118.083 84.5829 118.074 84.5126L118.061 84.4071C118.184 84.2928 118.298 83.9588 118.404 83.4049C118.703 82.8072 118.936 82.0863 119.103 81.2424C119.253 80.9962 119.336 80.7325 119.354 80.4512H119.248C119.275 80.7237 119.002 81.216 118.43 81.9281C118.439 82.0424 118.153 82.605 117.572 83.6159C117.088 84.4335 116.723 85.3126 116.477 86.2532L116.331 86.3587C116.279 86.3587 116.221 86.3059 116.16 86.2004L116.516 84.2489C116.428 84.3104 116.155 84.7851 115.698 85.673C115.619 85.7345 115.5 85.9982 115.342 86.4642H115.289L115.025 86.4114C114.963 86.5257 114.937 86.6312 114.946 86.7279L114.972 87.0444C114.99 87.2202 115.029 87.3081 115.091 87.3081C115.029 87.5894 114.902 87.73 114.708 87.73C114.708 87.6949 114.69 87.6773 114.655 87.6773L114.365 87.941L114.431 88.2048C114.448 88.3542 114.233 88.6882 113.784 89.2069C113.793 89.3212 113.7 89.4618 113.507 89.6289C113.155 90.3233 112.512 91.431 111.58 92.9518H111.527L111.593 93.0573C111.32 93.2507 110.99 93.9188 110.603 95.0616H110.55C110.401 95.0089 110.326 94.9561 110.326 94.9034L110.313 94.7451C110.603 94.0155 110.898 93.1716 111.197 92.2134L112.596 88.8904L113.876 85.9895C113.868 85.9191 113.951 85.6906 114.127 85.3038H114.074C113.511 85.9455 113.058 86.6136 112.715 87.3081C112.644 87.3081 112.605 87.4487 112.596 87.73L112.042 88.574H111.989C111.919 88.574 111.879 88.5388 111.87 88.4685C112.205 87.0531 112.526 86.0686 112.834 85.5147C113.142 84.9697 113.494 83.9851 113.89 82.561H113.784C113.142 83.6335 112.825 84.2137 112.834 84.3016H112.886C112.675 84.8115 112.504 85.1104 112.372 85.1983H112.266C112.196 85.1983 112.161 85.1631 112.161 85.0928L113.005 82.0863C113.243 81.5237 113.375 81.2424 113.401 81.2424C113.278 81.0578 113.212 80.882 113.203 80.7149L113.19 80.6622C113.19 80.5831 113.34 80.249 113.639 79.66C113.824 79.3787 113.916 79.2205 113.916 79.1853L113.85 79.0798C113.947 78.7458 114.079 78.4645 114.246 78.2359C114.246 78.2008 114.228 78.1832 114.193 78.1832C113.964 78.1832 113.837 78.1304 113.81 78.0249L113.784 77.814C113.758 77.4799 113.964 77.181 114.404 76.9173C114.369 76.5305 114.532 76.0206 114.893 75.3877C115.236 74.8426 115.531 73.9811 115.777 72.8032C115.346 72.9702 114.431 73.1636 113.032 73.3834C112.512 73.524 112.033 73.6823 111.593 73.8581C111.558 73.8581 111.54 73.8405 111.54 73.8053C111.417 73.8053 110.713 74.0163 109.428 74.4383H109.323L109.257 74.3328V74.2273C110.462 73.735 111.118 73.4009 111.223 73.2251H111.171C110.053 73.4889 109.367 73.6823 109.112 73.8053L109.006 73.7526C108.944 73.8141 108.738 73.8669 108.386 73.9108C108.007 74.0603 107.387 74.8163 106.524 76.1789C106.41 76.258 106.098 76.7151 105.587 77.5502C104.531 78.904 103.81 79.9062 103.423 80.5567C103.079 81.1545 102.547 81.9457 101.826 82.9302C100.435 84.8818 99.5245 86.1125 99.0933 86.6224C98.8117 87.185 98.6445 87.4663 98.5918 87.4663C98.5389 87.4663 98.4774 87.396 98.407 87.2553C98.8381 86.1389 99.1593 85.1719 99.3705 84.3544H99.2649L98.8425 84.9873C98.2882 85.6818 97.835 86.3323 97.483 86.9389C97.4038 86.9828 97.3334 87.1762 97.2718 87.5191C97.2014 87.6597 97.0694 87.7652 96.8759 87.8355C96.6823 88.0641 96.5899 88.2399 96.5987 88.363L96.6119 88.4685L96.6911 88.7849C96.6647 88.8553 96.6515 88.908 96.6515 88.9432H96.7043L96.5987 89.4706H96.2819C95.6835 89.5234 95.4019 89.7168 95.4371 90.0508H95.3843C95.0676 90.0332 94.9004 89.9453 94.8828 89.7871C94.6452 89.7871 94.4824 89.9629 94.3944 90.3146C94.5616 90.5607 94.6496 90.7365 94.6584 90.842L94.6188 90.9475C94.654 90.9475 94.6716 90.9651 94.6716 91.0002C94.0996 91.5013 93.5233 92.1518 92.9425 92.9518C92.3969 93.5848 92.089 93.9012 92.0186 93.9012C91.5522 94.4726 91.187 94.8946 90.923 95.1671C90.6062 95.5451 90.2763 96.0198 89.9331 96.5912C89.8099 96.6967 89.6911 96.7495 89.5767 96.7495C89.5327 96.644 89.4931 96.5912 89.4579 96.5912C89.8539 95.9231 90.0475 95.5187 90.0387 95.3781C90.2939 95.0177 90.6722 94.332 91.1738 93.321C92.1505 91.7123 92.9557 90.253 93.5893 88.9432C93.9236 88.3981 94.17 87.8004 94.3284 87.1498L94.2228 87.0971C94.038 87.5191 93.7212 87.9059 93.2725 88.2575C92.8413 88.7849 92.5993 89.0487 92.5465 89.0487C92.1593 89.6113 91.869 89.8926 91.6754 89.8926L91.6094 89.7871C91.5918 89.5849 91.8558 89.163 92.4013 88.5212L93.8136 85.9895C93.8048 85.9191 93.9896 85.6554 94.368 85.1983L94.3548 85.04C93.9412 85.4268 93.6773 85.6202 93.5629 85.6202C93.4925 85.5851 93.4397 85.5675 93.4045 85.5675C93.6597 84.7236 93.9192 84.0906 94.1832 83.6687C94.2008 83.317 94.346 83.1412 94.6188 83.1412L94.6584 83.0357L94.5396 82.8775L94.5132 82.561C94.5748 82.4731 94.6056 82.4204 94.6056 82.4028V82.35H94.5528C94.2624 82.5434 93.708 83.0709 92.8897 83.9324C92.8017 83.9412 92.5465 84.2577 92.1241 84.8818C92.0186 84.9521 91.9174 84.9873 91.8206 84.9873H91.715L91.7018 84.8291C92.1681 84.0467 93.1097 82.7632 94.5264 80.9787L98.1166 76.0206L98.2486 75.7569C96.0663 76.047 94.4208 76.3459 93.3121 76.6536C93.3033 76.6184 93.2813 76.6008 93.2461 76.6008C93.2549 76.6711 92.6037 76.8294 91.2926 77.0755H91.187C91.1166 77.0755 91.077 77.0404 91.0682 76.97L91.055 76.8645C91.0726 76.7503 91.583 76.5217 92.5861 76.1789C93.2637 75.8272 94.0292 75.5283 94.8828 75.2822C95.0412 75.124 95.5779 74.8602 96.4931 74.491L96.5459 74.3855C96.5371 74.2976 96.3875 74.2273 96.0971 74.1745L96.0839 74.0163C96.5503 73.4009 97.1178 73.0493 97.7866 72.9614C97.8922 72.8823 97.9406 72.8295 97.9318 72.8032H97.8262C97.791 72.8032 97.7778 72.8207 97.7866 72.8559C97.7074 72.8207 97.6502 72.8032 97.615 72.8032C96.999 72.8383 96.5151 72.9087 96.1631 73.0141C96.1279 73.0141 96.1059 72.9966 96.0971 72.9614C96.0267 72.9614 95.9079 72.9966 95.7407 73.0669V73.0141C95.5823 73.0845 95.4063 73.1196 95.2128 73.1196V73.0669C94.9224 73.1108 94.6012 73.2691 94.2492 73.5416C93.862 73.4976 93.6641 73.4449 93.6553 73.3834C93.5849 73.4185 93.5321 73.4361 93.4969 73.4361C93.2681 73.3658 93.1097 73.3306 93.0217 73.3306C92.9249 73.6471 92.7489 73.8581 92.4937 73.9636L92.1769 73.9108C92.1417 73.9108 92.089 73.9284 92.0186 73.9636L91.7018 73.9108C91.3146 73.9284 91.121 73.9636 91.121 74.0163L91.0154 73.9636C90.857 73.9636 89.8187 74.157 87.9004 74.5438L87.8872 74.491C87.5264 74.6317 87.2009 74.702 86.9105 74.702C86.8401 74.702 86.8005 74.6668 86.7917 74.5965L86.7785 74.4383C89.2423 73.735 91.0022 73.1372 92.0582 72.6449C92.1461 72.6449 92.6433 72.4691 93.5497 72.1175C94.5264 71.8713 95.5207 71.59 96.5327 71.2736V71.2208H96.3743L96.2687 71.2736C96.2687 71.2384 96.2511 71.2208 96.2159 71.2208V71.2736L96.1103 71.2208C94.6232 71.3351 93.7828 71.423 93.5893 71.4845C93.5541 71.4845 93.5365 71.467 93.5365 71.4318C92.4013 71.59 91.6754 71.7307 91.3586 71.8538V71.801L91.253 71.8538H90.7778C90.7074 71.8538 90.6678 71.8186 90.659 71.7483V71.6428C90.6678 71.5724 90.747 71.5021 90.8966 71.4318V71.4845C91.5654 71.2999 92.0098 71.1417 92.2297 71.0098L92.2429 71.0626C92.3573 70.9922 92.5949 70.9219 92.9557 70.8516L92.9689 70.9043C93.3913 70.834 93.9016 70.6758 94.5 70.4296C94.6232 70.5 94.7332 70.5351 94.83 70.5351C94.9972 70.3945 95.0764 70.3066 95.0676 70.2714L95.1864 70.3241H95.3975C95.5735 70.3241 95.7363 70.1659 95.8859 69.8494L96.4931 69.6385C96.5723 69.6736 96.6295 69.6912 96.6647 69.6912C96.7791 69.6209 97.2938 69.4978 98.209 69.322L98.143 69.2165L98.0506 69.2692C98.0154 69.2692 97.9934 69.2517 97.9846 69.2165L97.8922 69.2692H97.6282C97.593 69.2692 97.571 69.2517 97.5622 69.2165L97.4698 69.2692H97.1002C97.065 69.2692 97.043 69.2517 97.0342 69.2165L96.9418 69.2692H96.8891C96.8539 69.2692 96.8319 69.2517 96.8231 69.2165C96.5767 69.2868 96.2819 69.322 95.9387 69.322C95.9387 69.2868 95.9211 69.2692 95.8859 69.2692C95.8859 69.3396 95.7319 69.3923 95.4239 69.4275L95.4107 69.3747C94.7596 69.5154 94.434 69.6033 94.434 69.6385C94.082 69.5681 93.9016 69.4978 93.8928 69.4275L93.8796 69.322L96.0971 68.7418L96.1103 68.7945C98.055 68.3022 99.1945 68.0561 99.5289 68.0561C101.298 67.6341 102.371 67.4232 102.749 67.4232C102.996 67.4232 103.11 67.3704 103.093 67.2649L103.211 67.3177C103.203 67.2825 103.216 67.2649 103.251 67.2649L103.264 67.3177C103.528 67.1594 103.986 66.9836 104.637 66.7902L104.65 66.843L104.848 66.7375C104.848 66.7726 104.866 66.7902 104.901 66.7902V66.7375L105.007 66.7902H105.112C105.183 66.7902 105.218 66.7551 105.218 66.6847C105.183 66.6847 105.161 66.6671 105.152 66.632C105.257 66.632 105.579 66.2452 106.115 65.4716C106.274 65.076 106.604 64.6365 107.105 64.153L108.386 62.4651C108.465 62.2629 108.764 61.8937 109.283 61.3575L109.375 61.0937H109.323C109.323 60.8564 109.723 60.4344 110.524 59.8279C110.638 59.7136 110.845 59.4323 111.144 58.9839C111.215 58.9839 111.245 58.9488 111.237 58.8784C111.131 58.8784 110.722 59.2301 110.009 59.9333C109.851 60.0037 109.345 60.4784 108.491 61.3575C108.421 61.3575 108.359 61.4278 108.306 61.5684C108.262 61.5684 107.972 61.8673 107.435 62.4651C107.259 62.6146 106.828 63.142 106.142 64.0475C106.071 64.0826 106.018 64.1002 105.983 64.1002C105.913 64.0123 105.873 63.9596 105.865 63.942V63.8892C106.392 63.1156 106.898 62.4475 107.382 61.8849C107.374 61.7882 108.135 60.8212 109.666 58.9839C111.496 56.7686 112.438 55.661 112.49 55.661C112.482 55.617 113.058 54.9841 114.22 53.7622C114.211 53.7094 114.435 53.4633 114.893 53.0237C114.893 52.9886 115.346 52.5314 116.252 51.6524C116.252 51.5732 116.477 51.3447 116.925 50.9667C116.934 50.9227 117.207 50.6238 117.744 50.07L117.968 50.1755C117.986 50.3162 117.801 50.5975 117.414 51.0194C116.78 51.7491 116.327 52.4172 116.054 53.0237V53.0765C116.221 52.8743 116.661 52.4699 117.374 51.8633C117.436 51.6787 118.043 50.9755 119.196 49.7535C119.328 49.4986 119.666 49.1118 120.212 48.5931C121.233 47.4328 121.902 46.8526 122.218 46.8526V46.9053L122.324 46.8526H122.482C122.553 46.8613 122.592 46.8965 122.601 46.958C122.9 46.8877 123.23 46.6416 123.591 46.2196C123.802 46.2196 124.409 45.7273 125.412 44.7427C126.301 44.145 126.873 43.8461 127.128 43.8461C127.234 43.8725 127.313 43.9428 127.366 44.0571C127.34 44.2505 127.335 44.4087 127.353 44.5318C127.714 44.3384 128.074 44.0571 128.435 43.6878C128.981 43.4417 129.469 43.178 129.9 42.8967C130.111 42.8967 130.226 43.0197 130.243 43.2659C130.182 43.723 130.151 43.9692 130.151 44.0043L130.164 44.0571C130.384 44.1889 130.494 44.2768 130.494 44.3208L130.455 44.4263L130.626 44.5318C130.749 44.5318 131.035 44.1801 131.484 43.4769C132.118 42.6769 132.522 42.2725 132.698 42.2637C132.936 42.1582 133.226 42.0703 133.57 42ZM113.56 66.1573H113.665C113.762 66.1573 113.863 66.1221 113.969 66.0518L113.982 66.1045C114.431 65.9287 115.227 65.7881 116.371 65.6826C116.371 65.6474 116.419 65.6122 116.516 65.5771L116.529 65.6298L117.955 65.1551C117.955 65.0936 117.753 64.9881 117.348 64.8386V64.7332C117.339 64.6628 117.489 64.5749 117.797 64.4694V64.5222C118.122 64.4167 118.311 64.3639 118.364 64.3639L118.377 64.4167C118.58 64.3464 118.853 64.276 119.196 64.2057C119.204 64.2409 119.226 64.2585 119.262 64.2585C119.279 64.1881 119.495 64.0826 119.908 63.942C120.181 63.4761 120.573 62.9135 121.083 62.2541C121.224 61.9904 121.506 61.5509 121.928 60.9355C121.919 60.874 122.174 60.3993 122.693 59.5114C123.037 58.6763 123.516 57.9027 124.132 57.1906C124.159 57.0763 124.251 56.9357 124.409 56.7686L124.33 56.5049L124.317 56.3467C124.563 55.9159 124.682 55.6522 124.673 55.5555L124.66 55.45L124.396 55.5028V55.45C123.622 55.5819 123.147 55.7577 122.971 55.9775C122.381 56.4785 121.924 56.9181 121.598 57.2961C121 58.0433 120.084 59.0103 118.853 60.1971C117.524 61.7443 116.697 62.7816 116.371 63.309C115.966 63.731 115.733 64.0651 115.672 64.3112L115.183 64.7332C114.99 65.1463 114.514 65.5683 113.758 65.999C113.626 66.0518 113.56 66.1045 113.56 66.1573ZM123.895 75.6514C123.895 75.669 123.934 75.7217 124.013 75.8096L124.027 75.9679C124.071 76.425 123.666 77.0404 122.812 77.814H122.707C122.636 77.814 122.601 77.7788 122.601 77.7085C122.671 77.2338 122.997 76.5657 123.578 75.7041L123.895 75.6514ZM91.0022 87.1498H91.1606L91.2794 87.2026C91.2882 87.3432 91.121 87.6773 90.7778 88.2048C90.6722 88.5476 90.5358 88.7586 90.3687 88.8377C90.2895 88.8025 90.2323 88.7849 90.1971 88.7849L90.1839 88.5212C90.1751 88.4861 90.1883 88.4685 90.2235 88.4685C90.2235 88.4157 90.1443 88.2927 89.9859 88.0993L89.9727 87.941C90.3775 87.5191 90.6018 87.3081 90.6458 87.3081C90.8922 87.3081 91.011 87.2553 91.0022 87.1498Z" fill="url(#paint2_linear)"/>
<path d="M154.306 46.0218C155.027 46.1801 155.401 46.3866 155.427 46.6416C155.471 46.6416 155.493 46.6635 155.493 46.7075C155.502 46.7778 155.344 46.9273 155.018 47.1558H154.622C154.358 47.1558 153.971 46.8745 153.461 46.3119C153.61 46.1537 153.756 46.0746 153.896 46.0746H153.962C153.998 46.0746 154.015 46.0965 154.015 46.1405L154.306 46.0218ZM151.732 47.3273H152.128C152.33 47.3273 152.471 47.402 152.55 47.5514L152.563 47.7888L152.524 47.8943L152.708 48.0129H152.814C153.236 48.0129 153.593 47.9734 153.883 47.8943V47.9602L154.002 47.8943H154.174C154.262 47.9206 154.46 48.2239 154.767 48.8041C155.339 49.2261 155.678 49.4371 155.784 49.4371C155.775 49.3579 155.788 49.3184 155.823 49.3184C155.744 49.1689 155.652 48.9624 155.546 48.6986L155.665 48.6327H155.718C156.246 49.0107 156.791 49.6393 157.355 50.5183C157.504 50.8348 157.588 51.0985 157.605 51.3095L157.619 51.5337C157.619 51.5688 157.601 51.5864 157.566 51.5864L157.803 52.2721L157.751 52.3908C157.751 52.426 157.777 52.4831 157.83 52.5622C157.803 52.8084 157.764 52.9974 157.711 53.1292C157.746 53.1292 157.764 53.1468 157.764 53.182C157.702 53.182 157.632 53.2215 157.553 53.3006L157.13 52.9578H157.064C157.064 53.0193 156.884 53.3578 156.523 53.9731C156.532 54.0786 156.431 54.1929 156.219 54.316C155.621 55.2302 155.3 55.6874 155.256 55.6874H155.203C155.124 55.6874 155.08 55.6478 155.071 55.5687L155.058 55.3973C155.427 54.905 155.621 54.527 155.639 54.2632H155.586C155.331 54.4127 155.058 54.5446 154.767 54.6588C154.697 54.7731 154.517 54.8874 154.226 55.0017C154.235 55.0632 154.09 55.1599 153.791 55.2918C153.791 55.2478 153.773 55.2258 153.738 55.2258C153.738 55.2698 153.562 55.4412 153.21 55.7401C153.21 55.7049 153.192 55.6874 153.157 55.6874C153.157 55.7313 152.999 55.9027 152.682 56.2016C152.471 56.5005 152.273 56.65 152.088 56.65C152.079 56.5708 152.057 56.5313 152.022 56.5313L152.629 55.6214H152.576C152.216 55.85 152.04 56.0214 152.048 56.1357L151.93 56.083C151.718 56.3731 151.437 56.6192 151.085 56.8214L151.098 56.9401L150.979 56.8741C150.971 56.9357 150.755 57.1247 150.333 57.4411C150.262 57.406 150.209 57.3884 150.174 57.3884C150.183 57.4763 150.038 57.573 149.739 57.6785C149.747 57.74 149.611 57.8719 149.329 58.0741L147.957 59.3795H148.01C148.441 59.0631 148.907 58.7774 149.409 58.5224L149.541 58.5883C149.541 58.5092 149.571 58.4697 149.633 58.4697V58.5224L149.752 58.4697C149.822 58.4785 149.862 58.518 149.871 58.5883C149.879 58.7202 149.721 58.8345 149.395 58.9312L147.64 60.4081C147.288 60.9355 147.028 61.1992 146.861 61.1992C146.87 61.2608 146.734 61.4322 146.452 61.7135C146.426 61.7926 146.36 61.9069 146.254 62.0563L146.122 61.9904H146.069C146.078 62.0871 145.959 62.219 145.713 62.386C145.739 62.6585 145.647 62.9266 145.436 63.1904C145.392 63.1904 145.048 63.5684 144.406 64.3244C144.274 64.3244 144.001 64.4958 143.588 64.8386L143.654 64.9441L143.667 65.0101L142.994 65.8012C142.932 65.8012 142.637 66.1221 142.109 66.7638C142.065 66.7638 141.823 67.01 141.384 67.5023H141.265L141.278 67.621C142.158 67.0847 142.734 66.7638 143.007 66.6584C143.016 66.6935 143.038 66.7111 143.073 66.7111L143.126 66.5924C143.196 66.6364 143.253 66.6584 143.297 66.6584L143.311 66.7111C142.994 67.0979 142.514 67.4979 141.872 67.9111C141.801 68.0253 141.573 68.2319 141.186 68.5308C140.684 68.9791 140.354 69.322 140.196 69.5593C139.976 69.7791 139.852 69.889 139.826 69.889C139.826 69.8538 139.808 69.8363 139.773 69.8363C139.773 69.9242 139.544 70.1351 139.087 70.4692C138.708 70.9791 138.524 71.2823 138.532 71.379C138.066 71.9856 137.617 72.5131 137.186 72.9614C136.658 73.8669 136.403 74.3811 136.421 74.5042L136.487 74.6097C136.381 75.2602 136.108 75.5855 135.668 75.5855C135.343 75.5855 135.158 75.6602 135.114 75.8096L135.127 75.9811C135.136 76.0162 135.158 76.0338 135.193 76.0338C135.14 76.4382 134.89 76.8382 134.441 77.2338L134.507 77.3392L134.52 77.392C133.394 78.9304 132.835 79.7479 132.844 79.8446C132.712 80.0117 132.65 80.1435 132.659 80.2402C133.442 79.7128 133.869 79.4491 133.939 79.4491C133.983 79.4491 134.01 79.4666 134.018 79.5018V79.5545C134.67 79.2908 135.312 78.8161 135.945 78.1304L136.104 78.0249H136.275V78.0777C136.284 78.148 136.077 78.3766 135.655 78.7634C135.153 79.0798 134.912 79.326 134.929 79.5018C134.964 79.5018 134.982 79.5194 134.982 79.5545C134.586 79.8622 134.238 80.2051 133.939 80.5831V80.6358C134.133 80.6007 134.546 80.315 135.18 79.7787C135.329 79.7787 135.721 79.4798 136.355 78.882C136.865 78.5216 137.701 77.7041 138.862 76.4294C139.602 76.0338 140.482 75.2558 141.502 74.0954C142.576 73.1196 143.311 72.4208 143.707 71.9988H143.773C143.843 72.0076 143.883 72.0472 143.891 72.1175C141.999 74.1042 141.049 75.1635 141.04 75.2954C141.049 75.436 140.966 75.5503 140.79 75.6382C140.754 75.7877 140.411 76.2404 139.76 76.9964H139.826C140.284 76.7063 140.763 76.3283 141.265 75.8624C141.898 75.4141 143.095 74.3899 144.855 72.79L146.478 71.656C146.531 71.656 146.936 71.3131 147.693 70.6274C147.957 70.4077 148.115 70.2978 148.168 70.2978L148.155 70.1791H148.102C147.407 70.5659 146.795 70.9439 146.267 71.3131C146.267 71.278 146.245 71.2604 146.201 71.2604C146.175 71.3747 146.065 71.4318 145.871 71.4318H145.766L145.752 71.3131C145.999 71.0406 146.118 70.8516 146.109 70.7461C146.575 70.5879 147.147 70.2274 147.825 69.6648C149.505 68.4517 150.759 67.5814 151.586 67.0539C152.15 66.9045 153.148 66.2012 154.583 64.9441C155.155 64.6101 155.533 64.3639 155.718 64.2057H155.771C155.85 64.2233 155.894 64.2628 155.903 64.3244C154.767 65.5199 153.87 66.3155 153.21 66.7111V66.7638H153.263C154.116 66.4122 154.855 65.9595 155.48 65.4057L156.602 64.6145C157.605 63.8936 158.327 63.4365 158.767 63.2431C158.767 63.164 158.798 63.1244 158.859 63.1244H159.15C159.22 63.142 159.26 63.1816 159.268 63.2431C159.242 63.3134 159.229 63.3706 159.229 63.4145H159.282C159.616 63.3266 159.774 63.1552 159.757 62.9003L159.73 62.6234C159.818 62.6234 159.893 62.6409 159.955 62.6761L160.179 62.5574C160.258 62.6014 160.32 62.6234 160.364 62.6234C160.355 62.5091 160.606 62.3772 161.116 62.2278C161.143 61.9465 162.005 61.375 163.703 60.5135H163.981C163.998 60.7333 163.721 61.019 163.149 61.3707C163.061 61.3794 162.546 62.0212 161.605 63.2959C161.552 63.331 161.042 63.9596 160.074 65.1815C159.757 65.1815 159.387 65.5595 158.965 66.3155C158.516 66.6056 158.094 66.966 157.698 67.3968C157.707 67.4847 157.434 67.8056 156.879 68.3594C156.888 68.5088 156.642 68.6978 156.14 68.9264C156.008 69.0407 155.815 69.2692 155.559 69.6121C155.427 69.6121 155.071 69.8758 154.49 70.4033C154.499 70.4912 154.411 70.5659 154.226 70.6274L153.976 70.9703H154.081L155.599 70.1264C156.259 69.6956 156.849 69.2605 157.368 68.8209L157.355 68.755L157.487 68.8209C157.812 68.5044 158.234 68.144 158.754 67.7396C158.754 67.7748 158.776 67.7924 158.82 67.7924C158.811 67.7396 159.022 67.5506 159.453 67.2254H159.506C159.576 67.2342 159.616 67.2693 159.625 67.3309L159.638 67.4495C159.55 67.4495 159.427 67.5462 159.268 67.7396C159.26 67.6957 159.238 67.6737 159.202 67.6737C159.211 67.7792 158.965 67.9902 158.463 68.3066C157.381 69.2473 156.655 69.8319 156.285 70.0604C156.294 70.1307 155.96 70.434 155.282 70.9703C155.291 71.0582 154.891 71.4757 154.081 72.223C153.984 72.223 153.826 72.3548 153.606 72.6186C153.483 72.6186 153.377 72.7328 153.289 72.9614C153.175 72.9614 153.122 73.0185 153.131 73.1328C153.096 73.1328 153.078 73.1152 153.078 73.0801C152.92 73.1152 152.568 73.4361 152.022 74.0427C151.872 74.0427 151.437 74.4778 150.715 75.3481C150.196 75.7261 149.791 76.0866 149.501 76.4294C149.448 76.4294 149.083 76.8294 148.405 77.6293C148.326 77.6293 148.133 77.7788 147.825 78.0777H147.6V78.0249C147.838 77.7348 147.952 77.5458 147.944 77.4579L148.049 77.5107C148.049 77.4491 148.348 77.1063 148.947 76.4821C149.404 75.8844 149.659 75.5855 149.712 75.5855L149.699 75.4141C149.294 75.7217 148.511 76.5349 147.35 77.8535C147.05 78.0117 146.685 78.3722 146.254 78.9348L145.238 79.726C145.255 79.8051 145.299 79.8446 145.37 79.8446C145.361 79.7304 145.612 79.5985 146.122 79.4491H146.175C146.254 79.4578 146.298 79.493 146.307 79.5545L146.32 79.6732C146.162 79.6732 145.862 79.9369 145.422 80.4644C144.12 81.6863 143.478 82.3676 143.495 82.5083V82.5742C144.006 82.205 144.587 81.7127 145.238 81.0973C145.678 80.7985 146.241 80.3062 146.927 79.6205C147.807 79.0227 148.357 78.548 148.577 78.1964C148.691 78.1172 148.801 78.0777 148.907 78.0777C148.916 78.1216 148.938 78.1788 148.973 78.2491C148.806 78.3282 148.634 78.5172 148.458 78.8161C147.834 79.5721 147.328 80.0864 146.94 80.3589C146.949 80.3853 146.729 80.649 146.28 81.1501C145.946 81.4402 145.405 82.0072 144.657 82.8511C144.595 82.8511 144.125 83.3258 143.245 84.2752C143.165 84.2752 142.488 84.9389 141.212 86.2664C140.385 86.7762 139.707 87.0795 139.179 87.1762L138.084 87.6905V87.7432H138.427L138.994 87.6905L139.06 87.796C138.999 87.9015 138.444 88.0905 137.397 88.363L135.47 88.9959C135.461 88.952 135.439 88.9344 135.404 88.9432C135.413 88.9871 135.14 89.119 134.586 89.3388C134.357 89.2684 133.966 89.097 133.411 88.8245C133.411 88.8597 133.394 88.8773 133.358 88.8773L132.764 88.5344C132.756 88.4992 132.694 88.4641 132.58 88.4289C132.58 88.4641 132.558 88.4817 132.514 88.4817C132.505 88.4025 132.302 88.2135 131.907 87.9146V87.9674L132.487 89.3388L132.368 89.3915C132.228 89.3739 132.047 89.2421 131.827 88.9959C131.132 88.7849 130.767 88.4992 130.732 88.1388H130.785C130.741 88.0685 130.719 88.0113 130.719 87.9674L130.6 88.0333C130.591 87.919 130.468 87.7828 130.23 87.6246C130.204 87.3784 129.693 87.018 128.699 86.5433C128.347 86.2971 128.167 86.1477 128.158 86.0949C127.648 85.6114 127.146 85.2686 126.653 85.0664C125.298 84.1346 124.449 83.361 124.106 82.7456C123.851 82.4555 123.701 82.0204 123.657 81.4402L123.71 81.3215L123.551 80.9787C123.604 80.6182 123.67 80.2578 123.749 79.8974C123.705 79.8974 123.683 79.8798 123.683 79.8446C123.754 79.8446 123.899 79.3304 124.119 78.3018L124.541 77.2338H124.489C124.489 77.3129 124.396 77.3656 124.211 77.392C124.053 77.3392 123.974 77.2865 123.974 77.2338C123.991 76.9612 124.392 76.1437 125.175 74.7811C126.037 73.6823 126.552 72.8691 126.719 72.3416L127.366 71.2604L127.511 71.5373C127.221 71.8713 126.961 72.368 126.732 73.0273L126.851 73.0801C127.256 72.2713 127.674 71.6076 128.105 71.0889C128.096 70.9659 128.514 70.3593 129.359 69.2692L130.903 67.3309L131.299 66.7638H131.247C131.194 66.7638 131.04 66.9353 130.785 67.2781C129.887 68.122 129.372 68.7286 129.24 69.0978C129.082 69.1594 129.007 69.2165 129.016 69.2692C129.06 69.2692 129.082 69.2868 129.082 69.322C128.967 69.3835 128.818 69.6121 128.633 70.0077L128.409 70.0604C128.356 69.9901 128.33 69.933 128.33 69.889C128.972 68.8165 129.803 67.6429 130.824 66.3683C131.106 65.8936 131.528 65.3441 132.091 64.72C133.174 63.375 134.586 61.7267 136.328 59.7751L136.315 59.7224C135.805 60.0564 135.202 60.5487 134.507 61.1992C133.583 61.964 132.254 63.4409 130.521 65.6298C130.037 66.2364 129.759 66.5397 129.689 66.5397H129.636C130.446 65.3969 130.851 64.8079 130.851 64.7727C131.387 64.0607 131.92 63.4365 132.448 62.9003C133.477 61.652 134.463 60.5927 135.404 59.7224C136.047 59.1158 136.583 58.5488 137.015 58.0213C137.076 58.0213 137.463 57.6785 138.176 56.9928L140.301 55.1204L140.288 55.0544C139.628 55.2302 138.867 55.6302 138.005 56.2544C137.591 56.4038 137.358 56.5357 137.305 56.65H137.133L137.12 56.5313C137.983 56.039 139.016 55.2654 140.222 54.2105C140.574 53.7094 141.137 53.2347 141.911 52.7864C145.22 50.281 147.081 49.0283 147.495 49.0283C147.583 49.0459 147.627 49.0854 147.627 49.147C147.636 49.2173 147.363 49.3711 146.808 49.6085C146.817 49.7052 146.606 49.8942 146.175 50.1755C146.184 50.2634 145.99 50.4129 145.594 50.6238V50.6766C145.629 50.6766 145.691 50.6986 145.779 50.7425C147.09 49.7931 147.878 49.3184 148.142 49.3184C148.643 48.9492 149.329 48.514 150.201 48.0129C150.491 47.758 150.777 47.5866 151.059 47.4987L151.072 47.5514C151.318 47.402 151.538 47.3273 151.732 47.3273ZM145.198 50.5711V50.6766C145.268 50.6414 145.326 50.6238 145.37 50.6238L145.356 50.5183C145.286 50.5535 145.233 50.5711 145.198 50.5711ZM145.119 51.1381L145.132 51.1908C145.484 50.9359 145.66 50.7865 145.66 50.7425H145.607C145.282 50.9447 145.119 51.0766 145.119 51.1381ZM144.763 50.848L144.71 50.9667H144.881C144.881 50.8876 144.842 50.848 144.763 50.848ZM144.433 51.0854C144.433 51.1205 144.419 51.1777 144.393 51.2568H144.446C144.525 51.2568 144.56 51.2172 144.551 51.1381V51.0854H144.433ZM143.126 52.2194H143.179C143.17 52.1403 143.223 52.1007 143.337 52.1007L143.324 51.9952C143.262 51.9952 143.196 52.0699 143.126 52.2194ZM140.499 54.8303L140.394 55.0017V55.0544C140.508 54.9401 140.6 54.883 140.671 54.883V54.8303H140.499ZM165.657 57.5598C165.877 57.8148 165.991 58.0038 166 58.1268C165.71 58.4697 165.362 58.6411 164.957 58.6411C164.843 58.6147 164.759 58.54 164.706 58.4169C164.68 58.0917 164.997 57.806 165.657 57.5598ZM161.882 59.8938C162.111 59.8938 162.229 59.9685 162.238 60.118C162.265 60.3729 161.952 60.6586 161.301 60.9751H161.235C161.112 60.9751 160.91 60.8212 160.628 60.5135C160.602 60.2762 160.813 60.1048 161.261 59.9993L161.275 60.0652L161.882 59.8938ZM153.5 66.0913H153.553C154.081 65.81 154.592 65.3925 155.084 64.8386H155.031C154.028 65.5595 153.518 65.9771 153.5 66.0913ZM152.682 66.6584C152.7 66.7287 152.739 66.7638 152.801 66.7638C153.021 66.632 153.126 66.5397 153.118 66.4869H153.065C152.906 66.6012 152.779 66.6584 152.682 66.6584ZM152.933 66.8298V66.9353C153.082 66.8825 153.153 66.8254 153.144 66.7638H153.091C153.03 66.8078 152.977 66.8298 152.933 66.8298ZM130.217 67.3309C130.217 67.3836 130.169 67.4979 130.072 67.6737C130.169 67.6561 130.252 67.5638 130.323 67.3968L130.217 67.3309ZM129.808 67.9638H129.874C129.944 67.9638 129.975 67.9242 129.966 67.8451V67.7924C129.913 67.7924 129.861 67.8495 129.808 67.9638ZM148.96 69.6121L148.867 69.7835H148.92L149.013 69.6121H148.96ZM148.26 70.1264H148.313C148.498 70.0121 148.63 69.9549 148.709 69.9549L148.643 69.8363C148.414 69.933 148.287 70.0296 148.26 70.1264ZM153.606 71.2604H153.659C153.738 71.2604 153.773 71.2208 153.764 71.1417H153.698C153.628 71.1593 153.597 71.1988 153.606 71.2604ZM140.697 75.2954H140.763C140.834 75.2954 140.864 75.2558 140.856 75.1767H140.803C140.724 75.1943 140.688 75.2338 140.697 75.2954ZM142.743 83.0225C142.743 83.0401 142.73 83.1148 142.703 83.2467L142.822 83.3126C142.849 83.1808 142.857 83.1061 142.849 83.0885L142.743 83.0225ZM142.334 83.6555H142.4C142.444 83.6555 142.527 83.5588 142.651 83.3654V83.3126C142.598 83.3126 142.492 83.4269 142.334 83.6555ZM142.017 83.9324H142.083C142.136 83.9324 142.206 83.8577 142.294 83.7082H142.241C142.18 83.7082 142.105 83.7829 142.017 83.9324ZM134.863 89.9585C135.145 90.1431 135.294 90.297 135.312 90.42C135.259 90.8332 135.14 91.0398 134.956 91.0398C134.568 90.8904 134.357 90.6442 134.322 90.3014C134.489 90.0728 134.67 89.9585 134.863 89.9585Z" fill="url(#paint3_linear)"/>
<defs>
<linearGradient id="paint0_linear" x1="22.9888" y1="69.4993" x2="166.011" y2="69.4993" gradientUnits="userSpaceOnUse">
<stop stop-color="#0779E4"/>
<stop offset="0.9341" stop-color="#1DD3BD"/>
</linearGradient>
<linearGradient id="paint1_linear" x1="22.9888" y1="69.4993" x2="166.011" y2="69.4993" gradientUnits="userSpaceOnUse">
<stop stop-color="#0779E4"/>
<stop offset="0.9341" stop-color="#1DD3BD"/>
</linearGradient>
<linearGradient id="paint2_linear" x1="22.9888" y1="69.4993" x2="166.011" y2="69.4993" gradientUnits="userSpaceOnUse">
<stop stop-color="#0779E4"/>
<stop offset="0.9341" stop-color="#1DD3BD"/>
</linearGradient>
<linearGradient id="paint3_linear" x1="22.9888" y1="69.4993" x2="166.011" y2="69.4993" gradientUnits="userSpaceOnUse">
<stop stop-color="#0779E4"/>
<stop offset="0.9341" stop-color="#1DD3BD"/>
</linearGradient>
</defs>
</svg>
