<?xml version="1.0" encoding="UTF-8"?>
<svg width="52px" height="52px" viewBox="0 0 52 52" version="1.1" xmlns="http://www.w3.org/2000/svg" xmlns:xlink="http://www.w3.org/1999/xlink">
    <title>Group 2</title>
    <defs>
        <linearGradient x1="100%" y1="0%" x2="0%" y2="100%" id="linearGradient-1">
            <stop stop-color="#435557" offset="0%"></stop>
            <stop stop-color="#364248" offset="47.7737107%"></stop>
            <stop stop-color="#415456" offset="100%"></stop>
        </linearGradient>
    </defs>
    <g id="Page-1" stroke="none" stroke-width="1" fill="none" fill-rule="evenodd">
        <g id="Deus-new-Copy-2" transform="translate(-929.000000, -461.000000)">
            <g id="Group" transform="translate(481.000000, 145.000000)">
                <g id="Group-2" transform="translate(449.000000, 317.000000)">
                    <path d="M21.8098249,-6.99853481e-16 L28.1901751,6.99853481e-16 C34.6956735,-4.95187185e-16 37.858278,0.8354305 40.7916113,2.40419433 C43.7249447,3.97295817 46.0270418,6.27505533 47.5958057,9.20838867 C49.1645695,12.141722 50,15.3043265 50,21.8098249 L50,28.1901751 C50,34.6956735 49.1645695,37.858278 47.5958057,40.7916113 C46.0270418,43.7249447 43.7249447,46.0270418 40.7916113,47.5958057 C37.858278,49.1645695 34.6956735,50 28.1901751,50 L21.8098249,50 C15.3043265,50 12.141722,49.1645695 9.20838867,47.5958057 C6.27505533,46.0270418 3.97295817,43.7249447 2.40419433,40.7916113 C0.8354305,37.858278 3.3012479e-16,34.6956735 -4.66568987e-16,28.1901751 L4.66568987e-16,21.8098249 C-3.3012479e-16,15.3043265 0.8354305,12.141722 2.40419433,9.20838867 C3.97295817,6.27505533 6.27505533,3.97295817 9.20838867,2.40419433 C12.141722,0.8354305 15.3043265,4.95187185e-16 21.8098249,-6.99853481e-16 Z" id="Rectangle" stroke="#181A20" stroke-width="2" fill="url(#linearGradient-1)"></path>
                    <g id="Group-5" transform="translate(15.000000, 15.000000)" fill="#FFFFFF" fill-rule="nonzero">
                        <g id="Change">
                            <path d="M0.485462816,11.7691492 L8.8174725,19.5607523 C9.44437398,20.1464159 10.5536784,20.1464159 11.1828029,19.5607523 L19.5148126,11.7691492 C20.1639446,11.1607212 20.1617216,10.1777168 19.5081434,9.57342784 C18.8545653,8.96913884 17.8008373,8.96913884 17.1494822,9.57756681 L11.6652058,14.7036759 L11.6652058,1.55211217 C11.6652058,0.693276767 10.9182594,8.97845437e-16 9.99791464,6.72425994e-16 C9.07756992,4.47006551e-16 8.33062348,0.693276767 8.33062348,1.55211217 L8.33062348,14.7036759 L2.84857015,9.57756681 C2.52178109,9.27335282 2.09495455,9.12228057 1.66590496,9.12228057 C1.24130147,9.12228057 0.814474938,9.27335282 0.489908925,9.57342784 C-0.161446154,10.1777168 -0.163669209,11.1607212 0.485462816,11.7691492" id="Combined-Shape"></path>
                        </g>
                    </g>
                </g>
            </g>
        </g>
    </g>
</svg>