<svg width="255" height="255" viewBox="0 0 255 255" fill="none" xmlns="http://www.w3.org/2000/svg">
<circle cx="128" cy="127.5" r="126.5" stroke="url(#paint0_linear)" stroke-width="3"/>
<circle cx="128" cy="127.5" r="126.5" stroke="url(#paint1_linear)" stroke-width="3"/>
<path d="M248.017 128C248.017 138.361 238.166 147.288 235.619 156.837C232.977 166.722 236.966 179.362 231.959 188.013C226.882 196.793 213.888 199.625 206.765 206.748C199.643 213.871 196.802 226.865 188.03 231.941C179.379 236.949 166.74 232.96 156.854 235.602C147.296 238.158 138.378 248 128.017 248C117.657 248 108.73 238.149 99.1807 235.602C89.2951 232.96 76.6553 236.949 68.0043 231.941C59.2238 226.865 56.392 213.871 49.2692 206.748C42.1464 199.625 29.1526 196.785 24.076 188.013C19.0684 179.362 23.0572 166.722 20.4153 156.837C17.8511 147.288 8 138.361 8 128C8 117.64 17.8511 108.712 20.398 99.1634C23.0399 89.2778 19.0512 76.638 24.0587 67.9871C29.1353 59.2066 42.1291 56.3747 49.2519 49.2519C56.3747 42.1291 59.2152 29.1353 67.9871 24.0587C76.6381 19.0512 89.2778 23.0399 99.1634 20.398C108.712 17.8424 117.64 8 128 8C138.361 8 147.288 17.8511 156.837 20.398C166.722 23.0399 179.362 19.0512 188.013 24.0587C196.794 29.1353 199.625 42.1291 206.748 49.2519C213.871 56.3747 226.865 59.2152 231.941 67.9871C236.949 76.638 232.96 89.2778 235.602 99.1634C238.166 108.712 248.017 117.64 248.017 128Z" stroke="#111111" stroke-width="5" stroke-miterlimit="10"/>
<path d="M248.017 128C248.017 138.361 238.166 147.288 235.619 156.837C232.977 166.722 236.966 179.362 231.959 188.013C226.882 196.793 213.888 199.625 206.765 206.748C199.643 213.871 196.802 226.865 188.03 231.941C179.379 236.949 166.74 232.96 156.854 235.602C147.296 238.158 138.378 248 128.017 248C117.657 248 108.73 238.149 99.1807 235.602C89.2951 232.96 76.6553 236.949 68.0043 231.941C59.2238 226.865 56.392 213.871 49.2692 206.748C42.1464 199.625 29.1526 196.785 24.076 188.013C19.0684 179.362 23.0572 166.722 20.4153 156.837C17.8511 147.288 8 138.361 8 128C8 117.64 17.8511 108.712 20.398 99.1634C23.0399 89.2778 19.0512 76.638 24.0587 67.9871C29.1353 59.2066 42.1291 56.3747 49.2519 49.2519C56.3747 42.1291 59.2152 29.1353 67.9871 24.0587C76.6381 19.0512 89.2778 23.0399 99.1634 20.398C108.712 17.8424 117.64 8 128 8C138.361 8 147.288 17.8511 156.837 20.398C166.722 23.0399 179.362 19.0512 188.013 24.0587C196.794 29.1353 199.625 42.1291 206.748 49.2519C213.871 56.3747 226.865 59.2152 231.941 67.9871C236.949 76.638 232.96 89.2778 235.602 99.1634C238.166 108.712 248.017 117.64 248.017 128Z" stroke="url(#paint2_linear)" stroke-width="5" stroke-miterlimit="10"/>
<path d="M212.87 212.861C205.548 220.182 192.27 219.535 183.713 224.482C174.855 229.602 168.743 241.361 159.081 243.942C149.282 246.558 138.093 239.375 128.017 239.375C117.942 239.375 106.753 246.558 96.9532 243.942C87.2921 241.361 81.1794 229.602 72.3213 224.482C63.7566 219.535 50.4866 220.182 43.1566 212.861C35.8352 205.54 36.4827 192.261 31.5356 183.705C26.4158 174.847 14.6566 168.734 12.0752 159.073C9.45915 149.274 16.6424 138.084 16.6424 128.009C16.6424 117.933 9.45915 106.744 12.0752 96.9447C14.648 87.2749 26.4071 81.1622 31.5269 72.3041C36.4741 63.7394 35.8265 50.4694 43.1479 43.1394C50.4693 35.818 63.748 36.4655 72.304 31.5184C81.1708 26.3986 87.2835 14.6395 96.9446 12.058C106.744 9.44195 117.933 16.6252 128.009 16.6252C138.084 16.6252 149.274 9.44195 159.073 12.058C168.734 14.6395 174.847 26.3986 183.705 31.5184C192.269 36.4655 205.54 35.818 212.87 43.1394C220.191 50.4607 219.543 63.7394 224.491 72.2954C229.61 81.1536 241.369 87.2663 243.951 96.9274C246.567 106.727 239.384 117.916 239.384 127.992C239.384 138.067 246.567 149.256 243.951 159.056C241.369 168.717 229.61 174.829 224.491 183.688C219.543 192.261 220.191 205.531 212.87 212.861Z" stroke="url(#paint3_linear)" stroke-width="5" stroke-miterlimit="10"/>
<path d="M212.87 212.861C205.548 220.182 192.27 219.535 183.713 224.482C174.855 229.602 168.743 241.361 159.081 243.942C149.282 246.558 138.093 239.375 128.017 239.375C117.942 239.375 106.753 246.558 96.9532 243.942C87.2921 241.361 81.1794 229.602 72.3213 224.482C63.7566 219.535 50.4866 220.182 43.1566 212.861C35.8352 205.54 36.4827 192.261 31.5356 183.705C26.4158 174.847 14.6566 168.734 12.0752 159.073C9.45915 149.274 16.6424 138.084 16.6424 128.009C16.6424 117.933 9.45915 106.744 12.0752 96.9447C14.648 87.2749 26.4071 81.1622 31.5269 72.3041C36.4741 63.7394 35.8265 50.4694 43.1479 43.1394C50.4693 35.818 63.748 36.4655 72.304 31.5184C81.1708 26.3986 87.2835 14.6395 96.9446 12.058C106.744 9.44195 117.933 16.6252 128.009 16.6252C138.084 16.6252 149.274 9.44195 159.073 12.058C168.734 14.6395 174.847 26.3986 183.705 31.5184C192.269 36.4655 205.54 35.818 212.87 43.1394C220.191 50.4607 219.543 63.7394 224.491 72.2954C229.61 81.1536 241.369 87.2663 243.951 96.9274C246.567 106.727 239.384 117.916 239.384 127.992C239.384 138.067 246.567 149.256 243.951 159.056C241.369 168.717 229.61 174.829 224.491 183.688C219.543 192.261 220.191 205.531 212.87 212.861Z" stroke="url(#paint4_linear)" stroke-width="5" stroke-miterlimit="10"/>
<defs>
<linearGradient id="paint0_linear" x1="324.591" y1="-236.786" x2="61.8502" y2="275.538" gradientUnits="userSpaceOnUse">
<stop offset="0.587669" stop-color="#F1FC68"/>
<stop offset="1" stop-color="#FF9001"/>
</linearGradient>
<linearGradient id="paint1_linear" x1="128.177" y1="-120.288" x2="-120.79" y2="130.916" gradientUnits="userSpaceOnUse">
<stop stop-color="#C4EB89"/>
<stop offset="1" stop-color="#5EC4D6"/>
</linearGradient>
<linearGradient id="paint2_linear" x1="128.178" y1="-109.876" x2="-110.829" y2="131.297" gradientUnits="userSpaceOnUse">
<stop stop-color="#5EC4D6"/>
<stop offset="1" stop-color="#F1FC68"/>
</linearGradient>
<linearGradient id="paint3_linear" x1="311.254" y1="-211.56" x2="66.3411" y2="265.983" gradientUnits="userSpaceOnUse">
<stop offset="0.587669" stop-color="#F1FC68"/>
<stop offset="1" stop-color="#FF9001"/>
</linearGradient>
<linearGradient id="paint4_linear" x1="128.178" y1="-102.969" x2="-103.89" y2="131.176" gradientUnits="userSpaceOnUse">
<stop stop-color="#C4EB89"/>
<stop offset="1" stop-color="#5EC4D6"/>
</linearGradient>
</defs>
</svg>
