<svg width="13" height="15" viewBox="0 0 13 15" fill="none" xmlns="http://www.w3.org/2000/svg">
<path d="M12.9844 3.27338C12.9844 3.16427 12.9377 3.05516 12.8597 2.97722L10.0228 0.1247C9.94484 0.0467626 9.83573 0 9.72662 0H4.16187C3.60072 0 3.13309 0.467626 3.13309 1.02878V3.13309H1.02878C0.467626 3.13309 0 3.58513 0 4.16187V13.795C0 14.3561 0.452038 14.8237 1.02878 14.8237H8.83813C9.39928 14.8237 9.86691 14.3717 9.86691 13.795V11.6906H11.9712C12.5324 11.6906 13 11.223 13 10.6619L12.9844 3.27338ZM10.1475 1.44964L11.5348 2.83693H10.1475V1.44964ZM8.83813 13.9508H1.02878C0.935252 13.9508 0.857314 13.8729 0.857314 13.7794V4.14628C0.857314 4.05276 0.935252 3.97482 1.02878 3.97482H6.17266V6.39089C6.17266 6.6247 6.35971 6.81175 6.59353 6.81175H9.00959V13.7794C9.00959 13.8729 8.93165 13.9508 8.83813 13.9508ZM7.02998 5.95444V4.56715L8.41727 5.95444H7.02998ZM11.9712 10.8333H9.86691V6.39089C9.86691 6.28177 9.82015 6.17266 9.74221 6.09472L6.90528 3.24221C6.82734 3.16427 6.71823 3.11751 6.60911 3.11751H3.99041V1.02878C3.99041 0.935252 4.06835 0.857314 4.16187 0.857314H9.30576V3.27338C9.30576 3.50719 9.49281 3.69424 9.72662 3.69424H12.1427V10.6619C12.1427 10.7554 12.0647 10.8333 11.9712 10.8333Z" fill="white" fill-opacity="0.7"/>
</svg>
