  <svg width="13" height="16" viewBox="0 0 13 16" fill="none" xmlns="http://www.w3.org/2000/svg">
                                                <path d="M12.9844 3.77338C12.9844 3.66427 12.9377 3.55516 12.8597 3.47722L10.0228 0.6247C9.94484 0.546763 9.83573 0.5 9.72662 0.5H4.16187C3.60072 0.5 3.13309 0.967626 3.13309 1.52878V3.63309H1.02878C0.467626 3.63309 0 4.08513 0 4.66187V14.295C0 14.8561 0.452038 15.3237 1.02878 15.3237H8.83813C9.39928 15.3237 9.86691 14.8717 9.86691 14.295V12.1906H11.9712C12.5324 12.1906 13 11.723 13 11.1619L12.9844 3.77338ZM10.1475 1.94964L11.5348 3.33693H10.1475V1.94964ZM8.83813 14.4508H1.02878C0.935252 14.4508 0.857314 14.3729 0.857314 14.2794V4.64628C0.857314 4.55276 0.935252 4.47482 1.02878 4.47482H6.17266V6.89089C6.17266 7.1247 6.35971 7.31175 6.59353 7.31175H9.00959V14.2794C9.00959 14.3729 8.93165 14.4508 8.83813 14.4508ZM7.02998 6.45444V5.06715L8.41727 6.45444H7.02998ZM11.9712 11.3333H9.86691V6.89089C9.86691 6.78177 9.82015 6.67266 9.74221 6.59472L6.90528 3.74221C6.82734 3.66427 6.71823 3.61751 6.60911 3.61751H3.99041V1.52878C3.99041 1.43525 4.06835 1.35731 4.16187 1.35731H9.30576V3.77338C9.30576 4.00719 9.49281 4.19424 9.72662 4.19424H12.1427V11.1619C12.1427 11.2554 12.0647 11.3333 11.9712 11.3333Z" fill="white" fill-opacity="0.7" />
                                            </svg>