<svg width="21" height="21" viewBox="0 0 21 21" fill="none" xmlns="http://www.w3.org/2000/svg">
<path fill-rule="evenodd" clip-rule="evenodd" d="M12.2505 2.25166C15.4565 2.92867 17.991 5.4278 18.7193 8.61434C19.4588 8.82372 20 9.50475 20 10.3102C20 11.0864 19.4982 11.7453 18.8013 11.9804C18.2025 15.3586 15.5911 18.0421 12.2507 18.7476C12.032 19.4723 11.3593 20 10.5632 20C9.77723 20 9.11139 19.4855 8.88423 18.7749C5.47985 18.114 2.80637 15.405 2.19945 11.9811C1.50184 11.7467 1 11.0872 1 10.3102C1 9.50373 1.54186 8.82376 2.2814 8.61445C3.01977 5.38351 5.61509 2.85925 8.88445 2.22446C9.11181 1.51421 9.77747 1 10.5632 1C11.359 1 12.0316 1.52738 12.2505 2.25166ZM3.58673 11.8673C4.1438 11.5713 4.52313 10.985 4.52313 10.3102C4.52313 9.66672 4.17773 9.10264 3.66169 8.79504C4.3066 6.19951 6.39065 4.17261 9.01795 3.61015C9.31767 4.15511 9.89732 4.52442 10.5632 4.52442C11.2189 4.52442 11.791 4.16633 12.0946 3.63505C14.669 4.23041 16.7032 6.23641 17.339 8.79497C16.8227 9.10229 16.4769 9.66588 16.4769 10.3102C16.4769 10.9857 16.8562 11.5725 17.4138 11.8682C16.8787 14.5863 14.7806 16.7433 12.0942 17.3644C11.7906 16.8334 11.2187 16.4756 10.5632 16.4756C9.89757 16.4756 9.3181 16.8446 9.01828 17.3892C6.27816 16.8028 4.12889 14.6234 3.58673 11.8673ZM10.563 12.3249C11.5363 12.3249 12.3253 11.5359 12.3253 10.5627C12.3253 9.58943 11.5379 8.80046 10.5646 8.80046C9.59124 8.80046 8.8022 9.58943 8.8022 10.5627C8.8022 11.5359 9.58967 12.3249 10.563 12.3249Z" fill="black"/>
<path fill-rule="evenodd" clip-rule="evenodd" d="M12.2505 2.25166C15.4565 2.92867 17.991 5.4278 18.7193 8.61434C19.4588 8.82372 20 9.50475 20 10.3102C20 11.0864 19.4982 11.7453 18.8013 11.9804C18.2025 15.3586 15.5911 18.0421 12.2507 18.7476C12.032 19.4723 11.3593 20 10.5632 20C9.77723 20 9.11139 19.4855 8.88423 18.7749C5.47985 18.114 2.80637 15.405 2.19945 11.9811C1.50184 11.7467 1 11.0872 1 10.3102C1 9.50373 1.54186 8.82376 2.2814 8.61445C3.01977 5.38351 5.61509 2.85925 8.88445 2.22446C9.11181 1.51421 9.77747 1 10.5632 1C11.359 1 12.0316 1.52738 12.2505 2.25166ZM3.58673 11.8673C4.1438 11.5713 4.52313 10.985 4.52313 10.3102C4.52313 9.66672 4.17773 9.10264 3.66169 8.79504C4.3066 6.19951 6.39065 4.17261 9.01795 3.61015C9.31767 4.15511 9.89732 4.52442 10.5632 4.52442C11.2189 4.52442 11.791 4.16633 12.0946 3.63505C14.669 4.23041 16.7032 6.23641 17.339 8.79497C16.8227 9.10229 16.4769 9.66588 16.4769 10.3102C16.4769 10.9857 16.8562 11.5725 17.4138 11.8682C16.8787 14.5863 14.7806 16.7433 12.0942 17.3644C11.7906 16.8334 11.2187 16.4756 10.5632 16.4756C9.89757 16.4756 9.3181 16.8446 9.01828 17.3892C6.27816 16.8028 4.12889 14.6234 3.58673 11.8673ZM10.563 12.3249C11.5363 12.3249 12.3253 11.5359 12.3253 10.5627C12.3253 9.58943 11.5379 8.80046 10.5646 8.80046C9.59124 8.80046 8.8022 9.58943 8.8022 10.5627C8.8022 11.5359 9.58967 12.3249 10.563 12.3249Z" fill="#30EFE5"/>
<path fill-rule="evenodd" clip-rule="evenodd" d="M12.2505 2.25166C15.4565 2.92867 17.991 5.4278 18.7193 8.61434C19.4588 8.82372 20 9.50475 20 10.3102C20 11.0864 19.4982 11.7453 18.8013 11.9804C18.2025 15.3586 15.5911 18.0421 12.2507 18.7476C12.032 19.4723 11.3593 20 10.5632 20C9.77723 20 9.11139 19.4855 8.88423 18.7749C5.47985 18.114 2.80637 15.405 2.19945 11.9811C1.50184 11.7467 1 11.0872 1 10.3102C1 9.50373 1.54186 8.82376 2.2814 8.61445C3.01977 5.38351 5.61509 2.85925 8.88445 2.22446C9.11181 1.51421 9.77747 1 10.5632 1C11.359 1 12.0316 1.52738 12.2505 2.25166ZM3.58673 11.8673C4.1438 11.5713 4.52313 10.985 4.52313 10.3102C4.52313 9.66672 4.17773 9.10264 3.66169 8.79504C4.3066 6.19951 6.39065 4.17261 9.01795 3.61015C9.31767 4.15511 9.89732 4.52442 10.5632 4.52442C11.2189 4.52442 11.791 4.16633 12.0946 3.63505C14.669 4.23041 16.7032 6.23641 17.339 8.79497C16.8227 9.10229 16.4769 9.66588 16.4769 10.3102C16.4769 10.9857 16.8562 11.5725 17.4138 11.8682C16.8787 14.5863 14.7806 16.7433 12.0942 17.3644C11.7906 16.8334 11.2187 16.4756 10.5632 16.4756C9.89757 16.4756 9.3181 16.8446 9.01828 17.3892C6.27816 16.8028 4.12889 14.6234 3.58673 11.8673ZM10.563 12.3249C11.5363 12.3249 12.3253 11.5359 12.3253 10.5627C12.3253 9.58943 11.5379 8.80046 10.5646 8.80046C9.59124 8.80046 8.8022 9.58943 8.8022 10.5627C8.8022 11.5359 9.58967 12.3249 10.563 12.3249Z" stroke="black" stroke-width="0.25"/>
<path fill-rule="evenodd" clip-rule="evenodd" d="M12.2505 2.25166C15.4565 2.92867 17.991 5.4278 18.7193 8.61434C19.4588 8.82372 20 9.50475 20 10.3102C20 11.0864 19.4982 11.7453 18.8013 11.9804C18.2025 15.3586 15.5911 18.0421 12.2507 18.7476C12.032 19.4723 11.3593 20 10.5632 20C9.77723 20 9.11139 19.4855 8.88423 18.7749C5.47985 18.114 2.80637 15.405 2.19945 11.9811C1.50184 11.7467 1 11.0872 1 10.3102C1 9.50373 1.54186 8.82376 2.2814 8.61445C3.01977 5.38351 5.61509 2.85925 8.88445 2.22446C9.11181 1.51421 9.77747 1 10.5632 1C11.359 1 12.0316 1.52738 12.2505 2.25166ZM3.58673 11.8673C4.1438 11.5713 4.52313 10.985 4.52313 10.3102C4.52313 9.66672 4.17773 9.10264 3.66169 8.79504C4.3066 6.19951 6.39065 4.17261 9.01795 3.61015C9.31767 4.15511 9.89732 4.52442 10.5632 4.52442C11.2189 4.52442 11.791 4.16633 12.0946 3.63505C14.669 4.23041 16.7032 6.23641 17.339 8.79497C16.8227 9.10229 16.4769 9.66588 16.4769 10.3102C16.4769 10.9857 16.8562 11.5725 17.4138 11.8682C16.8787 14.5863 14.7806 16.7433 12.0942 17.3644C11.7906 16.8334 11.2187 16.4756 10.5632 16.4756C9.89757 16.4756 9.3181 16.8446 9.01828 17.3892C6.27816 16.8028 4.12889 14.6234 3.58673 11.8673ZM10.563 12.3249C11.5363 12.3249 12.3253 11.5359 12.3253 10.5627C12.3253 9.58943 11.5379 8.80046 10.5646 8.80046C9.59124 8.80046 8.8022 9.58943 8.8022 10.5627C8.8022 11.5359 9.58967 12.3249 10.563 12.3249Z" stroke="#30EFE5" stroke-width="0.25"/>
</svg>
