<svg width="77" height="23" viewBox="0 0 77 23" fill="none" xmlns="http://www.w3.org/2000/svg">
<path d="M0 1.08628C0 0.960683 0.0839614 0.876953 0.209904 0.876953H7.24167C9.3617 0.876953 11.1879 1.31653 12.6992 2.1957C14.2105 3.07486 15.3649 4.30987 16.1626 5.90074C16.9602 7.4916 17.359 9.35459 17.359 11.4897C17.359 13.6876 16.9602 15.5925 16.1626 17.1833C15.3649 18.7742 14.2105 20.0092 12.6782 20.8465C11.1669 21.6838 9.3617 22.1234 7.26266 22.1234H0.209904C0.0839614 22.1234 0 22.0396 0 21.914V1.08628ZM6.94781 19.758C8.33317 19.758 9.50863 19.5696 10.5162 19.1719C11.5027 18.7742 12.2584 18.2299 12.7411 17.5182C13.2659 16.7437 13.6647 15.9064 13.8956 14.9645C14.1265 14.0435 14.2525 12.8712 14.2525 11.4897C14.2525 10.1082 14.1265 8.9778 13.8746 8.05678C13.6227 7.13575 13.2449 6.29845 12.7202 5.54489C12.1954 4.81225 11.4397 4.24707 10.4532 3.84936C9.44566 3.45164 8.2702 3.24232 6.94781 3.24232H2.93865C2.81271 3.24232 2.72875 3.32605 2.72875 3.45164V19.5487C2.72875 19.6743 2.81271 19.758 2.93865 19.758H6.94781Z" fill="white"/>
<path d="M20.9482 0.876953H35.6204C35.7464 0.876953 35.8303 0.960683 35.8303 1.08628V3.11672C35.8303 3.24232 35.7464 3.32605 35.6204 3.32605H23.6769C23.551 3.32605 23.467 3.40978 23.467 3.53537V8.07771C23.467 8.20331 23.551 8.28704 23.6769 8.28704H34.487C34.6129 8.28704 34.6969 8.37077 34.6969 8.49636V10.5268C34.6969 10.6524 34.6129 10.7361 34.487 10.7361H23.467H20.9482C20.8222 10.7361 20.7383 10.6524 20.7383 10.5268V1.08628C20.7383 0.960683 20.8222 0.876953 20.9482 0.876953Z" fill="white"/>
<path d="M20.7383 12.8499C20.7383 12.7244 20.8222 12.6406 20.9482 12.6406H23.467H34.487C34.6129 12.6406 34.6969 12.7244 34.6969 12.8499V14.8804C34.6969 15.006 34.6129 15.0897 34.487 15.0897H23.6769C23.551 15.0897 23.467 15.1734 23.467 15.299V19.4646C23.467 19.5902 23.551 19.6739 23.6769 19.6739H35.6204C35.7464 19.6739 35.8303 19.7577 35.8303 19.8832V21.9137C35.8303 22.0393 35.7464 22.123 35.6204 22.123H20.9482C20.8222 22.123 20.7383 22.0393 20.7383 21.9137V12.8499Z" fill="white"/>
<path d="M41.3505 20.5953C39.9232 19.3394 39.2305 17.4973 39.2305 15.111V1.08628C39.2305 0.960683 39.3144 0.876953 39.4404 0.876953H41.7703C41.8962 0.876953 41.9802 0.960683 41.9802 1.08628V15.111C41.9802 16.1786 42.2321 17.0996 42.7359 17.8532C43.2396 18.6067 43.9113 19.151 44.7509 19.5278C45.5905 19.8836 46.5141 20.072 47.5427 20.072C48.5502 20.072 49.4738 19.8836 50.3344 19.5278C51.174 19.1719 51.8667 18.6067 52.3704 17.8532C52.8742 17.0996 53.1261 16.1995 53.1261 15.111V1.08628C53.1261 0.960683 53.21 0.876953 53.336 0.876953H55.6869C55.8128 0.876953 55.8968 0.960683 55.8968 1.08628V15.111C55.8968 17.4973 55.1831 19.3184 53.7558 20.5953C52.3285 21.8722 50.2714 22.5002 47.5636 22.5002C44.8559 22.5002 42.7568 21.8722 41.3505 20.5953Z" fill="white"/>
<path d="M63.18 21.6836C61.8576 21.1394 60.787 20.323 59.9894 19.2345C59.2338 18.1879 58.8349 16.911 58.793 15.4039C58.793 15.2992 58.8769 15.1946 58.9819 15.1946L61.4797 14.9434C61.6057 14.9224 61.7106 15.0271 61.7106 15.1527C61.7526 16.1575 61.9835 17.0366 62.4663 17.7693C62.97 18.5647 63.6627 19.1717 64.5233 19.5694C65.4049 19.9881 66.3915 20.1974 67.504 20.1974C69.2462 20.1974 70.6525 19.8834 71.723 19.2555C72.7935 18.6275 73.3183 17.6018 73.3183 16.1575C73.3183 15.4248 73.0874 14.8387 72.6466 14.4201C72.2058 14.0014 71.6391 13.6874 70.9884 13.4781C70.3167 13.2897 69.4351 13.0804 68.3016 12.892C67.42 12.7245 66.7903 12.5989 66.3495 12.5152C64.9641 12.1803 63.7887 11.8244 62.8021 11.4058C61.8366 10.9872 61.0179 10.3801 60.3672 9.58468C59.7165 8.78924 59.3807 7.76356 59.3807 6.48668C59.3807 5.12607 59.7585 3.99572 60.4932 3.09562C61.2279 2.19553 62.1724 1.54662 63.3269 1.12797C64.4814 0.709324 65.6778 0.5 66.9162 0.5C69.3091 0.5 71.2822 1.04424 72.7935 2.1118C74.2838 3.15842 75.1445 4.81208 75.3963 7.07278C75.4173 7.17745 75.3334 7.28211 75.2284 7.30304L72.7935 7.72169C72.6676 7.74262 72.5626 7.65889 72.5416 7.5333C72.4997 6.57041 72.2478 5.75404 71.828 5.06327C71.3662 4.3097 70.7155 3.74453 69.8759 3.34681C69.0363 2.9491 68.0287 2.7607 66.8533 2.7607C66.1186 2.7607 65.3839 2.8863 64.6703 3.15842C63.9566 3.43054 63.3689 3.82826 62.8861 4.3725C62.4453 4.89581 62.2144 5.52378 62.1934 6.25642C62.1724 7.00999 62.5083 7.74262 63.096 8.22407C63.6627 8.68458 64.3764 9.04043 65.237 9.29162C66.1186 9.54281 67.1261 9.77307 68.3226 9.96146C70.0858 10.2336 71.4921 10.5476 72.5416 10.9034C73.6122 11.2593 74.4728 11.8244 75.1445 12.5989C75.8161 13.3944 76.173 14.4829 76.173 15.9063C76.173 17.5181 75.7742 18.8159 74.9555 19.7997C74.1369 20.7626 73.0874 21.4534 71.807 21.872C70.5266 22.2697 69.1202 22.4791 67.6089 22.4791C65.9927 22.5 64.5233 22.2279 63.18 21.6836Z" fill="white"/>
</svg>
