<svg width="169" height="169" viewBox="0 0 169 169" fill="none" xmlns="http://www.w3.org/2000/svg">
<path d="M157.227 72.7908C155.587 72.7908 153.948 73.0891 152.458 73.835L95.2302 16.5569C95.8263 15.0653 96.2734 13.5737 96.2734 11.7838C96.2734 5.22065 90.9083 0 84.5 0C78.0917 0 72.7266 5.36981 72.7266 11.7838C72.7266 13.4245 73.0247 15.0653 73.7698 16.5569L16.5423 73.6858C15.052 73.0891 13.5617 72.6417 11.7734 72.6417C5.21605 72.6417 0 78.0115 0 84.4254C0 90.8394 5.36508 96.2092 11.7734 96.2092C13.4127 96.2092 15.052 95.9109 16.5423 95.165L73.7698 152.443C73.1737 153.935 72.7266 155.426 72.7266 157.216C72.7266 163.779 78.0917 169 84.5 169C90.9083 169 96.2734 163.63 96.2734 157.216C96.2734 155.575 95.9753 153.935 95.2302 152.443L152.458 95.165C153.948 95.7617 155.438 96.2092 157.227 96.2092C163.784 96.2092 169 90.8394 169 84.4254C169 78.0115 163.784 72.7908 157.227 72.7908ZM146.198 80.3981L123.993 85.7679C122.056 83.2321 119.075 81.4422 115.647 81.4422C113.114 81.4422 110.878 82.3372 109.09 83.8288L94.634 77.1165C94.634 76.9673 94.634 76.9673 94.634 76.8182C94.634 72.6417 92.2496 69.2109 88.6728 67.5702V22.8217C88.8219 22.8217 88.9709 22.6726 89.1199 22.6726L146.347 79.9506C146.347 79.9506 146.198 80.2489 146.198 80.3981ZM84.5 145.582C84.2019 145.582 83.9039 145.582 83.6058 145.582L61.2513 98.2974C62.7416 96.5075 63.6358 94.2701 63.6358 91.7343L78.2407 84.8729C80.0291 86.2154 82.2645 87.1103 84.5 87.1103C86.8845 87.1103 89.1199 86.2154 90.9083 84.8729L105.513 91.7343C105.513 91.7343 105.513 91.7343 105.513 91.8835C105.513 94.4192 106.407 96.6567 107.898 98.4466L85.2451 145.582C85.0961 145.582 84.7981 145.582 84.5 145.582ZM80.1781 22.8217V67.5702C76.7504 69.2109 74.2169 72.7908 74.2169 76.8182C74.2169 76.9673 74.2169 77.1165 74.2169 77.1165L59.761 83.8288C57.9727 82.3372 55.7372 81.4422 53.2037 81.4422C49.776 81.4422 46.7954 83.083 44.858 85.7679L22.8016 80.3981C22.8016 80.2489 22.6526 80.0997 22.6526 79.8014L79.8801 22.5234C79.8801 22.6726 80.0291 22.6726 80.1781 22.8217ZM22.6526 89.1986L43.3677 94.2701C44.56 98.7449 48.4347 102.026 53.3527 102.026H53.5018L69.8951 136.632L22.6526 89.1986ZM115.498 102.026H115.647C120.416 102.026 124.44 98.7449 125.632 94.2701L146.347 89.1986C146.347 89.1986 146.347 89.1986 146.347 89.3477L99.1049 136.632L115.498 102.026Z" fill="url(#paint0_linear)"/>
<defs>
<linearGradient id="paint0_linear" x1="0" y1="84.564" x2="168.979" y2="84.564" gradientUnits="userSpaceOnUse">
<stop stop-color="#0BADF4"/>
<stop offset="0.9341" stop-color="#30EFE4"/>
</linearGradient>
</defs>
</svg>
