<?xml version="1.0" encoding="utf-8"?>
<svg width="151px" height="54px" viewBox="0 0 151 54" version="1.1" xmlns:xlink="http://www.w3.org/1999/xlink" xmlns="http://www.w3.org/2000/svg">
  <desc>Created with Lunacy</desc>
  <g id="Ethereum" transform="translate(0.125 0.125)">
    <g id="Layer_2" transform="translate(0 -3.051758E-05)">
      <g id="Group">
        <g id="Group">
          <path d="M143.109 49.4118L6.89127 49.4118C3.10107 49.4118 0 46.9412 0 43.9216L0 5.4902C0 2.47059 3.10107 0 6.89127 0L143.109 0C146.899 0 150 2.47059 150 5.4902L150 43.9216C150 46.9412 146.899 49.4118 143.109 49.4118L143.109 49.4118Z" id="Shape" fill="#2D2E2D" stroke="none" />
        </g>
        <g fill="#FFFFFF" stroke="none" id="ethereum" transform="translate(51.88867 2.388214)">
          <path d="M24.4424 35.8018L23.001 35.8018L23.001 30.6162Q23.001 27.8037 20.9092 27.8037Q19.8545 27.8037 19.1338 28.6167Q18.4131 29.4297 18.4131 30.7041L18.4131 35.8018L16.9717 35.8018L16.9717 22.4775L18.4131 22.4775L18.4131 28.2959L18.4482 28.2959Q19.4854 26.5908 21.4014 26.5908Q24.4424 26.5908 24.4424 30.2559L24.4424 35.8018ZM13.7021 35.9951Q14.5371 35.9951 15.0469 35.7139L15.0469 34.4834Q14.6514 34.7822 14.1064 34.7822Q13.3945 34.7822 13.0869 34.3955Q12.7793 34.0088 12.7793 33.1035L12.7793 28.0322L15.0469 28.0322L15.0469 26.8018L12.7793 26.8018L12.7793 24.1387L11.3379 24.6045L11.3379 26.8018L9.79102 26.8018L9.79102 28.0322L11.3379 28.0322L11.3379 33.3584Q11.3379 35.9951 13.7021 35.9951ZM2.33789 31.6621L8.69238 31.6621L8.69238 30.9063Q8.69238 28.876 7.72559 27.7334Q6.75879 26.5908 4.99219 26.5908Q3.22559 26.5908 2.03467 27.9136Q0.84375 29.2363 0.84375 31.3369Q0.84375 33.5605 1.93359 34.7866Q3.02344 36.0127 4.93066 36.0127Q6.88183 36.0127 8.06836 35.1514L8.06836 33.7979Q6.79395 34.7998 5.27344 34.7998Q3.91992 34.7998 3.14648 33.9824Q2.37305 33.165 2.33789 31.6621ZM28.0371 31.6621L34.3916 31.6621L34.3916 30.9063Q34.3916 28.876 33.4248 27.7334Q32.458 26.5908 30.6914 26.5908Q28.9248 26.5908 27.7339 27.9136Q26.543 29.2363 26.543 31.3369Q26.543 33.5605 27.6328 34.7866Q28.7227 36.0127 30.6299 36.0127Q32.5811 36.0127 33.7676 35.1514L33.7676 33.7979Q32.4932 34.7998 30.9727 34.7998Q29.6191 34.7998 28.8457 33.9824Q28.0723 33.165 28.0371 31.6621ZM43.708 31.6621L50.0625 31.6621L50.0625 30.9063Q50.0625 28.876 49.0957 27.7334Q48.1289 26.5908 46.3623 26.5908Q44.5957 26.5908 43.4048 27.9136Q42.2139 29.2363 42.2139 31.3369Q42.2139 33.5605 43.3037 34.7866Q44.3936 36.0127 46.3008 36.0127Q48.252 36.0127 49.4385 35.1514L49.4385 33.7979Q48.1641 34.7998 46.6436 34.7998Q45.29 34.7998 44.5166 33.9824Q43.7432 33.165 43.708 31.6621ZM73.7666 35.8018L75.208 35.8018L75.208 30.2559Q75.208 26.5908 72.2373 26.5908Q70.251 26.5908 69.249 28.4541Q68.9941 27.6191 68.3086 27.105Q67.623 26.5908 66.7002 26.5908Q64.8633 26.5908 63.9053 28.2256L63.8701 28.2256L63.8701 26.8018L62.4287 26.8018L62.4287 35.8018L63.8701 35.8018L63.8701 30.6689Q63.8701 29.3945 64.4854 28.5991Q65.1006 27.8037 66.0498 27.8037Q68.0977 27.8037 68.0977 30.458L68.0977 35.8018L69.5391 35.8018L69.5391 30.6689Q69.5391 29.4912 70.1851 28.6475Q70.8311 27.8037 71.7539 27.8037Q72.8438 27.8037 73.3052 28.4717Q73.7666 29.1396 73.7666 30.6338L73.7666 35.8018ZM41.2646 28.2607Q40.8867 27.9707 40.1748 27.9707Q39.252 27.9707 38.6323 28.8408Q38.0127 29.7109 38.0127 31.2139L38.0127 35.8018L36.5713 35.8018L36.5713 26.8018L38.0127 26.8018L38.0127 28.6563L38.0479 28.6563Q38.3555 27.707 38.9883 27.1753Q39.6211 26.6436 40.4033 26.6436Q40.9658 26.6436 41.2646 26.7666L41.2646 28.2607ZM59.5195 35.8018L58.0781 35.8018L58.0781 34.3779L58.043 34.3779Q57.1465 36.0127 55.2656 36.0127Q52.0488 36.0127 52.0488 32.1807L52.0488 26.8018L53.4814 26.8018L53.4814 31.9521Q53.4814 34.7998 55.6611 34.7998Q56.7158 34.7998 57.397 34.022Q58.0781 33.2441 58.0781 31.9873L58.0781 26.8018L59.5195 26.8018L59.5195 35.8018ZM6.61377 28.498Q7.20703 29.1924 7.21582 30.4404L2.35547 30.4404Q2.52246 29.2627 3.23438 28.5332Q3.94629 27.8037 4.96582 27.8037Q6.02051 27.8037 6.61377 28.498ZM32.313 28.498Q32.9063 29.1924 32.915 30.4404L28.0547 30.4404Q28.2217 29.2627 28.9336 28.5332Q29.6455 27.8037 30.665 27.8037Q31.7197 27.8037 32.313 28.498ZM47.9839 28.498Q48.5771 29.1924 48.5859 30.4404L43.7256 30.4404Q43.8926 29.2627 44.6045 28.5332Q45.3164 27.8037 46.3359 27.8037Q47.3906 27.8037 47.9839 28.498Z" />
        </g>
        <g fill="#FFFFFF" stroke="none" id="Built-on" transform="translate(52.18848 3.095581)">
          <path d="M18.5098 18.2012L17.5488 18.2012L17.5488 9.31836L18.5098 9.31836L18.5098 18.2012ZM14.6953 10.502Q14.877 10.6777 15.1348 10.6777Q15.3984 10.6777 15.583 10.4961Q15.7676 10.3145 15.7676 10.0566Q15.7676 9.78711 15.583 9.6084Q15.3984 9.42969 15.1348 9.42969Q14.877 9.42969 14.6953 9.6084Q14.5137 9.78711 14.5137 10.0566Q14.5137 10.3262 14.6953 10.502ZM1.10156 18.2012L1.10156 9.79883L3.49219 9.79883Q4.58203 9.79883 5.2207 10.332Q5.85937 10.8652 5.85938 11.7207Q5.85938 12.4355 5.47266 12.9629Q5.08594 13.4902 4.40625 13.7129L4.40625 13.7363Q5.25586 13.8359 5.76563 14.3779Q6.27539 14.9199 6.27539 15.7871Q6.27539 16.8652 5.50195 17.5332Q4.72851 18.2012 3.55078 18.2012L1.10156 18.2012ZM22.3418 18.3301Q22.8984 18.3301 23.2383 18.1426L23.2383 17.3223Q22.9746 17.5215 22.6113 17.5215Q22.1367 17.5215 21.9316 17.2637Q21.7266 17.0059 21.7266 16.4023L21.7266 13.0215L23.2383 13.0215L23.2383 12.2012L21.7266 12.2012L21.7266 10.4258L20.7656 10.7363L20.7656 12.2012L19.7344 12.2012L19.7344 13.0215L20.7656 13.0215L20.7656 16.5723Q20.7656 18.3301 22.3418 18.3301ZM2.08594 10.6895L2.08594 13.4023L3.09375 13.4023Q3.90234 13.4023 4.36523 13.0127Q4.82812 12.623 4.82813 11.9141Q4.82813 10.6895 3.2168 10.6895L2.08594 10.6895ZM30.3164 18.3418Q28.9863 18.3418 28.1924 17.501Q27.3984 16.6602 27.3984 15.2715Q27.3984 13.7598 28.2246 12.9102Q29.0508 12.0605 30.457 12.0605Q31.7988 12.0605 32.5518 12.8867Q33.3047 13.7129 33.3047 15.1777Q33.3047 16.6133 32.4932 17.4775Q31.6816 18.3418 30.3164 18.3418ZM38.8594 18.2012L39.8203 18.2012L39.8203 14.5332Q39.8203 13.332 39.2988 12.6963Q38.7773 12.0605 37.793 12.0605Q36.5039 12.0605 35.8242 13.1973L35.8008 13.1973L35.8008 12.2012L34.8398 12.2012L34.8398 18.2012L35.8008 18.2012L35.8008 14.7793Q35.8008 13.9531 36.2725 13.4111Q36.7441 12.8691 37.4648 12.8691Q38.8594 12.8691 38.8594 14.7793L38.8594 18.2012ZM12.7031 18.2012L11.7422 18.2012L11.7422 17.252L11.7188 17.252Q11.1211 18.3418 9.86719 18.3418Q7.72266 18.3418 7.72266 15.7871L7.72266 12.2012L8.67773 12.2012L8.67773 15.6348Q8.67773 17.5332 10.1309 17.5332Q10.834 17.5332 11.2881 17.0146Q11.7422 16.4961 11.7422 15.6582L11.7422 12.2012L12.7031 12.2012L12.7031 18.2012ZM14.6426 18.2012L15.6035 18.2012L15.6035 12.2012L14.6426 12.2012L14.6426 18.2012ZM30.3867 12.8691Q29.4609 12.8691 28.9219 13.499Q28.3828 14.1289 28.3828 15.2363Q28.3828 16.3027 28.9277 16.918Q29.4727 17.5332 30.3867 17.5332Q31.3184 17.5332 31.8193 16.9297Q32.3203 16.3262 32.3203 15.2129Q32.3203 14.0879 31.8193 13.4785Q31.3184 12.8691 30.3867 12.8691ZM2.08594 14.2871L2.08594 17.3105L3.42188 17.3105Q4.28906 17.3105 4.7666 16.9004Q5.24414 16.4902 5.24414 15.7754Q5.24414 14.2871 3.2168 14.2871L2.08594 14.2871Z" />
        </g>
        <g id="Group" transform="translate(19 7.18232)">
          <path d="M0 16.573L9.97851 22.4734L10.1954 22.2565L10.1954 0.737544L9.97851 0L0 16.573L0 16.573Z" id="Shape" fill="#F4F4F4" stroke="#F4F4F5" stroke-width="0.25" />
          <path d="M0 12.0176L0 22.4734L9.97851 16.573L0 0L0 12.0176L0 12.0176Z" transform="translate(9.978271 0)" id="Shape" fill="#F4F4F4" stroke="#F4F4F5" stroke-width="0.25" />
          <path d="M0 0L9.97851 14.0567L10.1087 13.7096L10.1087 6.0305L9.97851 5.90035L0 0L0 0Z" transform="translate(0 18.48199)" id="Shape" fill="#F4F4F4" stroke="#F4F4F5" stroke-width="0.25" />
          <path d="M9.97851 0L0 5.90035L0 14.0567L9.97851 0L9.97851 0Z" transform="translate(10.02148 18.48199)" id="Shape" fill="#F4F4F4" stroke="#F4F4F5" stroke-width="0.25" />
          <path d="M9.97851 0L0 4.55542L9.97851 10.4558L9.97851 0L9.97851 0Z" transform="translate(0 12.01763)" id="Shape" fill="#F4F4F4" stroke="#F4F4F5" stroke-width="0.25" />
          <path d="M0 0L0 10.4558L9.97851 4.55542L0 0L0 0Z" transform="translate(9.978271 12.01763)" id="Shape" fill="#F4F4F4" stroke="#F4F4F5" stroke-width="0.25" />
        </g>
      </g>
    </g>
  </g>
</svg>