 <svg width="19" height="14" viewBox="0 0 19 14" fill="none" xmlns="http://www.w3.org/2000/svg">
                    <path d="M1.80613 12.9554C1.86427 13.0149 1.95638 13.0149 2.01453 12.9554L7.46972 7.37013C7.52786 7.31061 7.61998 7.31061 7.67812 7.37013L10.1127 9.86278C10.1709 9.9223 10.263 9.9223 10.3211 9.86278L16.0029 4.04561C16.061 3.98609 16.1531 3.98609 16.2113 4.04561L17.0386 4.89268C17.1237 4.97975 17.2658 4.93319 17.2898 4.8104L17.9968 1.19169C18.0185 1.08039 17.9266 0.981431 17.8214 1.00297L14.2869 1.72685C14.1676 1.75129 14.1237 1.90829 14.2112 1.99785L15.0187 2.82463C15.0799 2.88726 15.0799 2.99125 15.0187 3.05388L10.3211 7.86343C10.263 7.92295 10.1709 7.92295 10.1127 7.86343L7.67812 5.37078C7.61998 5.31125 7.52786 5.31125 7.46972 5.37078L1.04588 11.9477C0.984708 12.0104 0.984708 12.1144 1.04588 12.177L1.80613 12.9554Z" fill="white" stroke="white" strokeWidth="0.25" />
                </svg>