<svg width="24" height="30" viewBox="0 0 24 30" fill="none" xmlns="http://www.w3.org/2000/svg">
                            <g filter="url(#filter0_d)">
                                <path fill-rule="evenodd" clip-rule="evenodd" d="M6.19888 8.79972V5.50014C6.19888 2.4625 8.66138 0 11.699 0C14.7367 0 17.1992 2.4625 17.1992 5.50014V8.79972H17.4753C18.5037 8.79972 19.4004 9.65375 19.4004 10.8164V19.9833C19.4004 21.146 18.5037 22.0001 17.4753 22.0001H5.92505C4.89673 22.0001 4 21.146 4 19.9833V10.8164C4 9.65375 4.89673 8.79972 5.92505 8.79972H6.19888ZM14.9991 8.79972V5.50014C14.9991 3.67755 13.5216 2.20006 11.699 2.20006C9.87643 2.20006 8.39893 3.67755 8.39893 5.50014V8.79972H14.9991Z" fill="white" />
                            </g>
                            <defs>
                                <filter id="filter0_d" x="0" y="0" width="23.4004" height="30.0001" filterUnits="userSpaceOnUse" color-interpolation-filters="sRGB">
                                    <feFlood flood-opacity="0" result="BackgroundImageFix" />
                                    <feColorMatrix in="SourceAlpha" type="matrix" values="0 0 0 0 0 0 0 0 0 0 0 0 0 0 0 0 0 0 127 0" />
                                    <feOffset dy="4" />
                                    <feGaussianBlur stdDeviation="2" />
                                    <feColorMatrix type="matrix" values="0 0 0 0 0 0 0 0 0 0 0 0 0 0 0 0 0 0 0.25 0" />
                                    <feBlend mode="normal" in2="BackgroundImageFix" result="effect1_dropShadow" />
                                    <feBlend mode="normal" in="SourceGraphic" in2="effect1_dropShadow" result="shape" />
                                </filter>
                            </defs>
</svg>