<svg width="96" height="28" viewBox="0 0 96 28" fill="none" xmlns="http://www.w3.org/2000/svg">
<path d="M0 0.732603C0 0.575609 0.104952 0.470947 0.262379 0.470947H9.05209C11.7021 0.470947 13.9848 1.02042 15.874 2.11938C17.7631 3.21833 19.2062 4.7621 20.2032 6.75068C21.2003 8.73926 21.6988 11.068 21.6988 13.7369C21.6988 16.4843 21.2003 18.8653 20.2032 20.8539C19.2062 22.8425 17.7631 24.3863 15.8477 25.4329C13.9586 26.4795 11.7021 27.029 9.07833 27.029H0.262379C0.104952 27.029 0 26.9243 0 26.7673V0.732603ZM8.68476 24.0723C10.4165 24.0723 11.8858 23.8368 13.1452 23.3396C14.3784 22.8425 15.323 22.1622 15.9264 21.2726C16.5824 20.3044 17.0809 19.2578 17.3695 18.0804C17.6581 16.9291 17.8156 15.4638 17.8156 13.7369C17.8156 12.01 17.6581 10.597 17.3433 9.44573C17.0284 8.29444 16.5561 7.24782 15.9002 6.30586C15.2442 5.39007 14.2997 4.6836 13.0665 4.18645C11.8071 3.68931 10.3377 3.42765 8.68476 3.42765H3.67331C3.51588 3.42765 3.41093 3.53232 3.41093 3.68931V23.8106C3.41093 23.9676 3.51588 24.0723 3.67331 24.0723H8.68476Z" fill="white"/>
<path d="M26.1843 0.470947H44.5246C44.682 0.470947 44.7869 0.575609 44.7869 0.732603V3.27066C44.7869 3.42765 44.682 3.53232 44.5246 3.53232H29.5952C29.4378 3.53232 29.3328 3.63698 29.3328 3.79397V9.47189C29.3328 9.62889 29.4378 9.73355 29.5952 9.73355H43.1077C43.2651 9.73355 43.3701 9.83821 43.3701 9.99521V12.5333C43.3701 12.6903 43.2651 12.7949 43.1077 12.7949H29.3328H26.1843C26.0268 12.7949 25.9219 12.6903 25.9219 12.5333V0.732603C25.9219 0.575609 26.0268 0.470947 26.1843 0.470947Z" fill="white"/>
<path d="M25.9219 15.4377C25.9219 15.2807 26.0268 15.176 26.1843 15.176H29.3328H43.1077C43.2651 15.176 43.3701 15.2807 43.3701 15.4377V17.9757C43.3701 18.1327 43.2651 18.2374 43.1077 18.2374H29.5952C29.4378 18.2374 29.3328 18.3421 29.3328 18.499V23.706C29.3328 23.863 29.4378 23.9676 29.5952 23.9676H44.5246C44.682 23.9676 44.7869 24.0723 44.7869 24.2293V26.7674C44.7869 26.9244 44.682 27.029 44.5246 27.029H26.1843C26.0268 27.029 25.9219 26.9244 25.9219 26.7674V15.4377Z" fill="white"/>
<path d="M51.6891 25.1189C49.9049 23.549 49.0391 21.2464 49.0391 18.2635V0.732603C49.0391 0.575609 49.144 0.470947 49.3014 0.470947H52.2139C52.3713 0.470947 52.4762 0.575609 52.4762 0.732603V18.2635C52.4762 19.598 52.7911 20.7492 53.4208 21.6912C54.0505 22.6332 54.8901 23.3135 55.9396 23.7844C56.9892 24.2293 58.1436 24.4648 59.4293 24.4648C60.6887 24.4648 61.8432 24.2293 62.9189 23.7844C63.9685 23.3396 64.8343 22.6332 65.464 21.6912C66.0937 20.7492 66.4086 19.6241 66.4086 18.2635V0.732603C66.4086 0.575609 66.5135 0.470947 66.671 0.470947H69.6096C69.767 0.470947 69.872 0.575609 69.872 0.732603V18.2635C69.872 21.2464 68.9799 23.5228 67.1957 25.1189C65.4115 26.715 62.8402 27.5 59.4555 27.5C56.0708 27.5 53.447 26.715 51.6891 25.1189Z" fill="white"/>
<path d="M78.9759 26.4795C77.3229 25.7992 75.9848 24.7788 74.9877 23.4182C74.0432 22.1099 73.5447 20.5138 73.4922 18.6299C73.4922 18.499 73.5971 18.3682 73.7283 18.3682L76.8506 18.0542C77.0081 18.0281 77.1393 18.1589 77.1393 18.3159C77.1917 19.5718 77.4804 20.6708 78.0838 21.5866C78.7135 22.5809 79.5794 23.3397 80.6551 23.8368C81.7571 24.3601 82.9903 24.6218 84.3809 24.6218C86.5587 24.6218 88.3166 24.2293 89.6548 23.4443C90.9929 22.6594 91.6488 21.3772 91.6488 19.5718C91.6488 18.656 91.3602 17.9234 90.8092 17.4001C90.2582 16.8768 89.5498 16.4843 88.7364 16.2226C87.8968 15.9871 86.7948 15.7255 85.378 15.49C84.276 15.2807 83.4888 15.1237 82.9378 15.019C81.2061 14.6004 79.7368 14.1556 78.5036 13.6322C77.2967 13.1089 76.2734 12.3501 75.46 11.3558C74.6467 10.3616 74.2268 9.07944 74.2268 7.48335C74.2268 5.78259 74.6991 4.36965 75.6175 3.24453C76.5358 2.11941 77.7165 1.30828 79.1596 0.784966C80.6027 0.261655 82.0982 0 83.6463 0C86.6374 0 89.1038 0.680304 90.9929 2.01475C92.8558 3.32302 93.9315 5.3901 94.2464 8.21598C94.2726 8.34681 94.1677 8.47764 94.0365 8.5038L90.9929 9.02711C90.8355 9.05328 90.7043 8.94862 90.678 8.79162C90.6256 7.58801 90.3107 6.56755 89.7859 5.70409C89.2087 4.76213 88.3953 4.05566 87.3458 3.55851C86.2963 3.06137 85.0369 2.82588 83.5676 2.82588C82.6492 2.82588 81.7309 2.98287 80.8388 3.32302C79.9467 3.66318 79.2121 4.16032 78.6086 4.84063C78.0576 5.49476 77.769 6.27973 77.7427 7.19552C77.7165 8.13748 78.1363 9.05328 78.871 9.65509C79.5794 10.2307 80.4715 10.6755 81.5472 10.9895C82.6492 11.3035 83.9086 11.5913 85.4042 11.8268C87.6082 12.167 89.3661 12.5595 90.678 13.0043C92.0162 13.4491 93.0919 14.1556 93.9315 15.1237C94.7712 16.118 95.2172 17.4786 95.2172 19.2578C95.2172 21.2726 94.7187 22.8949 93.6954 24.1246C92.6721 25.3282 91.3602 26.1917 89.7597 26.715C88.1592 27.2122 86.4013 27.4738 84.5121 27.4738C82.4918 27.5 80.6551 27.1598 78.9759 26.4795Z" fill="white"/>
</svg>
