<svg width="87" height="25" viewBox="0 0 87 25" fill="none" xmlns="http://www.w3.org/2000/svg">
<path d="M0 0.724121H8.76638C9.80763 0.724121 10.7795 0.862955 11.6918 1.15054C12.6041 1.43812 13.4372 1.83479 14.1908 2.35046C14.9445 2.86613 15.6188 3.48097 16.2039 4.20489C16.789 4.92881 17.2848 5.72215 17.6914 6.59482C18.098 7.46749 18.4054 8.39966 18.6236 9.40125C18.8418 10.4028 18.9409 11.4342 18.9409 12.5151C18.9409 14.2009 18.693 15.7579 18.1972 17.2057C17.7013 18.6436 17.0072 19.9031 16.1048 20.9641C15.2023 22.0352 14.1313 22.8682 12.8818 23.4731C11.6323 24.078 10.2539 24.3755 8.75646 24.3755H0V0.724121ZM2.50893 22.0748H7.76479C9.00438 22.0748 10.1646 21.8567 11.2257 21.4302C12.2868 21.0038 13.2091 20.3791 13.9826 19.5659C14.7561 18.7527 15.361 17.7511 15.7973 16.571C16.2337 15.3909 16.4518 14.0522 16.4518 12.5449C16.4518 10.9086 16.2337 9.4905 15.7874 8.28066C15.3511 7.08074 14.7362 6.08907 13.9528 5.30565C13.1694 4.52222 12.2571 3.94705 11.196 3.57022C10.1349 3.19338 8.99446 3.00497 7.76479 3.00497H2.50893V22.0748Z" fill="white"/>
<path d="M27.2414 13.7445H39.7166V16.0353H27.2414V22.0746H41.0851V24.3653H24.7324V13.7544H27.2414V13.7445Z" fill="white"/>
<path d="M24.7324 11.4636V0.852661H41.0851V3.14342H27.2414V9.1827H39.7166V11.4735H27.2414H24.7324V11.4636Z" fill="white"/>
<path d="M49.126 0.664307V16.5906C49.126 17.5525 49.3045 18.4152 49.6615 19.1788C50.0185 19.9424 50.4846 20.587 51.0498 21.1225C51.6151 21.658 52.2596 22.0646 52.9836 22.3423C53.6976 22.6298 54.4314 22.7687 55.1652 22.7687C55.9388 22.7687 56.7023 22.6398 57.4758 22.3819C58.2493 22.1241 58.9435 21.7373 59.5584 21.2316C60.1732 20.7258 60.6789 20.0912 61.0657 19.3276C61.4524 18.564 61.6508 17.6814 61.6508 16.6798V0.664307H64.1597V16.4914C64.1597 17.4037 64.0407 18.2566 63.7928 19.0301C63.5449 19.8036 63.2176 20.5077 62.7813 21.1423C62.3549 21.777 61.8491 22.3323 61.2739 22.8083C60.6988 23.2843 60.074 23.6909 59.4096 24.0182C58.7452 24.3454 58.051 24.5933 57.337 24.752C56.623 24.9206 55.909 24.9999 55.195 24.9999C54.5207 24.9999 53.8364 24.9206 53.1422 24.752C52.4481 24.5834 51.7936 24.3454 51.1589 24.0182C50.5242 23.7008 49.9292 23.2943 49.3838 22.8183C48.8285 22.3423 48.3525 21.7869 47.9459 21.1522C47.5393 20.5176 47.222 19.8036 46.984 19.0202C46.746 18.2268 46.627 17.3641 46.627 16.422V0.664307H49.126Z" fill="white"/>
<path d="M71.945 16.9179C72.0045 17.7608 72.1929 18.5443 72.5202 19.2484C72.8474 19.9524 73.2838 20.5673 73.8292 21.0829C74.3746 21.5986 75.0093 22.0052 75.753 22.2928C76.4968 22.5804 77.3 22.7291 78.1826 22.7291C78.976 22.7291 79.7296 22.6399 80.4536 22.4713C81.1775 22.2928 81.8121 22.0151 82.3675 21.6383C82.9228 21.2614 83.3592 20.7656 83.6864 20.1607C84.0137 19.5558 84.1822 18.8219 84.1822 17.9691C84.1822 17.265 84.0037 16.67 83.6467 16.1841C83.2897 15.6883 82.8237 15.2717 82.2386 14.9147C81.6535 14.5577 80.999 14.2503 80.2552 13.9925C79.5115 13.7347 78.7677 13.4867 78.014 13.2686C77.3794 13.0901 76.7447 12.8917 76.11 12.6736C75.4754 12.4554 74.8605 12.2174 74.2655 11.9397C73.6705 11.672 73.1152 11.3546 72.6094 11.0076C72.0938 10.6605 71.6475 10.244 71.2707 9.76797C70.8938 9.29197 70.5963 8.75646 70.3683 8.15154C70.1402 7.53671 70.0212 6.84254 70.0212 6.0492C70.0212 5.06744 70.2096 4.19477 70.5963 3.45102C70.9831 2.69735 71.5186 2.07259 72.2128 1.55693C72.9069 1.05117 73.7399 0.66442 74.7019 0.396669C75.6638 0.128917 76.7249 0 77.8752 0C78.9065 0 79.809 0.0991672 80.6023 0.307418C81.3956 0.515669 82.0799 0.783421 82.6749 1.14042C83.26 1.48751 83.7558 1.90401 84.1624 2.3701C84.569 2.83618 84.9062 3.33202 85.164 3.8576C85.4218 4.37327 85.6202 4.91869 85.7392 5.46411C85.8582 6.01945 85.9474 6.54503 85.9772 7.0607H83.3988C83.3294 6.26737 83.141 5.5732 82.8336 4.97819C82.5262 4.38319 82.1196 3.87744 81.6336 3.47085C81.1378 3.06427 80.5726 2.75685 79.928 2.55851C79.2834 2.35026 78.5991 2.2511 77.8752 2.2511C77.2108 2.2511 76.5563 2.32051 75.9216 2.45935C75.2869 2.59818 74.7118 2.81635 74.206 3.11385C73.7003 3.41135 73.2937 3.80802 72.9863 4.29394C72.6888 4.76003 72.5301 5.34511 72.5301 6.0492C72.5301 6.77312 72.7086 7.38796 73.0557 7.88379C73.4028 8.38954 73.8788 8.81596 74.4639 9.18288C75.0489 9.5498 75.7233 9.85722 76.477 10.1151C77.2306 10.3729 78.0041 10.6307 78.8074 10.8786C79.4421 11.0671 80.0767 11.2753 80.7114 11.4935C81.3461 11.7116 81.9609 11.9496 82.546 12.2174C83.1311 12.4852 83.6765 12.7926 84.1822 13.1397C84.688 13.4867 85.1243 13.8834 85.4913 14.3396C85.8681 14.7957 86.1557 15.3213 86.3639 15.9163C86.5722 16.5113 86.6813 17.1956 86.6813 17.9592C86.6813 19.1095 86.473 20.121 86.0466 21.0036C85.6202 21.8763 85.0351 22.6101 84.2715 23.1952C83.5178 23.7803 82.6154 24.2265 81.5741 24.524C80.5329 24.8215 79.4024 24.9703 78.1628 24.9703C77.0521 24.9703 75.9811 24.7819 74.9299 24.405C73.8788 24.0282 72.9466 23.4927 72.1235 22.7985C71.3004 22.1044 70.6459 21.2614 70.1402 20.2698C69.6344 19.2781 69.3667 18.1575 69.3369 16.9179H71.945Z" fill="white"/>
</svg>
