<svg width="1297" height="899" xmlns="http://www.w3.org/2000/svg">
 <defs>
  <filter color-interpolation-filters="sRGB" filterUnits="userSpaceOnUse" height="840.917" width="1241.62" y="30.0395" x="28.043" id="filter0_f">
   <feGaussianBlur stdDeviation="33.9785"/>
  </filter>
  <filter color-interpolation-filters="sRGB" filterUnits="userSpaceOnUse" height="895.283" width="1295.98" y="2.85672" x="0.86014" id="filter1_f">
   <feGaussianBlur stdDeviation="47.5699"/>
  </filter>
  <linearGradient y2="1.92186" x2="0.07649" y1="0.5" x1="-0.49909" id="paint0_linear">
   <stop stop-opacity="0.14902" stop-color="#5BCCBD"/>
   <stop stop-opacity="0.14902" stop-color="#61C0BF" offset="0.33333"/>
   <stop stop-opacity="0.14902" stop-color="#55BCC8" offset="0.74495"/>
   <stop stop-opacity="0.14902" stop-color="#69CFB8" offset="1"/>
  </linearGradient>
  <linearGradient y2="0.92505" x2="-0.06988" y1="-0.49266" x1="0.50684" id="paint1_linear">
   <stop stop-color="#5EC4D6"/>
   <stop stop-color="#F1FC68" offset="1"/>
  </linearGradient>
  <linearGradient y2="0.92505" x2="-0.06988" y1="-0.49266" x1="0.50684" id="paint2_linear">
   <stop stop-color="#5EC4D6"/>
   <stop stop-color="#F1FC68" offset="1"/>
  </linearGradient>
  <linearGradient y2="0.92149" x2="-0.07342" y1="-0.49266" x1="0.50684" id="paint3_linear">
   <stop stop-color="#F1FC68"/>
   <stop stop-color="#5EC4D6" offset="1"/>
  </linearGradient>
 </defs>
 <g>
  <title>background</title>
  <rect fill="none" id="canvas_background" height="602" width="802" y="-1" x="-1"/>
 </g>
 <g>
  <title>Layer 1</title>
  <path id="svg_1" stroke="#C4C4C4" fill="url(#paint0_linear)" d="m1198.2864,29.92751l0,-0.5l-0.5,0l-655.78,0c-243.281,0 -440.5,197.219 -440.5,440.5l0,257l0,0.5l0.5,0l655.775,0c243.282,0 440.505,-197.219 440.505,-440.5l0,-257z"/>
  <g id="svg_2" filter="url(#filter0_f)">
   <path id="svg_3" stroke-width="10" stroke="url(#paint1_linear)" d="m102.0064,729.92751l660.702,0c243.122,0 440.168,-197.177 439.998,-440.298l-0.17,-259.702"/>
  </g>
  <g id="svg_4" filter="url(#filter1_f)">
   <path id="svg_5" stroke-width="10" stroke="url(#paint2_linear)" d="m102.0064,729.92751l660.702,0c243.122,0 440.168,-197.177 439.998,-440.298l-0.17,-259.702"/>
  </g>
  <path id="svg_6" stroke-width="8" stroke="url(#paint3_linear)" d="m102.0064,729.92751l655.956,0c243.122,0 440.164,-197.176 440.004,-440.297l-0.18,-259.703"/>
  <circle id="svg_7" stroke-width="2" stroke="white" fill="#60C5D5" r="10" cy="728.92751" cx="101.0064"/>
  <circle id="svg_8" stroke-width="2" stroke="white" fill="#EFFC6A" r="10" cy="29.92751" cx="1198.0064"/>
 </g>
</svg>