<svg width="246" height="246" viewBox="0 0 246 246" fill="none" xmlns="http://www.w3.org/2000/svg">
<path d="M243.017 123C243.017 133.361 233.166 142.288 230.619 151.837C227.977 161.722 231.966 174.362 226.959 183.013C221.882 191.793 208.888 194.625 201.765 201.748C194.643 208.871 191.802 221.865 183.03 226.941C174.379 231.949 161.74 227.96 151.854 230.602C142.296 233.158 133.378 243 123.017 243C112.657 243 103.73 233.149 94.1807 230.602C84.2951 227.96 71.6553 231.949 63.0043 226.941C54.2238 221.865 51.392 208.871 44.2692 201.748C37.1464 194.625 24.1526 191.785 19.076 183.013C14.0684 174.362 18.0572 161.722 15.4153 151.837C12.8511 142.288 3 133.361 3 123C3 112.64 12.8511 103.712 15.398 94.1634C18.0399 84.2778 14.0512 71.638 19.0587 62.9871C24.1353 54.2066 37.1291 51.3747 44.2519 44.2519C51.3747 37.1291 54.2152 24.1353 62.9871 19.0587C71.6381 14.0512 84.2778 18.0399 94.1634 15.398C103.712 12.8424 112.64 3 123 3C133.361 3 142.288 12.8511 151.837 15.398C161.722 18.0399 174.362 14.0512 183.013 19.0587C191.794 24.1353 194.625 37.1291 201.748 44.2519C208.871 51.3747 221.865 54.2152 226.941 62.9871C231.949 71.638 227.96 84.2778 230.602 94.1634C233.166 103.712 243.017 112.64 243.017 123Z" stroke="white" stroke-width="5" stroke-miterlimit="10"/>
<path d="M207.87 207.861C200.548 215.182 187.27 214.535 178.713 219.482C169.855 224.602 163.743 236.361 154.081 238.942C144.282 241.558 133.093 234.375 123.017 234.375C112.942 234.375 101.753 241.558 91.9532 238.942C82.2921 236.361 76.1794 224.602 67.3213 219.482C58.7566 214.535 45.4866 215.182 38.1566 207.861C30.8352 200.54 31.4827 187.261 26.5356 178.705C21.4158 169.847 9.65665 163.734 7.07517 154.073C4.45915 144.274 11.6424 133.084 11.6424 123.009C11.6424 112.933 4.45915 101.744 7.07517 91.9447C9.64801 82.2749 21.4071 76.1622 26.5269 67.3041C31.4741 58.7394 30.8265 45.4694 38.1479 38.1394C45.4693 30.818 58.748 31.4655 67.304 26.5184C76.1708 21.3986 82.2835 9.63945 91.9446 7.05797C101.744 4.44195 112.933 11.6252 123.009 11.6252C133.084 11.6252 144.274 4.44195 154.073 7.05797C163.734 9.63945 169.847 21.3986 178.705 26.5184C187.269 31.4655 200.54 30.818 207.87 38.1394C215.191 45.4607 214.543 58.7394 219.491 67.2954C224.61 76.1536 236.369 82.2663 238.951 91.9274C241.567 101.727 234.384 112.916 234.384 122.992C234.384 133.067 241.567 144.256 238.951 154.056C236.369 163.717 224.61 169.829 219.491 178.688C214.543 187.261 215.191 200.531 207.87 207.861Z" stroke="white" stroke-width="5" stroke-miterlimit="10"/>
</svg>
