<svg width="956" height="656" viewBox="0 0 956 656" fill="none" xmlns="http://www.w3.org/2000/svg">
<path d="M966 647L438.5 647C260.94 647 117 503.06 117 325.5C117 147.94 260.94 4 438.5 4.00001L966 4.00006L966 647Z" fill="#282429"/>
<path d="M956.331 4.99982L448.655 4.99982C205.523 4.99982 8.4762 202.192 8.65516 445.324L8.73956 560" stroke="url(#paint0_linear)" stroke-width="10"/>
<path d="M955.112 651L447.436 651C204.305 651 7.25749 453.808 7.43642 210.676L7.52081 95.9999" stroke="url(#paint1_linear)" stroke-width="10"/>
<path d="M493.064 288L744.064 135" stroke="#808080"/>
<path d="M431.064 208L701.064 56" stroke="#808080"/>
<path d="M838.064 288L868.064 117" stroke="#808080"/>
<path d="M789.064 396L915.064 596" stroke="#808080"/>
<path d="M492.064 596L744.064 426" stroke="#808080"/>
<path d="M430.064 395L515.064 495" stroke="#808080"/>
<path d="M637.064 596L788.064 481" stroke="#808080"/>
<path d="M0 326H956.063" stroke="url(#paint2_linear)" stroke-width="10"/>
<defs>
<linearGradient id="paint0_linear" x1="456.187" y1="268.091" x2="962.628" y2="26.8729" gradientUnits="userSpaceOnUse">
<stop stop-color="#5EC4D6"/>
<stop offset="1" stop-color="#F1FC68"/>
</linearGradient>
<linearGradient id="paint1_linear" x1="524.868" y1="288.385" x2="931.502" y2="671.572" gradientUnits="userSpaceOnUse">
<stop stop-color="#5EC4D6"/>
<stop offset="1" stop-color="#F1FC68"/>
</linearGradient>
<linearGradient id="paint2_linear" x1="-5.29347" y1="327.491" x2="1906.77" y2="326.486" gradientUnits="userSpaceOnUse">
<stop stop-color="#5EC4D6"/>
<stop offset="1" stop-color="#F1FC68"/>
</linearGradient>
</defs>
</svg>