<?xml version="1.0" encoding="utf-8"?>
<svg width="150px" height="53px" viewBox="0 0 150 53" version="1.1" xmlns:xlink="http://www.w3.org/1999/xlink" xmlns="http://www.w3.org/2000/svg">
  <desc>Created with Lunacy</desc>
  <defs>
    <path d="M0 0L43 0L43 47L0 47L0 0Z" id="path_1" />
    <clipPath id="mask_1">
      <use xlink:href="#path_1" />
    </clipPath>
  </defs>
  <g id="Solidity">
    <g id="Layer_2" transform="translate(0 -3.051758E-05)">
      <g id="Group">
        <g id="Group">
          <path d="M143.109 49.4118L6.89127 49.4118C3.10107 49.4118 0 46.9412 0 43.9216L0 5.4902C0 2.47059 3.10107 0 6.89127 0L143.109 0C146.899 0 150 2.47059 150 5.4902L150 43.9216C150 46.9412 146.899 49.4118 143.109 49.4118L143.109 49.4118Z" id="Shape" fill="#2D2E2D" stroke="none" />
        </g>
        <g fill="#FFFFFF" stroke="none" id="solidity" transform="translate(51.88867 2.388214)">
          <path d="M21.085 35.8018L19.6436 35.8018L19.6436 22.4775L21.085 22.4775L21.085 35.8018ZM36.0439 35.8018L34.6025 35.8018L34.6025 34.2725L34.5674 34.2725Q33.5654 36.0127 31.4736 36.0127Q29.7773 36.0127 28.7622 34.8042Q27.7471 33.5957 27.7471 31.5127Q27.7471 29.2803 28.8721 27.9355Q29.9971 26.5908 31.8691 26.5908Q33.7236 26.5908 34.5674 28.0498L34.6025 28.0498L34.6025 22.4775L36.0439 22.4775L36.0439 35.8018ZM24.082 24.2529Q24.3545 24.5166 24.7412 24.5166Q25.1367 24.5166 25.4136 24.2441Q25.6904 23.9717 25.6904 23.585Q25.6904 23.1807 25.4136 22.9126Q25.1367 22.6445 24.7412 22.6445Q24.3545 22.6445 24.082 22.9126Q23.8096 23.1807 23.8096 23.585Q23.8096 23.9893 24.082 24.2529ZM39.041 24.2529Q39.3135 24.5166 39.7002 24.5166Q40.0957 24.5166 40.3726 24.2441Q40.6494 23.9717 40.6494 23.585Q40.6494 23.1807 40.3726 22.9126Q40.0957 22.6445 39.7002 22.6445Q39.3135 22.6445 39.041 22.9126Q38.7686 23.1807 38.7686 23.585Q38.7686 23.9893 39.041 24.2529ZM47.4961 35.7139Q46.9863 35.9951 46.1514 35.9951Q43.7871 35.9951 43.7871 33.3584L43.7871 28.0322L42.2402 28.0322L42.2402 26.8018L43.7871 26.8018L43.7871 24.6045L45.2285 24.1387L45.2285 26.8018L47.4961 26.8018L47.4961 28.0322L45.2285 28.0322L45.2285 33.1035Q45.2285 34.0088 45.5361 34.3955Q45.8438 34.7822 46.5557 34.7822Q47.1006 34.7822 47.4961 34.4834L47.4961 35.7139ZM0.914063 33.9297L0.914063 35.4766Q1.93359 36.0127 3.32227 36.0127Q4.02539 36.0127 4.66699 35.8545Q5.30859 35.6963 5.80078 35.3711Q6.29297 35.0459 6.5874 34.5537Q6.88183 34.0615 6.88184 33.3936Q6.88184 32.8486 6.70166 32.4531Q6.52148 32.0576 6.1875 31.7544Q5.85352 31.4512 5.37891 31.2095Q4.9043 30.9678 4.30664 30.7393Q3.8584 30.5635 3.50684 30.4141Q3.15527 30.2646 2.90918 30.0801Q2.66309 29.8955 2.53564 29.6582Q2.4082 29.4209 2.4082 29.0693Q2.4082 28.7881 2.53564 28.5552Q2.66309 28.3223 2.896 28.1553Q3.12891 27.9883 3.4541 27.896Q3.7793 27.8037 4.18359 27.8037Q5.47559 27.8037 6.46875 28.4541L6.46875 26.9951Q5.5459 26.5908 4.37695 26.5908Q3.71777 26.5908 3.09814 26.7578Q2.47852 26.9248 1.99512 27.2544Q1.51172 27.584 1.22168 28.0718Q0.931641 28.5596 0.931641 29.1924Q0.931641 29.7109 1.08545 30.0977Q1.23926 30.4844 1.54248 30.7876Q1.8457 31.0908 2.29834 31.3325Q2.75098 31.5742 3.34863 31.8115Q3.7793 31.9785 4.15283 32.1323Q4.52637 32.2861 4.80322 32.4795Q5.08008 32.6729 5.24268 32.9233Q5.40527 33.1738 5.40527 33.5342Q5.40527 34.7998 3.50684 34.7998Q2.0918 34.7998 0.914063 33.9297ZM9.67236 34.7515Q10.8633 36.0127 12.8584 36.0127Q14.9063 36.0127 16.1235 34.7163Q17.3408 33.4199 17.3408 31.2666Q17.3408 29.0693 16.2114 27.8301Q15.082 26.5908 13.0693 26.5908Q10.96 26.5908 9.7207 27.8652Q8.48145 29.1396 8.48145 31.4072Q8.48145 33.4902 9.67236 34.7515ZM24.0029 35.8018L25.4443 35.8018L25.4443 26.8018L24.0029 26.8018L24.0029 35.8018ZM38.9619 35.8018L40.4033 35.8018L40.4033 26.8018L38.9619 26.8018L38.9619 35.8018ZM52.4443 37.2432L56.584 26.8018L55.0898 26.8018L52.5322 33.7451Q52.4004 34.2021 52.3564 34.4131L52.3037 34.4131Q52.1631 33.8594 52.1191 33.7275L49.6846 26.8018L48.085 26.8018L51.6006 35.7842L50.8799 37.4893Q50.335 38.79 49.2451 38.79Q48.8584 38.79 48.3926 38.6318L48.3926 39.9238Q48.7705 40.0381 49.333 40.0381Q51.3369 40.0381 52.4443 37.2432ZM10.7666 28.7485Q11.5752 27.8037 12.9639 27.8037Q14.3613 27.8037 15.1128 28.7178Q15.8643 29.6318 15.8643 31.3193Q15.8643 32.9893 15.1128 33.8945Q14.3613 34.7998 12.9639 34.7998Q11.5928 34.7998 10.7754 33.877Q9.95801 32.9541 9.95801 31.3545Q9.95801 29.6934 10.7666 28.7485ZM34.6025 31.7324L34.6025 30.4053Q34.6025 29.3154 33.8818 28.5596Q33.1611 27.8037 32.0537 27.8037Q30.7354 27.8037 29.9795 28.7705Q29.2236 29.7373 29.2236 31.4424Q29.2236 32.998 29.9487 33.8989Q30.6738 34.7998 31.8955 34.7998Q33.0996 34.7998 33.8511 33.9297Q34.6025 33.0596 34.6025 31.7324Z" />
        </g>
        <g fill="#FFFFFF" stroke="none" id="crafted-with" transform="translate(52.18848 3.095581)">
          <path d="M19.7578 10.1621Q19.4766 10.0039 19.1191 10.0039Q18.1113 10.0039 18.1113 11.2754L18.1113 12.2012L19.5176 12.2012L19.5176 13.0215L18.1113 13.0215L18.1113 18.2012L17.1563 18.2012L17.1563 13.0215L16.1309 13.0215L16.1309 12.2012L17.1563 12.2012L17.1563 11.2285Q17.1563 10.2852 17.7012 9.7373Q18.2461 9.18945 19.0605 9.18945Q19.5 9.18945 19.7578 9.29492L19.7578 10.1621ZM35.0508 18.2012L36.0117 18.2012L36.0117 9.31836L35.0508 9.31836L35.0508 13.0332L35.0273 13.0332Q34.4648 12.0605 33.2285 12.0605Q31.9805 12.0605 31.2305 12.957Q30.4805 13.8535 30.4805 15.3418Q30.4805 16.7305 31.1572 17.5361Q31.834 18.3418 32.9648 18.3418Q34.3594 18.3418 35.0273 17.1816L35.0508 17.1816L35.0508 18.2012ZM60.9082 18.2012L61.8691 18.2012L61.8691 14.5039Q61.8691 12.0605 59.8418 12.0605Q58.5645 12.0605 57.873 13.1973L57.8496 13.1973L57.8496 9.31836L56.8887 9.31836L56.8887 18.2012L57.8496 18.2012L57.8496 14.8027Q57.8496 13.9531 58.3301 13.4111Q58.8105 12.8691 59.5137 12.8691Q60.9082 12.8691 60.9082 14.7441L60.9082 18.2012ZM49.9688 10.502Q50.1504 10.6777 50.4082 10.6777Q50.6719 10.6777 50.8564 10.4961Q51.041 10.3145 51.041 10.0566Q51.041 9.78711 50.8564 9.6084Q50.6719 9.42969 50.4082 9.42969Q50.1504 9.42969 49.9688 9.6084Q49.7871 9.78711 49.7871 10.0566Q49.7871 10.3262 49.9688 10.502ZM22.4355 18.3301Q22.9922 18.3301 23.332 18.1426L23.332 17.3223Q23.0684 17.5215 22.7051 17.5215Q22.2305 17.5215 22.0254 17.2637Q21.8203 17.0059 21.8203 16.4023L21.8203 13.0215L23.332 13.0215L23.332 12.2012L21.8203 12.2012L21.8203 10.4258L20.8594 10.7363L20.8594 12.2012L19.8281 12.2012L19.8281 13.0215L20.8594 13.0215L20.8594 16.5723Q20.8594 18.3301 22.4355 18.3301ZM55.6055 18.1426Q55.2656 18.3301 54.709 18.3301Q53.1328 18.3301 53.1328 16.5723L53.1328 13.0215L52.1016 13.0215L52.1016 12.2012L53.1328 12.2012L53.1328 10.7363L54.0938 10.4258L54.0938 12.2012L55.6055 12.2012L55.6055 13.0215L54.0938 13.0215L54.0938 16.4023Q54.0938 17.0059 54.2988 17.2637Q54.5039 17.5215 54.9785 17.5215Q55.3418 17.5215 55.6055 17.3223L55.6055 18.1426ZM5.0625 17.9258Q4.37109 18.3418 3.42188 18.3418Q2.13867 18.3418 1.35059 17.5068Q0.5625 16.6719 0.5625 15.3418Q0.5625 13.8594 1.41211 12.96Q2.26172 12.0605 3.67969 12.0605Q4.4707 12.0605 5.07422 12.3535L5.07422 13.3379Q4.40625 12.8691 3.64453 12.8691Q2.72461 12.8691 2.13574 13.5283Q1.54688 14.1875 1.54688 15.2598Q1.54688 16.3145 2.10059 16.9238Q2.6543 17.5332 3.58594 17.5332Q4.37109 17.5332 5.0625 17.0117L5.0625 17.9258ZM14.0215 18.2012L14.9824 18.2012L14.9824 14.2988Q14.9824 12.0605 12.8672 12.0605Q11.7129 12.0605 10.8281 12.623L10.8281 13.6074Q11.7012 12.8691 12.7852 12.8691Q14.0215 12.8691 14.0215 14.3984L12.2227 14.6504Q10.2422 14.9258 10.2422 16.6074Q10.2422 17.3926 10.749 17.8672Q11.2559 18.3418 12.1523 18.3418Q13.3711 18.3418 13.998 17.2637L14.0215 17.2637L14.0215 18.2012ZM29.4375 15.4414L25.2012 15.4414Q25.2246 16.4434 25.7402 16.9883Q26.2559 17.5332 27.1582 17.5332Q28.1719 17.5332 29.0215 16.8652L29.0215 17.7676Q28.2305 18.3418 26.9297 18.3418Q25.6582 18.3418 24.9316 17.5244Q24.2051 16.707 24.2051 15.2246Q24.2051 13.8242 24.999 12.9424Q25.793 12.0605 26.9707 12.0605Q28.1484 12.0605 28.793 12.8223Q29.4375 13.584 29.4375 14.9375L29.4375 15.4414ZM9.64453 13.1738Q9.39258 12.9805 8.91797 12.9805Q8.30273 12.9805 7.88965 13.5605Q7.47656 14.1406 7.47656 15.1426L7.47656 18.2012L6.51563 18.2012L6.51563 12.2012L7.47656 12.2012L7.47656 13.4375L7.5 13.4375Q7.70508 12.8047 8.12695 12.4502Q8.54883 12.0957 9.07031 12.0957Q9.44531 12.0957 9.64453 12.1777L9.64453 13.1738ZM48.8027 12.2012L47.0039 18.2012L46.0078 18.2012L44.7715 13.9063Q44.7012 13.6602 44.6777 13.3496L44.6543 13.3496Q44.6367 13.5605 44.5313 13.8945L43.1895 18.2012L42.2285 18.2012L40.4121 12.2012L41.4199 12.2012L42.6621 16.7129Q42.7207 16.918 42.7441 17.252L42.791 17.252Q42.8086 16.9941 42.8965 16.7012L44.2793 12.2012L45.1582 12.2012L46.4004 16.7246Q46.459 16.9414 46.4883 17.2637L46.5352 17.2637Q46.5469 17.0352 46.6348 16.7246L47.8535 12.2012L48.8027 12.2012ZM49.916 18.2012L50.877 18.2012L50.877 12.2012L49.916 12.2012L49.916 18.2012ZM28.4531 14.627Q28.4473 13.7949 28.0518 13.332Q27.6563 12.8691 26.9531 12.8691Q26.2734 12.8691 25.7988 13.3555Q25.3242 13.8418 25.2129 14.627L28.4531 14.627ZM35.0508 14.6035L35.0508 15.4883Q35.0508 16.373 34.5498 16.9531Q34.0488 17.5332 33.2461 17.5332Q32.4316 17.5332 31.9482 16.9326Q31.4648 16.332 31.4648 15.2949Q31.4648 14.1582 31.9688 13.5137Q32.4727 12.8691 33.3516 12.8691Q34.0898 12.8691 34.5703 13.373Q35.0508 13.877 35.0508 14.6035ZM12.5742 15.3652L14.0215 15.166L14.0215 15.7637Q14.0215 16.5313 13.5557 17.0322Q13.0898 17.5332 12.375 17.5332Q11.8535 17.5332 11.54 17.2549Q11.2266 16.9766 11.2266 16.5371Q11.2266 15.9336 11.5664 15.6963Q11.9063 15.459 12.5742 15.3652Z" />
        </g>
      </g>
    </g>
    <g id="Solidity_logo" transform="translate(7.999756 0)">
      <path d="M0 0L43 0L43 47L0 47L0 0Z" id="Background" fill="none" stroke="none" />
      <g clip-path="url(#mask_1)">
        <g id="Page-1" transform="translate(12.63013 9.158035)">
          <g id="solidity">
            <g id="Group">
              <path d="M12.9638 5.51664e-07L8.64055 8.39861L0 8.39861L4.32031 0L12.9638 0" id="Shape" fill="#000000" fill-opacity="0.45" stroke="none" />
              <path d="M4.32024 8.39861L12.9638 8.39861L8.64352 0L0 0L4.32024 8.39861L4.32024 8.39861Z" transform="translate(4.320557 0)" id="Shape_1_" fill="#000000" fill-opacity="0.6" stroke="none" />
              <path d="M4.32031 16.794L8.64055 8.39861L4.32031 0L0 8.39861L4.32031 16.794L4.32031 16.794Z" id="Shape_2_" fill="#000000" fill-opacity="0.8" stroke="none" />
              <path d="M0 8.39864L4.32329 0L12.9669 0L8.64356 8.39864L0 8.39864" transform="translate(4.362061 20.99326)" id="Shape_3_" fill="#000000" fill-opacity="0.45" stroke="none" />
              <path d="M8.64356 0L0 0L4.32028 8.39864L12.9638 8.39864L8.64356 0L8.64356 0Z" transform="translate(0.04199227 20.99329)" id="Shape_4_" fill="#000000" fill-opacity="0.6" stroke="none" />
              <path d="M4.32031 0L0 8.39536L4.32031 16.794L8.64359 8.39536L4.32031 0L4.32031 0Z" transform="translate(8.685059 12.59793)" id="Shape_5_" fill="#000000" fill-opacity="0.8" stroke="none" />
            </g>
          </g>
        </g>
      </g>
    </g>
  </g>
</svg>