<svg width="100%" height="100%" viewBox="83 85 1130 780" fill="none" xmlns="http://www.w3.org/2000/svg">
<path d="M1192.28 98V97.5H1191.78H536C292.719 97.5 95.5 294.719 95.5 538V795V795.5H96H751.775C995.057 795.5 1192.28 598.281 1192.28 355V98Z" fill="url(#paint0_linear)" stroke="#C4C4C4"/>
<g filter="url(#filter0_f)">
<path d="M96 798H756.702C999.824 798 1196.87 600.823 1196.7 357.702L1196.53 98" stroke="url(#paint1_linear)" stroke-width="10"/>
</g>
<g filter="url(#filter1_f)">
<path d="M96 798H756.702C999.824 798 1196.87 600.823 1196.7 357.702L1196.53 98" stroke="url(#paint2_linear)" stroke-width="10"/>
</g>
<path d="M96 798H751.956C995.078 798 1192.12 600.824 1191.96 357.703L1191.78 98" stroke="url(#paint3_linear)" stroke-width="8"/>
<circle cx="95" cy="797" r="10" fill="#60C5D5" stroke="white" stroke-width="2"/>
<circle cx="1192" cy="98" r="10" fill="#EFFC6A" stroke="white" stroke-width="2"/>
<defs>
<filter id="filter0_f" x="28.043" y="30.0395" width="1241.62" height="840.917" filterUnits="userSpaceOnUse" color-interpolation-filters="sRGB">
<feFlood flood-opacity="0" result="BackgroundImageFix"/>
<feBlend mode="normal" in="SourceGraphic" in2="BackgroundImageFix" result="shape"/>
<feGaussianBlur stdDeviation="33.9785" result="effect1_foregroundBlur"/>
</filter>
<filter id="filter1_f" x="0.860138" y="2.85672" width="1295.98" height="895.283" filterUnits="userSpaceOnUse" color-interpolation-filters="sRGB">
<feFlood flood-opacity="0" result="BackgroundImageFix"/>
<feBlend mode="normal" in="SourceGraphic" in2="BackgroundImageFix" result="shape"/>
<feGaussianBlur stdDeviation="47.5699" result="effect1_foregroundBlur"/>
</filter>
<linearGradient id="paint0_linear" x1="0" y1="446.5" x2="179.393" y2="1438.96" gradientUnits="userSpaceOnUse">
<stop stop-color="#5BCCBD" stop-opacity="0.14902"/>
<stop offset="0.333333" stop-color="#61C0BF" stop-opacity="0.14902"/>
<stop offset="0.744946" stop-color="#55BCC8" stop-opacity="0.14902"/>
<stop offset="1" stop-color="#69CFB8" stop-opacity="0.14902"/>
</linearGradient>
<linearGradient id="paint1_linear" x1="653.882" y1="-246.86" x2="19.0815" y2="745.535" gradientUnits="userSpaceOnUse">
<stop stop-color="#5EC4D6"/>
<stop offset="1" stop-color="#F1FC68"/>
</linearGradient>
<linearGradient id="paint2_linear" x1="653.882" y1="-246.86" x2="19.0815" y2="745.535" gradientUnits="userSpaceOnUse">
<stop stop-color="#5EC4D6"/>
<stop offset="1" stop-color="#F1FC68"/>
</linearGradient>
<linearGradient id="paint3_linear" x1="651.477" y1="-246.86" x2="15.5298" y2="743.04" gradientUnits="userSpaceOnUse">
<stop stop-color="#F1FC68"/>
<stop offset="1" stop-color="#5EC4D6"/>
</linearGradient>
<linearGradient id="paint4_linear" x1="739.574" y1="-21.1018" x2="707.322" y2="54.8303" gradientUnits="userSpaceOnUse">
<stop stop-color="#5EC4D6"/>
<stop offset="1" stop-color="#F1FC68"/>
</linearGradient>
</defs>
</svg>
