<svg width="10" height="11" viewBox="0 0 10 11" fill="none" xmlns="http://www.w3.org/2000/svg">
<circle cx="5" cy="5.5" r="5" fill="white" fill-opacity="0.75"/>
<path fill-rule="evenodd" clip-rule="evenodd" d="M2.14258 5.32519V4.75372C2.14258 3.95367 2.77119 3.32506 3.57124 3.32506H6.88574L6.22855 2.66787C6.11426 2.55358 6.11426 2.38214 6.22855 2.26785C6.34284 2.15356 6.51428 2.15356 6.62858 2.26785L7.77151 3.41078C7.80008 3.43935 7.82865 3.46792 7.82865 3.4965C7.85723 3.55364 7.85723 3.63936 7.82865 3.72508C7.80008 3.75366 7.80008 3.78223 7.77151 3.8108L6.62858 4.95373C6.57143 5.01088 6.51428 5.03945 6.42856 5.03945C6.34284 5.03945 6.2857 5.01088 6.22855 4.95373C6.11426 4.83944 6.11426 4.668 6.22855 4.55371L6.88574 3.89652H3.57124C3.0855 3.89652 2.71404 4.26798 2.71404 4.75372V5.32519C2.71404 5.49663 2.59975 5.61092 2.42831 5.61092C2.25687 5.61092 2.14258 5.49663 2.14258 5.32519Z" fill="black"/>
<path fill-rule="evenodd" clip-rule="evenodd" d="M7.57216 5.61108C7.40072 5.61108 7.28643 5.72538 7.28643 5.89682V6.46828C7.28643 6.95403 6.91498 7.32548 6.42923 7.32548H3.11474L3.77192 6.66829C3.88622 6.554 3.88622 6.38256 3.77192 6.26827C3.65763 6.15398 3.48619 6.15398 3.3719 6.26827L2.22897 7.4112C2.20039 7.43977 2.17182 7.46834 2.17182 7.49692C2.14325 7.55406 2.14325 7.63978 2.17182 7.7255C2.20039 7.75408 2.20039 7.78265 2.22897 7.81122L3.3719 8.95415C3.42904 9.0113 3.48619 9.03987 3.57191 9.03987C3.65763 9.03987 3.71478 9.0113 3.77192 8.95415C3.88622 8.83986 3.88622 8.66842 3.77192 8.55413L3.11474 7.89694H6.42923C7.22928 7.89694 7.8579 7.26833 7.8579 6.46828V5.89682C7.8579 5.72538 7.7436 5.61108 7.57216 5.61108Z" fill="black"/>
</svg>
