<svg width="29" height="33" viewBox="0 0 29 33" fill="none" xmlns="http://www.w3.org/2000/svg">
<g clip-path="url(#clip0)">
<path fill-rule="evenodd" clip-rule="evenodd" d="M27.3493 6.63587L27.26 0.134511L20.7908 0L22.8513 2.09909L4.81852 20.2214C3.07852 16.231 3.92621 11.8369 7.00467 8.74318C9.72621 6.00813 13.5631 5.11139 17.0431 6.05297L20.1662 2.91438C14.9016 0.582857 8.43236 1.52443 4.10467 5.82878C-1.42764 11.3886 -1.24918 20.625 3.97082 26.1399L25.3639 4.64062L27.3493 6.63587ZM6.13466 30.9151L24.1816 12.7785C25.9216 16.769 25.0739 21.163 21.9955 24.2568C19.2739 26.9918 15.437 27.8886 11.957 26.947L8.83392 30.0856C14.0985 32.4171 20.5678 31.4755 24.8955 27.1263C30.4278 21.5666 30.2493 12.375 25.0293 6.8152L3.60501 28.3906L1.6062 26.409L1.74005 32.9103L8.20928 33L6.13466 30.9151Z" fill="url(#paint0_linear)"/>
</g>
<defs>
<linearGradient id="paint0_linear" x1="0.00370175" y1="16.4967" x2="29.0045" y2="16.4967" gradientUnits="userSpaceOnUse">
<stop stop-color="#0779E4"/>
<stop offset="0.9341" stop-color="#EA2C62"/>
</linearGradient>
<clipPath id="clip0">
<rect width="29" height="33" fill="white"/>
</clipPath>
</defs>
</svg>
