<svg width="15" height="17" viewBox="0 0 15 17" fill="none" xmlns="http://www.w3.org/2000/svg"><path fillRule="evenodd" clipRule="evenodd" d="M14.1453 3.41848L14.0991 0.0692935L10.7529 0L11.8187 1.08132L2.49139 10.4171C1.59139 8.36137 2.02985 6.09779 3.62215 4.50404C5.02985 3.09507 7.01446 2.63311 8.81446 3.11817L10.4298 1.50132C7.70677 0.300231 4.36062 0.785285 2.12215 3.00268C-0.739384 5.86681 -0.647076 10.625 2.05292 13.466L13.1183 2.39059L14.1453 3.41848ZM3.17179 15.926L12.5066 6.58276C13.4066 8.63846 12.9681 10.902 11.3758 12.4958C9.96809 13.9048 7.98348 14.3667 6.18348 13.8817L4.56809 15.4985C7.29117 16.6996 10.6373 16.2146 12.8758 13.9741C15.7373 11.1099 15.645 6.37488 12.945 3.51074L1.86335 14.6255L0.829373 13.6045L0.898604 16.9537L4.24476 16.9999L3.17179 15.926Z" fill="white"></path></svg>