<svg width="51" height="38" viewBox="0 0 51 38" fill="none" xmlns="http://www.w3.org/2000/svg">
<path d="M29.183 5.08449C28.1048 3.94779 26.2968 3.93828 25.2066 5.06358L17.6547 12.8591C16.4759 14.0759 14.5241 14.0759 13.3453 12.8591L5.79005 5.06016C4.70172 3.93672 2.89672 3.94622 1.82026 5.08104C0.803735 6.15268 0.815498 7.836 1.8469 8.89333L9.66933 16.9124C10.8032 18.0748 10.8064 19.9283 9.67656 21.0946L1.87611 29.1467C0.833585 30.2229 0.842595 31.935 1.89639 33.0001C2.98228 34.0977 4.75816 34.0883 5.83245 32.9794L13.3453 25.2242C14.5241 24.0074 16.4759 24.0074 17.6547 25.2242L25.1642 32.976C26.2403 34.0868 28.0192 34.0962 29.107 32.9967C30.1599 31.9324 30.1719 30.2226 29.1339 29.1437L21.383 21.0871C20.2627 19.9227 20.2659 18.0803 21.3902 16.9198L29.163 8.89629C30.1899 7.83628 30.1987 6.15524 29.183 5.08449Z" fill="url(#paint0_linear)" stroke="url(#paint1_linear)" stroke-width="0.25"/>
<g filter="url(#filter0_d)">
<path d="M45.183 5.08449C44.1048 3.94779 42.2968 3.93828 41.2066 5.06358L33.6547 12.8591C32.4759 14.0759 30.5241 14.0759 29.3453 12.8591L21.7901 5.06016C20.7017 3.93672 18.8967 3.94622 17.8203 5.08104C16.8037 6.15268 16.8155 7.836 17.8469 8.89333L25.6693 16.9124C26.8032 18.0748 26.8064 19.9283 25.6766 21.0946L17.8761 29.1467C16.8336 30.2229 16.8426 31.935 17.8964 33.0001C18.9823 34.0977 20.7582 34.0883 21.8324 32.9794L29.3453 25.2242C30.5241 24.0074 32.4759 24.0074 33.6547 25.2242L41.1642 32.976C42.2403 34.0868 44.0192 34.0962 45.107 32.9967C46.1599 31.9324 46.1719 30.2226 45.1339 29.1437L37.383 21.0871C36.2627 19.9227 36.2659 18.0803 37.3902 16.9198L45.163 8.89629C46.1899 7.83628 46.1987 6.15524 45.183 5.08449Z" fill="url(#paint2_linear)"/>
<path d="M45.183 5.08449C44.1048 3.94779 42.2968 3.93828 41.2066 5.06358L33.6547 12.8591C32.4759 14.0759 30.5241 14.0759 29.3453 12.8591L21.7901 5.06016C20.7017 3.93672 18.8967 3.94622 17.8203 5.08104C16.8037 6.15268 16.8155 7.836 17.8469 8.89333L25.6693 16.9124C26.8032 18.0748 26.8064 19.9283 25.6766 21.0946L17.8761 29.1467C16.8336 30.2229 16.8426 31.935 17.8964 33.0001C18.9823 34.0977 20.7582 34.0883 21.8324 32.9794L29.3453 25.2242C30.5241 24.0074 32.4759 24.0074 33.6547 25.2242L41.1642 32.976C42.2403 34.0868 44.0192 34.0962 45.107 32.9967C46.1599 31.9324 46.1719 30.2226 45.1339 29.1437L37.383 21.0871C36.2627 19.9227 36.2659 18.0803 37.3902 16.9198L45.163 8.89629C46.1899 7.83628 46.1987 6.15524 45.183 5.08449Z" stroke="url(#paint3_linear)" stroke-width="0.25"/>
</g>
<defs>
<filter id="filter0_d" x="12.9404" y="0.0986328" width="37.1234" height="37.8435" filterUnits="userSpaceOnUse" color-interpolation-filters="sRGB">
<feFlood flood-opacity="0" result="BackgroundImageFix"/>
<feColorMatrix in="SourceAlpha" type="matrix" values="0 0 0 0 0 0 0 0 0 0 0 0 0 0 0 0 0 0 127 0"/>
<feOffset/>
<feGaussianBlur stdDeviation="2"/>
<feColorMatrix type="matrix" values="0 0 0 0 0 0 0 0 0 0 0 0 0 0 0 0 0 0 1 0"/>
<feBlend mode="normal" in2="BackgroundImageFix" result="effect1_dropShadow"/>
<feBlend mode="normal" in="SourceGraphic" in2="effect1_dropShadow" result="shape"/>
</filter>
<linearGradient id="paint0_linear" x1="-2.8871e-08" y1="19" x2="31" y2="19" gradientUnits="userSpaceOnUse">
<stop stop-color="#6D6AFD"/>
<stop offset="1" stop-color="#AFE5FF"/>
</linearGradient>
<linearGradient id="paint1_linear" x1="-2.8871e-08" y1="19" x2="31" y2="19" gradientUnits="userSpaceOnUse">
<stop stop-color="#DFF4FE"/>
<stop offset="1" stop-color="#8EB5FF"/>
</linearGradient>
<linearGradient id="paint2_linear" x1="16" y1="19" x2="47" y2="19" gradientUnits="userSpaceOnUse">
<stop stop-color="#6D6AFD"/>
<stop offset="1" stop-color="#AFE5FF"/>
</linearGradient>
<linearGradient id="paint3_linear" x1="16" y1="19" x2="47" y2="19" gradientUnits="userSpaceOnUse">
<stop stop-color="#DFF4FE"/>
<stop offset="1" stop-color="#8EB5FF"/>
</linearGradient>
</defs>
</svg>
