<svg width="103" height="76" viewBox="0 0 103 76" fill="none" xmlns="http://www.w3.org/2000/svg">
<circle r="27" transform="matrix(0.995506 0.0946976 -0.106218 0.994343 70.0108 45.4041)" fill="#D0D0F7"/>
<path d="M88.4483 46.0352C88.1209 45.95 87.7772 45.9212 87.4387 45.9844L79.1625 32.2222C79.3636 31.9721 79.5349 31.7142 79.6333 31.377C79.9943 30.1404 79.2102 28.8783 77.9307 28.5457C76.6512 28.2131 75.2847 28.9464 74.9319 30.1549C74.8417 30.4641 74.8109 30.7887 74.8777 31.1084L60.3094 38.9023C60.0446 38.7125 59.7717 38.5508 59.4146 38.458C58.1054 38.1177 56.7686 38.8587 56.4158 40.0672C56.063 41.2757 56.8389 42.5659 58.1184 42.8985C58.4458 42.9836 58.7895 43.0125 59.1281 42.9493L67.4041 56.7114C67.2031 56.9616 67.0318 57.2193 66.9333 57.5566C66.5724 58.7932 67.3564 60.0553 68.636 60.3879C69.9155 60.7205 71.282 59.9872 71.6348 58.7787C71.725 58.4695 71.7557 58.145 71.689 57.8252L86.2656 50.0033C86.5302 50.1931 86.8031 50.3547 87.1603 50.4476C88.4695 50.7879 89.8063 50.0468 90.1591 48.8383C90.5118 47.6298 89.7575 46.3755 88.4483 46.0352ZM85.8278 46.8961L81.0989 46.7554C80.8517 46.1771 80.3549 45.6851 79.6704 45.5072C79.1647 45.3758 78.669 45.4283 78.23 45.6166L75.7128 43.6016C75.721 43.5735 75.721 43.5735 75.7292 43.5454C75.9589 42.7585 75.6715 41.9883 75.0476 41.4936L77.5087 33.0622C77.5385 33.07 77.5764 33.0496 77.6062 33.0574L85.8822 46.8195C85.8822 46.8195 85.836 46.868 85.8278 46.8961ZM69.9239 55.9756C69.8644 55.9602 69.8049 55.9447 69.7454 55.9292L67.8826 45.8599C68.2786 45.6 68.5802 45.2248 68.7196 44.747L72.0131 44.2122C72.2963 44.558 72.6934 44.8426 73.1398 44.9586C73.6159 45.0824 74.1114 45.0298 74.5423 44.8697L77.081 46.9205C77.081 46.9205 77.081 46.9205 77.0728 46.9486C76.9333 47.4263 76.9888 47.8943 77.188 48.3089L70.0727 56.0143C70.0429 56.0066 69.9834 55.9911 69.9239 55.9756ZM75.8126 32.6214L73.3515 41.0527C72.5769 41.1839 71.8742 41.7269 71.6527 42.4858C71.6445 42.5139 71.6362 42.542 71.6362 42.542L68.3808 43.0564C68.1057 42.6826 67.7086 42.3979 67.2028 42.2664C66.5184 42.0885 65.833 42.243 65.2985 42.6483L61.19 40.4918C61.1982 40.4637 61.1766 40.4279 61.193 40.3717L75.7695 32.5497C75.7613 32.5778 75.7911 32.5855 75.8126 32.6214ZM60.6762 42.1422L64.5333 44.1729C64.5253 45.0779 65.1185 45.8972 66.1004 46.1524L66.1302 46.1602L67.5001 53.5313L60.6762 42.1422ZM78.5086 49.3778L78.5384 49.3855C79.4906 49.633 80.4745 49.2237 80.9586 48.4424L85.3736 48.562C85.3736 48.562 85.3736 48.562 85.3654 48.5901L73.3322 55.0473L78.5086 49.3778Z" fill="#7D7D99"/>
<circle r="26.5" transform="matrix(0.995506 0.0946976 -0.106218 0.994343 73.0103 42.4031)" stroke="#7D7D99"/>
<ellipse rx="27" ry="27" transform="matrix(0.985388 -0.170324 0.190548 0.981678 32.7503 31.9066)" fill="#E9E9F7"/>
<ellipse rx="27" ry="27" transform="matrix(0.985388 -0.170324 0.190548 0.981678 32.7503 34.9075)" fill="#EDAED8"/>
<path d="M59.8631 27.393C62.6518 41.7604 53.2215 55.4283 38.7998 57.921C24.3781 60.4138 10.4263 50.7875 7.63748 36.4201C4.84871 22.0528 14.2791 8.38488 28.7008 5.8921C43.1224 3.39932 57.0743 13.0256 59.8631 27.393Z" stroke="black"/>
<path d="M54.6866 34.4972L49.9352 35.3184C50.1415 33.738 50.1001 32.0967 49.7788 30.4412C49.4575 28.7858 48.8797 27.2373 48.0932 25.8285L52.8462 25.0069L53.3389 24.9218L53.2436 24.4309L52.6215 21.2256L52.5262 20.7347L52.0335 20.8199L45.1146 22.0158C41.5144 18.6253 36.3706 16.9017 31.1167 17.8099C25.8628 18.718 21.7003 22.0501 19.6074 26.4247L12.6897 27.6204L12.197 27.7056L12.2923 28.1964L12.9144 31.4018L13.0097 31.8926L13.5024 31.8075L18.2542 30.9861C18.0479 32.5665 18.0893 34.2078 18.4106 35.8632C18.7319 37.5187 19.3097 39.0673 20.0963 40.4761L15.3428 41.2977L14.8501 41.3829L14.9454 41.8737L15.5676 45.0791L15.6629 45.5699L16.1556 45.4848L23.0749 44.2888C26.6751 47.6792 31.8189 49.4027 37.0727 48.4946C42.3266 47.5865 46.4891 44.2544 48.582 39.8799L55.4994 38.6842L55.9921 38.599L55.8968 38.1082L55.2746 34.9028L55.1793 34.412L54.6866 34.4972ZM35.0134 37.8864C37.6878 37.4241 39.4687 34.938 38.9589 32.3115C38.4491 29.6849 35.85 27.9559 33.1756 28.4181C30.5012 28.8804 28.7203 31.3665 29.2301 33.9931C29.7399 36.6196 32.339 38.3487 35.0134 37.8864ZM22.6747 35.1262C21.4806 28.974 25.6135 23.0886 31.9294 21.9969C38.2453 20.9052 44.3205 25.0261 45.5147 31.1783C46.7089 37.3305 42.5759 43.2159 36.26 44.3075C29.9441 45.3992 23.8689 41.2784 22.6747 35.1262Z" stroke="black"/>
</svg>
