<svg width="40" height="40" viewBox="0 0 40 40" fill="none" xmlns="http://www.w3.org/2000/svg">
<circle cx="20" cy="20" r="20" fill="black"/>
<path d="M33.0772 17.8739C32.7774 17.8739 32.4896 17.9399 32.2318 18.0538L21.9425 7.76856C22.0565 7.51068 22.1224 7.22281 22.1224 6.92295C22.1224 5.75349 21.169 4.79993 19.9998 4.79993C18.8306 4.79993 17.8772 5.75349 17.8772 6.92295C17.8772 7.22281 17.9432 7.51068 18.0571 7.76856L7.76785 18.0538C7.51002 17.9399 7.22221 17.8739 6.92241 17.8739C5.75318 17.8739 4.7998 18.8275 4.7998 19.9969C4.7998 21.1664 5.75318 22.1199 6.92241 22.1199C7.22221 22.1199 7.51002 22.054 7.76785 21.94L18.0571 32.2313C17.9432 32.4892 17.8772 32.777 17.8772 33.0769C17.8772 34.2464 18.8306 35.1999 19.9998 35.1999C21.169 35.1999 22.1224 34.2464 22.1224 33.0769C22.1224 32.777 22.0565 32.4892 21.9425 32.2313L32.2318 21.94C32.4896 22.054 32.7774 22.1199 33.0772 22.1199C34.2464 22.1199 35.1998 21.1664 35.1998 19.9969C35.1998 18.8275 34.2524 17.8739 33.0772 17.8739ZM31.0985 19.2413L27.1111 20.2128C26.7753 19.745 26.2297 19.4392 25.6121 19.4392C25.1624 19.4392 24.7547 19.6011 24.4309 19.865L21.8406 18.6476C21.8406 18.6296 21.8406 18.6116 21.8406 18.5876C21.8406 17.8439 21.4029 17.2082 20.7673 16.9143V8.89004C20.7913 8.87805 20.8153 8.87205 20.8393 8.86006L31.1285 19.1513C31.1225 19.1813 31.1105 19.2113 31.0985 19.2413ZM19.9998 30.9599C19.9518 30.9599 19.9039 30.9659 19.8499 30.9659L15.8086 22.4618C16.0724 22.1439 16.2283 21.7361 16.2283 21.2923C16.2283 21.2863 16.2283 21.2863 16.2283 21.2803L18.8546 20.0449C19.1664 20.2908 19.5681 20.4407 19.9938 20.4407C20.4255 20.4407 20.8273 20.2908 21.1391 20.0389L23.7653 21.2743C23.7653 21.2803 23.7653 21.2863 23.7653 21.2923C23.7653 21.7361 23.9212 22.1439 24.1851 22.4618L20.1437 30.9659C20.0957 30.9599 20.0478 30.9599 19.9998 30.9599ZM19.2263 8.89004V16.9203C18.5967 17.2142 18.153 17.8499 18.153 18.5936C18.153 18.6176 18.153 18.6356 18.159 18.6595L15.5687 19.877C15.2449 19.6071 14.8372 19.4452 14.3815 19.4452C13.7639 19.4452 13.2183 19.751 12.8825 20.2188L8.90111 19.2413C8.88911 19.2113 8.87712 19.1813 8.86513 19.1453L19.1544 8.85406C19.1783 8.87205 19.2023 8.88405 19.2263 8.89004ZM8.87113 20.8365L12.5947 21.7481C12.7985 22.5458 13.5181 23.1395 14.3815 23.1395C14.3935 23.1395 14.3995 23.1395 14.4115 23.1395L17.3675 29.3586L8.86513 20.8485C8.86513 20.8425 8.87113 20.8365 8.87113 20.8365ZM25.5821 23.1395C25.5941 23.1395 25.6061 23.1395 25.6181 23.1395C26.4815 23.1395 27.2071 22.5458 27.4049 21.7421L31.1285 20.8305C31.1285 20.8365 31.1345 20.8425 31.1345 20.8485L22.6261 29.3586L25.5821 23.1395Z" fill="url(#paint0_linear)"/>
<defs>
<linearGradient id="paint0_linear" x1="4.79743" y1="19.9996" x2="35.2022" y2="19.9996" gradientUnits="userSpaceOnUse">
<stop stop-color="#0779E4"/>
<stop offset="0.9341" stop-color="#1DD3BD"/>
</linearGradient>
</defs>
</svg>
