<svg width="25" height="25" viewBox="0 0 25 25" fill="none" xmlns="http://www.w3.org/2000/svg">
<circle cx="12.5" cy="12.5" r="12.5" fill="white"/>
<path d="M12.4937 20.7725V18.4951" stroke="url(#paint0_linear)" stroke-linecap="square"/>
<path d="M11.5469 21.1675C11.5469 21.1675 -0.915811 16.8491 4.25723 8.16357" stroke="url(#paint1_linear)" stroke-linecap="square"/>
<path d="M13.4531 21.2676C13.4531 21.2676 25.9158 16.9492 20.7428 8.26367" stroke="url(#paint2_linear)" stroke-linecap="square"/>
<path d="M13.5507 17.2735C13.5507 17.2735 18.1481 14.9529 16.2398 10.2856" stroke="url(#paint3_linear)" stroke-linecap="square"/>
<path d="M11.3516 17.3116C11.3516 17.3116 6.75423 14.991 8.66251 10.3237" stroke="url(#paint4_linear)" stroke-linecap="square"/>
<path d="M6.33594 7.80127C6.94972 7.96297 8.15929 8.82197 8.15929 8.82197" stroke="#3D1967" stroke-linecap="square"/>
<path d="M18.77 7.73535C18.0156 7.88175 16.5288 8.65949 16.5288 8.65949" stroke="url(#paint5_linear)" stroke-linecap="square"/>
<path d="M9.75049 8.85128C9.75049 8.85128 11.0531 7.82812 12.5744 7.82812C14.0957 7.82812 15.1596 8.78527 15.1596 8.78527" stroke="url(#paint6_linear)" stroke-linecap="square"/>
<path d="M18.8984 7.07548C18.8984 7.07548 17.3156 6.89018 16.0144 6.29726C14.7132 5.70434 13.5424 4.76514 13.5424 4.76514" stroke="url(#paint7_linear)" stroke-linecap="square"/>
<path d="M6.13037 7.1414C6.13037 7.1414 7.72677 6.95609 9.03914 6.36318C10.3515 5.77026 11.5324 4.83105 11.5324 4.83105" stroke="url(#paint8_linear)" stroke-linecap="square"/>
<path d="M12.6167 5.45898C12.6167 5.45898 14.0521 8.31732 15.3184 8.82425" stroke="url(#paint9_linear)" stroke-linecap="square"/>
<path d="M12.4688 5.34814C12.4688 5.34814 11.0333 8.20648 9.76709 8.71341" stroke="url(#paint10_linear)" stroke-linecap="square"/>
<ellipse cx="8.79156" cy="9.39775" rx="0.911674" ry="0.942187" fill="white" stroke="#3D1967" stroke-width="0.5"/>
<ellipse cx="15.9507" cy="9.39775" rx="0.911674" ry="0.942187" fill="white" stroke="#581B66" stroke-width="0.5"/>
<ellipse cx="19.7696" cy="7.43877" rx="0.911674" ry="0.942187" fill="white" stroke="#5D1C67" stroke-width="0.5"/>
<ellipse cx="5.1729" cy="7.62871" rx="0.911674" ry="0.942186" fill="white" stroke="#341967" stroke-width="0.5"/>
<ellipse cx="12.4517" cy="17.596" rx="0.911674" ry="0.942187" fill="white" stroke="#7A1D66" stroke-width="0.5"/>
<ellipse cx="12.4517" cy="21.5579" rx="0.911674" ry="0.942187" fill="white" stroke="#8F1F65" stroke-width="0.5"/>
<ellipse cx="12.564" cy="4.44219" rx="0.911674" ry="0.942187" fill="white" stroke="#301867" stroke-width="0.5"/>
<defs>
<linearGradient id="paint0_linear" x1="12.4144" y1="19.6338" x2="12.7299" y2="19.6557" gradientUnits="userSpaceOnUse">
<stop stop-color="#7A1D66"/>
<stop offset="1" stop-color="#8F1F65"/>
</linearGradient>
<linearGradient id="paint1_linear" x1="-1.27347" y1="14.6655" x2="10.6637" y2="22.5113" gradientUnits="userSpaceOnUse">
<stop stop-color="#341967"/>
<stop offset="1" stop-color="#8F1F65"/>
</linearGradient>
<linearGradient id="paint2_linear" x1="26.2735" y1="14.7656" x2="14.3363" y2="22.6114" gradientUnits="userSpaceOnUse">
<stop stop-color="#5D1C67"/>
<stop offset="1" stop-color="#8F1F65"/>
</linearGradient>
<linearGradient id="paint3_linear" x1="18.28" y1="13.7796" x2="13.0409" y2="16.1435" gradientUnits="userSpaceOnUse">
<stop stop-color="#581B66"/>
<stop offset="1" stop-color="#7A1D66"/>
</linearGradient>
<linearGradient id="paint4_linear" x1="6.62229" y1="13.8177" x2="11.8615" y2="16.1815" gradientUnits="userSpaceOnUse">
<stop stop-color="#3D1967"/>
<stop offset="1" stop-color="#7A1D66"/>
</linearGradient>
<linearGradient id="paint5_linear" x1="19.8906" y1="8.19742" x2="19.2392" y2="9.77711" gradientUnits="userSpaceOnUse">
<stop stop-color="#5D1C67"/>
<stop offset="1" stop-color="#581B66"/>
</linearGradient>
<linearGradient id="paint6_linear" x1="9.75049" y1="9.36285" x2="15.1596" y2="9.36287" gradientUnits="userSpaceOnUse">
<stop stop-color="#3B1967"/>
<stop offset="1" stop-color="#491A66"/>
</linearGradient>
<linearGradient id="paint7_linear" x1="16.0199" y1="3.6269" x2="17.9365" y2="7.7219" gradientUnits="userSpaceOnUse">
<stop stop-color="#301867"/>
<stop offset="1" stop-color="#5D1C67"/>
</linearGradient>
<linearGradient id="paint8_linear" x1="3.42937" y1="5.98623" x2="5.09999" y2="9.89242" gradientUnits="userSpaceOnUse">
<stop stop-color="#341967"/>
<stop offset="1" stop-color="#301867"/>
</linearGradient>
<linearGradient id="paint9_linear" x1="14.0867" y1="3.72573" x2="17.4163" y2="6.58433" gradientUnits="userSpaceOnUse">
<stop stop-color="#301867"/>
<stop offset="1" stop-color="#581B66"/>
</linearGradient>
<linearGradient id="paint10_linear" x1="10.9988" y1="3.61489" x2="7.66912" y2="6.47349" gradientUnits="userSpaceOnUse">
<stop stop-color="#301867"/>
<stop offset="1" stop-color="#3D1967"/>
</linearGradient>
</defs>
</svg>
