<svg width="224" height="224" viewBox="0 0 224 224" fill="none" xmlns="http://www.w3.org/2000/svg">
<circle cx="112" cy="113" r="110" fill="black"/>
<path d="M185.13 100.7C183.454 100.7 181.844 101.067 180.402 101.701L122.864 44.5076C123.501 43.0736 123.87 41.4729 123.87 39.8055C123.87 33.3025 118.538 28 112 28C105.462 28 100.13 33.3025 100.13 39.8055C100.13 41.4729 100.499 43.0736 101.136 44.5076L43.5976 101.701C42.1558 101.067 40.5464 100.7 38.8698 100.7C32.3314 100.7 27 106.003 27 112.506C27 119.009 32.3314 124.311 38.8698 124.311C40.5464 124.311 42.1558 123.944 43.5976 123.311L101.136 180.537C100.499 181.971 100.13 183.572 100.13 185.239C100.13 191.742 105.462 197.045 112 197.045C118.538 197.045 123.87 191.742 123.87 185.239C123.87 183.572 123.501 181.971 122.864 180.537L180.402 123.311C181.844 123.944 183.454 124.311 185.13 124.311C191.669 124.311 197 119.009 197 112.506C197 106.003 191.702 100.7 185.13 100.7ZM174.065 108.304L151.767 113.706C149.89 111.105 146.838 109.404 143.385 109.404C140.87 109.404 138.59 110.305 136.779 111.772L122.294 105.002C122.294 104.902 122.294 104.802 122.294 104.669C122.294 100.534 119.846 96.9986 116.292 95.3645V50.7439C116.426 50.6772 116.56 50.6438 116.694 50.5771L174.233 107.804C174.199 107.97 174.132 108.137 174.065 108.304ZM112 173.467C111.732 173.467 111.464 173.501 111.162 173.501L88.5621 126.212C90.0375 124.445 90.9093 122.177 90.9093 119.709C90.9093 119.676 90.9093 119.676 90.9093 119.642L105.596 112.773C107.339 114.14 109.586 114.974 111.966 114.974C114.381 114.974 116.627 114.14 118.371 112.739L133.057 119.609C133.057 119.642 133.057 119.676 133.057 119.709C133.057 122.177 133.929 124.445 135.404 126.212L112.805 173.501C112.536 173.467 112.268 173.467 112 173.467ZM107.675 50.7439V95.3979C104.154 97.032 101.673 100.567 101.673 104.702C101.673 104.836 101.673 104.936 101.706 105.069L87.2209 111.839C85.4103 110.338 83.1302 109.438 80.5819 109.438C77.1282 109.438 74.0769 111.138 72.1992 113.74L49.9349 108.304C49.8679 108.137 49.8008 107.97 49.7337 107.77L107.272 50.5438C107.406 50.6438 107.54 50.7105 107.675 50.7439ZM49.7673 117.175L70.5897 122.244C71.7298 126.679 75.7535 129.981 80.5819 129.981C80.6489 129.981 80.6824 129.981 80.7495 129.981L97.2801 164.563L49.7337 117.241C49.7337 117.208 49.7673 117.175 49.7673 117.175ZM143.217 129.981C143.284 129.981 143.351 129.981 143.418 129.981C148.247 129.981 152.304 126.679 153.41 122.21L174.233 117.141C174.233 117.175 174.266 117.208 174.266 117.241L126.686 164.563L143.217 129.981Z" fill="url(#paint0_linear)"/>
<defs>
<linearGradient id="paint0_linear" x1="26.9867" y1="112.52" x2="197.013" y2="112.52" gradientUnits="userSpaceOnUse">
<stop stop-color="#0779E4"/>
<stop offset="0.9341" stop-color="#1DD3BD"/>
</linearGradient>
</defs>
</svg>
