<svg width="25" height="25" viewBox="0 0 25 25" fill="none" xmlns="http://www.w3.org/2000/svg">
<circle cx="12.5" cy="12.5" r="12.5" fill="white"/>
<path d="M11.7635 4.02246L7.81152 11.1002" stroke="url(#paint0_linear)"/>
<path d="M11.6086 3.78857L3.70459 11.9552" stroke="url(#paint1_linear)"/>
<path d="M12.9261 3.94434L16.9556 11.1776" stroke="url(#paint2_linear)"/>
<path d="M13.1587 3.71094L21.4502 11.8775" stroke="url(#paint3_linear)"/>
<path d="M11.3945 21.3423L3.632 13.6669" stroke="url(#paint4_linear)"/>
<path d="M13.1633 21.522L21.2998 13.4332" stroke="url(#paint5_linear)"/>
<path d="M12.3833 14.833L12.3058 20.9774" stroke="url(#paint6_linear)"/>
<path d="M20.9897 12.5781L17.8901 12.0337" stroke="url(#paint7_linear)"/>
<path d="M16.4951 12.2671L13.0855 13.6671" stroke="url(#paint8_linear)"/>
<path d="M11.5361 13.6669L8.28154 12.1113" stroke="url(#paint9_linear)"/>
<path d="M6.88672 11.8003L3.94017 12.6558" stroke="url(#paint10_linear)"/>
<ellipse rx="1.16235" ry="1.16666" transform="matrix(-1 0 0 1 12.2336 21.8332)" fill="#8F1F65"/>
<ellipse rx="0.774903" ry="0.77777" transform="matrix(-1 0 0 1 12.2339 21.8339)" fill="white"/>
<ellipse rx="1.23985" ry="1.24443" transform="matrix(-1 0 0 1 12.3109 3.24443)" fill="#301867"/>
<ellipse rx="0.826564" ry="0.829621" transform="matrix(-1 0 0 1 12.3111 3.24417)" fill="white"/>
<ellipse rx="1.23985" ry="1.24443" transform="matrix(-1 0 0 1 3.23964 12.7332)" fill="#391967"/>
<ellipse rx="0.826566" ry="0.829621" transform="matrix(-1 0 0 1 3.23984 12.7334)" fill="white"/>
<ellipse rx="1.16236" ry="1.16665" transform="matrix(-1 0 0 1 21.8376 12.6554)" fill="#7B1E65"/>
<ellipse rx="0.774904" ry="0.777769" transform="matrix(-1 0 0 1 21.8374 12.6552)" fill="white"/>
<ellipse rx="1.00738" ry="1.0111" transform="matrix(-1 0 0 1 7.58393 11.7225)" fill="#421967"/>
<ellipse rx="0.671584" ry="0.674067" transform="matrix(-1 0 0 1 7.58379 11.7224)" fill="white"/>
<ellipse rx="1.00738" ry="1.0111" transform="matrix(-1 0 0 1 17.1928 11.8783)" fill="#661C66"/>
<ellipse rx="0.671584" ry="0.674067" transform="matrix(-1 0 0 1 17.1932 11.8787)" fill="white"/>
<ellipse rx="1.00738" ry="1.0111" transform="matrix(-1 0 0 1 12.3886 13.9003)" fill="#621B66"/>
<ellipse rx="0.671583" ry="0.674067" transform="matrix(-1 0 0 1 12.3885 13.9006)" fill="white"/>
<defs>
<linearGradient id="paint0_linear" x1="9.74764" y1="0.506726" x2="3.75968" y2="3.94754" gradientUnits="userSpaceOnUse">
<stop stop-color="#301867"/>
<stop offset="1" stop-color="#421967"/>
</linearGradient>
<linearGradient id="paint1_linear" x1="7.77937" y1="-1.1885" x2="-0.687368" y2="7.31638" gradientUnits="userSpaceOnUse">
<stop stop-color="#2C1868"/>
<stop offset="1" stop-color="#391967"/>
</linearGradient>
<linearGradient id="paint2_linear" x1="14.9815" y1="0.351331" x2="21.0939" y2="3.8555" gradientUnits="userSpaceOnUse">
<stop stop-color="#301867"/>
<stop offset="1" stop-color="#681C66"/>
</linearGradient>
<linearGradient id="paint3_linear" x1="17.1757" y1="-1.26614" x2="25.6309" y2="7.64352" gradientUnits="userSpaceOnUse">
<stop stop-color="#2C1868"/>
<stop offset="1" stop-color="#7C1E66"/>
</linearGradient>
<linearGradient id="paint4_linear" x1="15.2619" y1="17.5115" x2="7.60092" y2="9.7496" gradientUnits="userSpaceOnUse">
<stop stop-color="#8F1F65"/>
<stop offset="1" stop-color="#411967"/>
</linearGradient>
<linearGradient id="paint5_linear" x1="17.1052" y1="26.4516" x2="25.4836" y2="17.7046" gradientUnits="userSpaceOnUse">
<stop stop-color="#8F1F65"/>
<stop offset="1" stop-color="#7C1E66"/>
</linearGradient>
<linearGradient id="paint6_linear" x1="12.422" y1="17.9052" x2="12.2671" y2="17.9072" gradientUnits="userSpaceOnUse">
<stop stop-color="#681C66"/>
<stop offset="1" stop-color="#8F1F65"/>
</linearGradient>
<linearGradient id="paint7_linear" x1="19.5376" y1="12.8585" x2="19.3447" y2="11.8111" gradientUnits="userSpaceOnUse">
<stop stop-color="#7D1D66"/>
<stop offset="1" stop-color="#6C1C65"/>
</linearGradient>
<linearGradient id="paint8_linear" x1="18.1999" y1="12.9671" x2="17.2161" y2="15.3631" gradientUnits="userSpaceOnUse">
<stop stop-color="#671C66"/>
<stop offset="1" stop-color="#641C66"/>
</linearGradient>
<linearGradient id="paint9_linear" x1="10.1707" y1="14.4872" x2="8.77029" y2="12.0031" gradientUnits="userSpaceOnUse">
<stop stop-color="#631B66"/>
<stop offset="1" stop-color="#421967"/>
</linearGradient>
<linearGradient id="paint10_linear" x1="8.35999" y1="12.2281" x2="7.90179" y2="13.8061" gradientUnits="userSpaceOnUse">
<stop stop-color="#421A67"/>
<stop offset="1" stop-color="#411967"/>
</linearGradient>
</defs>
</svg>
