<?xml version="1.0" encoding="UTF-8"?>
<!DOCTYPE svg PUBLIC "-//W3C//DTD SVG 1.1//EN" "http://www.w3.org/Graphics/SVG/1.1/DTD/svg11.dtd">
<!-- Creator: CorelDRAW X7 -->
<svg xmlns="http://www.w3.org/2000/svg" xml:space="preserve" width="7.5in" height="7.5in" version="1.1" style="shape-rendering:geometricPrecision; text-rendering:geometricPrecision; image-rendering:optimizeQuality; fill-rule:evenodd; clip-rule:evenodd"
viewBox="0 0 7500 7500"
 xmlns:xlink="http://www.w3.org/1999/xlink">
 <defs>
  <style type="text/css">
   <![CDATA[
    .fil0 {fill:none}
    .fil1 {fill:#F0F0F0}
    .fil2 {fill:#1C2143;fill-rule:nonzero}
    .fil3 {fill:#2EA7E0;fill-rule:nonzero}
   ]]>
  </style>
 </defs>
 <g id="Layer_x0020_1">
  <metadata id="CorelCorpID_0Corel-Layer"/>
  <rect class="fil0" width="7500" height="7500"/>
  <g id="_1851889811152">
   <circle class="fil1" cx="3750" cy="3750" r="3100"/>
   <g>
    <path class="fil2" d="M3624 1163c76,14 232,227 276,293 440,676 538,1383 79,2052 -266,383 -625,759 -799,1195 -174,429 -86,847 120,1250 48,98 108,191 155,289 10,25 26,54 11,80 -28,22 -68,11 -100,7 -770,-159 -1340,-1004 -1300,-1773 15,-334 139,-657 328,-931 227,-335 562,-589 798,-935 214,-309 342,-671 394,-1041 25,-161 31,-324 38,-486z"/>
    <path class="fil3" d="M4742 3244c1,-2 1,-4 3,-6 2,-1 4,0 7,-1 23,11 41,30 60,47 517,459 755,1168 551,1837 -73,241 -208,462 -383,644 -144,151 -256,220 -433,324 -74,43 -143,87 -192,140 -32,32 -55,72 -82,108 -94,-26 -328,-393 -372,-489 -177,-386 -98,-795 74,-1167 166,-359 418,-650 601,-1001 70,-139 142,-281 166,-436z"/>
   </g>
  </g>
 </g>
</svg>
