<svg width="25" height="25" viewBox="0 0 25 25" fill="none" xmlns="http://www.w3.org/2000/svg">
<circle cx="12.5" cy="12.5" r="12.5" fill="white"/>
<path d="M5.71148 13.9326C5.82828 13.9326 5.92296 13.8379 5.92296 13.7211C5.92296 13.6043 5.82828 13.5096 5.71148 13.5096C5.59468 13.5096 5.5 13.6043 5.5 13.7211C5.5 13.8379 5.59468 13.9326 5.71148 13.9326Z" fill="black"/>
<path d="M8.65191 13.6769C8.76871 13.6769 8.86339 13.5822 8.86339 13.4654C8.86339 13.3486 8.76871 13.2539 8.65191 13.2539C8.53511 13.2539 8.44043 13.3486 8.44043 13.4654C8.44043 13.5822 8.53511 13.6769 8.65191 13.6769Z" fill="black"/>
<path d="M9.50152 14.8876C9.61832 14.8876 9.713 14.7929 9.713 14.6761C9.713 14.5593 9.61832 14.4646 9.50152 14.4646C9.38472 14.4646 9.29004 14.5593 9.29004 14.6761C9.29004 14.7929 9.38472 14.8876 9.50152 14.8876Z" fill="black"/>
<path d="M12.0074 14.0007C12.1242 14.0007 12.2189 13.906 12.2189 13.7892C12.2189 13.6724 12.1242 13.5778 12.0074 13.5778C11.8906 13.5778 11.7959 13.6724 11.7959 13.7892C11.7959 13.906 11.8906 14.0007 12.0074 14.0007Z" fill="black"/>
<path d="M5.8814 7.48229C5.9982 7.48229 6.09288 7.3876 6.09288 7.27081C6.09288 7.15401 5.9982 7.05933 5.8814 7.05933C5.7646 7.05933 5.66992 7.15401 5.66992 7.27081C5.66992 7.3876 5.7646 7.48229 5.8814 7.48229Z" fill="black"/>
<path d="M6.10284 10.1567C6.28369 10.1567 6.4303 10.0101 6.4303 9.82928C6.4303 9.64844 6.28369 9.50183 6.10284 9.50183C5.922 9.50183 5.77539 9.64844 5.77539 9.82928C5.77539 10.0101 5.922 10.1567 6.10284 10.1567Z" fill="black"/>
<path d="M11.4242 13.2264C11.575 13.2264 11.6971 13.1042 11.6971 12.9535C11.6971 12.8028 11.575 12.6807 11.4242 12.6807C11.2735 12.6807 11.1514 12.8028 11.1514 12.9535C11.1514 13.1042 11.2735 13.2264 11.4242 13.2264Z" fill="black"/>
<path d="M5.92229 16.5522C6.073 16.5522 6.19517 16.4301 6.19517 16.2793C6.19517 16.1286 6.073 16.0065 5.92229 16.0065C5.77159 16.0065 5.64941 16.1286 5.64941 16.2793C5.64941 16.4301 5.77159 16.5522 5.92229 16.5522Z" fill="black"/>
<path d="M8.02282 15.1024C8.1886 15.1024 8.32299 14.968 8.32299 14.8022C8.32299 14.6365 8.1886 14.5021 8.02282 14.5021C7.85705 14.5021 7.72266 14.6365 7.72266 14.8022C7.72266 14.968 7.85705 15.1024 8.02282 15.1024Z" fill="black"/>
<path d="M11.1986 17.3983C11.3644 17.3983 11.4988 17.2639 11.4988 17.0981C11.4988 16.9324 11.3644 16.798 11.1986 16.798C11.0328 16.798 10.8984 16.9324 10.8984 17.0981C10.8984 17.2639 11.0328 17.3983 11.1986 17.3983Z" fill="black"/>
<path d="M10.3462 16.1257C10.4781 16.1257 10.585 16.0188 10.585 15.887C10.585 15.7551 10.4781 15.6482 10.3462 15.6482C10.2143 15.6482 10.1074 15.7551 10.1074 15.887C10.1074 16.0188 10.2143 16.1257 10.3462 16.1257Z" fill="black"/>
<path d="M6.77514 17.8551C6.97295 17.8551 7.1333 17.6947 7.1333 17.4969C7.1333 17.2991 6.97295 17.1388 6.77514 17.1388C6.57734 17.1388 6.41699 17.2991 6.41699 17.4969C6.41699 17.6947 6.57734 17.8551 6.77514 17.8551Z" fill="black"/>
<path d="M8.20444 8.99006C8.50774 8.99006 8.75361 8.74419 8.75361 8.44089C8.75361 8.13759 8.50774 7.89172 8.20444 7.89172C7.90114 7.89172 7.65527 8.13759 7.65527 8.44089C7.65527 8.74419 7.90114 8.99006 8.20444 8.99006Z" fill="black"/>
<path d="M7.34838 7.70066C7.67993 7.70066 7.94871 7.43188 7.94871 7.10033C7.94871 6.76878 7.67993 6.5 7.34838 6.5C7.01682 6.5 6.74805 6.76878 6.74805 7.10033C6.74805 7.43188 7.01682 7.70066 7.34838 7.70066Z" fill="black"/>
<path d="M7.56974 10.3408C7.8542 10.3408 8.0848 10.1102 8.0848 9.82573C8.0848 9.54127 7.8542 9.31067 7.56974 9.31067C7.28529 9.31067 7.05469 9.54127 7.05469 9.82573C7.05469 10.1102 7.28529 10.3408 7.56974 10.3408Z" fill="black"/>
<path d="M9.05406 10.1123C9.35359 10.1123 9.59641 9.86946 9.59641 9.56993C9.59641 9.2704 9.35359 9.02759 9.05406 9.02759C8.75453 9.02759 8.51172 9.2704 8.51172 9.56993C8.51172 9.86946 8.75453 10.1123 9.05406 10.1123Z" fill="black"/>
<path d="M6.95597 11.5515C7.24231 11.5515 7.47444 11.3193 7.47444 11.033C7.47444 10.7467 7.24231 10.5145 6.95597 10.5145C6.66963 10.5145 6.4375 10.7467 6.4375 11.033C6.4375 11.3193 6.66963 11.5515 6.95597 11.5515Z" fill="black"/>
<path d="M8.42623 11.4051C8.69939 11.4051 8.92082 11.1836 8.92082 10.9105C8.92082 10.6373 8.69939 10.4159 8.42623 10.4159C8.15308 10.4159 7.93164 10.6373 7.93164 10.9105C7.93164 11.1836 8.15308 11.4051 8.42623 11.4051Z" fill="black"/>
<path d="M9.90635 11.2105C10.1437 11.2105 10.3361 11.0181 10.3361 10.7807C10.3361 10.5434 10.1437 10.351 9.90635 10.351C9.66898 10.351 9.47656 10.5434 9.47656 10.7807C9.47656 11.0181 9.66898 11.2105 9.90635 11.2105Z" fill="black"/>
<path d="M9.27841 12.5543C9.51578 12.5543 9.7082 12.3618 9.7082 12.1245C9.7082 11.8871 9.51578 11.6947 9.27841 11.6947C9.04105 11.6947 8.84863 11.8871 8.84863 12.1245C8.84863 12.3618 9.04105 12.5543 9.27841 12.5543Z" fill="black"/>
<path d="M7.79892 12.684C8.03629 12.684 8.22871 12.4916 8.22871 12.2542C8.22871 12.0169 8.03629 11.8245 7.79892 11.8245C7.56156 11.8245 7.36914 12.0169 7.36914 12.2542C7.36914 12.4916 7.56156 12.684 7.79892 12.684Z" fill="black"/>
<path d="M7.17477 14.079C7.44605 14.079 7.66595 13.8591 7.66595 13.5879C7.66595 13.3166 7.44605 13.0967 7.17477 13.0967C6.9035 13.0967 6.68359 13.3166 6.68359 13.5879C6.68359 13.8591 6.9035 14.079 7.17477 14.079Z" fill="black"/>
<path d="M6.55086 15.365C6.79199 15.365 6.98747 15.1696 6.98747 14.9284C6.98747 14.6873 6.79199 14.4918 6.55086 14.4918C6.30973 14.4918 6.11426 14.6873 6.11426 14.9284C6.11426 15.1696 6.30973 15.365 6.55086 15.365Z" fill="black"/>
<path d="M10.9741 15.0275C11.2435 15.0275 11.4619 14.8092 11.4619 14.5398C11.4619 14.2704 11.2435 14.052 10.9741 14.052C10.7047 14.052 10.4863 14.2704 10.4863 14.5398C10.4863 14.8092 10.7047 15.0275 10.9741 15.0275Z" fill="black"/>
<path d="M10.1181 13.8266C10.3894 13.8266 10.6093 13.6067 10.6093 13.3354C10.6093 13.0641 10.3894 12.8442 10.1181 12.8442C9.84686 12.8442 9.62695 13.0641 9.62695 13.3354C9.62695 13.6067 9.84686 13.8266 10.1181 13.8266Z" fill="black"/>
<path d="M7.39645 16.6409C7.66773 16.6409 7.88763 16.421 7.88763 16.1497C7.88763 15.8785 7.66773 15.6586 7.39645 15.6586C7.12518 15.6586 6.90527 15.8785 6.90527 16.1497C6.90527 16.421 7.12518 16.6409 7.39645 16.6409Z" fill="black"/>
<path d="M6.31517 12.7457C6.51674 12.7457 6.68014 12.5823 6.68014 12.3807C6.68014 12.1792 6.51674 12.0157 6.31517 12.0157C6.1136 12.0157 5.9502 12.1792 5.9502 12.3807C5.9502 12.5823 6.1136 12.7457 6.31517 12.7457Z" fill="black"/>
<path d="M10.7566 12.3567C10.9581 12.3567 11.1215 12.1933 11.1215 11.9917C11.1215 11.7901 10.9581 11.6267 10.7566 11.6267C10.555 11.6267 10.3916 11.7901 10.3916 11.9917C10.3916 12.1933 10.555 12.3567 10.7566 12.3567Z" fill="black"/>
<path d="M6.73082 9.02402C7.03035 9.02402 7.27317 8.7812 7.27317 8.48168C7.27317 8.18215 7.03035 7.93933 6.73082 7.93933C6.43129 7.93933 6.18848 8.18215 6.18848 8.48168C6.18848 8.7812 6.43129 9.02402 6.73082 9.02402Z" fill="black"/>
<path d="M12.6125 15.0274C12.816 15.0274 12.9809 14.8625 12.9809 14.659C12.9809 14.4556 12.816 14.2906 12.6125 14.2906C12.4091 14.2906 12.2441 14.4556 12.2441 14.659C12.2441 14.8625 12.4091 15.0274 12.6125 15.0274Z" fill="black"/>
<path d="M19.6304 13.9326C19.7472 13.9326 19.8419 13.8379 19.8419 13.7211C19.8419 13.6043 19.7472 13.5096 19.6304 13.5096C19.5136 13.5096 19.4189 13.6043 19.4189 13.7211C19.4189 13.8379 19.5136 13.9326 19.6304 13.9326Z" fill="black"/>
<path d="M16.688 13.6769C16.8048 13.6769 16.8995 13.5822 16.8995 13.4654C16.8995 13.3486 16.8048 13.2539 16.688 13.2539C16.5712 13.2539 16.4766 13.3486 16.4766 13.4654C16.4766 13.5822 16.5712 13.6769 16.688 13.6769Z" fill="black"/>
<path d="M15.8423 14.8876C15.9591 14.8876 16.0538 14.7929 16.0538 14.6761C16.0538 14.5593 15.9591 14.4646 15.8423 14.4646C15.7255 14.4646 15.6309 14.5593 15.6309 14.6761C15.6309 14.7929 15.7255 14.8876 15.8423 14.8876Z" fill="black"/>
<path d="M13.3345 14.0007C13.4513 14.0007 13.546 13.906 13.546 13.7892C13.546 13.6724 13.4513 13.5778 13.3345 13.5778C13.2177 13.5778 13.123 13.6724 13.123 13.7892C13.123 13.906 13.2177 14.0007 13.3345 14.0007Z" fill="black"/>
<path d="M19.4605 7.48229C19.5773 7.48229 19.672 7.3876 19.672 7.27081C19.672 7.15401 19.5773 7.05933 19.4605 7.05933C19.3437 7.05933 19.249 7.15401 19.249 7.27081C19.249 7.3876 19.3437 7.48229 19.4605 7.48229Z" fill="black"/>
<path d="M19.2396 10.1567C19.4204 10.1567 19.567 10.0101 19.567 9.82928C19.567 9.64844 19.4204 9.50183 19.2396 9.50183C19.0587 9.50183 18.9121 9.64844 18.9121 9.82928C18.9121 10.0101 19.0587 10.1567 19.2396 10.1567Z" fill="black"/>
<path d="M13.9184 13.2264C14.0691 13.2264 14.1913 13.1042 14.1913 12.9535C14.1913 12.8028 14.0691 12.6807 13.9184 12.6807C13.7677 12.6807 13.6455 12.8028 13.6455 12.9535C13.6455 13.1042 13.7677 13.2264 13.9184 13.2264Z" fill="black"/>
<path d="M19.4164 16.5522C19.5671 16.5522 19.6893 16.4301 19.6893 16.2793C19.6893 16.1286 19.5671 16.0065 19.4164 16.0065C19.2657 16.0065 19.1436 16.1286 19.1436 16.2793C19.1436 16.4301 19.2657 16.5522 19.4164 16.5522Z" fill="black"/>
<path d="M17.3158 15.1024C17.4816 15.1024 17.616 14.968 17.616 14.8022C17.616 14.6365 17.4816 14.5021 17.3158 14.5021C17.15 14.5021 17.0156 14.6365 17.0156 14.8022C17.0156 14.968 17.15 15.1024 17.3158 15.1024Z" fill="black"/>
<path d="M14.1429 17.3983C14.3087 17.3983 14.4431 17.2639 14.4431 17.0981C14.4431 16.9324 14.3087 16.798 14.1429 16.798C13.9772 16.798 13.8428 16.9324 13.8428 17.0981C13.8428 17.2639 13.9772 17.3983 14.1429 17.3983Z" fill="black"/>
<path d="M14.9927 16.1257C15.1245 16.1257 15.2314 16.0188 15.2314 15.887C15.2314 15.7551 15.1245 15.6482 14.9927 15.6482C14.8608 15.6482 14.7539 15.7551 14.7539 15.887C14.7539 16.0188 14.8608 16.1257 14.9927 16.1257Z" fill="black"/>
<path d="M18.5632 17.8551C18.761 17.8551 18.9214 17.6947 18.9214 17.4969C18.9214 17.2991 18.761 17.1388 18.5632 17.1388C18.3654 17.1388 18.2051 17.2991 18.2051 17.4969C18.2051 17.6947 18.3654 17.8551 18.5632 17.8551Z" fill="black"/>
<path d="M17.1351 8.99006C17.4384 8.99006 17.6843 8.74419 17.6843 8.44089C17.6843 8.13759 17.4384 7.89172 17.1351 7.89172C16.8318 7.89172 16.5859 8.13759 16.5859 8.44089C16.5859 8.74419 16.8318 8.99006 17.1351 8.99006Z" fill="black"/>
<path d="M17.991 7.70066C18.3225 7.70066 18.5913 7.43188 18.5913 7.10033C18.5913 6.76878 18.3225 6.5 17.991 6.5C17.6594 6.5 17.3906 6.76878 17.3906 7.10033C17.3906 7.43188 17.6594 7.70066 17.991 7.70066Z" fill="black"/>
<path d="M17.769 10.3408C18.0534 10.3408 18.284 10.1102 18.284 9.82573C18.284 9.54127 18.0534 9.31067 17.769 9.31067C17.4845 9.31067 17.2539 9.54127 17.2539 9.82573C17.2539 10.1102 17.4845 10.3408 17.769 10.3408Z" fill="black"/>
<path d="M16.2884 10.1123C16.588 10.1123 16.8308 9.86946 16.8308 9.56993C16.8308 9.2704 16.588 9.02759 16.2884 9.02759C15.9889 9.02759 15.7461 9.2704 15.7461 9.56993C15.7461 9.86946 15.9889 10.1123 16.2884 10.1123Z" fill="black"/>
<path d="M18.3837 11.5515C18.67 11.5515 18.9022 11.3193 18.9022 11.033C18.9022 10.7467 18.67 10.5145 18.3837 10.5145C18.0974 10.5145 17.8652 10.7467 17.8652 11.033C17.8652 11.3193 18.0974 11.5515 18.3837 11.5515Z" fill="black"/>
<path d="M16.9165 11.4051C17.1896 11.4051 17.4111 11.1836 17.4111 10.9105C17.4111 10.6373 17.1896 10.4159 16.9165 10.4159C16.6433 10.4159 16.4219 10.6373 16.4219 10.9105C16.4219 11.1836 16.6433 11.4051 16.9165 11.4051Z" fill="black"/>
<path d="M15.4356 11.2105C15.673 11.2105 15.8654 11.0181 15.8654 10.7807C15.8654 10.5434 15.673 10.351 15.4356 10.351C15.1983 10.351 15.0059 10.5434 15.0059 10.7807C15.0059 11.0181 15.1983 11.2105 15.4356 11.2105Z" fill="black"/>
<path d="M16.0606 12.5543C16.298 12.5543 16.4904 12.3618 16.4904 12.1245C16.4904 11.8871 16.298 11.6947 16.0606 11.6947C15.8233 11.6947 15.6309 11.8871 15.6309 12.1245C15.6309 12.3618 15.8233 12.5543 16.0606 12.5543Z" fill="black"/>
<path d="M17.544 12.684C17.7814 12.684 17.9738 12.4916 17.9738 12.2542C17.9738 12.0169 17.7814 11.8245 17.544 11.8245C17.3067 11.8245 17.1143 12.0169 17.1143 12.2542C17.1143 12.4916 17.3067 12.684 17.544 12.684Z" fill="black"/>
<path d="M18.164 14.079C18.4353 14.079 18.6552 13.8591 18.6552 13.5879C18.6552 13.3166 18.4353 13.0967 18.164 13.0967C17.8928 13.0967 17.6729 13.3166 17.6729 13.5879C17.6729 13.8591 17.8928 14.079 18.164 14.079Z" fill="black"/>
<path d="M18.7882 15.365C19.0293 15.365 19.2248 15.1696 19.2248 14.9284C19.2248 14.6873 19.0293 14.4918 18.7882 14.4918C18.547 14.4918 18.3516 14.6873 18.3516 14.9284C18.3516 15.1696 18.547 15.365 18.7882 15.365Z" fill="black"/>
<path d="M14.3647 15.0275C14.6341 15.0275 14.8525 14.8092 14.8525 14.5398C14.8525 14.2704 14.6341 14.052 14.3647 14.052C14.0953 14.052 13.877 14.2704 13.877 14.5398C13.877 14.8092 14.0953 15.0275 14.3647 15.0275Z" fill="black"/>
<path d="M15.2207 13.8266C15.4919 13.8266 15.7119 13.6067 15.7119 13.3354C15.7119 13.0641 15.4919 12.8442 15.2207 12.8442C14.9494 12.8442 14.7295 13.0641 14.7295 13.3354C14.7295 13.6067 14.9494 13.8266 15.2207 13.8266Z" fill="black"/>
<path d="M17.9463 16.6409C18.2175 16.6409 18.4374 16.421 18.4374 16.1497C18.4374 15.8785 18.2175 15.6586 17.9463 15.6586C17.675 15.6586 17.4551 15.8785 17.4551 16.1497C17.4551 16.421 17.675 16.6409 17.9463 16.6409Z" fill="black"/>
<path d="M19.0242 12.7457C19.2257 12.7457 19.3891 12.5823 19.3891 12.3807C19.3891 12.1792 19.2257 12.0157 19.0242 12.0157C18.8226 12.0157 18.6592 12.1792 18.6592 12.3807C18.6592 12.5823 18.8226 12.7457 19.0242 12.7457Z" fill="black"/>
<path d="M14.5867 12.3567C14.7882 12.3567 14.9516 12.1933 14.9516 11.9917C14.9516 11.7901 14.7882 11.6267 14.5867 11.6267C14.3851 11.6267 14.2217 11.7901 14.2217 11.9917C14.2217 12.1933 14.3851 12.3567 14.5867 12.3567Z" fill="black"/>
<path d="M18.6107 9.02402C18.9102 9.02402 19.153 8.7812 19.153 8.48168C19.153 8.18215 18.9102 7.93933 18.6107 7.93933C18.3112 7.93933 18.0684 8.18215 18.0684 8.48168C18.0684 8.7812 18.3112 9.02402 18.6107 9.02402Z" fill="black"/>
<path d="M12.7307 15.0274C12.9341 15.0274 13.0991 14.8625 13.0991 14.659C13.0991 14.4556 12.9341 14.2906 12.7307 14.2906C12.5272 14.2906 12.3623 14.4556 12.3623 14.659C12.3623 14.8625 12.5272 15.0274 12.7307 15.0274Z" fill="black"/>
<path d="M12.67 15.0888C12.9074 15.0888 13.0998 14.8964 13.0998 14.659C13.0998 14.4217 12.9074 14.2292 12.67 14.2292C12.4327 14.2292 12.2402 14.4217 12.2402 14.659C12.2402 14.8964 12.4327 15.0888 12.67 15.0888Z" fill="black"/>
<path d="M12.67 17.4322C12.9074 17.4322 13.0998 17.2398 13.0998 17.0024C13.0998 16.7651 12.9074 16.5726 12.67 16.5726C12.4327 16.5726 12.2402 16.7651 12.2402 17.0024C12.2402 17.2398 12.4327 17.4322 12.67 17.4322Z" fill="black"/>
<path d="M11.8204 16.187C12.0578 16.187 12.2502 15.9945 12.2502 15.7572C12.2502 15.5198 12.0578 15.3274 11.8204 15.3274C11.583 15.3274 11.3906 15.5198 11.3906 15.7572C11.3906 15.9945 11.583 16.187 11.8204 16.187Z" fill="black"/>
<path d="M13.5186 16.187C13.756 16.187 13.9484 15.9945 13.9484 15.7572C13.9484 15.5198 13.756 15.3274 13.5186 15.3274C13.2813 15.3274 13.0889 15.5198 13.0889 15.7572C13.0889 15.9945 13.2813 16.187 13.5186 16.187Z" fill="black"/>
<path d="M12.0445 18.5C12.1463 18.5 12.2287 18.4175 12.2287 18.3158C12.2287 18.2141 12.1463 18.1316 12.0445 18.1316C11.9428 18.1316 11.8604 18.2141 11.8604 18.3158C11.8604 18.4175 11.9428 18.5 12.0445 18.5Z" fill="black"/>
<path d="M13.2975 18.5C13.3992 18.5 13.4817 18.4175 13.4817 18.3158C13.4817 18.2141 13.3992 18.1316 13.2975 18.1316C13.1957 18.1316 13.1133 18.2141 13.1133 18.3158C13.1133 18.4175 13.1957 18.5 13.2975 18.5Z" fill="black"/>
</svg>
