<svg width="40" height="32" viewBox="0 0 40 32" fill="none" xmlns="http://www.w3.org/2000/svg">
<path d="M0.589774 20.7279C0.915497 20.7279 1.17955 20.4638 1.17955 20.1381C1.17955 19.8124 0.915497 19.5483 0.589774 19.5483C0.264051 19.5483 0 19.8124 0 20.1381C0 20.4638 0.264051 20.7279 0.589774 20.7279Z" fill="#313144"/>
<path d="M8.78948 20.0145C9.11521 20.0145 9.37926 19.7505 9.37926 19.4247C9.37926 19.099 9.11521 18.835 8.78948 18.835C8.46376 18.835 8.19971 19.099 8.19971 19.4247C8.19971 19.7505 8.46376 20.0145 8.78948 20.0145Z" fill="#313144"/>
<path d="M11.1586 23.391C11.4843 23.391 11.7484 23.1269 11.7484 22.8012C11.7484 22.4755 11.4843 22.2114 11.1586 22.2114C10.8329 22.2114 10.5688 22.4755 10.5688 22.8012C10.5688 23.1269 10.8329 23.391 11.1586 23.391Z" fill="#313144"/>
<path d="M18.1503 20.9178C18.476 20.9178 18.7401 20.6538 18.7401 20.328C18.7401 20.0023 18.476 19.7383 18.1503 19.7383C17.8246 19.7383 17.5605 20.0023 17.5605 20.328C17.5605 20.6538 17.8246 20.9178 18.1503 20.9178Z" fill="#313144"/>
<path d="M1.06536 2.73961C1.39108 2.73961 1.65513 2.47555 1.65513 2.14983C1.65513 1.82411 1.39108 1.56006 1.06536 1.56006C0.739637 1.56006 0.475586 1.82411 0.475586 2.14983C0.475586 2.47555 0.739637 2.73961 1.06536 2.73961Z" fill="#313144"/>
<path d="M1.68419 10.1975C2.18854 10.1975 2.59739 9.78863 2.59739 9.28429C2.59739 8.77995 2.18854 8.37109 1.68419 8.37109C1.17985 8.37109 0.770996 8.77995 0.770996 9.28429C0.770996 9.78863 1.17985 10.1975 1.68419 10.1975Z" fill="#313144"/>
<path d="M16.5232 18.7588C16.9435 18.7588 17.2842 18.4181 17.2842 17.9978C17.2842 17.5775 16.9435 17.2368 16.5232 17.2368C16.1029 17.2368 15.7622 17.5775 15.7622 17.9978C15.7622 18.4181 16.1029 18.7588 16.5232 18.7588Z" fill="#313144"/>
<path d="M1.17946 28.0332C1.59974 28.0332 1.94045 27.6925 1.94045 27.2722C1.94045 26.8519 1.59974 26.5112 1.17946 26.5112C0.759168 26.5112 0.418457 26.8519 0.418457 27.2722C0.418457 27.6925 0.759168 28.0332 1.17946 28.0332Z" fill="#313144"/>
<path d="M7.04901 23.9906C7.51133 23.9906 7.88611 23.6158 7.88611 23.1535C7.88611 22.6912 7.51133 22.3164 7.04901 22.3164C6.5867 22.3164 6.21191 22.6912 6.21191 23.1535C6.21191 23.6158 6.5867 23.9906 7.04901 23.9906Z" fill="#313144"/>
<path d="M13.5174 26.8444C13.8852 26.8444 14.1833 26.5463 14.1833 26.1786C14.1833 25.8108 13.8852 25.5127 13.5174 25.5127C13.1497 25.5127 12.8516 25.8108 12.8516 26.1786C12.8516 26.5463 13.1497 26.8444 13.5174 26.8444Z" fill="#313144"/>
<path d="M3.56717 31.6671C4.1188 31.6671 4.56598 31.2199 4.56598 30.6683C4.56598 30.1166 4.1188 29.6694 3.56717 29.6694C3.01554 29.6694 2.56836 30.1166 2.56836 30.6683C2.56836 31.2199 3.01554 31.6671 3.56717 31.6671Z" fill="#313144"/>
<path d="M7.54323 6.94388C8.38906 6.94388 9.07474 6.2582 9.07474 5.41237C9.07474 4.56654 8.38906 3.88086 7.54323 3.88086C6.6974 3.88086 6.01172 4.56654 6.01172 5.41237C6.01172 6.2582 6.6974 6.94388 7.54323 6.94388Z" fill="#313144"/>
<path d="M5.16492 3.3484C6.08956 3.3484 6.83912 2.59883 6.83912 1.6742C6.83912 0.749564 6.08956 0 5.16492 0C4.24029 0 3.49072 0.749564 3.49072 1.6742C3.49072 2.59883 4.24029 3.3484 5.16492 3.3484Z" fill="#313144"/>
<path d="M5.78355 10.7111C6.57685 10.7111 7.21994 10.0681 7.21994 9.27476C7.21994 8.48147 6.57685 7.83838 5.78355 7.83838C4.99026 7.83838 4.34717 8.48147 4.34717 9.27476C4.34717 10.0681 4.99026 10.7111 5.78355 10.7111Z" fill="#313144"/>
<path d="M9.91239 10.0738C10.7477 10.0738 11.4249 9.39664 11.4249 8.56131C11.4249 7.72599 10.7477 7.04883 9.91239 7.04883C9.07706 7.04883 8.3999 7.72599 8.3999 8.56131C8.3999 9.39664 9.07706 10.0738 9.91239 10.0738Z" fill="#313144"/>
<path d="M4.06162 14.0881C4.86017 14.0881 5.50752 13.4407 5.50752 12.6422C5.50752 11.8436 4.86017 11.1963 4.06162 11.1963C3.26307 11.1963 2.61572 11.8436 2.61572 12.6422C2.61572 13.4407 3.26307 14.0881 4.06162 14.0881Z" fill="#313144"/>
<path d="M8.16203 13.679C8.9238 13.679 9.54134 13.0615 9.54134 12.2997C9.54134 11.5379 8.9238 10.9204 8.16203 10.9204C7.40025 10.9204 6.78271 11.5379 6.78271 12.2997C6.78271 13.0615 7.40025 13.679 8.16203 13.679Z" fill="#313144"/>
<path d="M12.2904 13.1369C12.9523 13.1369 13.4889 12.6003 13.4889 11.9383C13.4889 11.2764 12.9523 10.7397 12.2904 10.7397C11.6284 10.7397 11.0918 11.2764 11.0918 11.9383C11.0918 12.6003 11.6284 13.1369 12.2904 13.1369Z" fill="#313144"/>
<path d="M10.5496 16.8845C11.2116 16.8845 11.7482 16.3478 11.7482 15.6859C11.7482 15.0239 11.2116 14.4873 10.5496 14.4873C9.88769 14.4873 9.35107 15.0239 9.35107 15.6859C9.35107 16.3478 9.88769 16.8845 10.5496 16.8845Z" fill="#313144"/>
<path d="M6.41147 17.2463C7.07342 17.2463 7.61004 16.7097 7.61004 16.0477C7.61004 15.3857 7.07342 14.8491 6.41147 14.8491C5.74951 14.8491 5.21289 15.3857 5.21289 16.0477C5.21289 16.7097 5.74951 17.2463 6.41147 17.2463Z" fill="#313144"/>
<path d="M4.68034 21.1371C5.43686 21.1371 6.05014 20.5238 6.05014 19.7673C6.05014 19.0107 5.43686 18.3975 4.68034 18.3975C3.92383 18.3975 3.31055 19.0107 3.31055 19.7673C3.31055 20.5238 3.92383 21.1371 4.68034 21.1371Z" fill="#313144"/>
<path d="M2.93 24.7228C3.60246 24.7228 4.1476 24.1777 4.1476 23.5052C4.1476 22.8327 3.60246 22.2876 2.93 22.2876C2.25754 22.2876 1.7124 22.8327 1.7124 23.5052C1.7124 24.1777 2.25754 24.7228 2.93 24.7228Z" fill="#313144"/>
<path d="M15.2675 23.7811C16.0188 23.7811 16.6278 23.1721 16.6278 22.4208C16.6278 21.6696 16.0188 21.0605 15.2675 21.0605C14.5162 21.0605 13.9072 21.6696 13.9072 22.4208C13.9072 23.1721 14.5162 23.7811 15.2675 23.7811Z" fill="#313144"/>
<path d="M12.8898 20.433C13.6463 20.433 14.2596 19.8197 14.2596 19.0632C14.2596 18.3066 13.6463 17.6934 12.8898 17.6934C12.1333 17.6934 11.52 18.3066 11.52 19.0632C11.52 19.8197 12.1333 20.433 12.8898 20.433Z" fill="#313144"/>
<path d="M5.28874 28.2806C6.04526 28.2806 6.65854 27.6673 6.65854 26.9108C6.65854 26.1543 6.04526 25.541 5.28874 25.541C4.53223 25.541 3.91895 26.1543 3.91895 26.9108C3.91895 27.6673 4.53223 28.2806 5.28874 28.2806Z" fill="#313144"/>
<path d="M2.28297 17.4175C2.84511 17.4175 3.30081 16.9618 3.30081 16.3997C3.30081 15.8375 2.84511 15.3818 2.28297 15.3818C1.72084 15.3818 1.26514 15.8375 1.26514 16.3997C1.26514 16.9618 1.72084 17.4175 2.28297 17.4175Z" fill="#313144"/>
<path d="M14.6585 16.333C15.2206 16.333 15.6763 15.8773 15.6763 15.3152C15.6763 14.7531 15.2206 14.2974 14.6585 14.2974C14.0963 14.2974 13.6406 14.7531 13.6406 15.3152C13.6406 15.8773 14.0963 16.333 14.6585 16.333Z" fill="#313144"/>
<path d="M3.43387 7.03913C4.26919 7.03913 4.94636 6.36196 4.94636 5.52664C4.94636 4.69132 4.26919 4.01416 3.43387 4.01416C2.59855 4.01416 1.92139 4.69132 1.92139 5.52664C1.92139 6.36196 2.59855 7.03913 3.43387 7.03913Z" fill="#313144"/>
<path d="M39.4106 20.7279C39.7363 20.7279 40.0004 20.4638 40.0004 20.1381C40.0004 19.8124 39.7363 19.5483 39.4106 19.5483C39.0849 19.5483 38.8208 19.8124 38.8208 20.1381C38.8208 20.4638 39.0849 20.7279 39.4106 20.7279Z" fill="#313144"/>
<path d="M31.2099 20.0145C31.5356 20.0145 31.7997 19.7505 31.7997 19.4247C31.7997 19.099 31.5356 18.835 31.2099 18.835C30.8842 18.835 30.6201 19.099 30.6201 19.4247C30.6201 19.7505 30.8842 20.0145 31.2099 20.0145Z" fill="#313144"/>
<path d="M28.8417 23.391C29.1675 23.391 29.4315 23.1269 29.4315 22.8012C29.4315 22.4755 29.1675 22.2114 28.8417 22.2114C28.516 22.2114 28.252 22.4755 28.252 22.8012C28.252 23.1269 28.516 23.391 28.8417 23.391Z" fill="#313144"/>
<path d="M21.85 20.9178C22.1758 20.9178 22.4398 20.6538 22.4398 20.328C22.4398 20.0023 22.1758 19.7383 21.85 19.7383C21.5243 19.7383 21.2603 20.0023 21.2603 20.328C21.2603 20.6538 21.5243 20.9178 21.85 20.9178Z" fill="#313144"/>
<path d="M38.935 2.73961C39.2607 2.73961 39.5248 2.47555 39.5248 2.14983C39.5248 1.82411 39.2607 1.56006 38.935 1.56006C38.6093 1.56006 38.3452 1.82411 38.3452 2.14983C38.3452 2.47555 38.6093 2.73961 38.935 2.73961Z" fill="#313144"/>
<path d="M38.316 10.1975C38.8204 10.1975 39.2292 9.78863 39.2292 9.28429C39.2292 8.77995 38.8204 8.37109 38.316 8.37109C37.8117 8.37109 37.4028 8.77995 37.4028 9.28429C37.4028 9.78863 37.8117 10.1975 38.316 10.1975Z" fill="#313144"/>
<path d="M23.4768 18.7588C23.8971 18.7588 24.2378 18.4181 24.2378 17.9978C24.2378 17.5775 23.8971 17.2368 23.4768 17.2368C23.0565 17.2368 22.7158 17.5775 22.7158 17.9978C22.7158 18.4181 23.0565 18.7588 23.4768 18.7588Z" fill="#313144"/>
<path d="M38.8206 28.0332C39.2409 28.0332 39.5816 27.6925 39.5816 27.2722C39.5816 26.8519 39.2409 26.5112 38.8206 26.5112C38.4003 26.5112 38.0596 26.8519 38.0596 27.2722C38.0596 27.6925 38.4003 28.0332 38.8206 28.0332Z" fill="#313144"/>
<path d="M32.9514 23.9906C33.4137 23.9906 33.7885 23.6158 33.7885 23.1535C33.7885 22.6912 33.4137 22.3164 32.9514 22.3164C32.489 22.3164 32.1143 22.6912 32.1143 23.1535C32.1143 23.6158 32.489 23.9906 32.9514 23.9906Z" fill="#313144"/>
<path d="M26.4823 26.8444C26.85 26.8444 27.1482 26.5463 27.1482 26.1786C27.1482 25.8108 26.85 25.5127 26.4823 25.5127C26.1145 25.5127 25.8164 25.8108 25.8164 26.1786C25.8164 26.5463 26.1145 26.8444 26.4823 26.8444Z" fill="#313144"/>
<path d="M36.4329 31.6671C36.9845 31.6671 37.4317 31.2199 37.4317 30.6683C37.4317 30.1166 36.9845 29.6694 36.4329 29.6694C35.8813 29.6694 35.4341 30.1166 35.4341 30.6683C35.4341 31.2199 35.8813 31.6671 36.4329 31.6671Z" fill="#313144"/>
<path d="M32.4568 6.94388C33.3026 6.94388 33.9883 6.2582 33.9883 5.41237C33.9883 4.56654 33.3026 3.88086 32.4568 3.88086C31.611 3.88086 30.9253 4.56654 30.9253 5.41237C30.9253 6.2582 31.611 6.94388 32.4568 6.94388Z" fill="#313144"/>
<path d="M34.8348 3.3484C35.7595 3.3484 36.509 2.59883 36.509 1.6742C36.509 0.749564 35.7595 0 34.8348 0C33.9102 0 33.1606 0.749564 33.1606 1.6742C33.1606 2.59883 33.9102 3.3484 34.8348 3.3484Z" fill="#313144"/>
<path d="M34.2167 10.7111C35.0099 10.7111 35.653 10.0681 35.653 9.27476C35.653 8.48147 35.0099 7.83838 34.2167 7.83838C33.4234 7.83838 32.7803 8.48147 32.7803 9.27476C32.7803 10.0681 33.4234 10.7111 34.2167 10.7111Z" fill="#313144"/>
<path d="M30.0877 10.0738C30.923 10.0738 31.6002 9.39664 31.6002 8.56131C31.6002 7.72599 30.923 7.04883 30.0877 7.04883C29.2524 7.04883 28.5752 7.72599 28.5752 8.56131C28.5752 9.39664 29.2524 10.0738 30.0877 10.0738Z" fill="#313144"/>
<path d="M35.9386 14.0881C36.7371 14.0881 37.3845 13.4407 37.3845 12.6422C37.3845 11.8436 36.7371 11.1963 35.9386 11.1963C35.14 11.1963 34.4927 11.8436 34.4927 12.6422C34.4927 13.4407 35.14 14.0881 35.9386 14.0881Z" fill="#313144"/>
<path d="M31.8383 13.679C32.6001 13.679 33.2176 13.0615 33.2176 12.2997C33.2176 11.5379 32.6001 10.9204 31.8383 10.9204C31.0765 10.9204 30.459 11.5379 30.459 12.2997C30.459 13.0615 31.0765 13.679 31.8383 13.679Z" fill="#313144"/>
<path d="M27.7098 13.1369C28.3718 13.1369 28.9084 12.6003 28.9084 11.9383C28.9084 11.2764 28.3718 10.7397 27.7098 10.7397C27.0478 10.7397 26.5112 11.2764 26.5112 11.9383C26.5112 12.6003 27.0478 13.1369 27.7098 13.1369Z" fill="#313144"/>
<path d="M29.4505 16.8845C30.1125 16.8845 30.6491 16.3478 30.6491 15.6859C30.6491 15.0239 30.1125 14.4873 29.4505 14.4873C28.7886 14.4873 28.252 15.0239 28.252 15.6859C28.252 16.3478 28.7886 16.8845 29.4505 16.8845Z" fill="#313144"/>
<path d="M33.5887 17.2463C34.2507 17.2463 34.7873 16.7097 34.7873 16.0477C34.7873 15.3857 34.2507 14.8491 33.5887 14.8491C32.9268 14.8491 32.3901 15.3857 32.3901 16.0477C32.3901 16.7097 32.9268 17.2463 33.5887 17.2463Z" fill="#313144"/>
<path d="M35.3195 21.1371C36.076 21.1371 36.6893 20.5238 36.6893 19.7673C36.6893 19.0107 36.076 18.3975 35.3195 18.3975C34.563 18.3975 33.9497 19.0107 33.9497 19.7673C33.9497 20.5238 34.563 21.1371 35.3195 21.1371Z" fill="#313144"/>
<path d="M37.0697 24.7228C37.7421 24.7228 38.2873 24.1777 38.2873 23.5052C38.2873 22.8327 37.7421 22.2876 37.0697 22.2876C36.3972 22.2876 35.8521 22.8327 35.8521 23.5052C35.8521 24.1777 36.3972 24.7228 37.0697 24.7228Z" fill="#313144"/>
<path d="M24.7324 23.7811C25.4836 23.7811 26.0926 23.1721 26.0926 22.4208C26.0926 21.6696 25.4836 21.0605 24.7324 21.0605C23.9811 21.0605 23.3721 21.6696 23.3721 22.4208C23.3721 23.1721 23.9811 23.7811 24.7324 23.7811Z" fill="#313144"/>
<path d="M27.111 20.433C27.8675 20.433 28.4808 19.8197 28.4808 19.0632C28.4808 18.3066 27.8675 17.6934 27.111 17.6934C26.3545 17.6934 25.7412 18.3066 25.7412 19.0632C25.7412 19.8197 26.3545 20.433 27.111 20.433Z" fill="#313144"/>
<path d="M34.7111 28.2806C35.4676 28.2806 36.0809 27.6673 36.0809 26.9108C36.0809 26.1543 35.4676 25.541 34.7111 25.541C33.9546 25.541 33.3413 26.1543 33.3413 26.9108C33.3413 27.6673 33.9546 28.2806 34.7111 28.2806Z" fill="#313144"/>
<path d="M37.7171 17.4175C38.2792 17.4175 38.7349 16.9618 38.7349 16.3997C38.7349 15.8375 38.2792 15.3818 37.7171 15.3818C37.1549 15.3818 36.6992 15.8375 36.6992 16.3997C36.6992 16.9618 37.1549 17.4175 37.7171 17.4175Z" fill="#313144"/>
<path d="M25.3411 16.333C25.9032 16.333 26.3589 15.8773 26.3589 15.3152C26.3589 14.7531 25.9032 14.2974 25.3411 14.2974C24.7789 14.2974 24.3232 14.7531 24.3232 15.3152C24.3232 15.8773 24.7789 16.333 25.3411 16.333Z" fill="#313144"/>
<path d="M36.5662 7.03913C37.4015 7.03913 38.0787 6.36196 38.0787 5.52664C38.0787 4.69132 37.4015 4.01416 36.5662 4.01416C35.7309 4.01416 35.0537 4.69132 35.0537 5.52664C35.0537 6.36196 35.7309 7.03913 36.5662 7.03913Z" fill="#313144"/>
<path d="M17.6366 27.0153C18.2985 27.0153 18.8351 26.4787 18.8351 25.8167C18.8351 25.1548 18.2985 24.6182 17.6366 24.6182C16.9746 24.6182 16.438 25.1548 16.438 25.8167C16.438 26.4787 16.9746 27.0153 17.6366 27.0153Z" fill="#313144"/>
<path d="M22.3641 27.0153C23.0261 27.0153 23.5627 26.4787 23.5627 25.8167C23.5627 25.1548 23.0261 24.6182 22.3641 24.6182C21.7021 24.6182 21.1655 25.1548 21.1655 25.8167C21.1655 26.4787 21.7021 27.0153 22.3641 27.0153Z" fill="#313144"/>
<path d="M20.0044 23.9522C20.5613 23.9522 21.0127 23.5008 21.0127 22.9439C21.0127 22.387 20.5613 21.9355 20.0044 21.9355C19.4475 21.9355 18.9961 22.387 18.9961 22.9439C18.9961 23.5008 19.4475 23.9522 20.0044 23.9522Z" fill="#313144"/>
<path d="M15.8959 30.2214C16.2636 30.2214 16.5617 29.9233 16.5617 29.5555C16.5617 29.1878 16.2636 28.8896 15.8959 28.8896C15.5281 28.8896 15.23 29.1878 15.23 29.5555C15.23 29.9233 15.5281 30.2214 15.8959 30.2214Z" fill="#313144"/>
<path d="M24.1043 30.2214C24.4721 30.2214 24.7702 29.9233 24.7702 29.5555C24.7702 29.1878 24.4721 28.8896 24.1043 28.8896C23.7366 28.8896 23.4385 29.1878 23.4385 29.5555C23.4385 29.9233 23.7366 30.2214 24.1043 30.2214Z" fill="#313144"/>
<path d="M20.0044 30.2974C20.5613 30.2974 21.0127 29.846 21.0127 29.2891C21.0127 28.7322 20.5613 28.2808 20.0044 28.2808C19.4475 28.2808 18.9961 28.7322 18.9961 29.2891C18.9961 29.846 19.4475 30.2974 20.0044 30.2974Z" fill="#313144"/>
</svg>
