<svg width="25" height="25" viewBox="0 0 25 25" fill="none" xmlns="http://www.w3.org/2000/svg">
<circle cx="12.5" cy="12.5" r="12.5" fill="black"/>
<path d="M20.6746 8.58953C20.7962 8.39876 20.8657 8.16464 20.8657 7.93052C20.8657 7.86983 20.857 7.80046 20.857 7.74843C20.7702 7.14145 20.2489 6.68189 19.6321 6.68189H19.6234C19.1283 6.68189 18.6939 6.9767 18.4941 7.40159C16.1572 7.12411 14.5327 6.0489 13.6379 5.2685C13.7074 5.11242 13.7508 4.93899 13.7508 4.76557C13.7508 4.24531 13.4207 3.7684 12.9256 3.59497C12.6563 3.49959 12.3435 3.49959 12.0829 3.59497C11.5877 3.7684 11.2576 4.24531 11.2576 4.76557C11.2576 4.93899 11.2924 5.11242 11.3705 5.2685C10.4671 6.0489 8.84255 7.13278 6.49699 7.40159C6.29718 6.9767 5.87151 6.69056 5.37633 6.68189C5.37633 6.68189 5.37633 6.68189 5.36765 6.68189C4.7856 6.68189 4.27305 7.08943 4.15143 7.66172C4.13406 7.73976 4.12537 7.82647 4.12537 7.91318C4.12537 8.15597 4.19487 8.39009 4.32518 8.58953C3.91687 9.24853 3.46514 10.185 3.27402 11.2862C2.86572 13.6535 3.58676 17.0872 9.38985 20.0527C9.9632 20.3475 10.5887 20.6337 11.2489 20.9112V20.9198C11.2489 21.6049 11.8049 22.1598 12.4912 22.1598C13.1775 22.1598 13.7335 21.6049 13.7335 20.9198V20.9112C14.359 20.651 14.9671 20.3736 15.523 20.0874C18.9458 18.3532 20.996 16.2721 21.6128 13.8962C22.2122 11.6591 21.3609 9.69943 20.6746 8.58953ZM13.2557 16.671C13.0646 16.4802 12.7953 16.3675 12.4999 16.3675C12.2045 16.3675 11.9439 16.4802 11.7441 16.671C11.44 16.5236 11.0925 16.3328 10.7451 16.0727C9.5549 15.1796 8.95548 14.0003 8.95548 12.5522C8.95548 12.1967 9.00761 11.8585 9.10317 11.5377C9.26822 11.5377 9.42459 11.4943 9.56359 11.425V11.5377V11.425C9.92846 11.2516 10.1717 10.8787 10.1717 10.4538C10.1717 10.2804 10.1283 10.1243 10.0588 9.9769C10.6929 9.3786 11.5443 9.01441 12.4912 9.01441C13.4294 9.01441 14.2895 9.38727 14.9236 9.98558C14.8541 10.133 14.8107 10.2891 14.8107 10.4625C14.8107 11.0521 15.2885 11.5377 15.8792 11.5464C15.9748 11.8672 16.0269 12.2054 16.0269 12.5609C16.0269 14.009 15.4275 15.1882 14.2373 16.0814C13.9072 16.3328 13.551 16.5323 13.2557 16.671ZM12.4999 5.99687C12.5086 5.99687 12.5173 5.99687 12.5259 5.99687C12.7171 6.77727 13.0298 7.53165 13.4468 8.21667C13.1427 8.1473 12.8213 8.11262 12.4999 8.11262C12.1785 8.11262 11.857 8.1473 11.553 8.21667C11.97 7.53165 12.2827 6.77727 12.4738 5.99687C12.4825 5.99687 12.4912 5.99687 12.4999 5.99687ZM9.56359 9.21385C9.5549 9.22252 9.54622 9.23119 9.54622 9.23119C9.53753 9.23986 9.52015 9.24853 9.51147 9.2572C9.45066 9.30923 9.39853 9.35258 9.34641 9.39594C9.26822 9.3786 9.19004 9.36993 9.10317 9.36993C8.99023 9.36993 8.8773 9.38727 8.77305 9.42195C8.27788 8.95371 7.73058 8.54617 7.13985 8.208C9.02498 7.88717 10.4584 7.08943 11.414 6.36973C11.0404 7.46229 10.4063 8.44212 9.56359 9.21385ZM16.2441 9.43063C16.1398 9.39594 16.0182 9.3786 15.9053 9.3786C15.8184 9.3786 15.7402 9.38727 15.662 9.40461C15.6099 9.36126 15.5578 9.3179 15.5144 9.27454L15.3927 9.17049C14.5761 8.39876 13.9507 7.43627 13.5945 6.38707C14.5588 7.11544 16.0095 7.91318 17.9207 8.23401C17.3126 8.55484 16.748 8.96239 16.2441 9.43063ZM9.80683 19.255C5.6022 17.1046 3.65626 14.4078 4.1688 11.451C4.33386 10.5145 4.70741 9.7081 5.0549 9.13581C5.15046 9.16182 5.25471 9.17049 5.35027 9.17049H5.35896C5.70645 9.17049 6.02788 9.03175 6.25375 8.78896C6.93135 9.10979 7.53946 9.53468 8.09544 10.0549C8.04332 10.185 8.01726 10.3151 8.01726 10.4625C8.01726 10.7313 8.11282 10.9741 8.27788 11.1648C8.13019 11.6071 8.05201 12.0753 8.05201 12.5609C8.05201 14.2951 8.8078 15.7692 10.2325 16.8271C10.6495 17.1392 11.0665 17.3647 11.4227 17.5294C11.4487 17.9283 11.7007 18.2751 12.0481 18.4312V19.7752C11.8744 19.8446 11.718 19.9487 11.5964 20.0787C10.9622 19.8099 10.3628 19.5325 9.80683 19.255ZM20.7441 13.6795C20.1968 15.7865 18.303 17.6768 15.1234 19.2897C14.5848 19.5585 14.0115 19.8273 13.4034 20.0787C13.2817 19.9487 13.1254 19.8446 12.9516 19.7752V18.4312C13.2991 18.2665 13.551 17.9283 13.5771 17.5294C13.9333 17.3647 14.3503 17.1306 14.7673 16.8271C16.192 15.7692 16.9478 14.2951 16.9478 12.5609C16.9478 12.0753 16.8696 11.6071 16.7219 11.1648C16.8869 10.9741 16.9825 10.7313 16.9825 10.4625C16.9825 10.3237 16.9564 10.185 16.9043 10.0636C17.4603 9.55202 18.0771 9.13581 18.7547 8.82365C18.9806 9.04043 19.2846 9.17049 19.6147 9.17049H19.6234C19.7277 9.17049 19.8319 9.15315 19.9362 9.12714C20.5356 10.1156 21.2393 11.7892 20.7441 13.6795Z" fill="url(#paint0_linear)"/>
<mask id="path-3-inside-1" fill="white">
<path d="M19.3203 6.81924C19.6107 6.81924 19.9035 6.70912 20.1237 6.48654L21.543 5.06672C21.9857 4.6239 21.9857 3.90227 21.543 3.45711C21.1003 3.0143 20.379 3.0143 19.934 3.45711L18.5146 4.87694C18.1516 5.24009 18.0907 5.78834 18.3226 6.21944L17.5122 7.0301C17.0812 6.79815 16.5332 6.85672 16.1701 7.22222L14.7508 8.64205C14.3878 9.00521 14.3269 9.55345 14.5587 9.98456L13.746 10.7976C13.3525 10.5937 12.849 10.6336 12.5023 10.91C12.1417 10.6195 11.6498 10.582 11.254 10.7952L10.4436 9.98456C10.6755 9.55345 10.6146 9.00521 10.2515 8.64205L8.83221 7.22222C8.46918 6.85907 7.92112 6.79815 7.49016 7.0301L6.67978 6.21944C6.91165 5.78834 6.8531 5.24009 6.48773 4.87694L5.06839 3.45711C4.62338 3.0143 3.90435 3.0143 3.45934 3.45711C3.01668 3.89993 3.01668 4.62156 3.45934 5.06672L4.87868 6.48654C5.10118 6.70912 5.39161 6.81924 5.68203 6.81924C5.86706 6.81924 6.05209 6.76769 6.22072 6.67866L7.0311 7.48932C6.79923 7.92042 6.86013 8.46867 7.22316 8.83183L8.6425 10.2493C8.85563 10.4625 9.14137 10.582 9.44585 10.582C9.63791 10.582 9.82059 10.5305 9.98454 10.4414L10.7926 11.2497C10.5794 11.6457 10.6169 12.1377 10.905 12.4985C10.7434 12.7 10.6497 12.9437 10.6497 13.2084C10.6497 13.4029 10.7012 13.5857 10.7902 13.7473L9.9822 14.5556C9.55125 14.3237 9.00319 14.3846 8.64015 14.7478L7.22082 16.1676C6.85779 16.5307 6.79689 17.079 7.02876 17.5101L6.21838 18.3208C5.78743 18.0888 5.23937 18.1497 4.87634 18.5129L3.457 19.9327C3.01433 20.3755 3.01433 21.0971 3.457 21.5423C3.6795 21.7649 3.96993 21.875 4.26035 21.875C4.55078 21.875 4.84354 21.7649 5.06371 21.5423L6.48304 20.1225C6.84607 19.7593 6.90697 19.2111 6.6751 18.78L7.48548 17.9693C7.65411 18.0607 7.8368 18.1099 8.02417 18.1099C8.3146 18.1099 8.60736 17.9998 8.82752 17.7772L10.2469 16.3574C10.6099 15.9942 10.6708 15.446 10.4389 15.0149L11.247 14.2065C11.4109 14.2956 11.5936 14.3471 11.7856 14.3471C12.048 14.3471 12.2939 14.2534 12.4953 14.0917C12.7014 14.2581 12.952 14.3448 13.205 14.3448C13.39 14.3448 13.575 14.2932 13.7437 14.2042L14.5517 15.0125C14.3198 15.4436 14.3807 15.9919 14.7438 16.355L16.1631 17.7748C16.3856 17.9974 16.676 18.1075 16.9665 18.1075C17.1538 18.1075 17.3365 18.056 17.5052 17.967L18.3155 18.7776C18.0837 19.2087 18.1446 19.757 18.5076 20.1201L19.9269 21.54C20.1565 21.7602 20.4469 21.8703 20.7396 21.8703C21.0301 21.8703 21.3228 21.7602 21.543 21.5376C21.9857 21.0948 21.9857 20.3732 21.543 19.928L20.1237 18.5082C19.7606 18.145 19.2126 18.0841 18.7816 18.3161L17.9712 17.5054C18.2031 17.0743 18.1422 16.5261 17.7792 16.1629L16.3598 14.7431C15.9968 14.3799 15.4488 14.319 15.0178 14.551L14.2074 13.7403C14.4206 13.3443 14.3831 12.8523 14.0927 12.4915C14.2566 12.2877 14.3503 12.044 14.3503 11.7839C14.3503 11.5918 14.2964 11.4067 14.2074 11.2427L15.0155 10.4344C15.1794 10.5234 15.3621 10.575 15.5541 10.575C15.8586 10.575 16.1444 10.4578 16.3575 10.2423L17.7768 8.8248C18.1399 8.46164 18.2008 7.91339 17.9689 7.48229L18.7793 6.67163C18.9503 6.77004 19.1353 6.81924 19.3203 6.81924ZM18.9737 5.33615L20.393 3.91633C20.489 3.82027 20.6155 3.77341 20.7396 3.77341C20.8661 3.77341 20.9903 3.82027 21.0863 3.91633C21.2783 4.10845 21.2783 4.42006 21.0863 4.60984L19.6669 6.02967C19.5639 6.13276 19.428 6.17493 19.2922 6.1679L19.6623 5.79771C19.7887 5.6712 19.7887 5.46736 19.6623 5.34084C19.5358 5.21432 19.332 5.21432 19.2055 5.34084L18.8355 5.71103C18.8285 5.57513 18.8706 5.43924 18.9737 5.33615ZM5.80851 5.34084C5.68203 5.21432 5.47827 5.21432 5.35179 5.34084C5.22531 5.46736 5.22531 5.6712 5.35179 5.79771L5.72185 6.1679C5.586 6.17493 5.45016 6.13276 5.34711 6.02967L3.92777 4.60984C3.73571 4.41772 3.73571 4.10611 3.92777 3.91633C4.0238 3.82027 4.15027 3.77341 4.27441 3.77341C4.40088 3.77341 4.52501 3.82027 4.62104 3.91633L6.04038 5.33615C6.14343 5.43924 6.18559 5.57513 6.17856 5.71103L5.80851 5.34084ZM9.56998 9.10361C9.44351 8.97709 9.23974 8.97709 9.11327 9.10361C8.98679 9.23013 8.98679 9.43396 9.11327 9.56048L9.47864 9.92598C9.3428 9.93301 9.20695 9.89084 9.10858 9.79243L7.68924 8.37495C7.58619 8.27186 7.54403 8.13597 7.55106 8.00008L7.92112 8.37027C7.98435 8.43353 8.06633 8.46398 8.15065 8.46398C8.23262 8.46398 8.31694 8.43353 8.38018 8.37027C8.50665 8.24375 8.50665 8.03991 8.38018 7.91339L8.01012 7.54321C8.14596 7.53618 8.28181 7.57835 8.38486 7.68144L9.8042 9.10127C9.90725 9.20436 9.94941 9.34025 9.94238 9.47614L9.56998 9.10361ZM6.04038 19.6609L4.62104 21.0807C4.42899 21.2729 4.11748 21.2705 3.92777 21.0807C3.73571 20.8886 3.73571 20.577 3.92777 20.3872L5.34711 18.9674C5.44079 18.8713 5.56727 18.8245 5.69374 18.8245C5.70311 18.8245 5.71248 18.8292 5.72185 18.8292L5.35179 19.1994C5.22531 19.3259 5.22531 19.5297 5.35179 19.6562C5.41503 19.7195 5.497 19.7499 5.58132 19.7499C5.66329 19.7499 5.74761 19.7195 5.81085 19.6562L6.18091 19.286C6.18559 19.4219 6.14343 19.5578 6.04038 19.6609ZM9.80185 15.8981L8.38252 17.318C8.27946 17.4211 8.14362 17.4632 8.00778 17.4562L8.37783 17.086C8.50431 16.9595 8.50431 16.7557 8.37783 16.6291C8.25136 16.5026 8.04759 16.5026 7.92112 16.6291L7.55106 16.9993C7.54403 16.8634 7.58619 16.7276 7.68924 16.6245L9.10858 15.2046C9.20461 15.1086 9.33108 15.0617 9.45522 15.0617C9.46459 15.0617 9.47396 15.0664 9.48332 15.0664L9.11327 15.4366C8.98679 15.5631 8.98679 15.7669 9.11327 15.8935C9.1765 15.9567 9.25848 15.9872 9.3428 15.9872C9.42477 15.9872 9.50909 15.9567 9.57233 15.8935L9.94238 15.5233C9.94707 15.6592 9.90491 15.7951 9.80185 15.8981ZM13.2425 11.306L13.0832 11.4653L12.9848 11.3669C13.0645 11.3247 13.1511 11.3013 13.2425 11.306ZM11.3125 13.2366C11.3125 13.2272 11.3079 13.2178 11.3079 13.2084C11.3079 13.1241 11.336 13.0468 11.3758 12.9765L11.4765 13.0772L11.3125 13.2366ZM11.7716 13.6911L11.9309 13.5318L12.0292 13.6302C11.9496 13.6724 11.8629 13.6958 11.7716 13.6911ZM13.3315 12.8664C13.205 12.7399 13.0012 12.7399 12.8747 12.8664C12.7483 12.9929 12.7483 13.1967 12.8747 13.3233L13.2448 13.6934C13.109 13.7005 12.9731 13.6583 12.8701 13.5552L12.7389 13.424C12.7389 13.424 12.7389 13.4217 12.7366 13.4217C12.7366 13.4217 12.7342 13.4217 12.7342 13.4193L11.5866 12.2713C11.5866 12.2713 11.5866 12.2713 11.5866 12.2689C11.5866 12.2689 11.5866 12.2689 11.5842 12.2689L11.4507 12.1354C11.3477 12.0323 11.3055 11.8941 11.3125 11.7605L11.6826 12.1307C11.7458 12.194 11.8278 12.2244 11.9121 12.2244C11.9941 12.2244 12.0784 12.194 12.1417 12.1307C12.2681 12.0042 12.2681 11.8003 12.1417 11.6738L11.7716 11.3036C11.9074 11.2966 12.0433 11.3388 12.1463 11.4419L12.2775 11.5731C12.2775 11.5731 12.2775 11.5754 12.2798 11.5754C12.2798 11.5754 12.2822 11.5754 12.2822 11.5778L13.4298 12.7258C13.4298 12.7258 13.4298 12.7258 13.4298 12.7281C13.4298 12.7281 13.4298 12.7281 13.4322 12.7281L13.5657 12.8617C13.6687 12.9648 13.7109 13.1007 13.7039 13.2366L13.3315 12.8664ZM13.6406 12.0229L13.5399 11.9222L13.7039 11.7582C13.7039 11.7699 13.7109 11.7793 13.7109 11.791C13.7085 11.873 13.6804 11.9503 13.6406 12.0229ZM19.2055 19.6562C19.2688 19.7195 19.3508 19.7499 19.4351 19.7499C19.5171 19.7499 19.6014 19.7195 19.6646 19.6562C19.7911 19.5297 19.7911 19.3259 19.6646 19.1994L19.2945 18.8292C19.3039 18.8292 19.3133 18.8245 19.3227 18.8245C19.4491 18.8245 19.5733 18.8713 19.6693 18.9674L21.0886 20.3872C21.2807 20.5794 21.2807 20.891 21.0886 21.0807C20.8989 21.2729 20.5851 21.2729 20.3954 21.0807L18.976 19.6609C18.873 19.5578 18.8308 19.4196 18.8378 19.286L19.2055 19.6562ZM15.4441 15.8935C15.5073 15.9567 15.5893 15.9872 15.6736 15.9872C15.7556 15.9872 15.8399 15.9567 15.9031 15.8935C16.0296 15.7669 16.0296 15.5631 15.9031 15.4366L15.5331 15.0664C15.5424 15.0664 15.5518 15.0617 15.5612 15.0617C15.6877 15.0617 15.8118 15.1086 15.9078 15.2046L17.3272 16.6245C17.4302 16.7276 17.4724 16.8658 17.4653 16.9993L17.0953 16.6291C16.9688 16.5026 16.765 16.5026 16.6386 16.6291C16.5121 16.7557 16.5121 16.9595 16.6386 17.086L17.0086 17.4562C16.8728 17.4632 16.7369 17.4211 16.6339 17.318L15.2145 15.8981C15.1115 15.7951 15.0693 15.6568 15.0764 15.5233L15.4441 15.8935ZM17.3248 8.37261L15.9055 9.79009C15.8071 9.88849 15.6713 9.93067 15.5354 9.92364L15.9008 9.55814C16.0273 9.43162 16.0273 9.22779 15.9008 9.10127C15.7743 8.97475 15.5705 8.97475 15.4441 9.10127L15.074 9.47145C15.067 9.33556 15.1091 9.19967 15.2122 9.09658L16.6315 7.67676C16.7276 7.58069 16.854 7.53384 16.9782 7.53384C16.9875 7.53384 16.9969 7.53852 17.0063 7.53852L16.6362 7.90871C16.5097 8.03523 16.5097 8.23906 16.6362 8.36558C16.6995 8.42884 16.7814 8.4593 16.8657 8.4593C16.9477 8.4593 17.032 8.42884 17.0953 8.36558L17.4653 7.9954C17.47 8.13363 17.4279 8.27186 17.3248 8.37261Z"/>
</mask>
<g filter="url(#filter0_i)">
<path d="M19.3203 6.81924C19.6107 6.81924 19.9035 6.70912 20.1237 6.48654L21.543 5.06672C21.9857 4.6239 21.9857 3.90227 21.543 3.45711C21.1003 3.0143 20.379 3.0143 19.934 3.45711L18.5146 4.87694C18.1516 5.24009 18.0907 5.78834 18.3226 6.21944L17.5122 7.0301C17.0812 6.79815 16.5332 6.85672 16.1701 7.22222L14.7508 8.64205C14.3878 9.00521 14.3269 9.55345 14.5587 9.98456L13.746 10.7976C13.3525 10.5937 12.849 10.6336 12.5023 10.91C12.1417 10.6195 11.6498 10.582 11.254 10.7952L10.4436 9.98456C10.6755 9.55345 10.6146 9.00521 10.2515 8.64205L8.83221 7.22222C8.46918 6.85907 7.92112 6.79815 7.49016 7.0301L6.67978 6.21944C6.91165 5.78834 6.8531 5.24009 6.48773 4.87694L5.06839 3.45711C4.62338 3.0143 3.90435 3.0143 3.45934 3.45711C3.01668 3.89993 3.01668 4.62156 3.45934 5.06672L4.87868 6.48654C5.10118 6.70912 5.39161 6.81924 5.68203 6.81924C5.86706 6.81924 6.05209 6.76769 6.22072 6.67866L7.0311 7.48932C6.79923 7.92042 6.86013 8.46867 7.22316 8.83183L8.6425 10.2493C8.85563 10.4625 9.14137 10.582 9.44585 10.582C9.63791 10.582 9.82059 10.5305 9.98454 10.4414L10.7926 11.2497C10.5794 11.6457 10.6169 12.1377 10.905 12.4985C10.7434 12.7 10.6497 12.9437 10.6497 13.2084C10.6497 13.4029 10.7012 13.5857 10.7902 13.7473L9.9822 14.5556C9.55125 14.3237 9.00319 14.3846 8.64015 14.7478L7.22082 16.1676C6.85779 16.5307 6.79689 17.079 7.02876 17.5101L6.21838 18.3208C5.78743 18.0888 5.23937 18.1497 4.87634 18.5129L3.457 19.9327C3.01433 20.3755 3.01433 21.0971 3.457 21.5423C3.6795 21.7649 3.96993 21.875 4.26035 21.875C4.55078 21.875 4.84354 21.7649 5.06371 21.5423L6.48304 20.1225C6.84607 19.7593 6.90697 19.2111 6.6751 18.78L7.48548 17.9693C7.65411 18.0607 7.8368 18.1099 8.02417 18.1099C8.3146 18.1099 8.60736 17.9998 8.82752 17.7772L10.2469 16.3574C10.6099 15.9942 10.6708 15.446 10.4389 15.0149L11.247 14.2065C11.4109 14.2956 11.5936 14.3471 11.7856 14.3471C12.048 14.3471 12.2939 14.2534 12.4953 14.0917C12.7014 14.2581 12.952 14.3448 13.205 14.3448C13.39 14.3448 13.575 14.2932 13.7437 14.2042L14.5517 15.0125C14.3198 15.4436 14.3807 15.9919 14.7438 16.355L16.1631 17.7748C16.3856 17.9974 16.676 18.1075 16.9665 18.1075C17.1538 18.1075 17.3365 18.056 17.5052 17.967L18.3155 18.7776C18.0837 19.2087 18.1446 19.757 18.5076 20.1201L19.9269 21.54C20.1565 21.7602 20.4469 21.8703 20.7396 21.8703C21.0301 21.8703 21.3228 21.7602 21.543 21.5376C21.9857 21.0948 21.9857 20.3732 21.543 19.928L20.1237 18.5082C19.7606 18.145 19.2126 18.0841 18.7816 18.3161L17.9712 17.5054C18.2031 17.0743 18.1422 16.5261 17.7792 16.1629L16.3598 14.7431C15.9968 14.3799 15.4488 14.319 15.0178 14.551L14.2074 13.7403C14.4206 13.3443 14.3831 12.8523 14.0927 12.4915C14.2566 12.2877 14.3503 12.044 14.3503 11.7839C14.3503 11.5918 14.2964 11.4067 14.2074 11.2427L15.0155 10.4344C15.1794 10.5234 15.3621 10.575 15.5541 10.575C15.8586 10.575 16.1444 10.4578 16.3575 10.2423L17.7768 8.8248C18.1399 8.46164 18.2008 7.91339 17.9689 7.48229L18.7793 6.67163C18.9503 6.77004 19.1353 6.81924 19.3203 6.81924ZM18.9737 5.33615L20.393 3.91633C20.489 3.82027 20.6155 3.77341 20.7396 3.77341C20.8661 3.77341 20.9903 3.82027 21.0863 3.91633C21.2783 4.10845 21.2783 4.42006 21.0863 4.60984L19.6669 6.02967C19.5639 6.13276 19.428 6.17493 19.2922 6.1679L19.6623 5.79771C19.7887 5.6712 19.7887 5.46736 19.6623 5.34084C19.5358 5.21432 19.332 5.21432 19.2055 5.34084L18.8355 5.71103C18.8285 5.57513 18.8706 5.43924 18.9737 5.33615ZM5.80851 5.34084C5.68203 5.21432 5.47827 5.21432 5.35179 5.34084C5.22531 5.46736 5.22531 5.6712 5.35179 5.79771L5.72185 6.1679C5.586 6.17493 5.45016 6.13276 5.34711 6.02967L3.92777 4.60984C3.73571 4.41772 3.73571 4.10611 3.92777 3.91633C4.0238 3.82027 4.15027 3.77341 4.27441 3.77341C4.40088 3.77341 4.52501 3.82027 4.62104 3.91633L6.04038 5.33615C6.14343 5.43924 6.18559 5.57513 6.17856 5.71103L5.80851 5.34084ZM9.56998 9.10361C9.44351 8.97709 9.23974 8.97709 9.11327 9.10361C8.98679 9.23013 8.98679 9.43396 9.11327 9.56048L9.47864 9.92598C9.3428 9.93301 9.20695 9.89084 9.10858 9.79243L7.68924 8.37495C7.58619 8.27186 7.54403 8.13597 7.55106 8.00008L7.92112 8.37027C7.98435 8.43353 8.06633 8.46398 8.15065 8.46398C8.23262 8.46398 8.31694 8.43353 8.38018 8.37027C8.50665 8.24375 8.50665 8.03991 8.38018 7.91339L8.01012 7.54321C8.14596 7.53618 8.28181 7.57835 8.38486 7.68144L9.8042 9.10127C9.90725 9.20436 9.94941 9.34025 9.94238 9.47614L9.56998 9.10361ZM6.04038 19.6609L4.62104 21.0807C4.42899 21.2729 4.11748 21.2705 3.92777 21.0807C3.73571 20.8886 3.73571 20.577 3.92777 20.3872L5.34711 18.9674C5.44079 18.8713 5.56727 18.8245 5.69374 18.8245C5.70311 18.8245 5.71248 18.8292 5.72185 18.8292L5.35179 19.1994C5.22531 19.3259 5.22531 19.5297 5.35179 19.6562C5.41503 19.7195 5.497 19.7499 5.58132 19.7499C5.66329 19.7499 5.74761 19.7195 5.81085 19.6562L6.18091 19.286C6.18559 19.4219 6.14343 19.5578 6.04038 19.6609ZM9.80185 15.8981L8.38252 17.318C8.27946 17.4211 8.14362 17.4632 8.00778 17.4562L8.37783 17.086C8.50431 16.9595 8.50431 16.7557 8.37783 16.6291C8.25136 16.5026 8.04759 16.5026 7.92112 16.6291L7.55106 16.9993C7.54403 16.8634 7.58619 16.7276 7.68924 16.6245L9.10858 15.2046C9.20461 15.1086 9.33108 15.0617 9.45522 15.0617C9.46459 15.0617 9.47396 15.0664 9.48332 15.0664L9.11327 15.4366C8.98679 15.5631 8.98679 15.7669 9.11327 15.8935C9.1765 15.9567 9.25848 15.9872 9.3428 15.9872C9.42477 15.9872 9.50909 15.9567 9.57233 15.8935L9.94238 15.5233C9.94707 15.6592 9.90491 15.7951 9.80185 15.8981ZM13.2425 11.306L13.0832 11.4653L12.9848 11.3669C13.0645 11.3247 13.1511 11.3013 13.2425 11.306ZM11.3125 13.2366C11.3125 13.2272 11.3079 13.2178 11.3079 13.2084C11.3079 13.1241 11.336 13.0468 11.3758 12.9765L11.4765 13.0772L11.3125 13.2366ZM11.7716 13.6911L11.9309 13.5318L12.0292 13.6302C11.9496 13.6724 11.8629 13.6958 11.7716 13.6911ZM13.3315 12.8664C13.205 12.7399 13.0012 12.7399 12.8747 12.8664C12.7483 12.9929 12.7483 13.1967 12.8747 13.3233L13.2448 13.6934C13.109 13.7005 12.9731 13.6583 12.8701 13.5552L12.7389 13.424C12.7389 13.424 12.7389 13.4217 12.7366 13.4217C12.7366 13.4217 12.7342 13.4217 12.7342 13.4193L11.5866 12.2713C11.5866 12.2713 11.5866 12.2713 11.5866 12.2689C11.5866 12.2689 11.5866 12.2689 11.5842 12.2689L11.4507 12.1354C11.3477 12.0323 11.3055 11.8941 11.3125 11.7605L11.6826 12.1307C11.7458 12.194 11.8278 12.2244 11.9121 12.2244C11.9941 12.2244 12.0784 12.194 12.1417 12.1307C12.2681 12.0042 12.2681 11.8003 12.1417 11.6738L11.7716 11.3036C11.9074 11.2966 12.0433 11.3388 12.1463 11.4419L12.2775 11.5731C12.2775 11.5731 12.2775 11.5754 12.2798 11.5754C12.2798 11.5754 12.2822 11.5754 12.2822 11.5778L13.4298 12.7258C13.4298 12.7258 13.4298 12.7258 13.4298 12.7281C13.4298 12.7281 13.4298 12.7281 13.4322 12.7281L13.5657 12.8617C13.6687 12.9648 13.7109 13.1007 13.7039 13.2366L13.3315 12.8664ZM13.6406 12.0229L13.5399 11.9222L13.7039 11.7582C13.7039 11.7699 13.7109 11.7793 13.7109 11.791C13.7085 11.873 13.6804 11.9503 13.6406 12.0229ZM19.2055 19.6562C19.2688 19.7195 19.3508 19.7499 19.4351 19.7499C19.5171 19.7499 19.6014 19.7195 19.6646 19.6562C19.7911 19.5297 19.7911 19.3259 19.6646 19.1994L19.2945 18.8292C19.3039 18.8292 19.3133 18.8245 19.3227 18.8245C19.4491 18.8245 19.5733 18.8713 19.6693 18.9674L21.0886 20.3872C21.2807 20.5794 21.2807 20.891 21.0886 21.0807C20.8989 21.2729 20.5851 21.2729 20.3954 21.0807L18.976 19.6609C18.873 19.5578 18.8308 19.4196 18.8378 19.286L19.2055 19.6562ZM15.4441 15.8935C15.5073 15.9567 15.5893 15.9872 15.6736 15.9872C15.7556 15.9872 15.8399 15.9567 15.9031 15.8935C16.0296 15.7669 16.0296 15.5631 15.9031 15.4366L15.5331 15.0664C15.5424 15.0664 15.5518 15.0617 15.5612 15.0617C15.6877 15.0617 15.8118 15.1086 15.9078 15.2046L17.3272 16.6245C17.4302 16.7276 17.4724 16.8658 17.4653 16.9993L17.0953 16.6291C16.9688 16.5026 16.765 16.5026 16.6386 16.6291C16.5121 16.7557 16.5121 16.9595 16.6386 17.086L17.0086 17.4562C16.8728 17.4632 16.7369 17.4211 16.6339 17.318L15.2145 15.8981C15.1115 15.7951 15.0693 15.6568 15.0764 15.5233L15.4441 15.8935ZM17.3248 8.37261L15.9055 9.79009C15.8071 9.88849 15.6713 9.93067 15.5354 9.92364L15.9008 9.55814C16.0273 9.43162 16.0273 9.22779 15.9008 9.10127C15.7743 8.97475 15.5705 8.97475 15.4441 9.10127L15.074 9.47145C15.067 9.33556 15.1091 9.19967 15.2122 9.09658L16.6315 7.67676C16.7276 7.58069 16.854 7.53384 16.9782 7.53384C16.9875 7.53384 16.9969 7.53852 17.0063 7.53852L16.6362 7.90871C16.5097 8.03523 16.5097 8.23906 16.6362 8.36558C16.6995 8.42884 16.7814 8.4593 16.8657 8.4593C16.9477 8.4593 17.032 8.42884 17.0953 8.36558L17.4653 7.9954C17.47 8.13363 17.4279 8.27186 17.3248 8.37261Z" fill="#595959"/>
<path d="M19.3203 6.81924C19.6107 6.81924 19.9035 6.70912 20.1237 6.48654L21.543 5.06672C21.9857 4.6239 21.9857 3.90227 21.543 3.45711C21.1003 3.0143 20.379 3.0143 19.934 3.45711L18.5146 4.87694C18.1516 5.24009 18.0907 5.78834 18.3226 6.21944L17.5122 7.0301C17.0812 6.79815 16.5332 6.85672 16.1701 7.22222L14.7508 8.64205C14.3878 9.00521 14.3269 9.55345 14.5587 9.98456L13.746 10.7976C13.3525 10.5937 12.849 10.6336 12.5023 10.91C12.1417 10.6195 11.6498 10.582 11.254 10.7952L10.4436 9.98456C10.6755 9.55345 10.6146 9.00521 10.2515 8.64205L8.83221 7.22222C8.46918 6.85907 7.92112 6.79815 7.49016 7.0301L6.67978 6.21944C6.91165 5.78834 6.8531 5.24009 6.48773 4.87694L5.06839 3.45711C4.62338 3.0143 3.90435 3.0143 3.45934 3.45711C3.01668 3.89993 3.01668 4.62156 3.45934 5.06672L4.87868 6.48654C5.10118 6.70912 5.39161 6.81924 5.68203 6.81924C5.86706 6.81924 6.05209 6.76769 6.22072 6.67866L7.0311 7.48932C6.79923 7.92042 6.86013 8.46867 7.22316 8.83183L8.6425 10.2493C8.85563 10.4625 9.14137 10.582 9.44585 10.582C9.63791 10.582 9.82059 10.5305 9.98454 10.4414L10.7926 11.2497C10.5794 11.6457 10.6169 12.1377 10.905 12.4985C10.7434 12.7 10.6497 12.9437 10.6497 13.2084C10.6497 13.4029 10.7012 13.5857 10.7902 13.7473L9.9822 14.5556C9.55125 14.3237 9.00319 14.3846 8.64015 14.7478L7.22082 16.1676C6.85779 16.5307 6.79689 17.079 7.02876 17.5101L6.21838 18.3208C5.78743 18.0888 5.23937 18.1497 4.87634 18.5129L3.457 19.9327C3.01433 20.3755 3.01433 21.0971 3.457 21.5423C3.6795 21.7649 3.96993 21.875 4.26035 21.875C4.55078 21.875 4.84354 21.7649 5.06371 21.5423L6.48304 20.1225C6.84607 19.7593 6.90697 19.2111 6.6751 18.78L7.48548 17.9693C7.65411 18.0607 7.8368 18.1099 8.02417 18.1099C8.3146 18.1099 8.60736 17.9998 8.82752 17.7772L10.2469 16.3574C10.6099 15.9942 10.6708 15.446 10.4389 15.0149L11.247 14.2065C11.4109 14.2956 11.5936 14.3471 11.7856 14.3471C12.048 14.3471 12.2939 14.2534 12.4953 14.0917C12.7014 14.2581 12.952 14.3448 13.205 14.3448C13.39 14.3448 13.575 14.2932 13.7437 14.2042L14.5517 15.0125C14.3198 15.4436 14.3807 15.9919 14.7438 16.355L16.1631 17.7748C16.3856 17.9974 16.676 18.1075 16.9665 18.1075C17.1538 18.1075 17.3365 18.056 17.5052 17.967L18.3155 18.7776C18.0837 19.2087 18.1446 19.757 18.5076 20.1201L19.9269 21.54C20.1565 21.7602 20.4469 21.8703 20.7396 21.8703C21.0301 21.8703 21.3228 21.7602 21.543 21.5376C21.9857 21.0948 21.9857 20.3732 21.543 19.928L20.1237 18.5082C19.7606 18.145 19.2126 18.0841 18.7816 18.3161L17.9712 17.5054C18.2031 17.0743 18.1422 16.5261 17.7792 16.1629L16.3598 14.7431C15.9968 14.3799 15.4488 14.319 15.0178 14.551L14.2074 13.7403C14.4206 13.3443 14.3831 12.8523 14.0927 12.4915C14.2566 12.2877 14.3503 12.044 14.3503 11.7839C14.3503 11.5918 14.2964 11.4067 14.2074 11.2427L15.0155 10.4344C15.1794 10.5234 15.3621 10.575 15.5541 10.575C15.8586 10.575 16.1444 10.4578 16.3575 10.2423L17.7768 8.8248C18.1399 8.46164 18.2008 7.91339 17.9689 7.48229L18.7793 6.67163C18.9503 6.77004 19.1353 6.81924 19.3203 6.81924ZM18.9737 5.33615L20.393 3.91633C20.489 3.82027 20.6155 3.77341 20.7396 3.77341C20.8661 3.77341 20.9903 3.82027 21.0863 3.91633C21.2783 4.10845 21.2783 4.42006 21.0863 4.60984L19.6669 6.02967C19.5639 6.13276 19.428 6.17493 19.2922 6.1679L19.6623 5.79771C19.7887 5.6712 19.7887 5.46736 19.6623 5.34084C19.5358 5.21432 19.332 5.21432 19.2055 5.34084L18.8355 5.71103C18.8285 5.57513 18.8706 5.43924 18.9737 5.33615ZM5.80851 5.34084C5.68203 5.21432 5.47827 5.21432 5.35179 5.34084C5.22531 5.46736 5.22531 5.6712 5.35179 5.79771L5.72185 6.1679C5.586 6.17493 5.45016 6.13276 5.34711 6.02967L3.92777 4.60984C3.73571 4.41772 3.73571 4.10611 3.92777 3.91633C4.0238 3.82027 4.15027 3.77341 4.27441 3.77341C4.40088 3.77341 4.52501 3.82027 4.62104 3.91633L6.04038 5.33615C6.14343 5.43924 6.18559 5.57513 6.17856 5.71103L5.80851 5.34084ZM9.56998 9.10361C9.44351 8.97709 9.23974 8.97709 9.11327 9.10361C8.98679 9.23013 8.98679 9.43396 9.11327 9.56048L9.47864 9.92598C9.3428 9.93301 9.20695 9.89084 9.10858 9.79243L7.68924 8.37495C7.58619 8.27186 7.54403 8.13597 7.55106 8.00008L7.92112 8.37027C7.98435 8.43353 8.06633 8.46398 8.15065 8.46398C8.23262 8.46398 8.31694 8.43353 8.38018 8.37027C8.50665 8.24375 8.50665 8.03991 8.38018 7.91339L8.01012 7.54321C8.14596 7.53618 8.28181 7.57835 8.38486 7.68144L9.8042 9.10127C9.90725 9.20436 9.94941 9.34025 9.94238 9.47614L9.56998 9.10361ZM6.04038 19.6609L4.62104 21.0807C4.42899 21.2729 4.11748 21.2705 3.92777 21.0807C3.73571 20.8886 3.73571 20.577 3.92777 20.3872L5.34711 18.9674C5.44079 18.8713 5.56727 18.8245 5.69374 18.8245C5.70311 18.8245 5.71248 18.8292 5.72185 18.8292L5.35179 19.1994C5.22531 19.3259 5.22531 19.5297 5.35179 19.6562C5.41503 19.7195 5.497 19.7499 5.58132 19.7499C5.66329 19.7499 5.74761 19.7195 5.81085 19.6562L6.18091 19.286C6.18559 19.4219 6.14343 19.5578 6.04038 19.6609ZM9.80185 15.8981L8.38252 17.318C8.27946 17.4211 8.14362 17.4632 8.00778 17.4562L8.37783 17.086C8.50431 16.9595 8.50431 16.7557 8.37783 16.6291C8.25136 16.5026 8.04759 16.5026 7.92112 16.6291L7.55106 16.9993C7.54403 16.8634 7.58619 16.7276 7.68924 16.6245L9.10858 15.2046C9.20461 15.1086 9.33108 15.0617 9.45522 15.0617C9.46459 15.0617 9.47396 15.0664 9.48332 15.0664L9.11327 15.4366C8.98679 15.5631 8.98679 15.7669 9.11327 15.8935C9.1765 15.9567 9.25848 15.9872 9.3428 15.9872C9.42477 15.9872 9.50909 15.9567 9.57233 15.8935L9.94238 15.5233C9.94707 15.6592 9.90491 15.7951 9.80185 15.8981ZM13.2425 11.306L13.0832 11.4653L12.9848 11.3669C13.0645 11.3247 13.1511 11.3013 13.2425 11.306ZM11.3125 13.2366C11.3125 13.2272 11.3079 13.2178 11.3079 13.2084C11.3079 13.1241 11.336 13.0468 11.3758 12.9765L11.4765 13.0772L11.3125 13.2366ZM11.7716 13.6911L11.9309 13.5318L12.0292 13.6302C11.9496 13.6724 11.8629 13.6958 11.7716 13.6911ZM13.3315 12.8664C13.205 12.7399 13.0012 12.7399 12.8747 12.8664C12.7483 12.9929 12.7483 13.1967 12.8747 13.3233L13.2448 13.6934C13.109 13.7005 12.9731 13.6583 12.8701 13.5552L12.7389 13.424C12.7389 13.424 12.7389 13.4217 12.7366 13.4217C12.7366 13.4217 12.7342 13.4217 12.7342 13.4193L11.5866 12.2713C11.5866 12.2713 11.5866 12.2713 11.5866 12.2689C11.5866 12.2689 11.5866 12.2689 11.5842 12.2689L11.4507 12.1354C11.3477 12.0323 11.3055 11.8941 11.3125 11.7605L11.6826 12.1307C11.7458 12.194 11.8278 12.2244 11.9121 12.2244C11.9941 12.2244 12.0784 12.194 12.1417 12.1307C12.2681 12.0042 12.2681 11.8003 12.1417 11.6738L11.7716 11.3036C11.9074 11.2966 12.0433 11.3388 12.1463 11.4419L12.2775 11.5731C12.2775 11.5731 12.2775 11.5754 12.2798 11.5754C12.2798 11.5754 12.2822 11.5754 12.2822 11.5778L13.4298 12.7258C13.4298 12.7258 13.4298 12.7258 13.4298 12.7281C13.4298 12.7281 13.4298 12.7281 13.4322 12.7281L13.5657 12.8617C13.6687 12.9648 13.7109 13.1007 13.7039 13.2366L13.3315 12.8664ZM13.6406 12.0229L13.5399 11.9222L13.7039 11.7582C13.7039 11.7699 13.7109 11.7793 13.7109 11.791C13.7085 11.873 13.6804 11.9503 13.6406 12.0229ZM19.2055 19.6562C19.2688 19.7195 19.3508 19.7499 19.4351 19.7499C19.5171 19.7499 19.6014 19.7195 19.6646 19.6562C19.7911 19.5297 19.7911 19.3259 19.6646 19.1994L19.2945 18.8292C19.3039 18.8292 19.3133 18.8245 19.3227 18.8245C19.4491 18.8245 19.5733 18.8713 19.6693 18.9674L21.0886 20.3872C21.2807 20.5794 21.2807 20.891 21.0886 21.0807C20.8989 21.2729 20.5851 21.2729 20.3954 21.0807L18.976 19.6609C18.873 19.5578 18.8308 19.4196 18.8378 19.286L19.2055 19.6562ZM15.4441 15.8935C15.5073 15.9567 15.5893 15.9872 15.6736 15.9872C15.7556 15.9872 15.8399 15.9567 15.9031 15.8935C16.0296 15.7669 16.0296 15.5631 15.9031 15.4366L15.5331 15.0664C15.5424 15.0664 15.5518 15.0617 15.5612 15.0617C15.6877 15.0617 15.8118 15.1086 15.9078 15.2046L17.3272 16.6245C17.4302 16.7276 17.4724 16.8658 17.4653 16.9993L17.0953 16.6291C16.9688 16.5026 16.765 16.5026 16.6386 16.6291C16.5121 16.7557 16.5121 16.9595 16.6386 17.086L17.0086 17.4562C16.8728 17.4632 16.7369 17.4211 16.6339 17.318L15.2145 15.8981C15.1115 15.7951 15.0693 15.6568 15.0764 15.5233L15.4441 15.8935ZM17.3248 8.37261L15.9055 9.79009C15.8071 9.88849 15.6713 9.93067 15.5354 9.92364L15.9008 9.55814C16.0273 9.43162 16.0273 9.22779 15.9008 9.10127C15.7743 8.97475 15.5705 8.97475 15.4441 9.10127L15.074 9.47145C15.067 9.33556 15.1091 9.19967 15.2122 9.09658L16.6315 7.67676C16.7276 7.58069 16.854 7.53384 16.9782 7.53384C16.9875 7.53384 16.9969 7.53852 17.0063 7.53852L16.6362 7.90871C16.5097 8.03523 16.5097 8.23906 16.6362 8.36558C16.6995 8.42884 16.7814 8.4593 16.8657 8.4593C16.9477 8.4593 17.032 8.42884 17.0953 8.36558L17.4653 7.9954C17.47 8.13363 17.4279 8.27186 17.3248 8.37261Z" fill="url(#paint1_linear)"/>
</g>
<path d="M19.3203 6.81924C19.6107 6.81924 19.9035 6.70912 20.1237 6.48654L21.543 5.06672C21.9857 4.6239 21.9857 3.90227 21.543 3.45711C21.1003 3.0143 20.379 3.0143 19.934 3.45711L18.5146 4.87694C18.1516 5.24009 18.0907 5.78834 18.3226 6.21944L17.5122 7.0301C17.0812 6.79815 16.5332 6.85672 16.1701 7.22222L14.7508 8.64205C14.3878 9.00521 14.3269 9.55345 14.5587 9.98456L13.746 10.7976C13.3525 10.5937 12.849 10.6336 12.5023 10.91C12.1417 10.6195 11.6498 10.582 11.254 10.7952L10.4436 9.98456C10.6755 9.55345 10.6146 9.00521 10.2515 8.64205L8.83221 7.22222C8.46918 6.85907 7.92112 6.79815 7.49016 7.0301L6.67978 6.21944C6.91165 5.78834 6.8531 5.24009 6.48773 4.87694L5.06839 3.45711C4.62338 3.0143 3.90435 3.0143 3.45934 3.45711C3.01668 3.89993 3.01668 4.62156 3.45934 5.06672L4.87868 6.48654C5.10118 6.70912 5.39161 6.81924 5.68203 6.81924C5.86706 6.81924 6.05209 6.76769 6.22072 6.67866L7.0311 7.48932C6.79923 7.92042 6.86013 8.46867 7.22316 8.83183L8.6425 10.2493C8.85563 10.4625 9.14137 10.582 9.44585 10.582C9.63791 10.582 9.82059 10.5305 9.98454 10.4414L10.7926 11.2497C10.5794 11.6457 10.6169 12.1377 10.905 12.4985C10.7434 12.7 10.6497 12.9437 10.6497 13.2084C10.6497 13.4029 10.7012 13.5857 10.7902 13.7473L9.9822 14.5556C9.55125 14.3237 9.00319 14.3846 8.64015 14.7478L7.22082 16.1676C6.85779 16.5307 6.79689 17.079 7.02876 17.5101L6.21838 18.3208C5.78743 18.0888 5.23937 18.1497 4.87634 18.5129L3.457 19.9327C3.01433 20.3755 3.01433 21.0971 3.457 21.5423C3.6795 21.7649 3.96993 21.875 4.26035 21.875C4.55078 21.875 4.84354 21.7649 5.06371 21.5423L6.48304 20.1225C6.84607 19.7593 6.90697 19.2111 6.6751 18.78L7.48548 17.9693C7.65411 18.0607 7.8368 18.1099 8.02417 18.1099C8.3146 18.1099 8.60736 17.9998 8.82752 17.7772L10.2469 16.3574C10.6099 15.9942 10.6708 15.446 10.4389 15.0149L11.247 14.2065C11.4109 14.2956 11.5936 14.3471 11.7856 14.3471C12.048 14.3471 12.2939 14.2534 12.4953 14.0917C12.7014 14.2581 12.952 14.3448 13.205 14.3448C13.39 14.3448 13.575 14.2932 13.7437 14.2042L14.5517 15.0125C14.3198 15.4436 14.3807 15.9919 14.7438 16.355L16.1631 17.7748C16.3856 17.9974 16.676 18.1075 16.9665 18.1075C17.1538 18.1075 17.3365 18.056 17.5052 17.967L18.3155 18.7776C18.0837 19.2087 18.1446 19.757 18.5076 20.1201L19.9269 21.54C20.1565 21.7602 20.4469 21.8703 20.7396 21.8703C21.0301 21.8703 21.3228 21.7602 21.543 21.5376C21.9857 21.0948 21.9857 20.3732 21.543 19.928L20.1237 18.5082C19.7606 18.145 19.2126 18.0841 18.7816 18.3161L17.9712 17.5054C18.2031 17.0743 18.1422 16.5261 17.7792 16.1629L16.3598 14.7431C15.9968 14.3799 15.4488 14.319 15.0178 14.551L14.2074 13.7403C14.4206 13.3443 14.3831 12.8523 14.0927 12.4915C14.2566 12.2877 14.3503 12.044 14.3503 11.7839C14.3503 11.5918 14.2964 11.4067 14.2074 11.2427L15.0155 10.4344C15.1794 10.5234 15.3621 10.575 15.5541 10.575C15.8586 10.575 16.1444 10.4578 16.3575 10.2423L17.7768 8.8248C18.1399 8.46164 18.2008 7.91339 17.9689 7.48229L18.7793 6.67163C18.9503 6.77004 19.1353 6.81924 19.3203 6.81924ZM18.9737 5.33615L20.393 3.91633C20.489 3.82027 20.6155 3.77341 20.7396 3.77341C20.8661 3.77341 20.9903 3.82027 21.0863 3.91633C21.2783 4.10845 21.2783 4.42006 21.0863 4.60984L19.6669 6.02967C19.5639 6.13276 19.428 6.17493 19.2922 6.1679L19.6623 5.79771C19.7887 5.6712 19.7887 5.46736 19.6623 5.34084C19.5358 5.21432 19.332 5.21432 19.2055 5.34084L18.8355 5.71103C18.8285 5.57513 18.8706 5.43924 18.9737 5.33615ZM5.80851 5.34084C5.68203 5.21432 5.47827 5.21432 5.35179 5.34084C5.22531 5.46736 5.22531 5.6712 5.35179 5.79771L5.72185 6.1679C5.586 6.17493 5.45016 6.13276 5.34711 6.02967L3.92777 4.60984C3.73571 4.41772 3.73571 4.10611 3.92777 3.91633C4.0238 3.82027 4.15027 3.77341 4.27441 3.77341C4.40088 3.77341 4.52501 3.82027 4.62104 3.91633L6.04038 5.33615C6.14343 5.43924 6.18559 5.57513 6.17856 5.71103L5.80851 5.34084ZM9.56998 9.10361C9.44351 8.97709 9.23974 8.97709 9.11327 9.10361C8.98679 9.23013 8.98679 9.43396 9.11327 9.56048L9.47864 9.92598C9.3428 9.93301 9.20695 9.89084 9.10858 9.79243L7.68924 8.37495C7.58619 8.27186 7.54403 8.13597 7.55106 8.00008L7.92112 8.37027C7.98435 8.43353 8.06633 8.46398 8.15065 8.46398C8.23262 8.46398 8.31694 8.43353 8.38018 8.37027C8.50665 8.24375 8.50665 8.03991 8.38018 7.91339L8.01012 7.54321C8.14596 7.53618 8.28181 7.57835 8.38486 7.68144L9.8042 9.10127C9.90725 9.20436 9.94941 9.34025 9.94238 9.47614L9.56998 9.10361ZM6.04038 19.6609L4.62104 21.0807C4.42899 21.2729 4.11748 21.2705 3.92777 21.0807C3.73571 20.8886 3.73571 20.577 3.92777 20.3872L5.34711 18.9674C5.44079 18.8713 5.56727 18.8245 5.69374 18.8245C5.70311 18.8245 5.71248 18.8292 5.72185 18.8292L5.35179 19.1994C5.22531 19.3259 5.22531 19.5297 5.35179 19.6562C5.41503 19.7195 5.497 19.7499 5.58132 19.7499C5.66329 19.7499 5.74761 19.7195 5.81085 19.6562L6.18091 19.286C6.18559 19.4219 6.14343 19.5578 6.04038 19.6609ZM9.80185 15.8981L8.38252 17.318C8.27946 17.4211 8.14362 17.4632 8.00778 17.4562L8.37783 17.086C8.50431 16.9595 8.50431 16.7557 8.37783 16.6291C8.25136 16.5026 8.04759 16.5026 7.92112 16.6291L7.55106 16.9993C7.54403 16.8634 7.58619 16.7276 7.68924 16.6245L9.10858 15.2046C9.20461 15.1086 9.33108 15.0617 9.45522 15.0617C9.46459 15.0617 9.47396 15.0664 9.48332 15.0664L9.11327 15.4366C8.98679 15.5631 8.98679 15.7669 9.11327 15.8935C9.1765 15.9567 9.25848 15.9872 9.3428 15.9872C9.42477 15.9872 9.50909 15.9567 9.57233 15.8935L9.94238 15.5233C9.94707 15.6592 9.90491 15.7951 9.80185 15.8981ZM13.2425 11.306L13.0832 11.4653L12.9848 11.3669C13.0645 11.3247 13.1511 11.3013 13.2425 11.306ZM11.3125 13.2366C11.3125 13.2272 11.3079 13.2178 11.3079 13.2084C11.3079 13.1241 11.336 13.0468 11.3758 12.9765L11.4765 13.0772L11.3125 13.2366ZM11.7716 13.6911L11.9309 13.5318L12.0292 13.6302C11.9496 13.6724 11.8629 13.6958 11.7716 13.6911ZM13.3315 12.8664C13.205 12.7399 13.0012 12.7399 12.8747 12.8664C12.7483 12.9929 12.7483 13.1967 12.8747 13.3233L13.2448 13.6934C13.109 13.7005 12.9731 13.6583 12.8701 13.5552L12.7389 13.424C12.7389 13.424 12.7389 13.4217 12.7366 13.4217C12.7366 13.4217 12.7342 13.4217 12.7342 13.4193L11.5866 12.2713C11.5866 12.2713 11.5866 12.2713 11.5866 12.2689C11.5866 12.2689 11.5866 12.2689 11.5842 12.2689L11.4507 12.1354C11.3477 12.0323 11.3055 11.8941 11.3125 11.7605L11.6826 12.1307C11.7458 12.194 11.8278 12.2244 11.9121 12.2244C11.9941 12.2244 12.0784 12.194 12.1417 12.1307C12.2681 12.0042 12.2681 11.8003 12.1417 11.6738L11.7716 11.3036C11.9074 11.2966 12.0433 11.3388 12.1463 11.4419L12.2775 11.5731C12.2775 11.5731 12.2775 11.5754 12.2798 11.5754C12.2798 11.5754 12.2822 11.5754 12.2822 11.5778L13.4298 12.7258C13.4298 12.7258 13.4298 12.7258 13.4298 12.7281C13.4298 12.7281 13.4298 12.7281 13.4322 12.7281L13.5657 12.8617C13.6687 12.9648 13.7109 13.1007 13.7039 13.2366L13.3315 12.8664ZM13.6406 12.0229L13.5399 11.9222L13.7039 11.7582C13.7039 11.7699 13.7109 11.7793 13.7109 11.791C13.7085 11.873 13.6804 11.9503 13.6406 12.0229ZM19.2055 19.6562C19.2688 19.7195 19.3508 19.7499 19.4351 19.7499C19.5171 19.7499 19.6014 19.7195 19.6646 19.6562C19.7911 19.5297 19.7911 19.3259 19.6646 19.1994L19.2945 18.8292C19.3039 18.8292 19.3133 18.8245 19.3227 18.8245C19.4491 18.8245 19.5733 18.8713 19.6693 18.9674L21.0886 20.3872C21.2807 20.5794 21.2807 20.891 21.0886 21.0807C20.8989 21.2729 20.5851 21.2729 20.3954 21.0807L18.976 19.6609C18.873 19.5578 18.8308 19.4196 18.8378 19.286L19.2055 19.6562ZM15.4441 15.8935C15.5073 15.9567 15.5893 15.9872 15.6736 15.9872C15.7556 15.9872 15.8399 15.9567 15.9031 15.8935C16.0296 15.7669 16.0296 15.5631 15.9031 15.4366L15.5331 15.0664C15.5424 15.0664 15.5518 15.0617 15.5612 15.0617C15.6877 15.0617 15.8118 15.1086 15.9078 15.2046L17.3272 16.6245C17.4302 16.7276 17.4724 16.8658 17.4653 16.9993L17.0953 16.6291C16.9688 16.5026 16.765 16.5026 16.6386 16.6291C16.5121 16.7557 16.5121 16.9595 16.6386 17.086L17.0086 17.4562C16.8728 17.4632 16.7369 17.4211 16.6339 17.318L15.2145 15.8981C15.1115 15.7951 15.0693 15.6568 15.0764 15.5233L15.4441 15.8935ZM17.3248 8.37261L15.9055 9.79009C15.8071 9.88849 15.6713 9.93067 15.5354 9.92364L15.9008 9.55814C16.0273 9.43162 16.0273 9.22779 15.9008 9.10127C15.7743 8.97475 15.5705 8.97475 15.4441 9.10127L15.074 9.47145C15.067 9.33556 15.1091 9.19967 15.2122 9.09658L16.6315 7.67676C16.7276 7.58069 16.854 7.53384 16.9782 7.53384C16.9875 7.53384 16.9969 7.53852 17.0063 7.53852L16.6362 7.90871C16.5097 8.03523 16.5097 8.23906 16.6362 8.36558C16.6995 8.42884 16.7814 8.4593 16.8657 8.4593C16.9477 8.4593 17.032 8.42884 17.0953 8.36558L17.4653 7.9954C17.47 8.13363 17.4279 8.27186 17.3248 8.37261Z" stroke="url(#paint2_linear)" stroke-width="0.3" mask="url(#path-3-inside-1)"/>
<defs>
<filter id="filter0_i" x="3.125" y="3.125" width="19.75" height="18.75" filterUnits="userSpaceOnUse" color-interpolation-filters="sRGB">
<feFlood flood-opacity="0" result="BackgroundImageFix"/>
<feBlend mode="normal" in="SourceGraphic" in2="BackgroundImageFix" result="shape"/>
<feColorMatrix in="SourceAlpha" type="matrix" values="0 0 0 0 0 0 0 0 0 0 0 0 0 0 0 0 0 0 127 0" result="hardAlpha"/>
<feOffset dx="2"/>
<feGaussianBlur stdDeviation="0.5"/>
<feComposite in2="hardAlpha" operator="arithmetic" k2="-1" k3="1"/>
<feColorMatrix type="matrix" values="0 0 0 0 0.854167 0 0 0 0 0.854167 0 0 0 0 0.854167 0 0 0 1 0"/>
<feBlend mode="normal" in2="shape" result="effect1_innerShadow"/>
</filter>
<linearGradient id="paint0_linear" x1="3.17846" y1="12.8397" x2="21.8225" y2="12.8397" gradientUnits="userSpaceOnUse">
<stop stop-color="#0779E4"/>
<stop offset="0.9341" stop-color="#EA2C62"/>
</linearGradient>
<linearGradient id="paint1_linear" x1="4.09483" y1="3.44828" x2="21.3901" y2="21.2284" gradientUnits="userSpaceOnUse">
<stop stop-color="#A2A2A2"/>
<stop offset="1" stop-color="#BBBBBB"/>
</linearGradient>
<linearGradient id="paint2_linear" x1="4.09483" y1="3.44828" x2="21.3901" y2="21.2284" gradientUnits="userSpaceOnUse">
<stop stop-color="#A2A2A2"/>
<stop offset="1" stop-color="#BBBBBB"/>
</linearGradient>
</defs>
</svg>
