<svg width="25" height="25" viewBox="0 0 25 25" fill="none" xmlns="http://www.w3.org/2000/svg">
<circle cx="12.5" cy="12.5" r="12.5" fill="black"/>
<path d="M8.18017 12.1023H6.42334L6.36059 12.1525V13.7148H6.84372V13.125L6.88763 13.0811H8.18016C8.50642 13.0811 8.65701 12.9933 8.65701 12.7674V12.4098C8.65703 12.1902 8.50643 12.1023 8.18017 12.1023ZM8.18017 12.6796C8.18017 12.7862 8.11115 12.805 7.95429 12.805H6.89392L6.84372 12.7611V12.4286L6.88763 12.3847H7.95428C8.10487 12.3847 8.18015 12.4035 8.18015 12.5101L8.18017 12.6796ZM9.54799 12.3972L9.96837 13.0121L9.94327 13.0686H9.01466L8.77624 13.3635H10.1566L10.257 13.4199L10.4703 13.7148H11.0287L9.80524 12.0835L9.54799 12.3972ZM15.0883 13.4011V12.9619L15.1385 12.918H16.0733V12.6419H14.5926V13.7148H16.7761V13.4388H15.1447L15.0883 13.4011ZM14.5926 12.1023H16.7949V12.4035H14.5926V12.1023ZM12.1393 12.3909H13.915C13.8899 12.1651 13.7455 12.1023 13.3942 12.1023H12.1205C11.7189 12.1023 11.5934 12.1776 11.5934 12.4851V13.3384C11.5934 13.6395 11.7189 13.7211 12.1205 13.7211H13.3942C13.7518 13.7211 13.8899 13.6521 13.9024 13.4199H12.1393L12.0891 13.3697V12.4286L12.1393 12.3909ZM5.16846 12.7298H3.88222L3.84457 12.6858V12.4098L3.88222 12.3784H5.62022L5.64532 12.3219C5.58884 12.1713 5.43199 12.0961 5.14964 12.0961H3.93868C3.53713 12.0961 3.41164 12.1713 3.41164 12.4788V12.6607C3.41164 12.9619 3.53713 13.0435 3.93868 13.0435H5.22494L5.26258 13.0811V13.3697L5.23121 13.4137H3.37399C3.37399 13.4137 3.33008 13.4388 3.33008 13.445C3.36145 13.6584 3.50576 13.7148 3.85084 13.7148H5.16847C5.57003 13.7148 5.7018 13.6395 5.7018 13.3321V13.1125C5.70179 12.8113 5.57003 12.7298 5.16846 12.7298ZM18.1815 12.096H17.4537L17.4161 12.1713L18.2192 12.7611C18.3698 12.6733 18.5392 12.5855 18.7148 12.4976L18.1815 12.096ZM18.8341 13.2003L19.5431 13.7148H20.2709L20.3023 13.6458L19.2482 12.8741C19.1101 12.9807 18.9658 13.0874 18.8341 13.2003Z" fill="white"/>
<path d="M18.0747 13.7147H17.4159L17.3594 13.6269C17.8049 13.194 19.8001 11.3493 24.1357 11.1548C24.1357 11.1548 20.5028 11.2803 18.0747 13.7147Z" fill="white"/>
</svg>
