<svg width="73" height="73" viewBox="0 0 73 73" fill="none" xmlns="http://www.w3.org/2000/svg">
<circle cx="36.5" cy="36.5" r="36.5" fill="black"/>
<path d="M25.466 13.5009C24.7574 13.4078 24.7236 13.3767 25.0611 13.3457C25.7022 13.2526 27.1869 13.3767 28.2329 13.5941C30.6624 14.1218 32.8557 15.4878 35.184 17.8782L35.7913 18.5302L36.6687 18.406C40.4141 17.8472 44.2608 18.2818 47.4664 19.6478C48.3438 20.0203 49.7272 20.7654 49.8959 20.9517C49.9634 21.0137 50.0647 21.4173 50.1321 21.8209C50.3683 23.28 50.2671 24.3666 49.761 25.2048C49.491 25.6704 49.491 25.7946 49.6597 26.1982C49.7947 26.5087 50.1996 26.726 50.5708 26.726C51.3806 26.726 52.2242 25.5463 52.6291 23.9009L52.7978 23.249L53.1015 23.5594C54.8224 25.329 56.1721 27.7815 56.3746 29.52L56.4421 29.9857L56.1384 29.5821C55.6323 28.868 55.1599 28.4024 54.5187 27.9988C53.3715 27.2848 52.1567 27.0675 48.9511 26.9122C46.0492 26.757 44.3958 26.5397 42.7762 26.043C40.0092 25.2048 38.592 24.1182 35.3189 20.1134C33.868 18.3439 32.9569 17.3815 32.0459 16.5743C30.055 14.8048 28.0642 13.8735 25.466 13.5009Z" fill="#FF007A" fill-opacity="0.72"/>
<path d="M50.6046 17.4436C50.6721 16.2639 50.8408 15.4878 51.212 14.7737C51.3469 14.4943 51.4819 14.246 51.5156 14.246C51.5494 14.246 51.4819 14.4633 51.3807 14.7116C51.1107 15.3946 51.077 16.357 51.2457 17.4436C51.4819 18.8406 51.5831 19.0269 53.2028 20.548C53.9451 21.2621 54.8225 22.1624 55.1599 22.5349L55.7335 23.2179L55.1599 22.7212C54.4513 22.1003 52.8316 20.9206 52.4604 20.7654C52.2242 20.6412 52.1905 20.6412 52.0218 20.7964C51.8868 20.9206 51.8531 21.1069 51.8531 22.0071C51.8193 23.4042 51.6169 24.2734 51.1107 25.1737C50.8408 25.6394 50.807 25.5462 51.0432 25.0185C51.212 24.6149 51.2457 24.4286 51.2457 23.0937C51.2457 20.3928 50.9083 19.7409 48.8499 18.6543C48.3438 18.3749 47.4665 17.9713 46.9603 17.754C46.4204 17.5367 46.0155 17.3504 46.0493 17.3504C46.1168 17.2884 48.1076 17.8161 48.8837 18.1266C50.0647 18.5612 50.2671 18.5922 50.4021 18.5612C50.5033 18.4681 50.5708 18.2197 50.6046 17.4436Z" fill="#FF007A" fill-opacity="0.72"/>
<path d="M26.8493 22.0692C25.4321 20.2686 24.521 17.4746 24.7235 15.3946L24.7909 14.7427L25.1284 14.8048C25.7357 14.8979 26.7818 15.2704 27.2879 15.5498C28.6376 16.2949 29.245 17.3194 29.8187 19.865C29.9874 20.6101 30.2236 21.4794 30.3248 21.7588C30.4935 22.2244 31.1346 23.311 31.6745 23.994C32.0457 24.4907 31.8095 24.7391 30.9659 24.677C29.6837 24.5528 27.9628 23.4662 26.8493 22.0692Z" fill="#FF007A" fill-opacity="0.72"/>
<path d="M48.8835 35.5737C42.2024 33.0901 39.8404 30.9481 39.8404 27.3158C39.8404 26.7881 39.8741 26.3534 39.8741 26.3534C39.9079 26.3534 40.1441 26.5397 40.4478 26.757C41.7975 27.7505 43.3159 28.1851 47.5338 28.7439C49.997 29.0854 51.4143 29.3337 52.6965 29.7373C56.7794 30.9791 59.3101 33.5248 59.9175 36.9707C60.0862 37.9642 59.985 39.8579 59.7151 40.8513C59.4788 41.6274 58.804 43.0555 58.6353 43.0865C58.6015 43.0865 58.534 42.9313 58.534 42.6829C58.4666 41.3791 57.758 40.1373 56.5769 39.1749C55.1597 38.0573 53.3376 37.2191 48.8835 35.5737Z" fill="#FF007A" fill-opacity="0.72"/>
<path d="M44.1595 36.5982C44.092 36.1325 43.9233 35.5426 43.8221 35.2943L43.6534 34.8286L43.957 35.1701C44.3957 35.6358 44.7331 36.1946 45.0368 36.9707C45.273 37.5606 45.273 37.7468 45.273 38.7092C45.273 39.6406 45.2393 39.8579 45.0368 40.3856C44.6994 41.2238 44.2945 41.8137 43.6196 42.4656C42.4049 43.6143 40.8189 44.2352 38.5582 44.5146C38.1532 44.5456 37.006 44.6388 35.9937 44.7008C33.463 44.825 31.7758 45.0734 30.2574 45.5701C30.0549 45.6322 29.8525 45.6943 29.8187 45.6632C29.7512 45.6011 30.7973 45.0423 31.6408 44.6698C32.8218 44.142 34.0366 43.8626 36.7023 43.428C38.0183 43.2417 39.368 42.9934 39.7054 42.8692C43.046 41.9068 44.6994 39.5164 44.1595 36.5982Z" fill="#FF007A" fill-opacity="0.72"/>
<path d="M47.2302 41.5963C46.3529 39.8268 46.1504 38.1504 46.6228 36.5671C46.6903 36.4119 46.7578 36.2567 46.8253 36.2567C46.8928 36.2567 47.0952 36.3498 47.2977 36.474C47.7026 36.7223 48.5462 37.1569 50.7057 38.2435C53.4389 39.6095 54.9911 40.665 56.0709 41.8757C57.0157 42.9313 57.5893 44.142 57.8593 45.6322C58.028 46.4704 57.9268 48.4883 57.6906 49.3265C56.9482 51.9653 55.2611 54.0763 52.7978 55.2871C52.4266 55.4733 52.1229 55.5975 52.0892 55.5975C52.0555 55.5975 52.1904 55.2871 52.3929 54.9145C53.2027 53.3312 53.304 51.81 52.6966 50.1026C52.3254 49.0471 51.5493 47.7742 49.9971 45.6322C48.1413 43.1486 47.7026 42.4966 47.2302 41.5963Z" fill="#FF007A" fill-opacity="0.72"/>
<path d="M22.0917 51.096C24.5886 49.1712 27.6593 47.8053 30.4937 47.3706C31.7084 47.1844 33.733 47.2465 34.8465 47.5259C36.6349 47.9605 38.2546 48.8918 39.0982 50.0405C39.908 51.1581 40.2792 52.1205 40.6503 54.2626C40.7853 55.1008 40.954 55.97 40.9878 56.1563C41.2577 57.2739 41.7976 58.1431 42.4725 58.6088C43.5185 59.3228 45.3406 59.3539 47.129 58.733C47.4327 58.6399 47.7026 58.5467 47.7026 58.5778C47.7701 58.6399 46.8591 59.1987 46.2517 59.4781C45.4081 59.8816 44.7332 60.0058 43.8222 60.0058C42.2025 60.0058 40.819 59.2297 39.7055 57.6775C39.4693 57.367 38.9969 56.4667 38.592 55.6285C37.411 53.1139 36.8036 52.3688 35.4202 51.5306C34.2054 50.8166 32.6532 50.6614 31.4722 51.1891C29.92 51.8721 29.5151 53.7038 30.5949 54.8214C31.0336 55.287 31.8434 55.6596 32.5183 55.7527C33.7668 55.9079 34.8465 55.0076 34.8465 53.859C34.8465 53.1139 34.5428 52.6793 33.733 52.3378C32.6532 51.9032 31.4722 52.3999 31.506 53.3623C31.506 53.7658 31.7084 54.0142 32.1471 54.2005C32.417 54.3246 32.417 54.3246 32.2146 54.2936C31.236 54.1073 30.9998 52.9897 31.7759 52.2757C32.7207 51.4065 34.7116 51.779 35.3864 52.9897C35.6564 53.4864 35.6901 54.4799 35.4539 55.1008C34.8803 56.4667 33.2606 57.1808 31.6072 56.7772C30.4937 56.4978 30.0213 56.2184 28.6716 54.9455C26.3095 52.7103 25.3985 52.2757 22.0242 51.81L21.3831 51.7169L22.0917 51.096Z" fill="#FF007A" fill-opacity="0.72"/>
<path fill-rule="evenodd" clip-rule="evenodd" d="M28.3677 28.9612C27.5579 29.1785 26.7818 29.9857 26.5456 30.7928C26.4106 31.2896 26.4781 32.1898 26.7143 32.4692C27.0855 32.9039 27.4229 33.0281 28.3677 33.0281C30.2236 33.0281 31.8095 32.283 31.9782 31.3827C32.1469 30.6376 31.4383 29.6131 30.4598 29.1475C29.9536 28.8991 28.9076 28.806 28.3677 28.9612ZM30.5273 30.5134C30.7972 30.1409 30.696 29.7373 30.1898 29.4579C29.2788 28.9302 27.8953 29.3648 27.8953 30.1719C27.8953 30.5755 28.6039 31.0101 29.2788 31.0101C29.7174 31.0101 30.3248 30.7618 30.5273 30.5134Z" fill="#FF007A" fill-opacity="0.72"/>
<path fill-rule="evenodd" clip-rule="evenodd" d="M14.7968 13.0513C21.6049 21.3483 24.9651 25.4358 25.491 26.1394C25.9293 26.7258 25.754 27.2828 25.0235 27.6933C24.6144 27.9278 23.7671 28.1624 23.358 28.1624C22.8905 28.1624 22.3354 27.9278 21.9555 27.5467C21.6925 27.2828 20.553 25.6117 17.9817 21.5952C16.024 18.5168 14.3586 15.9662 14.3293 15.9368C14.2125 15.8782 14.2125 15.8782 17.7772 22.2695C20.027 26.286 20.7575 27.7226 20.7575 27.8985C20.7575 28.2796 20.6406 28.4849 20.1731 29.0126C19.3842 29.8921 19.0336 30.8889 18.7706 32.9705C18.4784 35.2866 17.6895 36.9284 15.4397 39.7136C14.1248 41.3554 13.9203 41.6485 13.5989 42.3228C13.1898 43.1437 13.0729 43.6128 13.0145 44.6683C12.956 45.7823 13.0729 46.486 13.3943 47.5414C13.6865 48.4796 14.0079 49.0952 14.7968 50.2973C15.4689 51.3527 15.8779 52.1443 15.8779 52.4375C15.8779 52.672 15.9364 52.672 16.9883 52.4375C19.5011 51.8511 21.5757 50.8543 22.7152 49.623C23.4165 48.8607 23.5918 48.4503 23.5918 47.3948C23.5918 46.7205 23.5626 46.5739 23.3872 46.1635C23.095 45.5185 22.5399 44.9908 21.3419 44.1699C19.7641 43.0851 19.092 42.2056 18.9167 41.0329C18.7706 40.0361 18.9459 39.3617 19.8225 37.5147C20.7283 35.6091 20.9621 34.8175 21.1082 32.8825C21.1958 31.6512 21.3419 31.1528 21.6925 30.7716C22.0724 30.3612 22.3938 30.2146 23.2996 30.0973C24.7898 29.8921 25.754 29.511 26.5137 28.778C27.1857 28.1624 27.4779 27.5467 27.5071 26.6378L27.5363 25.9635L27.1565 25.5531C25.7832 23.9699 37.8215 40.0935 17.9817 16.9324C19.758 19.1476 14.2417 12.3477 14.7968 13.0513ZM16.6376 45.9289C16.959 45.3719 16.7837 44.6683 16.2578 44.3164C15.7611 43.994 15.0014 44.1405 15.0014 44.5803C15.0014 44.6976 15.0598 44.8148 15.2351 44.8735C15.4981 45.0201 15.5273 45.1667 15.3228 45.4892C15.1182 45.8117 15.1182 46.1048 15.3812 46.3101C15.7903 46.6325 16.3454 46.4566 16.6376 45.9289Z" fill="#FF007A" fill-opacity="0.72"/>
<mask id="path-11-inside-1" fill="white">
<path d="M54.915 21.2454C55.7204 21.2454 56.5324 20.94 57.143 20.3227L61.0793 16.385C62.3069 15.1569 62.3069 13.1556 61.0793 11.9211C59.8516 10.693 57.851 10.693 56.6168 11.9211L52.6805 15.8587C51.6737 16.8659 51.5048 18.3863 52.1479 19.5819L49.9004 21.8302C48.7053 21.1869 47.1853 21.3493 46.1785 22.363L42.2422 26.3006C41.2354 27.3078 41.0665 28.8282 41.7096 30.0238L39.4556 32.2786C38.3644 31.7133 36.9678 31.8237 36.0065 32.5905C35.0062 31.7847 33.6421 31.6808 32.5444 32.2721L30.2969 30.0238C30.94 28.8282 30.7711 27.3078 29.7643 26.3006L25.828 22.363C24.8212 21.3558 23.3012 21.1869 22.1061 21.8302L19.8586 19.5819C20.5017 18.3863 20.3393 16.8659 19.326 15.8587L15.3897 11.9211C14.1555 10.693 12.1614 10.693 10.9272 11.9211C9.69958 13.1491 9.69958 15.1504 10.9272 16.385L14.8635 20.3227C15.4806 20.94 16.2861 21.2454 17.0915 21.2454C17.6046 21.2454 18.1178 21.1024 18.5855 20.8555L20.8329 23.1037C20.1899 24.2993 20.3588 25.8198 21.3656 26.8269L25.3019 30.7581C25.8929 31.3494 26.6854 31.6808 27.5298 31.6808C28.0625 31.6808 28.5691 31.5378 29.0238 31.2909L31.2648 33.5326C30.6737 34.6308 30.7776 35.9953 31.5765 36.9959C31.1283 37.5547 30.8685 38.2305 30.8685 38.9648C30.8685 39.5041 31.0114 40.0109 31.2583 40.4592L29.0173 42.701C27.8221 42.0577 26.3022 42.2266 25.2954 43.2338L21.3591 47.1714C20.3523 48.1786 20.1834 49.6991 20.8264 50.8947L18.579 53.1429C17.3838 52.4996 15.8638 52.6686 14.857 53.6757L10.9207 57.6134C9.69309 58.8414 9.69309 60.8427 10.9207 62.0773C11.5378 62.6946 12.3433 63 13.1487 63C13.9542 63 14.7661 62.6946 15.3767 62.0773L19.313 58.1397C20.3198 57.1325 20.4887 55.612 19.8456 54.4165L22.0931 52.1682C22.5607 52.4216 23.0674 52.5581 23.587 52.5581C24.3925 52.5581 25.2044 52.2527 25.815 51.6354L29.7513 47.6978C30.7581 46.6906 30.927 45.1701 30.2839 43.9745L32.5249 41.7328C32.9796 41.9797 33.4862 42.1227 34.0189 42.1227C34.7464 42.1227 35.4284 41.8628 35.987 41.4144C36.5586 41.8758 37.2536 42.1162 37.9552 42.1162C38.4683 42.1162 38.9814 41.9732 39.4491 41.7263L41.6901 43.968C41.047 45.1636 41.2159 46.6841 42.2227 47.6913L46.159 51.6289C46.7761 52.2462 47.5815 52.5516 48.387 52.5516C48.9066 52.5516 49.4133 52.4086 49.881 52.1617L52.1284 54.41C51.4854 55.6055 51.6542 57.126 52.661 58.1332L56.5973 62.0708C57.2339 62.6816 58.0393 62.987 58.8513 62.987C59.6567 62.987 60.4687 62.6816 61.0793 62.0643C62.3069 60.8362 62.3069 58.8349 61.0793 57.6004L57.143 53.6627C56.1362 52.6556 54.6162 52.4866 53.421 53.1299L51.1736 50.8817C51.8166 49.6861 51.6477 48.1656 50.6409 47.1584L46.7046 43.2208C45.6978 42.2136 44.1779 42.0447 42.9827 42.688L40.7352 40.4398C41.3263 39.3416 41.2224 37.9771 40.417 36.9764C40.8716 36.4111 41.1315 35.7354 41.1315 35.0141C41.1315 34.4813 40.9821 33.968 40.7352 33.5131L42.9762 31.2714C43.4309 31.5183 43.9375 31.6613 44.4702 31.6613C45.3146 31.6613 46.107 31.3364 46.6981 30.7386L50.6344 26.8074C51.6412 25.8003 51.8101 24.2798 51.1671 23.0842L53.4145 20.836C53.8887 21.1089 54.4018 21.2454 54.915 21.2454ZM53.9537 17.1323L57.8899 13.1946C58.1563 12.9282 58.507 12.7983 58.8513 12.7983C59.2021 12.7983 59.5463 12.9282 59.8126 13.1946C60.3453 13.7274 60.3453 14.5916 59.8126 15.118L55.8763 19.0556C55.5905 19.3415 55.2138 19.4585 54.837 19.439L55.8633 18.4123C56.2141 18.0614 56.2141 17.4961 55.8633 17.1453C55.5126 16.7944 54.9475 16.7944 54.5967 17.1453L53.5704 18.1719C53.5509 17.795 53.6679 17.4182 53.9537 17.1323ZM17.4423 17.1453C17.0915 16.7944 16.5264 16.7944 16.1756 17.1453C15.8249 17.4961 15.8249 18.0614 16.1756 18.4123L17.2019 19.439C16.8252 19.4585 16.4484 19.3415 16.1626 19.0556L12.2263 15.118C11.6937 14.5851 11.6937 13.7209 12.2263 13.1946C12.4927 12.9282 12.8434 12.7983 13.1877 12.7983C13.5384 12.7983 13.8827 12.9282 14.149 13.1946L18.0853 17.1323C18.3711 17.4182 18.488 17.795 18.4686 18.1719L17.4423 17.1453ZM27.8741 27.5807C27.5233 27.2298 26.9582 27.2298 26.6075 27.5807C26.2567 27.9316 26.2567 28.4969 26.6075 28.8477L27.6208 29.8614C27.244 29.8809 26.8673 29.7639 26.5945 29.491L22.6582 25.5599C22.3724 25.274 22.2554 24.8971 22.2749 24.5202L23.3012 25.5469C23.4766 25.7223 23.704 25.8068 23.9378 25.8068C24.1651 25.8068 24.399 25.7223 24.5744 25.5469C24.9251 25.196 24.9251 24.6307 24.5744 24.2798L23.5481 23.2532C23.9248 23.2337 24.3015 23.3506 24.5873 23.6365L28.5236 27.5742C28.8094 27.8601 28.9264 28.2369 28.9069 28.6138L27.8741 27.5807ZM18.0853 56.8596L14.149 60.7973C13.6164 61.3301 12.7525 61.3236 12.2263 60.7973C11.6937 60.2644 11.6937 59.4002 12.2263 58.8739L16.1626 54.9363C16.4225 54.6699 16.7732 54.5399 17.124 54.5399C17.15 54.5399 17.1759 54.5529 17.2019 54.5529L16.1756 55.5796C15.8249 55.9304 15.8249 56.4957 16.1756 56.8466C16.351 57.0221 16.5784 57.1065 16.8122 57.1065C17.0395 57.1065 17.2734 57.0221 17.4488 56.8466L18.475 55.82C18.488 56.1968 18.3711 56.5737 18.0853 56.8596ZM28.5171 46.4242L24.5808 50.3618C24.295 50.6477 23.9183 50.7647 23.5416 50.7452L24.5679 49.7186C24.9186 49.3677 24.9186 48.8024 24.5679 48.4515C24.2171 48.1006 23.652 48.1006 23.3012 48.4515L22.2749 49.4781C22.2554 49.1013 22.3724 48.7244 22.6582 48.4385L26.5945 44.5009C26.8608 44.2345 27.2115 44.1045 27.5558 44.1045C27.5818 44.1045 27.6078 44.1175 27.6338 44.1175L26.6075 45.1441C26.2567 45.495 26.2567 46.0603 26.6075 46.4112C26.7828 46.5866 27.0102 46.6711 27.244 46.6711C27.4714 46.6711 27.7052 46.5866 27.8806 46.4112L28.9069 45.3846C28.9199 45.7614 28.8029 46.1383 28.5171 46.4242ZM38.0591 33.6886L37.6174 34.1304L37.3446 33.8575C37.5654 33.7406 37.8058 33.6756 38.0591 33.6886ZM32.7068 39.0427C32.7068 39.0167 32.6938 38.9908 32.6938 38.9648C32.6938 38.7308 32.7717 38.5164 32.8821 38.3215L33.1614 38.6009L32.7068 39.0427ZM33.9799 40.3033L34.4216 39.8615L34.6944 40.1344C34.4735 40.2513 34.2332 40.3163 33.9799 40.3033ZM38.3059 38.0161C37.9552 37.6652 37.39 37.6652 37.0393 38.0161C36.6885 38.367 36.6885 38.9323 37.0393 39.2832L38.0656 40.3098C37.6888 40.3293 37.3121 40.2123 37.0263 39.9264L36.6625 39.5626C36.6625 39.5626 36.6625 39.5561 36.656 39.5561C36.656 39.5561 36.6496 39.5561 36.6496 39.5496L33.4667 36.3657C33.4667 36.3657 33.4667 36.3657 33.4667 36.3592C33.4667 36.3592 33.4667 36.3592 33.4602 36.3592L33.09 35.9888C32.8042 35.7029 32.6873 35.3195 32.7068 34.9491L33.7331 35.9758C33.9084 36.1512 34.1358 36.2357 34.3696 36.2357C34.597 36.2357 34.8308 36.1512 35.0062 35.9758C35.3569 35.6249 35.3569 35.0596 35.0062 34.7087L33.9799 33.6821C34.3566 33.6626 34.7334 33.7795 35.0192 34.0654L35.3829 34.4293C35.3829 34.4293 35.3829 34.4358 35.3894 34.4358C35.3894 34.4358 35.3959 34.4358 35.3959 34.4423L38.5787 37.6262C38.5787 37.6262 38.5787 37.6262 38.5787 37.6327C38.5787 37.6327 38.5787 37.6327 38.5852 37.6327L38.9555 38.0031C39.2413 38.289 39.3582 38.6659 39.3387 39.0427L38.3059 38.0161ZM39.1633 35.6769L38.884 35.3975L39.3387 34.9426C39.3387 34.9751 39.3582 35.0011 39.3582 35.0336C39.3517 35.261 39.2737 35.4755 39.1633 35.6769ZM54.5967 56.8466C54.7721 57.0221 54.9994 57.1065 55.2333 57.1065C55.4606 57.1065 55.6945 57.0221 55.8698 56.8466C56.2206 56.4957 56.2206 55.9304 55.8698 55.5796L54.8435 54.5529C54.8695 54.5529 54.8955 54.5399 54.9215 54.5399C55.2722 54.5399 55.6165 54.6699 55.8828 54.9363L59.8191 58.8739C60.3518 59.4067 60.3518 60.2709 59.8191 60.7973C59.293 61.3301 58.4226 61.3301 57.8964 60.7973L53.9602 56.8596C53.6743 56.5737 53.5574 56.1903 53.5769 55.82L54.5967 56.8466ZM44.1649 46.4112C44.3403 46.5866 44.5676 46.6711 44.8014 46.6711C45.0288 46.6711 45.2626 46.5866 45.438 46.4112C45.7888 46.0603 45.7888 45.495 45.438 45.1441L44.4117 44.1175C44.4377 44.1175 44.4637 44.1045 44.4897 44.1045C44.8404 44.1045 45.1847 44.2345 45.451 44.5009L49.3873 48.4385C49.6731 48.7244 49.79 49.1078 49.7705 49.4781L48.7442 48.4515C48.3935 48.1006 47.8284 48.1006 47.4776 48.4515C47.1268 48.8024 47.1268 49.3677 47.4776 49.7186L48.5039 50.7452C48.1272 50.7647 47.7504 50.6477 47.4646 50.3618L43.5283 46.4242C43.2425 46.1383 43.1256 45.7549 43.1451 45.3846L44.1649 46.4112ZM49.3808 25.5534L45.4445 29.4845C45.1717 29.7574 44.795 29.8744 44.4182 29.8549L45.4315 28.8412C45.7823 28.4904 45.7823 27.9251 45.4315 27.5742C45.0808 27.2233 44.5156 27.2233 44.1649 27.5742L43.1386 28.6008C43.1191 28.224 43.236 27.8471 43.5218 27.5612L47.4581 23.6235C47.7244 23.3571 48.0752 23.2272 48.4195 23.2272C48.4454 23.2272 48.4714 23.2402 48.4974 23.2402L47.4711 24.2668C47.1203 24.6177 47.1203 25.183 47.4711 25.5339C47.6465 25.7093 47.8738 25.7938 48.1077 25.7938C48.335 25.7938 48.5689 25.7093 48.7442 25.5339L49.7705 24.5072C49.7835 24.8906 49.6666 25.274 49.3808 25.5534Z"/>
</mask>
<g filter="url(#filter0_i)">
<path d="M54.915 21.2454C55.7204 21.2454 56.5324 20.94 57.143 20.3227L61.0793 16.385C62.3069 15.1569 62.3069 13.1556 61.0793 11.9211C59.8516 10.693 57.851 10.693 56.6168 11.9211L52.6805 15.8587C51.6737 16.8659 51.5048 18.3863 52.1479 19.5819L49.9004 21.8302C48.7053 21.1869 47.1853 21.3493 46.1785 22.363L42.2422 26.3006C41.2354 27.3078 41.0665 28.8282 41.7096 30.0238L39.4556 32.2786C38.3644 31.7133 36.9678 31.8237 36.0065 32.5905C35.0062 31.7847 33.6421 31.6808 32.5444 32.2721L30.2969 30.0238C30.94 28.8282 30.7711 27.3078 29.7643 26.3006L25.828 22.363C24.8212 21.3558 23.3012 21.1869 22.1061 21.8302L19.8586 19.5819C20.5017 18.3863 20.3393 16.8659 19.326 15.8587L15.3897 11.9211C14.1555 10.693 12.1614 10.693 10.9272 11.9211C9.69958 13.1491 9.69958 15.1504 10.9272 16.385L14.8635 20.3227C15.4806 20.94 16.2861 21.2454 17.0915 21.2454C17.6046 21.2454 18.1178 21.1024 18.5855 20.8555L20.8329 23.1037C20.1899 24.2993 20.3588 25.8198 21.3656 26.8269L25.3019 30.7581C25.8929 31.3494 26.6854 31.6808 27.5298 31.6808C28.0625 31.6808 28.5691 31.5378 29.0238 31.2909L31.2648 33.5326C30.6737 34.6308 30.7776 35.9953 31.5765 36.9959C31.1283 37.5547 30.8685 38.2305 30.8685 38.9648C30.8685 39.5041 31.0114 40.0109 31.2583 40.4592L29.0173 42.701C27.8221 42.0577 26.3022 42.2266 25.2954 43.2338L21.3591 47.1714C20.3523 48.1786 20.1834 49.6991 20.8264 50.8947L18.579 53.1429C17.3838 52.4996 15.8638 52.6686 14.857 53.6757L10.9207 57.6134C9.69309 58.8414 9.69309 60.8427 10.9207 62.0773C11.5378 62.6946 12.3433 63 13.1487 63C13.9542 63 14.7661 62.6946 15.3767 62.0773L19.313 58.1397C20.3198 57.1325 20.4887 55.612 19.8456 54.4165L22.0931 52.1682C22.5607 52.4216 23.0674 52.5581 23.587 52.5581C24.3925 52.5581 25.2044 52.2527 25.815 51.6354L29.7513 47.6978C30.7581 46.6906 30.927 45.1701 30.2839 43.9745L32.5249 41.7328C32.9796 41.9797 33.4862 42.1227 34.0189 42.1227C34.7464 42.1227 35.4284 41.8628 35.987 41.4144C36.5586 41.8758 37.2536 42.1162 37.9552 42.1162C38.4683 42.1162 38.9814 41.9732 39.4491 41.7263L41.6901 43.968C41.047 45.1636 41.2159 46.6841 42.2227 47.6913L46.159 51.6289C46.7761 52.2462 47.5815 52.5516 48.387 52.5516C48.9066 52.5516 49.4133 52.4086 49.881 52.1617L52.1284 54.41C51.4854 55.6055 51.6542 57.126 52.661 58.1332L56.5973 62.0708C57.2339 62.6816 58.0393 62.987 58.8513 62.987C59.6567 62.987 60.4687 62.6816 61.0793 62.0643C62.3069 60.8362 62.3069 58.8349 61.0793 57.6004L57.143 53.6627C56.1362 52.6556 54.6162 52.4866 53.421 53.1299L51.1736 50.8817C51.8166 49.6861 51.6477 48.1656 50.6409 47.1584L46.7046 43.2208C45.6978 42.2136 44.1779 42.0447 42.9827 42.688L40.7352 40.4398C41.3263 39.3416 41.2224 37.9771 40.417 36.9764C40.8716 36.4111 41.1315 35.7354 41.1315 35.0141C41.1315 34.4813 40.9821 33.968 40.7352 33.5131L42.9762 31.2714C43.4309 31.5183 43.9375 31.6613 44.4702 31.6613C45.3146 31.6613 46.107 31.3364 46.6981 30.7386L50.6344 26.8074C51.6412 25.8003 51.8101 24.2798 51.1671 23.0842L53.4145 20.836C53.8887 21.1089 54.4018 21.2454 54.915 21.2454ZM53.9537 17.1323L57.8899 13.1946C58.1563 12.9282 58.507 12.7983 58.8513 12.7983C59.2021 12.7983 59.5463 12.9282 59.8126 13.1946C60.3453 13.7274 60.3453 14.5916 59.8126 15.118L55.8763 19.0556C55.5905 19.3415 55.2138 19.4585 54.837 19.439L55.8633 18.4123C56.2141 18.0614 56.2141 17.4961 55.8633 17.1453C55.5126 16.7944 54.9475 16.7944 54.5967 17.1453L53.5704 18.1719C53.5509 17.795 53.6679 17.4182 53.9537 17.1323ZM17.4423 17.1453C17.0915 16.7944 16.5264 16.7944 16.1756 17.1453C15.8249 17.4961 15.8249 18.0614 16.1756 18.4123L17.2019 19.439C16.8252 19.4585 16.4484 19.3415 16.1626 19.0556L12.2263 15.118C11.6937 14.5851 11.6937 13.7209 12.2263 13.1946C12.4927 12.9282 12.8434 12.7983 13.1877 12.7983C13.5384 12.7983 13.8827 12.9282 14.149 13.1946L18.0853 17.1323C18.3711 17.4182 18.488 17.795 18.4686 18.1719L17.4423 17.1453ZM27.8741 27.5807C27.5233 27.2298 26.9582 27.2298 26.6075 27.5807C26.2567 27.9316 26.2567 28.4969 26.6075 28.8477L27.6208 29.8614C27.244 29.8809 26.8673 29.7639 26.5945 29.491L22.6582 25.5599C22.3724 25.274 22.2554 24.8971 22.2749 24.5202L23.3012 25.5469C23.4766 25.7223 23.704 25.8068 23.9378 25.8068C24.1651 25.8068 24.399 25.7223 24.5744 25.5469C24.9251 25.196 24.9251 24.6307 24.5744 24.2798L23.5481 23.2532C23.9248 23.2337 24.3015 23.3506 24.5873 23.6365L28.5236 27.5742C28.8094 27.8601 28.9264 28.2369 28.9069 28.6138L27.8741 27.5807ZM18.0853 56.8596L14.149 60.7973C13.6164 61.3301 12.7525 61.3236 12.2263 60.7973C11.6937 60.2644 11.6937 59.4002 12.2263 58.8739L16.1626 54.9363C16.4225 54.6699 16.7732 54.5399 17.124 54.5399C17.15 54.5399 17.1759 54.5529 17.2019 54.5529L16.1756 55.5796C15.8249 55.9304 15.8249 56.4957 16.1756 56.8466C16.351 57.0221 16.5784 57.1065 16.8122 57.1065C17.0395 57.1065 17.2734 57.0221 17.4488 56.8466L18.475 55.82C18.488 56.1968 18.3711 56.5737 18.0853 56.8596ZM28.5171 46.4242L24.5808 50.3618C24.295 50.6477 23.9183 50.7647 23.5416 50.7452L24.5679 49.7186C24.9186 49.3677 24.9186 48.8024 24.5679 48.4515C24.2171 48.1006 23.652 48.1006 23.3012 48.4515L22.2749 49.4781C22.2554 49.1013 22.3724 48.7244 22.6582 48.4385L26.5945 44.5009C26.8608 44.2345 27.2115 44.1045 27.5558 44.1045C27.5818 44.1045 27.6078 44.1175 27.6338 44.1175L26.6075 45.1441C26.2567 45.495 26.2567 46.0603 26.6075 46.4112C26.7828 46.5866 27.0102 46.6711 27.244 46.6711C27.4714 46.6711 27.7052 46.5866 27.8806 46.4112L28.9069 45.3846C28.9199 45.7614 28.8029 46.1383 28.5171 46.4242ZM38.0591 33.6886L37.6174 34.1304L37.3446 33.8575C37.5654 33.7406 37.8058 33.6756 38.0591 33.6886ZM32.7068 39.0427C32.7068 39.0167 32.6938 38.9908 32.6938 38.9648C32.6938 38.7308 32.7717 38.5164 32.8821 38.3215L33.1614 38.6009L32.7068 39.0427ZM33.9799 40.3033L34.4216 39.8615L34.6944 40.1344C34.4735 40.2513 34.2332 40.3163 33.9799 40.3033ZM38.3059 38.0161C37.9552 37.6652 37.39 37.6652 37.0393 38.0161C36.6885 38.367 36.6885 38.9323 37.0393 39.2832L38.0656 40.3098C37.6888 40.3293 37.3121 40.2123 37.0263 39.9264L36.6625 39.5626C36.6625 39.5626 36.6625 39.5561 36.656 39.5561C36.656 39.5561 36.6496 39.5561 36.6496 39.5496L33.4667 36.3657C33.4667 36.3657 33.4667 36.3657 33.4667 36.3592C33.4667 36.3592 33.4667 36.3592 33.4602 36.3592L33.09 35.9888C32.8042 35.7029 32.6873 35.3195 32.7068 34.9491L33.7331 35.9758C33.9084 36.1512 34.1358 36.2357 34.3696 36.2357C34.597 36.2357 34.8308 36.1512 35.0062 35.9758C35.3569 35.6249 35.3569 35.0596 35.0062 34.7087L33.9799 33.6821C34.3566 33.6626 34.7334 33.7795 35.0192 34.0654L35.3829 34.4293C35.3829 34.4293 35.3829 34.4358 35.3894 34.4358C35.3894 34.4358 35.3959 34.4358 35.3959 34.4423L38.5787 37.6262C38.5787 37.6262 38.5787 37.6262 38.5787 37.6327C38.5787 37.6327 38.5787 37.6327 38.5852 37.6327L38.9555 38.0031C39.2413 38.289 39.3582 38.6659 39.3387 39.0427L38.3059 38.0161ZM39.1633 35.6769L38.884 35.3975L39.3387 34.9426C39.3387 34.9751 39.3582 35.0011 39.3582 35.0336C39.3517 35.261 39.2737 35.4755 39.1633 35.6769ZM54.5967 56.8466C54.7721 57.0221 54.9994 57.1065 55.2333 57.1065C55.4606 57.1065 55.6945 57.0221 55.8698 56.8466C56.2206 56.4957 56.2206 55.9304 55.8698 55.5796L54.8435 54.5529C54.8695 54.5529 54.8955 54.5399 54.9215 54.5399C55.2722 54.5399 55.6165 54.6699 55.8828 54.9363L59.8191 58.8739C60.3518 59.4067 60.3518 60.2709 59.8191 60.7973C59.293 61.3301 58.4226 61.3301 57.8964 60.7973L53.9602 56.8596C53.6743 56.5737 53.5574 56.1903 53.5769 55.82L54.5967 56.8466ZM44.1649 46.4112C44.3403 46.5866 44.5676 46.6711 44.8014 46.6711C45.0288 46.6711 45.2626 46.5866 45.438 46.4112C45.7888 46.0603 45.7888 45.495 45.438 45.1441L44.4117 44.1175C44.4377 44.1175 44.4637 44.1045 44.4897 44.1045C44.8404 44.1045 45.1847 44.2345 45.451 44.5009L49.3873 48.4385C49.6731 48.7244 49.79 49.1078 49.7705 49.4781L48.7442 48.4515C48.3935 48.1006 47.8284 48.1006 47.4776 48.4515C47.1268 48.8024 47.1268 49.3677 47.4776 49.7186L48.5039 50.7452C48.1272 50.7647 47.7504 50.6477 47.4646 50.3618L43.5283 46.4242C43.2425 46.1383 43.1256 45.7549 43.1451 45.3846L44.1649 46.4112ZM49.3808 25.5534L45.4445 29.4845C45.1717 29.7574 44.795 29.8744 44.4182 29.8549L45.4315 28.8412C45.7823 28.4904 45.7823 27.9251 45.4315 27.5742C45.0808 27.2233 44.5156 27.2233 44.1649 27.5742L43.1386 28.6008C43.1191 28.224 43.236 27.8471 43.5218 27.5612L47.4581 23.6235C47.7244 23.3571 48.0752 23.2272 48.4195 23.2272C48.4454 23.2272 48.4714 23.2402 48.4974 23.2402L47.4711 24.2668C47.1203 24.6177 47.1203 25.183 47.4711 25.5339C47.6465 25.7093 47.8738 25.7938 48.1077 25.7938C48.335 25.7938 48.5689 25.7093 48.7442 25.5339L49.7705 24.5072C49.7835 24.8906 49.6666 25.274 49.3808 25.5534Z" fill="#595959"/>
<path d="M54.915 21.2454C55.7204 21.2454 56.5324 20.94 57.143 20.3227L61.0793 16.385C62.3069 15.1569 62.3069 13.1556 61.0793 11.9211C59.8516 10.693 57.851 10.693 56.6168 11.9211L52.6805 15.8587C51.6737 16.8659 51.5048 18.3863 52.1479 19.5819L49.9004 21.8302C48.7053 21.1869 47.1853 21.3493 46.1785 22.363L42.2422 26.3006C41.2354 27.3078 41.0665 28.8282 41.7096 30.0238L39.4556 32.2786C38.3644 31.7133 36.9678 31.8237 36.0065 32.5905C35.0062 31.7847 33.6421 31.6808 32.5444 32.2721L30.2969 30.0238C30.94 28.8282 30.7711 27.3078 29.7643 26.3006L25.828 22.363C24.8212 21.3558 23.3012 21.1869 22.1061 21.8302L19.8586 19.5819C20.5017 18.3863 20.3393 16.8659 19.326 15.8587L15.3897 11.9211C14.1555 10.693 12.1614 10.693 10.9272 11.9211C9.69958 13.1491 9.69958 15.1504 10.9272 16.385L14.8635 20.3227C15.4806 20.94 16.2861 21.2454 17.0915 21.2454C17.6046 21.2454 18.1178 21.1024 18.5855 20.8555L20.8329 23.1037C20.1899 24.2993 20.3588 25.8198 21.3656 26.8269L25.3019 30.7581C25.8929 31.3494 26.6854 31.6808 27.5298 31.6808C28.0625 31.6808 28.5691 31.5378 29.0238 31.2909L31.2648 33.5326C30.6737 34.6308 30.7776 35.9953 31.5765 36.9959C31.1283 37.5547 30.8685 38.2305 30.8685 38.9648C30.8685 39.5041 31.0114 40.0109 31.2583 40.4592L29.0173 42.701C27.8221 42.0577 26.3022 42.2266 25.2954 43.2338L21.3591 47.1714C20.3523 48.1786 20.1834 49.6991 20.8264 50.8947L18.579 53.1429C17.3838 52.4996 15.8638 52.6686 14.857 53.6757L10.9207 57.6134C9.69309 58.8414 9.69309 60.8427 10.9207 62.0773C11.5378 62.6946 12.3433 63 13.1487 63C13.9542 63 14.7661 62.6946 15.3767 62.0773L19.313 58.1397C20.3198 57.1325 20.4887 55.612 19.8456 54.4165L22.0931 52.1682C22.5607 52.4216 23.0674 52.5581 23.587 52.5581C24.3925 52.5581 25.2044 52.2527 25.815 51.6354L29.7513 47.6978C30.7581 46.6906 30.927 45.1701 30.2839 43.9745L32.5249 41.7328C32.9796 41.9797 33.4862 42.1227 34.0189 42.1227C34.7464 42.1227 35.4284 41.8628 35.987 41.4144C36.5586 41.8758 37.2536 42.1162 37.9552 42.1162C38.4683 42.1162 38.9814 41.9732 39.4491 41.7263L41.6901 43.968C41.047 45.1636 41.2159 46.6841 42.2227 47.6913L46.159 51.6289C46.7761 52.2462 47.5815 52.5516 48.387 52.5516C48.9066 52.5516 49.4133 52.4086 49.881 52.1617L52.1284 54.41C51.4854 55.6055 51.6542 57.126 52.661 58.1332L56.5973 62.0708C57.2339 62.6816 58.0393 62.987 58.8513 62.987C59.6567 62.987 60.4687 62.6816 61.0793 62.0643C62.3069 60.8362 62.3069 58.8349 61.0793 57.6004L57.143 53.6627C56.1362 52.6556 54.6162 52.4866 53.421 53.1299L51.1736 50.8817C51.8166 49.6861 51.6477 48.1656 50.6409 47.1584L46.7046 43.2208C45.6978 42.2136 44.1779 42.0447 42.9827 42.688L40.7352 40.4398C41.3263 39.3416 41.2224 37.9771 40.417 36.9764C40.8716 36.4111 41.1315 35.7354 41.1315 35.0141C41.1315 34.4813 40.9821 33.968 40.7352 33.5131L42.9762 31.2714C43.4309 31.5183 43.9375 31.6613 44.4702 31.6613C45.3146 31.6613 46.107 31.3364 46.6981 30.7386L50.6344 26.8074C51.6412 25.8003 51.8101 24.2798 51.1671 23.0842L53.4145 20.836C53.8887 21.1089 54.4018 21.2454 54.915 21.2454ZM53.9537 17.1323L57.8899 13.1946C58.1563 12.9282 58.507 12.7983 58.8513 12.7983C59.2021 12.7983 59.5463 12.9282 59.8126 13.1946C60.3453 13.7274 60.3453 14.5916 59.8126 15.118L55.8763 19.0556C55.5905 19.3415 55.2138 19.4585 54.837 19.439L55.8633 18.4123C56.2141 18.0614 56.2141 17.4961 55.8633 17.1453C55.5126 16.7944 54.9475 16.7944 54.5967 17.1453L53.5704 18.1719C53.5509 17.795 53.6679 17.4182 53.9537 17.1323ZM17.4423 17.1453C17.0915 16.7944 16.5264 16.7944 16.1756 17.1453C15.8249 17.4961 15.8249 18.0614 16.1756 18.4123L17.2019 19.439C16.8252 19.4585 16.4484 19.3415 16.1626 19.0556L12.2263 15.118C11.6937 14.5851 11.6937 13.7209 12.2263 13.1946C12.4927 12.9282 12.8434 12.7983 13.1877 12.7983C13.5384 12.7983 13.8827 12.9282 14.149 13.1946L18.0853 17.1323C18.3711 17.4182 18.488 17.795 18.4686 18.1719L17.4423 17.1453ZM27.8741 27.5807C27.5233 27.2298 26.9582 27.2298 26.6075 27.5807C26.2567 27.9316 26.2567 28.4969 26.6075 28.8477L27.6208 29.8614C27.244 29.8809 26.8673 29.7639 26.5945 29.491L22.6582 25.5599C22.3724 25.274 22.2554 24.8971 22.2749 24.5202L23.3012 25.5469C23.4766 25.7223 23.704 25.8068 23.9378 25.8068C24.1651 25.8068 24.399 25.7223 24.5744 25.5469C24.9251 25.196 24.9251 24.6307 24.5744 24.2798L23.5481 23.2532C23.9248 23.2337 24.3015 23.3506 24.5873 23.6365L28.5236 27.5742C28.8094 27.8601 28.9264 28.2369 28.9069 28.6138L27.8741 27.5807ZM18.0853 56.8596L14.149 60.7973C13.6164 61.3301 12.7525 61.3236 12.2263 60.7973C11.6937 60.2644 11.6937 59.4002 12.2263 58.8739L16.1626 54.9363C16.4225 54.6699 16.7732 54.5399 17.124 54.5399C17.15 54.5399 17.1759 54.5529 17.2019 54.5529L16.1756 55.5796C15.8249 55.9304 15.8249 56.4957 16.1756 56.8466C16.351 57.0221 16.5784 57.1065 16.8122 57.1065C17.0395 57.1065 17.2734 57.0221 17.4488 56.8466L18.475 55.82C18.488 56.1968 18.3711 56.5737 18.0853 56.8596ZM28.5171 46.4242L24.5808 50.3618C24.295 50.6477 23.9183 50.7647 23.5416 50.7452L24.5679 49.7186C24.9186 49.3677 24.9186 48.8024 24.5679 48.4515C24.2171 48.1006 23.652 48.1006 23.3012 48.4515L22.2749 49.4781C22.2554 49.1013 22.3724 48.7244 22.6582 48.4385L26.5945 44.5009C26.8608 44.2345 27.2115 44.1045 27.5558 44.1045C27.5818 44.1045 27.6078 44.1175 27.6338 44.1175L26.6075 45.1441C26.2567 45.495 26.2567 46.0603 26.6075 46.4112C26.7828 46.5866 27.0102 46.6711 27.244 46.6711C27.4714 46.6711 27.7052 46.5866 27.8806 46.4112L28.9069 45.3846C28.9199 45.7614 28.8029 46.1383 28.5171 46.4242ZM38.0591 33.6886L37.6174 34.1304L37.3446 33.8575C37.5654 33.7406 37.8058 33.6756 38.0591 33.6886ZM32.7068 39.0427C32.7068 39.0167 32.6938 38.9908 32.6938 38.9648C32.6938 38.7308 32.7717 38.5164 32.8821 38.3215L33.1614 38.6009L32.7068 39.0427ZM33.9799 40.3033L34.4216 39.8615L34.6944 40.1344C34.4735 40.2513 34.2332 40.3163 33.9799 40.3033ZM38.3059 38.0161C37.9552 37.6652 37.39 37.6652 37.0393 38.0161C36.6885 38.367 36.6885 38.9323 37.0393 39.2832L38.0656 40.3098C37.6888 40.3293 37.3121 40.2123 37.0263 39.9264L36.6625 39.5626C36.6625 39.5626 36.6625 39.5561 36.656 39.5561C36.656 39.5561 36.6496 39.5561 36.6496 39.5496L33.4667 36.3657C33.4667 36.3657 33.4667 36.3657 33.4667 36.3592C33.4667 36.3592 33.4667 36.3592 33.4602 36.3592L33.09 35.9888C32.8042 35.7029 32.6873 35.3195 32.7068 34.9491L33.7331 35.9758C33.9084 36.1512 34.1358 36.2357 34.3696 36.2357C34.597 36.2357 34.8308 36.1512 35.0062 35.9758C35.3569 35.6249 35.3569 35.0596 35.0062 34.7087L33.9799 33.6821C34.3566 33.6626 34.7334 33.7795 35.0192 34.0654L35.3829 34.4293C35.3829 34.4293 35.3829 34.4358 35.3894 34.4358C35.3894 34.4358 35.3959 34.4358 35.3959 34.4423L38.5787 37.6262C38.5787 37.6262 38.5787 37.6262 38.5787 37.6327C38.5787 37.6327 38.5787 37.6327 38.5852 37.6327L38.9555 38.0031C39.2413 38.289 39.3582 38.6659 39.3387 39.0427L38.3059 38.0161ZM39.1633 35.6769L38.884 35.3975L39.3387 34.9426C39.3387 34.9751 39.3582 35.0011 39.3582 35.0336C39.3517 35.261 39.2737 35.4755 39.1633 35.6769ZM54.5967 56.8466C54.7721 57.0221 54.9994 57.1065 55.2333 57.1065C55.4606 57.1065 55.6945 57.0221 55.8698 56.8466C56.2206 56.4957 56.2206 55.9304 55.8698 55.5796L54.8435 54.5529C54.8695 54.5529 54.8955 54.5399 54.9215 54.5399C55.2722 54.5399 55.6165 54.6699 55.8828 54.9363L59.8191 58.8739C60.3518 59.4067 60.3518 60.2709 59.8191 60.7973C59.293 61.3301 58.4226 61.3301 57.8964 60.7973L53.9602 56.8596C53.6743 56.5737 53.5574 56.1903 53.5769 55.82L54.5967 56.8466ZM44.1649 46.4112C44.3403 46.5866 44.5676 46.6711 44.8014 46.6711C45.0288 46.6711 45.2626 46.5866 45.438 46.4112C45.7888 46.0603 45.7888 45.495 45.438 45.1441L44.4117 44.1175C44.4377 44.1175 44.4637 44.1045 44.4897 44.1045C44.8404 44.1045 45.1847 44.2345 45.451 44.5009L49.3873 48.4385C49.6731 48.7244 49.79 49.1078 49.7705 49.4781L48.7442 48.4515C48.3935 48.1006 47.8284 48.1006 47.4776 48.4515C47.1268 48.8024 47.1268 49.3677 47.4776 49.7186L48.5039 50.7452C48.1272 50.7647 47.7504 50.6477 47.4646 50.3618L43.5283 46.4242C43.2425 46.1383 43.1256 45.7549 43.1451 45.3846L44.1649 46.4112ZM49.3808 25.5534L45.4445 29.4845C45.1717 29.7574 44.795 29.8744 44.4182 29.8549L45.4315 28.8412C45.7823 28.4904 45.7823 27.9251 45.4315 27.5742C45.0808 27.2233 44.5156 27.2233 44.1649 27.5742L43.1386 28.6008C43.1191 28.224 43.236 27.8471 43.5218 27.5612L47.4581 23.6235C47.7244 23.3571 48.0752 23.2272 48.4195 23.2272C48.4454 23.2272 48.4714 23.2402 48.4974 23.2402L47.4711 24.2668C47.1203 24.6177 47.1203 25.183 47.4711 25.5339C47.6465 25.7093 47.8738 25.7938 48.1077 25.7938C48.335 25.7938 48.5689 25.7093 48.7442 25.5339L49.7705 24.5072C49.7835 24.8906 49.6666 25.274 49.3808 25.5534Z" fill="url(#paint0_linear)"/>
</g>
<path d="M54.915 21.2454C55.7204 21.2454 56.5324 20.94 57.143 20.3227L61.0793 16.385C62.3069 15.1569 62.3069 13.1556 61.0793 11.9211C59.8516 10.693 57.851 10.693 56.6168 11.9211L52.6805 15.8587C51.6737 16.8659 51.5048 18.3863 52.1479 19.5819L49.9004 21.8302C48.7053 21.1869 47.1853 21.3493 46.1785 22.363L42.2422 26.3006C41.2354 27.3078 41.0665 28.8282 41.7096 30.0238L39.4556 32.2786C38.3644 31.7133 36.9678 31.8237 36.0065 32.5905C35.0062 31.7847 33.6421 31.6808 32.5444 32.2721L30.2969 30.0238C30.94 28.8282 30.7711 27.3078 29.7643 26.3006L25.828 22.363C24.8212 21.3558 23.3012 21.1869 22.1061 21.8302L19.8586 19.5819C20.5017 18.3863 20.3393 16.8659 19.326 15.8587L15.3897 11.9211C14.1555 10.693 12.1614 10.693 10.9272 11.9211C9.69958 13.1491 9.69958 15.1504 10.9272 16.385L14.8635 20.3227C15.4806 20.94 16.2861 21.2454 17.0915 21.2454C17.6046 21.2454 18.1178 21.1024 18.5855 20.8555L20.8329 23.1037C20.1899 24.2993 20.3588 25.8198 21.3656 26.8269L25.3019 30.7581C25.8929 31.3494 26.6854 31.6808 27.5298 31.6808C28.0625 31.6808 28.5691 31.5378 29.0238 31.2909L31.2648 33.5326C30.6737 34.6308 30.7776 35.9953 31.5765 36.9959C31.1283 37.5547 30.8685 38.2305 30.8685 38.9648C30.8685 39.5041 31.0114 40.0109 31.2583 40.4592L29.0173 42.701C27.8221 42.0577 26.3022 42.2266 25.2954 43.2338L21.3591 47.1714C20.3523 48.1786 20.1834 49.6991 20.8264 50.8947L18.579 53.1429C17.3838 52.4996 15.8638 52.6686 14.857 53.6757L10.9207 57.6134C9.69309 58.8414 9.69309 60.8427 10.9207 62.0773C11.5378 62.6946 12.3433 63 13.1487 63C13.9542 63 14.7661 62.6946 15.3767 62.0773L19.313 58.1397C20.3198 57.1325 20.4887 55.612 19.8456 54.4165L22.0931 52.1682C22.5607 52.4216 23.0674 52.5581 23.587 52.5581C24.3925 52.5581 25.2044 52.2527 25.815 51.6354L29.7513 47.6978C30.7581 46.6906 30.927 45.1701 30.2839 43.9745L32.5249 41.7328C32.9796 41.9797 33.4862 42.1227 34.0189 42.1227C34.7464 42.1227 35.4284 41.8628 35.987 41.4144C36.5586 41.8758 37.2536 42.1162 37.9552 42.1162C38.4683 42.1162 38.9814 41.9732 39.4491 41.7263L41.6901 43.968C41.047 45.1636 41.2159 46.6841 42.2227 47.6913L46.159 51.6289C46.7761 52.2462 47.5815 52.5516 48.387 52.5516C48.9066 52.5516 49.4133 52.4086 49.881 52.1617L52.1284 54.41C51.4854 55.6055 51.6542 57.126 52.661 58.1332L56.5973 62.0708C57.2339 62.6816 58.0393 62.987 58.8513 62.987C59.6567 62.987 60.4687 62.6816 61.0793 62.0643C62.3069 60.8362 62.3069 58.8349 61.0793 57.6004L57.143 53.6627C56.1362 52.6556 54.6162 52.4866 53.421 53.1299L51.1736 50.8817C51.8166 49.6861 51.6477 48.1656 50.6409 47.1584L46.7046 43.2208C45.6978 42.2136 44.1779 42.0447 42.9827 42.688L40.7352 40.4398C41.3263 39.3416 41.2224 37.9771 40.417 36.9764C40.8716 36.4111 41.1315 35.7354 41.1315 35.0141C41.1315 34.4813 40.9821 33.968 40.7352 33.5131L42.9762 31.2714C43.4309 31.5183 43.9375 31.6613 44.4702 31.6613C45.3146 31.6613 46.107 31.3364 46.6981 30.7386L50.6344 26.8074C51.6412 25.8003 51.8101 24.2798 51.1671 23.0842L53.4145 20.836C53.8887 21.1089 54.4018 21.2454 54.915 21.2454ZM53.9537 17.1323L57.8899 13.1946C58.1563 12.9282 58.507 12.7983 58.8513 12.7983C59.2021 12.7983 59.5463 12.9282 59.8126 13.1946C60.3453 13.7274 60.3453 14.5916 59.8126 15.118L55.8763 19.0556C55.5905 19.3415 55.2138 19.4585 54.837 19.439L55.8633 18.4123C56.2141 18.0614 56.2141 17.4961 55.8633 17.1453C55.5126 16.7944 54.9475 16.7944 54.5967 17.1453L53.5704 18.1719C53.5509 17.795 53.6679 17.4182 53.9537 17.1323ZM17.4423 17.1453C17.0915 16.7944 16.5264 16.7944 16.1756 17.1453C15.8249 17.4961 15.8249 18.0614 16.1756 18.4123L17.2019 19.439C16.8252 19.4585 16.4484 19.3415 16.1626 19.0556L12.2263 15.118C11.6937 14.5851 11.6937 13.7209 12.2263 13.1946C12.4927 12.9282 12.8434 12.7983 13.1877 12.7983C13.5384 12.7983 13.8827 12.9282 14.149 13.1946L18.0853 17.1323C18.3711 17.4182 18.488 17.795 18.4686 18.1719L17.4423 17.1453ZM27.8741 27.5807C27.5233 27.2298 26.9582 27.2298 26.6075 27.5807C26.2567 27.9316 26.2567 28.4969 26.6075 28.8477L27.6208 29.8614C27.244 29.8809 26.8673 29.7639 26.5945 29.491L22.6582 25.5599C22.3724 25.274 22.2554 24.8971 22.2749 24.5202L23.3012 25.5469C23.4766 25.7223 23.704 25.8068 23.9378 25.8068C24.1651 25.8068 24.399 25.7223 24.5744 25.5469C24.9251 25.196 24.9251 24.6307 24.5744 24.2798L23.5481 23.2532C23.9248 23.2337 24.3015 23.3506 24.5873 23.6365L28.5236 27.5742C28.8094 27.8601 28.9264 28.2369 28.9069 28.6138L27.8741 27.5807ZM18.0853 56.8596L14.149 60.7973C13.6164 61.3301 12.7525 61.3236 12.2263 60.7973C11.6937 60.2644 11.6937 59.4002 12.2263 58.8739L16.1626 54.9363C16.4225 54.6699 16.7732 54.5399 17.124 54.5399C17.15 54.5399 17.1759 54.5529 17.2019 54.5529L16.1756 55.5796C15.8249 55.9304 15.8249 56.4957 16.1756 56.8466C16.351 57.0221 16.5784 57.1065 16.8122 57.1065C17.0395 57.1065 17.2734 57.0221 17.4488 56.8466L18.475 55.82C18.488 56.1968 18.3711 56.5737 18.0853 56.8596ZM28.5171 46.4242L24.5808 50.3618C24.295 50.6477 23.9183 50.7647 23.5416 50.7452L24.5679 49.7186C24.9186 49.3677 24.9186 48.8024 24.5679 48.4515C24.2171 48.1006 23.652 48.1006 23.3012 48.4515L22.2749 49.4781C22.2554 49.1013 22.3724 48.7244 22.6582 48.4385L26.5945 44.5009C26.8608 44.2345 27.2115 44.1045 27.5558 44.1045C27.5818 44.1045 27.6078 44.1175 27.6338 44.1175L26.6075 45.1441C26.2567 45.495 26.2567 46.0603 26.6075 46.4112C26.7828 46.5866 27.0102 46.6711 27.244 46.6711C27.4714 46.6711 27.7052 46.5866 27.8806 46.4112L28.9069 45.3846C28.9199 45.7614 28.8029 46.1383 28.5171 46.4242ZM38.0591 33.6886L37.6174 34.1304L37.3446 33.8575C37.5654 33.7406 37.8058 33.6756 38.0591 33.6886ZM32.7068 39.0427C32.7068 39.0167 32.6938 38.9908 32.6938 38.9648C32.6938 38.7308 32.7717 38.5164 32.8821 38.3215L33.1614 38.6009L32.7068 39.0427ZM33.9799 40.3033L34.4216 39.8615L34.6944 40.1344C34.4735 40.2513 34.2332 40.3163 33.9799 40.3033ZM38.3059 38.0161C37.9552 37.6652 37.39 37.6652 37.0393 38.0161C36.6885 38.367 36.6885 38.9323 37.0393 39.2832L38.0656 40.3098C37.6888 40.3293 37.3121 40.2123 37.0263 39.9264L36.6625 39.5626C36.6625 39.5626 36.6625 39.5561 36.656 39.5561C36.656 39.5561 36.6496 39.5561 36.6496 39.5496L33.4667 36.3657C33.4667 36.3657 33.4667 36.3657 33.4667 36.3592C33.4667 36.3592 33.4667 36.3592 33.4602 36.3592L33.09 35.9888C32.8042 35.7029 32.6873 35.3195 32.7068 34.9491L33.7331 35.9758C33.9084 36.1512 34.1358 36.2357 34.3696 36.2357C34.597 36.2357 34.8308 36.1512 35.0062 35.9758C35.3569 35.6249 35.3569 35.0596 35.0062 34.7087L33.9799 33.6821C34.3566 33.6626 34.7334 33.7795 35.0192 34.0654L35.3829 34.4293C35.3829 34.4293 35.3829 34.4358 35.3894 34.4358C35.3894 34.4358 35.3959 34.4358 35.3959 34.4423L38.5787 37.6262C38.5787 37.6262 38.5787 37.6262 38.5787 37.6327C38.5787 37.6327 38.5787 37.6327 38.5852 37.6327L38.9555 38.0031C39.2413 38.289 39.3582 38.6659 39.3387 39.0427L38.3059 38.0161ZM39.1633 35.6769L38.884 35.3975L39.3387 34.9426C39.3387 34.9751 39.3582 35.0011 39.3582 35.0336C39.3517 35.261 39.2737 35.4755 39.1633 35.6769ZM54.5967 56.8466C54.7721 57.0221 54.9994 57.1065 55.2333 57.1065C55.4606 57.1065 55.6945 57.0221 55.8698 56.8466C56.2206 56.4957 56.2206 55.9304 55.8698 55.5796L54.8435 54.5529C54.8695 54.5529 54.8955 54.5399 54.9215 54.5399C55.2722 54.5399 55.6165 54.6699 55.8828 54.9363L59.8191 58.8739C60.3518 59.4067 60.3518 60.2709 59.8191 60.7973C59.293 61.3301 58.4226 61.3301 57.8964 60.7973L53.9602 56.8596C53.6743 56.5737 53.5574 56.1903 53.5769 55.82L54.5967 56.8466ZM44.1649 46.4112C44.3403 46.5866 44.5676 46.6711 44.8014 46.6711C45.0288 46.6711 45.2626 46.5866 45.438 46.4112C45.7888 46.0603 45.7888 45.495 45.438 45.1441L44.4117 44.1175C44.4377 44.1175 44.4637 44.1045 44.4897 44.1045C44.8404 44.1045 45.1847 44.2345 45.451 44.5009L49.3873 48.4385C49.6731 48.7244 49.79 49.1078 49.7705 49.4781L48.7442 48.4515C48.3935 48.1006 47.8284 48.1006 47.4776 48.4515C47.1268 48.8024 47.1268 49.3677 47.4776 49.7186L48.5039 50.7452C48.1272 50.7647 47.7504 50.6477 47.4646 50.3618L43.5283 46.4242C43.2425 46.1383 43.1256 45.7549 43.1451 45.3846L44.1649 46.4112ZM49.3808 25.5534L45.4445 29.4845C45.1717 29.7574 44.795 29.8744 44.4182 29.8549L45.4315 28.8412C45.7823 28.4904 45.7823 27.9251 45.4315 27.5742C45.0808 27.2233 44.5156 27.2233 44.1649 27.5742L43.1386 28.6008C43.1191 28.224 43.236 27.8471 43.5218 27.5612L47.4581 23.6235C47.7244 23.3571 48.0752 23.2272 48.4195 23.2272C48.4454 23.2272 48.4714 23.2402 48.4974 23.2402L47.4711 24.2668C47.1203 24.6177 47.1203 25.183 47.4711 25.5339C47.6465 25.7093 47.8738 25.7938 48.1077 25.7938C48.335 25.7938 48.5689 25.7093 48.7442 25.5339L49.7705 24.5072C49.7835 24.8906 49.6666 25.274 49.3808 25.5534Z" stroke="url(#paint1_linear)" stroke-width="0.3" mask="url(#path-11-inside-1)"/>
<defs>
<filter id="filter0_i" x="10" y="11" width="53" height="52" filterUnits="userSpaceOnUse" color-interpolation-filters="sRGB">
<feFlood flood-opacity="0" result="BackgroundImageFix"/>
<feBlend mode="normal" in="SourceGraphic" in2="BackgroundImageFix" result="shape"/>
<feColorMatrix in="SourceAlpha" type="matrix" values="0 0 0 0 0 0 0 0 0 0 0 0 0 0 0 0 0 0 127 0" result="hardAlpha"/>
<feOffset dx="2"/>
<feGaussianBlur stdDeviation="0.5"/>
<feComposite in2="hardAlpha" operator="arithmetic" k2="-1" k3="1"/>
<feColorMatrix type="matrix" values="0 0 0 0 0.854167 0 0 0 0 0.854167 0 0 0 0 0.854167 0 0 0 1 0"/>
<feBlend mode="normal" in2="shape" result="effect1_innerShadow"/>
</filter>
<linearGradient id="paint0_linear" x1="12.6897" y1="11.8966" x2="60.6552" y2="61.2069" gradientUnits="userSpaceOnUse">
<stop stop-color="#A2A2A2"/>
<stop offset="1" stop-color="#BBBBBB"/>
</linearGradient>
<linearGradient id="paint1_linear" x1="12.6897" y1="11.8966" x2="60.6552" y2="61.2069" gradientUnits="userSpaceOnUse">
<stop stop-color="#A2A2A2"/>
<stop offset="1" stop-color="#BBBBBB"/>
</linearGradient>
</defs>
</svg>
