<!DOCTYPE svg PUBLIC "-//W3C//DTD SVG 20010904//EN" "http://www.w3.org/TR/2001/REC-SVG-20010904/DTD/svg10.dtd">
<svg version="1.0" xmlns="http://www.w3.org/2000/svg" width="256px" height="256px" viewBox="0 0 2560 2560" preserveAspectRatio="xMidYMid meet">
<g id="layer101" fill="#ffac2d" stroke="none">
 <path d="M1048 2544 c-261 -47 -496 -173 -685 -367 -106 -109 -167 -193 -228 -313 -93 -181 -135 -365 -135 -584 0 -364 127 -668 383 -917 109 -106 193 -167 313 -228 181 -93 365 -135 584 -135 219 0 403 42 584 135 120 61 204 122 313 228 197 192 321 426 368 693 19 112 19 336 0 448 -33 186 -112 375 -221 527 -67 92 -213 237 -305 302 -144 102 -336 181 -515 212 -108 19 -350 18 -456 -1z"/>
 </g>
<g id="layer102" fill="#ffcf48" stroke="none">
 <path d="M692 1803 c26 -30 341 -423 381 -476 l38 -49 -22 -24 -22 -24 -534 0 -533 0 0 -44 c0 -67 27 -206 60 -309 62 -193 170 -365 323 -514 109 -106 193 -167 313 -228 181 -93 365 -135 584 -135 364 0 668 127 917 383 106 109 167 193 228 313 75 146 135 366 135 490 l0 44 -533 0 -534 0 -22 24 -22 24 38 49 c21 28 101 128 178 223 77 95 157 194 178 221 l38 49 -164 0 -164 0 -69 -84 c-38 -46 -98 -120 -134 -164 -36 -45 -67 -81 -70 -81 -3 0 -34 36 -70 81 -36 44 -96 118 -134 164 l-69 84 -165 0 c-156 0 -164 -1 -150 -17z"/>
 </g>
<g id="layer103" fill="#fffffe" stroke="none">
 <path d="M690 1815 c0 -2 97 -124 215 -270 l215 -265 -215 -265 c-118 -145 -215 -267 -215 -270 0 -3 71 -5 158 -5 l157 0 135 170 c74 93 137 169 140 169 3 0 66 -76 140 -169 l135 -170 158 0 c86 0 157 2 157 5 0 3 -97 125 -215 270 l-215 265 215 265 c118 146 215 268 215 270 0 3 -71 5 -157 5 l-158 0 -135 -170 c-74 -93 -137 -169 -140 -169 -3 0 -66 76 -140 169 l-135 170 -157 0 c-87 0 -158 -2 -158 -5z"/>
 </g>

</svg>