<svg width="19" height="15" viewBox="0 0 19 15" fill="none" xmlns="http://www.w3.org/2000/svg"><path d="M17.0548 3.73421C17.0664 3.89695 17.0664 4.05969 17.0664 4.22393C17.0664 9.22836 13.1452 15 5.97518 15V14.997C3.85712 15 1.78306 14.4105 0 13.2991C0.307983 13.3351 0.61751 13.3531 0.927808 13.3539C2.68308 13.3554 4.38818 12.7831 5.76908 11.7295C4.10104 11.6987 2.63831 10.642 2.12732 9.09937C2.71164 9.20887 3.31371 9.18637 3.88722 9.03413C2.06866 8.67715 0.760309 7.12475 0.760309 5.32186C0.760309 5.30536 0.760309 5.28961 0.760309 5.27386C1.30217 5.5671 1.90888 5.72984 2.52947 5.74783C0.816657 4.63565 0.288686 2.42179 1.32301 0.690903C3.30213 3.057 6.22218 4.49541 9.35682 4.64765C9.04266 3.33224 9.47183 1.95382 10.4845 1.02913C12.0546 -0.404778 14.5238 -0.331282 15.9997 1.19337C16.8727 1.02613 17.7094 0.714902 18.4751 0.27393C18.1841 1.15062 17.5751 1.89533 16.7615 2.36855C17.5342 2.28005 18.2891 2.07907 19 1.77234C18.4767 2.53429 17.8175 3.198 17.0548 3.73421Z" fill="white"></path></svg>