<svg width="12" height="18" viewBox="0 0 12 18" fill="none" xmlns="http://www.w3.org/2000/svg">
<path d="M6.66653 13.5049L9.83124 9.57941C10.416 8.85096 11.4618 9.3366 11.4618 10.3483V10.3564C11.4618 10.6478 11.3654 10.9311 11.1866 11.1415L6.39822 16.7668C6.02671 17.2039 5.42817 17.2039 5.06354 16.7668L0.275192 11.1334C0.0963173 10.923 0 10.6397 0 10.3483C0 9.34469 1.04573 8.85096 1.63051 9.58751L4.78834 13.5049L4.76083 1.21559C4.76083 0.600454 5.18737 0.0986328 5.71024 0.0986328H5.74464C6.2675 0.0986328 6.68717 0.600454 6.68717 1.21559L6.66653 13.5049Z" fill="white"/>
</svg>
