<svg width="12" height="17" viewBox="0 0 12 17" fill="none" xmlns="http://www.w3.org/2000/svg">
<path d="M6.97959 13.4063L10.2929 9.48078C10.9052 8.75233 12 9.23796 12 10.2497V10.2578C12 10.5492 11.8992 10.8325 11.7119 11.0429L6.69868 16.6682C6.30972 17.1052 5.68307 17.1052 5.30132 16.6682L0.288115 11.0348C0.10084 10.8244 0 10.5411 0 10.2497C0 9.24606 1.09484 8.75233 1.70708 9.48887L5.01321 13.4063L4.98439 1.11696C4.98439 0.501821 5.43097 0 5.97839 0H6.01441C6.56182 0 7.0012 0.501821 7.0012 1.11696L6.97959 13.4063Z" fill="black"/>
</svg>
