<svg width="95" height="28" viewBox="0 0 95 28" fill="none" xmlns="http://www.w3.org/2000/svg">
<path d="M0 0.793701H9.60769C10.7489 0.793701 11.814 0.945859 12.8139 1.26104C13.8138 1.57623 14.7267 2.01097 15.5527 2.57612C16.3787 3.14128 17.1178 3.81513 17.759 4.60852C18.4003 5.40192 18.9437 6.27139 19.3893 7.22781C19.8349 8.18424 20.1718 9.20587 20.4109 10.3036C20.65 11.4013 20.7587 12.5316 20.7587 13.7163C20.7587 15.5639 20.487 17.2702 19.9436 18.857C19.4002 20.433 18.6394 21.8132 17.6503 22.9762C16.6613 24.15 15.4875 25.0629 14.1181 25.7259C12.7487 26.3889 11.238 26.7149 9.59682 26.7149H0V0.793701ZM2.74971 24.1934H8.50998C9.86854 24.1934 11.1401 23.9543 12.3031 23.487C13.466 23.0196 14.4768 22.3349 15.3245 21.4437C16.1722 20.5525 16.8352 19.4548 17.3134 18.1615C17.7916 16.8681 18.0307 15.4009 18.0307 13.7489C18.0307 11.9556 17.7916 10.4014 17.3025 9.07545C16.8243 7.76037 16.1505 6.67352 15.2919 5.81492C14.4333 4.95631 13.4334 4.32594 12.2705 3.91294C11.1075 3.49994 9.85767 3.29344 8.50998 3.29344H2.74971V24.1934Z" fill="white"/>
<path d="M29.8562 15.0637H43.5286V17.5743H29.8562V24.1932H45.0285V26.7038H27.1064V15.0746H29.8562V15.0637Z" fill="white"/>
<path d="M27.1064 12.5638V0.93457H45.0285V3.44518H29.8562V10.0641H43.5286V12.5747H29.8562H27.1064V12.5638Z" fill="white"/>
<path d="M53.8404 0.728027V18.1827C53.8404 19.237 54.036 20.1825 54.4273 21.0194C54.8186 21.8563 55.3294 22.5627 55.9489 23.1496C56.5684 23.7365 57.2748 24.1821 58.0682 24.4864C58.8508 24.8016 59.655 24.9538 60.4593 24.9538C61.307 24.9538 62.1439 24.8125 62.9916 24.5299C63.8394 24.2473 64.6002 23.8234 65.274 23.2692C65.9478 22.7149 66.5021 22.0193 66.926 21.1824C67.3499 20.3455 67.5672 19.3783 67.5672 18.2805V0.728027H70.3169V18.074C70.3169 19.0739 70.1865 20.0086 69.9148 20.8564C69.6431 21.7041 69.2844 22.4758 68.8062 23.1713C68.3389 23.8669 67.7846 24.4756 67.1542 24.9972C66.5239 25.5189 65.8392 25.9645 65.111 26.3232C64.3828 26.6818 63.622 26.9536 62.8395 27.1274C62.0569 27.3122 61.2744 27.3992 60.4919 27.3992C59.7528 27.3992 59.0029 27.3122 58.2421 27.1274C57.4813 26.9427 56.764 26.6818 56.0684 26.3232C55.3729 25.9754 54.7207 25.5298 54.123 25.0081C53.5144 24.4864 52.9927 23.8778 52.5471 23.1822C52.1015 22.4866 51.7537 21.7041 51.4928 20.8455C51.232 19.976 51.1016 19.0305 51.1016 17.998V0.728027H53.8404Z" fill="white"/>
<path d="M78.8496 18.5415C78.9148 19.4654 79.1213 20.324 79.48 21.0956C79.8386 21.8673 80.3168 22.5411 80.9146 23.1063C81.5124 23.6714 82.208 24.1171 83.0231 24.4322C83.8382 24.7474 84.7186 24.9104 85.6859 24.9104C86.5553 24.9104 87.3813 24.8126 88.1747 24.6279C88.9681 24.4322 89.6637 24.1279 90.2723 23.7149C90.881 23.3019 91.3592 22.7585 91.7178 22.0955C92.0765 21.4325 92.2613 20.6283 92.2613 19.6936C92.2613 18.9219 92.0656 18.2698 91.6744 17.7373C91.2831 17.1939 90.7723 16.7374 90.131 16.3461C89.4898 15.9549 88.7725 15.6179 87.9574 15.3354C87.1422 15.0528 86.3271 14.7811 85.5011 14.542C84.8055 14.3463 84.1099 14.129 83.4144 13.8899C82.7188 13.6508 82.0449 13.3899 81.3928 13.0856C80.7407 12.7921 80.1321 12.4444 79.5778 12.064C79.0126 11.6836 78.5236 11.2271 78.1106 10.7054C77.6976 10.1837 77.3715 9.59683 77.1215 8.93385C76.8716 8.26001 76.7411 7.49922 76.7411 6.62974C76.7411 5.55377 76.9476 4.59735 77.3715 3.78221C77.7954 2.95621 78.3823 2.2715 79.1431 1.70634C79.9038 1.15205 80.8168 0.728185 81.871 0.434737C82.9253 0.14129 84.0882 0 85.3489 0C86.4792 0 87.4683 0.108684 88.3378 0.336921C89.2072 0.565158 89.9572 0.858606 90.6093 1.24987C91.2505 1.63026 91.7939 2.08674 92.2395 2.59756C92.6851 3.10837 93.0546 3.65179 93.3372 4.22782C93.6198 4.79298 93.8372 5.39074 93.9676 5.98851C94.098 6.59714 94.1958 7.17317 94.2284 7.73832H91.4026C91.3266 6.86885 91.1201 6.10806 90.7831 5.45595C90.4462 4.80385 90.0006 4.24956 89.4681 3.80395C88.9246 3.35835 88.3051 3.02142 87.5987 2.80406C86.8922 2.57582 86.1423 2.46713 85.3489 2.46713C84.6207 2.46713 83.9034 2.54321 83.2078 2.69537C82.5123 2.84753 81.8819 3.08663 81.3276 3.41269C80.7733 3.73874 80.3277 4.17348 79.9908 4.70603C79.6647 5.21685 79.4908 5.85809 79.4908 6.62974C79.4908 7.42314 79.6865 8.09698 80.0669 8.6404C80.4473 9.19469 80.969 9.66204 81.6102 10.0642C82.2514 10.4663 82.9905 10.8032 83.8165 11.0858C84.6425 11.3684 85.4902 11.651 86.3706 11.9227C87.0661 12.1292 87.7617 12.3574 88.4573 12.5965C89.1529 12.8356 89.8267 13.0965 90.468 13.3899C91.1092 13.6834 91.707 14.0203 92.2613 14.4007C92.8155 14.7811 93.2938 15.2158 93.6959 15.7158C94.1089 16.2157 94.4241 16.7917 94.6523 17.4438C94.8805 18.0959 95.0001 18.8459 95.0001 19.6827C95.0001 20.9435 94.7719 22.052 94.3045 23.0193C93.8372 23.9758 93.1959 24.78 92.3591 25.4213C91.5331 26.0625 90.544 26.5516 89.4029 26.8776C88.2617 27.2037 87.0227 27.3667 85.6641 27.3667C84.4469 27.3667 83.2731 27.1602 82.121 26.7472C80.969 26.3342 79.9473 25.7473 79.0452 24.9865C78.1432 24.2257 77.4258 23.3019 76.8716 22.2151C76.3173 21.1282 76.0238 19.9001 75.9912 18.5415H78.8496Z" fill="white"/>
</svg>
