<?xml version="1.0" encoding="utf-8"?>
<svg width="17px" height="16px" viewBox="0 0 17 16" version="1.1" xmlns:xlink="http://www.w3.org/1999/xlink" xmlns="http://www.w3.org/2000/svg">
  <desc>Created with Lunacy</desc>
  <defs>
    <path d="M7.29265 0.29591C6.90212 0.690457 6.90212 1.33014 7.29265 1.72469L12.5859 7.07245L1 7.07245C0.447715 7.07245 0 7.52478 0 8.08275C0 8.64072 0.447715 9.09305 1 9.09305L12.5852 9.09305L7.29265 14.4401C6.90212 14.8347 6.90212 15.4743 7.29265 15.8689C7.68317 16.2634 8.31634 16.2634 8.70686 15.8689L15.6863 8.81757C15.8794 8.63336 16 8.37228 16 8.08275C16 7.91615 15.9601 7.75897 15.8894 7.62044C15.8431 7.52951 15.7823 7.44419 15.7069 7.36801L8.70686 0.29591C8.31634 -0.0986366 7.68317 -0.0986366 7.29265 0.29591Z" transform="matrix(-4.371139E-08 1 -1 -4.371139E-08 16.16479 0)" id="path_1" />
    <clipPath id="mask_1">
      <use xlink:href="#path_1" />
    </clipPath>
  </defs>
  <path d="M7.29265 0.29591C6.90212 0.690457 6.90212 1.33014 7.29265 1.72469L12.5859 7.07245L1 7.07245C0.447715 7.07245 0 7.52478 0 8.08275C0 8.64072 0.447715 9.09305 1 9.09305L12.5852 9.09305L7.29265 14.4401C6.90212 14.8347 6.90212 15.4743 7.29265 15.8689C7.68317 16.2634 8.31634 16.2634 8.70686 15.8689L15.6863 8.81757C15.8794 8.63336 16 8.37228 16 8.08275C16 7.91615 15.9601 7.75897 15.8894 7.62044C15.8431 7.52951 15.7823 7.44419 15.7069 7.36801L8.70686 0.29591C8.31634 -0.0986366 7.68317 -0.0986366 7.29265 0.29591Z" transform="matrix(-4.371139E-08 1 -1 -4.371139E-08 16.16479 0)" id="Mask" fill="#FFFFFF" fill-rule="evenodd" stroke="none" />
</svg>