<?xml version="1.0" encoding="utf-8"?>
<svg width="15px" height="15px" viewBox="0 0 15 15" version="1.1" xmlns:xlink="http://www.w3.org/1999/xlink" xmlns="http://www.w3.org/2000/svg">
  <desc>Created with Lunacy</desc>
  <defs>
    <path d="M0 7C0 3.13401 3.13401 0 7 0C10.866 0 14 3.13401 14 7C14 10.866 10.866 14 7 14C3.13401 14 0 10.866 0 7ZM2.33325 5.75556L2.33325 6.6889C2.33325 6.9689 2.51992 7.15557 2.79992 7.15557C3.07992 7.15557 3.26659 6.9689 3.26659 6.6889L3.26659 5.75556C3.26659 4.96223 3.87326 4.35556 4.6666 4.35556L10.08 4.35556L9.00662 5.42889C8.81995 5.61556 8.81995 5.89556 9.00662 6.08223C9.09995 6.17557 9.19328 6.22223 9.33329 6.22223C9.47329 6.22223 9.56662 6.17557 9.65995 6.08223L11.5266 4.21556C11.5733 4.16889 11.5733 4.12222 11.62 4.07555C11.6666 3.93555 11.6666 3.79555 11.62 3.70222C11.62 3.65555 11.5733 3.60889 11.5266 3.56222L9.65995 1.69554C9.47329 1.50888 9.19328 1.50888 9.00662 1.69554C8.81995 1.88221 8.81995 2.16221 9.00662 2.34888L10.08 3.42222L4.6666 3.42222C3.35992 3.42222 2.33325 4.44889 2.33325 5.75556ZM10.7333 7.62228C10.7333 7.34228 10.92 7.15561 11.2 7.15561C11.48 7.15561 11.6667 7.34228 11.6667 7.62228L11.6667 8.55562C11.6667 9.86229 10.64 10.889 9.33334 10.889L3.91998 10.889L4.99332 11.9623C5.17998 12.149 5.17998 12.429 4.99332 12.6156C4.89998 12.709 4.80665 12.7556 4.66665 12.7556C4.52665 12.7556 4.43331 12.709 4.33998 12.6156L2.4733 10.749C2.42664 10.7023 2.42664 10.6556 2.37997 10.609C2.3333 10.469 2.3333 10.329 2.37997 10.2356C2.37997 10.189 2.42664 10.1423 2.4733 10.0956L4.33998 8.22895C4.52665 8.04228 4.80665 8.04228 4.99332 8.22895C5.17998 8.41562 5.17998 8.69562 4.99332 8.88228L3.91998 9.95562L9.33334 9.95562C10.1267 9.95562 10.7333 9.34895 10.7333 8.55562L10.7333 7.62228Z" transform="translate(0.5 0.5)" id="path_1" />
    <clipPath id="mask_1">
      <use xlink:href="#path_1" />
    </clipPath>
  </defs>
  <path d="M0 7C0 3.13401 3.13401 0 7 0C10.866 0 14 3.13401 14 7C14 10.866 10.866 14 7 14C3.13401 14 0 10.866 0 7ZM2.33325 5.75556L2.33325 6.6889C2.33325 6.9689 2.51992 7.15557 2.79992 7.15557C3.07992 7.15557 3.26659 6.9689 3.26659 6.6889L3.26659 5.75556C3.26659 4.96223 3.87326 4.35556 4.6666 4.35556L10.08 4.35556L9.00662 5.42889C8.81995 5.61556 8.81995 5.89556 9.00662 6.08223C9.09995 6.17557 9.19328 6.22223 9.33329 6.22223C9.47329 6.22223 9.56662 6.17557 9.65995 6.08223L11.5266 4.21556C11.5733 4.16889 11.5733 4.12222 11.62 4.07555C11.6666 3.93555 11.6666 3.79555 11.62 3.70222C11.62 3.65555 11.5733 3.60889 11.5266 3.56222L9.65995 1.69554C9.47329 1.50888 9.19328 1.50888 9.00662 1.69554C8.81995 1.88221 8.81995 2.16221 9.00662 2.34888L10.08 3.42222L4.6666 3.42222C3.35992 3.42222 2.33325 4.44889 2.33325 5.75556ZM10.7333 7.62228C10.7333 7.34228 10.92 7.15561 11.2 7.15561C11.48 7.15561 11.6667 7.34228 11.6667 7.62228L11.6667 8.55562C11.6667 9.86229 10.64 10.889 9.33334 10.889L3.91998 10.889L4.99332 11.9623C5.17998 12.149 5.17998 12.429 4.99332 12.6156C4.89998 12.709 4.80665 12.7556 4.66665 12.7556C4.52665 12.7556 4.43331 12.709 4.33998 12.6156L2.4733 10.749C2.42664 10.7023 2.42664 10.6556 2.37997 10.609C2.3333 10.469 2.3333 10.329 2.37997 10.2356C2.37997 10.189 2.42664 10.1423 2.4733 10.0956L4.33998 8.22895C4.52665 8.04228 4.80665 8.04228 4.99332 8.22895C5.17998 8.41562 5.17998 8.69562 4.99332 8.88228L3.91998 9.95562L9.33334 9.95562C10.1267 9.95562 10.7333 9.34895 10.7333 8.55562L10.7333 7.62228Z" transform="translate(0.5 0.5)" id="Mask" fill="#FFFFFF" fill-rule="evenodd" stroke="none" />
</svg>