<svg width="35" height="35" viewBox="0 0 35 35" fill="none" xmlns="http://www.w3.org/2000/svg">
<circle cx="17.5" cy="17.5" r="17" fill="black" stroke="#1C1C1C"/>
<path d="M18.4813 21.8319L21.7954 18.3674C22.4078 17.7245 23.5029 18.1531 23.5029 19.046V19.0531C23.5029 19.3103 23.402 19.5603 23.2147 19.7461L18.2003 24.7107C17.8112 25.0964 17.1844 25.0964 16.8026 24.7107L11.7882 19.7389C11.6009 19.5532 11.5 19.3032 11.5 19.046C11.5 18.1602 12.5951 17.7245 13.2075 18.3745L16.5144 21.8319L16.4856 10.9858C16.4856 10.4429 16.9323 10 17.4798 10H17.5158C18.0634 10 18.5029 10.4429 18.5029 10.9858L18.4813 21.8319Z" fill="white"/>
</svg>
